<svg viewBox="0 0 32 24" fill="none" xmlns="http://www.w3.org/2000/svg">
<rect x="0.285714" y="0.285714" width="31.4286" height="23.4286" rx="2" fill="white" stroke="#F5F5F5" stroke-width="0.571427"/>
<mask id="mask0_2341_24236" style="mask-type:luminance" maskUnits="userSpaceOnUse" x="0" y="0" width="32" height="24">
<rect x="0.285714" y="0.285714" width="31.4286" height="23.4286" rx="2" fill="white" stroke="white" stroke-width="0.571427"/>
</mask>
<g mask="url(#mask0_2341_24236)">
<rect x="23" width="9" height="24" fill="#FF3131"/>
<path fill-rule="evenodd" clip-rule="evenodd" d="M0 24H9V0H0V24Z" fill="#FF3131"/>
<path fill-rule="evenodd" clip-rule="evenodd" d="M18.4134 11.4436C18.1469 11.7102 17.6966 11.4692 17.7705 11.0996L18.2856 8.52381L16.7618 9.28571L15.9999 7L15.238 9.28571L13.7142 8.52381L14.2294 11.0996C14.3033 11.4692 13.853 11.7102 13.5865 11.4436L13.2217 11.0789C13.0729 10.9301 12.8317 10.9301 12.683 11.0789L12.1904 11.5714L10.6666 10.8095L11.4285 12.3333L10.936 12.8259C10.7872 12.9746 10.7872 13.2158 10.936 13.3646L12.9523 15.3809H15.238L15.619 17.6667H16.3809L16.7618 15.3809H19.0475L21.0639 13.3646C21.2126 13.2158 21.2126 12.9746 21.0639 12.8259L20.5713 12.3333L21.3332 10.8095L19.8094 11.5714L19.3169 11.0789C19.1681 10.9301 18.9269 10.9301 18.7782 11.0789L18.4134 11.4436Z" fill="#FF3131"/>
</g>
</svg>
