<svg viewBox="0 0 34 26" fill="none" xmlns="http://www.w3.org/2000/svg">
<g clip-path="url(#clip0_1478_12220)">
<rect x="1" y="1" width="32" height="24" fill="#DA291C"/>
<path d="M14.75 6.5C14.75 5.94772 15.1977 5.5 15.75 5.5H18.25C18.8023 5.5 19.25 5.94772 19.25 6.5V19.5C19.25 20.0523 18.8023 20.5 18.25 20.5H15.75C15.1977 20.5 14.75 20.0523 14.75 19.5V6.5Z" fill="white"/>
<path d="M9.5 11.75C9.5 11.1977 9.94772 10.75 10.5 10.75H23.5C24.0523 10.75 24.5 11.1977 24.5 11.75V14.25C24.5 14.8023 24.0523 15.25 23.5 15.25H10.5C9.94772 15.25 9.5 14.8023 9.5 14.25V11.75Z" fill="white"/>
</g>
<rect x="0.75" y="0.75" width="32.5" height="24.5" rx="4.25" stroke="#2B1911" stroke-width="0.5"/>
<defs>
<clipPath id="clip0_1478_12220">
<rect x="1" y="1" width="32" height="24" rx="4" fill="white"/>
</clipPath>
</defs>
</svg>
