<svg viewBox="0 0 34 26" fill="none" xmlns="http://www.w3.org/2000/svg">
<g clip-path="url(#clip0_3211_49977)">
<rect x="1" y="1" width="32" height="24" fill="white"/>
<path fill-rule="evenodd" clip-rule="evenodd" d="M22.6667 6.66667C23.0298 6.48512 23.3983 6.90257 23.1731 7.24035L22.7339 7.89913C22.6895 7.96572 22.6324 8.02285 22.5658 8.06725L20.7373 9.28621C20.6903 9.31755 20.6465 9.35345 20.6066 9.3934V9.3934C20.2716 9.72842 20.2716 10.2716 20.6066 10.6066L20.6667 10.6667C21.0349 11.0349 21.0349 11.6318 20.6667 12L20.4415 12.2251C20.1778 12.4888 19.775 12.5542 19.4415 12.3874V12.3874C19.0136 12.1735 18.4932 12.3469 18.2792 12.7749L18.1852 12.9628C18.0666 13.2001 17.8586 13.3805 17.607 13.4643L16.1539 13.9487C16.052 13.9827 15.9452 14 15.8377 14H15.2361C14.8871 14 14.5681 14.1972 14.412 14.5093V14.5093C14.1845 14.9644 13.6311 15.1489 13.176 14.9213L11.4785 14.0726C11.3823 14.0245 11.2946 13.9613 11.2186 13.8853L10.286 12.9526C10.1029 12.7695 10 12.5212 10 12.2623V12.0072C10 11.7091 10.2029 11.4493 10.4921 11.377V11.377C10.6063 11.3484 10.7106 11.2894 10.7939 11.2061L11.7071 10.2929C11.8946 10.1054 12.149 10 12.4142 10H12.6126C13.043 10 13.4251 9.72457 13.5613 9.31623L13.7208 8.83748C13.8803 8.35904 14.3711 8.07422 14.8656 8.17313L17.1128 8.62257C17.258 8.6516 17.4078 8.64804 17.5515 8.61213L19.8935 8.02662C19.9643 8.00893 20.0329 7.98354 20.0982 7.95091L21.3333 7.33333L22.6667 6.66667V6.66667Z" fill="#D57800"/>
<path fill-rule="evenodd" clip-rule="evenodd" d="M16.85 19.25C17.4023 19.25 17.85 18.8023 17.85 18.25C17.85 17.6977 17.4023 17.25 16.85 17.25C16.2977 17.25 15.85 17.6977 15.85 18.25C15.85 18.8023 16.2977 19.25 16.85 19.25Z" fill="#445128"/>
<path d="M11.2803 15.2197C10.9874 14.9268 10.5126 14.9268 10.2197 15.2197C9.92678 15.5126 9.92678 15.9874 10.2197 16.2803C11.69 17.7507 13.5329 18.6216 15.4445 18.8931C15.3518 18.6982 15.3 18.4801 15.3 18.25C15.3 17.9322 15.3988 17.6375 15.5674 17.3949C13.9982 17.1534 12.489 16.4284 11.2803 15.2197Z" fill="#445128"/>
<path d="M18.0224 17.3805C18.1972 17.6258 18.3 17.9259 18.3 18.25C18.3 18.4739 18.2509 18.6864 18.163 18.8772C20.0361 18.5888 21.8375 17.7231 23.2803 16.2803C23.5732 15.9874 23.5732 15.5126 23.2803 15.2197C22.9874 14.9268 22.5126 14.9268 22.2197 15.2197C21.0341 16.4053 19.5593 17.1256 18.0224 17.3805Z" fill="#445128"/>
</g>
<rect x="0.75" y="0.75" width="32.5" height="24.5" rx="4.25" stroke="#2B1911" stroke-width="0.5"/>
<defs>
<clipPath id="clip0_3211_49977">
<rect x="1" y="1" width="32" height="24" rx="4" fill="white"/>
</clipPath>
</defs>
</svg>
