<svg viewBox="0 0 28 20" fill="none" xmlns="http://www.w3.org/2000/svg">
<rect width="28" height="20" rx="2" fill="white"/>
<mask id="mask0_402_20301" style="mask-type:alpha" maskUnits="userSpaceOnUse" x="0" y="0" width="28" height="20">
<rect width="28" height="20" rx="2" fill="white"/>
</mask>
<g mask="url(#mask0_402_20301)">
<path fill-rule="evenodd" clip-rule="evenodd" d="M0 5.33333H28V0H0V5.33333Z" fill="#DD172C"/>
<path fill-rule="evenodd" clip-rule="evenodd" d="M0 20H28V14.6667H0V20Z" fill="#DD172C"/>
<path fill-rule="evenodd" clip-rule="evenodd" d="M0 14.6666H28V5.33331H0V14.6666Z" fill="#FFD133"/>
<path fill-rule="evenodd" clip-rule="evenodd" d="M7.33325 9.33333H8.66659V10H7.33325V9.33333Z" fill="#FFEDB1"/>
<path d="M6.0591 9.36104C6.0429 9.1667 6.19627 9.00002 6.39128 9.00002H8.27555C8.47056 9.00002 8.62393 9.1667 8.60773 9.36104L8.43645 11.4164C8.39326 11.9347 7.95999 12.3334 7.4399 12.3334H7.22693C6.70684 12.3334 6.27357 11.9347 6.23038 11.4164L6.0591 9.36104Z" stroke="#A41517" stroke-width="0.666667"/>
<path fill-rule="evenodd" clip-rule="evenodd" d="M6 10H8.66667V10.6667H8L7.33333 12L6.66667 10.6667H6V10Z" fill="#A41517"/>
<rect x="4" y="8" width="1.33333" height="4.66667" rx="0.666667" fill="#A41517"/>
<rect x="9.33325" y="8" width="1.33333" height="4.66667" rx="0.666667" fill="#A41517"/>
<path d="M6 7.73335C6 7.14425 6.47756 6.66669 7.06667 6.66669H7.6C8.1891 6.66669 8.66667 7.14425 8.66667 7.73335C8.66667 7.88063 8.54728 8.00002 8.4 8.00002H6.26667C6.11939 8.00002 6 7.88063 6 7.73335Z" fill="#A41517"/>
</g>
</svg>
