<svg viewBox="0 0 34 26" fill="none" xmlns="http://www.w3.org/2000/svg">
<g clip-path="url(#clip0_3163_60593)">
<g filter="url(#filter0_d_3163_60593)">
<path fill-rule="evenodd" clip-rule="evenodd" d="M1 25H33V1H1V25Z" fill="#1E448A"/>
</g>
<path d="M16.0163 6.23015L17.1314 5.90355L18.2465 6.23015L17.9199 5.11506L18.2465 3.99997L17.1314 4.32657L16.0163 3.99997L16.3429 5.11506L16.0163 6.23015Z" fill="#FDCB0B"/>
<path d="M16.0163 21.9999L17.1314 21.6733L18.2465 21.9999L17.9199 20.8848L18.2465 19.7697L17.1314 20.0963L16.0163 19.7697L16.3429 20.8848L16.0163 21.9999Z" fill="#FDCB0B"/>
<path d="M25.0163 13.7884L23.9012 14.115L24.2278 12.9999L23.9012 11.8848L25.0163 12.2114L26.1314 11.8848L25.8048 12.9999L26.1314 14.115L25.0163 13.7884Z" fill="#FDCB0B"/>
<path d="M8.13137 14.115L9.24646 13.7884L10.3616 14.115L10.035 12.9999L10.3616 11.8848L9.24646 12.2114L8.13137 11.8848L8.45797 12.9999L8.13137 14.115Z" fill="#FDCB0B"/>
<path d="M23.9599 9.84598L22.8448 10.1726L23.1714 9.05749L22.8448 7.94239L23.9599 8.269L25.075 7.94239L24.7484 9.05749L25.075 10.1726L23.9599 9.84598Z" fill="#FDCB0B"/>
<path d="M9.18775 18.0575L10.3028 17.7309L11.4179 18.0575L11.0913 16.9424L11.4179 15.8273L10.3028 16.1539L9.18775 15.8273L9.51435 16.9424L9.18775 18.0575Z" fill="#FDCB0B"/>
<path d="M21.0738 6.95988L19.9587 7.28649L20.2853 6.17139L19.9587 5.0563L21.0738 5.38291L22.1889 5.0563L21.8623 6.17139L22.1889 7.28649L21.0738 6.95988Z" fill="#FDCB0B"/>
<path d="M12.0738 20.9435L13.1889 20.6169L14.304 20.9435L13.9774 19.8284L14.304 18.7133L13.1889 19.0399L12.0738 18.7133L12.4004 19.8284L12.0738 20.9435Z" fill="#FDCB0B"/>
<path d="M23.9599 17.7309L22.8448 18.0575L23.1714 16.9424L22.8448 15.8273L23.9599 16.1539L25.075 15.8273L24.7484 16.9424L25.075 18.0575L23.9599 17.7309Z" fill="#FDCB0B"/>
<path d="M9.18775 10.1726L10.3028 9.84598L11.4179 10.1726L11.0913 9.05749L11.4179 7.94239L10.3028 8.269L9.18775 7.94239L9.51435 9.05749L9.18775 10.1726Z" fill="#FDCB0B"/>
<path d="M21.0738 20.6169L19.9587 20.9435L20.2853 19.8284L19.9587 18.7133L21.0738 19.0399L22.1889 18.7133L21.8623 19.8284L22.1889 20.9435L21.0738 20.6169Z" fill="#FDCB0B"/>
<path d="M12.0738 7.28649L13.1889 6.95988L14.304 7.28649L13.9774 6.17139L14.304 5.0563L13.1889 5.38291L12.0738 5.0563L12.4004 6.17139L12.0738 7.28649Z" fill="#FDCB0B"/>
</g>
<rect x="0.75" y="0.75" width="32.5" height="24.5" rx="4.25" stroke="#2B1911" stroke-width="0.5"/>
<defs>
<filter id="filter0_d_3163_60593" x="1" y="1" width="32" height="24" filterUnits="userSpaceOnUse" color-interpolation-filters="sRGB">
<feFlood flood-opacity="0" result="BackgroundImageFix"/>
<feColorMatrix in="SourceAlpha" type="matrix" values="0 0 0 0 0 0 0 0 0 0 0 0 0 0 0 0 0 0 127 0" result="hardAlpha"/>
<feOffset/>
<feColorMatrix type="matrix" values="0 0 0 0 0 0 0 0 0 0 0 0 0 0 0 0 0 0 0.06 0"/>
<feBlend mode="normal" in2="BackgroundImageFix" result="effect1_dropShadow_3163_60593"/>
<feBlend mode="normal" in="SourceGraphic" in2="effect1_dropShadow_3163_60593" result="shape"/>
</filter>
<clipPath id="clip0_3163_60593">
<rect x="1" y="1" width="32" height="24" rx="4" fill="white"/>
</clipPath>
</defs>
</svg>
