<svg viewBox="0 0 32 32" fill="none" xmlns="http://www.w3.org/2000/svg">
<rect x="-6.3999" width="44.8" height="32" rx="3.2" fill="white"/>
<mask id="mask0_362_10476" style="mask-type:alpha" maskUnits="userSpaceOnUse" x="-7" y="0" width="46" height="32">
<rect x="-6.3999" width="44.8" height="32" rx="3.2" fill="white"/>
</mask>
<g mask="url(#mask0_362_10476)">
<rect x="-6.3999" width="44.8" height="32" fill="#0A17A7"/>
<path fill-rule="evenodd" clip-rule="evenodd" d="M-8.45198 -3.06628L10.6666 9.8294V-2.13332H21.3333V9.82937L40.4519 -3.06627L42.8378 0.470958L27.722 10.6667H38.4V21.3333H27.722L42.8378 31.5291L40.4519 35.0663L21.3333 22.1707V34.1333H10.6666V22.1707L-8.45203 35.0664L-10.8379 31.5291L4.27796 21.3333H-6.40002V10.6667H4.27793L-10.8379 0.470949L-8.45198 -3.06628Z" fill="white"/>
<path d="M23.4688 10.1315L43.7333 -3.20001" stroke="#DB1F35" stroke-width="1.06667" stroke-linecap="round"/>
<path d="M25.6206 21.916L43.7868 34.1605" stroke="#DB1F35" stroke-width="1.06667" stroke-linecap="round"/>
<path d="M6.40879 10.0967L-12.54 -2.67358" stroke="#DB1F35" stroke-width="1.06667" stroke-linecap="round"/>
<path d="M8.464 21.7678L-12.54 35.6967" stroke="#DB1F35" stroke-width="1.06667" stroke-linecap="round"/>
<path fill-rule="evenodd" clip-rule="evenodd" d="M-6.3999 19.2H12.8001V32H19.2001V19.2H38.4001V12.8H19.2001V0H12.8001V12.8H-6.3999V19.2Z" fill="#E6273E"/>
</g>
</svg>
