<svg viewBox="0 0 34 26" fill="none" xmlns="http://www.w3.org/2000/svg">
<g clip-path="url(#clip0_3232_49742)">
<path fill-rule="evenodd" clip-rule="evenodd" d="M1 3.7H33V1H1V3.7Z" fill="#004C98"/>
<path fill-rule="evenodd" clip-rule="evenodd" d="M1 6.40001H33V3.70001H1V6.40001Z" fill="white"/>
<path fill-rule="evenodd" clip-rule="evenodd" d="M1 9.09999H33V6.39999H1V9.09999Z" fill="#004C98"/>
<path fill-rule="evenodd" clip-rule="evenodd" d="M1 11.8H33V9.10001H1V11.8Z" fill="white"/>
<path fill-rule="evenodd" clip-rule="evenodd" d="M1 14.5H33V11.8H1V14.5Z" fill="#004C98"/>
<path fill-rule="evenodd" clip-rule="evenodd" d="M1 17.2H33V14.5H1V17.2Z" fill="white"/>
<path fill-rule="evenodd" clip-rule="evenodd" d="M1 19.9H33V17.2H1V19.9Z" fill="#004C98"/>
<path fill-rule="evenodd" clip-rule="evenodd" d="M1 22.6H33V19.9H1V22.6Z" fill="white"/>
<path fill-rule="evenodd" clip-rule="evenodd" d="M1 25.3H33V22.6H1V25.3Z" fill="#004C98"/>
<rect x="1" y="1" width="13.5" height="13.5" fill="#004C98"/>
<path fill-rule="evenodd" clip-rule="evenodd" d="M1 9.09999H14.5V6.39999H1V9.09999Z" fill="white"/>
<path fill-rule="evenodd" clip-rule="evenodd" d="M6.39999 14.5H9.09999V1H6.39999V14.5Z" fill="white"/>
</g>
<rect x="0.75" y="0.75" width="32.5" height="24.5" rx="4.25" stroke="#2B1911" stroke-width="0.5"/>
<defs>
<clipPath id="clip0_3232_49742">
<rect x="1" y="1" width="32" height="24" rx="4" fill="white"/>
</clipPath>
</defs>
</svg>
