<svg width="34" height="26" viewBox="0 0 34 26" fill="none" xmlns="http://www.w3.org/2000/svg">
<g clip-path="url(#clip0_1007_5256)">
<path fill-rule="evenodd" clip-rule="evenodd" d="M1 25H13.8V1H1V25Z" fill="#006600"/>
<path fill-rule="evenodd" clip-rule="evenodd" d="M13.8 25H33V1H13.8V25Z" fill="#FF0000"/>
<path fill-rule="evenodd" clip-rule="evenodd" d="M18.8 13C18.8 15.7614 16.5614 18 13.8 18C11.0386 18 8.79999 15.7614 8.79999 13C8.79999 10.2386 11.0386 8 13.8 8C16.5614 8 18.8 10.2386 18.8 13ZM16.8 13C16.8 14.6569 15.4568 16 13.8 16C12.1431 16 10.8 14.6569 10.8 13C10.8 11.3431 12.1431 10 13.8 10C15.4568 10 16.8 11.3431 16.8 13Z" fill="#FFFF00"/>
<path fill-rule="evenodd" clip-rule="evenodd" d="M12.3 11.1333C12.3 10.8388 12.5388 10.6 12.8333 10.6H14.7667C15.0612 10.6 15.3 10.8388 15.3 11.1333V13.9C15.3 14.7284 14.6284 15.4 13.8 15.4C12.9716 15.4 12.3 14.7284 12.3 13.9V11.1333Z" fill="white"/>
<path d="M12.55 12.85C12.55 12.5738 12.7738 12.35 13.05 12.35H14.55C14.8261 12.35 15.05 12.5738 15.05 12.85C15.05 13.1261 14.8261 13.35 14.55 13.35H13.05C12.7738 13.35 12.55 13.1261 12.55 12.85Z" fill="#003399"/>
<path d="M13.3 11.6C13.3 11.3238 13.5238 11.1 13.8 11.1C14.0761 11.1 14.3 11.3238 14.3 11.6V14.1C14.3 14.3761 14.0761 14.6 13.8 14.6C13.5238 14.6 13.3 14.3761 13.3 14.1V11.6Z" fill="#003399"/>
</g>
<rect x="0.5" y="0.5" width="33" height="25" rx="4.5" stroke="#BAADA7"/>
<defs>
<clipPath id="clip0_1007_5256">
<rect x="1" y="1" width="32" height="24" rx="4" fill="white"/>
</clipPath>
</defs>
</svg>
