<svg viewBox="0 0 34 26" fill="none" xmlns="http://www.w3.org/2000/svg">
<g clip-path="url(#clip0_2341_24270)">
<path fill-rule="evenodd" clip-rule="evenodd" d="M1 25H33V17H1V25Z" fill="#FF0000"/>
<path fill-rule="evenodd" clip-rule="evenodd" d="M1 9H33V1H1V9Z" fill="white"/>
<path d="M33 17.0002H1V9.00016H7.09525V7.40016C7.09525 7.40016 8.272 6.60016 9.38097 6.60016C10.4899 6.60016 11.5646 7.40016 11.5646 7.40016V9.00016H33V17.0002Z" fill="#0000FF"/>
<path fill-rule="evenodd" clip-rule="evenodd" d="M9.29999 12C10.1284 12 10.8 11.3284 10.8 10.5C10.8 9.67157 10.1284 9 9.29999 9C8.47156 9 7.79999 9.67157 7.79999 10.5C7.79999 11.3284 8.47156 12 9.29999 12Z" fill="white"/>
</g>
<rect x="0.75" y="0.75" width="32.5" height="24.5" rx="4.25" stroke="#2B1911" stroke-width="0.5"/>
<defs>
<clipPath id="clip0_2341_24270">
<rect x="1" y="1" width="32" height="24" rx="4" fill="white"/>
</clipPath>
</defs>
</svg>
