<svg width="34" height="26" viewBox="0 0 34 26" fill="none" xmlns="http://www.w3.org/2000/svg">
<g clip-path="url(#clip0_4946_50475)">
<path fill-rule="evenodd" clip-rule="evenodd" d="M1 25H33V17H1V25Z" fill="#EE1620"/>
<path fill-rule="evenodd" clip-rule="evenodd" d="M1 9H33V1H1V9Z" fill="white"/>
<path fill-rule="evenodd" clip-rule="evenodd" d="M1 17H33V9H1V17Z" fill="#034DA3"/>
<path fill-rule="evenodd" clip-rule="evenodd" d="M5.25223 8.27863C5.27892 7.56465 5.84918 7 6.54357 7H12.4564C13.1508 7 13.7211 7.56465 13.7478 8.27863L13.999 15.0009C14.0142 15.4067 13.8484 15.7973 13.5487 16.0616L10.7615 18.5198C10.0356 19.1601 8.9644 19.1601 8.23847 18.5198L5.45128 16.0616C5.15165 15.7973 4.98579 15.4067 5.00096 15.0009L5.25223 8.27863Z" fill="#EE1620"/>
<path d="M9 8.98376H10V16.9838H9V8.98376Z" fill="white"/>
<path d="M7 11.9838H12V12.9838H7V11.9838Z" fill="white"/>
<path d="M8 9.98376H11V10.9838H8V9.98376Z" fill="white"/>
<path d="M13.391 17.5341L11.423 19.2698C10.3191 20.2434 8.68096 20.2434 7.57706 19.2698L5.60913 17.5341C5.73168 17.2773 5.95331 17.0397 6.25269 16.832C6.25094 16.8049 6.25005 16.7775 6.25005 16.75C6.25005 16.0596 6.80969 15.5 7.50005 15.5C7.81774 15.5 8.10775 15.6185 8.32828 15.8138C8.50529 15.3385 8.96314 15 9.50005 15C10.037 15 10.4948 15.3385 10.6718 15.8138C10.8923 15.6185 11.1824 15.5 11.5 15.5C12.1904 15.5 12.75 16.0596 12.75 16.75C12.75 16.7775 12.7492 16.8049 12.7474 16.832C13.0468 17.0397 13.2684 17.2773 13.391 17.5341Z" fill="#034DA3"/>
<path fill-rule="evenodd" clip-rule="evenodd" d="M6.54357 6H12.4564C13.7138 6 14.7013 7.0155 14.7471 8.24127L14.9983 14.9635C15.0245 15.6635 14.7391 16.3451 14.2102 16.8116L11.423 19.2698C10.3191 20.2434 8.68091 20.2434 7.57701 19.2698L4.78982 16.8116C4.26092 16.3451 3.97549 15.6635 4.00165 14.9635L4.25292 8.24127C4.29874 7.0155 5.28619 6 6.54357 6ZM6.54357 7C5.84918 7 5.27891 7.56465 5.25223 8.27863L5.00095 15.0009C4.98579 15.4067 5.15165 15.7973 5.45128 16.0616L8.23847 18.5198C8.9644 19.1601 10.0356 19.1601 10.7615 18.5198L13.5487 16.0616C13.8484 15.7973 14.0142 15.4067 13.999 15.0009L13.7478 8.27863C13.7211 7.56465 13.1508 7 12.4564 7H6.54357Z" fill="white"/>
</g>
<rect x="0.75" y="0.75" width="32.5" height="24.5" rx="4.25" stroke="#2B1911" stroke-width="0.5"/>
<defs>
<clipPath id="clip0_4946_50475">
<rect x="1" y="1" width="32" height="24" rx="4" fill="white"/>
</clipPath>
</defs>
</svg>
