<svg viewBox="0 0 34 26" fill="none" xmlns="http://www.w3.org/2000/svg">
<g clip-path="url(#clip0_1007_5201)">
<rect x="1" y="1" width="32" height="24" fill="#012169"/>
<path fill-rule="evenodd" clip-rule="evenodd" d="M-0.465611 -1.2998L13.1905 8.3719V-0.600028H20.8095V8.37199L34.4657 -1.29979L36.1699 1.35313L25.3729 8.99997H33V17H25.373L36.17 24.6467L34.4657 27.2997L20.8095 17.6279V26.6H13.1905V17.628L-0.465645 27.2997L-2.16985 24.6468L8.62713 17H1V8.99997H8.62726L-2.16982 1.35312L-0.465611 -1.2998Z" fill="white"/>
<path d="M22.3348 8.59861L36.8095 -1.40002" stroke="#C8102E" stroke-width="0.761905" stroke-linecap="round"/>
<path d="M23.8717 17.437L36.8475 26.6204" stroke="#C8102E" stroke-width="0.761905" stroke-linecap="round"/>
<path d="M10.1492 8.57261L-3.38568 -1.00513" stroke="#C8102E" stroke-width="0.761905" stroke-linecap="round"/>
<path d="M11.6172 17.3259L-3.38568 27.7726" stroke="#C8102E" stroke-width="0.761905" stroke-linecap="round"/>
<path fill-rule="evenodd" clip-rule="evenodd" d="M1 15.4H14.7143V25H19.2857V15.4H33V10.6H19.2857V1H14.7143V10.6H1V15.4Z" fill="#C8102E"/>
</g>
<rect x="0.75" y="0.75" width="32.5" height="24.5" rx="4.25" stroke="#2B1911" stroke-width="0.5"/>
<defs>
<clipPath id="clip0_1007_5201">
<rect x="1" y="1" width="32" height="24" rx="4" fill="white"/>
</clipPath>
</defs>
</svg>
