<svg viewBox="0 0 34 26" fill="none" xmlns="http://www.w3.org/2000/svg">
<g clip-path="url(#clip0_3166_59066)">
<rect x="1" y="1" width="32" height="1.84615" fill="#B22234"/>
<rect x="1" y="2.84616" width="32" height="1.84615" fill="white"/>
<rect x="1" y="4.69232" width="32" height="1.84615" fill="#B22234"/>
<rect x="1" y="6.53845" width="32" height="1.84615" fill="white"/>
<rect x="1" y="8.38461" width="32" height="1.84615" fill="#B22234"/>
<rect x="1" y="10.2308" width="32" height="1.84615" fill="white"/>
<rect x="1" y="12.0769" width="32" height="1.84615" fill="#B22234"/>
<rect x="1" y="13.9231" width="32" height="1.84615" fill="white"/>
<rect x="1" y="15.7692" width="32" height="1.84615" fill="#B22234"/>
<rect x="1" y="17.6154" width="32" height="1.84615" fill="white"/>
<rect x="1" y="19.4615" width="32" height="1.84615" fill="#B22234"/>
<rect x="1" y="21.3077" width="32" height="1.84615" fill="white"/>
<rect x="1" y="23.1538" width="32" height="1.84615" fill="#B22234"/>
<rect x="1" y="1" width="13.3" height="12.9" fill="#3C3B6E"/>
<path d="M5.95489 1.84269C5.98483 1.75056 6.11517 1.75056 6.14511 1.84269L6.31942 2.37917C6.3328 2.42037 6.3712 2.44827 6.41452 2.44827H6.97861C7.07548 2.44827 7.11575 2.57223 7.03738 2.62917L6.58103 2.96073C6.54598 2.98619 6.53132 3.03133 6.5447 3.07253L6.71902 3.609C6.74895 3.70114 6.6435 3.77775 6.56513 3.72081L6.10878 3.38925C6.07373 3.36378 6.02627 3.36378 5.99122 3.38925L5.53487 3.72081C5.4565 3.77775 5.35105 3.70114 5.38098 3.609L5.5553 3.07253C5.56868 3.03133 5.55402 2.98619 5.51897 2.96073L5.06262 2.62917C4.98424 2.57223 5.02452 2.44827 5.12139 2.44827H5.68548C5.7288 2.44827 5.7672 2.42037 5.78058 2.37917L5.95489 1.84269Z" fill="white"/>
<path d="M9.15491 1.84269C9.18484 1.75056 9.31518 1.75056 9.34512 1.84269L9.51943 2.37917C9.53282 2.42037 9.57121 2.44827 9.61453 2.44827H10.1786C10.2755 2.44827 10.3158 2.57223 10.2374 2.62917L9.78104 2.96073C9.74599 2.98619 9.73133 3.03133 9.74472 3.07253L9.91903 3.609C9.94896 3.70114 9.84351 3.77775 9.76514 3.72081L9.30879 3.38925C9.27374 3.36378 9.22628 3.36378 9.19123 3.38925L8.73488 3.72081C8.65651 3.77775 8.55106 3.70114 8.581 3.609L8.75531 3.07253C8.7687 3.03133 8.75403 2.98619 8.71898 2.96073L8.26263 2.62917C8.18426 2.57223 8.22453 2.44827 8.32141 2.44827H8.88549C8.92881 2.44827 8.96721 2.42037 8.9806 2.37917L9.15491 1.84269Z" fill="white"/>
<path d="M12.3549 1.84269C12.3849 1.75056 12.5152 1.75056 12.5451 1.84269L12.7194 2.37917C12.7328 2.42037 12.7712 2.44827 12.8145 2.44827H13.3786C13.4755 2.44827 13.5158 2.57223 13.4374 2.62917L12.9811 2.96073C12.946 2.98619 12.9313 3.03133 12.9447 3.07253L13.119 3.609C13.149 3.70114 13.0435 3.77775 12.9652 3.72081L12.5088 3.38925C12.4738 3.36378 12.4263 3.36378 12.3912 3.38925L11.9349 3.72081C11.8565 3.77775 11.7511 3.70114 11.781 3.609L11.9553 3.07253C11.9687 3.03133 11.954 2.98619 11.919 2.96073L11.4626 2.62917C11.3843 2.57223 11.4245 2.44827 11.5214 2.44827H12.0855C12.1288 2.44827 12.1672 2.42037 12.1806 2.37917L12.3549 1.84269Z" fill="white"/>
<path d="M4.35492 4.14271C4.38485 4.05058 4.51519 4.05058 4.54513 4.14271L4.71944 4.67919C4.73283 4.72039 4.77122 4.74828 4.81455 4.74828H5.37863C5.4755 4.74828 5.51578 4.87225 5.43741 4.92919L4.98106 5.26075C4.94601 5.28621 4.93134 5.33135 4.94473 5.37255L5.11904 5.90902C5.14897 6.00115 5.04353 6.07777 4.96516 6.02083L4.5088 5.68927C4.47375 5.6638 4.42629 5.6638 4.39125 5.68927L3.93489 6.02083C3.85652 6.07777 3.75107 6.00115 3.78101 5.90902L3.95532 5.37255C3.96871 5.33135 3.95404 5.28621 3.91899 5.26075L3.46264 4.92919C3.38427 4.87225 3.42455 4.74828 3.52142 4.74828H4.0855C4.12882 4.74828 4.16722 4.72039 4.18061 4.67919L4.35492 4.14271Z" fill="white"/>
<path d="M7.55487 4.14271C7.58481 4.05058 7.71515 4.05058 7.74508 4.14271L7.91939 4.67919C7.93278 4.72039 7.97118 4.74828 8.0145 4.74828H8.57858C8.67545 4.74828 8.71573 4.87225 8.63736 4.92919L8.18101 5.26075C8.14596 5.28621 8.13129 5.33135 8.14468 5.37255L8.31899 5.90902C8.34893 6.00115 8.24348 6.07777 8.16511 6.02083L7.70875 5.68927C7.67371 5.6638 7.62625 5.6638 7.5912 5.68927L7.13484 6.02083C7.05647 6.07777 6.95103 6.00115 6.98096 5.90902L7.15527 5.37255C7.16866 5.33135 7.15399 5.28621 7.11894 5.26075L6.66259 4.92919C6.58422 4.87225 6.6245 4.74828 6.72137 4.74828H7.28545C7.32878 4.74828 7.36717 4.72039 7.38056 4.67919L7.55487 4.14271Z" fill="white"/>
<path d="M10.7549 4.14271C10.7848 4.05058 10.9152 4.05058 10.9451 4.14271L11.1194 4.67919C11.1328 4.72039 11.1712 4.74828 11.2145 4.74828H11.7786C11.8755 4.74828 11.9157 4.87225 11.8374 4.92919L11.381 5.26075C11.346 5.28621 11.3313 5.33135 11.3447 5.37255L11.519 5.90902C11.5489 6.00115 11.4435 6.07777 11.3651 6.02083L10.9088 5.68927C10.8737 5.6638 10.8263 5.6638 10.7912 5.68927L10.3349 6.02083C10.2565 6.07777 10.151 6.00115 10.181 5.90902L10.3553 5.37255C10.3687 5.33135 10.354 5.28621 10.319 5.26075L9.8626 4.92919C9.78423 4.87225 9.82451 4.74828 9.92138 4.74828H10.4855C10.5288 4.74828 10.5672 4.72039 10.5806 4.67919L10.7549 4.14271Z" fill="white"/>
<path d="M2.75488 6.4427C2.78482 6.35057 2.91516 6.35057 2.94509 6.4427L3.1194 6.97917C3.13279 7.02038 3.17119 7.04827 3.21451 7.04827H3.77859C3.87547 7.04827 3.91574 7.17223 3.83737 7.22917L3.38102 7.56073C3.34597 7.5862 3.3313 7.63133 3.34469 7.67254L3.519 8.20901C3.54894 8.30114 3.44349 8.37775 3.36512 8.32081L2.90877 7.98925C2.87372 7.96379 2.82626 7.96379 2.79121 7.98925L2.33486 8.32081C2.25649 8.37775 2.15104 8.30114 2.18097 8.20901L2.35528 7.67254C2.36867 7.63133 2.35401 7.5862 2.31896 7.56073L1.8626 7.22917C1.78423 7.17223 1.82451 7.04827 1.92138 7.04827H2.48547C2.52879 7.04827 2.56718 7.02038 2.58057 6.97917L2.75488 6.4427Z" fill="white"/>
<path d="M5.95489 6.4427C5.98483 6.35057 6.11517 6.35057 6.14511 6.4427L6.31942 6.97917C6.3328 7.02038 6.3712 7.04827 6.41452 7.04827H6.97861C7.07548 7.04827 7.11575 7.17223 7.03738 7.22917L6.58103 7.56073C6.54598 7.5862 6.53132 7.63133 6.5447 7.67254L6.71902 8.20901C6.74895 8.30114 6.6435 8.37775 6.56513 8.32081L6.10878 7.98925C6.07373 7.96379 6.02627 7.96379 5.99122 7.98925L5.53487 8.32081C5.4565 8.37775 5.35105 8.30114 5.38098 8.20901L5.5553 7.67254C5.56868 7.63133 5.55402 7.5862 5.51897 7.56073L5.06262 7.22917C4.98424 7.17223 5.02452 7.04827 5.12139 7.04827H5.68548C5.7288 7.04827 5.7672 7.02038 5.78058 6.97917L5.95489 6.4427Z" fill="white"/>
<path d="M9.15491 6.4427C9.18484 6.35057 9.31518 6.35057 9.34512 6.4427L9.51943 6.97917C9.53282 7.02038 9.57121 7.04827 9.61453 7.04827H10.1786C10.2755 7.04827 10.3158 7.17223 10.2374 7.22917L9.78104 7.56073C9.74599 7.5862 9.73133 7.63133 9.74472 7.67254L9.91903 8.20901C9.94896 8.30114 9.84351 8.37775 9.76514 8.32081L9.30879 7.98925C9.27374 7.96379 9.22628 7.96379 9.19123 7.98925L8.73488 8.32081C8.65651 8.37775 8.55106 8.30114 8.581 8.20901L8.75531 7.67254C8.7687 7.63133 8.75403 7.5862 8.71898 7.56073L8.26263 7.22917C8.18426 7.17223 8.22453 7.04827 8.32141 7.04827H8.88549C8.92881 7.04827 8.96721 7.02038 8.9806 6.97917L9.15491 6.4427Z" fill="white"/>
<path d="M12.3549 6.4427C12.3849 6.35057 12.5152 6.35057 12.5451 6.4427L12.7194 6.97917C12.7328 7.02038 12.7712 7.04827 12.8145 7.04827H13.3786C13.4755 7.04827 13.5158 7.17223 13.4374 7.22917L12.9811 7.56073C12.946 7.5862 12.9313 7.63133 12.9447 7.67254L13.119 8.20901C13.149 8.30114 13.0435 8.37775 12.9652 8.32081L12.5088 7.98925C12.4738 7.96379 12.4263 7.96379 12.3912 7.98925L11.9349 8.32081C11.8565 8.37775 11.7511 8.30114 11.781 8.20901L11.9553 7.67254C11.9687 7.63133 11.954 7.5862 11.919 7.56073L11.4626 7.22917C11.3843 7.17223 11.4245 7.04827 11.5214 7.04827H12.0855C12.1288 7.04827 12.1672 7.02038 12.1806 6.97917L12.3549 6.4427Z" fill="white"/>
<path d="M4.35492 8.74272C4.38485 8.65059 4.51519 8.65059 4.54513 8.74272L4.71944 9.27919C4.73283 9.32039 4.77122 9.34829 4.81455 9.34829H5.37863C5.4755 9.34829 5.51578 9.47225 5.43741 9.52919L4.98106 9.86075C4.94601 9.88622 4.93134 9.93135 4.94473 9.97255L5.11904 10.509C5.14897 10.6012 5.04353 10.6778 4.96516 10.6208L4.5088 10.2893C4.47375 10.2638 4.42629 10.2638 4.39125 10.2893L3.93489 10.6208C3.85652 10.6778 3.75107 10.6012 3.78101 10.509L3.95532 9.97255C3.96871 9.93135 3.95404 9.88622 3.91899 9.86075L3.46264 9.52919C3.38427 9.47225 3.42455 9.34829 3.52142 9.34829H4.0855C4.12882 9.34829 4.16722 9.32039 4.18061 9.27919L4.35492 8.74272Z" fill="white"/>
<path d="M7.55487 8.74272C7.58481 8.65059 7.71515 8.65059 7.74508 8.74272L7.91939 9.27919C7.93278 9.32039 7.97118 9.34829 8.0145 9.34829H8.57858C8.67545 9.34829 8.71573 9.47225 8.63736 9.52919L8.18101 9.86075C8.14596 9.88622 8.13129 9.93135 8.14468 9.97255L8.31899 10.509C8.34893 10.6012 8.24348 10.6778 8.16511 10.6208L7.70875 10.2893C7.67371 10.2638 7.62625 10.2638 7.5912 10.2893L7.13484 10.6208C7.05647 10.6778 6.95103 10.6012 6.98096 10.509L7.15527 9.97255C7.16866 9.93135 7.15399 9.88622 7.11894 9.86075L6.66259 9.52919C6.58422 9.47225 6.6245 9.34829 6.72137 9.34829H7.28545C7.32878 9.34829 7.36717 9.32039 7.38056 9.27919L7.55487 8.74272Z" fill="white"/>
<path d="M10.7549 8.74272C10.7848 8.65059 10.9152 8.65059 10.9451 8.74272L11.1194 9.27919C11.1328 9.32039 11.1712 9.34829 11.2145 9.34829H11.7786C11.8755 9.34829 11.9157 9.47225 11.8374 9.52919L11.381 9.86075C11.346 9.88622 11.3313 9.93135 11.3447 9.97255L11.519 10.509C11.5489 10.6012 11.4435 10.6778 11.3651 10.6208L10.9088 10.2893C10.8737 10.2638 10.8263 10.2638 10.7912 10.2893L10.3349 10.6208C10.2565 10.6778 10.151 10.6012 10.181 10.509L10.3553 9.97255C10.3687 9.93135 10.354 9.88622 10.319 9.86075L9.8626 9.52919C9.78423 9.47225 9.82451 9.34829 9.92138 9.34829H10.4855C10.5288 9.34829 10.5672 9.32039 10.5806 9.27919L10.7549 8.74272Z" fill="white"/>
<path d="M2.75488 11.0427C2.78482 10.9506 2.91516 10.9506 2.94509 11.0427L3.1194 11.5792C3.13279 11.6204 3.17119 11.6483 3.21451 11.6483H3.77859C3.87547 11.6483 3.91574 11.7722 3.83737 11.8292L3.38102 12.1607C3.34597 12.1862 3.3313 12.2313 3.34469 12.2725L3.519 12.809C3.54894 12.9011 3.44349 12.9778 3.36512 12.9208L2.90877 12.5893C2.87372 12.5638 2.82626 12.5638 2.79121 12.5893L2.33486 12.9208C2.25649 12.9778 2.15104 12.9011 2.18097 12.809L2.35528 12.2725C2.36867 12.2313 2.35401 12.1862 2.31896 12.1607L1.8626 11.8292C1.78423 11.7722 1.82451 11.6483 1.92138 11.6483H2.48547C2.52879 11.6483 2.56718 11.6204 2.58057 11.5792L2.75488 11.0427Z" fill="white"/>
<path d="M5.95489 11.0427C5.98483 10.9506 6.11517 10.9506 6.14511 11.0427L6.31942 11.5792C6.3328 11.6204 6.3712 11.6483 6.41452 11.6483H6.97861C7.07548 11.6483 7.11575 11.7722 7.03738 11.8292L6.58103 12.1607C6.54598 12.1862 6.53132 12.2313 6.5447 12.2725L6.71902 12.809C6.74895 12.9011 6.6435 12.9778 6.56513 12.9208L6.10878 12.5893C6.07373 12.5638 6.02627 12.5638 5.99122 12.5893L5.53487 12.9208C5.4565 12.9778 5.35105 12.9011 5.38098 12.809L5.5553 12.2725C5.56868 12.2313 5.55402 12.1862 5.51897 12.1607L5.06262 11.8292C4.98424 11.7722 5.02452 11.6483 5.12139 11.6483H5.68548C5.7288 11.6483 5.7672 11.6204 5.78058 11.5792L5.95489 11.0427Z" fill="white"/>
<path d="M9.15491 11.0427C9.18484 10.9506 9.31518 10.9506 9.34512 11.0427L9.51943 11.5792C9.53282 11.6204 9.57121 11.6483 9.61453 11.6483H10.1786C10.2755 11.6483 10.3158 11.7722 10.2374 11.8292L9.78104 12.1607C9.74599 12.1862 9.73133 12.2313 9.74472 12.2725L9.91903 12.809C9.94896 12.9011 9.84351 12.9778 9.76514 12.9208L9.30879 12.5893C9.27374 12.5638 9.22628 12.5638 9.19123 12.5893L8.73488 12.9208C8.65651 12.9778 8.55106 12.9011 8.581 12.809L8.75531 12.2725C8.7687 12.2313 8.75403 12.1862 8.71898 12.1607L8.26263 11.8292C8.18426 11.7722 8.22453 11.6483 8.32141 11.6483H8.88549C8.92881 11.6483 8.96721 11.6204 8.9806 11.5792L9.15491 11.0427Z" fill="white"/>
<path d="M12.3549 11.0427C12.3849 10.9506 12.5152 10.9506 12.5451 11.0427L12.7194 11.5792C12.7328 11.6204 12.7712 11.6483 12.8145 11.6483H13.3786C13.4755 11.6483 13.5158 11.7722 13.4374 11.8292L12.9811 12.1607C12.946 12.1862 12.9313 12.2313 12.9447 12.2725L13.119 12.809C13.149 12.9011 13.0435 12.9778 12.9652 12.9208L12.5088 12.5893C12.4738 12.5638 12.4263 12.5638 12.3912 12.5893L11.9349 12.9208C11.8565 12.9778 11.7511 12.9011 11.781 12.809L11.9553 12.2725C11.9687 12.2313 11.954 12.1862 11.919 12.1607L11.4626 11.8292C11.3843 11.7722 11.4245 11.6483 11.5214 11.6483H12.0855C12.1288 11.6483 12.1672 11.6204 12.1806 11.5792L12.3549 11.0427Z" fill="white"/>
</g>
<rect x="0.75" y="0.75" width="32.5" height="24.5" rx="4.25" stroke="#2B1911" stroke-width="0.5"/>
<defs>
<clipPath id="clip0_3166_59066">
<rect x="1" y="1" width="32" height="24" rx="4" fill="white"/>
</clipPath>
</defs>
</svg>
