<svg width="34" height="26" viewBox="0 0 34 26" fill="none" xmlns="http://www.w3.org/2000/svg">
<g clip-path="url(#clip0_3166_59066)">
<rect x="1" y="1" width="32" height="1.84615" fill="#B22234"/>
<rect x="1" y="2.84613" width="32" height="1.84615" fill="white"/>
<rect x="1" y="4.69232" width="32" height="1.84615" fill="#B22234"/>
<rect x="1" y="6.53845" width="32" height="1.84615" fill="white"/>
<rect x="1" y="8.38464" width="32" height="1.84615" fill="#B22234"/>
<rect x="1" y="10.2308" width="32" height="1.84615" fill="white"/>
<rect x="1" y="12.0769" width="32" height="1.84615" fill="#B22234"/>
<rect x="1" y="13.9231" width="32" height="1.84615" fill="white"/>
<rect x="1" y="15.7692" width="32" height="1.84615" fill="#B22234"/>
<rect x="1" y="17.6154" width="32" height="1.84615" fill="white"/>
<rect x="1" y="19.4615" width="32" height="1.84615" fill="#B22234"/>
<rect x="1" y="21.3077" width="32" height="1.84615" fill="white"/>
<rect x="1" y="23.1539" width="32" height="1.84615" fill="#B22234"/>
<rect x="1" y="1" width="13.3" height="12.9" fill="#3C3B6E"/>
<path d="M5.95489 1.84269C5.98483 1.75056 6.11517 1.75056 6.14511 1.84269L6.31942 2.37917C6.3328 2.42037 6.3712 2.44827 6.41452 2.44827H6.97861C7.07548 2.44827 7.11575 2.57223 7.03738 2.62917L6.58103 2.96073C6.54598 2.98619 6.53132 3.03133 6.5447 3.07253L6.71902 3.609C6.74895 3.70114 6.6435 3.77775 6.56513 3.72081L6.10878 3.38925C6.07373 3.36378 6.02627 3.36378 5.99122 3.38925L5.53487 3.72081C5.4565 3.77775 5.35105 3.70114 5.38098 3.609L5.5553 3.07253C5.56868 3.03133 5.55402 2.98619 5.51897 2.96073L5.06262 2.62917C4.98424 2.57223 5.02452 2.44827 5.12139 2.44827H5.68548C5.7288 2.44827 5.7672 2.42037 5.78058 2.37917L5.95489 1.84269Z" fill="white"/>
<path d="M9.15497 1.84269C9.1849 1.75056 9.31524 1.75056 9.34518 1.84269L9.51949 2.37917C9.53288 2.42037 9.57127 2.44827 9.6146 2.44827H10.1787C10.2756 2.44827 10.3158 2.57223 10.2375 2.62917L9.7811 2.96073C9.74606 2.98619 9.73139 3.03133 9.74478 3.07253L9.91909 3.609C9.94902 3.70114 9.84358 3.77775 9.7652 3.72081L9.30885 3.38925C9.2738 3.36378 9.22634 3.36378 9.19129 3.38925L8.73494 3.72081C8.65657 3.77775 8.55112 3.70114 8.58106 3.609L8.75537 3.07253C8.76876 3.03133 8.75409 2.98619 8.71904 2.96073L8.26269 2.62917C8.18432 2.57223 8.2246 2.44827 8.32147 2.44827H8.88555C8.92887 2.44827 8.96727 2.42037 8.98066 2.37917L9.15497 1.84269Z" fill="white"/>
<path d="M12.3549 1.84269C12.3849 1.75056 12.5152 1.75056 12.5451 1.84269L12.7194 2.37917C12.7328 2.42037 12.7712 2.44827 12.8145 2.44827H13.3786C13.4755 2.44827 13.5158 2.57223 13.4374 2.62917L12.9811 2.96073C12.946 2.98619 12.9313 3.03133 12.9447 3.07253L13.119 3.609C13.149 3.70114 13.0435 3.77775 12.9652 3.72081L12.5088 3.38925C12.4738 3.36378 12.4263 3.36378 12.3912 3.38925L11.9349 3.72081C11.8565 3.77775 11.7511 3.70114 11.781 3.609L11.9553 3.07253C11.9687 3.03133 11.954 2.98619 11.919 2.96073L11.4626 2.62917C11.3843 2.57223 11.4245 2.44827 11.5214 2.44827H12.0855C12.1288 2.44827 12.1672 2.42037 12.1806 2.37917L12.3549 1.84269Z" fill="white"/>
<path d="M4.35492 4.14268C4.38485 4.05055 4.51519 4.05055 4.54513 4.14268L4.71944 4.67916C4.73283 4.72036 4.77122 4.74825 4.81455 4.74825H5.37863C5.4755 4.74825 5.51578 4.87222 5.43741 4.92916L4.98106 5.26071C4.94601 5.28618 4.93134 5.33132 4.94473 5.37252L5.11904 5.90899C5.14897 6.00112 5.04353 6.07774 4.96516 6.0208L4.5088 5.68924C4.47375 5.66377 4.42629 5.66377 4.39125 5.68924L3.93489 6.0208C3.85652 6.07774 3.75107 6.00112 3.78101 5.90899L3.95532 5.37252C3.96871 5.33132 3.95404 5.28618 3.91899 5.26071L3.46264 4.92916C3.38427 4.87221 3.42455 4.74825 3.52142 4.74825H4.0855C4.12882 4.74825 4.16722 4.72036 4.18061 4.67916L4.35492 4.14268Z" fill="white"/>
<path d="M7.55487 4.14268C7.58481 4.05055 7.71515 4.05055 7.74508 4.14268L7.91939 4.67916C7.93278 4.72036 7.97118 4.74825 8.0145 4.74825H8.57858C8.67545 4.74825 8.71573 4.87222 8.63736 4.92916L8.18101 5.26071C8.14596 5.28618 8.13129 5.33132 8.14468 5.37252L8.31899 5.90899C8.34893 6.00112 8.24348 6.07774 8.16511 6.0208L7.70875 5.68924C7.67371 5.66377 7.62625 5.66377 7.5912 5.68924L7.13484 6.0208C7.05647 6.07774 6.95103 6.00112 6.98096 5.90899L7.15527 5.37252C7.16866 5.33132 7.15399 5.28618 7.11894 5.26071L6.66259 4.92916C6.58422 4.87221 6.6245 4.74825 6.72137 4.74825H7.28545C7.32878 4.74825 7.36717 4.72036 7.38056 4.67916L7.55487 4.14268Z" fill="white"/>
<path d="M10.7549 4.14268C10.7849 4.05055 10.9152 4.05055 10.9452 4.14268L11.1195 4.67916C11.1329 4.72036 11.1712 4.74825 11.2146 4.74825H11.7787C11.8755 4.74825 11.9158 4.87222 11.8374 4.92916L11.3811 5.26071C11.346 5.28618 11.3314 5.33132 11.3448 5.37252L11.5191 5.90899C11.549 6.00112 11.4436 6.07774 11.3652 6.0208L10.9088 5.68924C10.8738 5.66377 10.8263 5.66377 10.7913 5.68924L10.3349 6.0208C10.2565 6.07774 10.1511 6.00112 10.181 5.90899L10.3553 5.37252C10.3687 5.33132 10.3541 5.28618 10.319 5.26071L9.86267 4.92916C9.78429 4.87221 9.82457 4.74825 9.92144 4.74825H10.4855C10.5288 4.74825 10.5672 4.72036 10.5806 4.67916L10.7549 4.14268Z" fill="white"/>
<path d="M2.75494 6.44273C2.78488 6.3506 2.91522 6.3506 2.94515 6.44273L3.11947 6.9792C3.13285 7.02041 3.17125 7.0483 3.21457 7.0483H3.77865C3.87553 7.0483 3.9158 7.17226 3.83743 7.2292L3.38108 7.56076C3.34603 7.58623 3.33137 7.63136 3.34475 7.67257L3.51906 8.20904C3.549 8.30117 3.44355 8.37778 3.36518 8.32084L2.90883 7.98929C2.87378 7.96382 2.82632 7.96382 2.79127 7.98929L2.33492 8.32084C2.25655 8.37778 2.1511 8.30117 2.18103 8.20904L2.35534 7.67257C2.36873 7.63136 2.35407 7.58623 2.31902 7.56076L1.86267 7.2292C1.78429 7.17226 1.82457 7.0483 1.92144 7.0483H2.48553C2.52885 7.0483 2.56724 7.02041 2.58063 6.9792L2.75494 6.44273Z" fill="white"/>
<path d="M5.95489 6.44273C5.98483 6.3506 6.11517 6.3506 6.14511 6.44273L6.31942 6.9792C6.3328 7.02041 6.3712 7.0483 6.41452 7.0483H6.97861C7.07548 7.0483 7.11575 7.17226 7.03738 7.2292L6.58103 7.56076C6.54598 7.58623 6.53132 7.63136 6.5447 7.67257L6.71902 8.20904C6.74895 8.30117 6.6435 8.37778 6.56513 8.32084L6.10878 7.98929C6.07373 7.96382 6.02627 7.96382 5.99122 7.98929L5.53487 8.32084C5.4565 8.37778 5.35105 8.30117 5.38098 8.20904L5.5553 7.67257C5.56868 7.63136 5.55402 7.58623 5.51897 7.56076L5.06262 7.2292C4.98424 7.17226 5.02452 7.0483 5.12139 7.0483H5.68548C5.7288 7.0483 5.7672 7.02041 5.78058 6.9792L5.95489 6.44273Z" fill="white"/>
<path d="M9.15497 6.44273C9.1849 6.3506 9.31524 6.3506 9.34518 6.44273L9.51949 6.9792C9.53288 7.02041 9.57127 7.0483 9.6146 7.0483H10.1787C10.2756 7.0483 10.3158 7.17226 10.2375 7.2292L9.7811 7.56076C9.74606 7.58623 9.73139 7.63136 9.74478 7.67257L9.91909 8.20904C9.94902 8.30117 9.84358 8.37778 9.7652 8.32084L9.30885 7.98929C9.2738 7.96382 9.22634 7.96382 9.19129 7.98929L8.73494 8.32084C8.65657 8.37778 8.55112 8.30117 8.58106 8.20904L8.75537 7.67257C8.76876 7.63136 8.75409 7.58623 8.71904 7.56076L8.26269 7.2292C8.18432 7.17226 8.2246 7.0483 8.32147 7.0483H8.88555C8.92887 7.0483 8.96727 7.02041 8.98066 6.9792L9.15497 6.44273Z" fill="white"/>
<path d="M12.3549 6.44273C12.3849 6.3506 12.5152 6.3506 12.5451 6.44273L12.7194 6.9792C12.7328 7.02041 12.7712 7.0483 12.8145 7.0483H13.3786C13.4755 7.0483 13.5158 7.17226 13.4374 7.2292L12.9811 7.56076C12.946 7.58623 12.9313 7.63136 12.9447 7.67257L13.119 8.20904C13.149 8.30117 13.0435 8.37778 12.9652 8.32084L12.5088 7.98929C12.4738 7.96382 12.4263 7.96382 12.3912 7.98929L11.9349 8.32084C11.8565 8.37778 11.7511 8.30117 11.781 8.20904L11.9553 7.67257C11.9687 7.63136 11.954 7.58623 11.919 7.56076L11.4626 7.2292C11.3843 7.17226 11.4245 7.0483 11.5214 7.0483H12.0855C12.1288 7.0483 12.1672 7.02041 12.1806 6.9792L12.3549 6.44273Z" fill="white"/>
<path d="M4.35492 8.74272C4.38485 8.65059 4.51519 8.65059 4.54513 8.74272L4.71944 9.27919C4.73283 9.32039 4.77122 9.34829 4.81455 9.34829H5.37863C5.4755 9.34829 5.51578 9.47225 5.43741 9.52919L4.98106 9.86075C4.94601 9.88622 4.93134 9.93135 4.94473 9.97255L5.11904 10.509C5.14897 10.6012 5.04353 10.6778 4.96516 10.6208L4.5088 10.2893C4.47375 10.2638 4.42629 10.2638 4.39125 10.2893L3.93489 10.6208C3.85652 10.6778 3.75107 10.6012 3.78101 10.509L3.95532 9.97255C3.96871 9.93135 3.95404 9.88622 3.91899 9.86075L3.46264 9.52919C3.38427 9.47225 3.42455 9.34829 3.52142 9.34829H4.0855C4.12882 9.34829 4.16722 9.32039 4.18061 9.27919L4.35492 8.74272Z" fill="white"/>
<path d="M7.55487 8.74272C7.58481 8.65059 7.71515 8.65059 7.74508 8.74272L7.91939 9.27919C7.93278 9.32039 7.97118 9.34829 8.0145 9.34829H8.57858C8.67545 9.34829 8.71573 9.47225 8.63736 9.52919L8.18101 9.86075C8.14596 9.88622 8.13129 9.93135 8.14468 9.97255L8.31899 10.509C8.34893 10.6012 8.24348 10.6778 8.16511 10.6208L7.70875 10.2893C7.67371 10.2638 7.62625 10.2638 7.5912 10.2893L7.13484 10.6208C7.05647 10.6778 6.95103 10.6012 6.98096 10.509L7.15527 9.97255C7.16866 9.93135 7.15399 9.88622 7.11894 9.86075L6.66259 9.52919C6.58422 9.47225 6.6245 9.34829 6.72137 9.34829H7.28545C7.32878 9.34829 7.36717 9.32039 7.38056 9.27919L7.55487 8.74272Z" fill="white"/>
<path d="M10.7549 8.74272C10.7849 8.65059 10.9152 8.65059 10.9452 8.74272L11.1195 9.27919C11.1329 9.32039 11.1712 9.34829 11.2146 9.34829H11.7787C11.8755 9.34829 11.9158 9.47225 11.8374 9.52919L11.3811 9.86075C11.346 9.88622 11.3314 9.93135 11.3448 9.97255L11.5191 10.509C11.549 10.6012 11.4436 10.6778 11.3652 10.6208L10.9088 10.2893C10.8738 10.2638 10.8263 10.2638 10.7913 10.2893L10.3349 10.6208C10.2565 10.6778 10.1511 10.6012 10.181 10.509L10.3553 9.97255C10.3687 9.93135 10.3541 9.88622 10.319 9.86075L9.86267 9.52919C9.78429 9.47225 9.82457 9.34829 9.92144 9.34829H10.4855C10.5288 9.34829 10.5672 9.32039 10.5806 9.27919L10.7549 8.74272Z" fill="white"/>
<path d="M2.75494 11.0427C2.78488 10.9506 2.91522 10.9506 2.94515 11.0427L3.11947 11.5792C3.13285 11.6204 3.17125 11.6483 3.21457 11.6483H3.77865C3.87553 11.6483 3.9158 11.7722 3.83743 11.8292L3.38108 12.1607C3.34603 12.1862 3.33137 12.2313 3.34475 12.2725L3.51906 12.809C3.549 12.9011 3.44355 12.9778 3.36518 12.9208L2.90883 12.5893C2.87378 12.5638 2.82632 12.5638 2.79127 12.5893L2.33492 12.9208C2.25655 12.9778 2.1511 12.9011 2.18103 12.809L2.35534 12.2725C2.36873 12.2313 2.35407 12.1862 2.31902 12.1607L1.86267 11.8292C1.78429 11.7722 1.82457 11.6483 1.92144 11.6483H2.48553C2.52885 11.6483 2.56724 11.6204 2.58063 11.5792L2.75494 11.0427Z" fill="white"/>
<path d="M5.95489 11.0427C5.98483 10.9506 6.11517 10.9506 6.14511 11.0427L6.31942 11.5792C6.3328 11.6204 6.3712 11.6483 6.41452 11.6483H6.97861C7.07548 11.6483 7.11575 11.7722 7.03738 11.8292L6.58103 12.1607C6.54598 12.1862 6.53132 12.2313 6.5447 12.2725L6.71902 12.809C6.74895 12.9011 6.6435 12.9778 6.56513 12.9208L6.10878 12.5893C6.07373 12.5638 6.02627 12.5638 5.99122 12.5893L5.53487 12.9208C5.4565 12.9778 5.35105 12.9011 5.38098 12.809L5.5553 12.2725C5.56868 12.2313 5.55402 12.1862 5.51897 12.1607L5.06262 11.8292C4.98424 11.7722 5.02452 11.6483 5.12139 11.6483H5.68548C5.7288 11.6483 5.7672 11.6204 5.78058 11.5792L5.95489 11.0427Z" fill="white"/>
<path d="M9.15497 11.0427C9.1849 10.9506 9.31524 10.9506 9.34518 11.0427L9.51949 11.5792C9.53288 11.6204 9.57127 11.6483 9.6146 11.6483H10.1787C10.2756 11.6483 10.3158 11.7722 10.2375 11.8292L9.7811 12.1607C9.74606 12.1862 9.73139 12.2313 9.74478 12.2725L9.91909 12.809C9.94902 12.9011 9.84358 12.9778 9.7652 12.9208L9.30885 12.5893C9.2738 12.5638 9.22634 12.5638 9.19129 12.5893L8.73494 12.9208C8.65657 12.9778 8.55112 12.9011 8.58106 12.809L8.75537 12.2725C8.76876 12.2313 8.75409 12.1862 8.71904 12.1607L8.26269 11.8292C8.18432 11.7722 8.2246 11.6483 8.32147 11.6483H8.88555C8.92887 11.6483 8.96727 11.6204 8.98066 11.5792L9.15497 11.0427Z" fill="white"/>
<path d="M12.3549 11.0427C12.3849 10.9506 12.5152 10.9506 12.5451 11.0427L12.7194 11.5792C12.7328 11.6204 12.7712 11.6483 12.8145 11.6483H13.3786C13.4755 11.6483 13.5158 11.7722 13.4374 11.8292L12.9811 12.1607C12.946 12.1862 12.9313 12.2313 12.9447 12.2725L13.119 12.809C13.149 12.9011 13.0435 12.9778 12.9652 12.9208L12.5088 12.5893C12.4738 12.5638 12.4263 12.5638 12.3912 12.5893L11.9349 12.9208C11.8565 12.9778 11.7511 12.9011 11.781 12.809L11.9553 12.2725C11.9687 12.2313 11.954 12.1862 11.919 12.1607L11.4626 11.8292C11.3843 11.7722 11.4245 11.6483 11.5214 11.6483H12.0855C12.1288 11.6483 12.1672 11.6204 12.1806 11.5792L12.3549 11.0427Z" fill="white"/>
</g>
<rect x="0.5" y="0.5" width="33" height="25" rx="4.5" stroke="#BAADA7"/>
<defs>
<clipPath id="clip0_3166_59066">
<rect x="1" y="1" width="32" height="24" rx="4" fill="white"/>
</clipPath>
</defs>
</svg>
