<svg viewBox="0 0 24 24" xmlns="http://www.w3.org/2000/svg">
<path fill-rule="evenodd" clip-rule="evenodd" d="M1.99999 21.5999C2.49999 21.8999 2.99999 21.9999 3.49999 21.9999H20.5C21.3 21.9999 22 21.6999 22.5 21.0999C23.1 20.5999 23.4 19.7999 23.4 18.9999C23.4 18.4999 23.3 17.9999 23 17.4999L14.6 3.3999C14.1 2.6999 13.5 2.1999 12.7 1.9999C11.9 1.7999 11.1 1.8999 10.4 2.2999C9.99999 2.4999 9.59999 2.8999 9.39999 3.2999L0.899987 17.4999C0.0999871 18.8999 0.599987 20.7999 1.99999 21.5999ZM2.69999 18.4999L11.1 4.3999C11.2 4.1999 11.3 4.0999 11.5 3.9999C12 3.7999 12.6 3.8999 12.9 4.3999L21.3 18.4999C21.4 18.6999 21.4 18.7999 21.4 18.9999C21.4 19.2999 21.3 19.4999 21.1 19.6999C20.9 19.8999 20.7 19.9999 20.4 19.9999H3.49999C3.39999 19.9999 3.19999 19.9999 3.09999 19.8999C2.59999 19.5999 2.39999 18.9999 2.69999 18.4999ZM13 12.9999V8.9999C13 8.3999 12.6 7.9999 12 7.9999C11.4 7.9999 11 8.3999 11 8.9999V12.9999C11 13.5999 11.4 13.9999 12 13.9999C12.6 13.9999 13 13.5999 13 12.9999ZM13 16.9999C13 17.2999 12.9 17.4999 12.7 17.6999C12.5 17.8999 12.3 17.9999 11.9 17.9999C11.6 17.9999 11.4 17.8999 11.2 17.6999C11 17.4999 10.9 17.2999 10.9 16.9999C10.9 16.8827 10.9343 16.7999 10.9627 16.7313C10.9828 16.6827 11 16.6413 11 16.5999C11 16.4999 11.1 16.3999 11.2 16.2999C11.3 16.1999 11.4 16.0999 11.5 16.0999C11.7 15.9999 11.9 15.9999 12.1 15.9999C12.1575 16.0574 12.1819 16.0818 12.2113 16.0922C12.2331 16.0999 12.2575 16.0999 12.3 16.0999C12.35 16.0999 12.375 16.1249 12.4 16.1499C12.425 16.1749 12.45 16.1999 12.5 16.1999C12.6 16.1999 12.7 16.2999 12.7 16.2999C12.8 16.3999 12.9 16.4999 12.9 16.5999C13 16.6999 13 16.8999 13 16.9999Z"/>
</svg>
