<svg viewBox="0 0 17 17"  xmlns="http://www.w3.org/2000/svg">
  <path fill-rule="evenodd" clip-rule="evenodd" d="M8.50016 2.12516C4.97935 2.12516 2.12516 4.97935 2.12516 8.50016C2.12516 12.021 4.97935 14.8752 8.50016 14.8752C12.021 14.8752 14.8752 12.021 14.8752 8.50016C14.8752 4.97935 12.021 2.12516 8.50016 2.12516ZM0.708496 8.50016C0.708496 4.19694 4.19694 0.708496 8.50016 0.708496C12.8034 0.708496 16.2918 4.19694 16.2918 8.50016C16.2918 12.8034 12.8034 16.2918 8.50016 16.2918C4.19694 16.2918 0.708496 12.8034 0.708496 8.50016ZM8.50016 4.9585C8.89136 4.9585 9.2085 5.27563 9.2085 5.66683V9.62343L10.8326 7.9993C11.1093 7.72267 11.5577 7.72267 11.8344 7.9993C12.111 8.27592 12.111 8.72441 11.8344 9.00103L9.00103 11.8344C8.72441 12.111 8.27592 12.111 7.9993 11.8344L5.16596 9.00103C4.88934 8.72441 4.88934 8.27592 5.16596 7.9993C5.44258 7.72267 5.89108 7.72267 6.1677 7.9993L7.79183 9.62343V5.66683C7.79183 5.27563 8.10896 4.9585 8.50016 4.9585Z"/>
</svg>
