<svg  viewBox="0 0 17 17"  xmlns="http://www.w3.org/2000/svg">
  <path fill-rule="evenodd" clip-rule="evenodd" d="M8.50016 2.12516C4.97935 2.12516 2.12516 4.97935 2.12516 8.50016C2.12516 12.021 4.97935 14.8752 8.50016 14.8752C12.021 14.8752 14.8752 12.021 14.8752 8.50016C14.8752 4.97935 12.021 2.12516 8.50016 2.12516ZM0.708496 8.50016C0.708496 4.19694 4.19694 0.708496 8.50016 0.708496C12.8034 0.708496 16.2918 4.19694 16.2918 8.50016C16.2918 12.8034 12.8034 16.2918 8.50016 16.2918C4.19694 16.2918 0.708496 12.8034 0.708496 8.50016ZM5.16596 7.9993L7.9993 5.16596C8.27592 4.88934 8.72441 4.88934 9.00103 5.16596L11.8344 7.9993C12.111 8.27592 12.111 8.72441 11.8344 9.00103C11.5577 9.27765 11.1093 9.27765 10.8326 9.00103L9.2085 7.3769V11.3335C9.2085 11.7247 8.89136 12.0418 8.50016 12.0418C8.10896 12.0418 7.79183 11.7247 7.79183 11.3335V7.3769L6.1677 9.00103C5.89108 9.27765 5.44258 9.27765 5.16596 9.00103C4.88934 8.72441 4.88934 8.27592 5.16596 7.9993Z"/>
</svg>
