<svg viewBox="0 0 48 49" xmlns="http://www.w3.org/2000/svg">
<path fill-rule="evenodd" clip-rule="evenodd" d="M24 48.5C37.2548 48.5 48 37.7548 48 24.5C48 11.2452 37.2548 0.5 24 0.5C10.7452 0.5 0 11.2452 0 24.5C0 37.7548 10.7452 48.5 24 48.5ZM16 19.1667C16 14.7484 19.5817 11.1667 24 11.1667C28.4183 11.1667 32 14.7484 32 19.1667C32 21.942 30.5868 24.3872 28.4408 25.822C28.3647 25.8613 28.2931 25.9077 28.2268 25.9601C27.0004 26.7248 25.5518 27.1667 24 27.1667C19.5817 27.1667 16 23.5849 16 19.1667ZM34.6667 19.1667C34.6667 22.6194 33.0262 25.6889 30.4822 27.6384L31.9884 38.9913C32.0558 39.4988 31.8266 40.0001 31.3986 40.2811C30.9707 40.5622 30.4197 40.5734 29.9807 40.31L24 36.7216L18.0193 40.31C17.5803 40.5734 17.0292 40.5622 16.6013 40.2811C16.1734 40 15.9442 39.4986 16.0116 38.9911L17.5193 27.6396C14.9744 25.6901 13.3333 22.6201 13.3333 19.1667C13.3333 13.2756 18.109 8.5 24 8.5C29.891 8.5 34.6667 13.2756 34.6667 19.1667ZM24 29.8333C25.4075 29.8333 26.7513 29.5607 27.9815 29.0655L28.9812 36.6005L24.686 34.0233C24.2638 33.77 23.7362 33.77 23.314 34.0233L19.0193 36.6002L20.02 29.066C21.2498 29.5609 22.5931 29.8333 24 29.8333Z" />
</svg>
