<svg viewBox="0 0 24 24" xmlns="http://www.w3.org/2000/svg">
<path fill-rule="evenodd" clip-rule="evenodd" d="M21 16.0909C21 16.5818 20.6727 16.9091 20.1818 16.9091H3.81818C3.32727 16.9091 3 16.5818 3 16.0909C3 15.6 3.32727 15.2727 3.81818 15.2727C4.71818 15.2727 5.45455 14.5364 5.45455 13.6364V9.54545C5.45455 5.94545 8.4 3 12 3C15.6 3 18.5455 5.94545 18.5455 9.54545V13.6364C18.5455 14.5364 19.2818 15.2727 20.1818 15.2727C20.6727 15.2727 21 15.6 21 16.0909ZM14.1273 19.7727C13.6364 20.5909 12.8182 21 12 21C11.5909 21 11.1818 20.9181 10.7727 20.6727C10.3636 20.4272 10.1182 20.1818 9.87273 19.7727C9.62727 19.3636 9.79091 18.8727 10.2 18.6272C10.6091 18.3818 11.1 18.5454 11.3455 18.9545C11.3702 18.9793 11.395 19.0115 11.422 19.0468C11.4843 19.1279 11.5586 19.2247 11.6727 19.2818C12.0818 19.5272 12.5727 19.3636 12.8182 18.9545C13.0636 18.5454 13.5545 18.4636 13.9636 18.6272C14.3727 18.7909 14.3727 19.3636 14.1273 19.7727ZM16.9091 13.6364C16.9091 14.2091 17.0727 14.7818 17.3182 15.2727H6.68182C6.92727 14.7818 7.09091 14.2091 7.09091 13.6364V9.54545C7.09091 6.84545 9.3 4.63636 12 4.63636C14.7 4.63636 16.9091 6.84545 16.9091 9.54545V13.6364Z"/>
</svg>
