<svg viewBox="0 0 24 24" xmlns="http://www.w3.org/2000/svg">
<path fill-rule="evenodd" clip-rule="evenodd" d="M17.4 11.5733C18.4 10.6133 19 9.22667 19 7.73333C19 4.74667 16.8 2.4 14 2.4H13.5V0.96C13.5 0.96 13.5 0 12.5 0C11.5 0 11.5 0.96 11.5 0.96V2.4H9V0.96C9 0.96 9 0 8 0C7 0 7 0.96 7 0.96V2.4H6C5.4 2.4 5 2.82667 5 3.46667V12V20.5333C5 21.1733 5.4 21.6 6 21.6H7V23.04C7 23.04 7 24 8 24C9 24 9 23.04 9 23.04V21.6H11.5V23.04C11.5 23.04 11.5 24 12.5 24C13.5 24 13.5 23.04 13.5 23.04V21.6H15C17.8 21.6 20 19.2533 20 16.2667C20 14.24 18.9 12.5333 17.4 11.5733ZM7.00002 4.53333H14C15.7 4.53333 17 5.91999 17 7.73333C17 9.54666 15.7 10.9333 14 10.9333H7.00002V4.53333ZM7.00002 19.4667H15C16.7 19.4667 18 18.08 18 16.2667C18 14.4533 16.7 13.0667 15 13.0667H14H7.00002V19.4667Z"/>
</svg>
