<svg viewBox="0 0 24 24" xmlns="http://www.w3.org/2000/svg">
<path d="M17.6373 5.3349C17.2197 4.90135 16.5452 4.90135 16.1276 5.3349L10.0888 11.6047L11.5985 13.1721L17.6373 6.89123C18.0442 6.4688 18.0442 5.75733 17.6373 5.3349V5.3349ZM22.1771 5.32378L11.5985 16.307L7.87241 12.4495C7.45483 12.016 6.78028 12.016 6.3627 12.4495C5.94513 12.8831 5.94513 13.5834 6.3627 14.017L10.8383 18.6637C11.2559 19.0973 11.9304 19.0973 12.348 18.6637L23.6868 6.90234C24.1044 6.4688 24.1044 5.76845 23.6868 5.3349H23.6761C23.2692 4.89024 22.5947 4.89024 22.1771 5.32378ZM0.313183 14.0281L4.78876 18.6748C5.20633 19.1084 5.88088 19.1084 6.29846 18.6748L7.04796 17.8967L1.82289 12.4495C1.40531 12.016 0.730761 12.016 0.313183 12.4495C-0.104394 12.8831 -0.104394 13.5945 0.313183 14.0281V14.0281Z"/>
</svg>
