<svg width="92" height="92" viewBox="0 0 92 92" xmlns="http://www.w3.org/2000/svg">
<path fill-rule="evenodd" clip-rule="evenodd" d="M46 92C71.4051 92 92 71.4051 92 46C92 20.5949 71.4051 0 46 0C20.5949 0 0 20.5949 0 46C0 71.4051 20.5949 92 46 92ZM76.3074 43.5208V46.0005C76.3074 62.8072 62.8069 76.3078 46.0001 76.3078C29.1933 76.3078 15.6928 62.8072 15.6928 46.0005C15.6928 29.1937 29.1933 15.6932 46.0001 15.6932C50.1329 15.6932 54.5413 16.5197 58.3985 18.4484C59.7762 18.9994 60.3272 20.6525 59.7762 22.0302C59.2251 23.4078 57.572 23.9588 56.1944 23.4078C52.8881 22.0302 49.5819 21.2036 46.0001 21.2036C32.2241 21.2036 21.2032 32.2244 21.2032 46.0005C21.2032 59.7765 32.2241 70.7973 46.0001 70.7973C59.7762 70.7973 70.797 59.7765 70.797 46.0005V43.5208C70.797 41.8677 71.8991 40.7656 73.5522 40.7656C75.2053 40.7656 76.3074 41.8677 76.3074 43.5208ZM78.2359 19.2748C77.1339 18.1727 75.4807 18.1727 74.3786 19.2748L46 47.6535L39.663 41.3165C38.5609 40.2144 36.9078 40.2144 35.8057 41.3165C34.7036 42.4186 34.7036 44.0717 35.8057 45.1738L44.0714 53.4394C44.6224 53.9905 45.449 54.266 46 54.266C46.551 54.266 47.3776 53.9905 47.9286 53.4394L78.2359 23.1321C79.338 22.03 79.338 20.3769 78.2359 19.2748Z"/>
</svg>
