<svg viewBox="0 0 24 24" xmlns="http://www.w3.org/2000/svg">
<path fill-rule="evenodd" clip-rule="evenodd" d="M5 2H19C20.7 2 22 3.3 22 5V19C22 20.7 20.7 22 19 22H5C3.3 22 2 20.7 2 19V5C2 3.3 3.3 2 5 2ZM10.2111 16.7692L18.7667 8.30769C19.0778 8 19.0778 7.53846 18.7667 7.23077C18.4556 6.92308 17.9889 6.92308 17.6778 7.23077L9.66667 15.1538L6.32222 11.8462C6.01111 11.5385 5.54444 11.5385 5.23333 11.8462C4.92222 12.1538 4.92222 12.6154 5.23333 12.9231L9.12222 16.7692C9.27778 16.9231 9.43333 17 9.66667 17C9.9 17 10.0556 16.9231 10.2111 16.7692Z"/>
</svg>
