<svg viewBox="0 0 22 22" xmlns="http://www.w3.org/2000/svg">
<path fill-rule="evenodd" clip-rule="evenodd" d="M11 0.916687C5.40829 0.916687 0.916626 5.40835 0.916626 11C0.916626 16.5917 5.40829 21.0834 11 21.0834C16.5916 21.0834 21.0833 16.5917 21.0833 11C21.0833 5.40835 16.5916 0.916687 11 0.916687ZM11 19.25C6.41663 19.25 2.74996 15.5834 2.74996 11C2.74996 6.41669 6.41663 2.75002 11 2.75002C15.5833 2.75002 19.25 6.41669 19.25 11C19.25 15.5834 15.5833 19.25 11 19.25ZM12.2833 11L14.3916 8.89169C14.7583 8.52502 14.7583 7.97502 14.3916 7.60835C14.025 7.24169 13.475 7.24169 13.1083 7.60835L11 9.71669L8.89163 7.60835C8.52496 7.24169 7.97496 7.24169 7.60829 7.60835C7.24163 7.97502 7.24163 8.52502 7.60829 8.89169L9.71663 11L7.60829 13.1084C7.24163 13.475 7.24163 14.025 7.60829 14.3917C7.79163 14.575 7.97496 14.6667 8.24996 14.6667C8.52496 14.6667 8.70829 14.575 8.89163 14.3917L11 12.2834L13.1083 14.3917C13.2916 14.575 13.475 14.6667 13.75 14.6667C14.025 14.6667 14.2083 14.575 14.3916 14.3917C14.7583 14.025 14.7583 13.475 14.3916 13.1084L12.2833 11Z"/>
</svg>
