<svg viewBox="0 0 24 24" xmlns="http://www.w3.org/2000/svg">
    <path
        d="M12.1943 15.6922H11.42C11.42 15.3895 11.2369 15.115 10.9554 15.0094C9.17438 14.2984 3.08521 11.1799 7.94246 3L8.76608 5.35119C7.32299 7.01251 7.56233 8.78647 8.24516 9.84943C8.77312 10.6731 9.6601 10.9969 9.6601 10.9969L9.72346 10.9617C10.4837 10.5604 11.3285 10.3492 12.1873 10.3492C13.0461 10.3492 13.8908 10.5604 14.6511 10.9617L14.7145 10.9969C14.7145 10.9969 15.6014 10.6731 16.1294 9.84943C16.8122 8.78647 17.0516 7.01251 15.6085 5.35119L16.4321 3C21.2964 11.1799 15.2072 14.2984 13.4192 15.0094C13.1376 15.122 12.9546 15.3895 12.9546 15.6922H12.1943Z" />
    <path
        d="M19.3888 11.7148H18.5229C17.7134 13.3902 16.3477 14.4884 15.2073 15.1572C15.0032 15.2768 14.8905 15.5021 14.8835 15.7414C14.8835 15.8611 14.8483 15.9737 14.7849 16.0793L14.264 16.91C14.2218 16.9804 14.1936 17.0508 14.1725 17.1282L13.3911 20.9929H13.5178L15.4326 18.3461L15.5382 17.1071C15.5593 16.8818 15.7493 16.7199 15.9746 16.734L17.1854 16.8255C17.2558 16.8326 17.3192 16.8044 17.3614 16.7481L17.826 16.1568C17.8894 16.0793 17.8823 15.9667 17.8119 15.8893L17.2769 15.3402L19.3888 11.7148Z" />
    <path
        d="M10.9977 21L10.2163 17.1353C10.2022 17.0579 10.174 16.9804 10.1248 16.9171L9.59679 16.0723C9.53344 15.9667 9.50528 15.84 9.50528 15.7204C9.49824 15.4881 9.37857 15.2839 9.18146 15.1642C8.04106 14.4884 6.6754 13.3973 5.8729 11.7219H5L7.12593 15.3473L6.59093 15.8963C6.52053 15.9667 6.51349 16.0794 6.57685 16.1638L7.04145 16.7552C7.08369 16.8115 7.14705 16.8396 7.21744 16.8326L8.42823 16.7411C8.6535 16.727 8.8506 16.8889 8.86468 17.1142L8.97028 18.3531L10.885 21H10.9977Z" />
</svg>