<svg viewBox="0 0 17 19"  xmlns="http://www.w3.org/2000/svg">
<path d="M8.69437 13.1922H7.92002C7.92002 12.8895 7.73699 12.615 7.45541 12.5094C5.67442 11.7984 -0.414743 8.6799 4.44251 0.5L5.26613 2.85119C3.82303 4.51251 4.06238 6.28647 4.74521 7.34943C5.27317 8.17305 6.16015 8.49687 6.16015 8.49687L6.2235 8.46167C6.98377 8.06042 7.82851 7.84924 8.68733 7.84924C9.54614 7.84924 10.3909 8.06042 11.1511 8.46167L11.2145 8.49687C11.2145 8.49687 12.1015 8.17305 12.6294 7.34943C13.3123 6.28647 13.5516 4.51251 12.1085 2.85119L12.9321 0.5C17.7964 8.6799 11.7073 11.7984 9.91924 12.5094C9.63766 12.622 9.45463 12.8895 9.45463 13.1922H8.69437Z"/>
<path d="M15.8887 9.21484H15.0229C14.2133 10.8902 12.8477 11.9884 11.7073 12.6572C11.5031 12.7768 11.3905 13.0021 11.3835 13.2414C11.3835 13.3611 11.3483 13.4737 11.2849 13.5793L10.764 14.41C10.7217 14.4804 10.6936 14.5508 10.6725 14.6282L9.89108 18.4929H10.0178L11.9325 15.8461L12.0381 14.6071C12.0592 14.3818 12.2493 14.2199 12.4746 14.234L13.6854 14.3255C13.7558 14.3326 13.8191 14.3044 13.8614 14.2481L14.326 13.6568C14.3893 13.5793 14.3823 13.4667 14.3119 13.3893L13.7769 12.8402L15.8887 9.21484Z"/>
<path d="M7.49765 18.5L6.71627 14.6353C6.70219 14.5579 6.67403 14.4804 6.62475 14.4171L6.09679 13.5723C6.03344 13.4667 6.00528 13.34 6.00528 13.2204C5.99824 12.9881 5.87857 12.7839 5.68146 12.6642C4.54106 11.9884 3.1754 10.8973 2.3729 9.22192H1.5L3.62593 12.8473L3.09093 13.3963C3.02053 13.4667 3.01349 13.5794 3.07685 13.6638L3.54145 14.2552C3.58369 14.3115 3.64705 14.3396 3.71744 14.3326L4.92823 14.2411C5.1535 14.227 5.3506 14.3889 5.36468 14.6142L5.47028 15.8531L7.38502 18.5H7.49765Z"/>
</svg>
