<svg viewBox="0 0 64 64" xmlns="http://www.w3.org/2000/svg">
<path fill-rule="evenodd" clip-rule="evenodd" d="M32 64C49.6731 64 64 49.6731 64 32C64 14.3269 49.6731 0 32 0C14.3269 0 0 14.3269 0 32C0 49.6731 14.3269 64 32 64ZM32 8C33.1046 8 34 8.89543 34 10V16H42C43.1046 16 44 16.8954 44 18C44 19.1046 43.1046 20 42 20H34V30H37C39.3869 30 41.6761 30.9482 43.364 32.636C45.0518 34.3239 46 36.6131 46 39C46 41.3869 45.0518 43.6761 43.364 45.364C41.6761 47.0518 39.3869 48 37 48H34V54C34 55.1046 33.1046 56 32 56C30.8954 56 30 55.1046 30 54V48H20C18.8954 48 18 47.1046 18 46C18 44.8954 18.8954 44 20 44H30V34H27C24.6131 34 22.3239 33.0518 20.636 31.364C18.9482 29.6761 18 27.3869 18 25C18 22.6131 18.9482 20.3239 20.636 18.636C22.3239 16.9482 24.6131 16 27 16H30V10C30 8.89543 30.8954 8 32 8ZM27 20H30V30H27C25.6739 30 24.4021 29.4732 23.4645 28.5355C22.5268 27.5979 22 26.3261 22 25C22 23.6739 22.5268 22.4021 23.4645 21.4645C24.4021 20.5268 25.6739 20 27 20ZM34 44V34H37C38.3261 34 39.5979 34.5268 40.5355 35.4645C41.4732 36.4021 42 37.6739 42 39C42 40.3261 41.4732 41.5979 40.5355 42.5355C39.5979 43.4732 38.3261 44 37 44H34Z"/>
</svg>
