<svg viewBox="0 0 24 24" xmlns="http://www.w3.org/2000/svg">
<path fill-rule="evenodd" clip-rule="evenodd" d="M18.2071 4.20709C18.4174 3.9968 18.7026 3.87866 19 3.87866C19.1473 3.87866 19.2931 3.90767 19.4291 3.96402C19.5652 4.02037 19.6888 4.10296 19.7929 4.20709C19.897 4.31121 19.9796 4.43483 20.036 4.57087C20.0923 4.70692 20.1213 4.85273 20.1213 4.99998C20.1213 5.14724 20.0923 5.29305 20.036 5.42909C19.9796 5.56514 19.897 5.68875 19.7929 5.79288L7.48877 18.097L5.37439 18.6256L5.90299 16.5112L18.2071 4.20709ZM19 1.87866C18.1722 1.87866 17.3783 2.20751 16.7929 2.79288L4.29291 15.2929C4.16476 15.421 4.07384 15.5816 4.02988 15.7574L3.02988 19.7574C2.94468 20.0982 3.04453 20.4587 3.29291 20.7071C3.54129 20.9555 3.90178 21.0553 4.24256 20.9701L8.24256 19.9701C8.41839 19.9262 8.57897 19.8352 8.70713 19.7071L21.2071 7.20709C21.497 6.91725 21.7269 6.57316 21.8837 6.19446C22.0406 5.81576 22.1213 5.40988 22.1213 4.99998C22.1213 4.59008 22.0406 4.1842 21.8837 3.8055C21.7269 3.42681 21.497 3.08272 21.2071 2.79288C20.9173 2.50303 20.5732 2.27312 20.1945 2.11626C19.8158 1.9594 19.4099 1.87866 19 1.87866ZM13 19C12.4477 19 12 19.4477 12 20C12 20.5523 12.4477 21 13 21H22C22.5523 21 23 20.5523 23 20C23 19.4477 22.5523 19 22 19H13Z"/>
</svg>
