<svg width="20" height="20" viewBox="0 0 20 20" fill="none" xmlns="http://www.w3.org/2000/svg">
<path d="M4.17071 16C4.58254 14.8348 5.69378 14 7 14C8.3062 14 9.4175 14.8348 9.8293 16H20V18H9.8293C9.4175 19.1652 8.3062 20 7 20C5.69378 20 4.58254 19.1652 4.17071 18H0V16H4.17071ZM10.1707 9C10.5825 7.83481 11.6938 7 13 7C14.3062 7 15.4175 7.83481 15.8293 9H20V11H15.8293C15.4175 12.1652 14.3062 13 13 13C11.6938 13 10.5825 12.1652 10.1707 11H0V9H10.1707ZM4.17071 2C4.58254 0.83481 5.69378 0 7 0C8.3062 0 9.4175 0.83481 9.8293 2H20V4H9.8293C9.4175 5.16519 8.3062 6 7 6C5.69378 6 4.58254 5.16519 4.17071 4H0V2H4.17071ZM7 4C7.55228 4 8 3.55228 8 3C8 2.44772 7.55228 2 7 2C6.44772 2 6 2.44772 6 3C6 3.55228 6.44772 4 7 4ZM13 11C13.5523 11 14 10.5523 14 10C14 9.4477 13.5523 9 13 9C12.4477 9 12 9.4477 12 10C12 10.5523 12.4477 11 13 11ZM7 18C7.55228 18 8 17.5523 8 17C8 16.4477 7.55228 16 7 16C6.44772 16 6 16.4477 6 17C6 17.5523 6.44772 18 7 18Z" />
</svg>
