<svg  viewBox="0 0 38 48" xmlns="http://www.w3.org/2000/svg">
<path d="M30.8768 7.02793C29.2435 4.60813 27.3768 2.35279 25.2768 0.332375C24.4602 -0.466393 23.0835 0.285389 23.3168 1.41306C23.7602 3.62142 24.2268 6.53457 24.2268 9.14231C24.2268 13.9819 21.0768 17.9053 16.2702 17.9053C12.6768 17.9053 9.73683 15.7204 8.4535 12.5958C8.22016 12.1259 8.12683 11.844 7.98683 11.3272C7.73016 10.3405 6.44683 10.0351 5.88683 10.9043C5.46683 11.5386 5.07016 12.1729 4.69683 12.8542C1.92016 17.6468 0.333496 23.2382 0.333496 29.2055C0.333496 39.5895 8.68683 48 19.0002 48C29.3135 48 37.6668 39.5895 37.6668 29.2055C37.6668 21.0064 35.1468 13.3946 30.8768 7.02793ZM18.3235 40.9521C14.1702 40.9521 10.8102 37.663 10.8102 33.5752C10.8102 29.7693 13.2602 27.0911 17.3668 26.2453C20.7968 25.5405 24.3202 24.0605 26.7702 21.7346C27.4235 21.1238 28.4968 21.4057 28.6835 22.275C29.2202 24.6713 29.5002 27.1616 29.5002 29.6753C29.5235 35.901 24.5068 40.9521 18.3235 40.9521Z"/>
</svg>
