<svg viewBox="0 0 28 28" xmlns="http://www.w3.org/2000/svg">
<path d="M22.1667 3.5H5.82167C4.52667 3.5 3.5 4.55 3.5 5.83333V22.1667C3.5 23.45 4.52667 24.5 5.82167 24.5H22.1667C23.45 24.5 24.5 23.45 24.5 22.1667V5.83333C24.5 4.55 23.45 3.5 22.1667 3.5ZM22.1667 17.5H18.515C17.9667 17.5 17.5233 17.8967 17.3717 18.4333C16.9633 19.915 15.5983 21 14 21C12.4017 21 11.0367 19.915 10.6283 18.4333C10.4767 17.8967 10.0333 17.5 9.485 17.5H5.82167V7C5.82167 6.35833 6.34667 5.83333 6.98833 5.83333H21C21.6417 5.83333 22.1667 6.35833 22.1667 7V17.5ZM18.6667 11.6667H16.3333V8.16667H11.6667V11.6667H9.33333L13.5917 15.925C13.825 16.1583 14.1867 16.1583 14.42 15.925L18.6667 11.6667Z"/>
</svg>