<svg viewBox="0 0 24 24" xmlns="http://www.w3.org/2000/svg">
<path fill-rule="evenodd" clip-rule="evenodd" d="M11.0202 1.45773C11.8221 0.699314 13.0353 0.699311 13.8372 1.45772L21.8664 9.05123C22.2332 9.39819 22.4287 9.88512 22.4287 10.3791V21.7795C22.4287 22.4457 21.9194 23.1111 21.1441 23.1111H3.7133C2.93801 23.1111 2.42871 22.4457 2.42871 21.7795V10.3791C2.42871 9.88512 2.62418 9.39819 2.99105 9.05123L11.0202 1.45773ZM12.6478 2.7376C12.5148 2.61187 12.3426 2.61187 12.2097 2.7376L4.18089 10.3307C4.18089 10.3307 4.18093 10.3307 4.18089 10.3307C4.18051 10.3312 4.17781 10.3345 4.17483 10.3416C4.17095 10.3509 4.16784 10.3638 4.16784 10.3791V21.3567H20.6896V10.3791C20.6896 10.3638 20.6865 10.3509 20.6826 10.3416C20.6796 10.3345 20.677 10.3313 20.6766 10.3308L12.6478 2.7376Z"/>
<path d="M11.5991 8.67231C12.0447 8.62448 12.4404 8.88599 12.564 9.31183C12.5857 9.3869 12.5967 9.46726 12.5991 9.54567C12.6045 9.71347 12.6011 9.88155 12.6011 10.0495C12.6011 10.0649 12.5879 10.0772 12.5724 10.0778C12.4497 10.0823 12.3298 10.077 12.2126 10.0382C11.845 9.91714 11.6009 9.58028 11.597 9.18615C11.5954 9.02627 11.5966 8.86625 11.5968 8.70637"/>
<path d="M13.3933 9.42121C13.5872 9.4181 13.7633 9.57741 13.6804 9.75277C13.5917 9.94049 13.4083 10.0711 13.1875 10.0777C12.9973 10.0834 12.8226 9.92065 12.9027 9.74799C12.9408 9.66585 12.9994 9.59307 13.0811 9.53062C13.1731 9.46028 13.278 9.42316 13.3933 9.42121Z"/>
<path fill-rule="evenodd" clip-rule="evenodd" d="M16.5557 13.0712C16.5557 15.0558 14.8146 16.9373 12.6669 16.9373C11.8879 16.9373 11.1624 16.6897 10.5541 16.2796V18.2544C10.5541 18.745 10.1565 19.1427 9.6661 19.1427C9.17567 19.1427 8.77811 18.745 8.77811 18.2544V13.1391C8.77766 13.1165 8.77811 13.0938 8.77811 13.0712C8.77811 11.3541 10.0814 10.1966 11.8237 10.3318C12.3827 10.3752 12.9511 10.3752 13.5101 10.3318C15.2524 10.1966 16.5557 11.3541 16.5557 13.0712ZM14.7185 13.3865C14.7185 14.4496 13.7862 15.4574 12.6363 15.4574C11.4863 15.4574 10.5541 14.4496 10.5541 13.3865C10.5541 12.4205 11.3239 11.7851 12.3273 11.9354C12.5317 11.966 12.7408 11.966 12.9452 11.9354C13.9487 11.7851 14.7185 12.4205 14.7185 13.3865Z"/>
</svg>
