<svg viewBox="0 0 24 24"  xmlns="http://www.w3.org/2000/svg">
<path fill-rule="evenodd" clip-rule="evenodd" d="M10.8771 1.45773C11.679 0.699314 12.8923 0.699311 13.6942 1.45772L21.7233 9.05123C22.0902 9.39819 22.2856 9.88512 22.2856 10.3791V21.7795C22.2856 22.4457 21.7763 23.1111 21.0011 23.1111H3.57023C2.79495 23.1111 2.28564 22.4457 2.28564 21.7795V10.3791C2.28564 9.88512 2.48112 9.39819 2.84798 9.05123L10.8771 1.45773ZM12.5047 2.7376C12.3718 2.61187 12.1995 2.61187 12.0666 2.7376L4.03783 10.3307C4.03783 10.3307 4.03786 10.3307 4.03783 10.3307C4.03744 10.3312 4.03475 10.3345 4.03176 10.3416C4.02788 10.3509 4.02478 10.3638 4.02478 10.3791V21.3567H20.5465V10.3791C20.5465 10.3638 20.5434 10.3509 20.5395 10.3416C20.5365 10.3345 20.5339 10.3313 20.5335 10.3308L12.5047 2.7376Z" fill="url(#paint0_diamond_5761_2372)"/>
<path d="M11.456 8.67231C11.9016 8.62448 12.2974 8.88599 12.4209 9.31183C12.4427 9.3869 12.4536 9.46726 12.4561 9.54567C12.4614 9.71347 12.458 9.88155 12.458 10.0495C12.458 10.0649 12.4448 10.0772 12.4294 10.0778C12.3067 10.0823 12.1867 10.077 12.0695 10.0382C11.702 9.91714 11.4578 9.58028 11.454 9.18615C11.4523 9.02627 11.4536 8.86625 11.4537 8.70637" fill="url(#paint1_diamond_5761_2372)"/>
<path d="M13.2502 9.42121C13.4442 9.4181 13.6202 9.57741 13.5373 9.75277C13.4486 9.94049 13.2653 10.0711 13.0444 10.0777C12.8542 10.0834 12.6796 9.92065 12.7596 9.74799C12.7977 9.66585 12.8563 9.59307 12.938 9.53062C13.03 9.46028 13.1349 9.42316 13.2502 9.42121Z" fill="url(#paint2_diamond_5761_2372)"/>
<path fill-rule="evenodd" clip-rule="evenodd" d="M16.4126 13.0712C16.4126 15.0558 14.6715 16.9373 12.5238 16.9373C11.7448 16.9373 11.0193 16.6897 10.411 16.2796V18.2544C10.411 18.745 10.0135 19.1427 9.52303 19.1427C9.03261 19.1427 8.63504 18.745 8.63504 18.2544V13.1391C8.63459 13.1165 8.63504 13.0938 8.63504 13.0712C8.63504 11.3541 9.93832 10.1966 11.6807 10.3318C12.2396 10.3752 12.8081 10.3752 13.367 10.3318C15.1093 10.1966 16.4126 11.3541 16.4126 13.0712ZM14.5754 13.3865C14.5754 14.4496 13.6432 15.4574 12.4932 15.4574C11.3433 15.4574 10.411 14.4496 10.411 13.3865C10.411 12.4205 11.1808 11.7851 12.1843 11.9354C12.3887 11.966 12.5978 11.966 12.8021 11.9354C13.8056 11.7851 14.5754 12.4205 14.5754 13.3865Z" fill="url(#paint3_diamond_5761_2372)"/>
<defs>
<radialGradient id="paint0_diamond_5761_2372" cx="0" cy="0" r="1" gradientUnits="userSpaceOnUse" gradientTransform="translate(22.2856 0.888915) rotate(131.987) scale(29.8969 33.8899)">
<stop stop-color="#FFA24C"/>
<stop offset="0.50246" stop-color="#FF7A50"/>
<stop offset="1" stop-color="#FF4D42"/>
</radialGradient>
<radialGradient id="paint1_diamond_5761_2372" cx="0" cy="0" r="1" gradientUnits="userSpaceOnUse" gradientTransform="translate(22.2856 0.888915) rotate(131.987) scale(29.8969 33.8899)">
<stop stop-color="#FFA24C"/>
<stop offset="0.50246" stop-color="#FF7A50"/>
<stop offset="1" stop-color="#FF4D42"/>
</radialGradient>
<radialGradient id="paint2_diamond_5761_2372" cx="0" cy="0" r="1" gradientUnits="userSpaceOnUse" gradientTransform="translate(22.2856 0.888915) rotate(131.987) scale(29.8969 33.8899)">
<stop stop-color="#FFA24C"/>
<stop offset="0.50246" stop-color="#FF7A50"/>
<stop offset="1" stop-color="#FF4D42"/>
</radialGradient>
<radialGradient id="paint3_diamond_5761_2372" cx="0" cy="0" r="1" gradientUnits="userSpaceOnUse" gradientTransform="translate(22.2856 0.888915) rotate(131.987) scale(29.8969 33.8899)">
<stop stop-color="#FFA24C"/>
<stop offset="0.50246" stop-color="#FF7A50"/>
<stop offset="1" stop-color="#FF4D42"/>
</radialGradient>
</defs>
</svg>
