<svg viewBox="0 0 16 17" xmlns="http://www.w3.org/2000/svg">
    <path fill-rule="evenodd" clip-rule="evenodd"
        d="M0.666748 8.50033C0.666748 4.43366 3.93341 1.16699 8.00008 1.16699C12.0667 1.16699 15.3334 4.43366 15.3334 8.50033C15.3334 12.567 12.0667 15.8337 8.00008 15.8337C3.93341 15.8337 0.666748 12.567 0.666748 8.50033ZM2.00008 8.50031C2.00008 11.8336 4.66675 14.5003 8.00008 14.5003C11.3334 14.5003 14.0001 11.8336 14.0001 8.50031C14.0001 5.16697 11.3334 2.50031 8.00008 2.50031C4.66675 2.50031 2.00008 5.16697 2.00008 8.50031ZM8.66675 8.50031V11.167C8.66675 11.567 8.40008 11.8336 8.00008 11.8336C7.60008 11.8336 7.33341 11.567 7.33341 11.167V8.50031C7.33341 8.10031 7.60008 7.83364 8.00008 7.83364C8.40008 7.83364 8.66675 8.10031 8.66675 8.50031ZM8.66675 5.83364C8.66675 5.63364 8.60008 5.50031 8.46675 5.36697C8.33341 5.23364 8.06675 5.16697 7.86675 5.16697C7.82841 5.20531 7.81212 5.2216 7.79252 5.22852C7.77803 5.23364 7.76174 5.23364 7.73341 5.23364C7.70008 5.23364 7.68341 5.25031 7.66675 5.26697C7.65008 5.28364 7.63341 5.30031 7.60008 5.30031L7.53341 5.36697C7.40008 5.50031 7.33341 5.63364 7.33341 5.83364C7.33341 6.03364 7.40008 6.16697 7.53341 6.30031C7.53341 6.30031 7.53341 6.36697 7.60008 6.36697C7.63341 6.36697 7.65008 6.38364 7.66675 6.40031C7.68341 6.41697 7.70008 6.43364 7.73341 6.43364C7.77175 6.47198 7.78804 6.48827 7.80764 6.49519C7.82213 6.50031 7.83842 6.50031 7.86675 6.50031H8.00008C8.20008 6.50031 8.33341 6.43364 8.46675 6.30031C8.60008 6.16697 8.66675 6.03364 8.66675 5.83364Z" />
</svg>