<svg viewBox="0 0 24 24" fill="none" xmlns="http://www.w3.org/2000/svg">
<path fill-rule="evenodd" clip-rule="evenodd" d="M22 6C22 5.44772 21.5523 5 21 5H20.99C20.4377 5 19.99 5.44772 19.99 6C19.99 6.55228 20.4377 7 20.99 7H21C21.5523 7 22 6.55228 22 6ZM17 6C17 5.44772 16.5523 5 16 5H3C2.44772 5 2 5.44772 2 6C2 6.55228 2.44772 7 3 7H16C16.5523 7 17 6.55228 17 6ZM22 12C22 11.4477 21.5523 11 21 11H20.99C20.4377 11 19.99 11.4477 19.99 12C19.99 12.5523 20.4377 13 20.99 13H21C21.5523 13 22 12.5523 22 12ZM17 12C17 11.4477 16.5523 11 16 11H3C2.44772 11 2 11.4477 2 12C2 12.5523 2.44772 13 3 13H16C16.5523 13 17 12.5523 17 12ZM22 18C22 17.4477 21.5523 17 21 17H20.99C20.4377 17 19.99 17.4477 19.99 18C19.99 18.5523 20.4377 19 20.99 19H21C21.5523 19 22 18.5523 22 18ZM17 18C17 17.4477 16.5523 17 16 17H3C2.44772 17 2 17.4477 2 18C2 18.5523 2.44772 19 3 19H16C16.5523 19 17 18.5523 17 18Z" />
</svg>
