<svg viewBox="0 0 28 31" xmlns="http://www.w3.org/2000/svg">
<path fill-rule="evenodd" clip-rule="evenodd" d="M13.9974 3.49967C12.5829 3.49967 11.2264 4.06158 10.2262 5.06177C9.22597 6.06197 8.66406 7.41852 8.66406 8.83301V12.833H19.3307V8.83301C19.3307 7.41852 18.7688 6.06197 17.7686 5.06177C16.7684 4.06158 15.4119 3.49967 13.9974 3.49967ZM21.9974 12.833V8.83301C21.9974 6.71128 21.1545 4.67644 19.6543 3.17615C18.154 1.67586 16.1191 0.833008 13.9974 0.833008C11.8757 0.833008 9.84083 1.67586 8.34054 3.17615C6.84025 4.67644 5.9974 6.71128 5.9974 8.83301V12.833H4.66406C2.45492 12.833 0.664062 14.6239 0.664062 16.833V26.1663C0.664062 28.3755 2.45492 30.1663 4.66406 30.1663H23.3307C25.5399 30.1663 27.3307 28.3755 27.3307 26.1663V16.833C27.3307 14.6239 25.5399 12.833 23.3307 12.833H21.9974ZM4.66406 15.4997C3.92768 15.4997 3.33073 16.0966 3.33073 16.833V26.1663C3.33073 26.9027 3.92768 27.4997 4.66406 27.4997H23.3307C24.0671 27.4997 24.6641 26.9027 24.6641 26.1663V16.833C24.6641 16.0966 24.0671 15.4997 23.3307 15.4997H4.66406Z"/>
</svg>
