<svg  viewBox="0 0 21 20" xmlns="http://www.w3.org/2000/svg">
<path fill-rule="evenodd" clip-rule="evenodd" d="M2.8989 2.39886C3.36774 1.93002 4.00363 1.66663 4.66667 1.66663H7.16667C7.62691 1.66663 8 2.03972 8 2.49996C8 2.9602 7.62691 3.33329 7.16667 3.33329H4.66667C4.44565 3.33329 4.23369 3.42109 4.07741 3.57737C3.92113 3.73365 3.83333 3.94561 3.83333 4.16663V6.66663C3.83333 7.12686 3.46024 7.49996 3 7.49996C2.53976 7.49996 2.16667 7.12686 2.16667 6.66663V4.16663C2.16667 3.50358 2.43006 2.8677 2.8989 2.39886ZM13 2.49996C13 2.03972 13.3731 1.66663 13.8333 1.66663H16.3333C16.9964 1.66663 17.6323 1.93002 18.1011 2.39886C18.5699 2.8677 18.8333 3.50358 18.8333 4.16663V6.66663C18.8333 7.12686 18.4602 7.49996 18 7.49996C17.5398 7.49996 17.1667 7.12686 17.1667 6.66663V4.16663C17.1667 3.94561 17.0789 3.73365 16.9226 3.57737C16.7663 3.42109 16.5543 3.33329 16.3333 3.33329H13.8333C13.3731 3.33329 13 2.9602 13 2.49996ZM3 12.5C3.46024 12.5 3.83333 12.8731 3.83333 13.3333V15.8333C3.83333 16.0543 3.92113 16.2663 4.07741 16.4225C4.23369 16.5788 4.44565 16.6666 4.66667 16.6666H7.16667C7.62691 16.6666 8 17.0397 8 17.5C8 17.9602 7.62691 18.3333 7.16667 18.3333H4.66667C4.00363 18.3333 3.36774 18.0699 2.8989 17.6011C2.43006 17.1322 2.16667 16.4963 2.16667 15.8333V13.3333C2.16667 12.8731 2.53976 12.5 3 12.5ZM18 12.5C18.4602 12.5 18.8333 12.8731 18.8333 13.3333V15.8333C18.8333 16.4963 18.5699 17.1322 18.1011 17.6011C17.6323 18.0699 16.9964 18.3333 16.3333 18.3333H13.8333C13.3731 18.3333 13 17.9602 13 17.5C13 17.0397 13.3731 16.6666 13.8333 16.6666H16.3333C16.5543 16.6666 16.7663 16.5788 16.9226 16.4225C17.0789 16.2663 17.1667 16.0543 17.1667 15.8333V13.3333C17.1667 12.8731 17.5398 12.5 18 12.5Z" />
</svg>
