<svg viewBox="0 0 21 20" xmlns="http://www.w3.org/2000/svg">
<path fill-rule="evenodd" clip-rule="evenodd" d="M19.6667 20C19.9167 20 20.0833 19.9167 20.25 19.75C20.5833 19.4167 20.5833 18.9167 20.25 18.5833L6.16667 4.5L1.91667 0.25C1.58333 -0.0833333 1.08333 -0.0833333 0.75 0.25C0.416667 0.583333 0.416667 1.08333 0.75 1.41667L4.08333 4.91667C3 5.41667 2 6.08333 1.08333 6.91667C0.75 7.25 0.666667 7.75 1 8.08333C1.16667 8.25 1.41667 8.33333 1.66667 8.33333C1.91667 8.33333 2.08333 8.25 2.25 8.08333C3.16667 7.25 4.25 6.58333 5.41667 6.08333L7.33333 8.08333C6.16667 8.41667 5 9 4.08333 9.83333C3.75 10.0833 3.66667 10.6667 4 11C4.16667 11.25 4.41667 11.3333 4.66667 11.3333C4.83333 11.3333 5 11.3333 5.16667 11.1667C6.16667 10.25 7.41667 9.66667 8.66667 9.41667L11 11.75C9.66667 11.5833 8.25 11.9167 7.08333 12.75C6.75 13 6.66667 13.5 6.91667 13.9167C7.16667 14.25 7.66667 14.3333 8.08333 14.0833C9.5 13.0833 11.5 13.0833 12.9167 14.0833C13.0833 14.1667 13.25 14.25 13.4167 14.25H13.5833L19.0833 19.75C19.25 19.9167 19.4167 20 19.6667 20ZM14.0833 9.91667C13.6667 9.75 13.5 9.25 13.6667 8.83333C13.9167 8.41667 14.4167 8.25 14.8333 8.41667C15.5833 8.75 16.25 9.24999 16.9167 9.74999L16.9167 9.75C17.25 10 17.3333 10.5833 17 10.9167C16.8333 11.1667 16.5833 11.25 16.3333 11.25C16.1667 11.25 16 11.25 15.8333 11.0833C15.25 10.5833 14.6667 10.25 14.0833 9.91667ZM9.5 5C12.8333 4.75 16.25 5.83333 18.75 8.08333C18.9167 8.25 19.0833 8.25 19.3333 8.25C19.5833 8.25 19.8333 8.16667 20 8C20.3333 7.66667 20.25 7.16667 19.9167 6.83333C17.0833 4.33333 13.25 3 9.41667 3.33333C8.91667 3.33333 8.58333 3.75 8.66667 4.25C8.66667 4.75 9 5.08333 9.5 5ZM9.75 16.3333C9.75 16.25 9.83333 16.1667 9.91667 16.0833C10.25 15.75 10.75 15.75 11.0833 16.0833C11.25 16.25 11.3333 16.4167 11.3333 16.6667C11.3333 16.9167 11.25 17.0833 11.0833 17.25C10.9167 17.4167 10.75 17.5 10.5 17.5C10.4024 17.5 10.3333 17.4714 10.2761 17.4477C10.2357 17.431 10.2012 17.4167 10.1667 17.4167C10.0833 17.4167 10 17.3333 9.91667 17.25C9.75 17.0833 9.66667 16.9167 9.66667 16.6667C9.66667 16.569 9.69526 16.5 9.71895 16.4428C9.7357 16.4024 9.75 16.3679 9.75 16.3333Z" />
</svg>
