<svg viewBox="0 0 16 16"  xmlns="http://www.w3.org/2000/svg">
<path fill-rule="evenodd" clip-rule="evenodd" d="M15.8011 14.8667C16.0663 15.1333 16.0663 15.5333 15.8011 15.8C15.6684 15.9333 15.5358 16 15.3369 16C15.1379 16 15.0053 15.9333 14.8727 15.8L12.9496 13.8667C12.9012 13.8764 12.8542 13.8861 12.8083 13.8956C12.5392 13.9514 12.3044 14 12.0212 14H6.0529H5.98659C3.79822 14 1.8088 12.8 0.747778 10.9333C-0.0479902 9.53333 -0.180618 7.93333 0.217266 6.4C0.61515 5.06667 1.3446 4 2.33931 3.2L0.28358 1.13333C0.0183239 0.866667 0.0183239 0.466667 0.28358 0.2C0.548836 -0.0666667 0.94672 -0.0666667 1.21198 0.2L15.8011 14.8667ZM5.85396 2.6C5.85396 2.26667 6.18553 1.93333 6.58341 2C8.9044 2.2 10.8938 3.8 11.6896 6H12.0212C12.5517 6 13.0822 6.13333 13.5464 6.33333C15.5358 7.2 16.5305 9.53333 15.6684 11.6C15.6021 11.8 15.3369 12 15.0716 12C15.0053 12 14.8727 12 14.8063 11.9333C14.4748 11.8 14.3421 11.4 14.4748 11.0667C15.0716 9.73333 14.4085 8.13333 13.0822 7.6C12.7506 7.46667 12.419 7.4 12.0212 7.4H11.1591C10.8275 7.4 10.5623 7.2 10.4959 6.86667C10.0317 4.93333 8.4402 3.53333 6.45078 3.33333C6.11921 3.26667 5.78764 3 5.85396 2.6ZM3.33402 4.2L11.7559 12.6667H6.0529C4.32873 12.7333 2.7372 11.8 1.94143 10.2667C1.3446 9.2 1.21198 7.93333 1.54355 6.73333C1.8088 5.66667 2.47194 4.8 3.33402 4.2Z"/>
</svg>
