<svg viewBox="0 0 12 14" fill="none" xmlns="http://www.w3.org/2000/svg">
<path d="M4.35253 0.708885C5.04004 0.634866 5.65065 1.0396 5.84123 1.69868C5.87482 1.81487 5.89172 1.93924 5.89553 2.0606C5.90377 2.32031 5.89848 2.58045 5.89848 2.84038C5.89848 2.86429 5.87805 2.88324 5.85416 2.88412C5.66492 2.89109 5.47989 2.88286 5.29907 2.82295C4.73199 2.63554 4.35527 2.11417 4.34936 1.50416C4.34682 1.25671 4.34872 1.00905 4.34894 0.761602" fill="#05A85A"/>
<path d="M7.64579 1.867C7.64568 1.867 7.64559 1.8671 7.64561 1.86721C7.70633 2.40742 7.32183 2.8682 6.80277 2.88369C6.50936 2.89249 6.24001 2.64168 6.36265 2.37498C6.4214 2.2472 6.51207 2.13404 6.63861 2.03699C6.78059 1.92811 6.94243 1.87066 7.12033 1.86765C7.29443 1.86485 7.46874 1.867 7.64579 1.867Z" fill="#05A85A"/>
<path fill-rule="evenodd" clip-rule="evenodd" d="M6 13.5002C9.31371 13.5002 12 10.5883 12 7.51662C12 4.85907 9.98918 3.06754 7.30093 3.27684C6.43855 3.34399 5.56145 3.34399 4.69907 3.27684C2.01082 3.06754 0 4.85907 0 7.51662C0 10.5883 2.68629 13.5002 6 13.5002ZM5.95274 11.2106C7.72701 11.2106 9.16534 9.65074 9.16534 8.00539C9.16534 6.51024 7.97762 5.52683 6.42939 5.75947C6.11403 5.80686 5.79146 5.80686 5.47609 5.75947C3.92787 5.52683 2.74014 6.51024 2.74014 8.00539C2.74014 9.65074 4.17847 11.2106 5.95274 11.2106Z" fill="url(#paint0_diamond_1742_23608)"/>
<defs>
<radialGradient id="paint0_diamond_1742_23608" cx="0" cy="0" r="1" gradientUnits="userSpaceOnUse" gradientTransform="translate(12 3.26025) rotate(139.525) scale(15.7752 17.7577)">
<stop stop-color="#FFA24C"/>
<stop offset="0.50246" stop-color="#FF7A50"/>
<stop offset="1" stop-color="#FF4D42"/>
</radialGradient>
</defs>
</svg>
