<svg  viewBox="0 0 64 64"  xmlns="http://www.w3.org/2000/svg">
<path fill-rule="evenodd" clip-rule="evenodd" d="M32 64C49.6731 64 64 49.6731 64 32C64 14.3269 49.6731 0 32 0C14.3269 0 0 14.3269 0 32C0 49.6731 14.3269 64 32 64ZM40.46 14.54L49.46 23.54C49.82 23.9 50 24.26 50 24.8V44.6C50 47.66 47.66 50 44.6 50H19.4C16.34 50 14 47.66 14 44.6V19.4C14 16.34 16.34 14 19.4 14H39.2C39.74 14 40.1 14.18 40.46 14.54ZM24.8009 46.4H39.2009V35.6H24.8009V46.4ZM46.4 44.6C46.4 45.68 45.68 46.4 44.6 46.4H42.8V33.8C42.8 32.72 42.08 32 41 32H23C21.92 32 21.2 32.72 21.2 33.8V46.4H19.4C18.32 46.4 17.6 45.68 17.6 44.6V19.4C17.6 18.32 18.32 17.6 19.4 17.6H21.2V24.8C21.2 25.88 21.92 26.6 23 26.6H37.4C38.48 26.6 39.2 25.88 39.2 24.8C39.2 23.72 38.48 23 37.4 23H24.8V17.6H38.48L46.4 25.52V44.6Z" />
</svg>
