<svg viewBox="0 0 17 16" xmlns="http://www.w3.org/2000/svg">
    <path fill-rule="evenodd" clip-rule="evenodd"
        d="M11.9667 9.86667L14.9667 12.8667C15.2334 13.1333 15.2334 13.5333 14.9667 13.8C14.8334 13.9333 14.6334 14 14.5 14C14.3667 14 14.1667 13.9333 14.0334 13.8L11.0334 10.8C10.0334 11.5333 8.83337 12 7.50004 12C4.36671 12 1.83337 9.46667 1.83337 6.33334C1.83337 3.20001 4.36671 0.666672 7.50004 0.666672C10.6334 0.666672 13.1667 3.20001 13.1667 6.33334C13.1667 7.66667 12.7 8.93334 11.9667 9.86667ZM7.50004 2.00001C5.10004 2.00001 3.16671 3.93334 3.16671 6.33334C3.16671 8.73334 5.10004 10.6667 7.50004 10.6667C8.70004 10.6667 9.76671 10.2 10.5667 9.40001C11.3667 8.60001 11.8334 7.53334 11.8334 6.33334C11.8334 3.93334 9.90004 2.00001 7.50004 2.00001Z" />
</svg>