<svg  viewBox="0 0 25 24" xmlns="http://www.w3.org/2000/svg">
<path fill-rule="evenodd" clip-rule="evenodd" d="M11.5429 2.29289C11.9334 1.90237 12.5666 1.90237 12.9571 2.29289L17.9571 7.29289C18.3476 7.68342 18.3476 8.31658 17.9571 8.70711C17.5666 9.09763 16.9334 9.09763 16.5429 8.70711L13.25 5.41421V15C13.25 15.5523 12.8023 16 12.25 16C11.6977 16 11.25 15.5523 11.25 15V5.41421L7.95711 8.70711C7.56658 9.09763 6.93342 9.09763 6.54289 8.70711C6.15237 8.31658 6.15237 7.68342 6.54289 7.29289L11.5429 2.29289ZM3.25 14C3.80228 14 4.25 14.4477 4.25 15V19C4.25 19.2652 4.35536 19.5196 4.54289 19.7071C4.73043 19.8946 4.98478 20 5.25 20H19.25C19.5152 20 19.7696 19.8946 19.9571 19.7071C20.1446 19.5196 20.25 19.2652 20.25 19V15C20.25 14.4477 20.6977 14 21.25 14C21.8023 14 22.25 14.4477 22.25 15V19C22.25 19.7957 21.9339 20.5587 21.3713 21.1213C20.8087 21.6839 20.0457 22 19.25 22H5.25C4.45435 22 3.69129 21.6839 3.12868 21.1213C2.56607 20.5587 2.25 19.7957 2.25 19V15C2.25 14.4477 2.69772 14 3.25 14Z" />
</svg>
