<svg viewBox="0 0 24 24" xmlns="http://www.w3.org/2000/svg">
<path fill-rule="evenodd" clip-rule="evenodd" d="M22.997 1.92258C22.9793 1.69304 22.8827 1.46845 22.7071 1.29289C22.4206 1.00643 22.0036 0.930098 21.6476 1.06389L1.66965 8.05617C1.28265 8.19162 1.01755 8.54959 1.00084 8.95926C0.984122 9.36894 1.21919 9.74731 1.59387 9.91384L10.2424 13.7576L14.0862 22.4062C14.2527 22.7808 14.6311 23.0159 15.0408 22.9992C15.4504 22.9825 15.8084 22.7174 15.9439 22.3304L22.9368 2.35057C22.9881 2.21326 23.0082 2.06694 22.997 1.92258ZM18.1943 4.39152L4.71108 9.11063L10.7785 11.8073L18.1943 4.39152ZM12.1927 13.2215L19.6086 5.80566L14.8894 19.289L12.1927 13.2215Z"/>
</svg>
