<svg viewBox="0 0 24 24"  xmlns="http://www.w3.org/2000/svg">
<path d="M10.8241 5.5616C11.3726 5.50275 11.8598 5.82454 12.0118 6.34854C12.0386 6.44092 12.0521 6.53981 12.0551 6.63629C12.0617 6.84278 12.0575 7.04961 12.0575 7.25627V7.25627C12.0575 7.27528 12.0413 7.29034 12.0223 7.29104C11.8712 7.29659 11.7236 7.29006 11.5793 7.24241C11.1269 7.09341 10.8263 6.67889 10.8216 6.19389C10.8196 5.99715 10.8211 5.80025 10.8213 5.60351" />
<path d="M13.4515 6.48232C13.4514 6.48232 13.4513 6.4824 13.4514 6.48249C13.4998 6.91198 13.193 7.27833 12.7789 7.29065V7.29065C12.5448 7.29765 12.3298 7.09741 12.4284 6.88495C12.4753 6.78387 12.5474 6.69431 12.648 6.61747C12.7612 6.5309 12.8904 6.48523 13.0323 6.48283C13.1712 6.48061 13.3103 6.48232 13.4515 6.48232V6.48232Z" />
<path fill-rule="evenodd" clip-rule="evenodd" d="M16.9253 10.9742C16.9253 13.4163 14.7821 15.7315 12.1384 15.7315C11.1795 15.7315 10.2865 15.427 9.53771 14.9222V17.3522C9.53771 17.9559 9.04832 18.4453 8.44464 18.4453C7.84096 18.4453 7.35158 17.9559 7.35158 17.3522V11.0577H7.3524C7.35184 11.0299 7.35156 11.002 7.35156 10.9742C7.35156 8.86125 8.95582 7.43687 11.1005 7.60328C11.7886 7.65666 12.4883 7.65666 13.1763 7.60328C15.321 7.43687 16.9253 8.86124 16.9253 10.9742ZM9.53771 11.384V11.3415C9.54894 10.1647 10.4926 9.39321 11.7204 9.57707C11.972 9.61475 12.2293 9.61475 12.4809 9.57707C13.7161 9.39211 14.6637 10.174 14.6637 11.3627C14.6637 12.6709 13.5162 13.911 12.1007 13.911C10.6928 13.911 9.55007 12.6843 9.53771 11.384Z" />
<path fill-rule="evenodd" clip-rule="evenodd" d="M5 1C2.79086 1 1 2.79086 1 5V19C1 21.2091 2.79086 23 5 23H19C21.2091 23 23 21.2091 23 19V5C23 2.79086 21.2091 1 19 1H5ZM5 3C3.89543 3 3 3.89543 3 5V19C3 20.1046 3.89543 21 5 21H19C20.1046 21 21 20.1046 21 19V5C21 3.89543 20.1046 3 19 3H5Z" />
</svg>
