<svg viewBox="0 0 20 25" xmlns="http://www.w3.org/2000/svg">
<path fill-rule="evenodd" clip-rule="evenodd" d="M20 4.5C20 5.05228 19.5523 5.5 19 5.5H12C11.4477 5.5 11 5.05228 11 4.5C11 3.94772 11.4477 3.5 12 3.5H19C19.5523 3.5 20 3.94772 20 4.5ZM20 12.5C20 13.0523 19.5523 13.5 19 13.5H15V15.5C15 16.0523 14.5523 16.5 14 16.5C13.4477 16.5 13 16.0523 13 15.5V9.5C13 8.94772 13.4477 8.5 14 8.5C14.5523 8.5 15 8.94772 15 9.5V11.5H19C19.5523 11.5 20 11.9477 20 12.5ZM20 20.5C20 21.0523 19.5523 21.5 19 21.5H10C9.44772 21.5 9 21.0523 9 20.5C9 19.9477 9.44772 19.5 10 19.5H19C19.5523 19.5 20 19.9477 20 20.5ZM11 12.5C11 13.0523 10.5523 13.5 10 13.5H1C0.447717 13.5 1.19209e-06 13.0523 1.19209e-06 12.5C1.19209e-06 11.9477 0.447717 11.5 1 11.5H10C10.5523 11.5 11 11.9477 11 12.5ZM8 0.5C8.55229 0.5 9 0.947715 9 1.5V7.5C9 8.05228 8.55229 8.5 8 8.5C7.44772 8.5 7 8.05228 7 7.5V5.5H1C0.447717 5.5 1.19209e-06 5.05228 1.19209e-06 4.5C1.19209e-06 3.94772 0.447717 3.5 1 3.5H7V1.5C7 0.947715 7.44772 0.5 8 0.5ZM6 16.5C6.55229 16.5 7 16.9477 7 17.5V23.5C7 24.0523 6.55229 24.5 6 24.5C5.44772 24.5 5 24.0523 5 23.5V21.5H1C0.447717 21.5 1.19209e-06 21.0523 1.19209e-06 20.5C1.19209e-06 19.9477 0.447717 19.5 1 19.5H5V17.5C5 16.9477 5.44772 16.5 6 16.5Z"/>
</svg>
