<svg viewBox="0 0 24 24" xmlns="http://www.w3.org/2000/svg">
<path fill-rule="evenodd" clip-rule="evenodd" d="M13 23L13 17C13 16.4 13.4 16 14 16C14.6 16 15 16.4 15 17L15 19L21 19C21.6 19 22 19.4 22 20C22 20.6 21.6 21 21 21L15 21L15 23C15 23.6 14.6 24 14 24C13.4 24 13 23.6 13 23ZM3 21L10 21C10.6 21 11 20.6 11 20C11 19.4 10.6 19 10 19L3 19C2.4 19 2 19.4 2 20C2 20.6 2.4 21 3 21ZM12 13C11.4 13 11 12.6 11 12C11 11.4 11.4 11 12 11L21 11C21.6 11 22 11.4 22 12C22 12.6 21.6 13 21 13L12 13ZM13 4C13 3.4 12.6 3 12 3L3 3C2.4 3 2 3.4 2 4C2 4.6 2.4 5 3 5L12 5C12.6 5 13 4.6 13 4ZM7 9L7 11L3 11C2.4 11 2 11.4 2 12C2 12.6 2.4 13 3 13L7 13L7 15C7 15.6 7.4 16 8 16C8.6 16 9 15.6 9 15L9 9C9 8.4 8.6 8 8 8C7.4 8 7 8.4 7 9ZM16 8C15.4 8 15 7.6 15 7L15 0.999999C15 0.399999 15.4 -5.76991e-07 16 -5.24537e-07C16.6 -4.72083e-07 17 0.399999 17 1L17 3L21 3C21.6 3 22 3.4 22 4C22 4.6 21.6 5 21 5L17 5L17 7C17 7.6 16.6 8 16 8Z"/>
</svg>
