<svg viewBox="0 0 24 24" xmlns="http://www.w3.org/2000/svg">
<path fill-rule="evenodd" clip-rule="evenodd" d="M3 12C3 7.02944 7.02944 3 12 3C16.9706 3 21 7.02944 21 12C21 16.9706 16.9706 21 12 21C7.02944 21 3 16.9706 3 12ZM12 1C5.92487 1 1 5.92487 1 12C1 18.0751 5.92487 23 12 23C18.0751 23 23 18.0751 23 12C23 5.92487 18.0751 1 12 1ZM7.4 13.2001C7.84043 12.8697 8.46468 12.9577 8.79686 13.3959L8.8015 13.4018C8.80745 13.4093 8.81876 13.4234 8.83531 13.4431C8.86846 13.4826 8.92219 13.5442 8.99542 13.6207C9.14272 13.7744 9.36407 13.9829 9.65067 14.1913C10.2277 14.611 11.0255 15.0001 12 15.0001C12.9745 15.0001 13.7723 14.611 14.3493 14.1913C14.6359 13.9829 14.8573 13.7744 15.0046 13.6207C15.0778 13.5442 15.1315 13.4826 15.1647 13.4431C15.1812 13.4234 15.1925 13.4093 15.1985 13.4018L15.2031 13.3959C15.5353 12.9577 16.1596 12.8697 16.6 13.2001C17.0418 13.5314 17.1314 14.1582 16.8 14.6001L16 14.0001C16.8 14.6001 16.7998 14.6004 16.7995 14.6007L16.799 14.6014L16.7978 14.6029L16.7951 14.6066L16.7879 14.616L16.7666 14.6432C16.7493 14.665 16.726 14.6939 16.6966 14.7289C16.638 14.7987 16.555 14.8934 16.4485 15.0045C16.2365 15.2258 15.9266 15.5172 15.5257 15.8088C14.7277 16.3891 13.5255 17.0001 12 17.0001C10.4745 17.0001 9.27226 16.3891 8.47433 15.8088C8.07343 15.5172 7.76352 15.2258 7.55145 15.0045C7.445 14.8934 7.362 14.7987 7.30336 14.7289C7.274 14.6939 7.25065 14.665 7.23341 14.6432L7.21211 14.616L7.2049 14.6066L7.20216 14.6029L7.20101 14.6014L7.20048 14.6007C7.20024 14.6004 7.2 14.6001 8 14.0001L7.2 14.6001C6.86863 14.1582 6.95817 13.5314 7.4 13.2001ZM8 9C8 8.44772 8.44772 8 9 8H9.01C9.56228 8 10.01 8.44772 10.01 9C10.01 9.55228 9.56228 10 9.01 10H9C8.44772 10 8 9.55228 8 9ZM15 8C14.4477 8 14 8.44772 14 9C14 9.55228 14.4477 10 15 10H15.01C15.5623 10 16.01 9.55228 16.01 9C16.01 8.44772 15.5623 8 15.01 8H15Z"/>
</svg>
