<svg viewBox="0 0 48 49" xmlns="http://www.w3.org/2000/svg">
<path fill-rule="evenodd" clip-rule="evenodd" d="M24 48.5C37.2548 48.5 48 37.7548 48 24.5C48 11.2452 37.2548 0.5 24 0.5C10.7452 0.5 0 11.2452 0 24.5C0 37.7548 10.7452 48.5 24 48.5ZM25.1957 10.5765C24.971 10.1214 24.5075 9.83333 24 9.83333C23.4925 9.83333 23.0291 10.1214 22.8044 10.5765L18.9944 18.2953L10.4739 19.5407C9.97179 19.6141 9.55488 19.9661 9.39838 20.4488C9.24187 20.9314 9.3729 21.4611 9.73639 21.8151L15.9007 27.8192L14.4459 36.3013C14.3601 36.8015 14.5658 37.3071 14.9764 37.6054C15.387 37.9037 15.9314 37.943 16.3806 37.7068L24 33.6998L31.6194 37.7068C32.0687 37.943 32.613 37.9037 33.0237 37.6054C33.4343 37.3071 33.64 36.8015 33.5542 36.3013L32.0994 27.8192L38.2637 21.8151C38.6272 21.4611 38.7582 20.9314 38.6017 20.4488C38.4452 19.9661 38.0283 19.6141 37.5262 19.5407L29.0057 18.2953L25.1957 10.5765ZM21.0756 20.1035L24 14.179L26.9244 20.1035C27.1185 20.4966 27.4934 20.7692 27.9272 20.8326L34.4688 21.7888L29.7364 26.3982C29.4219 26.7045 29.2783 27.146 29.3526 27.5787L30.4691 34.0889L24.6206 31.0132C24.2321 30.8089 23.7679 30.8089 23.3794 31.0132L17.5309 34.0889L18.6475 27.5787C18.7217 27.146 18.5782 26.7045 18.2637 26.3982L13.5313 21.7888L20.0729 20.8326C20.5067 20.7692 20.8816 20.4966 21.0756 20.1035Z"/>
</svg>
