<svg viewBox="0 0 24 24" xmlns="http://www.w3.org/2000/svg">
<path fill-rule="evenodd" clip-rule="evenodd" d="M21.4246 10.4545C20.9643 9.90909 20.3199 9.45455 19.5834 9.36364H19.1231H14.8884V6.63636C14.8884 4.63636 13.2313 3 11.206 3C10.8377 3 10.4695 3.18182 10.3774 3.54545L6.97123 11.1818H4.7618C3.19678 11.1818 2 12.3636 2 13.9091V20.2727C2 21.8182 3.19678 23 4.7618 23H17.9264C19.3073 23 20.412 22 20.6881 20.7273L21.977 12.5455C22.069 11.8182 21.8849 11.0909 21.4246 10.4545ZM6.603 21.1818H4.76181C4.20945 21.1818 3.84121 20.8182 3.84121 20.2727V13.9091C3.84121 13.3636 4.20945 13 4.76181 13H6.603V21.1818ZM17.9264 21.1818C18.3867 21.1818 18.7549 20.9091 18.847 20.4545L20.2279 12.1818C20.2279 12 20.2279 11.7273 20.0437 11.5454C19.8596 11.3636 19.6755 11.1818 19.3993 11.1818H19.2152H13.9678C13.4154 11.1818 13.0472 10.8182 13.0472 10.2727V6.63634C13.0472 5.81816 12.4948 5.1818 11.7584 4.90907L8.4442 12.2727V21.1818H17.9264Z"/>
</svg>
