<svg viewBox="0 0 24 24" xmlns="http://www.w3.org/2000/svg">
<path fill-rule="evenodd" clip-rule="evenodd" d="M22 3.6484C21.8159 2.09589 20.5269 1 18.9618 1H18.8697H6.07252C4.69152 1 3.58672 2.00457 3.31052 3.28311L2.02159 11.5023C1.83746 12.9635 2.85019 14.4247 4.32325 14.6073H4.78359H9.11071V17.347C9.11071 19.3562 10.7679 21 12.7934 21C13.1616 21 13.5299 20.8174 13.622 20.4521L17.0284 12.7808H18.8697C20.4349 12.7808 21.7238 11.6849 21.9079 10.1324V10.0411V3.73973C22 3.73973 22 3.6484 22 3.6484ZM15.5553 11.7763L12.2409 19.1735C11.5044 18.8996 10.952 18.2603 10.952 17.4384V13.7854C10.952 13.2375 10.5837 12.8722 10.0314 12.8722H4.78357H4.59943C4.1391 12.7808 3.77084 12.3242 3.8629 11.8676L5.15183 3.64842C5.2439 3.1918 5.61216 2.8265 6.07249 2.8265H15.5553V11.7763ZM18.9618 11.0457C19.5142 11.0457 20.0666 10.5891 20.1587 10.0411V3.83107C20.0666 3.28313 19.5142 2.8265 18.9618 2.8265H17.3967V11.0457H18.9618Z"/>
</svg>
