<svg viewBox="0 0 24 24" xmlns="http://www.w3.org/2000/svg">
<path fill-rule="evenodd" clip-rule="evenodd" d="M21.0909 4.72727L21.0909 5.63636C21.0909 6.18181 20.7273 6.54545 20.1818 6.54545C19.6364 6.54545 19.2727 6.18181 19.2727 5.63636L19.2727 4.72727C19.2727 4.18181 18.9091 3.81818 18.3636 3.81818L4.72727 3.81818C4.18182 3.81818 3.81818 4.18182 3.81818 4.72727L3.81818 19.2727C3.81818 19.8182 4.18182 20.1818 4.72727 20.1818L18.3636 20.1818C18.9091 20.1818 19.2727 19.8182 19.2727 19.2727L19.2727 18.3636C19.2727 17.8182 19.6364 17.4545 20.1818 17.4545C20.7273 17.4545 21.0909 17.8182 21.0909 18.3636L21.0909 19.2727C21.0909 20.8182 19.9091 22 18.3636 22L4.72727 22C3.18182 22 2 20.8182 2 19.2727L2 4.72727C2 3.18182 3.18182 2 4.72727 2L18.3636 2C19.9091 2 21.0909 3.18181 21.0909 4.72727ZM15.6364 12C15.6364 12.5021 15.2294 12.9091 14.7273 12.9091C14.2252 12.9091 13.8182 12.5021 13.8182 12C13.8182 11.4979 14.2252 11.0909 14.7273 11.0909C15.2294 11.0909 15.6364 11.4979 15.6364 12ZM22 9.68595L22 9.35537C22 8.79339 21.5702 8.36364 21.0083 8.36364L12.0826 8.36359C11.5207 8.36359 11.0909 8.79334 11.0909 9.35533L11.0909 14.6446C11.0909 15.2066 11.5207 15.6363 12.0826 15.6363L21.0083 15.6364C21.5702 15.6364 22 15.2066 22 14.6446L22 14.3141L22 9.68595ZM20.1818 10.8429L20.1818 10.5124C20.1818 10.314 20.0496 10.1818 19.8512 10.1818L13.2397 10.1818C13.0413 10.1818 12.9091 10.314 12.9091 10.5123L12.9091 13.4876C12.9091 13.6859 13.0413 13.8181 13.2397 13.8181L19.8512 13.8181C20.0496 13.8181 20.1818 13.6859 20.1818 13.4876L20.1818 13.157L20.1818 10.8429Z"/>
</svg>
