<svg viewBox="0 0 25 24" xmlns="http://www.w3.org/2000/svg">
<path fill-rule="evenodd" clip-rule="evenodd" d="M21.0833 3H4.41667C3.30556 3 2.75 3.55556 2.75 4.66667V6.88889C2.75 8 3.30556 8.55556 4.41667 8.55556H21.0833C22.1944 8.55556 22.75 8 22.75 6.88889V4.66667C22.75 3.40404 22.1944 3 21.0833 3ZM21.0833 9.66667H4.41667C3.30556 9.66667 2.75 10.2222 2.75 11.3333V13.5556C2.75 14.6667 3.30556 15.2222 4.41667 15.2222H21.0833C22.1944 15.2222 22.75 14.6667 22.75 13.5556V11.3333C22.75 10.0707 22.1944 9.66667 21.0833 9.66667ZM4.41667 16.3333H21.0833C22.1944 16.3333 22.75 16.7374 22.75 18V20.2222C22.75 21.3333 22.1944 21.8889 21.0833 21.8889H4.41667C3.30556 21.8889 2.75 21.3333 2.75 20.2222V18C2.75 16.8889 3.30556 16.3333 4.41667 16.3333ZM20.5278 20.2222C20.8346 20.2222 21.0833 19.9735 21.0833 19.6667V18.5556C21.0833 18.2487 20.8346 18 20.5278 18H4.97222C4.6654 18 4.41667 18.2487 4.41667 18.5556V19.6667C4.41667 19.9735 4.6654 20.2222 4.97222 20.2222H20.5278ZM20.5278 13.5556C20.8346 13.5556 21.0833 13.3068 21.0833 13V11.8889C21.0833 11.5821 20.8346 11.3333 20.5278 11.3333H4.97222C4.6654 11.3333 4.41667 11.5821 4.41667 11.8889V13C4.41667 13.3068 4.6654 13.5556 4.97222 13.5556H20.5278ZM20.5278 6.88889C20.8346 6.88889 21.0833 6.64016 21.0833 6.33333V5.22222C21.0833 4.9154 20.8346 4.66667 20.5278 4.66667H4.97222C4.6654 4.66667 4.41667 4.9154 4.41667 5.22222V6.33333C4.41667 6.64016 4.6654 6.88889 4.97222 6.88889H20.5278Z"/>
</svg>
