<svg viewBox="0 0 48 49" xmlns="http://www.w3.org/2000/svg">
<path fill-rule="evenodd" clip-rule="evenodd" d="M24 48.5C37.2548 48.5 48 37.7548 48 24.5C48 11.2452 37.2548 0.5 24 0.5C10.7452 0.5 0 11.2452 0 24.5C0 37.7548 10.7452 48.5 24 48.5ZM26.6564 11.3321C26.7298 10.7448 26.4072 10.1794 25.8643 9.94367C25.3213 9.70798 24.688 9.85845 24.3091 10.3132L10.9757 26.3132C10.6445 26.7106 10.5731 27.2638 10.7926 27.7323C11.012 28.2008 11.4827 28.5001 12 28.5001H22.4896L21.3436 37.668C21.2702 38.2554 21.5928 38.8208 22.1358 39.0565C22.6787 39.2922 23.3121 39.1417 23.691 38.687L37.0243 22.687C37.3555 22.2895 37.4269 21.7364 37.2075 21.2679C36.988 20.7994 36.5174 20.5001 36 20.5001H25.5104L26.6564 11.3321ZM24 25.8334H14.8467L23.4462 15.514L22.677 21.668C22.6295 22.0475 22.7473 22.4291 23.0004 22.7158C23.2535 23.0025 23.6176 23.1667 24 23.1667H33.1533L24.5538 33.4861L25.3231 27.3321C25.3705 26.9526 25.2527 26.571 24.9996 26.2843C24.7465 25.9976 24.3825 25.8334 24 25.8334Z" />
</svg>
