<svg width="331" height="86" viewBox="0 0 331 86" fill="none" xmlns="http://www.w3.org/2000/svg">
<g opacity="0.2">
<path fill-rule="evenodd" clip-rule="evenodd" d="M85.9275 22.7697L65.4089 1.41148L43.666 22.1085L22.8755 0.467773L1.4188 20.8926L22.2093 42.5334L0.469971 63.2273L20.9891 84.5854L42.7284 63.8918L63.5199 85.5331L84.9766 65.1081L64.1853 43.4667L85.9275 22.7697Z" fill="white"/>
<path fill-rule="evenodd" clip-rule="evenodd" d="M208.19 22.7697L187.671 1.41148L165.928 22.1085L145.138 0.467773L123.681 20.8926L144.471 42.5334L122.732 63.2273L143.251 84.5854L164.99 63.8918L185.782 85.5331L207.238 65.1081L186.447 43.4667L208.19 22.7697Z" fill="white"/>
<path fill-rule="evenodd" clip-rule="evenodd" d="M330.455 22.7697L309.935 1.41148L288.193 22.1085L267.402 0.467773L245.945 20.8926L266.736 42.5334L244.997 63.2273L265.516 84.5854L287.255 63.8918L308.046 85.5331L329.503 65.1081L308.712 43.4667L330.455 22.7697Z" fill="white"/>
</g>
</svg>
