<svg width="341" height="53" viewBox="0 0 341 53" fill="none" xmlns="http://www.w3.org/2000/svg">
<path d="M65.9041 18L60.8246 0.545454H65.4865L68.12 11.983H68.2649L71.2734 0.545454H75.0746L78.0831 12.0085H78.228L80.87 0.545454H85.5234L80.4524 18H76.3871L73.2422 7.41477H73.1058L69.9609 18H65.9041ZM87.2663 18V0.545454H99.4368V3.97159H91.4851V7.55114H98.8146V10.9858H91.4851V14.5739H99.4368V18H87.2663ZM102.079 18V0.545454H106.298V14.5739H113.559V18H102.079ZM130.907 6.86932H126.646C126.589 6.43182 126.472 6.03693 126.296 5.68466C126.12 5.33239 125.887 5.03125 125.597 4.78125C125.308 4.53125 124.964 4.34091 124.566 4.21023C124.174 4.07386 123.739 4.00568 123.262 4.00568C122.415 4.00568 121.685 4.21307 121.072 4.62784C120.464 5.04261 119.995 5.64205 119.665 6.42614C119.342 7.21023 119.18 8.15909 119.18 9.27273C119.18 10.4318 119.344 11.4034 119.674 12.1875C120.009 12.9659 120.478 13.554 121.08 13.9517C121.688 14.3437 122.407 14.5398 123.237 14.5398C123.702 14.5398 124.126 14.4801 124.506 14.3608C124.893 14.2415 125.231 14.0682 125.521 13.8409C125.816 13.608 126.058 13.3267 126.245 12.9972C126.438 12.6619 126.572 12.2841 126.646 11.8636L130.907 11.8892C130.833 12.6619 130.609 13.4233 130.234 14.1733C129.864 14.9233 129.356 15.608 128.708 16.2273C128.06 16.8409 127.271 17.3295 126.339 17.6932C125.413 18.0568 124.35 18.2386 123.151 18.2386C121.572 18.2386 120.157 17.892 118.907 17.1989C117.663 16.5 116.68 15.483 115.958 14.1477C115.237 12.8125 114.876 11.1875 114.876 9.27273C114.876 7.35227 115.242 5.72443 115.975 4.3892C116.708 3.05398 117.7 2.03977 118.95 1.34659C120.2 0.653409 121.6 0.306818 123.151 0.306818C124.208 0.306818 125.185 0.454545 126.083 0.75C126.981 1.03977 127.771 1.46591 128.452 2.02841C129.134 2.58523 129.688 3.26989 130.114 4.08239C130.54 4.89489 130.805 5.82386 130.907 6.86932ZM149.795 9.27273C149.795 11.1932 149.426 12.821 148.688 14.1562C147.949 15.4915 146.949 16.5057 145.688 17.1989C144.432 17.892 143.023 18.2386 141.46 18.2386C139.892 18.2386 138.48 17.8892 137.224 17.1903C135.969 16.4915 134.972 15.4773 134.233 14.1477C133.5 12.8125 133.134 11.1875 133.134 9.27273C133.134 7.35227 133.5 5.72443 134.233 4.3892C134.972 3.05398 135.969 2.03977 137.224 1.34659C138.48 0.653409 139.892 0.306818 141.46 0.306818C143.023 0.306818 144.432 0.653409 145.688 1.34659C146.949 2.03977 147.949 3.05398 148.688 4.3892C149.426 5.72443 149.795 7.35227 149.795 9.27273ZM145.483 9.27273C145.483 8.13636 145.321 7.17614 144.997 6.39205C144.679 5.60795 144.219 5.0142 143.616 4.61079C143.02 4.20739 142.301 4.00568 141.46 4.00568C140.625 4.00568 139.906 4.20739 139.304 4.61079C138.702 5.0142 138.239 5.60795 137.915 6.39205C137.597 7.17614 137.438 8.13636 137.438 9.27273C137.438 10.4091 137.597 11.3693 137.915 12.1534C138.239 12.9375 138.702 13.5312 139.304 13.9347C139.906 14.3381 140.625 14.5398 141.46 14.5398C142.301 14.5398 143.02 14.3381 143.616 13.9347C144.219 13.5312 144.679 12.9375 144.997 12.1534C145.321 11.3693 145.483 10.4091 145.483 9.27273ZM152.259 0.545454H157.483L161.915 11.3523H162.119L166.551 0.545454H171.776V18H167.668V7.27841H167.523L163.33 17.8892H160.705L156.511 7.21875H156.366V18H152.259V0.545454ZM174.407 18V0.545454H186.577V3.97159H178.626V7.55114H185.955V10.9858H178.626V14.5739H186.577V18H174.407ZM193.805 3.97159V0.545454H208.558V3.97159H203.265V18H199.106V3.97159H193.805ZM226.295 9.27273C226.295 11.1932 225.926 12.821 225.188 14.1562C224.449 15.4915 223.449 16.5057 222.188 17.1989C220.932 17.892 219.523 18.2386 217.96 18.2386C216.392 18.2386 214.98 17.8892 213.724 17.1903C212.469 16.4915 211.472 15.4773 210.733 14.1477C210 12.8125 209.634 11.1875 209.634 9.27273C209.634 7.35227 210 5.72443 210.733 4.3892C211.472 3.05398 212.469 2.03977 213.724 1.34659C214.98 0.653409 216.392 0.306818 217.96 0.306818C219.523 0.306818 220.932 0.653409 222.188 1.34659C223.449 2.03977 224.449 3.05398 225.188 4.3892C225.926 5.72443 226.295 7.35227 226.295 9.27273ZM221.983 9.27273C221.983 8.13636 221.821 7.17614 221.497 6.39205C221.179 5.60795 220.719 5.0142 220.116 4.61079C219.52 4.20739 218.801 4.00568 217.96 4.00568C217.125 4.00568 216.406 4.20739 215.804 4.61079C215.202 5.0142 214.739 5.60795 214.415 6.39205C214.097 7.17614 213.938 8.13636 213.938 9.27273C213.938 10.4091 214.097 11.3693 214.415 12.1534C214.739 12.9375 215.202 13.5312 215.804 13.9347C216.406 14.3381 217.125 14.5398 217.96 14.5398C218.801 14.5398 219.52 14.3381 220.116 13.9347C220.719 13.5312 221.179 12.9375 221.497 12.1534C221.821 11.3693 221.983 10.4091 221.983 9.27273ZM233.344 3.97159V0.545454H248.097V3.97159H242.804V18H238.645V3.97159H233.344ZM250.157 18V0.545454H254.376V7.55114H261.254V0.545454H265.464V18H261.254V10.9858H254.376V18H250.157ZM268.11 18V0.545454H280.281V3.97159H272.329V7.55114H279.658V10.9858H272.329V14.5739H280.281V18H268.11ZM0.453835 50V32.5455H7.73224C9.03906 32.5455 10.1328 32.7301 11.0135 33.0994C11.8999 33.4687 12.5646 33.9858 13.0078 34.6506C13.4567 35.3153 13.6811 36.0852 13.6811 36.9602C13.6811 37.625 13.5419 38.2188 13.2635 38.7415C12.9851 39.2585 12.6016 39.6875 12.1129 40.0284C11.6243 40.3693 11.0589 40.608 10.4169 40.7443V40.9148C11.1214 40.9489 11.772 41.1392 12.3686 41.4858C12.9709 41.8324 13.4538 42.3153 13.8175 42.9347C14.1811 43.5483 14.3629 44.2756 14.3629 45.1165C14.3629 46.054 14.1243 46.892 13.647 47.6307C13.1697 48.3636 12.4794 48.9432 11.576 49.3693C10.6726 49.7898 9.57599 50 8.28622 50H0.453835ZM4.67259 46.5994H7.28054C8.19531 46.5994 8.86861 46.4261 9.30043 46.0795C9.73793 45.733 9.95668 45.25 9.95668 44.6307C9.95668 44.1818 9.85156 43.7955 9.64134 43.4716C9.43111 43.142 9.13281 42.8892 8.74645 42.7131C8.36009 42.5312 7.89702 42.4403 7.35724 42.4403H4.67259V46.5994ZM4.67259 39.7216H7.00781C7.46804 39.7216 7.87713 39.6449 8.23509 39.4915C8.59304 39.3381 8.87145 39.1165 9.07031 38.8267C9.27486 38.5369 9.37713 38.1875 9.37713 37.7784C9.37713 37.1932 9.16974 36.733 8.75497 36.3977C8.3402 36.0625 7.78054 35.8949 7.07599 35.8949H4.67259V39.7216ZM16.3913 50V32.5455H28.5618V35.9716H20.6101V39.5511H27.9396V42.9858H20.6101V46.5739H28.5618V50H16.3913ZM31.2038 50V32.5455H35.4226V46.5739H42.6839V50H31.2038ZM55.6428 38.2472C55.5462 37.8892 55.4041 37.5739 55.2166 37.3011C55.0291 37.0227 54.799 36.7869 54.5263 36.5938C54.2536 36.4006 53.9411 36.2557 53.5888 36.1591C53.2365 36.0568 52.8501 36.0057 52.4297 36.0057C51.5831 36.0057 50.8501 36.2102 50.2308 36.6193C49.6172 37.0284 49.1428 37.625 48.8075 38.4091C48.4723 39.1875 48.3047 40.1335 48.3047 41.2472C48.3047 42.3665 48.4666 43.321 48.7905 44.1108C49.1143 44.9006 49.5831 45.5028 50.1967 45.9176C50.8104 46.3324 51.5547 46.5398 52.4297 46.5398C53.2024 46.5398 53.8558 46.4148 54.3899 46.1648C54.9297 45.9091 55.3388 45.5483 55.6172 45.0824C55.8956 44.6165 56.0348 44.0682 56.0348 43.4375L56.8189 43.5312H52.5746V40.4545H60.1001V42.7642C60.1001 44.3267 59.7678 45.6648 59.103 46.7784C58.4439 47.892 57.5348 48.7472 56.3757 49.3438C55.2223 49.9403 53.8956 50.2386 52.3956 50.2386C50.7308 50.2386 49.2678 49.8778 48.0064 49.1562C46.745 48.4347 45.7621 47.4062 45.0575 46.071C44.353 44.7301 44.0007 43.1392 44.0007 41.2983C44.0007 39.8665 44.2138 38.5966 44.6399 37.4886C45.0661 36.375 45.6598 35.4318 46.4212 34.6591C47.1882 33.8864 48.0746 33.3011 49.0803 32.9034C50.0916 32.5057 51.1797 32.3068 52.3445 32.3068C53.3558 32.3068 54.2962 32.4517 55.1655 32.7415C56.0405 33.0312 56.8132 33.4403 57.4837 33.9688C58.1598 34.4972 58.7081 35.125 59.1286 35.8523C59.549 36.5795 59.8104 37.3778 59.9126 38.2472H55.6428ZM66.8054 32.5455V50H62.5866V32.5455H66.8054ZM73.2294 50H68.6953L74.5845 32.5455H80.201L86.0902 50H81.5561L77.4567 36.9432H77.3203L73.2294 50ZM72.6243 43.1307H82.1016V46.3352H72.6243V43.1307ZM102.825 32.5455V50H99.245L92.299 39.9261H92.1882V50H87.9695V32.5455H91.6001L98.4695 42.6023H98.6143V32.5455H102.825ZM215.61 50V32.5455H227.781V35.9716H219.829V39.5511H227.158V42.9858H219.829V46.5739H227.781V50H215.61ZM230.423 32.5455H235.647L240.079 43.3523H240.283L244.715 32.5455H249.94V50H245.832V39.2784H245.687L241.494 49.8892H238.869L234.675 39.2188H234.531V50H230.423V32.5455ZM252.571 50V32.5455H259.849C261.156 32.5455 262.25 32.7301 263.131 33.0994C264.017 33.4687 264.682 33.9858 265.125 34.6506C265.574 35.3153 265.798 36.0852 265.798 36.9602C265.798 37.625 265.659 38.2188 265.381 38.7415C265.102 39.2585 264.719 39.6875 264.23 40.0284C263.741 40.3693 263.176 40.608 262.534 40.7443V40.9148C263.239 40.9489 263.889 41.1392 264.486 41.4858C265.088 41.8324 265.571 42.3153 265.935 42.9347C266.298 43.5483 266.48 44.2756 266.48 45.1165C266.48 46.054 266.241 46.892 265.764 47.6307C265.287 48.3636 264.597 48.9432 263.693 49.3693C262.79 49.7898 261.693 50 260.403 50H252.571ZM256.79 46.5994H259.398C260.313 46.5994 260.986 46.4261 261.418 46.0795C261.855 45.733 262.074 45.25 262.074 44.6307C262.074 44.1818 261.969 43.7955 261.759 43.4716C261.548 43.142 261.25 42.8892 260.864 42.7131C260.477 42.5312 260.014 42.4403 259.474 42.4403H256.79V46.5994ZM256.79 39.7216H259.125C259.585 39.7216 259.994 39.6449 260.352 39.4915C260.71 39.3381 260.989 39.1165 261.188 38.8267C261.392 38.5369 261.494 38.1875 261.494 37.7784C261.494 37.1932 261.287 36.733 260.872 36.3977C260.457 36.0625 259.898 35.8949 259.193 35.8949H256.79V39.7216ZM272.284 50H267.75L273.639 32.5455H279.256L285.145 50H280.611L276.511 36.9432H276.375L272.284 50ZM271.679 43.1307H281.156V46.3352H271.679V43.1307ZM295.92 37.7784C295.863 37.1534 295.61 36.6676 295.161 36.321C294.718 35.9688 294.085 35.7926 293.261 35.7926C292.715 35.7926 292.261 35.8636 291.897 36.0057C291.533 36.1477 291.261 36.3438 291.079 36.5938C290.897 36.8381 290.803 37.1193 290.798 37.4375C290.786 37.6989 290.837 37.929 290.951 38.1278C291.07 38.3267 291.241 38.5028 291.462 38.6562C291.69 38.804 291.962 38.9347 292.281 39.0483C292.599 39.1619 292.957 39.2614 293.354 39.3466L294.854 39.6875C295.718 39.875 296.479 40.125 297.138 40.4375C297.803 40.75 298.36 41.1222 298.809 41.554C299.263 41.9858 299.607 42.483 299.84 43.0455C300.073 43.608 300.192 44.2386 300.198 44.9375C300.192 46.0398 299.914 46.9858 299.363 47.7756C298.812 48.5653 298.019 49.1705 296.985 49.5909C295.957 50.0114 294.715 50.2216 293.261 50.2216C291.8 50.2216 290.528 50.0028 289.442 49.5653C288.357 49.1278 287.513 48.4631 286.911 47.571C286.309 46.679 285.999 45.5511 285.982 44.1875H290.022C290.056 44.75 290.207 45.2188 290.474 45.5938C290.741 45.9688 291.107 46.2528 291.573 46.446C292.045 46.6392 292.59 46.7358 293.21 46.7358C293.778 46.7358 294.261 46.6591 294.658 46.5057C295.062 46.3523 295.371 46.1392 295.587 45.8665C295.803 45.5937 295.914 45.2812 295.92 44.929C295.914 44.5994 295.812 44.3182 295.613 44.0852C295.414 43.8466 295.107 43.642 294.692 43.4716C294.283 43.2955 293.761 43.1335 293.124 42.9858L291.3 42.5597C289.789 42.2131 288.599 41.6534 287.729 40.8807C286.86 40.1023 286.428 39.0511 286.434 37.7273C286.428 36.6477 286.718 35.7017 287.303 34.8892C287.888 34.0767 288.698 33.4432 289.732 32.9886C290.766 32.5341 291.945 32.3068 293.269 32.3068C294.621 32.3068 295.795 32.5369 296.789 32.9972C297.789 33.4517 298.565 34.0909 299.116 34.9148C299.667 35.7386 299.948 36.6932 299.96 37.7784H295.92ZM311.763 37.7784C311.707 37.1534 311.454 36.6676 311.005 36.321C310.562 35.9688 309.928 35.7926 309.104 35.7926C308.559 35.7926 308.104 35.8636 307.741 36.0057C307.377 36.1477 307.104 36.3438 306.923 36.5938C306.741 36.8381 306.647 37.1193 306.641 37.4375C306.63 37.6989 306.681 37.929 306.795 38.1278C306.914 38.3267 307.085 38.5028 307.306 38.6562C307.533 38.804 307.806 38.9347 308.124 39.0483C308.442 39.1619 308.8 39.2614 309.198 39.3466L310.698 39.6875C311.562 39.875 312.323 40.125 312.982 40.4375C313.647 40.75 314.204 41.1222 314.653 41.554C315.107 41.9858 315.451 42.483 315.684 43.0455C315.917 43.608 316.036 44.2386 316.042 44.9375C316.036 46.0398 315.758 46.9858 315.207 47.7756C314.656 48.5653 313.863 49.1705 312.829 49.5909C311.8 50.0114 310.559 50.2216 309.104 50.2216C307.644 50.2216 306.371 50.0028 305.286 49.5653C304.201 49.1278 303.357 48.4631 302.755 47.571C302.153 46.679 301.843 45.5511 301.826 44.1875H305.866C305.9 44.75 306.05 45.2188 306.317 45.5938C306.585 45.9688 306.951 46.2528 307.417 46.446C307.888 46.6392 308.434 46.7358 309.053 46.7358C309.621 46.7358 310.104 46.6591 310.502 46.5057C310.906 46.3523 311.215 46.1392 311.431 45.8665C311.647 45.5937 311.758 45.2812 311.763 44.929C311.758 44.5994 311.656 44.3182 311.457 44.0852C311.258 43.8466 310.951 43.642 310.536 43.4716C310.127 43.2955 309.604 43.1335 308.968 42.9858L307.144 42.5597C305.633 42.2131 304.442 41.6534 303.573 40.8807C302.704 40.1023 302.272 39.0511 302.278 37.7273C302.272 36.6477 302.562 35.7017 303.147 34.8892C303.732 34.0767 304.542 33.4432 305.576 32.9886C306.61 32.5341 307.789 32.3068 309.113 32.3068C310.465 32.3068 311.638 32.5369 312.633 32.9972C313.633 33.4517 314.408 34.0909 314.96 34.9148C315.511 35.7386 315.792 36.6932 315.803 37.7784H311.763ZM317.303 32.5455H322.016L325.707 39.8494H325.86L329.55 32.5455H334.263L327.88 44.1705V50H323.687V44.1705L317.303 32.5455ZM340.933 32.5455L340.54 44.6562H337.038L336.646 32.5455H340.933ZM338.785 50.2472C338.177 50.2472 337.654 50.0312 337.217 49.5994C336.785 49.1676 336.569 48.6449 336.569 48.0312C336.569 47.429 336.785 46.9148 337.217 46.4886C337.654 46.0568 338.177 45.8409 338.785 45.8409C339.37 45.8409 339.884 46.0568 340.327 46.4886C340.776 46.9148 341.001 47.429 341.001 48.0312C341.001 48.4403 340.896 48.8125 340.685 49.1477C340.481 49.483 340.211 49.75 339.876 49.9489C339.546 50.1477 339.183 50.2472 338.785 50.2472Z" fill="#5E5E5E"/>
<path d="M114.358 33.4318V30.3636H115.756V33.4318H114.358ZM117.494 33.4318V30.3636H118.892V33.4318H117.494ZM114.358 52.1818V49.1136H115.756V52.1818H114.358ZM117.494 52.1818V49.1136H118.892V52.1818H117.494ZM110.634 50V32.5455H117.912C119.219 32.5455 120.313 32.7301 121.193 33.0994C122.08 33.4687 122.744 33.9858 123.188 34.6506C123.636 35.3153 123.861 36.0852 123.861 36.9602C123.861 37.625 123.722 38.2188 123.443 38.7415C123.165 39.2585 122.781 39.6875 122.293 40.0284C121.804 40.3693 121.239 40.608 120.597 40.7443V40.9148C121.301 40.9489 121.952 41.1392 122.548 41.4858C123.151 41.8324 123.634 42.3153 123.997 42.9347C124.361 43.5483 124.543 44.2756 124.543 45.1165C124.543 46.054 124.304 46.892 123.827 47.6307C123.349 48.3636 122.659 48.9432 121.756 49.3693C120.852 49.7898 119.756 50 118.466 50H110.634ZM114.852 46.5994H117.46C118.375 46.5994 119.048 46.4261 119.48 46.0795C119.918 45.733 120.136 45.25 120.136 44.6307C120.136 44.1818 120.031 43.7955 119.821 43.4716C119.611 43.142 119.313 42.8892 118.926 42.7131C118.54 42.5312 118.077 42.4403 117.537 42.4403H114.852V46.5994ZM114.852 39.7216H117.188C117.648 39.7216 118.057 39.6449 118.415 39.4915C118.773 39.3381 119.051 39.1165 119.25 38.8267C119.455 38.5369 119.557 38.1875 119.557 37.7784C119.557 37.1932 119.349 36.733 118.935 36.3977C118.52 36.0625 117.96 35.8949 117.256 35.8949H114.852V39.7216ZM130.79 32.5455V50H126.571V32.5455H130.79ZM132.867 35.9716V32.5455H147.62V35.9716H142.327V50H138.168V35.9716H132.867ZM164.727 38.8693H160.466C160.409 38.4318 160.293 38.0369 160.116 37.6847C159.94 37.3324 159.707 37.0312 159.418 36.7812C159.128 36.5312 158.784 36.3409 158.386 36.2102C157.994 36.0739 157.56 36.0057 157.082 36.0057C156.236 36.0057 155.506 36.2131 154.892 36.6278C154.284 37.0426 153.815 37.642 153.486 38.4261C153.162 39.2102 153 40.1591 153 41.2727C153 42.4318 153.165 43.4034 153.494 44.1875C153.83 44.9659 154.298 45.554 154.901 45.9517C155.509 46.3437 156.227 46.5398 157.057 46.5398C157.523 46.5398 157.946 46.4801 158.327 46.3608C158.713 46.2415 159.051 46.0682 159.341 45.8409C159.636 45.608 159.878 45.3267 160.065 44.9972C160.259 44.6619 160.392 44.2841 160.466 43.8636L164.727 43.8892C164.653 44.6619 164.429 45.4233 164.054 46.1733C163.685 46.9233 163.176 47.608 162.528 48.2273C161.881 48.8409 161.091 49.3295 160.159 49.6932C159.233 50.0568 158.17 50.2386 156.972 50.2386C155.392 50.2386 153.977 49.892 152.727 49.1989C151.483 48.5 150.5 47.483 149.778 46.1477C149.057 44.8125 148.696 43.1875 148.696 41.2727C148.696 39.3523 149.062 37.7244 149.795 36.3892C150.528 35.054 151.52 34.0398 152.77 33.3466C154.02 32.6534 155.42 32.3068 156.972 32.3068C158.028 32.3068 159.006 32.4545 159.903 32.75C160.801 33.0398 161.591 33.4659 162.273 34.0284C162.955 34.5852 163.509 35.2699 163.935 36.0824C164.361 36.8949 164.625 37.8239 164.727 38.8693ZM183.616 41.2727C183.616 43.1932 183.246 44.821 182.508 46.1562C181.769 47.4915 180.769 48.5057 179.508 49.1989C178.252 49.892 176.843 50.2386 175.281 50.2386C173.712 50.2386 172.3 49.8892 171.045 49.1903C169.789 48.4915 168.792 47.4773 168.053 46.1477C167.32 44.8125 166.954 43.1875 166.954 41.2727C166.954 39.3523 167.32 37.7244 168.053 36.3892C168.792 35.054 169.789 34.0398 171.045 33.3466C172.3 32.6534 173.712 32.3068 175.281 32.3068C176.843 32.3068 178.252 32.6534 179.508 33.3466C180.769 34.0398 181.769 35.054 182.508 36.3892C183.246 37.7244 183.616 39.3523 183.616 41.2727ZM179.303 41.2727C179.303 40.1364 179.141 39.1761 178.817 38.392C178.499 37.608 178.039 37.0142 177.437 36.6108C176.84 36.2074 176.121 36.0057 175.281 36.0057C174.445 36.0057 173.727 36.2074 173.124 36.6108C172.522 37.0142 172.059 37.608 171.735 38.392C171.417 39.1761 171.258 40.1364 171.258 41.2727C171.258 42.4091 171.417 43.3693 171.735 44.1534C172.059 44.9375 172.522 45.5312 173.124 45.9347C173.727 46.3381 174.445 46.5398 175.281 46.5398C176.121 46.5398 176.84 46.3381 177.437 45.9347C178.039 45.5312 178.499 44.9375 178.817 44.1534C179.141 43.3693 179.303 42.4091 179.303 41.2727ZM190.298 32.5455V50H186.079V32.5455H190.298ZM207.801 32.5455V50H204.222L197.276 39.9261H197.165V50H192.946V32.5455H196.577L203.446 42.6023H203.591V32.5455H207.801Z" fill="#FEAE00"/>
</svg>
