<?xml version="1.0" encoding="utf-8"?>
<!-- Generator: Adobe Illustrator 28.1.0, SVG Export Plug-In . SVG Version: 6.00 Build 0)  -->
<svg version="1.1" id="Layer_1" xmlns="http://www.w3.org/2000/svg" xmlns:xlink="http://www.w3.org/1999/xlink" x="0px" y="0px"
	 viewBox="0 0 71 16" style="enable-background:new 0 0 71 16;" xml:space="preserve">
<style type="text/css">
	.st0{fill-rule:evenodd;clip-rule:evenodd;fill:#F7931A;}
	.st1{fill:#FFFCFA;}
</style>
<path class="st0" d="M5.9,15.8c4.2,1.1,8.4-1.5,9.4-5.8c1-4.3-1.5-8.6-5.7-9.7C5.5-0.8,1.3,1.8,0.2,6.1C-0.8,10.4,1.7,14.7,5.9,15.8
	z M9.5,4.8c1.1,0.4,1.9,1,1.7,2c-0.1,0.8-0.5,1.2-1.1,1.3c0.8,0.4,1.2,1,0.8,2.1c-0.5,1.4-1.6,1.5-3,1.2l-0.4,1.5l-0.9-0.2L7,11.3
	c-0.2-0.1-0.4-0.1-0.7-0.2L6,12.5l-0.9-0.2l0.4-1.5c-0.1,0-0.2,0-0.2-0.1c-0.1,0-0.2-0.1-0.4-0.1l-1.1-0.3l0.4-1
	c0,0,0.6,0.2,0.6,0.2c0.2,0.1,0.3-0.1,0.4-0.2L5.8,7c0,0,0,0,0.1,0c0,0,0,0,0,0c0,0-0.1,0-0.1,0l0.4-1.6c0-0.2-0.1-0.4-0.4-0.5
	c0,0-0.6-0.2-0.6-0.2l0.2-0.9l1.2,0.3l0,0c0.2,0,0.4,0.1,0.5,0.1l0.4-1.4L8.3,3L8,4.4c0.2,0.1,0.5,0.1,0.7,0.2L9,3.2l0.9,0.2
	L9.5,4.8z M6.8,10.1c0.7,0.2,2.2,0.6,2.5-0.4c0.2-1-1.2-1.4-2-1.5c-0.1,0-0.2,0-0.2,0L6.6,10C6.7,10,6.7,10.1,6.8,10.1z M7.5,7.2
	c0.6,0.2,1.9,0.5,2.1-0.4c0.2-0.9-1-1.2-1.6-1.3c-0.1,0-0.1,0-0.2,0L7.3,7.2C7.4,7.2,7.4,7.2,7.5,7.2z"/>
<path class="st1" d="M22,4.5c0.6,0,1.1,0.1,1.5,0.3c0.4,0.2,0.8,0.5,1.1,0.9c0.3,0.4,0.5,0.8,0.6,1.3c0.1,0.5,0.2,1,0.2,1.6
	c0,0.9-0.2,1.7-0.5,2.5c-0.3,0.8-0.7,1.5-1.3,2c-0.5,0.6-1.2,1-1.9,1.4c-0.7,0.3-1.5,0.5-2.4,0.5c-0.1,0-0.3,0-0.6,0
	c-0.3,0-0.6,0-1-0.1c-0.4-0.1-0.7-0.1-1.1-0.2c-0.4-0.1-0.8-0.2-1.1-0.4l3.2-13.8L21.7,0l-1.1,4.9c0.2-0.1,0.5-0.2,0.7-0.3
	C21.5,4.6,21.8,4.5,22,4.5z M19.6,12.7c0.4,0,0.8-0.1,1.2-0.3c0.4-0.2,0.7-0.5,1-0.9c0.3-0.4,0.5-0.8,0.7-1.2
	c0.2-0.5,0.2-0.9,0.2-1.4c0-0.6-0.1-1.1-0.3-1.4c-0.2-0.3-0.6-0.5-1.1-0.5c-0.2,0-0.4,0-0.7,0.1c-0.3,0.1-0.5,0.2-0.8,0.4l-1.2,5.2
	c0.1,0,0.1,0,0.2,0c0.1,0,0.1,0,0.2,0c0.1,0,0.1,0,0.2,0S19.5,12.7,19.6,12.7z"/>
<path class="st1" d="M28.5,14.7h-2.7l2.3-10h2.8L28.5,14.7z M29.8,3.5c-0.4,0-0.7-0.1-1-0.4c-0.3-0.2-0.5-0.6-0.5-1.1
	c0-0.3,0.1-0.5,0.2-0.7c0.1-0.2,0.2-0.4,0.4-0.6c0.2-0.2,0.4-0.3,0.6-0.4c0.2-0.1,0.5-0.2,0.7-0.2c0.4,0,0.7,0.1,1,0.4
	c0.3,0.2,0.5,0.6,0.5,1.1c0,0.3-0.1,0.5-0.2,0.8c-0.1,0.2-0.2,0.4-0.4,0.6c-0.2,0.2-0.4,0.3-0.6,0.4C30.3,3.5,30.1,3.5,29.8,3.5z"/>
<path class="st1" d="M33.2,2.3l2.9-0.5l-0.7,2.9h3.1l-0.6,2.3h-3.1L34,10.6c-0.1,0.3-0.1,0.6-0.1,0.8c0,0.3,0,0.5,0.1,0.7
	c0.1,0.2,0.2,0.3,0.4,0.4c0.2,0.1,0.5,0.2,0.8,0.2c0.3,0,0.6,0,0.9-0.1c0.3-0.1,0.6-0.1,0.8-0.2l0.2,2.2c-0.4,0.1-0.8,0.3-1.2,0.4
	c-0.4,0.1-0.9,0.2-1.5,0.2c-0.9,0-1.5-0.1-2-0.4c-0.5-0.3-0.8-0.6-1-1.1c-0.2-0.4-0.3-1-0.3-1.5c0-0.6,0.1-1.2,0.3-1.8L33.2,2.3z"/>
<path class="st1" d="M38.3,10.7c0-0.9,0.1-1.7,0.4-2.4c0.3-0.8,0.7-1.4,1.2-2c0.5-0.6,1.1-1,1.8-1.3c0.7-0.3,1.5-0.5,2.4-0.5
	c0.6,0,1.1,0.1,1.5,0.2c0.4,0.1,0.8,0.2,1.2,0.4l-0.9,2.2c-0.2-0.1-0.5-0.2-0.8-0.3c-0.3-0.1-0.6-0.1-1-0.1c-0.9,0-1.6,0.3-2.2,1
	c-0.5,0.6-0.8,1.5-0.8,2.6c0,0.6,0.1,1.2,0.4,1.6c0.3,0.4,0.8,0.6,1.5,0.6c0.4,0,0.7,0,1-0.1c0.3-0.1,0.6-0.2,0.9-0.3l0.2,2.3
	c-0.3,0.1-0.7,0.3-1.1,0.4c-0.4,0.1-0.9,0.2-1.5,0.2c-0.8,0-1.4-0.1-1.9-0.3c-0.5-0.2-1-0.5-1.3-0.9c-0.3-0.4-0.6-0.8-0.7-1.4
	C38.4,11.9,38.3,11.3,38.3,10.7z"/>
<path class="st1" d="M50.5,15c-0.7,0-1.2-0.1-1.7-0.3c-0.5-0.2-0.9-0.5-1.2-0.9c-0.3-0.4-0.6-0.8-0.7-1.3c-0.2-0.5-0.2-1.1-0.2-1.7
	c0-0.8,0.1-1.5,0.4-2.3c0.2-0.8,0.6-1.4,1.1-2c0.5-0.6,1-1.1,1.7-1.5c0.7-0.4,1.5-0.6,2.3-0.6c0.6,0,1.2,0.1,1.7,0.3
	C54.3,5,54.7,5.3,55,5.6c0.3,0.4,0.6,0.8,0.7,1.3c0.2,0.5,0.2,1.1,0.2,1.7c0,0.8-0.1,1.5-0.4,2.3c-0.2,0.8-0.6,1.4-1,2.1
	c-0.5,0.6-1,1.1-1.7,1.5C52.2,14.8,51.4,15,50.5,15z M51.8,6.9c-0.4,0-0.8,0.1-1.1,0.4c-0.3,0.2-0.6,0.5-0.8,0.9
	c-0.2,0.4-0.4,0.8-0.5,1.2c-0.1,0.4-0.2,0.9-0.2,1.2c0,0.6,0.1,1.1,0.3,1.5c0.2,0.4,0.6,0.5,1.1,0.5c0.4,0,0.8-0.1,1.1-0.4
	c0.3-0.2,0.6-0.5,0.8-0.9c0.2-0.4,0.4-0.8,0.5-1.2c0.1-0.4,0.2-0.9,0.2-1.2c0-0.6-0.1-1.1-0.3-1.5C52.7,7.1,52.4,6.9,51.8,6.9z"/>
<path class="st1" d="M58.9,14.7h-2.7l2.3-10h2.8L58.9,14.7z M60.3,3.5c-0.4,0-0.7-0.1-1-0.4c-0.3-0.2-0.5-0.6-0.5-1.1
	c0-0.3,0.1-0.5,0.2-0.7c0.1-0.2,0.2-0.4,0.4-0.6c0.2-0.2,0.4-0.3,0.6-0.4c0.2-0.1,0.5-0.2,0.7-0.2c0.4,0,0.7,0.1,1,0.4
	c0.3,0.2,0.5,0.6,0.5,1.1c0,0.3-0.1,0.5-0.2,0.8c-0.1,0.2-0.2,0.4-0.4,0.6c-0.2,0.2-0.4,0.3-0.6,0.4C60.8,3.5,60.5,3.5,60.3,3.5z"/>
<path class="st1" d="M63.2,5.2c0.2-0.1,0.4-0.1,0.7-0.2c0.3-0.1,0.5-0.2,0.9-0.2c0.3-0.1,0.7-0.1,1.1-0.2c0.4,0,0.8-0.1,1.3-0.1
	c1.4,0,2.4,0.4,3,1.3c0.5,0.9,0.6,2,0.3,3.5l-1.3,5.4h-2.8l1.2-5.3c0.1-0.3,0.1-0.6,0.2-1c0-0.3,0-0.6,0-0.8c0-0.2-0.2-0.4-0.3-0.6
	C67.3,7,67,6.9,66.6,6.9c-0.4,0-0.7,0-1.1,0.1l-1.8,7.7H61L63.2,5.2z"/>
</svg>
