<svg viewBox="0 0 18 18" fill="none" xmlns="http://www.w3.org/2000/svg">
<path d="M17.7306 11.1772C16.5284 15.9986 11.6446 18.9329 6.82201 17.7306C2.00144 16.5285 -0.933157 11.6449 0.269595 6.82378C1.47122 2.0018 6.35509 -0.932729 11.1762 0.269321C15.9985 1.47137 18.9328 6.35551 17.7306 11.1772Z" fill="#F7931A"/>
<path d="M13.2765 7.76539C13.4638 6.44143 12.5107 5.7297 11.2075 5.2549L11.6302 3.46143L10.598 3.18936L10.1865 4.93557C9.91513 4.86406 9.63643 4.79659 9.3595 4.72974L9.77401 2.97202L8.74242 2.69995L8.31938 4.4928C8.09478 4.43869 7.87429 4.38522 7.66027 4.32894L7.66145 4.32334L6.23799 3.94742L5.96341 5.11342C5.96341 5.11342 6.72923 5.29905 6.71306 5.31056C7.13111 5.42094 7.20666 5.71352 7.19402 5.94548L6.71247 7.98864C6.74128 7.99641 6.77862 8.0076 6.81978 8.02502C6.78539 8.016 6.74864 8.00605 6.71071 7.99641L6.03572 10.8586C5.98457 10.9929 5.85493 11.1944 5.56271 11.1179C5.573 11.1337 4.81246 10.9198 4.81246 10.9198L4.30005 12.1695L5.64326 12.5236C5.89314 12.5898 6.13803 12.6592 6.37909 12.7245L5.95195 14.5385L6.98294 14.8105L7.40598 13.0158C7.68762 13.0967 7.96102 13.1713 8.22855 13.2416L7.80698 15.0279L8.83915 15.3L9.26631 13.4894C11.0264 13.8417 12.3499 13.6996 12.907 12.0159C13.3559 10.6602 12.8846 9.87819 11.9586 9.36826C12.633 9.20377 13.141 8.73457 13.2765 7.76539ZM10.9182 11.2631C10.5992 12.6188 8.44109 11.8859 7.74141 11.7021L8.30821 9.29891C9.00789 9.48361 11.2516 9.84927 10.9182 11.2631ZM11.2375 7.74579C10.9464 8.97896 9.15018 8.35243 8.5675 8.19883L9.08139 6.01918C9.66407 6.17278 11.5406 6.45946 11.2375 7.74579Z" fill="#FCFCFD"/>
</svg>
