<svg viewBox="0 0 71 16" fill="none" xmlns="http://www.w3.org/2000/svg">
<path fill-rule="evenodd" clip-rule="evenodd" d="M5.90844 15.7605C10.0852 16.8292 14.315 14.221 15.3562 9.9353C16.3974 5.64934 13.856 1.30789 9.67955 0.239397C5.50404 -0.829093 1.2742 1.77938 0.233492 6.06559C-0.808193 10.351 1.73341 14.692 5.90844 15.7605ZM9.5175 4.84175C10.5974 5.2235 11.3872 5.79574 11.232 6.86023C11.1197 7.63947 10.6988 8.01672 10.1399 8.14897C10.9073 8.55896 11.2978 9.1877 10.9258 10.2777C10.4642 11.6314 9.36744 11.7457 7.90893 11.4624L7.55497 12.9182L6.69965 12.6994L7.04898 11.2632C6.8273 11.2067 6.60074 11.1467 6.36736 11.0817L6.0168 12.5247L5.16246 12.3059L5.51642 10.8474C5.43658 10.8265 5.35624 10.8049 5.27533 10.7833C5.15379 10.7508 5.03097 10.7179 4.90666 10.6859L3.7936 10.4012L4.21821 9.39645C4.21821 9.39645 4.84844 9.56845 4.83991 9.5557C5.08206 9.6172 5.18949 9.4552 5.23188 9.3472L5.79122 7.04597C5.8122 7.05115 5.83275 7.05643 5.85257 7.06153C5.86244 7.06407 5.87212 7.06657 5.8816 7.06898C5.84749 7.05498 5.81655 7.04598 5.79267 7.03973L6.19171 5.39699C6.20219 5.21049 6.13958 4.97525 5.79317 4.8865C5.80656 4.87725 5.17196 4.728 5.17196 4.728L5.39949 3.79051L6.57905 4.09276L6.57808 4.09726C6.75543 4.14251 6.93814 4.1855 7.12426 4.229L7.47481 2.78752L8.32965 3.00627L7.98616 4.41951C8.21564 4.47326 8.44659 4.5275 8.67144 4.585L9.0125 3.18102L9.86781 3.39976L9.5175 4.84175ZM6.81207 10.0699C7.50998 10.259 9.03529 10.6725 9.27779 9.67245C9.52628 8.64997 8.04697 8.30932 7.32514 8.14311C7.24448 8.12453 7.17328 8.10814 7.115 8.09321L6.64532 10.0254C6.69318 10.0376 6.74927 10.0528 6.81207 10.0699ZM7.47017 7.24642C8.05205 7.40578 9.32127 7.75337 9.54235 6.84448C9.76812 5.91481 8.53454 5.63457 7.93208 5.49771C7.86431 5.48232 7.80453 5.46873 7.7557 5.45625L7.32987 7.20872C7.37009 7.21901 7.41729 7.23194 7.47017 7.24642Z" fill="#F7931A"/>
<path d="M22.046 4.53693C22.6389 4.53693 23.1511 4.64594 23.5815 4.85999C24.014 5.07614 24.3708 5.36732 24.657 5.73352C24.9394 6.1016 25.1496 6.5318 25.2853 7.02483C25.4201 7.51927 25.4877 8.05075 25.4877 8.61974C25.4877 9.49374 25.3317 10.3195 25.0166 11.0978C24.7016 11.8773 24.2742 12.5534 23.7304 13.1302C23.1872 13.7062 22.5457 14.1603 21.8059 14.4958C21.0674 14.8315 20.2643 14.9994 19.4021 14.9994C19.2907 14.9994 19.0946 14.9961 18.8178 14.9902C18.5409 14.9844 18.2226 14.9551 17.8663 14.9056C17.5076 14.8543 17.1283 14.7783 16.7279 14.6766C16.3276 14.5767 15.9475 14.4367 15.5895 14.259L18.7906 0.455992L21.6577 0L20.5115 4.89821C20.7569 4.78474 21.0041 4.69682 21.2508 4.63281C21.4978 4.56975 21.7628 4.53693 22.046 4.53693ZM19.6411 12.6653C20.0729 12.6653 20.4798 12.5563 20.862 12.3422C21.2453 12.1279 21.5761 11.8386 21.8532 11.4783C22.1303 11.1163 22.3497 10.7086 22.5096 10.2531C22.6695 9.79758 22.7504 9.32237 22.7504 8.82793C22.7504 8.22049 22.6514 7.74668 22.4543 7.40416C22.2571 7.06305 21.8923 6.89143 21.3625 6.89143C21.1889 6.89143 20.9652 6.92542 20.6879 6.98614C20.4096 7.05061 20.1606 7.18449 19.9374 7.38587L18.717 12.5877C18.7906 12.601 18.8557 12.6137 18.9112 12.6257C18.9656 12.6386 19.0257 12.6477 19.0855 12.654C19.1488 12.6613 19.2212 12.665 19.3087 12.665C19.3962 12.665 19.5056 12.6653 19.6411 12.6653Z" fill="#402F28"/>
<path d="M28.461 14.7352H25.7225L28.0352 4.74866H30.7924L28.461 14.7352ZM29.7936 3.5319C29.4114 3.5319 29.0648 3.41515 28.7573 3.18118C28.4473 2.94861 28.2938 2.59062 28.2938 2.10814C28.2938 1.84275 28.3463 1.59377 28.4505 1.35886C28.5563 1.12441 28.6945 0.922561 28.8677 0.75095C29.0406 0.580744 29.241 0.444765 29.4685 0.342314C29.6974 0.241504 29.9409 0.191101 30.2005 0.191101C30.5824 0.191101 30.9272 0.307854 31.2358 0.541827C31.5433 0.776973 31.698 1.13497 31.698 1.61487C31.698 1.8812 31.6457 2.13111 31.5406 2.36555C31.4362 2.59999 31.298 2.80185 31.1248 2.97346C30.9532 3.1439 30.751 3.27941 30.524 3.38092C30.2948 3.48337 30.0522 3.5319 29.7936 3.5319Z" fill="#402F28"/>
<path d="M33.1924 2.26056L36.0606 1.80457L35.3563 4.74822H38.4281L37.8734 7.06404H34.8201L34.0068 10.5572C33.9319 10.8484 33.8894 11.1204 33.8775 11.3731C33.864 11.627 33.8953 11.845 33.9693 12.0286C34.0429 12.2126 34.1752 12.3545 34.3671 12.4548C34.5581 12.5568 34.8315 12.6081 35.1902 12.6081C35.4856 12.6081 35.7734 12.5793 36.0517 12.5221C36.3283 12.4658 36.6087 12.3875 36.8924 12.2851L37.0966 14.4504C36.7265 14.5896 36.3258 14.7094 35.8941 14.8103C35.4616 14.9125 34.9496 14.9617 34.3579 14.9617C33.5072 14.9617 32.8476 14.8321 32.3777 14.5739C31.9084 14.3139 31.5767 13.9588 31.3782 13.5091C31.1824 13.0611 31.0949 12.5446 31.1194 11.9627C31.1447 11.3794 31.2304 10.7664 31.3782 10.1207L33.1924 2.26056Z" fill="#402F28"/>
<path d="M38.3074 10.7472C38.3074 9.88702 38.4431 9.07586 38.7143 8.3165C38.985 7.55644 39.3749 6.89179 39.881 6.32139C40.3852 5.75381 40.9995 5.30414 41.7225 4.97405C42.4422 4.64583 43.2479 4.48032 44.1359 4.48032C44.6918 4.48032 45.1882 4.53424 45.625 4.64232C46.0636 4.75133 46.4604 4.89224 46.8193 5.069L45.8749 7.27276C45.6282 7.17008 45.3721 7.07958 45.1073 6.99752C44.8423 6.91383 44.5188 6.87351 44.1362 6.87351C43.2221 6.87351 42.4995 7.1968 41.9617 7.84128C41.426 8.48623 41.1562 9.35437 41.1562 10.4434C41.1562 11.0888 41.2919 11.6106 41.5642 12.0099C41.8352 12.4092 42.3357 12.6077 43.0624 12.6077C43.4211 12.6077 43.7672 12.5693 44.0987 12.4943C44.4327 12.4183 44.7276 12.3226 44.9874 12.2096L45.1918 14.4687C44.8455 14.6066 44.4635 14.7311 44.0445 14.8401C43.6246 14.9454 43.1248 15 42.5452 15C41.7801 15 41.1324 14.8851 40.6027 14.6589C40.0726 14.4291 39.6347 14.1241 39.2897 13.7377C38.9429 13.3504 38.6939 12.8982 38.5399 12.3792C38.386 11.8606 38.3074 11.3157 38.3074 10.7472Z" fill="#402F28"/>
<path d="M50.4724 15C49.8188 15 49.2511 14.8978 48.7695 14.6954C48.2893 14.4931 47.8916 14.2092 47.577 13.8411C47.262 13.4749 47.0262 13.041 46.8647 12.5409C46.7032 12.0411 46.6255 11.4876 46.6255 10.8811C46.6255 10.1203 46.7445 9.35977 46.9851 8.60134C47.2245 7.84128 47.5797 7.15835 48.0499 6.55138C48.5164 5.94347 49.0919 5.44645 49.7695 5.05892C50.4464 4.67396 51.225 4.48032 52.0995 4.48032C52.7412 4.48032 53.3059 4.58276 53.7941 4.78509C54.2801 4.98694 54.6803 5.2732 54.9967 5.6394C55.3097 6.00747 55.5475 6.43955 55.7074 6.94032C55.8685 7.43922 55.948 7.99414 55.948 8.60111C55.948 9.35953 55.8306 10.1201 55.5976 10.8808C55.3643 11.6378 55.0182 12.3224 54.5613 12.9308C54.1053 13.5378 53.5351 14.0345 52.8502 14.4204C52.1662 14.8063 51.373 15 50.4724 15ZM51.8411 6.87374C51.4351 6.87374 51.0762 6.99471 50.769 7.2336C50.4605 7.47531 50.2015 7.77916 49.9927 8.14559C49.7816 8.51366 49.6251 8.91503 49.5193 9.35133C49.4145 9.78856 49.3631 10.2019 49.3631 10.5946C49.3631 11.2283 49.4627 11.7218 49.6584 12.077C49.857 12.4303 50.2136 12.608 50.732 12.608C51.1393 12.608 51.4964 12.4879 51.8055 12.2465C52.112 12.0066 52.3713 11.7025 52.5817 11.3354C52.7915 10.9692 52.9493 10.5667 53.0551 10.1297C53.1586 9.69385 53.2114 9.27818 53.2114 8.88619C53.2114 8.25413 53.1122 7.75946 52.9146 7.40475C52.7172 7.05145 52.359 6.87374 51.8411 6.87374Z" fill="#402F28"/>
<path d="M58.932 14.7352H56.1913L58.5039 4.74866H61.2625L58.932 14.7352ZM60.2626 3.5319C59.8806 3.5319 59.5343 3.41515 59.2272 3.18118C58.9188 2.94861 58.7639 2.59062 58.7639 2.10814C58.7639 1.84275 58.8171 1.59377 58.9215 1.35886C59.0259 1.12441 59.1651 0.922561 59.3382 0.75095C59.5103 0.580744 59.7124 0.444765 59.9395 0.342314C60.1671 0.241504 60.4106 0.191101 60.6692 0.191101C61.0521 0.191101 61.398 0.307854 61.7059 0.541827C62.0141 0.776973 62.1697 1.13497 62.1697 1.61487C62.1697 1.8812 62.1144 2.13111 62.0109 2.36555C61.9074 2.59999 61.7683 2.80185 61.5958 2.97346C61.4222 3.1439 61.2225 3.27941 60.995 3.38092C60.7656 3.48337 60.5225 3.5319 60.2626 3.5319Z" fill="#402F28"/>
<path d="M63.2362 5.20268C63.4441 5.14032 63.6762 5.0653 63.9287 4.98371C64.182 4.90213 64.4651 4.82617 64.7812 4.75771C65.094 4.68715 65.447 4.62994 65.8351 4.58563C66.2232 4.54038 66.6655 4.51834 67.1569 4.51834C68.6012 4.51834 69.5968 4.94996 70.1465 5.81059C70.6957 6.67123 70.7907 7.84907 70.4343 9.342L69.1746 14.7342H66.4181L67.639 9.45547C67.7135 9.12584 67.7719 8.80723 67.8151 8.49589C67.8587 8.18736 67.8562 7.91542 67.8053 7.68004C67.7566 7.44747 67.6419 7.2571 67.464 7.10963C67.2833 6.96451 67.0103 6.8916 66.6399 6.8916C66.2829 6.8916 65.9196 6.93099 65.5488 7.00695L63.7539 14.7339H60.9962L63.2362 5.20268Z" fill="#402F28"/>
</svg>
