<svg viewBox="0 0 13 13" fill="none" xmlns="http://www.w3.org/2000/svg">
<path fill-rule="evenodd" clip-rule="evenodd" d="M5.04801 12.3205C8.26304 13.122 11.5189 11.1659 12.3204 7.9516C13.1219 4.73713 11.1657 1.48104 7.95082 0.67967C4.73673 -0.121697 1.48082 1.83466 0.67973 5.04931C-0.122105 8.2634 1.83429 11.5191 5.04801 12.3205ZM7.97161 4.00339C8.84043 4.31992 9.47582 4.79441 9.35098 5.67705C9.26063 6.32317 8.92196 6.63597 8.47236 6.74563C9.08972 7.08558 9.4039 7.60691 9.10462 8.51069C8.73322 9.63317 7.85088 9.7279 6.6775 9.49304L6.39272 10.7001L5.70461 10.5187L5.98566 9.32783C5.80731 9.28099 5.62504 9.23123 5.43728 9.17734L5.15525 10.3738L4.46792 10.1924L4.75269 8.98311C4.68846 8.96571 4.62383 8.94788 4.55874 8.92993C4.46096 8.90296 4.36215 8.8757 4.26213 8.8492L3.36666 8.6131L3.70827 7.78C3.70827 7.78 4.21529 7.92261 4.20843 7.91204C4.40325 7.96303 4.48967 7.82871 4.52377 7.73916L4.97377 5.83106C4.99062 5.83534 5.00713 5.83972 5.02306 5.84395C5.03102 5.84606 5.03884 5.84813 5.04648 5.85013C5.01904 5.83852 4.99415 5.83106 4.97494 5.82588L5.29597 4.46378C5.3044 4.30914 5.25403 4.11408 4.97534 4.04049C4.98611 4.03282 4.47557 3.90907 4.47557 3.90907L4.65862 3.13173L5.60759 3.38235L5.60681 3.38608C5.74949 3.4236 5.89648 3.45925 6.04622 3.49532L6.32824 2.30009L7.01597 2.48147L6.73962 3.65328C6.92424 3.69785 7.11004 3.74283 7.29094 3.7905L7.56533 2.62636L8.25344 2.80774L7.97161 4.00339ZM5.79505 8.33837C6.35653 8.49522 7.58366 8.83803 7.77876 8.00885C7.97867 7.16104 6.78855 6.87859 6.20783 6.74077C6.14293 6.72537 6.08565 6.71177 6.03877 6.6994L5.6609 8.30154C5.69941 8.31165 5.74454 8.32426 5.79505 8.33837ZM6.32451 5.99726C6.79263 6.1294 7.81373 6.41761 7.9916 5.66398C8.17323 4.89314 7.1808 4.66077 6.69612 4.54729C6.6416 4.53453 6.5935 4.52326 6.55422 4.51291L6.21163 5.96601C6.24399 5.97454 6.28196 5.98526 6.32451 5.99726Z" fill="#FFFCFA"/>
</svg>
