<svg viewBox="0 0 311 127" fill="none" xmlns="http://www.w3.org/2000/svg">
<rect x="22.5669" y="22.5669" width="81.4524" height="81.4524" rx="13.4509" fill="#FFF9F6"/>
<path d="M57.6941 33.0034C60.2784 32.7262 62.5737 34.2423 63.2901 36.7113C63.4164 37.1465 63.4799 37.6124 63.4942 38.067C63.5252 39.0399 63.5053 40.0144 63.5053 40.9882C63.5053 41.0777 63.4288 41.1487 63.3393 41.152C62.6277 41.1781 61.932 41.1474 61.2521 40.9229C59.1205 40.2208 57.7044 38.2677 57.6822 35.9826C57.6726 35.0556 57.6798 34.1279 57.6806 33.2009" fill="#05A85A"/>
<path d="M70.0733 37.3418C70.0729 37.3418 70.0725 37.3422 70.0726 37.3426C70.3008 39.3663 68.8555 41.0924 66.9044 41.1504C65.8013 41.1834 64.7883 40.2399 65.2526 39.2389C65.4736 38.7626 65.8135 38.3407 66.2873 37.9786C66.821 37.5707 67.4293 37.3555 68.0981 37.3442C68.7525 37.3338 69.4077 37.3418 70.0733 37.3418Z" fill="#05A85A"/>
<path fill-rule="evenodd" clip-rule="evenodd" d="M86.4409 58.5054C86.4409 70.012 76.3431 80.9204 63.8868 80.9204C59.3689 80.9204 55.1612 79.4854 51.6331 77.1072V88.5569C51.6331 91.4013 49.3273 93.7071 46.4829 93.7071C43.6386 93.7071 41.3328 91.4013 41.3328 88.5569V58.8992H41.3367C41.3341 58.768 41.3328 58.6368 41.3328 58.5054C41.3328 48.55 48.8915 41.8389 58.9966 42.6229C62.2383 42.8745 65.5353 42.8745 68.777 42.6229C78.8822 41.8389 86.4409 48.55 86.4409 58.5054ZM51.6331 60.3805V60.2922C51.6565 54.7161 56.113 51.0538 61.9175 51.923C63.1029 52.1005 64.3155 52.1005 65.5009 51.923C71.3207 51.0515 75.7854 54.7354 75.7854 60.3364C75.7854 66.4999 70.3787 72.3431 63.7092 72.3431C57.0556 72.3431 51.6588 66.5278 51.6331 60.3805Z" fill="url(#paint0_diamond_1506_12250)"/>
<g filter="url(#filter0_d_1506_12250)">
<path d="M134.491 47.0153C136.296 47.0153 137.671 46.6071 138.616 45.7907C139.604 44.9314 140.099 43.6423 140.099 41.9236C140.099 40.2907 139.583 39.0447 138.552 38.1853C137.563 37.2829 136.103 36.8318 134.169 36.8318C133.481 36.8318 132.901 36.8532 132.429 36.8962C131.999 36.8962 131.548 36.9392 131.075 37.0251V47.0153H134.491ZM131.14 67.7048C130.667 67.8337 129.915 67.9626 128.884 68.0915C127.895 68.2204 126.907 68.2848 125.919 68.2848C124.931 68.2848 124.05 68.1989 123.276 68.027C122.546 67.8981 121.923 67.6403 121.407 67.2536C120.892 66.8669 120.505 66.3298 120.247 65.6423C119.989 64.9548 119.86 64.0524 119.86 62.9352V32.5779C119.86 31.6755 120.097 30.988 120.569 30.5154C121.085 29.9997 121.772 29.5915 122.632 29.2908C124.093 28.7751 125.747 28.4099 127.595 28.1951C129.485 27.9373 131.376 27.8083 133.267 27.8083C139.196 27.8083 143.729 29.0759 146.866 31.6111C150.003 34.1462 151.571 37.5837 151.571 41.9236C151.571 44.029 151.227 45.9411 150.54 47.6599C149.895 49.3356 148.907 50.7966 147.575 52.0427C146.286 53.2458 144.632 54.1911 142.612 54.8786C140.636 55.5231 138.337 55.8454 135.716 55.8454H131.14V67.7048Z" fill="#FFFCFA"/>
<path d="M172.093 68.9938C169.558 68.9938 167.195 68.6501 165.004 67.9626C162.855 67.2321 160.965 66.1579 159.332 64.7399C157.742 63.322 156.474 61.5387 155.529 59.3903C154.627 57.2419 154.176 54.7282 154.176 51.8493C154.176 49.0134 154.627 46.5857 155.529 44.5661C156.474 42.5036 157.699 40.8279 159.203 39.5388C160.707 38.2068 162.426 37.24 164.359 36.6384C166.293 35.9939 168.269 35.6716 170.289 35.6716C172.566 35.6716 174.629 36.0154 176.476 36.7029C178.367 37.3904 179.978 38.3357 181.31 39.5388C182.685 40.7419 183.738 42.1814 184.468 43.8571C185.242 45.5329 185.629 47.3591 185.629 49.3356C185.629 50.7966 185.22 51.9138 184.404 52.6872C183.588 53.4606 182.449 53.9548 180.988 54.1696L165.068 56.5544C165.541 57.9724 166.508 59.0466 167.968 59.777C169.429 60.4645 171.105 60.8083 172.996 60.8083C174.758 60.8083 176.412 60.5934 177.959 60.1638C179.549 59.6911 180.838 59.154 181.826 58.5524C182.513 58.9821 183.093 59.5837 183.566 60.3571C184.039 61.1305 184.275 61.947 184.275 62.8063C184.275 64.7399 183.373 66.1794 181.568 67.1247C180.193 67.8551 178.646 68.3493 176.927 68.6071C175.209 68.8649 173.597 68.9938 172.093 68.9938ZM170.289 43.6638C169.258 43.6638 168.355 43.8357 167.582 44.1794C166.851 44.5232 166.25 44.9743 165.777 45.5329C165.304 46.0485 164.939 46.6501 164.681 47.3376C164.467 47.9821 164.338 48.6481 164.295 49.3356L175.316 47.531C175.187 46.6716 174.715 45.8122 173.898 44.9528C173.082 44.0935 171.879 43.6638 170.289 43.6638Z" fill="#FFFCFA"/>
<path d="M204.309 61.0016C205.039 61.0016 205.834 60.9372 206.694 60.8083C207.596 60.6364 208.262 60.4216 208.692 60.1638V55.0075L204.051 55.3942C202.848 55.4802 201.86 55.738 201.086 56.1677C200.313 56.5974 199.926 57.2419 199.926 58.1013C199.926 58.9606 200.248 59.6696 200.893 60.2282C201.58 60.7438 202.719 61.0016 204.309 61.0016ZM203.793 35.6716C206.114 35.6716 208.219 35.9079 210.11 36.3806C212.043 36.8532 213.676 37.5837 215.008 38.572C216.383 39.5173 217.436 40.7419 218.166 42.2458C218.897 43.7068 219.262 45.447 219.262 47.4665V61.904C219.262 63.0212 218.94 63.945 218.295 64.6755C217.694 65.363 216.963 65.9645 216.104 66.4801C213.311 68.1559 209.379 68.9938 204.309 68.9938C202.032 68.9938 199.969 68.779 198.121 68.3493C196.317 67.9196 194.748 67.2751 193.416 66.4157C192.127 65.5563 191.118 64.4606 190.387 63.1286C189.7 61.7966 189.356 60.2497 189.356 58.488C189.356 55.5231 190.237 53.2458 191.998 51.656C193.76 50.0661 196.489 49.0778 200.184 48.6911L208.627 47.7888V47.3376C208.627 46.0915 208.069 45.2107 206.951 44.695C205.877 44.1364 204.309 43.8571 202.246 43.8571C200.614 43.8571 199.024 44.029 197.477 44.3728C195.93 44.7165 194.534 45.1462 193.287 45.6618C192.729 45.2751 192.256 44.695 191.869 43.9216C191.483 43.1052 191.289 42.2673 191.289 41.4079C191.289 40.2907 191.547 39.4099 192.063 38.7654C192.621 38.0779 193.459 37.4978 194.576 37.0251C195.823 36.5525 197.284 36.2087 198.959 35.9939C200.678 35.779 202.289 35.6716 203.793 35.6716Z" fill="#FFFCFA"/>
<path d="M243.622 44.3083C242.547 44.3083 241.516 44.4802 240.528 44.8239C239.583 45.1677 238.745 45.6833 238.014 46.3708C237.327 47.0153 236.768 47.8317 236.339 48.82C235.909 49.8083 235.694 50.9685 235.694 52.3005C235.694 54.9645 236.446 56.9626 237.95 58.2946C239.497 59.6266 241.366 60.2927 243.557 60.2927C244.846 60.2927 245.963 60.1423 246.909 59.8415C247.854 59.5407 248.692 59.2184 249.422 58.8747C250.282 59.4763 250.926 60.1423 251.356 60.8727C251.786 61.5602 252.001 62.3981 252.001 63.3864C252.001 65.1481 251.163 66.5231 249.487 67.5114C247.811 68.4567 245.491 68.9294 242.526 68.9294C239.819 68.9294 237.37 68.5426 235.178 67.7692C232.987 66.9528 231.096 65.8356 229.506 64.4177C227.96 62.9567 226.757 61.2165 225.897 59.197C225.038 57.1774 224.608 54.9431 224.608 52.4938C224.608 49.6579 225.059 47.1872 225.962 45.0817C226.907 42.9333 228.174 41.1716 229.764 39.7966C231.354 38.4216 233.18 37.3904 235.243 36.7029C237.348 36.0154 239.561 35.6716 241.881 35.6716C244.975 35.6716 247.36 36.2302 249.036 37.3474C250.712 38.4646 251.549 39.904 251.549 41.6657C251.549 42.4821 251.356 43.2556 250.969 43.986C250.583 44.6735 250.131 45.2751 249.616 45.7907C248.885 45.447 248.005 45.1247 246.973 44.8239C245.942 44.4802 244.825 44.3083 243.622 44.3083Z" fill="#FFFCFA"/>
<path d="M288.433 67.8981C288.003 68.027 287.316 68.1559 286.371 68.2848C285.468 68.4137 284.523 68.4782 283.535 68.4782C282.589 68.4782 281.73 68.4137 280.957 68.2848C280.226 68.1559 279.603 67.8981 279.087 67.5114C278.572 67.1247 278.164 66.6091 277.863 65.9645C277.605 65.277 277.476 64.3962 277.476 63.322V49.0134C277.476 47.2517 277.025 46.0271 276.123 45.3396C275.263 44.6091 274.189 44.2439 272.9 44.2439C272.041 44.2439 271.224 44.3513 270.451 44.5661C269.677 44.781 269.054 45.0388 268.582 45.3396V67.8981C268.152 68.027 267.464 68.1559 266.519 68.2848C265.617 68.4137 264.671 68.4782 263.683 68.4782C262.738 68.4782 261.879 68.4137 261.105 68.2848C260.375 68.1559 259.752 67.8981 259.236 67.5114C258.72 67.1247 258.312 66.6091 258.011 65.9645C257.754 65.277 257.625 64.3962 257.625 63.322V25.9392C258.097 25.8533 258.785 25.7458 259.687 25.6169C260.632 25.4451 261.578 25.3591 262.523 25.3591C263.468 25.3591 264.306 25.4236 265.037 25.5525C265.81 25.6814 266.455 25.9392 266.97 26.3259C267.486 26.7126 267.873 27.2498 268.13 27.9372C268.431 28.5818 268.582 29.4412 268.582 30.5154V36.8318C269.14 36.6169 269.978 36.3806 271.095 36.1228C272.255 35.822 273.523 35.6716 274.898 35.6716C279.152 35.6716 282.461 36.7458 284.824 38.8943C287.23 40.9997 288.433 44.1579 288.433 48.3689V67.8981Z" fill="#FFFCFA"/>
</g>
<path fill-rule="evenodd" clip-rule="evenodd" d="M127.624 98.7295C133.112 100.134 138.67 96.7067 140.038 91.0753C141.406 85.4437 138.067 79.7391 132.579 78.3351C127.093 76.9312 121.535 80.3586 120.167 85.9906C118.798 91.6216 122.138 97.3255 127.624 98.7295ZM132.366 84.3825C133.785 84.8841 134.823 85.636 134.619 87.0348C134.471 88.0587 133.918 88.5544 133.184 88.7281C134.192 89.2669 134.705 90.093 134.217 91.5252C133.61 93.304 132.169 93.4541 130.253 93.082L129.787 94.9948L128.664 94.7073L129.123 92.8202C128.831 92.7459 128.534 92.6671 128.227 92.5817L127.766 94.4777L126.644 94.1903L127.109 92.2739C127.004 92.2463 126.898 92.218 126.792 92.1896C126.632 92.1469 126.471 92.1037 126.308 92.0617L124.845 91.6875L125.403 90.3673C125.403 90.3673 126.231 90.5933 126.22 90.5766C126.538 90.6574 126.679 90.4445 126.735 90.3026L127.47 87.2788C127.497 87.2856 127.524 87.2926 127.55 87.2993C127.563 87.3026 127.576 87.3059 127.589 87.3091C127.544 87.2907 127.503 87.2788 127.472 87.2706L127.996 85.1121C128.01 84.867 127.928 84.5579 127.472 84.4413C127.49 84.4292 126.656 84.2331 126.656 84.2331L126.955 83.0012L128.505 83.3984L128.504 83.4043C128.737 83.4637 128.977 83.5202 129.221 83.5774L129.682 81.6833L130.805 81.9707L130.354 83.8277C130.656 83.8983 130.959 83.9696 131.254 84.0452L131.703 82.2004L132.826 82.4878L132.366 84.3825ZM128.811 91.2522C129.728 91.5007 131.733 92.044 132.051 90.73C132.378 89.3864 130.434 88.9388 129.485 88.7204C129.379 88.696 129.286 88.6745 129.209 88.6549L128.592 91.1938C128.655 91.2098 128.729 91.2298 128.811 91.2522ZM129.676 87.5422C130.441 87.7516 132.108 88.2083 132.399 87.0141C132.695 85.7925 131.075 85.4243 130.283 85.2444C130.194 85.2242 130.115 85.2064 130.051 85.19L129.492 87.4927C129.545 87.5062 129.607 87.5232 129.676 87.5422Z" fill="#FFFCFA"/>
<path d="M149.878 84.3806C150.709 84.3806 151.427 84.5333 152.03 84.8332C152.636 85.1361 153.136 85.5441 153.537 86.0572C153.932 86.5729 154.227 87.1757 154.417 87.8665C154.606 88.5593 154.701 89.304 154.701 90.1013C154.701 91.3259 154.482 92.4828 154.041 93.5734C153.599 94.6657 153 95.613 152.238 96.4211C151.477 97.2282 150.578 97.8645 149.542 98.3346C148.507 98.805 147.382 99.0402 146.174 99.0402C146.017 99.0402 145.743 99.0356 145.355 99.0274C144.967 99.0191 144.521 98.9781 144.022 98.9088C143.519 98.8368 142.988 98.7304 142.427 98.5878C141.866 98.4479 141.333 98.2518 140.832 98.0028L145.317 78.6625L149.334 78.0236L147.728 84.8868C148.072 84.7278 148.418 84.6046 148.764 84.5149C149.11 84.4266 149.481 84.3806 149.878 84.3806ZM146.509 95.7697C147.114 95.7697 147.684 95.617 148.219 95.317C148.756 95.0168 149.22 94.6114 149.608 94.1066C149.996 93.5994 150.304 93.0281 150.528 92.3899C150.752 91.7516 150.865 91.0858 150.865 90.393C150.865 89.5418 150.726 88.878 150.45 88.398C150.174 87.9201 149.663 87.6796 148.92 87.6796C148.677 87.6796 148.364 87.7272 147.975 87.8123C147.585 87.9027 147.236 88.0902 146.924 88.3724L145.214 95.661C145.317 95.6797 145.408 95.6974 145.486 95.7142C145.562 95.7323 145.646 95.7451 145.73 95.7539C145.819 95.7641 145.92 95.7694 146.043 95.7694C146.165 95.7694 146.319 95.7697 146.509 95.7697Z" fill="#FFFCFA"/>
<path d="M158.867 98.67H155.03L158.27 84.6773H162.133L158.867 98.67ZM160.734 82.9724C160.198 82.9724 159.713 82.8088 159.282 82.481C158.847 82.1551 158.632 81.6535 158.632 80.9775C158.632 80.6056 158.706 80.2567 158.852 79.9276C159 79.5991 159.194 79.3163 159.436 79.0758C159.679 78.8373 159.959 78.6468 160.278 78.5033C160.599 78.362 160.94 78.2914 161.304 78.2914C161.839 78.2914 162.322 78.455 162.755 78.7828C163.185 79.1123 163.402 79.6139 163.402 80.2863C163.402 80.6595 163.329 81.0096 163.182 81.3381C163.035 81.6666 162.842 81.9495 162.599 82.1899C162.359 82.4287 162.075 82.6186 161.757 82.7608C161.436 82.9044 161.096 82.9724 160.734 82.9724Z" fill="#FFFCFA"/>
<path d="M165.496 81.191L169.515 80.5521L168.528 84.6767H172.832L172.055 87.9215H167.777L166.637 92.816C166.532 93.224 166.473 93.6051 166.456 93.9592C166.437 94.3149 166.481 94.6204 166.585 94.8776C166.688 95.1355 166.873 95.3342 167.142 95.4748C167.409 95.6177 167.793 95.6897 168.295 95.6897C168.709 95.6897 169.112 95.6493 169.502 95.5691C169.89 95.4903 170.283 95.3806 170.68 95.237L170.966 98.2709C170.448 98.4661 169.886 98.6339 169.281 98.7752C168.675 98.9184 167.958 98.9874 167.129 98.9874C165.937 98.9874 165.013 98.8057 164.354 98.4441C163.697 98.0798 163.232 97.5821 162.954 96.9521C162.68 96.3243 162.557 95.6006 162.591 94.7853C162.627 93.968 162.747 93.109 162.954 92.2044L165.496 81.191Z" fill="#FFFCFA"/>
<path d="M172.663 93.0822C172.663 91.8769 172.853 90.7404 173.233 89.6764C173.613 88.6114 174.159 87.6801 174.868 86.8809C175.574 86.0856 176.435 85.4556 177.448 84.9931C178.457 84.5332 179.586 84.3013 180.83 84.3013C181.609 84.3013 182.304 84.3768 182.916 84.5283C183.531 84.681 184.087 84.8784 184.59 85.1261L183.266 88.2139C182.921 88.0701 182.562 87.9433 182.191 87.8283C181.82 87.711 181.366 87.6545 180.83 87.6545C179.549 87.6545 178.537 88.1075 177.783 89.0105C177.033 89.9142 176.655 91.1306 176.655 92.6564C176.655 93.5608 176.845 94.292 177.226 94.8514C177.606 95.4108 178.307 95.6891 179.326 95.6891C179.828 95.6891 180.313 95.6352 180.778 95.5301C181.246 95.4237 181.659 95.2896 182.023 95.1313L182.309 98.2966C181.824 98.4898 181.289 98.6642 180.702 98.817C180.113 98.9645 179.413 99.041 178.601 99.041C177.529 99.041 176.621 98.8801 175.879 98.5631C175.137 98.2411 174.523 97.8138 174.04 97.2724C173.554 96.7297 173.205 96.0961 172.989 95.3688C172.773 94.6422 172.663 93.8788 172.663 93.0822Z" fill="#FFFCFA"/>
<path d="M189.708 99.041C188.792 99.041 187.997 98.8978 187.322 98.6143C186.649 98.3308 186.092 97.933 185.651 97.4173C185.21 96.9042 184.879 96.2961 184.653 95.5955C184.427 94.8951 184.318 94.1195 184.318 93.2697C184.318 92.2038 184.485 91.1382 184.822 90.0755C185.157 89.0105 185.655 88.0536 186.314 87.2032C186.967 86.3514 187.774 85.655 188.723 85.112C189.672 84.5726 190.762 84.3013 191.988 84.3013C192.887 84.3013 193.678 84.4448 194.362 84.7283C195.043 85.0111 195.604 85.4122 196.047 85.9253C196.486 86.4411 196.819 87.0465 197.043 87.7481C197.269 88.4472 197.38 89.2247 197.38 90.0752C197.38 91.1378 197.216 92.2035 196.889 93.2694C196.562 94.3301 196.077 95.2893 195.437 96.1417C194.798 96.9922 193.999 97.6883 193.04 98.229C192.081 98.7697 190.97 99.041 189.708 99.041ZM191.626 87.6548C191.057 87.6548 190.554 87.8243 190.124 88.1591C189.691 88.4977 189.328 88.9235 189.036 89.4369C188.74 89.9526 188.521 90.515 188.373 91.1263C188.226 91.739 188.154 92.3181 188.154 92.8683C188.154 93.7562 188.293 94.4477 188.568 94.9454C188.846 95.4404 189.345 95.6894 190.072 95.6894C190.642 95.6894 191.143 95.5212 191.576 95.1829C192.005 94.8468 192.369 94.4208 192.664 93.9064C192.957 93.3933 193.179 92.8292 193.327 92.2169C193.472 91.6063 193.546 91.0238 193.546 90.4746C193.546 89.589 193.407 88.8959 193.13 88.3989C192.853 87.9038 192.351 87.6548 191.626 87.6548Z" fill="#FFFCFA"/>
<path d="M201.561 98.67H197.721L200.962 84.6773H204.827L201.561 98.67ZM203.426 82.9724C202.89 82.9724 202.405 82.8088 201.975 82.481C201.543 82.1551 201.326 81.6535 201.326 80.9775C201.326 80.6056 201.4 80.2567 201.547 79.9276C201.693 79.5991 201.888 79.3163 202.131 79.0758C202.372 78.8373 202.655 78.6468 202.973 78.5033C203.292 78.362 203.633 78.2914 203.995 78.2914C204.532 78.2914 205.017 78.455 205.448 78.7828C205.88 79.1123 206.098 79.6139 206.098 80.2863C206.098 80.6595 206.02 81.0096 205.875 81.3381C205.73 81.6666 205.535 81.9495 205.294 82.1899C205.051 82.4287 204.771 82.6186 204.452 82.7608C204.131 82.9044 203.79 82.9724 203.426 82.9724Z" fill="#FFFCFA"/>
<path d="M207.592 85.3134C207.883 85.226 208.209 85.1209 208.562 85.0066C208.917 84.8923 209.314 84.7859 209.757 84.69C210.195 84.5911 210.69 84.5109 211.234 84.4488C211.778 84.3854 212.397 84.3546 213.086 84.3546C215.109 84.3546 216.504 84.9593 217.275 86.1652C218.044 87.3711 218.177 89.0214 217.678 91.1133L215.913 98.6686H212.051L213.761 91.2723C213.866 90.8104 213.947 90.364 214.008 89.9277C214.069 89.4954 214.066 89.1144 213.994 88.7846C213.926 88.4587 213.765 88.192 213.516 87.9854C213.263 87.782 212.88 87.6799 212.361 87.6799C211.861 87.6799 211.352 87.7351 210.833 87.8415L208.318 98.6682H204.454L207.592 85.3134Z" fill="#FFFCFA"/>
<defs>
<filter id="filter0_d_1506_12250" x="116.475" y="21.9741" width="177.6" height="52.6615" filterUnits="userSpaceOnUse" color-interpolation-filters="sRGB">
<feFlood flood-opacity="0" result="BackgroundImageFix"/>
<feColorMatrix in="SourceAlpha" type="matrix" values="0 0 0 0 0 0 0 0 0 0 0 0 0 0 0 0 0 0 127 0" result="hardAlpha"/>
<feOffset dx="1.12834" dy="1.12834"/>
<feGaussianBlur stdDeviation="2.25669"/>
<feComposite in2="hardAlpha" operator="out"/>
<feColorMatrix type="matrix" values="0 0 0 0 0.141667 0 0 0 0 0.0543055 0 0 0 0 0.0324653 0 0 0 0.04 0"/>
<feBlend mode="normal" in2="BackgroundImageFix" result="effect1_dropShadow_1506_12250"/>
<feBlend mode="normal" in="SourceGraphic" in2="effect1_dropShadow_1506_12250" result="shape"/>
</filter>
<radialGradient id="paint0_diamond_1506_12250" cx="0" cy="0" r="1" gradientUnits="userSpaceOnUse" gradientTransform="translate(86.4409 42.5608) rotate(131.41) scale(68.1959 77.1242)">
<stop stop-color="#FFA24C"/>
<stop offset="0.50246" stop-color="#FF7A50"/>
<stop offset="1" stop-color="#FF4D42"/>
</radialGradient>
</defs>
</svg>
