<svg width="233" height="41" viewBox="0 0 233 41" fill="none" xmlns="http://www.w3.org/2000/svg">
<g filter="url(#filter0_d_9559_72709)">
<g clip-path="url(#paint0_diamond_9559_72709_clip_path)" data-figma-skip-parse="true"><g transform="matrix(-0.134107 0.0278496 -0.148534 -0.0326434 134.107 8.15039)"><rect x="0" y="0" width="1062.51" height="494.534" fill="url(#paint0_diamond_9559_72709)" opacity="1" shape-rendering="crispEdges"/><rect x="0" y="0" width="1062.51" height="494.534" transform="scale(1 -1)" fill="url(#paint0_diamond_9559_72709)" opacity="1" shape-rendering="crispEdges"/><rect x="0" y="0" width="1062.51" height="494.534" transform="scale(-1 1)" fill="url(#paint0_diamond_9559_72709)" opacity="1" shape-rendering="crispEdges"/><rect x="0" y="0" width="1062.51" height="494.534" transform="scale(-1)" fill="url(#paint0_diamond_9559_72709)" opacity="1" shape-rendering="crispEdges"/></g></g><path d="M14.308 19.2254C15.68 19.2254 16.7253 18.9151 17.444 18.2944C18.1953 17.6411 18.571 16.6611 18.571 15.3544C18.571 14.1131 18.179 13.1657 17.395 12.5124C16.6437 11.8264 15.533 11.4834 14.063 11.4834C13.5403 11.4834 13.0993 11.4997 12.74 11.5324C12.4133 11.5324 12.0703 11.5651 11.711 11.6304V19.2254H14.308ZM11.76 34.9544C11.4007 35.0524 10.829 35.1504 10.045 35.2484C9.29367 35.3464 8.54233 35.3954 7.791 35.3954C7.03967 35.3954 6.37 35.3301 5.782 35.1994C5.22667 35.1014 4.753 34.9054 4.361 34.6114C3.969 34.3174 3.675 33.9091 3.479 33.3864C3.283 32.8637 3.185 32.1777 3.185 31.3284V8.24939C3.185 7.56339 3.36467 7.04072 3.724 6.68139C4.116 6.28939 4.63867 5.97906 5.292 5.75039C6.40267 5.35839 7.66033 5.08072 9.065 4.91739C10.5023 4.72139 11.9397 4.62339 13.377 4.62339C17.885 4.62339 21.3313 5.58706 23.716 7.51439C26.1007 9.44172 27.293 12.0551 27.293 15.3544C27.293 16.9551 27.0317 18.4087 26.509 19.7154C26.019 20.9894 25.2677 22.1001 24.255 23.0474C23.275 23.9621 22.0173 24.6807 20.482 25.2034C18.9793 25.6934 17.2317 25.9384 15.239 25.9384H11.76V34.9544ZM42.8949 35.9344C40.9676 35.9344 39.1709 35.6731 37.5049 35.1504C35.8716 34.5951 34.4342 33.7784 33.1929 32.7004C31.9842 31.6224 31.0206 30.2667 30.3019 28.6334C29.6159 27.0001 29.2729 25.0891 29.2729 22.9004C29.2729 20.7444 29.6159 18.8987 30.3019 17.3634C31.0206 15.7954 31.9516 14.5214 33.0949 13.5414C34.2382 12.5287 35.5449 11.7937 37.0149 11.3364C38.4849 10.8464 39.9876 10.6014 41.5229 10.6014C43.2542 10.6014 44.8222 10.8627 46.2269 11.3854C47.6642 11.9081 48.8892 12.6267 49.9019 13.5414C50.9472 14.4561 51.7476 15.5504 52.3029 16.8244C52.8909 18.0984 53.1849 19.4867 53.1849 20.9894C53.1849 22.1001 52.8746 22.9494 52.2539 23.5374C51.6332 24.1254 50.7676 24.5011 49.6569 24.6644L37.5539 26.4774C37.9132 27.5554 38.6482 28.3721 39.7589 28.9274C40.8696 29.4501 42.1436 29.7114 43.5809 29.7114C44.9202 29.7114 46.1779 29.5481 47.3539 29.2214C48.5626 28.8621 49.5426 28.4537 50.2939 27.9964C50.8166 28.3231 51.2576 28.7804 51.6169 29.3684C51.9762 29.9564 52.1559 30.5771 52.1559 31.2304C52.1559 32.7004 51.4699 33.7947 50.0979 34.5134C49.0526 35.0687 47.8766 35.4444 46.5699 35.6404C45.2632 35.8364 44.0382 35.9344 42.8949 35.9344ZM41.5229 16.6774C40.7389 16.6774 40.0529 16.8081 39.4649 17.0694C38.9096 17.3307 38.4522 17.6737 38.0929 18.0984C37.7336 18.4904 37.4559 18.9477 37.2599 19.4704C37.0966 19.9604 36.9986 20.4667 36.9659 20.9894L45.3449 19.6174C45.2469 18.9641 44.8876 18.3107 44.2669 17.6574C43.6462 17.0041 42.7316 16.6774 41.5229 16.6774ZM67.3865 29.8584C67.9418 29.8584 68.5462 29.8094 69.1995 29.7114C69.8855 29.5807 70.3918 29.4174 70.7185 29.2214V25.3014L67.1905 25.5954C66.2758 25.6607 65.5245 25.8567 64.9365 26.1834C64.3485 26.5101 64.0545 27.0001 64.0545 27.6534C64.0545 28.3067 64.2995 28.8457 64.7895 29.2704C65.3122 29.6624 66.1778 29.8584 67.3865 29.8584ZM66.9945 10.6014C68.7585 10.6014 70.3592 10.7811 71.7965 11.1404C73.2665 11.4997 74.5078 12.0551 75.5205 12.8064C76.5658 13.5251 77.3662 14.4561 77.9215 15.5994C78.4768 16.7101 78.7545 18.0331 78.7545 19.5684V30.5444C78.7545 31.3937 78.5095 32.0961 78.0195 32.6514C77.5622 33.1741 77.0068 33.6314 76.3535 34.0234C74.2302 35.2974 71.2412 35.9344 67.3865 35.9344C65.6552 35.9344 64.0872 35.7711 62.6825 35.4444C61.3105 35.1177 60.1182 34.6277 59.1055 33.9744C58.1255 33.3211 57.3578 32.4881 56.8025 31.4754C56.2798 30.4627 56.0185 29.2867 56.0185 27.9474C56.0185 25.6934 56.6882 23.9621 58.0275 22.7534C59.3668 21.5447 61.4412 20.7934 64.2505 20.4994L70.6695 19.8134V19.4704C70.6695 18.5231 70.2448 17.8534 69.3955 17.4614C68.5788 17.0367 67.3865 16.8244 65.8185 16.8244C64.5772 16.8244 63.3685 16.9551 62.1925 17.2164C61.0165 17.4777 59.9548 17.8044 59.0075 18.1964C58.5828 17.9024 58.2235 17.4614 57.9295 16.8734C57.6355 16.2527 57.4885 15.6157 57.4885 14.9624C57.4885 14.1131 57.6845 13.4434 58.0765 12.9534C58.5012 12.4307 59.1382 11.9897 59.9875 11.6304C60.9348 11.2711 62.0455 11.0097 63.3195 10.8464C64.6262 10.6831 65.8512 10.6014 66.9945 10.6014ZM97.2738 17.1674C96.4571 17.1674 95.6731 17.2981 94.9218 17.5594C94.2031 17.8207 93.5661 18.2127 93.0108 18.7354C92.4881 19.2254 92.0635 19.8461 91.7368 20.5974C91.4101 21.3487 91.2468 22.2307 91.2468 23.2434C91.2468 25.2687 91.8185 26.7877 92.9618 27.8004C94.1378 28.8131 95.5588 29.3194 97.2248 29.3194C98.2048 29.3194 99.0541 29.2051 99.7728 28.9764C100.491 28.7477 101.128 28.5027 101.684 28.2414C102.337 28.6987 102.827 29.2051 103.154 29.7604C103.48 30.2831 103.644 30.9201 103.644 31.6714C103.644 33.0107 103.007 34.0561 101.733 34.8074C100.459 35.5261 98.6948 35.8854 96.4408 35.8854C94.3828 35.8854 92.5208 35.5914 90.8548 35.0034C89.1888 34.3827 87.7515 33.5334 86.5428 32.4554C85.3668 31.3447 84.4521 30.0217 83.7988 28.4864C83.1455 26.9511 82.8188 25.2524 82.8188 23.3904C82.8188 21.2344 83.1618 19.3561 83.8478 17.7554C84.5665 16.1221 85.5301 14.7827 86.7388 13.7374C87.9475 12.6921 89.3358 11.9081 90.9038 11.3854C92.5045 10.8627 94.1868 10.6014 95.9508 10.6014C98.3028 10.6014 100.116 11.0261 101.39 11.8754C102.664 12.7247 103.301 13.8191 103.301 15.1584C103.301 15.7791 103.154 16.3671 102.86 16.9224C102.566 17.4451 102.223 17.9024 101.831 18.2944C101.275 18.0331 100.606 17.7881 99.8218 17.5594C99.0378 17.2981 98.1885 17.1674 97.2738 17.1674ZM131.341 35.1014C131.015 35.1994 130.492 35.2974 129.773 35.3954C129.087 35.4934 128.369 35.5424 127.617 35.5424C126.899 35.5424 126.245 35.4934 125.657 35.3954C125.102 35.2974 124.628 35.1014 124.236 34.8074C123.844 34.5134 123.534 34.1214 123.305 33.6314C123.109 33.1087 123.011 32.4391 123.011 31.6224V20.7444C123.011 19.4051 122.668 18.4741 121.982 17.9514C121.329 17.3961 120.512 17.1184 119.532 17.1184C118.879 17.1184 118.258 17.2001 117.67 17.3634C117.082 17.5267 116.609 17.7227 116.249 17.9514V35.1014C115.923 35.1994 115.4 35.2974 114.681 35.3954C113.995 35.4934 113.277 35.5424 112.525 35.5424C111.807 35.5424 111.153 35.4934 110.565 35.3954C110.01 35.2974 109.536 35.1014 109.144 34.8074C108.752 34.5134 108.442 34.1214 108.213 33.6314C108.017 33.1087 107.919 32.4391 107.919 31.6224V3.20239C108.279 3.13706 108.801 3.05539 109.487 2.95739C110.206 2.82672 110.925 2.76139 111.643 2.76139C112.362 2.76139 112.999 2.81039 113.554 2.90839C114.142 3.00639 114.632 3.20239 115.024 3.49639C115.416 3.79039 115.71 4.19872 115.906 4.72139C116.135 5.21139 116.249 5.86472 116.249 6.68139V11.4834C116.674 11.3201 117.311 11.1404 118.16 10.9444C119.042 10.7157 120.006 10.6014 121.051 10.6014C124.285 10.6014 126.801 11.4181 128.597 13.0514C130.427 14.6521 131.341 17.0531 131.341 20.2544V35.1014Z" data-figma-gradient-fill="{&#34;type&#34;:&#34;GRADIENT_DIAMOND&#34;,&#34;stops&#34;:[{&#34;color&#34;:{&#34;r&#34;:0.68627452850341797,&#34;g&#34;:0.85490196943283081,&#34;b&#34;:0.45098039507865906,&#34;a&#34;:1.0},&#34;position&#34;:0.0},{&#34;color&#34;:{&#34;r&#34;:0.39607843756675720,&#34;g&#34;:0.64705884456634521,&#34;b&#34;:0.098039217293262482,&#34;a&#34;:1.0},&#34;position&#34;:0.50245994329452515},{&#34;color&#34;:{&#34;r&#34;:0.30980393290519714,&#34;g&#34;:0.56862747669219971,&#34;b&#34;:0.047058824449777603,&#34;a&#34;:1.0},&#34;position&#34;:1.0}],&#34;stopsVar&#34;:[],&#34;transform&#34;:{&#34;m00&#34;:-268.21307373046875,&#34;m01&#34;:-297.06796264648438,&#34;m02&#34;:416.74703979492188,&#34;m10&#34;:55.699199676513672,&#34;m11&#34;:-65.286758422851562,&#34;m12&#34;:12.944170951843262},&#34;opacity&#34;:1.0,&#34;blendMode&#34;:&#34;NORMAL&#34;,&#34;visible&#34;:true}"/>
</g>
<g clip-path="url(#clip0_9559_72709)">
<path d="M159.427 28.4191C158.144 33.7762 152.933 37.0364 147.786 35.7005C142.642 34.3649 139.511 28.9387 140.794 23.5819C142.076 18.2242 147.288 14.9636 152.433 16.2992C157.579 17.6348 160.71 23.0616 159.427 28.4191Z" fill="#F7931A"/>
<path d="M154.346 24.5752C154.537 23.2446 153.564 22.5293 152.233 22.0522L152.665 20.2497L151.611 19.9762L151.191 21.7312C150.914 21.6593 150.629 21.5915 150.346 21.5243L150.77 19.7578L149.716 19.4844L149.284 21.2862C149.055 21.2318 148.83 21.1781 148.612 21.1215L148.613 21.1159L147.159 20.7381L146.879 21.91C146.879 21.91 147.661 22.0965 147.644 22.1081C148.071 22.219 148.148 22.5131 148.135 22.7462L147.644 24.7996C147.673 24.8074 147.711 24.8187 147.753 24.8362C147.718 24.8271 147.681 24.8171 147.642 24.8074L146.953 27.6839C146.901 27.8189 146.768 28.0214 146.47 27.9446C146.48 27.9605 145.704 27.7455 145.704 27.7455L145.181 29.0014L146.552 29.3573C146.807 29.4239 147.057 29.4936 147.303 29.5592L146.867 31.3823L147.92 31.6558L148.352 29.852C148.639 29.9333 148.919 30.0083 149.192 30.0789L148.761 31.8742L149.815 32.1476L150.251 30.328C152.048 30.682 153.4 30.5392 153.969 28.847C154.427 27.4846 153.946 26.6986 153 26.1862C153.689 26.0208 154.207 25.5493 154.346 24.5752ZM151.938 28.0905C151.612 29.453 149.409 28.7164 148.694 28.5317L149.273 26.1165C149.987 26.3021 152.278 26.6696 151.938 28.0905ZM152.264 24.5555C151.967 25.7949 150.133 25.1652 149.538 25.0109L150.063 22.8203C150.657 22.9746 152.573 23.2628 152.264 24.5555Z" fill="#FCFCFD"/>
<path d="M168.654 22.0503C169.433 22.0503 170.106 22.1956 170.672 22.4809C171.24 22.7691 171.709 23.1572 172.085 23.6453C172.456 24.1359 172.732 24.7094 172.91 25.3665C173.087 26.0256 173.176 26.734 173.176 27.4924C173.176 28.6574 172.971 29.758 172.557 30.7955C172.143 31.8346 171.582 32.7358 170.867 33.5045C170.153 34.2723 169.311 34.8776 168.339 35.3248C167.368 35.7723 166.313 35.9961 165.18 35.9961C165.034 35.9961 164.776 35.9917 164.412 35.9839C164.049 35.9761 163.631 35.937 163.162 35.8711C162.691 35.8026 162.193 35.7014 161.667 35.5657C161.141 35.4326 160.641 35.2461 160.171 35.0092L164.377 16.6107L168.144 16.0029L166.638 22.5319C166.96 22.3806 167.285 22.2635 167.609 22.1781C167.934 22.0941 168.282 22.0503 168.654 22.0503ZM165.494 32.8848C166.062 32.8848 166.596 32.7395 167.098 32.4542C167.602 32.1686 168.037 31.783 168.401 31.3027C168.765 30.8202 169.053 30.2768 169.263 29.6696C169.473 29.0624 169.58 28.429 169.58 27.7699C169.58 26.9603 169.45 26.3287 169.19 25.8722C168.931 25.4175 168.452 25.1887 167.756 25.1887C167.528 25.1887 167.234 25.234 166.87 25.315C166.504 25.4009 166.177 25.5793 165.884 25.8478L164.28 32.7814C164.377 32.7992 164.462 32.8161 164.535 32.832C164.607 32.8492 164.686 32.8614 164.764 32.8699C164.847 32.8795 164.943 32.8845 165.058 32.8845C165.173 32.8845 165.316 32.8848 165.494 32.8848Z" fill="#9F8C82"/>
<path d="M177.083 35.6441H173.485L176.523 22.3327H180.146L177.083 35.6441ZM178.834 20.7109C178.332 20.7109 177.876 20.5552 177.472 20.2434C177.065 19.9334 176.863 19.4562 176.863 18.8131C176.863 18.4593 176.932 18.1275 177.069 17.8143C177.208 17.5019 177.39 17.2328 177.617 17.0041C177.844 16.7772 178.108 16.5959 178.407 16.4594C178.707 16.325 179.027 16.2578 179.368 16.2578C179.87 16.2578 180.323 16.4134 180.729 16.7253C181.133 17.0387 181.336 17.5159 181.336 18.1556C181.336 18.5106 181.267 18.8437 181.129 19.1562C180.992 19.4687 180.81 19.7378 180.583 19.9665C180.357 20.1937 180.092 20.3743 179.793 20.5096C179.492 20.6462 179.174 20.7109 178.834 20.7109Z" fill="#9F8C82"/>
<path d="M183.299 19.016L187.068 18.4082L186.142 22.3319H190.178L189.45 25.4187H185.438L184.369 30.0749C184.271 30.463 184.215 30.8255 184.199 31.1624C184.182 31.5008 184.223 31.7914 184.32 32.0361C184.417 32.2814 184.591 32.4705 184.843 32.6042C185.094 32.7402 185.453 32.8086 185.924 32.8086C186.312 32.8086 186.691 32.7702 187.056 32.6939C187.42 32.6189 187.788 32.5145 188.161 32.378L188.429 35.2642C187.943 35.4498 187.416 35.6095 186.849 35.7439C186.281 35.8801 185.608 35.9457 184.831 35.9457C183.713 35.9457 182.846 35.7729 182.229 35.4289C181.612 35.0823 181.177 34.6089 180.916 34.0095C180.658 33.4124 180.543 32.7239 180.576 31.9483C180.609 31.1708 180.721 30.3536 180.916 29.493L183.299 19.016Z" fill="#9F8C82"/>
<path d="M190.02 30.3279C190.02 29.1814 190.198 28.1001 190.555 27.088C190.91 26.0749 191.423 25.1889 192.088 24.4286C192.75 23.6721 193.557 23.0727 194.507 22.6327C195.453 22.1952 196.511 21.9746 197.678 21.9746C198.408 21.9746 199.061 22.0465 199.635 22.1905C200.211 22.3359 200.732 22.5237 201.204 22.7593L199.963 25.6967C199.639 25.5599 199.302 25.4392 198.954 25.3299C198.606 25.2183 198.181 25.1646 197.678 25.1646C196.477 25.1646 195.528 25.5955 194.821 26.4545C194.118 27.3142 193.763 28.4714 193.763 29.9229C193.763 30.7832 193.941 31.4788 194.299 32.011C194.655 32.5432 195.313 32.8079 196.268 32.8079C196.739 32.8079 197.194 32.7566 197.629 32.6566C198.068 32.5554 198.456 32.4279 198.797 32.2773L199.065 35.2885C198.61 35.4722 198.109 35.6381 197.558 35.7835C197.006 35.9238 196.35 35.9966 195.588 35.9966C194.583 35.9966 193.732 35.8435 193.036 35.5419C192.339 35.2357 191.764 34.8291 191.311 34.3141C190.855 33.7979 190.528 33.1951 190.326 32.5032C190.123 31.812 190.02 31.0857 190.02 30.3279Z" fill="#9F8C82"/>
<path d="M206.004 35.9966C205.145 35.9966 204.399 35.8603 203.766 35.5906C203.135 35.321 202.613 34.9425 202.199 34.4519C201.785 33.9638 201.476 33.3854 201.263 32.7188C201.051 32.0526 200.949 31.3148 200.949 30.5064C200.949 29.4923 201.106 28.4786 201.422 27.4676C201.736 26.4545 202.203 25.5442 202.821 24.7352C203.434 23.9249 204.19 23.2624 205.08 22.7458C205.969 22.2327 206.992 21.9746 208.141 21.9746C208.985 21.9746 209.727 22.1112 210.368 22.3808C211.006 22.6499 211.532 23.0315 211.948 23.5196C212.359 24.0102 212.672 24.5861 212.882 25.2536C213.094 25.9186 213.198 26.6583 213.198 27.4673C213.198 28.4783 213.044 29.492 212.738 30.506C212.431 31.5151 211.976 32.4276 211.376 33.2385C210.777 34.0476 210.028 34.7097 209.128 35.2241C208.229 35.7385 207.187 35.9966 206.004 35.9966ZM207.802 25.1649C207.269 25.1649 206.797 25.3261 206.393 25.6445C205.988 25.9667 205.648 26.3717 205.373 26.8602C205.096 27.3508 204.89 27.8858 204.751 28.4673C204.614 29.0501 204.546 29.6011 204.546 30.1245C204.546 30.9692 204.677 31.627 204.934 32.1004C205.195 32.5713 205.664 32.8082 206.345 32.8082C206.88 32.8082 207.349 32.6482 207.755 32.3263C208.158 32.0066 208.499 31.6013 208.775 31.112C209.051 30.6238 209.258 30.0873 209.397 29.5048C209.533 28.9239 209.602 28.3698 209.602 27.8473C209.602 27.0048 209.472 26.3455 209.212 25.8727C208.953 25.4017 208.482 25.1649 207.802 25.1649Z" fill="#9F8C82"/>
<path d="M217.119 35.6441H213.518L216.557 22.3327H220.181L217.119 35.6441ZM218.867 20.7109C218.365 20.7109 217.91 20.5552 217.507 20.2434C217.102 19.9334 216.898 19.4562 216.898 18.8131C216.898 18.4593 216.968 18.1275 217.105 17.8143C217.242 17.5019 217.425 17.2328 217.653 17.0041C217.879 16.7772 218.144 16.5959 218.443 16.4594C218.742 16.325 219.062 16.2578 219.402 16.2578C219.905 16.2578 220.359 16.4134 220.764 16.7253C221.169 17.0387 221.373 17.5159 221.373 18.1556C221.373 18.5106 221.3 18.8437 221.164 19.1562C221.028 19.4687 220.846 19.7378 220.619 19.9665C220.391 20.1937 220.129 20.3743 219.83 20.5096C219.528 20.6462 219.209 20.7109 218.867 20.7109Z" fill="#9F8C82"/>
<path d="M222.774 22.9376C223.047 22.8544 223.352 22.7544 223.683 22.6457C224.016 22.537 224.388 22.4357 224.804 22.3445C225.215 22.2504 225.678 22.1741 226.188 22.1151C226.698 22.0548 227.279 22.0254 227.925 22.0254C229.823 22.0254 231.131 22.6007 231.853 23.7479C232.575 24.895 232.699 26.465 232.231 28.455L230.576 35.6424H226.954L228.558 28.6062C228.656 28.1669 228.733 27.7422 228.79 27.3272C228.847 26.9159 228.844 26.5535 228.777 26.2397C228.713 25.9297 228.562 25.676 228.328 25.4794C228.091 25.286 227.732 25.1888 227.246 25.1888C226.777 25.1888 226.299 25.2413 225.812 25.3425L223.454 35.6421H219.831L222.774 22.9376Z" fill="#9F8C82"/>
</g>
<defs>
<filter id="filter0_d_9559_72709" x="0.614326" y="0.190986" width="135.012" height="40.0281" filterUnits="userSpaceOnUse" color-interpolation-filters="sRGB">
<feFlood flood-opacity="0" result="BackgroundImageFix"/>
<feColorMatrix in="SourceAlpha" type="matrix" values="0 0 0 0 0 0 0 0 0 0 0 0 0 0 0 0 0 0 127 0" result="hardAlpha"/>
<feOffset dx="0.856911" dy="0.856911"/>
<feGaussianBlur stdDeviation="1.71382"/>
<feComposite in2="hardAlpha" operator="out"/>
<feColorMatrix type="matrix" values="0 0 0 0 0.141667 0 0 0 0 0.0543055 0 0 0 0 0.0324653 0 0 0 0.04 0"/>
<feBlend mode="normal" in2="BackgroundImageFix" result="effect1_dropShadow_9559_72709"/>
<feBlend mode="normal" in="SourceGraphic" in2="effect1_dropShadow_9559_72709" result="shape"/>
</filter>
<clipPath id="paint0_diamond_9559_72709_clip_path"><path d="M14.308 19.2254C15.68 19.2254 16.7253 18.9151 17.444 18.2944C18.1953 17.6411 18.571 16.6611 18.571 15.3544C18.571 14.1131 18.179 13.1657 17.395 12.5124C16.6437 11.8264 15.533 11.4834 14.063 11.4834C13.5403 11.4834 13.0993 11.4997 12.74 11.5324C12.4133 11.5324 12.0703 11.5651 11.711 11.6304V19.2254H14.308ZM11.76 34.9544C11.4007 35.0524 10.829 35.1504 10.045 35.2484C9.29367 35.3464 8.54233 35.3954 7.791 35.3954C7.03967 35.3954 6.37 35.3301 5.782 35.1994C5.22667 35.1014 4.753 34.9054 4.361 34.6114C3.969 34.3174 3.675 33.9091 3.479 33.3864C3.283 32.8637 3.185 32.1777 3.185 31.3284V8.24939C3.185 7.56339 3.36467 7.04072 3.724 6.68139C4.116 6.28939 4.63867 5.97906 5.292 5.75039C6.40267 5.35839 7.66033 5.08072 9.065 4.91739C10.5023 4.72139 11.9397 4.62339 13.377 4.62339C17.885 4.62339 21.3313 5.58706 23.716 7.51439C26.1007 9.44172 27.293 12.0551 27.293 15.3544C27.293 16.9551 27.0317 18.4087 26.509 19.7154C26.019 20.9894 25.2677 22.1001 24.255 23.0474C23.275 23.9621 22.0173 24.6807 20.482 25.2034C18.9793 25.6934 17.2317 25.9384 15.239 25.9384H11.76V34.9544ZM42.8949 35.9344C40.9676 35.9344 39.1709 35.6731 37.5049 35.1504C35.8716 34.5951 34.4342 33.7784 33.1929 32.7004C31.9842 31.6224 31.0206 30.2667 30.3019 28.6334C29.6159 27.0001 29.2729 25.0891 29.2729 22.9004C29.2729 20.7444 29.6159 18.8987 30.3019 17.3634C31.0206 15.7954 31.9516 14.5214 33.0949 13.5414C34.2382 12.5287 35.5449 11.7937 37.0149 11.3364C38.4849 10.8464 39.9876 10.6014 41.5229 10.6014C43.2542 10.6014 44.8222 10.8627 46.2269 11.3854C47.6642 11.9081 48.8892 12.6267 49.9019 13.5414C50.9472 14.4561 51.7476 15.5504 52.3029 16.8244C52.8909 18.0984 53.1849 19.4867 53.1849 20.9894C53.1849 22.1001 52.8746 22.9494 52.2539 23.5374C51.6332 24.1254 50.7676 24.5011 49.6569 24.6644L37.5539 26.4774C37.9132 27.5554 38.6482 28.3721 39.7589 28.9274C40.8696 29.4501 42.1436 29.7114 43.5809 29.7114C44.9202 29.7114 46.1779 29.5481 47.3539 29.2214C48.5626 28.8621 49.5426 28.4537 50.2939 27.9964C50.8166 28.3231 51.2576 28.7804 51.6169 29.3684C51.9762 29.9564 52.1559 30.5771 52.1559 31.2304C52.1559 32.7004 51.4699 33.7947 50.0979 34.5134C49.0526 35.0687 47.8766 35.4444 46.5699 35.6404C45.2632 35.8364 44.0382 35.9344 42.8949 35.9344ZM41.5229 16.6774C40.7389 16.6774 40.0529 16.8081 39.4649 17.0694C38.9096 17.3307 38.4522 17.6737 38.0929 18.0984C37.7336 18.4904 37.4559 18.9477 37.2599 19.4704C37.0966 19.9604 36.9986 20.4667 36.9659 20.9894L45.3449 19.6174C45.2469 18.9641 44.8876 18.3107 44.2669 17.6574C43.6462 17.0041 42.7316 16.6774 41.5229 16.6774ZM67.3865 29.8584C67.9418 29.8584 68.5462 29.8094 69.1995 29.7114C69.8855 29.5807 70.3918 29.4174 70.7185 29.2214V25.3014L67.1905 25.5954C66.2758 25.6607 65.5245 25.8567 64.9365 26.1834C64.3485 26.5101 64.0545 27.0001 64.0545 27.6534C64.0545 28.3067 64.2995 28.8457 64.7895 29.2704C65.3122 29.6624 66.1778 29.8584 67.3865 29.8584ZM66.9945 10.6014C68.7585 10.6014 70.3592 10.7811 71.7965 11.1404C73.2665 11.4997 74.5078 12.0551 75.5205 12.8064C76.5658 13.5251 77.3662 14.4561 77.9215 15.5994C78.4768 16.7101 78.7545 18.0331 78.7545 19.5684V30.5444C78.7545 31.3937 78.5095 32.0961 78.0195 32.6514C77.5622 33.1741 77.0068 33.6314 76.3535 34.0234C74.2302 35.2974 71.2412 35.9344 67.3865 35.9344C65.6552 35.9344 64.0872 35.7711 62.6825 35.4444C61.3105 35.1177 60.1182 34.6277 59.1055 33.9744C58.1255 33.3211 57.3578 32.4881 56.8025 31.4754C56.2798 30.4627 56.0185 29.2867 56.0185 27.9474C56.0185 25.6934 56.6882 23.9621 58.0275 22.7534C59.3668 21.5447 61.4412 20.7934 64.2505 20.4994L70.6695 19.8134V19.4704C70.6695 18.5231 70.2448 17.8534 69.3955 17.4614C68.5788 17.0367 67.3865 16.8244 65.8185 16.8244C64.5772 16.8244 63.3685 16.9551 62.1925 17.2164C61.0165 17.4777 59.9548 17.8044 59.0075 18.1964C58.5828 17.9024 58.2235 17.4614 57.9295 16.8734C57.6355 16.2527 57.4885 15.6157 57.4885 14.9624C57.4885 14.1131 57.6845 13.4434 58.0765 12.9534C58.5012 12.4307 59.1382 11.9897 59.9875 11.6304C60.9348 11.2711 62.0455 11.0097 63.3195 10.8464C64.6262 10.6831 65.8512 10.6014 66.9945 10.6014ZM97.2738 17.1674C96.4571 17.1674 95.6731 17.2981 94.9218 17.5594C94.2031 17.8207 93.5661 18.2127 93.0108 18.7354C92.4881 19.2254 92.0635 19.8461 91.7368 20.5974C91.4101 21.3487 91.2468 22.2307 91.2468 23.2434C91.2468 25.2687 91.8185 26.7877 92.9618 27.8004C94.1378 28.8131 95.5588 29.3194 97.2248 29.3194C98.2048 29.3194 99.0541 29.2051 99.7728 28.9764C100.491 28.7477 101.128 28.5027 101.684 28.2414C102.337 28.6987 102.827 29.2051 103.154 29.7604C103.48 30.2831 103.644 30.9201 103.644 31.6714C103.644 33.0107 103.007 34.0561 101.733 34.8074C100.459 35.5261 98.6948 35.8854 96.4408 35.8854C94.3828 35.8854 92.5208 35.5914 90.8548 35.0034C89.1888 34.3827 87.7515 33.5334 86.5428 32.4554C85.3668 31.3447 84.4521 30.0217 83.7988 28.4864C83.1455 26.9511 82.8188 25.2524 82.8188 23.3904C82.8188 21.2344 83.1618 19.3561 83.8478 17.7554C84.5665 16.1221 85.5301 14.7827 86.7388 13.7374C87.9475 12.6921 89.3358 11.9081 90.9038 11.3854C92.5045 10.8627 94.1868 10.6014 95.9508 10.6014C98.3028 10.6014 100.116 11.0261 101.39 11.8754C102.664 12.7247 103.301 13.8191 103.301 15.1584C103.301 15.7791 103.154 16.3671 102.86 16.9224C102.566 17.4451 102.223 17.9024 101.831 18.2944C101.275 18.0331 100.606 17.7881 99.8218 17.5594C99.0378 17.2981 98.1885 17.1674 97.2738 17.1674ZM131.341 35.1014C131.015 35.1994 130.492 35.2974 129.773 35.3954C129.087 35.4934 128.369 35.5424 127.617 35.5424C126.899 35.5424 126.245 35.4934 125.657 35.3954C125.102 35.2974 124.628 35.1014 124.236 34.8074C123.844 34.5134 123.534 34.1214 123.305 33.6314C123.109 33.1087 123.011 32.4391 123.011 31.6224V20.7444C123.011 19.4051 122.668 18.4741 121.982 17.9514C121.329 17.3961 120.512 17.1184 119.532 17.1184C118.879 17.1184 118.258 17.2001 117.67 17.3634C117.082 17.5267 116.609 17.7227 116.249 17.9514V35.1014C115.923 35.1994 115.4 35.2974 114.681 35.3954C113.995 35.4934 113.277 35.5424 112.525 35.5424C111.807 35.5424 111.153 35.4934 110.565 35.3954C110.01 35.2974 109.536 35.1014 109.144 34.8074C108.752 34.5134 108.442 34.1214 108.213 33.6314C108.017 33.1087 107.919 32.4391 107.919 31.6224V3.20239C108.279 3.13706 108.801 3.05539 109.487 2.95739C110.206 2.82672 110.925 2.76139 111.643 2.76139C112.362 2.76139 112.999 2.81039 113.554 2.90839C114.142 3.00639 114.632 3.20239 115.024 3.49639C115.416 3.79039 115.71 4.19872 115.906 4.72139C116.135 5.21139 116.249 5.86472 116.249 6.68139V11.4834C116.674 11.3201 117.311 11.1404 118.16 10.9444C119.042 10.7157 120.006 10.6014 121.051 10.6014C124.285 10.6014 126.801 11.4181 128.597 13.0514C130.427 14.6521 131.341 17.0531 131.341 20.2544V35.1014Z"/></clipPath><linearGradient id="paint0_diamond_9559_72709" x1="0" y1="0" x2="500" y2="500" gradientUnits="userSpaceOnUse">
<stop stop-color="#AFDA73"/>
<stop offset="0.50246" stop-color="#65A519"/>
<stop offset="1" stop-color="#4F910C"/>
</linearGradient>
<clipPath id="clip0_9559_72709">
<rect width="92" height="20" fill="white" transform="translate(140.506 16)"/>
</clipPath>
</defs>
</svg>
