<svg viewBox="0 0 173 76" xmlns="http://www.w3.org/2000/svg">
<g filter="url(#filter0_d_779_4769)">
<path d="M17.9874 24.9899C19.7366 24.9899 21.0693 24.5943 21.9855 23.803C22.9434 22.9701 23.4223 21.7207 23.4223 20.0548C23.4223 18.4722 22.9226 17.2645 21.923 16.4315C20.9652 15.557 19.5492 15.1197 17.6751 15.1197C17.0087 15.1197 16.4465 15.1405 15.9884 15.1821C15.5719 15.1821 15.1346 15.2238 14.6765 15.3071V24.9899H17.9874ZM14.739 45.0428C14.2809 45.1678 13.5521 45.2927 12.5525 45.4176C11.5947 45.5426 10.6368 45.6051 9.67892 45.6051C8.72104 45.6051 7.86729 45.5218 7.11765 45.3552C6.40965 45.2302 5.80577 44.9804 5.30601 44.6055C4.80625 44.2307 4.43143 43.7101 4.18155 43.0438C3.93167 42.3774 3.80673 41.5029 3.80673 40.42V10.9966C3.80673 10.1221 4.03579 9.45572 4.4939 8.9976C4.99366 8.49784 5.66001 8.1022 6.49294 7.81067C7.90893 7.31091 9.51233 6.95691 11.3031 6.74868C13.1356 6.4988 14.968 6.37386 16.8005 6.37386C22.5477 6.37386 26.9415 7.60244 29.9817 10.0596C33.0219 12.5168 34.542 15.8485 34.542 20.0548C34.542 22.0955 34.2088 23.9488 33.5425 25.6146C32.9178 27.2389 31.9599 28.6548 30.6689 29.8626C29.4195 31.0287 27.8161 31.9449 25.8587 32.6113C23.9429 33.236 21.7148 33.5483 19.1744 33.5483H14.739V45.0428Z" fill="url(#paint0_diamond_779_4769)"/>
<path d="M54.4328 46.2922C51.9757 46.2922 49.6851 45.9591 47.5611 45.2927C45.4788 44.5847 43.6464 43.5435 42.0638 42.1692C40.5229 40.7949 39.2943 39.0665 38.378 36.9842C37.5035 34.9019 37.0662 32.4655 37.0662 29.6752C37.0662 26.9265 37.5035 24.5735 38.378 22.6161C39.2943 20.617 40.4812 18.9928 41.9388 17.7434C43.3965 16.4524 45.0623 15.5153 46.9364 14.9323C48.8105 14.3076 50.7263 13.9952 52.6837 13.9952C54.891 13.9952 56.89 14.3284 58.6808 14.9947C60.5133 15.6611 62.075 16.5773 63.3661 17.7434C64.6988 18.9095 65.7191 20.3047 66.4271 21.9289C67.1767 23.5531 67.5516 25.3231 67.5516 27.2389C67.5516 28.6548 67.1559 29.7377 66.3646 30.4873C65.5733 31.2369 64.4697 31.7159 63.0537 31.9241L47.6236 34.2355C48.0817 35.6098 49.0188 36.651 50.4348 37.359C51.8508 38.0254 53.475 38.3585 55.3074 38.3585C57.0149 38.3585 58.6183 38.1503 60.1176 37.7338C61.6586 37.2757 62.908 36.7551 63.8658 36.1721C64.5322 36.5885 65.0944 37.1716 65.5525 37.9212C66.0106 38.6709 66.2397 39.4622 66.2397 40.2951C66.2397 42.1692 65.3651 43.5644 63.616 44.4806C62.2833 45.1886 60.784 45.6675 59.1181 45.9174C57.4522 46.1673 55.8905 46.2922 54.4328 46.2922ZM52.6837 21.7415C51.6842 21.7415 50.8096 21.9081 50.0599 22.2413C49.352 22.5744 48.7689 23.0117 48.3108 23.5531C47.8527 24.0529 47.4987 24.6359 47.2488 25.3023C47.0406 25.927 46.9156 26.5725 46.874 27.2389L57.5564 25.4897C57.4314 24.6568 56.9733 23.8238 56.182 22.9909C55.3907 22.158 54.2246 21.7415 52.6837 21.7415Z" fill="url(#paint1_diamond_779_4769)"/>
<path d="M85.6572 38.5459C86.3651 38.5459 87.1356 38.4835 87.9685 38.3585C88.8431 38.1919 89.4886 37.9837 89.9051 37.7338V32.7362L85.4073 33.111C84.2412 33.1943 83.2833 33.4442 82.5336 33.8607C81.784 34.2771 81.4092 34.9018 81.4092 35.7348C81.4092 36.5677 81.7215 37.2549 82.3462 37.7963C83.0126 38.2961 84.1162 38.5459 85.6572 38.5459ZM85.1574 13.9952C87.4063 13.9952 89.447 14.2243 91.2794 14.6824C93.1535 15.1405 94.7361 15.8485 96.0272 16.8064C97.3599 17.7226 98.3802 18.9095 99.0882 20.3672C99.7962 21.7831 100.15 23.4698 100.15 25.4272V39.4205C100.15 40.5033 99.8378 41.3987 99.2131 42.1067C98.6301 42.7731 97.9221 43.3561 97.0892 43.8559C94.3821 45.4801 90.5715 46.2922 85.6572 46.2922C83.4499 46.2922 81.4508 46.084 79.66 45.6675C77.9109 45.2511 76.3908 44.6264 75.0997 43.7934C73.8503 42.9605 72.8716 41.8985 72.1636 40.6075C71.4973 39.3164 71.1641 37.8171 71.1641 36.1096C71.1641 33.236 72.0179 31.0287 73.7254 29.4878C75.4329 27.9469 78.0774 26.989 81.6591 26.6142L89.8426 25.7396V25.3023C89.8426 24.0945 89.3012 23.2408 88.2184 22.741C87.1772 22.1996 85.6571 21.9289 83.6581 21.9289C82.0755 21.9289 80.5346 22.0955 79.0353 22.4287C77.536 22.7618 76.1825 23.1783 74.9748 23.6781C74.4334 23.3032 73.9753 22.741 73.6004 21.9914C73.2256 21.2001 73.0382 20.388 73.0382 19.555C73.0382 18.4722 73.2881 17.6185 73.7878 16.9938C74.3292 16.3274 75.1413 15.7652 76.2242 15.3071C77.4319 14.849 78.8479 14.5158 80.4721 14.3076C82.138 14.0993 83.6998 13.9952 85.1574 13.9952Z" fill="url(#paint2_diamond_779_4769)"/>
<path d="M123.76 22.3662C122.719 22.3662 121.72 22.5328 120.762 22.866C119.846 23.1991 119.034 23.6989 118.326 24.3652C117.659 24.9899 117.118 25.7812 116.701 26.7391C116.285 27.697 116.077 28.8214 116.077 30.1125C116.077 32.6946 116.805 34.6311 118.263 35.9222C119.762 37.2132 121.574 37.8588 123.698 37.8588C124.947 37.8588 126.03 37.713 126.946 37.4215C127.863 37.13 128.675 36.8176 129.383 36.4844C130.216 37.0675 130.84 37.713 131.257 38.421C131.673 39.0873 131.882 39.8995 131.882 40.8573C131.882 42.5648 131.069 43.8975 129.445 44.8554C127.821 45.7716 125.572 46.2298 122.698 46.2298C120.075 46.2298 117.701 45.8549 115.577 45.1053C113.453 44.314 111.62 43.2312 110.08 41.8568C108.58 40.4409 107.414 38.7542 106.581 36.7968C105.748 34.8394 105.332 32.6738 105.332 30.2999C105.332 27.5512 105.769 25.1565 106.644 23.1158C107.56 21.0335 108.788 19.326 110.329 17.9933C111.87 16.6606 113.64 15.6611 115.639 14.9947C117.68 14.3284 119.825 13.9952 122.074 13.9952C125.072 13.9952 127.384 14.5366 129.008 15.6194C130.632 16.7022 131.444 18.0974 131.444 19.8049C131.444 20.5962 131.257 21.3458 130.882 22.0538C130.507 22.7202 130.07 23.3032 129.57 23.803C128.862 23.4698 128.008 23.1575 127.009 22.866C126.009 22.5328 124.927 22.3662 123.76 22.3662Z" fill="url(#paint3_diamond_779_4769)"/>
<path d="M167.193 45.2302C166.777 45.3552 166.11 45.4801 165.194 45.6051C164.32 45.73 163.403 45.7925 162.446 45.7925C161.529 45.7925 160.696 45.73 159.947 45.6051C159.239 45.4801 158.635 45.2302 158.135 44.8554C157.635 44.4806 157.24 43.9808 156.948 43.3561C156.698 42.6898 156.573 41.836 156.573 40.7949V26.9265C156.573 25.219 156.136 24.0321 155.261 23.3657C154.429 22.6577 153.387 22.3037 152.138 22.3037C151.305 22.3037 150.514 22.4078 149.764 22.6161C149.014 22.8243 148.411 23.0742 147.952 23.3657V45.2302C147.536 45.3552 146.87 45.4801 145.953 45.6051C145.079 45.73 144.163 45.7925 143.205 45.7925C142.289 45.7925 141.456 45.73 140.706 45.6051C139.998 45.4801 139.394 45.2302 138.894 44.8554C138.395 44.4806 137.999 43.9808 137.707 43.3561C137.458 42.6898 137.333 41.836 137.333 40.7949V4.56223C137.791 4.47894 138.457 4.37482 139.332 4.24988C140.248 4.08329 141.164 4 142.08 4C142.997 4 143.809 4.06247 144.517 4.18741C145.266 4.31235 145.891 4.56223 146.391 4.93705C146.89 5.31187 147.265 5.83245 147.515 6.4988C147.807 7.1235 147.952 7.95644 147.952 8.9976V15.1197C148.494 14.9114 149.306 14.6824 150.389 14.4325C151.513 14.141 152.742 13.9952 154.075 13.9952C158.198 13.9952 161.404 15.0364 163.695 17.1187C166.027 19.1594 167.193 22.2204 167.193 26.3018V45.2302Z" fill="url(#paint4_diamond_779_4769)"/>
</g>
<path fill-rule="evenodd" clip-rule="evenodd" d="M45.4774 75.1131C50.7967 76.4742 56.1836 73.1525 57.5096 67.6944C58.8357 62.236 55.5991 56.7069 50.2801 55.3461C44.9624 53.9854 39.5755 57.3074 38.2501 62.7661C36.9234 68.2239 40.1603 73.7523 45.4774 75.1131ZM50.0737 61.2076C51.4491 61.6938 52.4549 62.4225 52.2573 63.7782C52.1143 64.7706 51.5781 65.2511 50.8664 65.4195C51.8437 65.9417 52.3411 66.7424 51.8673 68.1305C51.2794 69.8546 49.8826 70.0001 48.0251 69.6394L47.5743 71.4933L46.485 71.2147L46.9299 69.3856C46.6476 69.3137 46.3591 69.2373 46.0619 69.1545L45.6154 70.9922L44.5273 70.7136L44.9781 68.8561C44.8765 68.8294 44.7742 68.802 44.6711 68.7745C44.5163 68.733 44.3599 68.6912 44.2016 68.6505L42.784 68.2878L43.3248 67.0082C43.3248 67.0082 44.1274 67.2273 44.1166 67.2111C44.425 67.2894 44.5618 67.0831 44.6158 66.9455L45.3281 64.0148C45.3548 64.0214 45.381 64.0281 45.4062 64.0346C45.4188 64.0378 45.4311 64.041 45.4432 64.0441C45.3998 64.0262 45.3604 64.0148 45.33 64.0068L45.8382 61.9147C45.8515 61.6772 45.7718 61.3776 45.3306 61.2646C45.3477 61.2528 44.5394 61.0627 44.5394 61.0627L44.8292 59.8688L46.3315 60.2537L46.3302 60.2594C46.5561 60.3171 46.7888 60.3718 47.0258 60.4272L47.4723 58.5914L48.5609 58.87L48.1235 60.6698C48.4157 60.7383 48.7099 60.8074 48.9962 60.8806L49.4306 59.0926L50.5199 59.3711L50.0737 61.2076ZM46.6282 67.8659C47.517 68.1068 49.4596 68.6333 49.7684 67.3597C50.0849 66.0576 48.2009 65.6237 47.2816 65.412C47.1789 65.3884 47.0882 65.3675 47.014 65.3485L46.4158 67.8093C46.4768 67.8248 46.5482 67.8442 46.6282 67.8659ZM47.4663 64.2701C48.2074 64.473 49.8238 64.9157 50.1054 63.7582C50.3929 62.5742 48.8219 62.2173 48.0546 62.043C47.9683 62.0234 47.8922 62.0061 47.83 61.9902L47.2877 64.2221C47.3389 64.2352 47.399 64.2516 47.4663 64.2701Z" fill="#F7931A"/>
<path d="M67.047 61.2057C67.8521 61.2057 68.5477 61.3538 69.1322 61.6445C69.7195 61.938 70.2041 62.3334 70.5929 62.8308C70.9764 63.3306 71.2618 63.9149 71.4461 64.5844C71.6291 65.2559 71.721 65.9777 71.721 66.7504C71.721 67.9373 71.5091 69.0587 71.0812 70.1157C70.6534 71.1744 70.0729 72.0926 69.3345 72.8758C68.5967 73.6581 67.7255 74.2748 66.7209 74.7304C65.7179 75.1863 64.6274 75.4143 63.4565 75.4143C63.3051 75.4143 63.0389 75.4098 62.6628 75.4019C62.2868 75.3939 61.8546 75.3541 61.3706 75.2869C60.8835 75.2172 60.3685 75.1141 59.8246 74.9759C59.2811 74.8402 58.7648 74.6502 58.2787 74.4088L62.6259 55.6636L66.5196 55.0443L64.963 61.6964C65.2963 61.5423 65.6319 61.4229 65.967 61.3359C66.3024 61.2503 66.6623 61.2057 67.047 61.2057ZM63.781 72.2445C64.3674 72.2445 64.9199 72.0964 65.439 71.8057C65.9596 71.5147 66.4088 71.1218 66.7852 70.6325C67.1615 70.1409 67.4593 69.5872 67.6765 68.9686C67.8937 68.35 68.0035 67.7046 68.0035 67.0331C68.0035 66.2082 67.8692 65.5647 67.6014 65.0996C67.3337 64.6363 66.8382 64.4033 66.1187 64.4033C65.8829 64.4033 65.5792 64.4494 65.2026 64.5319C64.8247 64.6194 64.4865 64.8013 64.1834 65.0747L62.526 72.1391C62.6259 72.1572 62.7143 72.1744 62.7897 72.1907C62.8636 72.2082 62.9452 72.2206 63.0264 72.2292C63.1124 72.239 63.2107 72.2441 63.3296 72.2441C63.4484 72.2441 63.597 72.2445 63.781 72.2445Z" fill="#5B5B5B"/>
<path d="M75.7589 75.0554H72.0399L75.1805 61.4932H78.925L75.7589 75.0554ZM77.5686 59.8408C77.0495 59.8408 76.5789 59.6822 76.1613 59.3645C75.7402 59.0486 75.5318 58.5624 75.5318 57.9072C75.5318 57.5468 75.6031 57.2087 75.7446 56.8896C75.8882 56.5713 76.0759 56.2971 76.3111 56.0641C76.546 55.8329 76.8181 55.6483 77.1271 55.5091C77.4379 55.3722 77.7687 55.3038 78.1211 55.3038C78.6399 55.3038 79.108 55.4623 79.5272 55.7801C79.9448 56.0994 80.1548 56.5856 80.1548 57.2373C80.1548 57.599 80.0838 57.9384 79.9411 58.2568C79.7993 58.5752 79.6116 58.8493 79.3764 59.0824C79.1434 59.3138 78.8688 59.4979 78.5604 59.6357C78.2493 59.7748 77.9198 59.8408 77.5686 59.8408Z" fill="#5B5B5B"/>
<path d="M82.1843 58.1142L86.0795 57.4949L85.123 61.4925H89.2946L88.5413 64.6376H84.3948L83.2903 69.3815C83.1885 69.7769 83.1308 70.1463 83.1147 70.4895C83.0964 70.8343 83.1389 71.1304 83.2394 71.3797C83.3393 71.6296 83.519 71.8222 83.7796 71.9585C84.039 72.097 84.4103 72.1667 84.8974 72.1667C85.2986 72.1667 85.6895 72.1276 86.0674 72.0499C86.4431 71.9735 86.8238 71.8671 87.2091 71.728L87.4865 74.6686C86.9839 74.8577 86.4397 75.0204 85.8533 75.1573C85.266 75.2961 84.5707 75.363 83.7672 75.363C82.6118 75.363 81.7161 75.1869 81.0779 74.8364C80.4406 74.4833 79.9902 74.0009 79.7205 73.3903C79.4547 72.7818 79.3358 72.0804 79.369 71.2902C79.4035 70.4981 79.5198 69.6655 79.7205 68.7887L82.1843 58.1142Z" fill="#5B5B5B"/>
<path d="M89.1308 69.6394C89.1308 68.4713 89.3151 67.3697 89.6834 66.3384C90.051 65.3062 90.5806 64.4036 91.2679 63.629C91.9526 62.8582 92.7868 62.2475 93.7688 61.7992C94.7461 61.3535 95.8404 61.1287 97.0463 61.1287C97.8012 61.1287 98.4753 61.2019 99.0685 61.3487C99.6642 61.4967 100.203 61.6881 100.691 61.9282L99.408 64.921C99.0729 64.7815 98.7251 64.6586 98.3655 64.5472C98.0056 64.4335 97.5663 64.3788 97.0466 64.3788C95.8053 64.3788 94.824 64.8178 94.0936 65.6931C93.3661 66.5689 92.9997 67.7479 92.9997 69.2268C92.9997 70.1033 93.184 70.8121 93.5538 71.3543C93.9218 71.8965 94.6015 72.1661 95.5884 72.1661C96.0755 72.1661 96.5456 72.1139 96.9957 72.0121C97.4493 71.9089 97.8499 71.779 98.2026 71.6255L98.4803 74.6935C98.01 74.8807 97.4912 75.0498 96.9222 75.1978C96.352 75.3408 95.6731 75.415 94.886 75.415C93.847 75.415 92.9674 75.2589 92.2479 74.9517C91.5282 74.6397 90.9334 74.2255 90.4649 73.7008C89.9939 73.1748 89.6558 72.5606 89.4467 71.8557C89.2376 71.1515 89.1308 70.4115 89.1308 69.6394Z" fill="#5B5B5B"/>
<path d="M105.652 75.415C104.764 75.415 103.993 75.2761 103.339 75.0014C102.687 74.7266 102.147 74.341 101.719 73.8412C101.292 73.3439 100.971 72.7545 100.752 72.0754C100.533 71.3966 100.427 70.6449 100.427 69.8212C100.427 68.7881 100.589 67.7552 100.916 66.7253C101.241 65.6931 101.723 64.7656 102.362 63.9413C102.995 63.1157 103.777 62.4408 104.697 61.9145C105.616 61.3917 106.674 61.1287 107.861 61.1287C108.733 61.1287 109.5 61.2678 110.163 61.5426C110.823 61.8167 111.366 62.2055 111.796 62.7028C112.221 63.2027 112.544 63.7894 112.761 64.4695C112.98 65.147 113.088 65.9006 113.088 66.7249C113.088 67.7549 112.928 68.7878 112.612 69.8209C112.295 70.849 111.825 71.7787 111.204 72.6049C110.585 73.4292 109.811 74.1038 108.881 74.6279C107.952 75.152 106.875 75.415 105.652 75.415ZM107.51 64.3791C106.959 64.3791 106.472 64.5434 106.054 64.8678C105.635 65.1961 105.284 65.6087 105 66.1063C104.713 66.6062 104.501 67.1513 104.357 67.7438C104.215 68.3376 104.145 68.8989 104.145 69.4322C104.145 70.2928 104.28 70.963 104.546 71.4453C104.816 71.9251 105.3 72.1665 106.004 72.1665C106.557 72.1665 107.042 72.0035 107.462 71.6755C107.878 71.3498 108.23 70.9369 108.516 70.4383C108.801 69.941 109.015 69.3943 109.159 68.8008C109.3 68.2089 109.371 67.6444 109.371 67.1121C109.371 66.2537 109.237 65.5819 108.968 65.1002C108.7 64.6204 108.214 64.3791 107.51 64.3791Z" fill="#5B5B5B"/>
<path d="M117.14 75.0554H113.418L116.559 61.4932H120.305L117.14 75.0554ZM118.947 59.8408C118.428 59.8408 117.958 59.6822 117.541 59.3645C117.122 59.0486 116.912 58.5624 116.912 57.9072C116.912 57.5468 116.984 57.2087 117.126 56.8896C117.268 56.5713 117.457 56.2971 117.692 56.0641C117.925 55.8329 118.2 55.6483 118.508 55.5091C118.817 55.3722 119.148 55.3038 119.499 55.3038C120.019 55.3038 120.489 55.4623 120.907 55.7801C121.326 56.0994 121.537 56.5856 121.537 57.2373C121.537 57.599 121.462 57.9384 121.321 58.2568C121.181 58.5752 120.992 58.8493 120.758 59.0824C120.522 59.3138 120.251 59.4979 119.942 59.6357C119.63 59.7748 119.3 59.8408 118.947 59.8408Z" fill="#5B5B5B"/>
<path d="M122.986 62.1098C123.268 62.0251 123.583 61.9232 123.926 61.8124C124.27 61.7016 124.654 61.5984 125.084 61.5055C125.508 61.4096 125.988 61.3319 126.515 61.2718C127.042 61.2103 127.643 61.1804 128.31 61.1804C130.271 61.1804 131.624 61.7665 132.37 62.9353C133.116 64.1041 133.245 65.7037 132.761 67.7312L131.05 75.054H127.307L128.965 67.8853C129.066 67.4376 129.145 67.0049 129.204 66.5821C129.263 66.1631 129.26 65.7938 129.191 65.4741C129.124 65.1583 128.969 64.8998 128.727 64.6995C128.482 64.5024 128.111 64.4034 127.608 64.4034C127.123 64.4034 126.63 64.4569 126.126 64.5601L123.689 75.0537H119.943L122.986 62.1098Z" fill="#5B5B5B"/>
<defs>
<filter id="filter0_d_779_4769" x="0.525842" y="0.719109" width="172.136" height="51.0413" filterUnits="userSpaceOnUse" color-interpolation-filters="sRGB">
<feFlood flood-opacity="0" result="BackgroundImageFix"/>
<feColorMatrix in="SourceAlpha" type="matrix" values="0 0 0 0 0 0 0 0 0 0 0 0 0 0 0 0 0 0 127 0" result="hardAlpha"/>
<feOffset dx="1.09363" dy="1.09363"/>
<feGaussianBlur stdDeviation="2.18726"/>
<feComposite in2="hardAlpha" operator="out"/>
<feColorMatrix type="matrix" values="0 0 0 0 0.141667 0 0 0 0 0.0543055 0 0 0 0 0.0324653 0 0 0 0.04 0"/>
<feBlend mode="normal" in2="BackgroundImageFix" result="effect1_dropShadow_779_4769"/>
<feBlend mode="normal" in="SourceGraphic" in2="effect1_dropShadow_779_4769" result="shape"/>
</filter>
<radialGradient id="paint0_diamond_779_4769" cx="0" cy="0" r="1" gradientUnits="userSpaceOnUse" gradientTransform="translate(167.193 4) rotate(165.488) scale(168.771 93.3379)">
<stop stop-color="#FFA24C"/>
<stop offset="0.50246" stop-color="#FF7A50"/>
<stop offset="1" stop-color="#FF4D42"/>
</radialGradient>
<radialGradient id="paint1_diamond_779_4769" cx="0" cy="0" r="1" gradientUnits="userSpaceOnUse" gradientTransform="translate(167.193 4) rotate(165.488) scale(168.771 93.3379)">
<stop stop-color="#FFA24C"/>
<stop offset="0.50246" stop-color="#FF7A50"/>
<stop offset="1" stop-color="#FF4D42"/>
</radialGradient>
<radialGradient id="paint2_diamond_779_4769" cx="0" cy="0" r="1" gradientUnits="userSpaceOnUse" gradientTransform="translate(167.193 4) rotate(165.488) scale(168.771 93.3379)">
<stop stop-color="#FFA24C"/>
<stop offset="0.50246" stop-color="#FF7A50"/>
<stop offset="1" stop-color="#FF4D42"/>
</radialGradient>
<radialGradient id="paint3_diamond_779_4769" cx="0" cy="0" r="1" gradientUnits="userSpaceOnUse" gradientTransform="translate(167.193 4) rotate(165.488) scale(168.771 93.3379)">
<stop stop-color="#FFA24C"/>
<stop offset="0.50246" stop-color="#FF7A50"/>
<stop offset="1" stop-color="#FF4D42"/>
</radialGradient>
<radialGradient id="paint4_diamond_779_4769" cx="0" cy="0" r="1" gradientUnits="userSpaceOnUse" gradientTransform="translate(167.193 4) rotate(165.488) scale(168.771 93.3379)">
<stop stop-color="#FFA24C"/>
<stop offset="0.50246" stop-color="#FF7A50"/>
<stop offset="1" stop-color="#FF4D42"/>
</radialGradient>
</defs>
</svg>
