<svg width="233" height="41" viewBox="0 0 233 41" fill="none" xmlns="http://www.w3.org/2000/svg">
<g filter="url(#filter0_d_9449_37727)">
<g clip-path="url(#paint0_diamond_9449_37727_clip_path)" data-figma-skip-parse="true"><g transform="matrix(-0.134107 0.0278496 -0.148534 -0.0326434 134.107 8.07519)"><rect x="0" y="0" width="1062.51" height="494.534" fill="url(#paint0_diamond_9449_37727)" opacity="1" shape-rendering="crispEdges"/><rect x="0" y="0" width="1062.51" height="494.534" transform="scale(1 -1)" fill="url(#paint0_diamond_9449_37727)" opacity="1" shape-rendering="crispEdges"/><rect x="0" y="0" width="1062.51" height="494.534" transform="scale(-1 1)" fill="url(#paint0_diamond_9449_37727)" opacity="1" shape-rendering="crispEdges"/><rect x="0" y="0" width="1062.51" height="494.534" transform="scale(-1)" fill="url(#paint0_diamond_9449_37727)" opacity="1" shape-rendering="crispEdges"/></g></g><path d="M14.308 19.1502C15.68 19.1502 16.7253 18.8399 17.444 18.2192C18.1953 17.5659 18.571 16.5859 18.571 15.2792C18.571 14.0379 18.179 13.0905 17.395 12.4372C16.6437 11.7512 15.533 11.4082 14.063 11.4082C13.5403 11.4082 13.0993 11.4245 12.74 11.4572C12.4133 11.4572 12.0703 11.4899 11.711 11.5552V19.1502H14.308ZM11.76 34.8792C11.4007 34.9772 10.829 35.0752 10.045 35.1732C9.29367 35.2712 8.54233 35.3202 7.791 35.3202C7.03967 35.3202 6.37 35.2549 5.782 35.1242C5.22667 35.0262 4.753 34.8302 4.361 34.5362C3.969 34.2422 3.675 33.8339 3.479 33.3112C3.283 32.7885 3.185 32.1025 3.185 31.2532V8.17419C3.185 7.48819 3.36467 6.96553 3.724 6.60619C4.116 6.21419 4.63867 5.90386 5.292 5.67519C6.40267 5.28319 7.66033 5.00553 9.065 4.84219C10.5023 4.64619 11.9397 4.54819 13.377 4.54819C17.885 4.54819 21.3313 5.51186 23.716 7.43919C26.1007 9.36653 27.293 11.9799 27.293 15.2792C27.293 16.8799 27.0317 18.3335 26.509 19.6402C26.019 20.9142 25.2677 22.0249 24.255 22.9722C23.275 23.8869 22.0173 24.6055 20.482 25.1282C18.9793 25.6182 17.2317 25.8632 15.239 25.8632H11.76V34.8792ZM42.8949 35.8592C40.9676 35.8592 39.1709 35.5979 37.5049 35.0752C35.8716 34.5199 34.4342 33.7032 33.1929 32.6252C31.9842 31.5472 31.0206 30.1915 30.3019 28.5582C29.6159 26.9249 29.2729 25.0139 29.2729 22.8252C29.2729 20.6692 29.6159 18.8235 30.3019 17.2882C31.0206 15.7202 31.9516 14.4462 33.0949 13.4662C34.2382 12.4535 35.5449 11.7185 37.0149 11.2612C38.4849 10.7712 39.9876 10.5262 41.5229 10.5262C43.2542 10.5262 44.8222 10.7875 46.2269 11.3102C47.6642 11.8329 48.8892 12.5515 49.9019 13.4662C50.9472 14.3809 51.7476 15.4752 52.3029 16.7492C52.8909 18.0232 53.1849 19.4115 53.1849 20.9142C53.1849 22.0249 52.8746 22.8742 52.2539 23.4622C51.6332 24.0502 50.7676 24.4259 49.6569 24.5892L37.5539 26.4022C37.9132 27.4802 38.6482 28.2969 39.7589 28.8522C40.8696 29.3749 42.1436 29.6362 43.5809 29.6362C44.9202 29.6362 46.1779 29.4729 47.3539 29.1462C48.5626 28.7869 49.5426 28.3785 50.2939 27.9212C50.8166 28.2479 51.2576 28.7052 51.6169 29.2932C51.9762 29.8812 52.1559 30.5019 52.1559 31.1552C52.1559 32.6252 51.4699 33.7195 50.0979 34.4382C49.0526 34.9935 47.8766 35.3692 46.5699 35.5652C45.2632 35.7612 44.0382 35.8592 42.8949 35.8592ZM41.5229 16.6022C40.7389 16.6022 40.0529 16.7329 39.4649 16.9942C38.9096 17.2555 38.4522 17.5985 38.0929 18.0232C37.7336 18.4152 37.4559 18.8725 37.2599 19.3952C37.0966 19.8852 36.9986 20.3915 36.9659 20.9142L45.3449 19.5422C45.2469 18.8889 44.8876 18.2355 44.2669 17.5822C43.6462 16.9289 42.7316 16.6022 41.5229 16.6022ZM67.3865 29.7832C67.9418 29.7832 68.5462 29.7342 69.1995 29.6362C69.8855 29.5055 70.3918 29.3422 70.7185 29.1462V25.2262L67.1905 25.5202C66.2758 25.5855 65.5245 25.7815 64.9365 26.1082C64.3485 26.4349 64.0545 26.9249 64.0545 27.5782C64.0545 28.2315 64.2995 28.7705 64.7895 29.1952C65.3122 29.5872 66.1778 29.7832 67.3865 29.7832ZM66.9945 10.5262C68.7585 10.5262 70.3592 10.7059 71.7965 11.0652C73.2665 11.4245 74.5078 11.9799 75.5205 12.7312C76.5658 13.4499 77.3662 14.3809 77.9215 15.5242C78.4768 16.6349 78.7545 17.9579 78.7545 19.4932V30.4692C78.7545 31.3185 78.5095 32.0209 78.0195 32.5762C77.5622 33.0989 77.0068 33.5562 76.3535 33.9482C74.2302 35.2222 71.2412 35.8592 67.3865 35.8592C65.6552 35.8592 64.0872 35.6959 62.6825 35.3692C61.3105 35.0425 60.1182 34.5525 59.1055 33.8992C58.1255 33.2459 57.3578 32.4129 56.8025 31.4002C56.2798 30.3875 56.0185 29.2115 56.0185 27.8722C56.0185 25.6182 56.6882 23.8869 58.0275 22.6782C59.3668 21.4695 61.4412 20.7182 64.2505 20.4242L70.6695 19.7382V19.3952C70.6695 18.4479 70.2448 17.7782 69.3955 17.3862C68.5788 16.9615 67.3865 16.7492 65.8185 16.7492C64.5772 16.7492 63.3685 16.8799 62.1925 17.1412C61.0165 17.4025 59.9548 17.7292 59.0075 18.1212C58.5828 17.8272 58.2235 17.3862 57.9295 16.7982C57.6355 16.1775 57.4885 15.5405 57.4885 14.8872C57.4885 14.0379 57.6845 13.3682 58.0765 12.8782C58.5012 12.3555 59.1382 11.9145 59.9875 11.5552C60.9348 11.1959 62.0455 10.9345 63.3195 10.7712C64.6262 10.6079 65.8512 10.5262 66.9945 10.5262ZM97.2738 17.0922C96.4571 17.0922 95.6731 17.2229 94.9218 17.4842C94.2031 17.7455 93.5661 18.1375 93.0108 18.6602C92.4881 19.1502 92.0635 19.7709 91.7368 20.5222C91.4101 21.2735 91.2468 22.1555 91.2468 23.1682C91.2468 25.1935 91.8185 26.7125 92.9618 27.7252C94.1378 28.7379 95.5588 29.2442 97.2248 29.2442C98.2048 29.2442 99.0541 29.1299 99.7728 28.9012C100.491 28.6725 101.128 28.4275 101.684 28.1662C102.337 28.6235 102.827 29.1299 103.154 29.6852C103.48 30.2079 103.644 30.8449 103.644 31.5962C103.644 32.9355 103.007 33.9809 101.733 34.7322C100.459 35.4509 98.6948 35.8102 96.4408 35.8102C94.3828 35.8102 92.5208 35.5162 90.8548 34.9282C89.1888 34.3075 87.7515 33.4582 86.5428 32.3802C85.3668 31.2695 84.4521 29.9465 83.7988 28.4112C83.1455 26.8759 82.8188 25.1772 82.8188 23.3152C82.8188 21.1592 83.1618 19.2809 83.8478 17.6802C84.5665 16.0469 85.5301 14.7075 86.7388 13.6622C87.9475 12.6169 89.3358 11.8329 90.9038 11.3102C92.5045 10.7875 94.1868 10.5262 95.9508 10.5262C98.3028 10.5262 100.116 10.9509 101.39 11.8002C102.664 12.6495 103.301 13.7439 103.301 15.0832C103.301 15.7039 103.154 16.2919 102.86 16.8472C102.566 17.3699 102.223 17.8272 101.831 18.2192C101.275 17.9579 100.606 17.7129 99.8218 17.4842C99.0378 17.2229 98.1885 17.0922 97.2738 17.0922ZM131.341 35.0262C131.015 35.1242 130.492 35.2222 129.773 35.3202C129.087 35.4182 128.369 35.4672 127.617 35.4672C126.899 35.4672 126.245 35.4182 125.657 35.3202C125.102 35.2222 124.628 35.0262 124.236 34.7322C123.844 34.4382 123.534 34.0462 123.305 33.5562C123.109 33.0335 123.011 32.3639 123.011 31.5472V20.6692C123.011 19.3299 122.668 18.3989 121.982 17.8762C121.329 17.3209 120.512 17.0432 119.532 17.0432C118.879 17.0432 118.258 17.1249 117.67 17.2882C117.082 17.4515 116.609 17.6475 116.249 17.8762V35.0262C115.923 35.1242 115.4 35.2222 114.681 35.3202C113.995 35.4182 113.277 35.4672 112.525 35.4672C111.807 35.4672 111.153 35.4182 110.565 35.3202C110.01 35.2222 109.536 35.0262 109.144 34.7322C108.752 34.4382 108.442 34.0462 108.213 33.5562C108.017 33.0335 107.919 32.3639 107.919 31.5472V3.12719C108.279 3.06186 108.801 2.98019 109.487 2.8822C110.206 2.75153 110.925 2.68619 111.643 2.68619C112.362 2.68619 112.999 2.73519 113.554 2.83319C114.142 2.93119 114.632 3.12719 115.024 3.42119C115.416 3.71519 115.71 4.12353 115.906 4.64619C116.135 5.13619 116.249 5.78953 116.249 6.60619V11.4082C116.674 11.2449 117.311 11.0652 118.16 10.8692C119.042 10.6405 120.006 10.5262 121.051 10.5262C124.285 10.5262 126.801 11.3429 128.597 12.9762C130.427 14.5769 131.341 16.9779 131.341 20.1792V35.0262Z" data-figma-gradient-fill="{&#34;type&#34;:&#34;GRADIENT_DIAMOND&#34;,&#34;stops&#34;:[{&#34;color&#34;:{&#34;r&#34;:1.0,&#34;g&#34;:0.63511133193969727,&#34;b&#34;:0.29941403865814209,&#34;a&#34;:1.0},&#34;position&#34;:0.0},{&#34;color&#34;:{&#34;r&#34;:1.0,&#34;g&#34;:0.47749984264373779,&#34;b&#34;:0.31250,&#34;a&#34;:1.0},&#34;position&#34;:0.50245994329452515},{&#34;color&#34;:{&#34;r&#34;:1.0,&#34;g&#34;:0.30283328890800476,&#34;b&#34;:0.25833332538604736,&#34;a&#34;:1.0},&#34;position&#34;:1.0}],&#34;stopsVar&#34;:[],&#34;transform&#34;:{&#34;m00&#34;:-268.21307373046875,&#34;m01&#34;:-297.06796264648438,&#34;m02&#34;:416.74703979492188,&#34;m10&#34;:55.699199676513672,&#34;m11&#34;:-65.286758422851562,&#34;m12&#34;:12.868975639343262},&#34;opacity&#34;:1.0,&#34;blendMode&#34;:&#34;NORMAL&#34;,&#34;visible&#34;:true}"/>
</g>
<g clip-path="url(#clip0_9449_37727)">
<path d="M159.427 28.3439C158.145 33.701 152.933 36.9612 147.787 35.6253C142.642 34.2897 139.511 28.8635 140.794 23.5067C142.077 18.149 147.288 14.8884 152.433 16.224C157.579 17.5597 160.71 22.9864 159.427 28.3439Z" fill="#F7931A"/>
<path d="M154.346 24.5003C154.537 23.1697 153.564 22.4544 152.233 21.9772L152.665 20.1747L151.611 19.9013L151.191 21.6563C150.914 21.5844 150.629 21.5166 150.346 21.4494L150.77 19.6829L149.716 19.4094L149.284 21.2113C149.055 21.1569 148.83 21.1032 148.612 21.0466L148.613 21.041L147.159 20.6632L146.879 21.835C146.879 21.835 147.661 22.0216 147.644 22.0331C148.071 22.1441 148.148 22.4381 148.135 22.6712L147.644 24.7247C147.673 24.7325 147.711 24.7437 147.753 24.7612C147.718 24.7522 147.681 24.7422 147.642 24.7325L146.953 27.609C146.901 27.744 146.768 27.9465 146.47 27.8696C146.48 27.8855 145.704 27.6705 145.704 27.6705L145.181 28.9265L146.552 29.2824C146.807 29.349 147.057 29.4186 147.303 29.4843L146.867 31.3074L147.92 31.5808L148.352 29.7771C148.639 29.8583 148.919 29.9333 149.192 30.004L148.761 31.7992L149.815 32.0727L150.251 30.253C152.048 30.6071 153.4 30.4643 153.969 28.7721C154.427 27.4096 153.946 26.6237 153 26.1112C153.689 25.9459 154.207 25.4743 154.346 24.5003ZM151.938 28.0155C151.612 29.378 149.409 28.6415 148.694 28.4568L149.273 26.0415C149.987 26.2271 152.278 26.5946 151.938 28.0155ZM152.264 24.4806C151.967 25.72 150.133 25.0903 149.538 24.9359L150.063 22.7453C150.657 22.8997 152.573 23.1878 152.264 24.4806Z" fill="#FCFCFD"/>
<path d="M168.655 21.9748C169.433 21.9748 170.106 22.1201 170.672 22.4054C171.24 22.6935 171.709 23.0816 172.085 23.5697C172.456 24.0604 172.732 24.6338 172.911 25.291C173.088 25.95 173.176 26.6585 173.176 27.4169C173.176 28.5819 172.971 29.6825 172.558 30.72C172.144 31.759 171.582 32.6602 170.868 33.429C170.154 34.1968 169.311 34.8021 168.339 35.2493C167.369 35.6967 166.314 35.9205 165.181 35.9205C165.034 35.9205 164.777 35.9161 164.413 35.9083C164.049 35.9005 163.631 35.8614 163.163 35.7955C162.691 35.7271 162.193 35.6258 161.667 35.4902C161.141 35.3571 160.642 35.1705 160.171 34.9336L164.377 16.5352L168.144 15.9274L166.638 22.4563C166.961 22.3051 167.285 22.1879 167.61 22.1026C167.934 22.0185 168.282 21.9748 168.655 21.9748ZM165.495 32.8093C166.062 32.8093 166.597 32.664 167.099 32.3787C167.602 32.0931 168.037 31.7074 168.401 31.2271C168.765 30.7446 169.053 30.2012 169.264 29.594C169.474 28.9869 169.58 28.3534 169.58 27.6944C169.58 26.8847 169.45 26.2531 169.191 25.7966C168.932 25.3419 168.453 25.1132 167.756 25.1132C167.528 25.1132 167.234 25.1585 166.87 25.2394C166.504 25.3253 166.177 25.5038 165.884 25.7722L164.281 32.7059C164.377 32.7237 164.463 32.7405 164.536 32.7565C164.607 32.7737 164.686 32.7859 164.765 32.7943C164.848 32.804 164.943 32.809 165.058 32.809C165.173 32.809 165.317 32.8093 165.495 32.8093Z" fill="#9F8C82"/>
<path d="M177.083 35.5686H173.485L176.524 22.2573H180.146L177.083 35.5686ZM178.834 20.6354C178.332 20.6354 177.876 20.4798 177.472 20.1679C177.065 19.8579 176.863 19.3808 176.863 18.7376C176.863 18.3839 176.932 18.052 177.069 17.7389C177.208 17.4264 177.39 17.1574 177.617 16.9286C177.845 16.7017 178.108 16.5205 178.407 16.3839C178.708 16.2496 179.028 16.1824 179.369 16.1824C179.87 16.1824 180.323 16.338 180.729 16.6499C181.133 16.9633 181.336 17.4405 181.336 18.0802C181.336 18.4352 181.267 18.7683 181.129 19.0808C180.992 19.3933 180.811 19.6623 180.583 19.8911C180.358 20.1182 180.092 20.2989 179.794 20.4342C179.492 20.5707 179.174 20.6354 178.834 20.6354Z" fill="#9F8C82"/>
<path d="M183.3 18.9404L187.068 18.3326L186.143 22.2563H190.179L189.45 25.3432H185.438L184.37 29.9993C184.271 30.3875 184.215 30.7499 184.2 31.0868C184.182 31.4252 184.223 31.7159 184.32 31.9606C184.417 32.2059 184.591 32.3949 184.843 32.5287C185.094 32.6646 185.453 32.733 185.924 32.733C186.313 32.733 186.691 32.6946 187.056 32.6184C187.42 32.5434 187.788 32.439 188.161 32.3024L188.429 35.1886C187.943 35.3743 187.417 35.5339 186.849 35.6683C186.281 35.8046 185.608 35.8702 184.831 35.8702C183.713 35.8702 182.847 35.6974 182.229 35.3533C181.613 35.0068 181.177 34.5333 180.916 33.934C180.659 33.3368 180.544 32.6484 180.576 31.8727C180.609 31.0953 180.722 30.2781 180.916 29.4175L183.3 18.9404Z" fill="#9F8C82"/>
<path d="M190.02 30.253C190.02 29.1064 190.199 28.0252 190.555 27.013C190.91 25.9999 191.423 25.114 192.088 24.3537C192.75 23.5971 193.557 22.9978 194.507 22.5578C195.453 22.1203 196.512 21.8997 197.678 21.8997C198.409 21.8997 199.061 21.9715 199.635 22.1156C200.211 22.2609 200.732 22.4487 201.204 22.6843L199.963 25.6218C199.639 25.4849 199.302 25.3643 198.955 25.2549C198.606 25.1434 198.181 25.0896 197.679 25.0896C196.478 25.0896 195.528 25.5205 194.822 26.3796C194.118 27.2393 193.763 28.3964 193.763 29.848C193.763 30.7083 193.942 31.4039 194.299 31.9361C194.655 32.4682 195.313 32.7329 196.268 32.7329C196.739 32.7329 197.194 32.6817 197.629 32.5817C198.068 32.4804 198.456 32.3529 198.797 32.2023L199.066 35.2135C198.611 35.3973 198.109 35.5632 197.558 35.7085C197.007 35.8488 196.35 35.9216 195.588 35.9216C194.583 35.9216 193.732 35.7685 193.036 35.467C192.34 35.1607 191.764 34.7541 191.311 34.2392C190.855 33.7229 190.528 33.1201 190.326 32.4282C190.123 31.737 190.02 31.0108 190.02 30.253Z" fill="#9F8C82"/>
<path d="M206.004 35.9216C205.145 35.9216 204.399 35.7854 203.767 35.5157C203.136 35.246 202.613 34.8676 202.2 34.377C201.786 33.8888 201.476 33.3104 201.264 32.6439C201.052 31.9776 200.95 31.2398 200.95 30.4314C200.95 29.4174 201.106 28.4036 201.422 27.3927C201.737 26.3796 202.203 25.4693 202.821 24.6602C203.434 23.8499 204.19 23.1874 205.08 22.6709C205.97 22.1578 206.993 21.8997 208.142 21.8997C208.985 21.8997 209.727 22.0362 210.368 22.3059C211.007 22.575 211.533 22.9565 211.948 23.4446C212.36 23.9353 212.672 24.5112 212.882 25.1787C213.094 25.8437 213.198 26.5833 213.198 27.3924C213.198 28.4033 213.044 29.417 212.738 30.4311C212.431 31.4401 211.977 32.3526 211.376 33.1635C210.777 33.9726 210.028 34.6348 209.128 35.1491C208.229 35.6635 207.187 35.9216 206.004 35.9216ZM207.802 25.0899C207.269 25.0899 206.797 25.2512 206.394 25.5696C205.988 25.8918 205.648 26.2968 205.374 26.7852C205.096 27.2758 204.891 27.8108 204.752 28.3924C204.614 28.9752 204.546 29.5261 204.546 30.0495C204.546 30.8942 204.677 31.552 204.935 32.0254C205.195 32.4964 205.664 32.7332 206.345 32.7332C206.88 32.7332 207.349 32.5732 207.756 32.2514C208.158 31.9317 208.499 31.5264 208.775 31.037C209.051 30.5489 209.258 30.0123 209.397 29.4299C209.533 28.8489 209.603 28.2949 209.603 27.7724C209.603 26.9299 209.472 26.2705 209.213 25.7977C208.953 25.3268 208.483 25.0899 207.802 25.0899Z" fill="#9F8C82"/>
<path d="M217.119 35.5686H213.518L216.557 22.2573H220.181L217.119 35.5686ZM218.867 20.6354C218.365 20.6354 217.91 20.4798 217.507 20.1679C217.102 19.8579 216.898 19.3808 216.898 18.7376C216.898 18.3839 216.968 18.052 217.105 17.7389C217.242 17.4264 217.425 17.1574 217.653 16.9286C217.879 16.7017 218.144 16.5205 218.443 16.3839C218.742 16.2496 219.062 16.1824 219.402 16.1824C219.905 16.1824 220.359 16.338 220.764 16.6499C221.169 16.9633 221.373 17.4405 221.373 18.0802C221.373 18.4352 221.3 18.7683 221.164 19.0808C221.028 19.3933 220.846 19.6623 220.619 19.8911C220.391 20.1182 220.129 20.2989 219.83 20.4342C219.528 20.5707 219.209 20.6354 218.867 20.6354Z" fill="#9F8C82"/>
<path d="M222.774 22.8627C223.047 22.7796 223.352 22.6796 223.684 22.5709C224.017 22.4621 224.389 22.3609 224.804 22.2696C225.215 22.1756 225.679 22.0993 226.189 22.0403C226.699 21.9799 227.28 21.9506 227.925 21.9506C229.823 21.9506 231.131 22.5259 231.853 23.673C232.575 24.8202 232.7 26.3902 232.231 28.3802L230.576 35.5675H226.955L228.559 28.5314C228.657 28.092 228.733 27.6673 228.79 27.2524C228.847 26.8411 228.844 26.4786 228.777 26.1649C228.713 25.8549 228.563 25.6011 228.329 25.4046C228.091 25.2111 227.733 25.114 227.246 25.114C226.777 25.114 226.3 25.1665 225.812 25.2677L223.454 35.5672H219.831L222.774 22.8627Z" fill="#9F8C82"/>
</g>
<defs>
<filter id="filter0_d_9449_37727" x="0.614265" y="0.115425" width="135.012" height="40.0283" filterUnits="userSpaceOnUse" color-interpolation-filters="sRGB">
<feFlood flood-opacity="0" result="BackgroundImageFix"/>
<feColorMatrix in="SourceAlpha" type="matrix" values="0 0 0 0 0 0 0 0 0 0 0 0 0 0 0 0 0 0 127 0" result="hardAlpha"/>
<feOffset dx="0.856911" dy="0.856911"/>
<feGaussianBlur stdDeviation="1.71382"/>
<feComposite in2="hardAlpha" operator="out"/>
<feColorMatrix type="matrix" values="0 0 0 0 0.141667 0 0 0 0 0.0543055 0 0 0 0 0.0324653 0 0 0 0.04 0"/>
<feBlend mode="normal" in2="BackgroundImageFix" result="effect1_dropShadow_9449_37727"/>
<feBlend mode="normal" in="SourceGraphic" in2="effect1_dropShadow_9449_37727" result="shape"/>
</filter>
<clipPath id="paint0_diamond_9449_37727_clip_path"><path d="M14.308 19.1502C15.68 19.1502 16.7253 18.8399 17.444 18.2192C18.1953 17.5659 18.571 16.5859 18.571 15.2792C18.571 14.0379 18.179 13.0905 17.395 12.4372C16.6437 11.7512 15.533 11.4082 14.063 11.4082C13.5403 11.4082 13.0993 11.4245 12.74 11.4572C12.4133 11.4572 12.0703 11.4899 11.711 11.5552V19.1502H14.308ZM11.76 34.8792C11.4007 34.9772 10.829 35.0752 10.045 35.1732C9.29367 35.2712 8.54233 35.3202 7.791 35.3202C7.03967 35.3202 6.37 35.2549 5.782 35.1242C5.22667 35.0262 4.753 34.8302 4.361 34.5362C3.969 34.2422 3.675 33.8339 3.479 33.3112C3.283 32.7885 3.185 32.1025 3.185 31.2532V8.17419C3.185 7.48819 3.36467 6.96553 3.724 6.60619C4.116 6.21419 4.63867 5.90386 5.292 5.67519C6.40267 5.28319 7.66033 5.00553 9.065 4.84219C10.5023 4.64619 11.9397 4.54819 13.377 4.54819C17.885 4.54819 21.3313 5.51186 23.716 7.43919C26.1007 9.36653 27.293 11.9799 27.293 15.2792C27.293 16.8799 27.0317 18.3335 26.509 19.6402C26.019 20.9142 25.2677 22.0249 24.255 22.9722C23.275 23.8869 22.0173 24.6055 20.482 25.1282C18.9793 25.6182 17.2317 25.8632 15.239 25.8632H11.76V34.8792ZM42.8949 35.8592C40.9676 35.8592 39.1709 35.5979 37.5049 35.0752C35.8716 34.5199 34.4342 33.7032 33.1929 32.6252C31.9842 31.5472 31.0206 30.1915 30.3019 28.5582C29.6159 26.9249 29.2729 25.0139 29.2729 22.8252C29.2729 20.6692 29.6159 18.8235 30.3019 17.2882C31.0206 15.7202 31.9516 14.4462 33.0949 13.4662C34.2382 12.4535 35.5449 11.7185 37.0149 11.2612C38.4849 10.7712 39.9876 10.5262 41.5229 10.5262C43.2542 10.5262 44.8222 10.7875 46.2269 11.3102C47.6642 11.8329 48.8892 12.5515 49.9019 13.4662C50.9472 14.3809 51.7476 15.4752 52.3029 16.7492C52.8909 18.0232 53.1849 19.4115 53.1849 20.9142C53.1849 22.0249 52.8746 22.8742 52.2539 23.4622C51.6332 24.0502 50.7676 24.4259 49.6569 24.5892L37.5539 26.4022C37.9132 27.4802 38.6482 28.2969 39.7589 28.8522C40.8696 29.3749 42.1436 29.6362 43.5809 29.6362C44.9202 29.6362 46.1779 29.4729 47.3539 29.1462C48.5626 28.7869 49.5426 28.3785 50.2939 27.9212C50.8166 28.2479 51.2576 28.7052 51.6169 29.2932C51.9762 29.8812 52.1559 30.5019 52.1559 31.1552C52.1559 32.6252 51.4699 33.7195 50.0979 34.4382C49.0526 34.9935 47.8766 35.3692 46.5699 35.5652C45.2632 35.7612 44.0382 35.8592 42.8949 35.8592ZM41.5229 16.6022C40.7389 16.6022 40.0529 16.7329 39.4649 16.9942C38.9096 17.2555 38.4522 17.5985 38.0929 18.0232C37.7336 18.4152 37.4559 18.8725 37.2599 19.3952C37.0966 19.8852 36.9986 20.3915 36.9659 20.9142L45.3449 19.5422C45.2469 18.8889 44.8876 18.2355 44.2669 17.5822C43.6462 16.9289 42.7316 16.6022 41.5229 16.6022ZM67.3865 29.7832C67.9418 29.7832 68.5462 29.7342 69.1995 29.6362C69.8855 29.5055 70.3918 29.3422 70.7185 29.1462V25.2262L67.1905 25.5202C66.2758 25.5855 65.5245 25.7815 64.9365 26.1082C64.3485 26.4349 64.0545 26.9249 64.0545 27.5782C64.0545 28.2315 64.2995 28.7705 64.7895 29.1952C65.3122 29.5872 66.1778 29.7832 67.3865 29.7832ZM66.9945 10.5262C68.7585 10.5262 70.3592 10.7059 71.7965 11.0652C73.2665 11.4245 74.5078 11.9799 75.5205 12.7312C76.5658 13.4499 77.3662 14.3809 77.9215 15.5242C78.4768 16.6349 78.7545 17.9579 78.7545 19.4932V30.4692C78.7545 31.3185 78.5095 32.0209 78.0195 32.5762C77.5622 33.0989 77.0068 33.5562 76.3535 33.9482C74.2302 35.2222 71.2412 35.8592 67.3865 35.8592C65.6552 35.8592 64.0872 35.6959 62.6825 35.3692C61.3105 35.0425 60.1182 34.5525 59.1055 33.8992C58.1255 33.2459 57.3578 32.4129 56.8025 31.4002C56.2798 30.3875 56.0185 29.2115 56.0185 27.8722C56.0185 25.6182 56.6882 23.8869 58.0275 22.6782C59.3668 21.4695 61.4412 20.7182 64.2505 20.4242L70.6695 19.7382V19.3952C70.6695 18.4479 70.2448 17.7782 69.3955 17.3862C68.5788 16.9615 67.3865 16.7492 65.8185 16.7492C64.5772 16.7492 63.3685 16.8799 62.1925 17.1412C61.0165 17.4025 59.9548 17.7292 59.0075 18.1212C58.5828 17.8272 58.2235 17.3862 57.9295 16.7982C57.6355 16.1775 57.4885 15.5405 57.4885 14.8872C57.4885 14.0379 57.6845 13.3682 58.0765 12.8782C58.5012 12.3555 59.1382 11.9145 59.9875 11.5552C60.9348 11.1959 62.0455 10.9345 63.3195 10.7712C64.6262 10.6079 65.8512 10.5262 66.9945 10.5262ZM97.2738 17.0922C96.4571 17.0922 95.6731 17.2229 94.9218 17.4842C94.2031 17.7455 93.5661 18.1375 93.0108 18.6602C92.4881 19.1502 92.0635 19.7709 91.7368 20.5222C91.4101 21.2735 91.2468 22.1555 91.2468 23.1682C91.2468 25.1935 91.8185 26.7125 92.9618 27.7252C94.1378 28.7379 95.5588 29.2442 97.2248 29.2442C98.2048 29.2442 99.0541 29.1299 99.7728 28.9012C100.491 28.6725 101.128 28.4275 101.684 28.1662C102.337 28.6235 102.827 29.1299 103.154 29.6852C103.48 30.2079 103.644 30.8449 103.644 31.5962C103.644 32.9355 103.007 33.9809 101.733 34.7322C100.459 35.4509 98.6948 35.8102 96.4408 35.8102C94.3828 35.8102 92.5208 35.5162 90.8548 34.9282C89.1888 34.3075 87.7515 33.4582 86.5428 32.3802C85.3668 31.2695 84.4521 29.9465 83.7988 28.4112C83.1455 26.8759 82.8188 25.1772 82.8188 23.3152C82.8188 21.1592 83.1618 19.2809 83.8478 17.6802C84.5665 16.0469 85.5301 14.7075 86.7388 13.6622C87.9475 12.6169 89.3358 11.8329 90.9038 11.3102C92.5045 10.7875 94.1868 10.5262 95.9508 10.5262C98.3028 10.5262 100.116 10.9509 101.39 11.8002C102.664 12.6495 103.301 13.7439 103.301 15.0832C103.301 15.7039 103.154 16.2919 102.86 16.8472C102.566 17.3699 102.223 17.8272 101.831 18.2192C101.275 17.9579 100.606 17.7129 99.8218 17.4842C99.0378 17.2229 98.1885 17.0922 97.2738 17.0922ZM131.341 35.0262C131.015 35.1242 130.492 35.2222 129.773 35.3202C129.087 35.4182 128.369 35.4672 127.617 35.4672C126.899 35.4672 126.245 35.4182 125.657 35.3202C125.102 35.2222 124.628 35.0262 124.236 34.7322C123.844 34.4382 123.534 34.0462 123.305 33.5562C123.109 33.0335 123.011 32.3639 123.011 31.5472V20.6692C123.011 19.3299 122.668 18.3989 121.982 17.8762C121.329 17.3209 120.512 17.0432 119.532 17.0432C118.879 17.0432 118.258 17.1249 117.67 17.2882C117.082 17.4515 116.609 17.6475 116.249 17.8762V35.0262C115.923 35.1242 115.4 35.2222 114.681 35.3202C113.995 35.4182 113.277 35.4672 112.525 35.4672C111.807 35.4672 111.153 35.4182 110.565 35.3202C110.01 35.2222 109.536 35.0262 109.144 34.7322C108.752 34.4382 108.442 34.0462 108.213 33.5562C108.017 33.0335 107.919 32.3639 107.919 31.5472V3.12719C108.279 3.06186 108.801 2.98019 109.487 2.8822C110.206 2.75153 110.925 2.68619 111.643 2.68619C112.362 2.68619 112.999 2.73519 113.554 2.83319C114.142 2.93119 114.632 3.12719 115.024 3.42119C115.416 3.71519 115.71 4.12353 115.906 4.64619C116.135 5.13619 116.249 5.78953 116.249 6.60619V11.4082C116.674 11.2449 117.311 11.0652 118.16 10.8692C119.042 10.6405 120.006 10.5262 121.051 10.5262C124.285 10.5262 126.801 11.3429 128.597 12.9762C130.427 14.5769 131.341 16.9779 131.341 20.1792V35.0262Z"/></clipPath><linearGradient id="paint0_diamond_9449_37727" x1="0" y1="0" x2="500" y2="500" gradientUnits="userSpaceOnUse">
<stop stop-color="#FFA24C"/>
<stop offset="0.50246" stop-color="#FF7A50"/>
<stop offset="1" stop-color="#FF4D42"/>
</linearGradient>
<clipPath id="clip0_9449_37727">
<rect width="92" height="20" fill="white" transform="translate(140.507 15.9248)"/>
</clipPath>
</defs>
</svg>
