<svg width="147" height="26" viewBox="0 0 147 26" fill="none" xmlns="http://www.w3.org/2000/svg">
<g filter="url(#filter0_d_9559_72706)">
<g clip-path="url(#paint0_diamond_9559_72706_clip_path)" data-figma-skip-parse="true"><g transform="matrix(-0.0838166 0.017406 -0.0928337 -0.0204021 83.8166 5.59375)"><rect x="0" y="0" width="1062.51" height="494.534" fill="url(#paint0_diamond_9559_72706)" opacity="1" shape-rendering="crispEdges"/><rect x="0" y="0" width="1062.51" height="494.534" transform="scale(1 -1)" fill="url(#paint0_diamond_9559_72706)" opacity="1" shape-rendering="crispEdges"/><rect x="0" y="0" width="1062.51" height="494.534" transform="scale(-1 1)" fill="url(#paint0_diamond_9559_72706)" opacity="1" shape-rendering="crispEdges"/><rect x="0" y="0" width="1062.51" height="494.534" transform="scale(-1)" fill="url(#paint0_diamond_9559_72706)" opacity="1" shape-rendering="crispEdges"/></g></g><path d="M8.93305 12.6511C9.78964 12.6511 10.4423 12.4574 10.891 12.0699C11.3601 11.662 11.5946 11.0501 11.5946 10.2343C11.5946 9.45931 11.3499 8.86785 10.8604 8.45995C10.3913 8.03165 9.69787 7.81751 8.78009 7.81751C8.45377 7.81751 8.17843 7.8277 7.95409 7.8481C7.75014 7.8481 7.53599 7.86849 7.31164 7.90928V12.6511H8.93305ZM7.34223 22.4714C7.11789 22.5326 6.76097 22.5938 6.27149 22.6549C5.8024 22.7161 5.33332 22.7467 4.86423 22.7467C4.39514 22.7467 3.97704 22.7059 3.60993 22.6243C3.26321 22.5632 2.96749 22.4408 2.72274 22.2572C2.478 22.0737 2.29445 21.8187 2.17208 21.4924C2.04971 21.1661 1.98852 20.7378 1.98852 20.2075V5.79839C1.98852 5.37009 2.10069 5.04377 2.32504 4.81943C2.56978 4.57468 2.8961 4.38093 3.304 4.23817C3.99744 3.99342 4.78265 3.82007 5.65964 3.71809C6.55702 3.59572 7.45441 3.53454 8.35179 3.53454C11.1663 3.53454 13.318 4.13619 14.8068 5.3395C16.2957 6.54281 17.0401 8.17442 17.0401 10.2343C17.0401 11.2337 16.8769 12.1413 16.5506 12.9571C16.2447 13.7525 15.7756 14.4459 15.1434 15.0374C14.5315 15.6084 13.7463 16.0571 12.7877 16.3834C11.8495 16.6894 10.7584 16.8423 9.51431 16.8423H7.34223V22.4714ZM26.781 23.0832C25.5777 23.0832 24.4559 22.9201 23.4158 22.5938C22.396 22.247 21.4987 21.7372 20.7236 21.0641C19.969 20.3911 19.3674 19.5447 18.9187 18.5249C18.4904 17.5052 18.2762 16.3121 18.2762 14.9456C18.2762 13.5995 18.4904 12.4472 18.9187 11.4886C19.3674 10.5097 19.9486 9.71425 20.6625 9.1024C21.3763 8.47015 22.1921 8.01126 23.1099 7.72573C24.0276 7.4198 24.9658 7.26684 25.9244 7.26684C27.0053 7.26684 27.9843 7.43 28.8613 7.75632C29.7587 8.08264 30.5235 8.53133 31.1557 9.1024C31.8084 9.67346 32.3081 10.3567 32.6548 11.1521C33.0219 11.9475 33.2054 12.8143 33.2054 13.7525C33.2054 14.4459 33.0117 14.9762 32.6242 15.3433C32.2367 15.7104 31.6962 15.9449 31.0028 16.0469L23.4464 17.1789C23.6707 17.8519 24.1296 18.3618 24.8231 18.7085C25.5165 19.0348 26.3119 19.198 27.2093 19.198C28.0455 19.198 28.8307 19.096 29.5649 18.892C30.3195 18.6677 30.9314 18.4128 31.4005 18.1272C31.7268 18.3312 32.0021 18.6167 32.2265 18.9838C32.4508 19.3509 32.563 19.7384 32.563 20.1463C32.563 21.0641 32.1347 21.7474 31.2781 22.196C30.6255 22.5428 29.8912 22.7773 29.0754 22.8997C28.2596 23.022 27.4948 23.0832 26.781 23.0832ZM25.9244 11.0603C25.4349 11.0603 25.0066 11.1419 24.6395 11.3051C24.2928 11.4682 24.0073 11.6824 23.7829 11.9475C23.5586 12.1923 23.3852 12.4778 23.2628 12.8041C23.1609 13.11 23.0997 13.4262 23.0793 13.7525L28.3106 12.8959C28.2494 12.488 28.0251 12.0801 27.6376 11.6722C27.2501 11.2643 26.679 11.0603 25.9244 11.0603ZM42.072 19.2897C42.4188 19.2897 42.7961 19.2592 43.204 19.198C43.6323 19.1164 43.9484 19.0144 44.1523 18.892V16.4446L41.9497 16.6282C41.3786 16.669 40.9095 16.7913 40.5424 16.9953C40.1753 17.1992 39.9917 17.5052 39.9917 17.9131C39.9917 18.321 40.1447 18.6575 40.4506 18.9226C40.777 19.1674 41.3174 19.2897 42.072 19.2897ZM41.8273 7.26684C42.9286 7.26684 43.928 7.37901 44.8254 7.60336C45.7432 7.8277 46.5182 8.17442 47.1504 8.64351C47.8031 9.0922 48.3027 9.67346 48.6495 10.3873C48.9962 11.0807 49.1695 11.9067 49.1695 12.8653V19.718C49.1695 20.2483 49.0166 20.6868 48.7107 21.0335C48.4251 21.3598 48.0784 21.6454 47.6705 21.8901C46.3448 22.6855 44.4787 23.0832 42.072 23.0832C40.9911 23.0832 40.0121 22.9813 39.1352 22.7773C38.2786 22.5734 37.5341 22.2674 36.9019 21.8595C36.29 21.4516 35.8108 20.9315 35.464 20.2993C35.1377 19.6671 34.9746 18.9328 34.9746 18.0966C34.9746 16.6894 35.3927 15.6084 36.2289 14.8538C37.0651 14.0992 38.3601 13.6301 40.1141 13.4466L44.1218 13.0183V12.8041C44.1218 12.2126 43.8566 11.7945 43.3263 11.5498C42.8165 11.2847 42.072 11.1521 41.0931 11.1521C40.3181 11.1521 39.5635 11.2337 38.8292 11.3968C38.095 11.56 37.4322 11.764 36.8407 12.0087C36.5756 11.8251 36.3512 11.5498 36.1677 11.1827C35.9841 10.7952 35.8923 10.3975 35.8923 9.98958C35.8923 9.45931 36.0147 9.04121 36.2594 8.73528C36.5246 8.40896 36.9223 8.13363 37.4526 7.90928C38.044 7.68494 38.7375 7.52178 39.5329 7.4198C40.3487 7.31782 41.1135 7.26684 41.8273 7.26684ZM60.7319 11.3663C60.222 11.3663 59.7325 11.4478 59.2634 11.611C58.8147 11.7742 58.417 12.0189 58.0703 12.3452C57.744 12.6511 57.4789 13.0386 57.2749 13.5077C57.071 13.9768 56.969 14.5275 56.969 15.1597C56.969 16.4242 57.3259 17.3726 58.0397 18.0049C58.774 18.6371 59.6611 18.9532 60.7013 18.9532C61.3131 18.9532 61.8434 18.8818 62.2921 18.7391C62.7408 18.5963 63.1385 18.4433 63.4852 18.2802C63.8931 18.5657 64.199 18.8818 64.403 19.2286C64.607 19.5549 64.7089 19.9526 64.7089 20.4217C64.7089 21.2579 64.3112 21.9105 63.5158 22.3796C62.7204 22.8283 61.6191 23.0526 60.2118 23.0526C58.9269 23.0526 57.7644 22.8691 56.7242 22.502C55.6841 22.1145 54.7867 21.5842 54.0321 20.9112C53.2979 20.2177 52.7268 19.3917 52.3189 18.4332C51.911 17.4746 51.7071 16.414 51.7071 15.2515C51.7071 13.9054 51.9212 12.7327 52.3495 11.7334C52.7982 10.7136 53.3998 9.87741 54.1545 9.22477C54.9091 8.57212 55.7759 8.08264 56.7548 7.75632C57.7542 7.43 58.8045 7.26684 59.9059 7.26684C61.3743 7.26684 62.5063 7.53197 63.3017 8.06225C64.0971 8.59252 64.4948 9.27575 64.4948 10.112C64.4948 10.4995 64.403 10.8666 64.2194 11.2133C64.0359 11.5396 63.8217 11.8251 63.577 12.0699C63.2303 11.9067 62.8122 11.7538 62.3227 11.611C61.8332 11.4478 61.3029 11.3663 60.7319 11.3663ZM82.0017 22.5632C81.7977 22.6243 81.4714 22.6855 81.0227 22.7467C80.5944 22.8079 80.1457 22.8385 79.6766 22.8385C79.2279 22.8385 78.82 22.8079 78.4529 22.7467C78.1062 22.6855 77.8105 22.5632 77.5657 22.3796C77.321 22.196 77.1272 21.9513 76.9845 21.6454C76.8621 21.3191 76.8009 20.901 76.8009 20.3911V13.5995C76.8009 12.7633 76.5868 12.1821 76.1585 11.8557C75.7506 11.509 75.2407 11.3357 74.6288 11.3357C74.2209 11.3357 73.8334 11.3866 73.4663 11.4886C73.0992 11.5906 72.8035 11.713 72.5791 11.8557V22.5632C72.3752 22.6243 72.0489 22.6855 71.6002 22.7467C71.1719 22.8079 70.7232 22.8385 70.2541 22.8385C69.8054 22.8385 69.3975 22.8079 69.0304 22.7467C68.6837 22.6855 68.3879 22.5632 68.1432 22.3796C67.8984 22.196 67.7047 21.9513 67.5619 21.6454C67.4396 21.3191 67.3784 20.901 67.3784 20.3911V2.64735C67.6027 2.60656 67.929 2.55557 68.3573 2.49439C68.806 2.41281 69.2547 2.37202 69.7034 2.37202C70.1521 2.37202 70.5498 2.40261 70.8965 2.46379C71.2636 2.52498 71.5696 2.64735 71.8143 2.8309C72.059 3.01446 72.2426 3.2694 72.365 3.59572C72.5077 3.90165 72.5791 4.30955 72.5791 4.81943V7.81751C72.8443 7.71553 73.242 7.60336 73.7722 7.48099C74.3229 7.33822 74.9246 7.26684 75.5772 7.26684C77.5963 7.26684 79.1667 7.77671 80.2885 8.79647C81.4306 9.79583 82.0017 11.2949 82.0017 13.2936V22.5632Z" data-figma-gradient-fill="{&#34;type&#34;:&#34;GRADIENT_DIAMOND&#34;,&#34;stops&#34;:[{&#34;color&#34;:{&#34;r&#34;:0.68627452850341797,&#34;g&#34;:0.85490196943283081,&#34;b&#34;:0.45098039507865906,&#34;a&#34;:1.0},&#34;position&#34;:0.0},{&#34;color&#34;:{&#34;r&#34;:0.39607843756675720,&#34;g&#34;:0.64705884456634521,&#34;b&#34;:0.098039217293262482,&#34;a&#34;:1.0},&#34;position&#34;:0.50245994329452515},{&#34;color&#34;:{&#34;r&#34;:0.30980393290519714,&#34;g&#34;:0.56862747669219971,&#34;b&#34;:0.047058824449777603,&#34;a&#34;:1.0},&#34;position&#34;:1.0}],&#34;stopsVar&#34;:[],&#34;transform&#34;:{&#34;m00&#34;:-167.63317871093750,&#34;m01&#34;:-185.667480468750,&#34;m02&#34;:260.46691894531250,&#34;m10&#34;:34.812000274658203,&#34;m11&#34;:-40.804225921630859,&#34;m12&#34;:8.5898628234863281},&#34;opacity&#34;:1.0,&#34;blendMode&#34;:&#34;NORMAL&#34;,&#34;visible&#34;:true}"/>
</g>
<g clip-path="url(#clip0_9559_72706)">
<path d="M99.9505 18.0724C99.1278 21.5545 95.7854 23.6737 92.4851 22.8053C89.1861 21.9372 87.1778 18.4102 88.0009 14.9283C88.8232 11.4457 92.1656 9.32637 95.4649 10.1945C98.7651 11.0627 100.773 14.5901 99.9505 18.0724Z" fill="#F7931A"/>
<path d="M96.6916 15.5737C96.8143 14.7088 96.1902 14.2439 95.3368 13.9337L95.6137 12.7621L94.9378 12.5844L94.6683 13.7251C94.4906 13.6784 94.3081 13.6343 94.1268 13.5906L94.3982 12.4424L93.7228 12.2646L93.4458 13.4358C93.2987 13.4005 93.1543 13.3656 93.0142 13.3288L93.015 13.3251L92.0829 13.0796L91.9031 13.8413C91.9031 13.8413 92.4046 13.9625 92.394 13.9701C92.6677 14.0422 92.7172 14.2333 92.7089 14.3848L92.3936 15.7195C92.4124 15.7246 92.4369 15.7319 92.4639 15.7433C92.4413 15.7374 92.4173 15.7309 92.3924 15.7246L91.9505 17.5944C91.917 17.6821 91.8321 17.8137 91.6407 17.7638C91.6475 17.7741 91.1495 17.6344 91.1495 17.6344L90.814 18.4507L91.6935 18.6821C91.8571 18.7253 92.0174 18.7706 92.1753 18.8133L91.8956 19.9983L92.5707 20.176L92.8477 19.0036C93.0321 19.0564 93.2111 19.1052 93.3863 19.1511L93.1103 20.318L93.7861 20.4958L94.0658 19.313C95.2183 19.5431 96.0849 19.4503 96.4497 18.3504C96.7436 17.4648 96.435 16.9539 95.8287 16.6208C96.2703 16.5134 96.6029 16.2068 96.6916 15.5737ZM95.1474 17.8586C94.9386 18.7442 93.5255 18.2655 93.0673 18.1454L93.4385 16.5755C93.8966 16.6962 95.3657 16.935 95.1474 17.8586ZM95.3565 15.5609C95.1659 16.3665 93.9898 15.9572 93.6082 15.8569L93.9447 14.433C94.3262 14.5333 95.5549 14.7206 95.3565 15.5609Z" fill="#FCFCFD"/>
<path d="M105.868 13.9328C106.368 13.9328 106.799 14.0272 107.162 14.2127C107.526 14.3999 107.827 14.6522 108.068 14.9695C108.306 15.2884 108.483 15.6611 108.597 16.0883C108.711 16.5167 108.768 16.9772 108.768 17.4701C108.768 18.2274 108.637 18.9428 108.371 19.6171C108.106 20.2925 107.745 20.8783 107.287 21.378C106.83 21.8771 106.289 22.2705 105.666 22.5612C105.043 22.852 104.367 22.9975 103.64 22.9975C103.546 22.9975 103.381 22.9946 103.148 22.9896C102.915 22.9845 102.646 22.9591 102.346 22.9162C102.044 22.8717 101.724 22.8059 101.387 22.7178C101.05 22.6313 100.729 22.51 100.428 22.356L103.125 10.397L105.541 10.002L104.575 14.2458C104.782 14.1475 104.99 14.0713 105.198 14.0158C105.406 13.9612 105.629 13.9328 105.868 13.9328ZM103.842 20.9752C104.205 20.9752 104.548 20.8807 104.87 20.6953C105.193 20.5096 105.472 20.259 105.706 19.9468C105.939 19.6332 106.124 19.28 106.259 18.8853C106.393 18.4906 106.462 18.0789 106.462 17.6505C106.462 17.1242 106.378 16.7137 106.212 16.4169C106.046 16.1214 105.739 15.9727 105.292 15.9727C105.146 15.9727 104.957 16.0022 104.724 16.0548C104.489 16.1106 104.279 16.2266 104.091 16.4011L103.063 20.908C103.125 20.9195 103.18 20.9305 103.227 20.9409C103.272 20.952 103.323 20.96 103.373 20.9655C103.427 20.9718 103.488 20.975 103.562 20.975C103.635 20.975 103.727 20.9752 103.842 20.9752Z" fill="#9F8C82"/>
<path d="M111.273 22.769H108.966L110.914 14.1167H113.238L111.273 22.769ZM112.396 13.0625C112.074 13.0625 111.782 12.9613 111.523 12.7586C111.262 12.5571 111.132 12.2469 111.132 11.8289C111.132 11.599 111.177 11.3832 111.264 11.1797C111.354 10.9766 111.47 10.8017 111.616 10.653C111.762 10.5056 111.93 10.3877 112.122 10.299C112.315 10.2116 112.52 10.168 112.739 10.168C113.061 10.168 113.351 10.2691 113.611 10.4718C113.87 10.6756 114.001 10.9857 114.001 11.4015C114.001 11.6323 113.957 11.8488 113.868 12.0519C113.78 12.255 113.664 12.4299 113.518 12.5786C113.373 12.7263 113.203 12.8437 113.012 12.9316C112.818 13.0204 112.614 13.0625 112.396 13.0625Z" fill="#9F8C82"/>
<path d="M115.26 11.9605L117.677 11.5654L117.083 14.1158H119.671L119.204 16.1223H116.631L115.946 19.1488C115.883 19.4011 115.847 19.6367 115.837 19.8556C115.826 20.0756 115.852 20.2645 115.915 20.4236C115.977 20.583 116.088 20.7059 116.25 20.7929C116.411 20.8812 116.641 20.9257 116.943 20.9257C117.192 20.9257 117.435 20.9007 117.669 20.8511C117.902 20.8024 118.138 20.7346 118.378 20.6458L118.55 22.5218C118.238 22.6425 117.9 22.7463 117.536 22.8336C117.172 22.9222 116.741 22.9648 116.242 22.9648C115.525 22.9648 114.969 22.8525 114.573 22.6289C114.178 22.4036 113.899 22.0959 113.731 21.7063C113.566 21.3181 113.493 20.8706 113.513 20.3665C113.535 19.8611 113.607 19.33 113.731 18.7706L115.26 11.9605Z" fill="#9F8C82"/>
<path d="M119.57 19.3134C119.57 18.5682 119.684 17.8654 119.913 17.2075C120.141 16.549 120.469 15.9731 120.896 15.4789C121.321 14.9871 121.838 14.5976 122.447 14.3116C123.054 14.0272 123.733 13.8838 124.481 13.8838C124.949 13.8838 125.368 13.9305 125.736 14.0241C126.105 14.1186 126.44 14.2407 126.742 14.3938L125.946 16.3032C125.738 16.2142 125.523 16.1358 125.299 16.0647C125.076 15.9922 124.804 15.9573 124.481 15.9573C123.711 15.9573 123.102 16.2374 122.649 16.7957C122.198 17.3545 121.97 18.1067 121.97 19.0502C121.97 19.6094 122.085 20.0615 122.314 20.4075C122.542 20.7534 122.964 20.9254 123.576 20.9254C123.879 20.9254 124.17 20.8921 124.45 20.8271C124.731 20.7613 124.98 20.6784 125.198 20.5805L125.371 22.5378C125.079 22.6572 124.757 22.7651 124.404 22.8595C124.05 22.9507 123.629 22.9981 123.141 22.9981C122.496 22.9981 121.95 22.8985 121.504 22.7025C121.057 22.5035 120.688 22.2392 120.398 21.9045C120.105 21.5689 119.896 21.1771 119.766 20.7274C119.636 20.2781 119.57 19.806 119.57 19.3134Z" fill="#9F8C82"/>
<path d="M129.82 22.9981C129.269 22.9981 128.791 22.9095 128.385 22.7342C127.981 22.5589 127.645 22.3129 127.38 21.994C127.115 21.6768 126.916 21.3008 126.78 20.8675C126.644 20.4345 126.579 19.9549 126.579 19.4294C126.579 18.7703 126.679 18.1114 126.882 17.4543C127.083 16.7957 127.383 16.2041 127.779 15.6782C128.172 15.1515 128.657 14.7209 129.228 14.3851C129.798 14.0516 130.454 13.8838 131.191 13.8838C131.732 13.8838 132.208 13.9726 132.619 14.1478C133.028 14.3227 133.366 14.5707 133.632 14.888C133.896 15.2069 134.096 15.5813 134.231 16.0151C134.367 16.4474 134.434 16.9282 134.434 17.4541C134.434 18.1112 134.335 18.7701 134.139 19.4292C133.942 20.0851 133.65 20.6782 133.265 21.2053C132.881 21.7312 132.401 22.1616 131.824 22.496C131.247 22.8303 130.579 22.9981 129.82 22.9981ZM130.973 15.9575C130.631 15.9575 130.329 16.0623 130.07 16.2692C129.81 16.4787 129.592 16.7419 129.416 17.0594C129.238 17.3783 129.106 17.726 129.017 18.1041C128.929 18.4829 128.885 18.841 128.885 19.1812C128.885 19.7302 128.969 20.1578 129.134 20.4655C129.301 20.7717 129.602 20.9256 130.039 20.9256C130.382 20.9256 130.683 20.8216 130.943 20.6124C131.202 20.4046 131.42 20.1412 131.597 19.8231C131.774 19.5058 131.907 19.157 131.996 18.7784C132.083 18.4008 132.128 18.0407 132.128 17.7011C132.128 17.1534 132.044 16.7249 131.878 16.4175C131.712 16.1114 131.41 15.9575 130.973 15.9575Z" fill="#9F8C82"/>
<path d="M136.948 22.769H134.639L136.587 14.1167H138.912L136.948 22.769ZM138.069 13.0625C137.747 13.0625 137.455 12.9613 137.197 12.7586C136.937 12.5571 136.806 12.2469 136.806 11.8289C136.806 11.599 136.851 11.3832 136.939 11.1797C137.027 10.9766 137.144 10.8017 137.29 10.653C137.435 10.5056 137.606 10.3877 137.797 10.299C137.989 10.2116 138.194 10.168 138.412 10.168C138.734 10.168 139.026 10.2691 139.285 10.4718C139.545 10.6756 139.676 10.9857 139.676 11.4015C139.676 11.6323 139.63 11.8488 139.542 12.0519C139.455 12.255 139.338 12.4299 139.193 12.5786C139.046 12.7263 138.878 12.8437 138.686 12.9316C138.493 13.0204 138.288 13.0625 138.069 13.0625Z" fill="#9F8C82"/>
<path d="M140.575 14.5089C140.75 14.4549 140.946 14.3899 141.158 14.3192C141.372 14.2485 141.61 14.1827 141.877 14.1234C142.14 14.0623 142.438 14.0127 142.765 13.9743C143.092 13.9351 143.464 13.916 143.879 13.916C145.095 13.916 145.934 14.29 146.398 15.0356C146.86 15.7813 146.94 16.8018 146.64 18.0952L145.579 22.7671H143.256L144.285 18.1936C144.347 17.908 144.397 17.6319 144.433 17.3622C144.47 17.0949 144.468 16.8593 144.425 16.6553C144.384 16.4538 144.287 16.2889 144.137 16.1611C143.985 16.0354 143.755 15.9722 143.443 15.9722C143.142 15.9722 142.836 16.0063 142.524 16.0722L141.011 22.7668H138.688L140.575 14.5089Z" fill="#9F8C82"/>
</g>
<defs>
<filter id="filter0_d_9559_72706" x="0.381573" y="0.765363" width="84.2977" height="24.9955" filterUnits="userSpaceOnUse" color-interpolation-filters="sRGB">
<feFlood flood-opacity="0" result="BackgroundImageFix"/>
<feColorMatrix in="SourceAlpha" type="matrix" values="0 0 0 0 0 0 0 0 0 0 0 0 0 0 0 0 0 0 127 0" result="hardAlpha"/>
<feOffset dx="0.535569" dy="0.535569"/>
<feGaussianBlur stdDeviation="1.07114"/>
<feComposite in2="hardAlpha" operator="out"/>
<feColorMatrix type="matrix" values="0 0 0 0 0.141667 0 0 0 0 0.0543055 0 0 0 0 0.0324653 0 0 0 0.04 0"/>
<feBlend mode="normal" in2="BackgroundImageFix" result="effect1_dropShadow_9559_72706"/>
<feBlend mode="normal" in="SourceGraphic" in2="effect1_dropShadow_9559_72706" result="shape"/>
</filter>
<clipPath id="paint0_diamond_9559_72706_clip_path"><path d="M8.93305 12.6511C9.78964 12.6511 10.4423 12.4574 10.891 12.0699C11.3601 11.662 11.5946 11.0501 11.5946 10.2343C11.5946 9.45931 11.3499 8.86785 10.8604 8.45995C10.3913 8.03165 9.69787 7.81751 8.78009 7.81751C8.45377 7.81751 8.17843 7.8277 7.95409 7.8481C7.75014 7.8481 7.53599 7.86849 7.31164 7.90928V12.6511H8.93305ZM7.34223 22.4714C7.11789 22.5326 6.76097 22.5938 6.27149 22.6549C5.8024 22.7161 5.33332 22.7467 4.86423 22.7467C4.39514 22.7467 3.97704 22.7059 3.60993 22.6243C3.26321 22.5632 2.96749 22.4408 2.72274 22.2572C2.478 22.0737 2.29445 21.8187 2.17208 21.4924C2.04971 21.1661 1.98852 20.7378 1.98852 20.2075V5.79839C1.98852 5.37009 2.10069 5.04377 2.32504 4.81943C2.56978 4.57468 2.8961 4.38093 3.304 4.23817C3.99744 3.99342 4.78265 3.82007 5.65964 3.71809C6.55702 3.59572 7.45441 3.53454 8.35179 3.53454C11.1663 3.53454 13.318 4.13619 14.8068 5.3395C16.2957 6.54281 17.0401 8.17442 17.0401 10.2343C17.0401 11.2337 16.8769 12.1413 16.5506 12.9571C16.2447 13.7525 15.7756 14.4459 15.1434 15.0374C14.5315 15.6084 13.7463 16.0571 12.7877 16.3834C11.8495 16.6894 10.7584 16.8423 9.51431 16.8423H7.34223V22.4714ZM26.781 23.0832C25.5777 23.0832 24.4559 22.9201 23.4158 22.5938C22.396 22.247 21.4987 21.7372 20.7236 21.0641C19.969 20.3911 19.3674 19.5447 18.9187 18.5249C18.4904 17.5052 18.2762 16.3121 18.2762 14.9456C18.2762 13.5995 18.4904 12.4472 18.9187 11.4886C19.3674 10.5097 19.9486 9.71425 20.6625 9.1024C21.3763 8.47015 22.1921 8.01126 23.1099 7.72573C24.0276 7.4198 24.9658 7.26684 25.9244 7.26684C27.0053 7.26684 27.9843 7.43 28.8613 7.75632C29.7587 8.08264 30.5235 8.53133 31.1557 9.1024C31.8084 9.67346 32.3081 10.3567 32.6548 11.1521C33.0219 11.9475 33.2054 12.8143 33.2054 13.7525C33.2054 14.4459 33.0117 14.9762 32.6242 15.3433C32.2367 15.7104 31.6962 15.9449 31.0028 16.0469L23.4464 17.1789C23.6707 17.8519 24.1296 18.3618 24.8231 18.7085C25.5165 19.0348 26.3119 19.198 27.2093 19.198C28.0455 19.198 28.8307 19.096 29.5649 18.892C30.3195 18.6677 30.9314 18.4128 31.4005 18.1272C31.7268 18.3312 32.0021 18.6167 32.2265 18.9838C32.4508 19.3509 32.563 19.7384 32.563 20.1463C32.563 21.0641 32.1347 21.7474 31.2781 22.196C30.6255 22.5428 29.8912 22.7773 29.0754 22.8997C28.2596 23.022 27.4948 23.0832 26.781 23.0832ZM25.9244 11.0603C25.4349 11.0603 25.0066 11.1419 24.6395 11.3051C24.2928 11.4682 24.0073 11.6824 23.7829 11.9475C23.5586 12.1923 23.3852 12.4778 23.2628 12.8041C23.1609 13.11 23.0997 13.4262 23.0793 13.7525L28.3106 12.8959C28.2494 12.488 28.0251 12.0801 27.6376 11.6722C27.2501 11.2643 26.679 11.0603 25.9244 11.0603ZM42.072 19.2897C42.4188 19.2897 42.7961 19.2592 43.204 19.198C43.6323 19.1164 43.9484 19.0144 44.1523 18.892V16.4446L41.9497 16.6282C41.3786 16.669 40.9095 16.7913 40.5424 16.9953C40.1753 17.1992 39.9917 17.5052 39.9917 17.9131C39.9917 18.321 40.1447 18.6575 40.4506 18.9226C40.777 19.1674 41.3174 19.2897 42.072 19.2897ZM41.8273 7.26684C42.9286 7.26684 43.928 7.37901 44.8254 7.60336C45.7432 7.8277 46.5182 8.17442 47.1504 8.64351C47.8031 9.0922 48.3027 9.67346 48.6495 10.3873C48.9962 11.0807 49.1695 11.9067 49.1695 12.8653V19.718C49.1695 20.2483 49.0166 20.6868 48.7107 21.0335C48.4251 21.3598 48.0784 21.6454 47.6705 21.8901C46.3448 22.6855 44.4787 23.0832 42.072 23.0832C40.9911 23.0832 40.0121 22.9813 39.1352 22.7773C38.2786 22.5734 37.5341 22.2674 36.9019 21.8595C36.29 21.4516 35.8108 20.9315 35.464 20.2993C35.1377 19.6671 34.9746 18.9328 34.9746 18.0966C34.9746 16.6894 35.3927 15.6084 36.2289 14.8538C37.0651 14.0992 38.3601 13.6301 40.1141 13.4466L44.1218 13.0183V12.8041C44.1218 12.2126 43.8566 11.7945 43.3263 11.5498C42.8165 11.2847 42.072 11.1521 41.0931 11.1521C40.3181 11.1521 39.5635 11.2337 38.8292 11.3968C38.095 11.56 37.4322 11.764 36.8407 12.0087C36.5756 11.8251 36.3512 11.5498 36.1677 11.1827C35.9841 10.7952 35.8923 10.3975 35.8923 9.98958C35.8923 9.45931 36.0147 9.04121 36.2594 8.73528C36.5246 8.40896 36.9223 8.13363 37.4526 7.90928C38.044 7.68494 38.7375 7.52178 39.5329 7.4198C40.3487 7.31782 41.1135 7.26684 41.8273 7.26684ZM60.7319 11.3663C60.222 11.3663 59.7325 11.4478 59.2634 11.611C58.8147 11.7742 58.417 12.0189 58.0703 12.3452C57.744 12.6511 57.4789 13.0386 57.2749 13.5077C57.071 13.9768 56.969 14.5275 56.969 15.1597C56.969 16.4242 57.3259 17.3726 58.0397 18.0049C58.774 18.6371 59.6611 18.9532 60.7013 18.9532C61.3131 18.9532 61.8434 18.8818 62.2921 18.7391C62.7408 18.5963 63.1385 18.4433 63.4852 18.2802C63.8931 18.5657 64.199 18.8818 64.403 19.2286C64.607 19.5549 64.7089 19.9526 64.7089 20.4217C64.7089 21.2579 64.3112 21.9105 63.5158 22.3796C62.7204 22.8283 61.6191 23.0526 60.2118 23.0526C58.9269 23.0526 57.7644 22.8691 56.7242 22.502C55.6841 22.1145 54.7867 21.5842 54.0321 20.9112C53.2979 20.2177 52.7268 19.3917 52.3189 18.4332C51.911 17.4746 51.7071 16.414 51.7071 15.2515C51.7071 13.9054 51.9212 12.7327 52.3495 11.7334C52.7982 10.7136 53.3998 9.87741 54.1545 9.22477C54.9091 8.57212 55.7759 8.08264 56.7548 7.75632C57.7542 7.43 58.8045 7.26684 59.9059 7.26684C61.3743 7.26684 62.5063 7.53197 63.3017 8.06225C64.0971 8.59252 64.4948 9.27575 64.4948 10.112C64.4948 10.4995 64.403 10.8666 64.2194 11.2133C64.0359 11.5396 63.8217 11.8251 63.577 12.0699C63.2303 11.9067 62.8122 11.7538 62.3227 11.611C61.8332 11.4478 61.3029 11.3663 60.7319 11.3663ZM82.0017 22.5632C81.7977 22.6243 81.4714 22.6855 81.0227 22.7467C80.5944 22.8079 80.1457 22.8385 79.6766 22.8385C79.2279 22.8385 78.82 22.8079 78.4529 22.7467C78.1062 22.6855 77.8105 22.5632 77.5657 22.3796C77.321 22.196 77.1272 21.9513 76.9845 21.6454C76.8621 21.3191 76.8009 20.901 76.8009 20.3911V13.5995C76.8009 12.7633 76.5868 12.1821 76.1585 11.8557C75.7506 11.509 75.2407 11.3357 74.6288 11.3357C74.2209 11.3357 73.8334 11.3866 73.4663 11.4886C73.0992 11.5906 72.8035 11.713 72.5791 11.8557V22.5632C72.3752 22.6243 72.0489 22.6855 71.6002 22.7467C71.1719 22.8079 70.7232 22.8385 70.2541 22.8385C69.8054 22.8385 69.3975 22.8079 69.0304 22.7467C68.6837 22.6855 68.3879 22.5632 68.1432 22.3796C67.8984 22.196 67.7047 21.9513 67.5619 21.6454C67.4396 21.3191 67.3784 20.901 67.3784 20.3911V2.64735C67.6027 2.60656 67.929 2.55557 68.3573 2.49439C68.806 2.41281 69.2547 2.37202 69.7034 2.37202C70.1521 2.37202 70.5498 2.40261 70.8965 2.46379C71.2636 2.52498 71.5696 2.64735 71.8143 2.8309C72.059 3.01446 72.2426 3.2694 72.365 3.59572C72.5077 3.90165 72.5791 4.30955 72.5791 4.81943V7.81751C72.8443 7.71553 73.242 7.60336 73.7722 7.48099C74.3229 7.33822 74.9246 7.26684 75.5772 7.26684C77.5963 7.26684 79.1667 7.77671 80.2885 8.79647C81.4306 9.79583 82.0017 11.2949 82.0017 13.2936V22.5632Z"/></clipPath><linearGradient id="paint0_diamond_9559_72706" x1="0" y1="0" x2="500" y2="500" gradientUnits="userSpaceOnUse">
<stop stop-color="#AFDA73"/>
<stop offset="0.50246" stop-color="#65A519"/>
<stop offset="1" stop-color="#4F910C"/>
</linearGradient>
<clipPath id="clip0_9559_72706">
<rect width="59" height="13" fill="white" transform="translate(87.8164 10)"/>
</clipPath>
</defs>
</svg>
