<?xml version="1.0" encoding="utf-8"?>
<!-- Generator: Adobe Illustrator 28.1.0, SVG Export Plug-In . SVG Version: 6.00 Build 0)  -->
<svg version="1.1" id="Layer_1" xmlns="http://www.w3.org/2000/svg" xmlns:xlink="http://www.w3.org/1999/xlink" x="0px" y="0px"
	 viewBox="0 0 173 76" style="enable-background:new 0 0 173 76;" xml:space="preserve">
<style type="text/css">
	.st0{fill:url(#SVGID_1_);}
	.st1{fill:url(#SVGID_00000131367064185006124120000001760168574124995742_);}
	.st2{fill:url(#SVGID_00000101818288638593121660000012295591493696414873_);}
	.st3{fill:url(#SVGID_00000129164388115541090940000002207585848658610101_);}
	.st4{fill:url(#SVGID_00000107555604371914253580000011070665658219586186_);}
	.st5{fill-rule:evenodd;clip-rule:evenodd;fill:#F7931A;}
	.st6{fill:#FFFCFA;}
</style>
<g>
	
		<radialGradient id="SVGID_1_" cx="-454.231" cy="1009.7687" r="1" gradientTransform="matrix(-163.3864 42.2911 23.3889 90.36 -97665.3047 -72028.75)" gradientUnits="userSpaceOnUse">
		<stop  offset="0" style="stop-color:#FFA24C"/>
		<stop  offset="0.5025" style="stop-color:#FF7A50"/>
		<stop  offset="1" style="stop-color:#FF4D42"/>
	</radialGradient>
	<path class="st0" d="M18,25c1.7,0,3.1-0.4,4-1.2c1-0.8,1.4-2.1,1.4-3.7c0-1.6-0.5-2.8-1.5-3.6c-1-0.9-2.4-1.3-4.2-1.3
		c-0.7,0-1.2,0-1.7,0.1c-0.4,0-0.9,0-1.3,0.1V25H18z M14.7,45c-0.5,0.1-1.2,0.2-2.2,0.4c-1,0.1-1.9,0.2-2.9,0.2s-1.8-0.1-2.6-0.2
		c-0.7-0.1-1.3-0.4-1.8-0.7c-0.5-0.4-0.9-0.9-1.1-1.6c-0.2-0.7-0.4-1.5-0.4-2.6V11c0-0.9,0.2-1.5,0.7-2c0.5-0.5,1.2-0.9,2-1.2
		c1.4-0.5,3-0.9,4.8-1.1c1.8-0.2,3.7-0.4,5.5-0.4c5.7,0,10.1,1.2,13.2,3.7c3,2.5,4.6,5.8,4.6,10c0,2-0.3,3.9-1,5.6
		c-0.6,1.6-1.6,3-2.9,4.2c-1.2,1.2-2.9,2.1-4.8,2.7c-1.9,0.6-4.1,0.9-6.7,0.9h-4.4V45z"/>
	
		<radialGradient id="SVGID_00000092443987978443063260000014333612274310546875_" cx="-454.231" cy="1009.7687" r="1" gradientTransform="matrix(-163.3864 42.2911 23.3889 90.36 -97665.3047 -72028.75)" gradientUnits="userSpaceOnUse">
		<stop  offset="0" style="stop-color:#FFA24C"/>
		<stop  offset="0.5025" style="stop-color:#FF7A50"/>
		<stop  offset="1" style="stop-color:#FF4D42"/>
	</radialGradient>
	<path style="fill:url(#SVGID_00000092443987978443063260000014333612274310546875_);" d="M54.4,46.3c-2.5,0-4.7-0.3-6.9-1
		c-2.1-0.7-3.9-1.7-5.5-3.1c-1.5-1.4-2.8-3.1-3.7-5.2c-0.9-2.1-1.3-4.5-1.3-7.3c0-2.7,0.4-5.1,1.3-7.1c0.9-2,2.1-3.6,3.6-4.9
		c1.5-1.3,3.1-2.2,5-2.8c1.9-0.6,3.8-0.9,5.7-0.9c2.2,0,4.2,0.3,6,1c1.8,0.7,3.4,1.6,4.7,2.7c1.3,1.2,2.4,2.6,3.1,4.2
		c0.7,1.6,1.1,3.4,1.1,5.3c0,1.4-0.4,2.5-1.2,3.2c-0.8,0.7-1.9,1.2-3.3,1.4l-15.4,2.3c0.5,1.4,1.4,2.4,2.8,3.1c1.4,0.7,3,1,4.9,1
		c1.7,0,3.3-0.2,4.8-0.6c1.5-0.5,2.8-1,3.7-1.6c0.7,0.4,1.2,1,1.7,1.7c0.5,0.7,0.7,1.5,0.7,2.4c0,1.9-0.9,3.3-2.6,4.2
		c-1.3,0.7-2.8,1.2-4.5,1.4C57.5,46.2,55.9,46.3,54.4,46.3z M52.7,21.7c-1,0-1.9,0.2-2.6,0.5c-0.7,0.3-1.3,0.8-1.7,1.3
		c-0.5,0.5-0.8,1.1-1.1,1.7c-0.2,0.6-0.3,1.3-0.4,1.9l10.7-1.7c-0.1-0.8-0.6-1.7-1.4-2.5C55.4,22.2,54.2,21.7,52.7,21.7z"/>
	
		<radialGradient id="SVGID_00000182487148199693300930000003422021046508324543_" cx="-454.231" cy="1009.7687" r="1" gradientTransform="matrix(-163.3864 42.2911 23.3889 90.36 -97665.3047 -72028.75)" gradientUnits="userSpaceOnUse">
		<stop  offset="0" style="stop-color:#FFA24C"/>
		<stop  offset="0.5025" style="stop-color:#FF7A50"/>
		<stop  offset="1" style="stop-color:#FF4D42"/>
	</radialGradient>
	<path style="fill:url(#SVGID_00000182487148199693300930000003422021046508324543_);" d="M85.7,38.5c0.7,0,1.5-0.1,2.3-0.2
		c0.9-0.2,1.5-0.4,1.9-0.6v-5l-4.5,0.4c-1.2,0.1-2.1,0.3-2.9,0.7c-0.7,0.4-1.1,1-1.1,1.9c0,0.8,0.3,1.5,0.9,2.1
		C83,38.3,84.1,38.5,85.7,38.5z M85.2,14c2.2,0,4.3,0.2,6.1,0.7c1.9,0.5,3.5,1.2,4.7,2.1c1.3,0.9,2.4,2.1,3.1,3.6
		c0.7,1.4,1.1,3.1,1.1,5.1v14c0,1.1-0.3,2-0.9,2.7c-0.6,0.7-1.3,1.2-2.1,1.7c-2.7,1.6-6.5,2.4-11.4,2.4c-2.2,0-4.2-0.2-6-0.6
		c-1.7-0.4-3.3-1-4.6-1.9c-1.2-0.8-2.2-1.9-2.9-3.2c-0.7-1.3-1-2.8-1-4.5c0-2.9,0.9-5.1,2.6-6.6c1.7-1.5,4.4-2.5,7.9-2.9l8.2-0.9
		v-0.4c0-1.2-0.5-2.1-1.6-2.6c-1-0.5-2.6-0.8-4.6-0.8c-1.6,0-3.1,0.2-4.6,0.5c-1.5,0.3-2.9,0.7-4.1,1.2c-0.5-0.4-1-0.9-1.4-1.7
		c-0.4-0.8-0.6-1.6-0.6-2.4c0-1.1,0.2-1.9,0.7-2.6c0.5-0.7,1.4-1.2,2.4-1.7c1.2-0.5,2.6-0.8,4.2-1C82.1,14.1,83.7,14,85.2,14z"/>
	
		<radialGradient id="SVGID_00000154384993416645840150000014155338572619947926_" cx="-454.231" cy="1009.7687" r="1" gradientTransform="matrix(-163.3864 42.2911 23.3889 90.36 -97665.3047 -72028.75)" gradientUnits="userSpaceOnUse">
		<stop  offset="0" style="stop-color:#FFA24C"/>
		<stop  offset="0.5025" style="stop-color:#FF7A50"/>
		<stop  offset="1" style="stop-color:#FF4D42"/>
	</radialGradient>
	<path style="fill:url(#SVGID_00000154384993416645840150000014155338572619947926_);" d="M123.8,22.4c-1,0-2,0.2-3,0.5
		c-0.9,0.3-1.7,0.8-2.4,1.5c-0.7,0.6-1.2,1.4-1.6,2.4c-0.4,1-0.6,2.1-0.6,3.4c0,2.6,0.7,4.5,2.2,5.8c1.5,1.3,3.3,1.9,5.4,1.9
		c1.2,0,2.3-0.1,3.2-0.4c0.9-0.3,1.7-0.6,2.4-0.9c0.8,0.6,1.5,1.2,1.9,1.9c0.4,0.7,0.6,1.5,0.6,2.4c0,1.7-0.8,3-2.4,4
		c-1.6,0.9-3.9,1.4-6.7,1.4c-2.6,0-5-0.4-7.1-1.1c-2.1-0.8-4-1.9-5.5-3.2c-1.5-1.4-2.7-3.1-3.5-5.1c-0.8-2-1.2-4.1-1.2-6.5
		c0-2.7,0.4-5.1,1.3-7.2c0.9-2.1,2.1-3.8,3.7-5.1c1.5-1.3,3.3-2.3,5.3-3c2-0.7,4.2-1,6.4-1c3,0,5.3,0.5,6.9,1.6
		c1.6,1.1,2.4,2.5,2.4,4.2c0,0.8-0.2,1.5-0.6,2.2c-0.4,0.7-0.8,1.2-1.3,1.7c-0.7-0.3-1.6-0.6-2.6-0.9
		C126,22.5,124.9,22.4,123.8,22.4z"/>
	
		<radialGradient id="SVGID_00000060740631752305702710000014850235448716061602_" cx="-454.231" cy="1009.7687" r="1" gradientTransform="matrix(-163.3864 42.2911 23.3889 90.36 -97665.3047 -72028.75)" gradientUnits="userSpaceOnUse">
		<stop  offset="0" style="stop-color:#FFA24C"/>
		<stop  offset="0.5025" style="stop-color:#FF7A50"/>
		<stop  offset="1" style="stop-color:#FF4D42"/>
	</radialGradient>
	<path style="fill:url(#SVGID_00000060740631752305702710000014850235448716061602_);" d="M167.2,45.2c-0.4,0.1-1.1,0.2-2,0.4
		c-0.9,0.1-1.8,0.2-2.7,0.2c-0.9,0-1.8-0.1-2.5-0.2c-0.7-0.1-1.3-0.4-1.8-0.7s-0.9-0.9-1.2-1.5c-0.2-0.7-0.4-1.5-0.4-2.6V26.9
		c0-1.7-0.4-2.9-1.3-3.6c-0.8-0.7-1.9-1.1-3.1-1.1c-0.8,0-1.6,0.1-2.4,0.3c-0.8,0.2-1.4,0.5-1.8,0.7v21.9c-0.4,0.1-1.1,0.2-2,0.4
		c-0.9,0.1-1.8,0.2-2.7,0.2c-0.9,0-1.7-0.1-2.5-0.2c-0.7-0.1-1.3-0.4-1.8-0.7c-0.5-0.4-0.9-0.9-1.2-1.5c-0.2-0.7-0.4-1.5-0.4-2.6
		V4.6c0.5-0.1,1.1-0.2,2-0.3c0.9-0.2,1.8-0.2,2.7-0.2c0.9,0,1.7,0.1,2.4,0.2c0.7,0.1,1.4,0.4,1.9,0.7c0.5,0.4,0.9,0.9,1.1,1.6
		C147.8,7.1,148,8,148,9v6.1c0.5-0.2,1.4-0.4,2.4-0.7c1.1-0.3,2.4-0.4,3.7-0.4c4.1,0,7.3,1,9.6,3.1c2.3,2,3.5,5.1,3.5,9.2V45.2z"/>
</g>
<path class="st5" d="M45.5,75.1c5.3,1.4,10.7-2,12-7.4c1.3-5.5-1.9-11-7.2-12.3c-5.3-1.4-10.7,2-12,7.4
	C36.9,68.2,40.2,73.8,45.5,75.1z M50.1,61.2c1.4,0.5,2.4,1.2,2.2,2.6c-0.1,1-0.7,1.5-1.4,1.6c1,0.5,1.5,1.3,1,2.7
	c-0.6,1.7-2,1.9-3.8,1.5l-0.5,1.9l-1.1-0.3l0.4-1.8c-0.3-0.1-0.6-0.1-0.9-0.2L45.6,71l-1.1-0.3l0.5-1.9c-0.1,0-0.2-0.1-0.3-0.1
	c-0.2,0-0.3-0.1-0.5-0.1l-1.4-0.4l0.5-1.3c0,0,0.8,0.2,0.8,0.2c0.3,0.1,0.4-0.1,0.5-0.3l0.7-2.9c0,0,0.1,0,0.1,0c0,0,0,0,0,0
	c0,0-0.1,0-0.1,0l0.5-2.1c0-0.2-0.1-0.5-0.5-0.7c0,0-0.8-0.2-0.8-0.2l0.3-1.2l1.5,0.4l0,0c0.2,0.1,0.5,0.1,0.7,0.2l0.4-1.8l1.1,0.3
	l-0.4,1.8c0.3,0.1,0.6,0.1,0.9,0.2l0.4-1.8l1.1,0.3L50.1,61.2z M46.6,67.9c0.9,0.2,2.8,0.8,3.1-0.5c0.3-1.3-1.6-1.7-2.5-1.9
	c-0.1,0-0.2,0-0.3-0.1l-0.6,2.5C46.5,67.8,46.5,67.8,46.6,67.9z M47.5,64.3c0.7,0.2,2.4,0.6,2.6-0.5c0.3-1.2-1.3-1.5-2.1-1.7
	c-0.1,0-0.2,0-0.2-0.1l-0.5,2.2C47.3,64.2,47.4,64.3,47.5,64.3z"/>
<path class="st6" d="M67,61.2c0.8,0,1.5,0.1,2.1,0.4c0.6,0.3,1.1,0.7,1.5,1.2c0.4,0.5,0.7,1.1,0.9,1.8c0.2,0.7,0.3,1.4,0.3,2.2
	c0,1.2-0.2,2.3-0.6,3.4c-0.4,1.1-1,2-1.7,2.8c-0.7,0.8-1.6,1.4-2.6,1.9c-1,0.5-2.1,0.7-3.3,0.7c-0.2,0-0.4,0-0.8,0
	c-0.4,0-0.8,0-1.3-0.1c-0.5-0.1-1-0.2-1.5-0.3c-0.5-0.1-1.1-0.3-1.5-0.6l4.3-18.7l3.9-0.6L65,61.7c0.3-0.2,0.7-0.3,1-0.4
	C66.3,61.3,66.7,61.2,67,61.2z M63.8,72.2c0.6,0,1.1-0.1,1.7-0.4c0.5-0.3,1-0.7,1.3-1.2c0.4-0.5,0.7-1,0.9-1.7S68,67.7,68,67
	c0-0.8-0.1-1.5-0.4-1.9c-0.3-0.5-0.8-0.7-1.5-0.7c-0.2,0-0.5,0-0.9,0.1c-0.4,0.1-0.7,0.3-1,0.5l-1.7,7.1c0.1,0,0.2,0,0.3,0.1
	c0.1,0,0.2,0,0.2,0c0.1,0,0.2,0,0.3,0C63.4,72.2,63.6,72.2,63.8,72.2z"/>
<path class="st6" d="M75.8,75.1H72l3.1-13.6h3.7L75.8,75.1z M77.6,59.8c-0.5,0-1-0.2-1.4-0.5c-0.4-0.3-0.6-0.8-0.6-1.5
	c0-0.4,0.1-0.7,0.2-1c0.1-0.3,0.3-0.6,0.6-0.8c0.2-0.2,0.5-0.4,0.8-0.6c0.3-0.1,0.6-0.2,1-0.2c0.5,0,1,0.2,1.4,0.5
	c0.4,0.3,0.6,0.8,0.6,1.5c0,0.4-0.1,0.7-0.2,1c-0.1,0.3-0.3,0.6-0.6,0.8c-0.2,0.2-0.5,0.4-0.8,0.6C78.2,59.8,77.9,59.8,77.6,59.8z"
	/>
<path class="st6" d="M82.2,58.1l3.9-0.6l-1,4h4.2l-0.8,3.1h-4.1l-1.1,4.7c-0.1,0.4-0.2,0.8-0.2,1.1c0,0.3,0,0.6,0.1,0.9
	c0.1,0.2,0.3,0.4,0.5,0.6c0.3,0.1,0.6,0.2,1.1,0.2c0.4,0,0.8,0,1.2-0.1c0.4-0.1,0.8-0.2,1.1-0.3l0.3,2.9c-0.5,0.2-1,0.4-1.6,0.5
	c-0.6,0.1-1.3,0.2-2.1,0.2c-1.2,0-2.1-0.2-2.7-0.5c-0.6-0.4-1.1-0.8-1.4-1.4c-0.3-0.6-0.4-1.3-0.4-2.1c0-0.8,0.2-1.6,0.4-2.5
	L82.2,58.1z"/>
<path class="st6" d="M89.1,69.6c0-1.2,0.2-2.3,0.6-3.3c0.4-1,0.9-1.9,1.6-2.7c0.7-0.8,1.5-1.4,2.5-1.8c1-0.4,2.1-0.7,3.3-0.7
	c0.8,0,1.4,0.1,2,0.2c0.6,0.1,1.1,0.3,1.6,0.6l-1.3,3c-0.3-0.1-0.7-0.3-1-0.4c-0.4-0.1-0.8-0.2-1.3-0.2c-1.2,0-2.2,0.4-3,1.3
	c-0.7,0.9-1.1,2.1-1.1,3.5c0,0.9,0.2,1.6,0.6,2.1c0.4,0.5,1,0.8,2,0.8c0.5,0,1-0.1,1.4-0.2c0.5-0.1,0.9-0.2,1.2-0.4l0.3,3.1
	c-0.5,0.2-1,0.4-1.6,0.5c-0.6,0.1-1.2,0.2-2,0.2c-1,0-1.9-0.2-2.6-0.5c-0.7-0.3-1.3-0.7-1.8-1.3c-0.5-0.5-0.8-1.1-1-1.8
	C89.2,71.2,89.1,70.4,89.1,69.6z"/>
<path class="st6" d="M105.7,75.4c-0.9,0-1.7-0.1-2.3-0.4c-0.7-0.3-1.2-0.7-1.6-1.2c-0.4-0.5-0.7-1.1-1-1.8c-0.2-0.7-0.3-1.4-0.3-2.3
	c0-1,0.2-2.1,0.5-3.1c0.3-1,0.8-2,1.4-2.8c0.6-0.8,1.4-1.5,2.3-2c0.9-0.5,2-0.8,3.2-0.8c0.9,0,1.6,0.1,2.3,0.4
	c0.7,0.3,1.2,0.7,1.6,1.2c0.4,0.5,0.7,1.1,1,1.8c0.2,0.7,0.3,1.4,0.3,2.3c0,1-0.2,2.1-0.5,3.1c-0.3,1-0.8,2-1.4,2.8
	c-0.6,0.8-1.4,1.5-2.3,2C108,75.2,106.9,75.4,105.7,75.4z M107.5,64.4c-0.6,0-1,0.2-1.5,0.5c-0.4,0.3-0.8,0.7-1.1,1.2
	c-0.3,0.5-0.5,1-0.6,1.6c-0.1,0.6-0.2,1.2-0.2,1.7c0,0.9,0.1,1.5,0.4,2c0.3,0.5,0.8,0.7,1.5,0.7c0.6,0,1-0.2,1.5-0.5
	c0.4-0.3,0.8-0.7,1.1-1.2c0.3-0.5,0.5-1,0.6-1.6c0.1-0.6,0.2-1.2,0.2-1.7c0-0.9-0.1-1.5-0.4-2C108.7,64.6,108.2,64.4,107.5,64.4z"/>
<path class="st6" d="M117.1,75.1h-3.7l3.1-13.6h3.7L117.1,75.1z M118.9,59.8c-0.5,0-1-0.2-1.4-0.5c-0.4-0.3-0.6-0.8-0.6-1.5
	c0-0.4,0.1-0.7,0.2-1c0.1-0.3,0.3-0.6,0.6-0.8c0.2-0.2,0.5-0.4,0.8-0.6c0.3-0.1,0.6-0.2,1-0.2c0.5,0,1,0.2,1.4,0.5
	c0.4,0.3,0.6,0.8,0.6,1.5c0,0.4-0.1,0.7-0.2,1c-0.1,0.3-0.3,0.6-0.6,0.8c-0.2,0.2-0.5,0.4-0.8,0.6C119.6,59.8,119.3,59.8,118.9,59.8
	z"/>
<path class="st6" d="M123,62.1c0.3-0.1,0.6-0.2,0.9-0.3c0.3-0.1,0.7-0.2,1.2-0.3c0.4-0.1,0.9-0.2,1.4-0.2c0.5-0.1,1.1-0.1,1.8-0.1
	c2,0,3.3,0.6,4.1,1.8c0.7,1.2,0.9,2.8,0.4,4.8l-1.7,7.3h-3.7l1.7-7.2c0.1-0.4,0.2-0.9,0.2-1.3c0.1-0.4,0.1-0.8,0-1.1
	c-0.1-0.3-0.2-0.6-0.5-0.8c-0.2-0.2-0.6-0.3-1.1-0.3c-0.5,0-1,0.1-1.5,0.2l-2.4,10.5h-3.7L123,62.1z"/>
</svg>
