<svg width="173" height="73" viewBox="0 0 173 73" fill="none" xmlns="http://www.w3.org/2000/svg">
<path fill-rule="evenodd" clip-rule="evenodd" d="M44.9775 72.0822C50.2968 73.4433 55.6837 70.1216 57.0097 64.6635C58.3357 59.2051 55.0992 53.676 49.7802 52.3153C44.4625 50.9545 39.0755 54.2765 37.7501 59.7352C36.4235 65.193 39.6604 70.7214 44.9775 72.0822ZM49.5738 58.1767C50.9491 58.6629 51.955 59.3917 51.7573 60.7473C51.6143 61.7398 51.0782 62.2202 50.3665 62.3886C51.3438 62.9108 51.8411 63.7115 51.3674 65.0997C50.7794 66.8237 49.3827 66.9692 47.5252 66.6085L47.0744 68.4625L45.9851 68.1839L46.43 66.3547C46.1477 66.2828 45.8591 66.2064 45.5619 66.1236L45.1155 67.9613L44.0274 67.6827L44.4782 65.8253C44.3765 65.7985 44.2742 65.7712 44.1712 65.7436C44.0164 65.7022 43.86 65.6603 43.7016 65.6196L42.2841 65.257L42.8249 63.9774C42.8249 63.9774 43.6275 64.1964 43.6166 64.1802C43.925 64.2585 44.0618 64.0522 44.1158 63.9146L44.8282 60.9839C44.8549 60.9905 44.881 60.9972 44.9063 61.0037C44.9188 61.0069 44.9312 61.0101 44.9433 61.0132C44.8998 60.9954 44.8604 60.9839 44.83 60.9759L45.3382 58.8838C45.3516 58.6463 45.2718 58.3467 44.8306 58.2337C44.8477 58.2219 44.0395 58.0318 44.0395 58.0318L44.3293 56.8379L45.8315 57.2228L45.8303 57.2286C46.0561 57.2862 46.2888 57.3409 46.5259 57.3963L46.9723 55.5605L48.061 55.8391L47.6235 57.639C47.9158 57.7074 48.2099 57.7765 48.4963 57.8497L48.9306 56.0617L50.0199 56.3403L49.5738 58.1767ZM46.1283 64.835C47.0171 65.0759 48.9597 65.6024 49.2685 64.3289C49.585 63.0267 47.701 62.5928 46.7817 62.3812C46.679 62.3575 46.5883 62.3366 46.5141 62.3176L45.9159 64.7784C45.9769 64.7939 46.0483 64.8133 46.1283 64.835ZM46.9664 61.2392C47.7074 61.4421 49.3239 61.8848 49.6054 60.7273C49.893 59.5433 48.3219 59.1864 47.5547 59.0121C47.4684 58.9925 47.3922 58.9752 47.33 58.9593L46.7877 61.1912C46.8389 61.2043 46.8991 61.2207 46.9664 61.2392Z" fill="#F7931A"/>
<path d="M66.547 58.1748C67.3522 58.1748 68.0477 58.3229 68.6323 58.6135C69.2196 58.9071 69.7042 59.3025 70.0929 59.7999C70.4764 60.2997 70.7618 60.884 70.9461 61.5535C71.1292 62.225 71.221 62.9468 71.221 63.7195C71.221 64.9064 71.0091 66.0278 70.5813 67.0848C70.1534 68.1435 69.5729 69.0617 68.8345 69.8449C68.0968 70.6272 67.2256 71.2439 66.221 71.6995C65.2179 72.1554 64.1274 72.3834 62.9565 72.3834C62.8051 72.3834 62.5389 72.3789 62.1629 72.371C61.7868 72.363 61.3547 72.3232 60.8707 72.256C60.3836 72.1863 59.8685 72.0831 59.3247 71.945C58.7811 71.8093 58.2649 71.6193 57.7787 71.3779L62.1259 52.6327L66.0196 52.0134L64.4631 58.6654C64.7963 58.5114 65.132 58.3919 65.4671 58.305C65.8024 58.2194 66.1623 58.1748 66.547 58.1748V58.1748ZM63.281 69.2135C63.8674 69.2135 64.42 69.0655 64.939 68.7748C65.4596 68.4838 65.9089 68.0909 66.2852 67.6016C66.6615 67.11 66.9594 66.5563 67.1765 65.9377C67.3937 65.3191 67.5036 64.6737 67.5036 64.0022C67.5036 63.1773 67.3692 62.5338 67.1015 62.0687C66.8337 61.6054 66.3382 61.3724 65.6188 61.3724C65.383 61.3724 65.0792 61.4185 64.7026 61.501C64.3247 61.5885 63.9865 61.7703 63.6834 62.0438L62.026 69.1082C62.1259 69.1263 62.2144 69.1435 62.2898 69.1597C62.3636 69.1772 62.4452 69.1897 62.5265 69.1983C62.6124 69.2081 62.7108 69.2132 62.8296 69.2132C62.9484 69.2132 63.097 69.2135 63.281 69.2135V69.2135Z" fill="#5B5B5B"/>
<path d="M75.2589 72.0245H71.5399L74.6806 58.4623H78.4251L75.2589 72.0245ZM77.0686 56.8099C76.5496 56.8099 76.0789 56.6513 75.6613 56.3336C75.2403 56.0177 75.0318 55.5316 75.0318 54.8763C75.0318 54.5159 75.1032 54.1778 75.2446 53.8588C75.3883 53.5404 75.576 53.2662 75.8112 53.0332C76.046 52.802 76.3181 52.6174 76.6271 52.4782C76.938 52.3413 77.2687 52.2729 77.6212 52.2729C78.1399 52.2729 78.6081 52.4314 79.0272 52.7492C79.4448 53.0685 79.6549 53.5547 79.6549 54.2064C79.6549 54.5681 79.5838 54.9075 79.4411 55.2259C79.2993 55.5443 79.1116 55.8184 78.8765 56.0515C78.6435 56.2829 78.3689 56.467 78.0605 56.6048C77.7493 56.744 77.4198 56.8099 77.0686 56.8099Z" fill="#5B5B5B"/>
<path d="M81.6843 55.0833L85.5796 54.464L84.623 58.4616H88.7947L88.0414 61.6066H83.8949L82.7904 66.3506C82.6886 66.746 82.6309 67.1153 82.6148 67.4586C82.5965 67.8034 82.639 68.0995 82.7395 68.3488C82.8394 68.5987 83.019 68.7913 83.2796 68.9276C83.539 69.0661 83.9104 69.1358 84.3975 69.1358C84.7986 69.1358 85.1896 69.0966 85.5675 69.019C85.9432 68.9425 86.3238 68.8362 86.7092 68.6971L86.9865 71.6377C86.4839 71.8268 85.9398 71.9895 85.3534 72.1264C84.7661 72.2652 84.0708 72.3321 83.2672 72.3321C82.1119 72.3321 81.2162 72.156 80.578 71.8055C79.9407 71.4524 79.4902 70.97 79.2206 70.3594C78.9547 69.7509 78.8359 69.0495 78.8691 68.2593C78.9035 67.4672 79.0199 66.6346 79.2206 65.7577L81.6843 55.0833V55.0833Z" fill="#5B5B5B"/>
<path d="M88.6309 66.6085C88.6309 65.4404 88.8152 64.3388 89.1834 63.3075C89.5511 62.2753 90.0807 61.3727 90.7679 60.5981C91.4526 59.8272 92.2869 59.2166 93.2688 58.7683C94.2461 58.3226 95.3404 58.0978 96.5463 58.0978C97.3012 58.0978 97.9754 58.171 98.5686 58.3178C99.1643 58.4658 99.7032 58.6572 100.191 58.8972L98.908 61.8901C98.5729 61.7506 98.2251 61.6277 97.8655 61.5163C97.5056 61.4026 97.0663 61.3479 96.5467 61.3479C95.3053 61.3479 94.324 61.7869 93.5937 62.6621C92.8661 63.538 92.4997 64.717 92.4997 66.1959C92.4997 67.0724 92.684 67.7811 93.0538 68.3234C93.4218 68.8656 94.1015 69.1352 95.0885 69.1352C95.5756 69.1352 96.0456 69.083 96.4958 68.9811C96.9494 68.878 97.3499 68.7481 97.7026 68.5946L97.9803 71.6626C97.51 71.8498 96.9912 72.0188 96.4222 72.1669C95.852 72.3099 95.1732 72.384 94.386 72.384C93.347 72.384 92.4674 72.228 91.748 71.9208C91.0282 71.6088 90.4334 71.1945 89.9649 70.6699C89.494 70.1439 89.1558 69.5297 88.9467 68.8248C88.7376 68.1205 88.6309 67.3806 88.6309 66.6085V66.6085Z" fill="#5B5B5B"/>
<path d="M105.152 72.384C104.264 72.384 103.493 72.2452 102.839 71.9705C102.187 71.6957 101.647 71.3101 101.219 70.8103C100.792 70.3129 100.471 69.7236 100.252 69.0445C100.033 68.3657 99.9272 67.614 99.9272 66.7903C99.9272 65.7572 100.089 64.7243 100.416 63.6944C100.741 62.6621 101.223 61.7347 101.862 60.9104C102.495 60.0848 103.277 59.4098 104.197 58.8835C105.116 58.3608 106.174 58.0978 107.361 58.0978C108.233 58.0978 109 58.2369 109.663 58.5117C110.323 58.7858 110.866 59.1746 111.296 59.6719C111.721 60.1717 112.044 60.7585 112.261 61.4386C112.48 62.1161 112.588 62.8697 112.588 63.694C112.588 64.724 112.428 65.7568 112.112 66.79C111.795 67.8181 111.325 68.7478 110.704 69.574C110.085 70.3983 109.311 71.0729 108.381 71.597C107.452 72.1211 106.375 72.384 105.152 72.384V72.384ZM107.01 61.3482C106.459 61.3482 105.972 61.5125 105.554 61.8369C105.135 62.1651 104.784 62.5778 104.5 63.0754C104.213 63.5753 104.001 64.1204 103.857 64.7129C103.715 65.3067 103.645 65.868 103.645 66.4013C103.645 67.2619 103.78 67.9321 104.046 68.4144C104.316 68.8942 104.8 69.1356 105.504 69.1356C106.057 69.1356 106.542 68.9725 106.962 68.6446C107.378 68.3189 107.73 67.9059 108.016 67.4074C108.301 66.91 108.515 66.3634 108.659 65.7699C108.8 65.178 108.871 64.6135 108.871 64.0812C108.871 63.2228 108.737 62.551 108.468 62.0693C108.2 61.5895 107.714 61.3482 107.01 61.3482Z" fill="#5B5B5B"/>
<path d="M116.64 72.0245H112.918L116.059 58.4623H119.805L116.64 72.0245V72.0245ZM118.447 56.8099C117.928 56.8099 117.458 56.6513 117.041 56.3336C116.622 56.0177 116.412 55.5316 116.412 54.8763C116.412 54.5159 116.484 54.1778 116.626 53.8588C116.768 53.5404 116.957 53.2662 117.192 53.0332C117.426 52.802 117.7 52.6174 118.009 52.4782C118.318 52.3413 118.648 52.2729 118.999 52.2729C119.519 52.2729 119.989 52.4314 120.407 52.7492C120.826 53.0685 121.037 53.5547 121.037 54.2064C121.037 54.5681 120.962 54.9075 120.822 55.2259C120.681 55.5443 120.492 55.8184 120.258 56.0515C120.022 56.2829 119.751 56.467 119.442 56.6048C119.13 56.744 118.8 56.8099 118.447 56.8099V56.8099Z" fill="#5B5B5B"/>
<path d="M122.486 59.0788C122.768 58.9942 123.083 58.8923 123.426 58.7815C123.77 58.6707 124.154 58.5675 124.584 58.4746C125.008 58.3787 125.488 58.301 126.015 58.2409C126.542 58.1794 127.143 58.1495 127.81 58.1495C129.771 58.1495 131.124 58.7356 131.87 59.9044C132.616 61.0732 132.745 62.6728 132.261 64.7003L130.55 72.0231H126.807L128.465 64.8544C128.566 64.4067 128.645 63.974 128.704 63.5512C128.763 63.1322 128.76 62.7629 128.691 62.4432C128.624 62.1274 128.469 61.8689 128.227 61.6686C127.982 61.4715 127.611 61.3725 127.108 61.3725C126.623 61.3725 126.13 61.426 125.626 61.5291L123.189 72.0228H119.443L122.486 59.0788V59.0788Z" fill="#5B5B5B"/>
<g filter="url(#filter0_d_1141_12999)">
<path d="M17.4875 21.9591C19.2366 21.9591 20.5693 21.5634 21.4855 20.7721C22.4434 19.9392 22.9224 18.6898 22.9224 17.0239C22.9224 15.4413 22.4226 14.2336 21.4231 13.4007C20.4652 12.5261 19.0492 12.0888 17.1751 12.0888C16.5088 12.0888 15.9465 12.1096 15.4884 12.1513C15.072 12.1513 14.6347 12.1929 14.1766 12.2762V21.9591H17.4875ZM14.239 42.0119C13.7809 42.1369 13.0521 42.2618 12.0526 42.3868C11.0947 42.5117 10.1368 42.5742 9.17895 42.5742C8.22107 42.5742 7.36732 42.4909 6.61768 42.3243C5.90968 42.1993 5.3058 41.9495 4.80604 41.5746C4.30628 41.1998 3.93146 40.6792 3.68158 40.0129C3.4317 39.3466 3.30676 38.472 3.30676 37.3892V7.96576C3.30676 7.09118 3.53582 6.42483 3.99393 5.96672C4.49369 5.46696 5.16004 5.07131 5.99297 4.77979C7.40896 4.28003 9.01236 3.92603 10.8032 3.7178C12.6356 3.46792 14.4681 3.34298 16.3005 3.34298C22.0478 3.34298 26.4415 4.57156 29.4817 7.02871C32.5219 9.48587 34.042 12.8176 34.042 17.0239C34.042 19.0646 33.7089 20.9179 33.0425 22.5838C32.4178 24.208 31.4599 25.624 30.1689 26.8317C28.9195 27.9978 27.3161 28.9141 25.3587 29.5804C23.4429 30.2051 21.2148 30.5175 18.6744 30.5175H14.239V42.0119Z" fill="url(#paint0_diamond_1141_12999)"/>
<path d="M53.9329 43.2613C51.4757 43.2613 49.1852 42.9282 47.0612 42.2618C44.9788 41.5538 43.1464 40.5127 41.5638 39.1383C40.0229 37.764 38.7943 36.0356 37.8781 33.9533C37.0035 31.871 36.5662 29.4346 36.5662 26.6443C36.5662 23.8956 37.0035 21.5426 37.8781 19.5852C38.7943 17.5861 39.9812 15.9619 41.4389 14.7125C42.8965 13.4215 44.5624 12.4844 46.4365 11.9014C48.3106 11.2767 50.2263 10.9643 52.1837 10.9643C54.391 10.9643 56.39 11.2975 58.1808 11.9638C60.0133 12.6302 61.5751 13.5464 62.8661 14.7125C64.1988 15.8786 65.2191 17.2738 65.9271 18.898C66.6768 20.5222 67.0516 22.2922 67.0516 24.208C67.0516 25.624 66.656 26.7068 65.8647 27.4564C65.0734 28.2061 63.9697 28.685 62.5537 28.8932L47.1236 31.2046C47.5818 32.579 48.5188 33.6201 49.9348 34.3281C51.3508 34.9945 52.975 35.3276 54.8075 35.3276C56.515 35.3276 58.1184 35.1194 59.6177 34.7029C61.1586 34.2448 62.408 33.7242 63.3659 33.1412C64.0322 33.5577 64.5944 34.1407 65.0526 34.8904C65.5107 35.64 65.7397 36.4313 65.7397 37.2642C65.7397 39.1383 64.8651 40.5335 63.116 41.4497C61.7833 42.1577 60.284 42.6366 58.6181 42.8865C56.9523 43.1364 55.3905 43.2613 53.9329 43.2613ZM52.1837 18.7106C51.1842 18.7106 50.3096 18.8772 49.56 19.2104C48.852 19.5435 48.2689 19.9808 47.8108 20.5222C47.3527 21.022 46.9987 21.6051 46.7488 22.2714C46.5406 22.8961 46.4157 23.5416 46.374 24.208L57.0564 22.4588C56.9314 21.6259 56.4733 20.7929 55.682 19.96C54.8908 19.1271 53.7246 18.7106 52.1837 18.7106Z" fill="url(#paint1_diamond_1141_12999)"/>
<path d="M85.1572 35.5151C85.8652 35.5151 86.6356 35.4526 87.4686 35.3276C88.3431 35.1611 88.9887 34.9528 89.4051 34.7029V29.7053L84.9073 30.0802C83.7412 30.1635 82.7833 30.4133 82.0337 30.8298C81.284 31.2463 80.9092 31.871 80.9092 32.7039C80.9092 33.5368 81.2216 34.224 81.8463 34.7654C82.5126 35.2652 83.6162 35.5151 85.1572 35.5151ZM84.6574 10.9643C86.9063 10.9643 88.947 11.1934 90.7795 11.6515C92.6536 12.1096 94.2362 12.8176 95.5272 13.7755C96.8599 14.6917 97.8802 15.8786 98.5882 17.3363C99.2962 18.7523 99.6502 20.4389 99.6502 22.3963V36.3896C99.6502 37.4724 99.3379 38.3679 98.7132 39.0758C98.1301 39.7422 97.4221 40.3252 96.5892 40.825C93.8822 42.4492 90.0715 43.2613 85.1572 43.2613C82.9499 43.2613 80.9509 43.0531 79.16 42.6366C77.4109 42.2202 75.8908 41.5955 74.5997 40.7625C73.3503 39.9296 72.3716 38.8676 71.6636 37.5766C70.9973 36.2855 70.6641 34.7862 70.6641 33.0787C70.6641 30.2051 71.5179 27.9978 73.2254 26.4569C74.9329 24.916 77.5775 23.9581 81.1591 23.5833L89.3427 22.7087V22.2714C89.3427 21.0636 88.8013 20.2099 87.7184 19.7101C86.6773 19.1687 85.1572 18.898 83.1581 18.898C81.5756 18.898 80.0346 19.0646 78.5354 19.3978C77.0361 19.731 75.6825 20.1474 74.4748 20.6472C73.9334 20.2724 73.4753 19.7101 73.1005 18.9605C72.7256 18.1692 72.5382 17.3571 72.5382 16.5242C72.5382 15.4413 72.7881 14.5876 73.2879 13.9629C73.8293 13.2965 74.6414 12.7343 75.7242 12.2762C76.932 11.8181 78.3479 11.4849 79.9722 11.2767C81.638 11.0684 83.1998 10.9643 84.6574 10.9643Z" fill="url(#paint2_diamond_1141_12999)"/>
<path d="M123.26 19.3353C122.219 19.3353 121.22 19.5019 120.262 19.8351C119.346 20.1682 118.534 20.668 117.826 21.3344C117.159 21.9591 116.618 22.7503 116.201 23.7082C115.785 24.6661 115.577 25.7906 115.577 27.0816C115.577 29.6637 116.305 31.6003 117.763 32.8913C119.262 34.1824 121.074 34.8279 123.198 34.8279C124.447 34.8279 125.53 34.6821 126.446 34.3906C127.363 34.0991 128.175 33.7867 128.883 33.4535C129.716 34.0366 130.34 34.6821 130.757 35.3901C131.173 36.0565 131.382 36.8686 131.382 37.8264C131.382 39.534 130.569 40.8667 128.945 41.8245C127.321 42.7408 125.072 43.1989 122.198 43.1989C119.575 43.1989 117.201 42.8241 115.077 42.0744C112.953 41.2831 111.12 40.2003 109.58 38.826C108.08 37.41 106.914 35.7233 106.081 33.7659C105.248 31.8085 104.832 29.6429 104.832 27.269C104.832 24.5203 105.269 22.1256 106.144 20.085C107.06 18.0026 108.289 16.2951 109.829 14.9624C111.37 13.6297 113.14 12.6302 115.139 11.9638C117.18 11.2975 119.325 10.9643 121.574 10.9643C124.572 10.9643 126.884 11.5057 128.508 12.5885C130.132 13.6714 130.944 15.0665 130.944 16.774C130.944 17.5653 130.757 18.315 130.382 19.023C130.007 19.6893 129.57 20.2724 129.07 20.7721C128.362 20.4389 127.508 20.1266 126.509 19.8351C125.509 19.5019 124.427 19.3353 123.26 19.3353Z" fill="url(#paint3_diamond_1141_12999)"/>
<path d="M166.693 42.1994C166.277 42.3243 165.61 42.4492 164.694 42.5742C163.82 42.6991 162.903 42.7616 161.946 42.7616C161.029 42.7616 160.196 42.6991 159.447 42.5742C158.739 42.4492 158.135 42.1994 157.635 41.8245C157.135 41.4497 156.74 40.9499 156.448 40.3252C156.198 39.6589 156.073 38.8051 156.073 37.764V23.8956C156.073 22.1881 155.636 21.0012 154.762 20.3348C153.929 19.6268 152.887 19.2728 151.638 19.2728C150.805 19.2728 150.014 19.377 149.264 19.5852C148.514 19.7934 147.911 20.0433 147.453 20.3348V42.1994C147.036 42.3243 146.37 42.4492 145.453 42.5742C144.579 42.6991 143.663 42.7616 142.705 42.7616C141.789 42.7616 140.956 42.6991 140.206 42.5742C139.498 42.4492 138.894 42.1994 138.394 41.8245C137.895 41.4497 137.499 40.9499 137.207 40.3252C136.958 39.6589 136.833 38.8051 136.833 37.764V1.53135C137.291 1.44805 137.957 1.34394 138.832 1.219C139.748 1.05241 140.664 0.969116 141.58 0.969116C142.497 0.969116 143.309 1.03159 144.017 1.15652C144.766 1.28147 145.391 1.53135 145.891 1.90617C146.391 2.28099 146.765 2.80157 147.015 3.46792C147.307 4.09262 147.453 4.92555 147.453 5.96672V12.0888C147.994 11.8806 148.806 11.6515 149.889 11.4016C151.013 11.1101 152.242 10.9643 153.575 10.9643C157.698 10.9643 160.904 12.0055 163.195 14.0878C165.527 16.1285 166.693 19.1895 166.693 23.2709V42.1994Z" fill="url(#paint4_diamond_1141_12999)"/>
</g>
<defs>
<filter id="filter0_d_1141_12999" x="0.0258721" y="-2.31177" width="172.136" height="51.0413" filterUnits="userSpaceOnUse" color-interpolation-filters="sRGB">
<feFlood flood-opacity="0" result="BackgroundImageFix"/>
<feColorMatrix in="SourceAlpha" type="matrix" values="0 0 0 0 0 0 0 0 0 0 0 0 0 0 0 0 0 0 127 0" result="hardAlpha"/>
<feOffset dx="1.09363" dy="1.09363"/>
<feGaussianBlur stdDeviation="2.18726"/>
<feComposite in2="hardAlpha" operator="out"/>
<feColorMatrix type="matrix" values="0 0 0 0 0.141667 0 0 0 0 0.0543055 0 0 0 0 0.0324653 0 0 0 0.04 0"/>
<feBlend mode="normal" in2="BackgroundImageFix" result="effect1_dropShadow_1141_12999"/>
<feBlend mode="normal" in="SourceGraphic" in2="effect1_dropShadow_1141_12999" result="shape"/>
</filter>
<radialGradient id="paint0_diamond_1141_12999" cx="0" cy="0" r="1" gradientUnits="userSpaceOnUse" gradientTransform="translate(166.693 0.969115) rotate(165.488) scale(168.771 93.3379)">
<stop stop-color="#AFDA73"/>
<stop offset="0.50246" stop-color="#65A519"/>
<stop offset="1" stop-color="#4F910C"/>
</radialGradient>
<radialGradient id="paint1_diamond_1141_12999" cx="0" cy="0" r="1" gradientUnits="userSpaceOnUse" gradientTransform="translate(166.693 0.969115) rotate(165.488) scale(168.771 93.3379)">
<stop stop-color="#AFDA73"/>
<stop offset="0.50246" stop-color="#65A519"/>
<stop offset="1" stop-color="#4F910C"/>
</radialGradient>
<radialGradient id="paint2_diamond_1141_12999" cx="0" cy="0" r="1" gradientUnits="userSpaceOnUse" gradientTransform="translate(166.693 0.969115) rotate(165.488) scale(168.771 93.3379)">
<stop stop-color="#AFDA73"/>
<stop offset="0.50246" stop-color="#65A519"/>
<stop offset="1" stop-color="#4F910C"/>
</radialGradient>
<radialGradient id="paint3_diamond_1141_12999" cx="0" cy="0" r="1" gradientUnits="userSpaceOnUse" gradientTransform="translate(166.693 0.969115) rotate(165.488) scale(168.771 93.3379)">
<stop stop-color="#AFDA73"/>
<stop offset="0.50246" stop-color="#65A519"/>
<stop offset="1" stop-color="#4F910C"/>
</radialGradient>
<radialGradient id="paint4_diamond_1141_12999" cx="0" cy="0" r="1" gradientUnits="userSpaceOnUse" gradientTransform="translate(166.693 0.969115) rotate(165.488) scale(168.771 93.3379)">
<stop stop-color="#AFDA73"/>
<stop offset="0.50246" stop-color="#65A519"/>
<stop offset="1" stop-color="#4F910C"/>
</radialGradient>
</defs>
</svg>
