<svg width="147" height="26" viewBox="0 0 147 26" fill="none" xmlns="http://www.w3.org/2000/svg">
<g filter="url(#filter0_d_8929_50904)">
<g clip-path="url(#paint0_diamond_8929_50904_clip_path)" data-figma-skip-parse="true"><g transform="matrix(-0.0838166 0.017406 -0.0928337 -0.0204021 83.8166 5.29102)"><rect x="0" y="0" width="1062.51" height="494.534" fill="url(#paint0_diamond_8929_50904)" opacity="1" shape-rendering="crispEdges"/><rect x="0" y="0" width="1062.51" height="494.534" transform="scale(1 -1)" fill="url(#paint0_diamond_8929_50904)" opacity="1" shape-rendering="crispEdges"/><rect x="0" y="0" width="1062.51" height="494.534" transform="scale(-1 1)" fill="url(#paint0_diamond_8929_50904)" opacity="1" shape-rendering="crispEdges"/><rect x="0" y="0" width="1062.51" height="494.534" transform="scale(-1)" fill="url(#paint0_diamond_8929_50904)" opacity="1" shape-rendering="crispEdges"/></g></g><path d="M8.93305 12.3484C9.78964 12.3484 10.4423 12.1547 10.891 11.7671C11.3601 11.3592 11.5946 10.7474 11.5946 9.93159C11.5946 9.15658 11.3499 8.56512 10.8604 8.15722C10.3913 7.72892 9.69787 7.51477 8.78009 7.51477C8.45377 7.51477 8.17843 7.52497 7.95409 7.54536C7.75014 7.54536 7.53599 7.56576 7.31164 7.60655V12.3484H8.93305ZM7.34223 22.1686C7.11789 22.2298 6.76097 22.291 6.27149 22.3522C5.8024 22.4134 5.33332 22.444 4.86423 22.444C4.39514 22.444 3.97704 22.4032 3.60993 22.3216C3.26321 22.2604 2.96749 22.1381 2.72274 21.9545C2.478 21.7709 2.29445 21.516 2.17208 21.1897C2.04971 20.8634 1.98852 20.4351 1.98852 19.9048V5.49566C1.98852 5.06736 2.10069 4.74104 2.32504 4.51669C2.56978 4.27195 2.8961 4.0782 3.304 3.93543C3.99744 3.69069 4.78265 3.51733 5.65964 3.41536C6.55702 3.29299 7.45441 3.2318 8.35179 3.2318C11.1663 3.2318 13.318 3.83346 14.8068 5.03677C16.2957 6.24008 17.0401 7.87169 17.0401 9.93159C17.0401 10.9309 16.8769 11.8385 16.5506 12.6543C16.2447 13.4497 15.7756 14.1432 15.1434 14.7346C14.5315 15.3057 13.7463 15.7544 12.7877 16.0807C11.8495 16.3866 10.7584 16.5396 9.51431 16.5396H7.34223V22.1686ZM26.781 22.7805C25.5777 22.7805 24.4559 22.6173 23.4158 22.291C22.396 21.9443 21.4987 21.4344 20.7236 20.7614C19.969 20.0883 19.3674 19.2419 18.9187 18.2222C18.4904 17.2024 18.2762 16.0093 18.2762 14.6429C18.2762 13.2968 18.4904 12.1445 18.9187 11.1859C19.3674 10.2069 19.9486 9.41151 20.6625 8.79966C21.3763 8.16741 22.1921 7.70852 23.1099 7.42299C24.0276 7.11707 24.9658 6.9641 25.9244 6.9641C27.0053 6.9641 27.9843 7.12726 28.8613 7.45359C29.7587 7.77991 30.5235 8.2286 31.1557 8.79966C31.8084 9.37072 32.3081 10.054 32.6548 10.8494C33.0219 11.6448 33.2054 12.5116 33.2054 13.4497C33.2054 14.1432 33.0117 14.6734 32.6242 15.0406C32.2367 15.4077 31.6962 15.6422 31.0028 15.7442L23.4464 16.8761C23.6707 17.5492 24.1296 18.059 24.8231 18.4058C25.5165 18.7321 26.3119 18.8952 27.2093 18.8952C28.0455 18.8952 28.8307 18.7933 29.5649 18.5893C30.3195 18.365 30.9314 18.11 31.4005 17.8245C31.7268 18.0284 32.0021 18.314 32.2265 18.6811C32.4508 19.0482 32.563 19.4357 32.563 19.8436C32.563 20.7614 32.1347 21.4446 31.2781 21.8933C30.6255 22.24 29.8912 22.4746 29.0754 22.5969C28.2596 22.7193 27.4948 22.7805 26.781 22.7805ZM25.9244 10.7576C25.4349 10.7576 25.0066 10.8392 24.6395 11.0023C24.2928 11.1655 24.0073 11.3796 23.7829 11.6448C23.5586 11.8895 23.3852 12.175 23.2628 12.5014C23.1609 12.8073 23.0997 13.1234 23.0793 13.4497L28.3106 12.5931C28.2494 12.1852 28.0251 11.7773 27.6376 11.3694C27.2501 10.9615 26.679 10.7576 25.9244 10.7576ZM42.072 18.987C42.4188 18.987 42.7961 18.9564 43.204 18.8952C43.6323 18.8137 43.9484 18.7117 44.1523 18.5893V16.1419L41.9497 16.3255C41.3786 16.3662 40.9095 16.4886 40.5424 16.6926C40.1753 16.8965 39.9917 17.2024 39.9917 17.6103C39.9917 18.0182 40.1447 18.3548 40.4506 18.6199C40.777 18.8646 41.3174 18.987 42.072 18.987ZM41.8273 6.9641C42.9286 6.9641 43.928 7.07628 44.8254 7.30062C45.7432 7.52497 46.5182 7.87168 47.1504 8.34077C47.8031 8.78946 48.3027 9.37072 48.6495 10.0846C48.9962 10.778 49.1695 11.604 49.1695 12.5626V19.4153C49.1695 19.9456 49.0166 20.3841 48.7107 20.7308C48.4251 21.0571 48.0784 21.3426 47.6705 21.5874C46.3448 22.3828 44.4787 22.7805 42.072 22.7805C40.9911 22.7805 40.0121 22.6785 39.1352 22.4746C38.2786 22.2706 37.5341 21.9647 36.9019 21.5568C36.29 21.1489 35.8108 20.6288 35.464 19.9966C35.1377 19.3643 34.9746 18.6301 34.9746 17.7939C34.9746 16.3866 35.3927 15.3057 36.2289 14.5511C37.0651 13.7965 38.3601 13.3274 40.1141 13.1438L44.1218 12.7155V12.5014C44.1218 11.9099 43.8566 11.4918 43.3263 11.2471C42.8165 10.9819 42.072 10.8494 41.0931 10.8494C40.3181 10.8494 39.5635 10.9309 38.8292 11.0941C38.095 11.2573 37.4322 11.4612 36.8407 11.706C36.5756 11.5224 36.3512 11.2471 36.1677 10.88C35.9841 10.4925 35.8923 10.0947 35.8923 9.68685C35.8923 9.15658 36.0147 8.73848 36.2594 8.43255C36.5246 8.10623 36.9223 7.83089 37.4526 7.60655C38.044 7.3822 38.7375 7.21904 39.5329 7.11707C40.3487 7.01509 41.1135 6.9641 41.8273 6.9641ZM60.7319 11.0635C60.222 11.0635 59.7325 11.1451 59.2634 11.3083C58.8147 11.4714 58.417 11.7162 58.0703 12.0425C57.744 12.3484 57.4789 12.7359 57.2749 13.205C57.071 13.6741 56.969 14.2248 56.969 14.857C56.969 16.1215 57.3259 17.0699 58.0397 17.7021C58.774 18.3344 59.6611 18.6505 60.7013 18.6505C61.3131 18.6505 61.8434 18.5791 62.2921 18.4363C62.7408 18.2936 63.1385 18.1406 63.4852 17.9775C63.8931 18.263 64.199 18.5791 64.403 18.9258C64.607 19.2521 64.7089 19.6499 64.7089 20.1189C64.7089 20.9551 64.3112 21.6078 63.5158 22.0769C62.7204 22.5256 61.6191 22.7499 60.2118 22.7499C58.9269 22.7499 57.7644 22.5663 56.7242 22.1992C55.6841 21.8117 54.7867 21.2815 54.0321 20.6084C53.2979 19.915 52.7268 19.089 52.3189 18.1304C51.911 17.1718 51.7071 16.1113 51.7071 14.9488C51.7071 13.6027 51.9212 12.43 52.3495 11.4306C52.7982 10.4109 53.3998 9.57468 54.1545 8.92203C54.9091 8.26939 55.7759 7.77991 56.7548 7.45359C57.7542 7.12726 58.8045 6.9641 59.9059 6.9641C61.3743 6.9641 62.5063 7.22924 63.3017 7.75951C64.0971 8.28978 64.4948 8.97302 64.4948 9.80922C64.4948 10.1967 64.403 10.5638 64.2194 10.9106C64.0359 11.2369 63.8217 11.5224 63.577 11.7671C63.2303 11.604 62.8122 11.451 62.3227 11.3083C61.8332 11.1451 61.3029 11.0635 60.7319 11.0635ZM82.0017 22.2604C81.7977 22.3216 81.4714 22.3828 81.0227 22.444C80.5944 22.5052 80.1457 22.5358 79.6766 22.5358C79.2279 22.5358 78.82 22.5052 78.4529 22.444C78.1062 22.3828 77.8105 22.2604 77.5657 22.0769C77.321 21.8933 77.1272 21.6486 76.9845 21.3426C76.8621 21.0163 76.8009 20.5982 76.8009 20.0883V13.2968C76.8009 12.4606 76.5868 11.8793 76.1585 11.553C75.7506 11.2063 75.2407 11.0329 74.6288 11.0329C74.2209 11.0329 73.8334 11.0839 73.4663 11.1859C73.0992 11.2879 72.8035 11.4102 72.5791 11.553V22.2604C72.3752 22.3216 72.0489 22.3828 71.6002 22.444C71.1719 22.5052 70.7232 22.5358 70.2541 22.5358C69.8054 22.5358 69.3975 22.5052 69.0304 22.444C68.6837 22.3828 68.3879 22.2604 68.1432 22.0769C67.8984 21.8933 67.7047 21.6486 67.5619 21.3426C67.4396 21.0163 67.3784 20.5982 67.3784 20.0883V2.34462C67.6027 2.30382 67.929 2.25284 68.3573 2.19165C68.806 2.11007 69.2547 2.06928 69.7034 2.06928C70.1521 2.06928 70.5498 2.09987 70.8965 2.16106C71.2636 2.22224 71.5696 2.34461 71.8143 2.52817C72.059 2.71173 72.2426 2.96666 72.365 3.29299C72.5077 3.59891 72.5791 4.00682 72.5791 4.51669V7.51477C72.8443 7.4128 73.242 7.30062 73.7722 7.17825C74.3229 7.03549 74.9246 6.9641 75.5772 6.9641C77.5963 6.9641 79.1667 7.47398 80.2885 8.49373C81.4306 9.49309 82.0017 10.9921 82.0017 12.9909V22.2604Z" data-figma-gradient-fill="{&#34;type&#34;:&#34;GRADIENT_DIAMOND&#34;,&#34;stops&#34;:[{&#34;color&#34;:{&#34;r&#34;:1.0,&#34;g&#34;:0.63511133193969727,&#34;b&#34;:0.29941403865814209,&#34;a&#34;:1.0},&#34;position&#34;:0.0},{&#34;color&#34;:{&#34;r&#34;:1.0,&#34;g&#34;:0.47749984264373779,&#34;b&#34;:0.31250,&#34;a&#34;:1.0},&#34;position&#34;:0.50245994329452515},{&#34;color&#34;:{&#34;r&#34;:1.0,&#34;g&#34;:0.30283328890800476,&#34;b&#34;:0.25833332538604736,&#34;a&#34;:1.0},&#34;position&#34;:1.0}],&#34;stopsVar&#34;:[],&#34;transform&#34;:{&#34;m00&#34;:-167.63317871093750,&#34;m01&#34;:-185.667480468750,&#34;m02&#34;:260.46691894531250,&#34;m10&#34;:34.812000274658203,&#34;m11&#34;:-40.804225921630859,&#34;m12&#34;:8.2871284484863281},&#34;opacity&#34;:1.0,&#34;blendMode&#34;:&#34;NORMAL&#34;,&#34;visible&#34;:true}"/>
</g>
<g clip-path="url(#clip0_8929_50904)">
<path d="M99.9505 17.7697C99.1278 21.2518 95.7854 23.3709 92.4851 22.5026C89.1861 21.6344 87.1778 18.1074 88.0009 14.6255C88.8232 11.143 92.1656 9.02363 95.4649 9.89177C98.7651 10.7599 100.773 14.2873 99.9505 17.7697Z" fill="#F7931A"/>
<path d="M96.6916 15.271C96.8143 14.4061 96.1902 13.9411 95.3368 13.631L95.6137 12.4594L94.9378 12.2816L94.6683 13.4224C94.4906 13.3756 94.3081 13.3316 94.1268 13.2879L94.3982 12.1396L93.7228 11.9619L93.4458 13.1331C93.2987 13.0978 93.1543 13.0628 93.0142 13.0261L93.015 13.0224L92.0829 12.7768L91.9031 13.5385C91.9031 13.5385 92.4046 13.6598 92.394 13.6673C92.6677 13.7394 92.7172 13.9306 92.7089 14.0821L92.3936 15.4168C92.4124 15.4219 92.4369 15.4292 92.4639 15.4406C92.4413 15.4347 92.4173 15.4282 92.3924 15.4219L91.9505 17.2916C91.917 17.3794 91.8321 17.511 91.6407 17.461C91.6475 17.4714 91.1495 17.3316 91.1495 17.3316L90.814 18.148L91.6935 18.3793C91.8571 18.4226 92.0174 18.4679 92.1753 18.5106L91.8956 19.6956L92.5707 19.8733L92.8477 18.7009C93.0321 18.7537 93.2111 18.8025 93.3863 18.8484L93.1103 20.0153L93.7861 20.193L94.0658 19.0102C95.2183 19.2404 96.0849 19.1476 96.4497 18.0476C96.7436 17.162 96.435 16.6512 95.8287 16.3181C96.2703 16.2106 96.6029 15.9041 96.6916 15.271ZM95.1474 17.5559C94.9386 18.4415 93.5255 17.9627 93.0673 17.8427L93.4385 16.2728C93.8966 16.3934 95.3657 16.6323 95.1474 17.5559ZM95.3565 15.2582C95.1659 16.0638 93.9898 15.6545 93.6082 15.5541L93.9447 14.1302C94.3262 14.2306 95.5549 14.4179 95.3565 15.2582Z" fill="#FCFCFD"/>
<path d="M105.868 13.63C106.368 13.63 106.799 13.7245 107.162 13.9099C107.526 14.0972 107.827 14.3495 108.068 14.6668C108.306 14.9857 108.483 15.3584 108.597 15.7856C108.711 16.2139 108.768 16.6744 108.768 17.1674C108.768 17.9246 108.637 18.64 108.371 19.3144C108.106 19.9898 107.745 20.5756 107.287 21.0753C106.83 21.5743 106.289 21.9678 105.666 22.2584C105.043 22.5493 104.367 22.6948 103.64 22.6948C103.546 22.6948 103.381 22.6919 103.148 22.6868C102.915 22.6818 102.646 22.6564 102.346 22.6135C102.044 22.569 101.724 22.5032 101.387 22.415C101.05 22.3285 100.729 22.2073 100.428 22.0533L103.125 10.0943L105.541 9.69922L104.575 13.943C104.782 13.8447 104.99 13.7686 105.198 13.7131C105.406 13.6585 105.629 13.63 105.868 13.63ZM103.842 20.6725C104.205 20.6725 104.548 20.578 104.87 20.3926C105.193 20.2069 105.472 19.9563 105.706 19.6441C105.939 19.3304 106.124 18.9772 106.259 18.5826C106.393 18.1879 106.462 17.7762 106.462 17.3478C106.462 16.8215 106.378 16.411 106.212 16.1142C106.046 15.8187 105.739 15.67 105.292 15.67C105.146 15.67 104.957 15.6994 104.724 15.752C104.489 15.8079 104.279 15.9239 104.091 16.0984L103.063 20.6052C103.125 20.6168 103.18 20.6278 103.227 20.6381C103.272 20.6493 103.323 20.6572 103.373 20.6627C103.427 20.669 103.488 20.6723 103.562 20.6723C103.635 20.6723 103.727 20.6725 103.842 20.6725Z" fill="#9F8C82"/>
<path d="M111.273 22.4663H108.966L110.914 13.8139H113.238L111.273 22.4663ZM112.396 12.7597C112.074 12.7597 111.782 12.6586 111.523 12.4558C111.262 12.2544 111.132 11.9442 111.132 11.5262C111.132 11.2962 111.177 11.0805 111.264 10.877C111.354 10.6739 111.47 10.499 111.616 10.3503C111.762 10.2028 111.93 10.085 112.122 9.99625C112.315 9.9089 112.52 9.86523 112.739 9.86523C113.061 9.86523 113.351 9.96639 113.611 10.1691C113.87 10.3728 114.001 10.683 114.001 11.0988C114.001 11.3295 113.957 11.5461 113.868 11.7492C113.78 11.9523 113.664 12.1272 113.518 12.2759C113.373 12.4235 113.203 12.541 113.012 12.6289C112.818 12.7177 112.614 12.7597 112.396 12.7597Z" fill="#9F8C82"/>
<path d="M115.26 11.6578L117.677 11.2627L117.083 13.8131H119.671L119.204 15.8195H116.631L115.946 18.846C115.883 19.0983 115.847 19.3339 115.837 19.5529C115.826 19.7729 115.852 19.9618 115.915 20.1208C115.977 20.2803 116.088 20.4032 116.25 20.4901C116.411 20.5785 116.641 20.623 116.943 20.623C117.192 20.623 117.435 20.598 117.669 20.5484C117.902 20.4997 118.138 20.4318 118.378 20.3431L118.55 22.2191C118.238 22.3397 117.9 22.4435 117.536 22.5309C117.172 22.6194 116.741 22.6621 116.242 22.6621C115.525 22.6621 114.969 22.5498 114.573 22.3261C114.178 22.1009 113.899 21.7931 113.731 21.4036C113.566 21.0154 113.493 20.5679 113.513 20.0638C113.535 19.5584 113.607 19.0272 113.731 18.4678L115.26 11.6578Z" fill="#9F8C82"/>
<path d="M119.57 19.0107C119.57 18.2654 119.684 17.5626 119.913 16.9047C120.141 16.2462 120.469 15.6704 120.896 15.1762C121.321 14.6844 121.838 14.2948 122.447 14.0088C123.054 13.7245 123.733 13.5811 124.481 13.5811C124.949 13.5811 125.368 13.6278 125.736 13.7214C126.105 13.8159 126.44 13.9379 126.742 14.0911L125.946 16.0004C125.738 15.9115 125.523 15.8331 125.299 15.762C125.076 15.6895 124.804 15.6545 124.481 15.6545C123.711 15.6545 123.102 15.9346 122.649 16.493C122.198 17.0518 121.97 17.804 121.97 18.7475C121.97 19.3067 122.085 19.7588 122.314 20.1047C122.542 20.4506 122.964 20.6227 123.576 20.6227C123.879 20.6227 124.17 20.5894 124.45 20.5244C124.731 20.4586 124.98 20.3757 125.198 20.2778L125.371 22.2351C125.079 22.3545 124.757 22.4624 124.404 22.5568C124.05 22.648 123.629 22.6953 123.141 22.6953C122.496 22.6953 121.95 22.5958 121.504 22.3998C121.057 22.2007 120.688 21.9365 120.398 21.6017C120.105 21.2662 119.896 20.8744 119.766 20.4246C119.636 19.9753 119.57 19.5033 119.57 19.0107Z" fill="#9F8C82"/>
<path d="M129.82 22.6953C129.269 22.6953 128.791 22.6068 128.385 22.4315C127.981 22.2562 127.645 22.0102 127.38 21.6913C127.115 21.374 126.916 20.998 126.78 20.5648C126.644 20.1317 126.579 19.6522 126.579 19.1267C126.579 18.4676 126.679 17.8086 126.882 17.1515C127.083 16.493 127.383 15.9013 127.779 15.3754C128.172 14.8487 128.657 14.4181 129.228 14.0824C129.798 13.7488 130.454 13.5811 131.191 13.5811C131.732 13.5811 132.208 13.6698 132.619 13.8451C133.028 14.02 133.366 14.268 133.632 14.5853C133.896 14.9042 134.096 15.2785 134.231 15.7124C134.367 16.1447 134.434 16.6254 134.434 17.1513C134.434 17.8084 134.335 18.4674 134.139 19.1265C133.942 19.7824 133.65 20.3755 133.265 20.9026C132.881 21.4285 132.401 21.8589 131.824 22.1932C131.247 22.5276 130.579 22.6953 129.82 22.6953ZM130.973 15.6547C130.631 15.6547 130.329 15.7595 130.07 15.9665C129.81 16.1759 129.592 16.4392 129.416 16.7567C129.238 17.0756 129.106 17.4233 129.017 17.8013C128.929 18.1801 128.885 18.5382 128.885 18.8785C128.885 19.4275 128.969 19.8551 129.134 20.1628C129.301 20.4689 129.602 20.6229 130.039 20.6229C130.382 20.6229 130.683 20.5189 130.943 20.3097C131.202 20.1019 131.42 19.8384 131.597 19.5203C131.774 19.2031 131.907 18.8543 131.996 18.4757C132.083 18.0981 132.128 17.7379 132.128 17.3983C132.128 16.8507 132.044 16.4221 131.878 16.1148C131.712 15.8087 131.41 15.6547 130.973 15.6547Z" fill="#9F8C82"/>
<path d="M136.948 22.4663H134.639L136.587 13.8139H138.912L136.948 22.4663ZM138.069 12.7597C137.747 12.7597 137.455 12.6586 137.197 12.4558C136.937 12.2544 136.806 11.9442 136.806 11.5262C136.806 11.2962 136.851 11.0805 136.939 10.877C137.027 10.6739 137.144 10.499 137.29 10.3503C137.435 10.2028 137.606 10.085 137.797 9.99625C137.989 9.9089 138.194 9.86523 138.412 9.86523C138.734 9.86523 139.026 9.96639 139.285 10.1691C139.545 10.3728 139.676 10.683 139.676 11.0988C139.676 11.3295 139.63 11.5461 139.542 11.7492C139.455 11.9523 139.338 12.1272 139.193 12.2759C139.046 12.4235 138.878 12.541 138.686 12.6289C138.493 12.7177 138.288 12.7597 138.069 12.7597Z" fill="#9F8C82"/>
<path d="M140.575 14.2062C140.75 14.1522 140.946 14.0872 141.158 14.0165C141.372 13.9458 141.61 13.88 141.877 13.8207C142.14 13.7595 142.438 13.71 142.765 13.6716C143.092 13.6324 143.464 13.6133 143.879 13.6133C145.095 13.6133 145.934 13.9872 146.398 14.7329C146.86 15.4786 146.94 16.499 146.64 17.7925L145.579 22.4643H143.256L144.285 17.8908C144.347 17.6052 144.397 17.3292 144.433 17.0594C144.47 16.7921 144.468 16.5565 144.425 16.3526C144.384 16.1511 144.287 15.9862 144.137 15.8584C143.985 15.7327 143.755 15.6695 143.443 15.6695C143.142 15.6695 142.836 15.7036 142.524 15.7694L141.011 22.4641H138.688L140.575 14.2062Z" fill="#9F8C82"/>
</g>
<defs>
<filter id="filter0_d_8929_50904" x="0.381573" y="0.462628" width="84.2977" height="24.9955" filterUnits="userSpaceOnUse" color-interpolation-filters="sRGB">
<feFlood flood-opacity="0" result="BackgroundImageFix"/>
<feColorMatrix in="SourceAlpha" type="matrix" values="0 0 0 0 0 0 0 0 0 0 0 0 0 0 0 0 0 0 127 0" result="hardAlpha"/>
<feOffset dx="0.535569" dy="0.535569"/>
<feGaussianBlur stdDeviation="1.07114"/>
<feComposite in2="hardAlpha" operator="out"/>
<feColorMatrix type="matrix" values="0 0 0 0 0.141667 0 0 0 0 0.0543055 0 0 0 0 0.0324653 0 0 0 0.04 0"/>
<feBlend mode="normal" in2="BackgroundImageFix" result="effect1_dropShadow_8929_50904"/>
<feBlend mode="normal" in="SourceGraphic" in2="effect1_dropShadow_8929_50904" result="shape"/>
</filter>
<clipPath id="paint0_diamond_8929_50904_clip_path"><path d="M8.93305 12.3484C9.78964 12.3484 10.4423 12.1547 10.891 11.7671C11.3601 11.3592 11.5946 10.7474 11.5946 9.93159C11.5946 9.15658 11.3499 8.56512 10.8604 8.15722C10.3913 7.72892 9.69787 7.51477 8.78009 7.51477C8.45377 7.51477 8.17843 7.52497 7.95409 7.54536C7.75014 7.54536 7.53599 7.56576 7.31164 7.60655V12.3484H8.93305ZM7.34223 22.1686C7.11789 22.2298 6.76097 22.291 6.27149 22.3522C5.8024 22.4134 5.33332 22.444 4.86423 22.444C4.39514 22.444 3.97704 22.4032 3.60993 22.3216C3.26321 22.2604 2.96749 22.1381 2.72274 21.9545C2.478 21.7709 2.29445 21.516 2.17208 21.1897C2.04971 20.8634 1.98852 20.4351 1.98852 19.9048V5.49566C1.98852 5.06736 2.10069 4.74104 2.32504 4.51669C2.56978 4.27195 2.8961 4.0782 3.304 3.93543C3.99744 3.69069 4.78265 3.51733 5.65964 3.41536C6.55702 3.29299 7.45441 3.2318 8.35179 3.2318C11.1663 3.2318 13.318 3.83346 14.8068 5.03677C16.2957 6.24008 17.0401 7.87169 17.0401 9.93159C17.0401 10.9309 16.8769 11.8385 16.5506 12.6543C16.2447 13.4497 15.7756 14.1432 15.1434 14.7346C14.5315 15.3057 13.7463 15.7544 12.7877 16.0807C11.8495 16.3866 10.7584 16.5396 9.51431 16.5396H7.34223V22.1686ZM26.781 22.7805C25.5777 22.7805 24.4559 22.6173 23.4158 22.291C22.396 21.9443 21.4987 21.4344 20.7236 20.7614C19.969 20.0883 19.3674 19.2419 18.9187 18.2222C18.4904 17.2024 18.2762 16.0093 18.2762 14.6429C18.2762 13.2968 18.4904 12.1445 18.9187 11.1859C19.3674 10.2069 19.9486 9.41151 20.6625 8.79966C21.3763 8.16741 22.1921 7.70852 23.1099 7.42299C24.0276 7.11707 24.9658 6.9641 25.9244 6.9641C27.0053 6.9641 27.9843 7.12726 28.8613 7.45359C29.7587 7.77991 30.5235 8.2286 31.1557 8.79966C31.8084 9.37072 32.3081 10.054 32.6548 10.8494C33.0219 11.6448 33.2054 12.5116 33.2054 13.4497C33.2054 14.1432 33.0117 14.6734 32.6242 15.0406C32.2367 15.4077 31.6962 15.6422 31.0028 15.7442L23.4464 16.8761C23.6707 17.5492 24.1296 18.059 24.8231 18.4058C25.5165 18.7321 26.3119 18.8952 27.2093 18.8952C28.0455 18.8952 28.8307 18.7933 29.5649 18.5893C30.3195 18.365 30.9314 18.11 31.4005 17.8245C31.7268 18.0284 32.0021 18.314 32.2265 18.6811C32.4508 19.0482 32.563 19.4357 32.563 19.8436C32.563 20.7614 32.1347 21.4446 31.2781 21.8933C30.6255 22.24 29.8912 22.4746 29.0754 22.5969C28.2596 22.7193 27.4948 22.7805 26.781 22.7805ZM25.9244 10.7576C25.4349 10.7576 25.0066 10.8392 24.6395 11.0023C24.2928 11.1655 24.0073 11.3796 23.7829 11.6448C23.5586 11.8895 23.3852 12.175 23.2628 12.5014C23.1609 12.8073 23.0997 13.1234 23.0793 13.4497L28.3106 12.5931C28.2494 12.1852 28.0251 11.7773 27.6376 11.3694C27.2501 10.9615 26.679 10.7576 25.9244 10.7576ZM42.072 18.987C42.4188 18.987 42.7961 18.9564 43.204 18.8952C43.6323 18.8137 43.9484 18.7117 44.1523 18.5893V16.1419L41.9497 16.3255C41.3786 16.3662 40.9095 16.4886 40.5424 16.6926C40.1753 16.8965 39.9917 17.2024 39.9917 17.6103C39.9917 18.0182 40.1447 18.3548 40.4506 18.6199C40.777 18.8646 41.3174 18.987 42.072 18.987ZM41.8273 6.9641C42.9286 6.9641 43.928 7.07628 44.8254 7.30062C45.7432 7.52497 46.5182 7.87168 47.1504 8.34077C47.8031 8.78946 48.3027 9.37072 48.6495 10.0846C48.9962 10.778 49.1695 11.604 49.1695 12.5626V19.4153C49.1695 19.9456 49.0166 20.3841 48.7107 20.7308C48.4251 21.0571 48.0784 21.3426 47.6705 21.5874C46.3448 22.3828 44.4787 22.7805 42.072 22.7805C40.9911 22.7805 40.0121 22.6785 39.1352 22.4746C38.2786 22.2706 37.5341 21.9647 36.9019 21.5568C36.29 21.1489 35.8108 20.6288 35.464 19.9966C35.1377 19.3643 34.9746 18.6301 34.9746 17.7939C34.9746 16.3866 35.3927 15.3057 36.2289 14.5511C37.0651 13.7965 38.3601 13.3274 40.1141 13.1438L44.1218 12.7155V12.5014C44.1218 11.9099 43.8566 11.4918 43.3263 11.2471C42.8165 10.9819 42.072 10.8494 41.0931 10.8494C40.3181 10.8494 39.5635 10.9309 38.8292 11.0941C38.095 11.2573 37.4322 11.4612 36.8407 11.706C36.5756 11.5224 36.3512 11.2471 36.1677 10.88C35.9841 10.4925 35.8923 10.0947 35.8923 9.68685C35.8923 9.15658 36.0147 8.73848 36.2594 8.43255C36.5246 8.10623 36.9223 7.83089 37.4526 7.60655C38.044 7.3822 38.7375 7.21904 39.5329 7.11707C40.3487 7.01509 41.1135 6.9641 41.8273 6.9641ZM60.7319 11.0635C60.222 11.0635 59.7325 11.1451 59.2634 11.3083C58.8147 11.4714 58.417 11.7162 58.0703 12.0425C57.744 12.3484 57.4789 12.7359 57.2749 13.205C57.071 13.6741 56.969 14.2248 56.969 14.857C56.969 16.1215 57.3259 17.0699 58.0397 17.7021C58.774 18.3344 59.6611 18.6505 60.7013 18.6505C61.3131 18.6505 61.8434 18.5791 62.2921 18.4363C62.7408 18.2936 63.1385 18.1406 63.4852 17.9775C63.8931 18.263 64.199 18.5791 64.403 18.9258C64.607 19.2521 64.7089 19.6499 64.7089 20.1189C64.7089 20.9551 64.3112 21.6078 63.5158 22.0769C62.7204 22.5256 61.6191 22.7499 60.2118 22.7499C58.9269 22.7499 57.7644 22.5663 56.7242 22.1992C55.6841 21.8117 54.7867 21.2815 54.0321 20.6084C53.2979 19.915 52.7268 19.089 52.3189 18.1304C51.911 17.1718 51.7071 16.1113 51.7071 14.9488C51.7071 13.6027 51.9212 12.43 52.3495 11.4306C52.7982 10.4109 53.3998 9.57468 54.1545 8.92203C54.9091 8.26939 55.7759 7.77991 56.7548 7.45359C57.7542 7.12726 58.8045 6.9641 59.9059 6.9641C61.3743 6.9641 62.5063 7.22924 63.3017 7.75951C64.0971 8.28978 64.4948 8.97302 64.4948 9.80922C64.4948 10.1967 64.403 10.5638 64.2194 10.9106C64.0359 11.2369 63.8217 11.5224 63.577 11.7671C63.2303 11.604 62.8122 11.451 62.3227 11.3083C61.8332 11.1451 61.3029 11.0635 60.7319 11.0635ZM82.0017 22.2604C81.7977 22.3216 81.4714 22.3828 81.0227 22.444C80.5944 22.5052 80.1457 22.5358 79.6766 22.5358C79.2279 22.5358 78.82 22.5052 78.4529 22.444C78.1062 22.3828 77.8105 22.2604 77.5657 22.0769C77.321 21.8933 77.1272 21.6486 76.9845 21.3426C76.8621 21.0163 76.8009 20.5982 76.8009 20.0883V13.2968C76.8009 12.4606 76.5868 11.8793 76.1585 11.553C75.7506 11.2063 75.2407 11.0329 74.6288 11.0329C74.2209 11.0329 73.8334 11.0839 73.4663 11.1859C73.0992 11.2879 72.8035 11.4102 72.5791 11.553V22.2604C72.3752 22.3216 72.0489 22.3828 71.6002 22.444C71.1719 22.5052 70.7232 22.5358 70.2541 22.5358C69.8054 22.5358 69.3975 22.5052 69.0304 22.444C68.6837 22.3828 68.3879 22.2604 68.1432 22.0769C67.8984 21.8933 67.7047 21.6486 67.5619 21.3426C67.4396 21.0163 67.3784 20.5982 67.3784 20.0883V2.34462C67.6027 2.30382 67.929 2.25284 68.3573 2.19165C68.806 2.11007 69.2547 2.06928 69.7034 2.06928C70.1521 2.06928 70.5498 2.09987 70.8965 2.16106C71.2636 2.22224 71.5696 2.34461 71.8143 2.52817C72.059 2.71173 72.2426 2.96666 72.365 3.29299C72.5077 3.59891 72.5791 4.00682 72.5791 4.51669V7.51477C72.8443 7.4128 73.242 7.30062 73.7722 7.17825C74.3229 7.03549 74.9246 6.9641 75.5772 6.9641C77.5963 6.9641 79.1667 7.47398 80.2885 8.49373C81.4306 9.49309 82.0017 10.9921 82.0017 12.9909V22.2604Z"/></clipPath><linearGradient id="paint0_diamond_8929_50904" x1="0" y1="0" x2="500" y2="500" gradientUnits="userSpaceOnUse">
<stop stop-color="#FFA24C"/>
<stop offset="0.50246" stop-color="#FF7A50"/>
<stop offset="1" stop-color="#FF4D42"/>
</linearGradient>
<clipPath id="clip0_8929_50904">
<rect width="59" height="13" fill="white" transform="translate(87.8164 9.69727)"/>
</clipPath>
</defs>
</svg>
