
<svg viewBox="0 0 516 212" fill="none" xmlns="http://www.w3.org/2000/svg">
<path d="M75.5585 40.0707C81.1752 39.4681 86.1636 42.7633 87.7206 48.1291C87.995 49.0751 88.1331 50.0876 88.1642 51.0756C88.2315 53.1901 88.1884 55.308 88.1884 57.4242V57.4242C88.1884 57.6189 88.022 57.7731 87.8275 57.7803C86.281 57.8371 84.769 57.7702 83.2914 57.2823C78.6586 55.7565 75.581 51.5118 75.5326 46.5455C75.5119 44.5309 75.5275 42.5145 75.5292 40.4999" fill="#05A85A"/>
<path d="M102.463 49.4991C102.462 49.4991 102.462 49.5 102.462 49.5009C102.958 53.8989 99.8165 57.6504 95.5761 57.7765C94.1693 57.8185 92.7608 57.7835 91.3161 57.7835C91.1227 54.9455 91.9841 52.6034 94.2349 50.8831C95.3948 49.9967 96.717 49.5289 98.1704 49.5044C99.5927 49.4816 101.017 49.4991 102.463 49.4991V49.4991Z" fill="#05A85A"/>
<path fill-rule="evenodd" clip-rule="evenodd" d="M138.035 95.4951C138.035 120.503 116.089 144.211 89.0175 144.211C79.1985 144.211 70.0538 141.092 62.386 135.923V160.807C62.386 166.989 57.3747 172 51.193 172C45.0113 172 40 166.989 40 160.807V96.3509H40.0086C40.0029 96.0658 40 95.7805 40 95.4951C40 73.8588 56.4276 59.2731 78.3894 60.9771C85.4348 61.5238 92.6003 61.5238 99.6456 60.9771C121.607 59.2731 138.035 73.8588 138.035 95.4951ZM62.386 99.4743C62.386 112.87 74.1365 125.569 88.6316 125.569C103.127 125.569 114.877 112.87 114.877 99.4743C114.877 87.3016 105.174 79.2953 92.5256 81.1893C89.9492 81.5751 87.3139 81.5751 84.7375 81.1893C72.0892 79.2953 62.386 87.3016 62.386 99.4743Z" fill="url(#paint0_diamond_151_131)"/>
<g filter="url(#filter0_d_151_131)">
<path d="M195.394 99.3709C198.593 99.3709 201.03 98.6473 202.706 97.2003C204.457 95.677 205.333 93.3921 205.333 90.3456C205.333 87.4515 204.419 85.2428 202.592 83.7195C200.84 82.1201 198.25 81.3204 194.823 81.3204C193.604 81.3204 192.576 81.3585 191.738 81.4347C190.977 81.4347 190.177 81.5108 189.339 81.6631V99.3709H195.394ZM189.454 136.043C188.616 136.272 187.283 136.5 185.455 136.728C183.703 136.957 181.952 137.071 180.2 137.071C178.448 137.071 176.887 136.919 175.516 136.614C174.221 136.386 173.117 135.929 172.203 135.243C171.289 134.558 170.603 133.606 170.146 132.387C169.689 131.169 169.461 129.569 169.461 127.589V73.7803C169.461 72.1809 169.88 70.9623 170.718 70.1245C171.632 69.2106 172.85 68.4871 174.373 67.9539C176.963 67.04 179.895 66.3926 183.17 66.0118C186.521 65.5548 189.872 65.3263 193.224 65.3263C203.734 65.3263 211.769 67.5731 217.329 72.0667C222.889 76.5603 225.669 82.6533 225.669 90.3456C225.669 94.0776 225.059 97.4668 223.841 100.513C222.698 103.484 220.947 106.073 218.586 108.282C216.301 110.414 213.368 112.09 209.789 113.309C206.285 114.451 202.211 115.022 197.565 115.022H189.454V136.043ZM262.045 138.328C257.551 138.328 253.362 137.719 249.478 136.5C245.67 135.205 242.318 133.301 239.424 130.788C236.606 128.274 234.36 125.114 232.684 121.306C231.085 117.498 230.285 113.042 230.285 107.939C230.285 102.912 231.085 98.6093 232.684 95.0296C234.36 91.3738 236.53 88.4035 239.196 86.1186C241.862 83.7576 244.908 82.0439 248.335 80.9777C251.763 79.8352 255.266 79.264 258.846 79.264C262.882 79.264 266.538 79.8733 269.813 81.0919C273.164 82.3105 276.02 83.9861 278.381 86.1186C280.819 88.2512 282.685 90.8026 283.979 93.7729C285.35 96.7433 286.036 99.9802 286.036 103.484C286.036 106.073 285.312 108.053 283.865 109.424C282.418 110.795 280.4 111.671 277.81 112.052L249.592 116.279C250.43 118.792 252.143 120.696 254.733 121.991C257.322 123.21 260.293 123.819 263.644 123.819C266.767 123.819 269.699 123.438 272.441 122.677C275.259 121.839 277.544 120.887 279.295 119.82C280.514 120.582 281.542 121.648 282.38 123.019C283.218 124.39 283.637 125.837 283.637 127.361C283.637 130.788 282.037 133.339 278.838 135.015C276.401 136.31 273.659 137.185 270.613 137.642C267.566 138.099 264.71 138.328 262.045 138.328ZM258.846 93.4302C257.018 93.4302 255.418 93.7349 254.047 94.3442C252.753 94.9535 251.686 95.7532 250.849 96.7433C250.011 97.6572 249.364 98.7235 248.907 99.9421C248.526 101.085 248.297 102.265 248.221 103.484L267.757 100.285C267.528 98.7616 266.69 97.2383 265.243 95.7151C263.796 94.1918 261.664 93.4302 258.846 93.4302ZM319.147 124.162C320.441 124.162 321.85 124.047 323.374 123.819C324.973 123.514 326.154 123.134 326.915 122.677V113.537L318.69 114.223C316.557 114.375 314.805 114.832 313.434 115.593C312.064 116.355 311.378 117.498 311.378 119.021C311.378 120.544 311.949 121.801 313.092 122.791C314.31 123.705 316.329 124.162 319.147 124.162ZM318.233 79.264C322.345 79.264 326.077 79.6829 329.429 80.5207C332.856 81.3585 335.75 82.6532 338.111 84.405C340.548 86.0806 342.414 88.2512 343.709 90.9169C345.004 93.5064 345.651 96.591 345.651 100.171V125.761C345.651 127.741 345.08 129.379 343.937 130.674C342.871 131.892 341.576 132.958 340.053 133.872C335.103 136.843 328.134 138.328 319.147 138.328C315.11 138.328 311.454 137.947 308.179 137.185C304.98 136.424 302.201 135.281 299.839 133.758C297.555 132.235 295.765 130.293 294.47 127.932C293.251 125.571 292.642 122.829 292.642 119.706C292.642 114.451 294.203 110.414 297.326 107.596C300.449 104.778 305.285 103.027 311.835 102.341L326.801 100.742V99.9421C326.801 97.7334 325.811 96.1721 323.831 95.2581C321.927 94.268 319.147 93.7729 315.491 93.7729C312.597 93.7729 309.779 94.0776 307.037 94.6869C304.295 95.2962 301.82 96.0578 299.611 96.9718C298.621 96.2863 297.783 95.2581 297.098 93.8872C296.412 92.4401 296.069 90.9549 296.069 89.4317C296.069 87.4515 296.526 85.8901 297.44 84.7477C298.43 83.5291 299.916 82.5009 301.896 81.6631C304.105 80.8254 306.694 80.2161 309.664 79.8352C312.711 79.4544 315.567 79.264 318.233 79.264ZM388.829 94.5727C386.925 94.5727 385.097 94.8773 383.345 95.4866C381.67 96.0959 380.184 97.0098 378.89 98.2284C377.671 99.3709 376.681 100.818 375.919 102.57C375.158 104.321 374.777 106.378 374.777 108.739C374.777 113.461 376.11 117.002 378.775 119.363C381.517 121.725 384.83 122.905 388.715 122.905C391 122.905 392.98 122.638 394.655 122.105C396.331 121.572 397.816 121.001 399.111 120.392C400.634 121.458 401.776 122.638 402.538 123.933C403.3 125.152 403.681 126.637 403.681 128.389C403.681 131.511 402.195 133.949 399.225 135.7C396.255 137.376 392.142 138.214 386.887 138.214C382.089 138.214 377.747 137.528 373.863 136.157C369.979 134.71 366.628 132.73 363.81 130.217C361.068 127.627 358.935 124.543 357.412 120.963C355.889 117.383 355.127 113.423 355.127 109.082C355.127 104.055 355.927 99.6755 357.526 95.9436C359.202 92.1355 361.449 89.0128 364.267 86.5756C367.085 84.1384 370.321 82.3105 373.977 81.0919C377.709 79.8733 381.632 79.264 385.744 79.264C391.228 79.264 395.455 80.2541 398.425 82.2344C401.396 84.2146 402.881 86.766 402.881 89.8887C402.881 91.3358 402.538 92.7067 401.853 94.0014C401.167 95.22 400.367 96.2863 399.454 97.2003C398.159 96.591 396.597 96.0197 394.77 95.4866C392.942 94.8773 390.961 94.5727 388.829 94.5727ZM468.258 136.386C467.496 136.614 466.277 136.843 464.602 137.071C463.002 137.3 461.327 137.414 459.575 137.414C457.899 137.414 456.376 137.3 455.005 137.071C453.711 136.843 452.606 136.386 451.692 135.7C450.778 135.015 450.055 134.101 449.522 132.958C449.065 131.74 448.836 130.179 448.836 128.274V102.912C448.836 99.7898 448.036 97.6191 446.437 96.4005C444.914 95.1058 443.01 94.4584 440.725 94.4584C439.202 94.4584 437.755 94.6488 436.384 95.0296C435.013 95.4104 433.908 95.8674 433.071 96.4005V136.386C432.309 136.614 431.09 136.843 429.415 137.071C427.815 137.3 426.14 137.414 424.388 137.414C422.712 137.414 421.189 137.3 419.818 137.071C418.524 136.843 417.419 136.386 416.505 135.7C415.591 135.015 414.868 134.101 414.335 132.958C413.878 131.74 413.649 130.179 413.649 128.274V62.0133C414.487 61.8609 415.706 61.6705 417.305 61.4421C418.981 61.1374 420.656 60.9851 422.332 60.9851C424.007 60.9851 425.492 61.0993 426.787 61.3278C428.158 61.5563 429.301 62.0133 430.214 62.6987C431.128 63.3842 431.814 64.3362 432.271 65.5548C432.804 66.6972 433.071 68.2205 433.071 70.1245V81.3204C434.061 80.9396 435.546 80.5207 437.526 80.0637C439.582 79.5306 441.829 79.264 444.266 79.264C451.806 79.264 457.671 81.1681 461.86 84.9762C466.125 88.7082 468.258 94.3061 468.258 101.77V136.386Z" fill="url(#paint1_diamond_151_131)"/>
</g>
<defs>
<filter id="filter0_d_151_131" x="163.461" y="54.9851" width="314.797" height="93.3428" filterUnits="userSpaceOnUse" color-interpolation-filters="sRGB">
<feFlood flood-opacity="0" result="BackgroundImageFix"/>
<feColorMatrix in="SourceAlpha" type="matrix" values="0 0 0 0 0 0 0 0 0 0 0 0 0 0 0 0 0 0 127 0" result="hardAlpha"/>
<feOffset dx="2" dy="2"/>
<feGaussianBlur stdDeviation="4"/>
<feComposite in2="hardAlpha" operator="out"/>
<feColorMatrix type="matrix" values="0 0 0 0 0.141667 0 0 0 0 0.0543055 0 0 0 0 0.0324653 0 0 0 0.04 0"/>
<feBlend mode="normal" in2="BackgroundImageFix" result="effect1_dropShadow_151_131"/>
<feBlend mode="normal" in="SourceGraphic" in2="effect1_dropShadow_151_131" result="shape"/>
</filter>
<radialGradient id="paint0_diamond_151_131" cx="0" cy="0" r="1" gradientUnits="userSpaceOnUse" gradientTransform="translate(138.035 60.8421) rotate(131.411) scale(148.213 167.617)">
<stop stop-color="#FFA24C"/>
<stop offset="0.50246" stop-color="#FF7A50"/>
<stop offset="1" stop-color="#FF4D42"/>
</radialGradient>
<radialGradient id="paint1_diamond_151_131" cx="0" cy="0" r="1" gradientUnits="userSpaceOnUse" gradientTransform="translate(475.035 73.5) rotate(168.268) scale(319.678 145.086)">
<stop stop-color="#FFA24C"/>
<stop offset="0.50246" stop-color="#FF7A50"/>
<stop offset="1" stop-color="#FF4D42"/>
</radialGradient>
</defs>
</svg>
