<svg width="24" height="24" viewBox="0 0 24 24" fill="none" xmlns="http://www.w3.org/2000/svg">
<rect x="0.5" y="1" width="23" height="23" rx="11.5" stroke="#FEEDE5"/>
<path d="M20.7306 14.6772C19.5284 19.4986 14.6446 22.4329 9.82201 21.2306C5.00144 20.0285 2.06684 15.1449 3.2696 10.3238C4.47122 5.5018 9.35509 2.56727 14.1762 3.76932C18.9985 4.97137 21.9328 9.85551 20.7306 14.6772Z" fill="#F7931A"/>
<path d="M16.2765 11.2654C16.4637 9.94143 15.5107 9.2297 14.2074 8.7549L14.6302 6.96143L13.598 6.68936L13.1864 8.43557C12.9151 8.36406 12.6364 8.29659 12.3594 8.22974L12.774 6.47202L11.7424 6.19995L11.3193 7.9928C11.0947 7.93869 10.8742 7.88522 10.6602 7.82894L10.6614 7.82334L9.23794 7.44742L8.96337 8.61342C8.96337 8.61342 9.72919 8.79905 9.71302 8.81056C10.1311 8.92094 10.2066 9.21352 10.194 9.44548L9.71243 11.4886C9.74124 11.4964 9.77858 11.5076 9.81974 11.525C9.78534 11.516 9.74859 11.506 9.71067 11.4964L9.03568 14.3586C8.98452 14.4929 8.85488 14.6944 8.56266 14.6179C8.57295 14.6337 7.81242 14.4198 7.81242 14.4198L7.3 15.6695L8.64321 16.0236C8.8931 16.0898 9.13798 16.1592 9.37905 16.2245L8.9519 18.0385L9.98289 18.3105L10.4059 16.5158C10.6876 16.5967 10.961 16.6713 11.2285 16.7416L10.8069 18.5279L11.8391 18.8L12.2663 16.9894C14.0263 17.3417 15.3498 17.1996 15.9069 15.5159C16.3559 14.1602 15.8846 13.3782 14.9586 12.8683C15.633 12.7038 16.141 12.2346 16.2765 11.2654ZM13.9181 14.7631C13.5992 16.1188 11.441 15.3859 10.7414 15.2021L11.3082 12.7989C12.0078 12.9836 14.2515 13.3493 13.9181 14.7631ZM14.2374 11.2458C13.9464 12.479 12.1501 11.8524 11.5675 11.6988L12.0813 9.51918C12.664 9.67278 14.5405 9.95946 14.2374 11.2458Z" fill="#FCFCFD"/>
</svg>
