
<svg viewBox="0 0 277 276" fill="none" xmlns="http://www.w3.org/2000/svg">
<path d="M119.772 44.0848C127.773 43.2264 134.879 47.9203 137.097 55.5638C137.488 56.9114 137.684 58.3537 137.729 59.7611C137.825 62.7731 137.763 65.7901 137.763 68.8046V68.8046C137.763 69.0819 137.526 69.3016 137.249 69.3118C135.046 69.3927 132.892 69.2975 130.787 68.6025C124.188 66.4289 119.804 60.3825 119.735 53.308C119.706 50.4382 119.728 47.566 119.73 44.6962" fill="#05A85A"/>
<path d="M158.097 57.5154C158.096 57.5154 158.095 57.5165 158.095 57.5179C158.802 63.7828 154.327 69.1267 148.287 69.3063C146.283 69.3662 144.276 69.3163 142.218 69.3163C141.943 65.2737 143.17 61.9373 146.376 59.4868C148.029 58.2241 149.912 57.5578 151.982 57.5229C154.008 57.4904 156.037 57.5154 158.097 57.5154V57.5154Z" fill="#05A85A"/>
<path fill-rule="evenodd" clip-rule="evenodd" d="M208.769 123.036C208.769 158.659 177.507 192.43 138.944 192.43C124.957 192.43 111.931 187.987 101.008 180.625V216.072C101.008 224.877 93.8695 232.016 85.0638 232.016C76.258 232.016 69.1195 224.877 69.1195 216.072V124.255H69.1317C69.1236 123.849 69.1195 123.443 69.1195 123.036C69.1195 92.2153 92.5204 71.4383 123.805 73.8656C133.841 74.6443 144.048 74.6443 154.084 73.8656C185.368 71.4383 208.769 92.2153 208.769 123.036ZM101.008 128.727V128.682C101.02 111.355 114.838 99.9607 132.847 102.657C136.517 103.207 140.271 103.207 143.941 102.657C161.959 99.9595 175.781 111.364 175.781 128.704C175.781 147.786 159.042 165.876 138.394 165.876C117.755 165.876 101.021 147.8 101.008 128.727Z" fill="url(#paint0_diamond_154_194)"/>
<defs>
<radialGradient id="paint0_diamond_154_194" cx="0" cy="0" r="1" gradientUnits="userSpaceOnUse" gradientTransform="translate(208.769 73.6733) rotate(131.411) scale(211.126 238.767)">
<stop stop-color="#FFA24C"/>
<stop offset="0.50246" stop-color="#FF7A50"/>
<stop offset="1" stop-color="#FF4D42"/>
</radialGradient>
</defs>
</svg>
