<svg viewBox="0 0 1000 1000" xmlns="http://www.w3.org/2000/svg"><g fill="#fe6309"><path d="M964.261 528.953 441.548 6.24v80.23L884.03 528.953l.168.168-383.276 383.276-.461-.462-383.024-382.982-.336-.335 188.03-188.03h-81.616L35.32 528.787l.168.167L500.294 993.76l.168-.168L964.68 529.373z"/><path d="M441.38 141.691v80.23l307.2 307.2L501.09 776.61 253.393 528.953l-.336-.335 188.03-188.03H359.47L171.274 528.787l.168.167 288.653 288.653 40.367 40.367 41.038-40.996 287.562-287.604z"/><path d="M693.568 528.953 540.283 375.5l-40.787-40.786-40.115 40.115L305.3 528.786l154.166 154.166 40.367 40.367 40.955-40.997 153.2-152.949zM500.545 642.25 387.25 528.953l-.336-.335 113.002-113.002L613.212 528.91Z"/></g></svg>