<svg viewBox="0 0 24 24" fill="none" xmlns="http://www.w3.org/2000/svg">
<path d="M20.2508 7.29858L18.9089 10.8762H15.9245L14.5826 7.29858H20.2508Z" fill="#00AF7E"/>
<path d="M4.23734 16.2426H7.76978L6.42725 19.8213H2.86487L4.23734 16.2426Z" fill="#141A23"/>
<path d="M6.29531 10.8762H9.7829L9.11186 12.665H5.60938L6.29531 10.8762Z" fill="#141A23"/>
<path d="M19.3826 19.8214L15.8219 19.8197L12.4667 10.8762L11.1248 7.29866H7.66699L9.21034 3.27271H13.0385L14.5826 7.29866L15.9543 10.8762L19.3826 19.8214Z" fill="#141A23"/>
<path d="M11.1248 7.29858L9.78288 10.8762H3.34192L2 7.29858H11.1248Z" fill="#00AF7E"/>
<path d="M13.1376 12.665L14.4795 16.2426H3.34192L2 12.665H13.1376Z" fill="#00AF7E"/>
<path d="M20.2508 12.665L18.9089 16.2426H18.0119L16.6402 12.665H20.2508Z" fill="#00AF7E"/>
<path d="M21.1236 19.8527C20.8761 19.8527 20.6693 19.7685 20.4991 19.6003C20.3318 19.4296 20.247 19.2227 20.247 18.9771C20.247 18.7315 20.3311 18.5246 20.4991 18.3562C20.6693 18.1857 20.8761 18.1017 21.1236 18.1017C21.3711 18.1017 21.5777 18.1857 21.7457 18.3562C21.9159 18.5246 22 18.7315 22 18.9771C22 19.2227 21.9159 19.4296 21.7457 19.6003C21.5777 19.7685 21.3711 19.8527 21.1236 19.8527ZM21.6503 19.5115C21.7934 19.366 21.8632 19.1886 21.8632 18.9771C21.8632 18.7656 21.7928 18.5883 21.6503 18.4442C21.5079 18.3002 21.3325 18.2259 21.1236 18.2259C20.9147 18.2259 20.7397 18.2987 20.5967 18.4442C20.4536 18.5898 20.3838 18.7649 20.3838 18.9771C20.3838 19.1894 20.4542 19.366 20.5967 19.5115C20.6652 19.5815 20.7473 19.6368 20.8379 19.6739C20.9285 19.7111 21.0257 19.7293 21.1236 19.7276C21.3325 19.7276 21.5073 19.6548 21.6503 19.5115ZM21.2215 19.0102H20.9538V19.4042H20.8037V18.5059H21.1566C21.3811 18.5059 21.4933 18.5831 21.4933 18.7375C21.4933 18.8513 21.4379 18.923 21.327 18.9528C21.4215 18.9745 21.4689 19.0368 21.469 19.1397V19.2128C21.469 19.2454 21.4737 19.267 21.4831 19.2778C21.4925 19.2886 21.5149 19.2941 21.5502 19.2941H21.5663V19.4037H21.4731C21.3702 19.4037 21.3188 19.3604 21.3189 19.2739V19.1036C21.3189 19.0414 21.2864 19.0103 21.2215 19.0102ZM21.1526 18.6242H20.9538V18.9088H21.1646C21.2783 18.9088 21.3351 18.8587 21.335 18.7585C21.335 18.6691 21.2742 18.6243 21.1526 18.6242Z" fill="#141A23"/>
</svg>
