<svg data-name="Layer 1" xmlns="http://www.w3.org/2000/svg" viewBox="0 0 122.88 123.79"><path d="M68.09.1a6.16 6.16 0 0 1-1.24.15 41.48 41.48 0 0 0-9.53 2.4l-1.19.49a43.68 43.68 0 0 0-5 2.41 3.57 3.57 0 0 1-.89.41c-.25.06-.45.18-.45.25s-.14.17-.29.24a4.26 4.26 0 0 0-.82.44 7.92 7.92 0 0 1-.9.51 4.68 4.68 0 0 0-.95.59 2.88 2.88 0 0 1-.66.43 60.55 60.55 0 0 0-7.39 5.36 30.85 30.85 0 0 0-3.58 3.81 1.82 1.82 0 0 1-.36.51 30.7 30.7 0 0 0-2.5 3.9c-.18.42-.56 1.17-.8 1.68a11.49 11.49 0 0 0-1.08 5.7 6.08 6.08 0 0 0 2 4.68 7.81 7.81 0 0 0 5.66 2.31 13.61 13.61 0 0 0 4.76-.54c.55-.16 1.3-.34 1.66-.45a4.11 4.11 0 0 0 .93-.32c.39-.2 2.58-1.19 2.68-1.19a65 65 0 0 0 7.2-4.39c2.18-1.46 4.1-2.73 4.27-2.82s1.19-.71 2.29-1.37 2.46-1.43 3-1.71l1.78-.94c.43-.2 1.22-.57 1.78-.78s1.26-.51 1.53-.63.7-.3.93-.4a14.41 14.41 0 0 1 3.62-.65 6 6 0 0 1 6.5 4.11 8.52 8.52 0 0 1 .32 3.31 12.77 12.77 0 0 1-.84 5.4l-.43 1a38.38 38.38 0 0 1-4.6 7.6 65.43 65.43 0 0 1-8.68 9l-2.29 1.9c-.72.59-1.55 1.18-2.46 1.8-.38.23-1 .64-1.36.91a45.69 45.69 0 0 1-5.43 2.89l-1.39.61A2.68 2.68 0 0 1 53 59a3.67 3.67 0 0 0-.86.19 1.62 1.62 0 0 1-2.22-1.49c0-1.39.66-2.28 4.83-6.42 4.51-4.47 5-5.14 5-6.83s-.83-2.94-2.7-3.89a4.28 4.28 0 0 0-2.55-.47 6.48 6.48 0 0 0-3.83 1c-.27.17-.7.39-.93.51a2.87 2.87 0 0 0-.51.31s-.39.3-.77.59a22.74 22.74 0 0 0-3.37 3.46A23.84 23.84 0 0 0 43 49.47 17.39 17.39 0 0 0 41.28 56c0 3.65 1.9 6.57 4.84 7.4a22.7 22.7 0 0 0 5.72 0 32.26 32.26 0 0 0 4.61-1.4.73.73 0 0 1 .41-.15 52 52 0 0 0 7.21-3.68c.39-.26.83-.55 1-.65s1-.57 1.78-1.08 1.53-1 1.58-1a14.7 14.7 0 0 1 1.27-.93l1.7-1.17c.29-.21 1.08-.82 1.78-1.38a68 68 0 0 0 10.59-10.21c.37-.45.71-.88.76-.93a35.5 35.5 0 0 0 2.09-3 22.9 22.9 0 0 0 1.2-2.07c.32-.61.77-1.44 1-1.87s.69-1.52 1.06-2.46.72-1.85.78-2a38.46 38.46 0 0 0 1.53-6.53 25 25 0 0 0-.61-8.91 15.54 15.54 0 0 0-1-2.46 18.56 18.56 0 0 0-6-7.3 9.1 9.1 0 0 1-1-.74A23.19 23.19 0 0 0 78.08 1a27.86 27.86 0 0 0-3.2-.72C73.79.11 71.82 0 70.27 0h-.79a6.8 6.8 0 0 0-1.39.1ZM36.45 92.74a15.57 15.57 0 0 1-1.7.32c-.64.08-1.83.25-2.63.37a8.81 8.81 0 0 0-1.58.31c-.15.13-.17 29 0 29.21a20.27 20.27 0 0 0 3.56.16c3.46 0 3.48 0 3.57-.39 0-.21.06-7.06 0-15.22 0-14.71 0-14.85-.39-14.88a2.58 2.58 0 0 0-.85.12Zm-4.16-12.25a4.72 4.72 0 0 0-2.24 1.81c-.54.83-.56.9-.56 2.63v1.8l.65.88a4.19 4.19 0 0 0 2.39 1.8 4.75 4.75 0 0 0 4.33-.64c1.81-1.16 2.44-4.11 1.34-6.28a3.92 3.92 0 0 0-1.75-1.76 5.52 5.52 0 0 0-4.16-.24Zm62.1 17.34c.71.18 2.2 1.39 2.2 1.76a2.15 2.15 0 0 0 .26.66c.39.77.69 3.28.42 3.6s-.83.25-4.26.25H89l-.1-.42a7 7 0 0 1 1-4.09 4.31 4.31 0 0 1 2.39-1.8 4.5 4.5 0 0 1 1.19-.22c.1 0 .51.16.9.26Zm-3.65-5.4a3.87 3.87 0 0 0-1.17.32.67.67 0 0 1-.41.16 5.73 5.73 0 0 0-1.34.54 12.84 12.84 0 0 0-4.16 3.87 17.08 17.08 0 0 0-1.74 3.68 5.62 5.62 0 0 1-.26.84c-.06.19-.27.92-.44 1.62a33 33 0 0 0 0 9.41 17 17 0 0 0 1.5 4 .17.17 0 0 1 .15.19c0 .64 2 3.2 3.44 4.36a12.72 12.72 0 0 0 3.07 1.58 20.56 20.56 0 0 0 4.77.82c2.41 0 6.75-1 8.19-2a5.32 5.32 0 0 1 1-.5 5.32 5.32 0 0 0 1.76-1.09 14.4 14.4 0 0 0-2-4.09 1.57 1.57 0 0 0-.66.34 1.52 1.52 0 0 1-.66.34 1.22 1.22 0 0 0-.56.24 17.24 17.24 0 0 1-2 .78 8.94 8.94 0 0 1-4 .57c-2.1 0-2.46 0-3.14-.35-2.37-1.14-3.73-4-3.73-7.87a12 12 0 0 1 0-1.55s3.78-.08 8.35-.13l8.31-.09v-1.7c-.1-3.32-1-7.8-1.75-8.82-.07-.1-.3-.52-.52-1a9 9 0 0 0-5.14-4.14 17.22 17.22 0 0 0-7-.39Zm-36.9 0a18.87 18.87 0 0 0-8.79 4.71l-.71.65v25.06c0 .27.25.29 3.7.25h3.68l.05-11.82V99.47l.65-.51a5.63 5.63 0 0 1 2.12-1.14 11.67 11.67 0 0 1 4.46-.5 6.14 6.14 0 0 0 1.42.05 3.94 3.94 0 0 0 .7-1.29c.25-.68.66-1.56.86-2 .56-1.07.51-1.34-.24-1.51l-1.46-.34a20.94 20.94 0 0 0-6.39.14Zm-37.33 15.92a32.6 32.6 0 0 1 .17 4.59c0 4.82.07 4.52-1.19 5.18a5.82 5.82 0 0 1-2.64.32h-2.06l-.84-.58a5 5 0 0 1-1.19-1.1 6.31 6.31 0 0 1 .15-6.76 6.88 6.88 0 0 1 2.16-1.52.72.72 0 0 0 .45-.16c.24-.25 1-.32 3-.29 1.42 0 1.86.07 2 .28Zm-5-16.35a27 27 0 0 0-5.26 1.26c-.19.08-.53.2-.77.27a14 14 0 0 0-3.22 1.61 5.69 5.69 0 0 0 .32.88 22.72 22.72 0 0 0 1.63 3.34 1.34 1.34 0 0 0 .39-.15 19.4 19.4 0 0 1 2.75-1.12c.51-.15 1.12-.35 1.36-.44a13.41 13.41 0 0 1 4.65-.32c2.3.37 3.15 1.44 3.29 4.17.07 1.51.07 1.55-.32 1.65a30.09 30.09 0 0 1-3.47.12c-4 0-5.27.23-7.88 1.51a9.16 9.16 0 0 0-4.7 5.78 11.46 11.46 0 0 0 .1 5.44c1.52 4.62 5.16 7.31 10.21 7.58A18.79 18.79 0 0 0 23 120l1.1-.9.05-9c.05-10.4 0-10.76-1.22-13.3a9.62 9.62 0 0 0-3.61-3.5c-.54-.25-1.14-.51-1.33-.59a17.09 17.09 0 0 0-6.48-.71Zm58.79-7.66c-3.77.56-5 .8-5.18 1S65 90.87 65 101.22c.08 14.46.11 15.76.39 16.46a7.31 7.31 0 0 0 1.85 3.09c1.78 1.78 4 2.51 7.78 2.51 2.07 0 2.36 0 2.5-.31a16.73 16.73 0 0 0 .12-4c-.11-.43-.17-.44-1.45-.55a3.5 3.5 0 0 1-3.19-1.76l-.42-.76-.06-8.79c0-6.55 0-8.86.16-9s.73-.23 2.54-.23c2.8 0 2.56.27 2.5-3v-2.21l-2.38-.08a17.43 17.43 0 0 1-2.58-.22c-.17-.1-.22-1.14-.22-4.21v-4.08h-.37c-.22 0-1 .12-1.83.24Zm47-.34s-.83.19-1.76.34-2.46.39-3.39.56l-1.7.29v15.61c0 17 0 16.23 1 18.35a6.15 6.15 0 0 0 1.54 2c1.8 1.65 3.48 2.16 7.06 2.17 3.05 0 2.93.12 2.87-2.69v-2l-1.31-.12c-2.32-.2-3.44-1.14-3.7-3.07-.07-.58-.12-7.84-.1-16.12 0-14.33 0-15.71-.43-15.3Z" fill="#ed1d24"/></svg>