<svg viewBox="0 0 24 24" fill="none" xmlns="http://www.w3.org/2000/svg">
<path fill-rule="evenodd" clip-rule="evenodd" d="M18.931 18.8963C17.0691 20.2688 14.3709 21 12.0481 21C8.78439 21 5.85721 19.7963 3.63848 17.7921C3.46967 17.6346 3.62047 17.4197 3.8298 17.5423C6.2241 18.9356 9.18954 19.7738 12.2428 19.7738C14.4477 19.7636 16.6289 19.3178 18.6609 18.462C18.9761 18.3281 19.2405 18.6685 18.931 18.8968V18.8963ZM19.7053 18.0109C19.469 17.7071 18.132 17.8675 17.5333 17.9378C17.3504 17.9603 17.3228 17.8011 17.4871 17.6869C18.5563 16.9388 20.2973 17.1542 20.501 17.4056C20.7047 17.6571 20.4481 19.4081 19.4487 20.2429C19.2951 20.3711 19.1488 20.3031 19.2236 20.1326C19.4487 19.5724 19.9518 18.3158 19.7132 18.0109" fill="#FF9900"/>
<path fill-rule="evenodd" clip-rule="evenodd" d="M13.3704 10.7985C13.3704 11.7503 13.3946 12.5439 12.9135 13.3888C12.5196 14.0751 11.9006 14.4986 11.2226 14.4986C10.2845 14.4986 9.73478 13.7843 9.73478 12.7296C9.73478 10.6483 11.6007 10.2697 13.371 10.2697V10.7985H13.3704ZM15.8356 16.752C15.6741 16.8966 15.4406 16.9067 15.2583 16.8105C14.448 16.1372 14.2994 15.8244 13.856 15.1821C12.5157 16.5489 11.5636 16.9579 9.82819 16.9579C7.76983 16.9579 6.17175 15.69 6.17175 13.1514C6.17175 11.1692 7.2437 9.81919 8.77706 9.15937C10.1034 8.5755 11.9563 8.47312 13.3715 8.31562V8.00625C13.3715 7.42575 13.4165 6.73838 13.0733 6.23719C12.7779 5.78719 12.2067 5.60156 11.702 5.60156C10.7707 5.60156 9.94242 6.07969 9.73985 7.06856C9.69877 7.29356 9.53727 7.50506 9.31388 7.51519L6.93872 7.24969C6.73952 7.20469 6.51669 7.04381 6.57465 6.74344C7.12328 3.86625 9.72128 3 12.0447 3C13.2337 3 14.7873 3.31612 15.7247 4.21612C16.9137 5.32594 16.8006 6.80644 16.8006 8.418V12.225C16.8006 13.3691 17.275 13.8703 17.7218 14.4891C17.8765 14.7141 17.9108 14.9728 17.7116 15.1382C17.081 15.6713 16.4567 16.2119 15.839 16.7599L15.8356 16.7531" fill="#221F1F"/>
</svg>
