<svg xmlns="http://www.w3.org/2000/svg" width="32" height="32" viewBox="0 0 32 32"><path style="stroke:none;fill-rule:evenodd;fill:#1a1f70;fill-opacity:1" d="M-.031-.031h32v32h-32zm0 0"/><path style="stroke:none;fill-rule:evenodd;fill:#241d53;fill-opacity:1" d="M16.219 7.281a5 5 0 0 0-.625-.062q0-.064-.063-.063a55 55 0 0 0-3.687-.062q2.11-.088 4.25-.094l-.375.063.062.062a.77.77 0 0 1 .438.156m0 0"/><path style="stroke:none;fill-rule:evenodd;fill:#604227;fill-opacity:1" d="M11.844 7.094q1.858-.03 3.687.062-1.815-.06-3.562.125-.13-.046-.125-.187m0 0"/><path style="stroke:none;fill-rule:evenodd;fill:#e3a946;fill-opacity:1" d="M15.531 7.156q.064 0 .063.063h-3.5v.25q-.13-.048-.125-.188a26 26 0 0 1 3.562-.125m0 0"/><path style="stroke:none;fill-rule:evenodd;fill:#f8a916;fill-opacity:1" d="M15.594 7.219q.315.01.625.062 1.437.492 2.093 1.875a941 941 0 0 1 2.344 7.813q-.012.3.188.5l1.125 3.937a.5.5 0 0 1 .031.313 860 860 0 0 0-8.469-12.125l-1.437-2.125v-.25zm0 0"/><path style="stroke:none;fill-rule:evenodd;fill:#fdfcfc;fill-opacity:1" d="M13.531 9.594A860 860 0 0 1 22 21.719a.5.5 0 0 0-.031-.313 40 40 0 0 1 1.062 3.375 29 29 0 0 1-3.781 0 409 409 0 0 0-3.437-10.812A681 681 0 0 1 12.53 24.78q-1.815.061-3.562-.125A3197 3197 0 0 1 13.53 9.594m0 0"/><path style="stroke:none;fill-rule:evenodd;fill:#997243;fill-opacity:1" d="M20.656 16.969q.13.229.188.5a.64.64 0 0 1-.188-.5m0 0"/><path style="stroke:none;fill-rule:evenodd;fill:#9b9fbf;fill-opacity:1" d="M8.969 24.656q1.746.186 3.562.125-1.798.093-3.625.063-.021-.123.063-.188m0 0"/></svg>
