<svg xmlns="http://www.w3.org/2000/svg" viewBox="0 0 75 75" fill="none">
<circle cx="37.5" cy="37.5" r="37.5" fill="white"/>
<path fill-rule="evenodd" clip-rule="evenodd" d="M28.4252 73.8773C48.5193 78.887 68.8688 66.661 73.878 46.5717C78.886 26.4813 66.6596 6.13071 46.5679 1.12217C26.4797 -3.88637 6.13014 8.34085 1.12332 28.4324C-3.88818 48.5205 8.33937 68.8688 28.4252 73.8773ZM45.7873 22.6962C50.9828 24.4856 54.7825 27.168 54.0359 32.1578C53.4944 35.8105 51.4704 37.5788 48.7818 38.1987C52.4736 40.1206 54.3524 43.0678 52.5627 48.1772C50.3417 54.5228 45.0654 55.0583 38.0486 53.7306L36.3456 60.5544L32.2307 59.529L33.9114 52.7967C32.8449 52.5318 31.7549 52.2506 30.6321 51.9459L28.9456 58.7099L24.8354 57.6845L26.5383 50.8478C26.1548 50.7497 25.769 50.649 25.3804 50.5477L25.3783 50.5472C24.7936 50.3947 24.2028 50.2407 23.6048 50.0908L18.2499 48.7561L20.2927 44.0463C20.2927 44.0463 23.3246 44.8526 23.2836 44.7928C24.4486 45.0811 24.9655 44.3217 25.1694 43.8155L27.8603 33.0285C27.9611 33.0527 28.0599 33.0775 28.1552 33.1013L28.1557 33.1015L28.2951 33.1363C28.131 33.0707 27.9822 33.0285 27.8673 32.9992L29.7871 25.2989C29.8375 24.4247 29.5363 23.3219 27.8697 22.9059C27.9342 22.8626 24.8811 22.163 24.8811 22.163L25.9757 17.7685L31.6506 19.1853L31.6459 19.2064C32.4991 19.4185 33.3781 19.62 34.2735 19.8239L35.9601 13.067L40.0726 14.0924L38.4201 20.7169C39.5241 20.9688 40.6352 21.2231 41.7169 21.4927L43.3578 14.9115L47.4727 15.9369L45.7873 22.6962ZM32.7716 47.203C36.1292 48.0897 43.4674 50.0277 44.6341 45.3401C45.8295 40.5472 38.7127 38.9505 35.24 38.1713L35.2396 38.1712C34.8517 38.0842 34.5093 38.0074 34.229 37.9374L31.9694 46.9948C32.1996 47.0519 32.4695 47.1232 32.7716 47.203ZM35.9377 33.9681C38.7371 34.7151 44.8433 36.3444 45.9069 32.084C46.993 27.7262 41.0583 26.4125 38.1599 25.771C37.8339 25.6988 37.5463 25.6351 37.3114 25.5766L35.2627 33.7914C35.4562 33.8396 35.6832 33.9002 35.9375 33.968L35.9377 33.9681ZM21.8152 24.9466L23.1329 24.1759L23.9144 25.5118L25.2502 24.7305L26.021 26.0481L24.6852 26.8293L25.4657 28.1635L24.148 28.9342L23.3675 27.6L22.0329 28.3806L21.2621 27.063L22.5967 26.2825L21.8152 24.9466ZM21.6578 30.3241L20.3401 31.0948L21.1216 32.4307L19.787 33.2112L20.5578 34.5288L21.8924 33.7483L22.6729 35.0825L23.9906 34.3118L23.2101 32.9776L24.5459 32.1963L23.7752 30.8787L22.4393 31.66L21.6578 30.3241ZM18.8635 37.2445L20.1813 36.4739L20.9628 37.8097L22.2986 37.0285L23.0694 38.346L21.7335 39.1273L22.514 40.4615L21.1963 41.2322L20.4158 39.898L19.0812 40.6785L18.3105 39.361L19.645 38.5804L18.8635 37.2445Z" fill="#FF9500"/>
</svg>