<svg viewBox="0 0 24 24" fill="none" xmlns="http://www.w3.org/2000/svg">
<path fill-rule="evenodd" clip-rule="evenodd" d="M8.30784 9.43275C8.96447 9.9104 9.87977 9.7711 10.3573 9.11435L12.0686 6.74614C12.5461 6.08941 12.4068 5.17397 11.7502 4.69634C11.0936 4.21872 10.1782 4.35802 9.70069 5.01476L7.96957 7.38297C7.51192 8.0397 7.65121 8.95515 8.30784 9.43275ZM16.1476 6.08941C15.491 5.61179 14.5757 5.75109 14.0981 6.40782L7.21342 15.8807C6.73587 16.5374 6.87516 17.4529 7.53179 17.9305C8.18842 18.4081 9.10372 18.2688 9.58128 17.6121L16.466 8.1392C16.9634 7.48248 16.8042 6.56703 16.1476 6.08941ZM7.6512 5.33318C8.12875 4.67645 7.98946 3.76101 7.33283 3.28339C6.6762 2.80577 5.76089 2.94507 5.28335 3.6018C4.8058 4.25853 4.94508 5.17398 5.60171 5.6516C6.25834 6.12923 7.17365 5.98992 7.6512 5.33318ZM18.0976 18.3484C17.441 17.8708 16.5257 18.0101 16.0482 18.6668C15.5706 19.3236 15.7099 20.239 16.3665 20.7166C17.0232 21.1943 17.9385 21.0549 18.416 20.3982C18.8936 19.7415 18.7543 18.826 18.0976 18.3484ZM15.4114 14.5871C14.7548 14.1095 13.8395 14.2488 13.362 14.9056L11.6308 17.2738C11.1533 17.9305 11.2926 18.8459 11.9492 19.3236C12.6058 19.8012 13.5211 19.6619 13.9987 19.0051L15.7298 16.6369C16.2074 15.9802 16.0681 15.0648 15.4114 14.5871Z" fill="#05C0C7"/>
</svg>
