<svg fill="none" xmlns="http://www.w3.org/2000/svg" viewBox="0 0 30 30"><path d="M15 .78C6.948.78.422 7.145.422 15c0 7.854 6.526 14.22 14.578 14.22S29.578 22.855 29.578 15C29.578 7.146 23.052.78 15 .78zm1.308 23.574h-.014a.102.102 0 0 1-.068-.025.098.098 0 0 1-.034-.075v-3.95c0-.046.032-.086.078-.096 1.99-.457 3.575-2.005 4.045-3.947a.1.1 0 0 1 .099-.077h4.048c.029 0 .058.012.077.033.018.022.029.05.023.08-.57 4.187-3.966 7.5-8.254 8.057zm8.159-10.448h-4.055a.1.1 0 0 1-.099-.077c-.582-2.415-2.759-4.1-5.293-4.1-3.006 0-5.45 2.385-5.45 5.318 0 2.471 1.727 4.594 4.202 5.162.047.01.079.05.079.097v3.95a.1.1 0 0 1-.102.1h-.014c-4.762-.621-8.352-4.623-8.352-9.308 0-5.184 4.324-9.402 9.637-9.402 4.795 0 8.889 3.489 9.54 8.118.006.014.01.029.01.044a.101.101 0 0 1-.103.098z" fill="#8514f5"/></svg>