<?xml version="1.0" encoding="UTF-8"?>
<svg xmlns="http://www.w3.org/2000/svg" width="32px" height="32px" viewBox="0 0 32 32" version="1.1">
<g id="surface1">
<path style=" stroke:none;fill-rule:nonzero;fill:rgb(87.843137%,10.196078%,9.803922%);fill-opacity:1;" d="M 16.191406 13.265625 C 16.234375 12.925781 16.320312 12.632812 16.4375 12.351562 C 16.695312 11.734375 16.980469 11.128906 17.234375 10.511719 C 17.574219 9.683594 18.214844 9.335938 19.070312 9.304688 C 19.695312 9.277344 20.304688 9.339844 20.886719 9.570312 C 20.96875 9.601562 21.011719 9.609375 21.054688 9.515625 C 21.09375 9.421875 21.160156 9.335938 21.214844 9.246094 C 21.300781 9.09375 21.3125 8.941406 21.222656 8.78125 C 21.109375 8.578125 21.152344 8.402344 21.328125 8.308594 C 21.503906 8.214844 21.726562 8.265625 21.820312 8.421875 C 21.921875 8.59375 21.875 8.796875 21.691406 8.910156 C 21.597656 8.96875 21.542969 9.035156 21.535156 9.144531 C 21.53125 9.179688 21.523438 9.222656 21.507812 9.257812 C 21.375 9.578125 21.34375 9.871094 21.5 10.226562 C 21.6875 10.644531 21.566406 11.109375 21.4375 11.539062 C 20.890625 13.367188 19.960938 14.984375 18.679688 16.394531 C 18.429688 16.671875 18.128906 16.882812 17.730469 16.894531 C 17.652344 16.898438 17.617188 16.953125 17.574219 17 C 17.019531 17.582031 16.402344 18.070312 15.613281 18.304688 C 15.128906 18.449219 14.628906 18.46875 14.128906 18.472656 C 13.859375 18.472656 13.628906 18.367188 13.457031 18.15625 C 12.816406 17.375 12.367188 16.507812 12.199219 15.503906 C 12.179688 15.390625 12.140625 15.273438 12.171875 15.136719 C 12.539062 15.4375 12.917969 15.707031 13.339844 15.902344 C 13.894531 16.164062 14.464844 16.316406 15.074219 16.121094 C 15.324219 16.039062 15.578125 15.945312 15.6875 15.667969 C 15.71875 15.582031 15.761719 15.628906 15.804688 15.65625 C 15.972656 15.777344 16.140625 15.90625 16.3125 16.03125 C 16.542969 16.203125 16.785156 16.355469 17.0625 16.460938 C 17.523438 16.632812 17.925781 16.535156 18.269531 16.191406 C 18.703125 15.765625 19.035156 15.257812 19.359375 14.746094 C 20.011719 13.726562 20.53125 12.640625 20.9375 11.5 C 21.03125 11.238281 21.066406 10.964844 21.0625 10.683594 C 21.054688 10.339844 20.890625 10.101562 20.578125 9.960938 C 20.125 9.753906 19.640625 9.71875 19.152344 9.746094 C 19.046875 9.75 18.945312 9.765625 18.839844 9.78125 C 18.230469 9.851562 17.796875 10.15625 17.523438 10.714844 C 17.195312 11.378906 16.90625 12.058594 16.59375 12.730469 C 16.5 12.925781 16.398438 13.113281 16.191406 13.265625 Z M 15.027344 16.605469 C 15.003906 16.601562 14.976562 16.597656 14.953125 16.597656 C 14.84375 16.613281 14.722656 16.738281 14.640625 16.550781 C 14.632812 16.535156 14.492188 16.554688 14.519531 16.652344 C 14.554688 16.761719 14.511719 16.820312 14.429688 16.878906 C 14.316406 16.960938 14.265625 17.066406 14.320312 17.207031 C 14.375 17.339844 14.496094 17.328125 14.605469 17.324219 C 14.769531 17.320312 14.929688 17.300781 15.09375 17.300781 C 15.167969 17.300781 15.265625 17.292969 15.28125 17.398438 C 15.296875 17.492188 15.25 17.566406 15.175781 17.617188 C 15.082031 17.683594 14.96875 17.695312 14.859375 17.722656 C 14.796875 17.738281 14.695312 17.730469 14.730469 17.839844 C 14.761719 17.957031 14.839844 17.882812 14.902344 17.867188 C 15.035156 17.84375 15.175781 17.71875 15.296875 17.90625 C 15.320312 17.941406 15.386719 17.894531 15.417969 17.867188 C 15.46875 17.832031 15.433594 17.800781 15.402344 17.777344 C 15.292969 17.6875 15.351562 17.617188 15.425781 17.550781 C 15.519531 17.46875 15.554688 17.371094 15.503906 17.253906 C 15.453125 17.121094 15.339844 17.097656 15.214844 17.105469 C 15.042969 17.113281 14.875 17.125 14.703125 17.121094 C 14.644531 17.121094 14.542969 17.140625 14.535156 17.035156 C 14.527344 16.957031 14.570312 16.894531 14.644531 16.863281 C 14.707031 16.835938 14.777344 16.816406 14.84375 16.789062 C 14.929688 16.757812 15.019531 16.726562 15.027344 16.605469 Z M 2.109375 22.605469 C 2.109375 22.394531 2.105469 22.183594 2.109375 21.972656 C 2.109375 21.832031 2.125 21.683594 2.320312 21.683594 C 2.511719 21.679688 2.53125 21.824219 2.53125 21.972656 C 2.53125 22.351562 2.535156 22.734375 2.527344 23.113281 C 2.527344 23.21875 2.554688 23.265625 2.664062 23.28125 C 3.136719 23.34375 3.59375 23.316406 4.027344 23.105469 C 4.527344 22.863281 4.828125 22.152344 4.195312 21.636719 C 3.835938 21.34375 3.417969 21.273438 2.980469 21.238281 C 2.617188 21.210938 2.261719 21.25 1.910156 21.347656 C 1.789062 21.382812 1.664062 21.402344 1.613281 21.253906 C 1.566406 21.113281 1.648438 21.011719 1.773438 20.957031 C 2.050781 20.84375 2.347656 20.824219 2.644531 20.816406 C 3.179688 20.804688 3.707031 20.867188 4.199219 21.09375 C 4.648438 21.300781 4.972656 21.617188 5.054688 22.125 C 5.144531 22.6875 4.820312 23.246094 4.25 23.5 C 3.675781 23.757812 3.066406 23.785156 2.453125 23.683594 C 2.210938 23.640625 2.125 23.523438 2.109375 23.277344 C 2.109375 23.261719 2.109375 23.25 2.109375 23.234375 Z M 7.132812 20.816406 C 7.328125 20.8125 7.472656 20.914062 7.609375 21.03125 C 7.886719 21.261719 8.089844 21.550781 8.28125 21.851562 C 8.554688 22.28125 8.785156 22.734375 8.988281 23.207031 C 9.011719 23.265625 9.035156 23.332031 9.042969 23.394531 C 9.070312 23.546875 9.019531 23.671875 8.867188 23.722656 C 8.703125 23.773438 8.625 23.664062 8.570312 23.535156 C 8.335938 22.957031 8.058594 22.398438 7.710938 21.882812 C 7.601562 21.71875 7.480469 21.5625 7.320312 21.441406 C 7.199219 21.351562 7.082031 21.347656 6.957031 21.4375 C 6.789062 21.558594 6.664062 21.71875 6.550781 21.890625 C 6.210938 22.390625 5.945312 22.929688 5.710938 23.484375 C 5.652344 23.628906 5.59375 23.78125 5.390625 23.71875 C 5.230469 23.671875 5.164062 23.488281 5.246094 23.292969 C 5.546875 22.5625 5.90625 21.863281 6.421875 21.257812 C 6.609375 21.039062 6.820312 20.839844 7.132812 20.816406 Z M 7.132812 20.816406 "/>
<path style=" stroke:none;fill-rule:nonzero;fill:rgb(54.901961%,54.117647%,55.686275%);fill-opacity:1;" d="M 24.445312 23.332031 C 24.453125 23.511719 24.394531 23.625 24.242188 23.65625 C 24.085938 23.6875 24.019531 23.582031 23.96875 23.457031 C 23.714844 22.851562 23.429688 22.261719 23.046875 21.722656 C 23.019531 21.683594 22.992188 21.648438 22.960938 21.613281 C 22.613281 21.199219 22.429688 21.199219 22.097656 21.621094 C 21.675781 22.160156 21.386719 22.769531 21.117188 23.394531 C 21.101562 23.4375 21.085938 23.480469 21.066406 23.519531 C 21.015625 23.613281 20.945312 23.679688 20.828125 23.660156 C 20.71875 23.644531 20.652344 23.574219 20.621094 23.476562 C 20.597656 23.398438 20.597656 23.320312 20.628906 23.242188 C 20.945312 22.488281 21.3125 21.765625 21.855469 21.140625 C 21.867188 21.125 21.882812 21.113281 21.894531 21.097656 C 22.347656 20.625 22.695312 20.617188 23.148438 21.089844 C 23.734375 21.707031 24.09375 22.460938 24.421875 23.230469 C 24.441406 23.269531 24.441406 23.316406 24.445312 23.332031 Z M 26.570312 23.308594 C 26.570312 23.304688 26.578125 23.242188 26.597656 23.191406 C 26.882812 22.515625 27.21875 21.871094 27.671875 21.292969 C 27.796875 21.132812 27.9375 20.984375 28.109375 20.871094 C 28.375 20.691406 28.597656 20.695312 28.859375 20.878906 C 29.078125 21.027344 29.25 21.230469 29.402344 21.445312 C 29.789062 21.980469 30.089844 22.5625 30.347656 23.167969 C 30.371094 23.222656 30.394531 23.28125 30.398438 23.335938 C 30.410156 23.492188 30.355469 23.613281 30.199219 23.652344 C 30.046875 23.691406 29.972656 23.589844 29.917969 23.464844 C 29.707031 22.949219 29.460938 22.445312 29.167969 21.972656 C 29.050781 21.78125 28.921875 21.597656 28.757812 21.445312 C 28.550781 21.253906 28.417969 21.25 28.210938 21.441406 C 27.957031 21.683594 27.78125 21.984375 27.605469 22.289062 C 27.386719 22.671875 27.199219 23.066406 27.03125 23.476562 C 26.984375 23.59375 26.910156 23.6875 26.765625 23.65625 C 26.617188 23.625 26.554688 23.511719 26.570312 23.308594 Z M 26.570312 23.308594 "/>
<path style=" stroke:none;fill-rule:nonzero;fill:rgb(87.843137%,10.196078%,9.803922%);fill-opacity:1;" d="M 10.539062 23.734375 C 10.378906 23.730469 10.253906 23.652344 10.136719 23.550781 C 9.917969 23.367188 9.753906 23.136719 9.601562 22.898438 C 9.285156 22.394531 9.03125 21.863281 8.816406 21.3125 C 8.78125 21.222656 8.742188 21.128906 8.773438 21.027344 C 8.804688 20.921875 8.859375 20.832031 8.984375 20.820312 C 9.105469 20.808594 9.160156 20.886719 9.199219 20.984375 C 9.332031 21.335938 9.476562 21.679688 9.644531 22.011719 C 9.8125 22.347656 9.984375 22.679688 10.226562 22.96875 C 10.460938 23.242188 10.617188 23.25 10.847656 22.972656 C 11.21875 22.53125 11.453125 22.007812 11.683594 21.484375 C 11.761719 21.320312 11.820312 21.144531 11.894531 20.976562 C 11.933594 20.878906 11.996094 20.800781 12.113281 20.820312 C 12.234375 20.839844 12.292969 20.921875 12.316406 21.035156 C 12.328125 21.105469 12.324219 21.179688 12.296875 21.246094 C 12.019531 21.957031 11.699219 22.644531 11.230469 23.257812 C 11.132812 23.386719 11.019531 23.507812 10.882812 23.605469 C 10.78125 23.683594 10.671875 23.738281 10.539062 23.734375 Z M 10.539062 23.734375 "/>
<path style=" stroke:none;fill-rule:nonzero;fill:rgb(54.901961%,54.117647%,55.686275%);fill-opacity:1;" d="M 15.03125 21.152344 C 14.667969 21.164062 14.347656 21.195312 14.035156 21.277344 C 13.894531 21.316406 13.703125 21.367188 13.652344 21.164062 C 13.609375 20.976562 13.785156 20.929688 13.925781 20.894531 C 14.820312 20.671875 15.695312 20.671875 16.542969 21.082031 C 16.664062 21.140625 16.769531 21.214844 16.863281 21.308594 C 17.105469 21.546875 17.101562 21.832031 16.851562 22.066406 C 16.710938 22.203125 16.53125 22.265625 16.347656 22.320312 C 15.988281 22.421875 15.625 22.445312 15.253906 22.433594 C 15.140625 22.429688 15.039062 22.394531 15.039062 22.257812 C 15.039062 22.117188 15.144531 22.09375 15.257812 22.089844 C 15.539062 22.085938 15.824219 22.070312 16.101562 22.007812 C 16.160156 21.996094 16.214844 21.980469 16.269531 21.957031 C 16.394531 21.90625 16.507812 21.835938 16.515625 21.679688 C 16.523438 21.523438 16.402344 21.460938 16.292969 21.410156 C 15.878906 21.207031 15.4375 21.15625 15.03125 21.152344 Z M 18.070312 21.730469 C 18.070312 21.917969 18.070312 22.101562 18.066406 22.285156 C 18.058594 22.691406 18.246094 22.972656 18.625 23.121094 C 19.03125 23.277344 19.449219 23.269531 19.867188 23.214844 C 20.019531 23.195312 20.164062 23.191406 20.191406 23.375 C 20.214844 23.550781 20.078125 23.601562 19.925781 23.621094 C 19.546875 23.671875 19.167969 23.679688 18.789062 23.621094 C 18.023438 23.503906 17.570312 23.011719 17.542969 22.234375 C 17.527344 21.847656 17.539062 21.460938 17.542969 21.074219 C 17.542969 20.867188 17.648438 20.75 17.8125 20.75 C 17.972656 20.753906 18.066406 20.871094 18.070312 21.082031 C 18.070312 21.300781 18.070312 21.515625 18.070312 21.730469 Z M 25.828125 22.339844 C 25.828125 22.683594 25.828125 23.023438 25.828125 23.363281 C 25.824219 23.570312 25.746094 23.667969 25.59375 23.660156 C 25.40625 23.652344 25.347656 23.523438 25.347656 23.363281 C 25.34375 22.6875 25.339844 22.011719 25.351562 21.332031 C 25.351562 21.175781 25.304688 21.128906 25.152344 21.140625 C 24.941406 21.152344 24.730469 21.144531 24.519531 21.140625 C 24.394531 21.136719 24.265625 21.101562 24.253906 20.957031 C 24.246094 20.820312 24.375 20.785156 24.484375 20.761719 C 24.550781 20.75 24.617188 20.746094 24.679688 20.746094 C 25.292969 20.746094 25.90625 20.746094 26.515625 20.746094 C 26.574219 20.746094 26.636719 20.746094 26.691406 20.757812 C 26.800781 20.78125 26.929688 20.808594 26.917969 20.953125 C 26.910156 21.089844 26.796875 21.132812 26.675781 21.136719 C 26.480469 21.144531 26.28125 21.144531 26.085938 21.144531 C 25.824219 21.144531 25.824219 21.144531 25.824219 21.394531 C 25.828125 21.710938 25.828125 22.023438 25.828125 22.339844 Z M 25.828125 22.339844 "/>
<path style=" stroke:none;fill-rule:nonzero;fill:rgb(87.843137%,10.196078%,9.803922%);fill-opacity:1;" d="M 13.308594 22.300781 C 13.308594 22.675781 13.3125 23.050781 13.308594 23.421875 C 13.308594 23.636719 13.226562 23.738281 13.070312 23.734375 C 12.914062 23.730469 12.828125 23.621094 12.828125 23.414062 C 12.828125 22.660156 12.828125 21.90625 12.828125 21.152344 C 12.828125 20.945312 12.914062 20.832031 13.066406 20.828125 C 13.222656 20.820312 13.308594 20.9375 13.308594 21.160156 C 13.3125 21.539062 13.308594 21.921875 13.308594 22.300781 Z M 18.738281 12.304688 C 18.929688 12.320312 19.117188 12.332031 19.304688 12.355469 C 19.351562 12.363281 19.421875 12.363281 19.425781 12.433594 C 19.433594 12.5 19.402344 12.550781 19.355469 12.585938 C 19.253906 12.667969 19.128906 12.675781 19.015625 12.667969 C 18.640625 12.652344 18.269531 12.625 17.910156 12.507812 C 17.535156 12.390625 17.417969 12.203125 17.5 11.824219 C 17.605469 11.328125 17.910156 10.9375 18.199219 10.539062 C 18.246094 10.46875 18.3125 10.492188 18.375 10.527344 C 18.445312 10.566406 18.441406 10.625 18.410156 10.695312 C 18.300781 10.957031 18.121094 11.179688 17.988281 11.425781 C 17.914062 11.558594 17.835938 11.6875 17.792969 11.832031 C 17.734375 12.050781 17.804688 12.1875 18.015625 12.261719 C 18.25 12.339844 18.496094 12.316406 18.738281 12.304688 Z M 18.738281 12.304688 "/>
<path style=" stroke:none;fill-rule:nonzero;fill:rgb(54.901961%,54.117647%,55.686275%);fill-opacity:1;" d="M 14.800781 22.660156 C 14.800781 22.910156 14.796875 23.160156 14.800781 23.410156 C 14.800781 23.570312 14.730469 23.660156 14.566406 23.660156 C 14.402344 23.664062 14.304688 23.589844 14.304688 23.414062 C 14.304688 22.910156 14.304688 22.402344 14.300781 21.898438 C 14.300781 21.726562 14.386719 21.628906 14.546875 21.628906 C 14.707031 21.628906 14.804688 21.71875 14.800781 21.890625 C 14.796875 22.148438 14.800781 22.402344 14.800781 22.660156 Z M 14.800781 22.660156 "/>
<path style=" stroke:none;fill-rule:nonzero;fill:rgb(100%,100%,100%);fill-opacity:1;" d="M 15.027344 16.605469 C 15.019531 16.726562 14.929688 16.757812 14.847656 16.789062 C 14.78125 16.816406 14.710938 16.835938 14.644531 16.863281 C 14.570312 16.898438 14.527344 16.960938 14.535156 17.035156 C 14.542969 17.140625 14.644531 17.121094 14.703125 17.125 C 14.875 17.128906 15.042969 17.113281 15.214844 17.105469 C 15.339844 17.097656 15.453125 17.125 15.503906 17.253906 C 15.550781 17.371094 15.519531 17.46875 15.425781 17.550781 C 15.351562 17.617188 15.292969 17.691406 15.402344 17.777344 C 15.433594 17.800781 15.464844 17.835938 15.417969 17.871094 C 15.386719 17.894531 15.320312 17.941406 15.296875 17.90625 C 15.175781 17.71875 15.035156 17.84375 14.902344 17.871094 C 14.839844 17.882812 14.761719 17.957031 14.730469 17.84375 C 14.695312 17.730469 14.796875 17.742188 14.859375 17.722656 C 14.96875 17.695312 15.082031 17.683594 15.175781 17.617188 C 15.25 17.566406 15.296875 17.492188 15.28125 17.398438 C 15.265625 17.296875 15.167969 17.300781 15.09375 17.300781 C 14.929688 17.300781 14.769531 17.320312 14.605469 17.328125 C 14.496094 17.328125 14.375 17.339844 14.320312 17.207031 C 14.265625 17.070312 14.316406 16.960938 14.429688 16.882812 C 14.511719 16.824219 14.554688 16.765625 14.519531 16.652344 C 14.492188 16.554688 14.636719 16.535156 14.640625 16.550781 C 14.726562 16.738281 14.847656 16.613281 14.953125 16.601562 C 14.976562 16.597656 15 16.601562 15.027344 16.605469 Z M 15.027344 16.605469 "/>
</g>
</svg>
