<svg xml:space="preserve" viewBox="0 0 500 500" xmlns="http://www.w3.org/2000/svg"><path fill="#5a50fe" d="M256.764 96.018c35.956-11.39 71.2-16.73 101.46-16.73 33.109 0 60.521 6.407 78.321 19.58 13.173 9.611 19.58 22.071 19.58 37.38 0 3.203-.355 6.407-.711 9.611-46.993-29.548-124.958-31.328-211.11-4.628-82.593 25.632-154.15 71.913-197.582 122.821 11.392-55.18 92.917-131.365 210.042-168.033m-12.816 222.146c-75.117 23.496-145.605 22.428-179.782-2.848-.712-.356-1.424-1.068-1.78-1.424 30.972-48.773 101.461-102.885 194.378-131.722 35.956-11.392 71.2-16.732 101.46-16.732 33.109 0 60.521 6.408 78.321 19.58.712.357 1.424 1.07 1.78 1.425-31.328 48.772-101.816 102.884-194.377 131.72m-101.461 59.454c34.532 0 73.337-6.408 113.92-18.868 54.326-16.968 103.91-42.787 143.838-72.952 59.762-45.15 97.889-100.037 97.889-149.55 0-29.192-12.816-54.112-37.024-71.913-45.925-33.82-127.45-37.38-217.518-9.256C107.955 97.443 1.866 194.99 1.866 277.58c0 14.952 3.204 28.48 9.612 40.94-6.408 15.31-9.612 30.617-9.612 45.213 0 29.192 12.816 54.112 37.024 71.913 25.276 18.512 61.233 28.124 103.597 28.124 34.532 0 73.337-6.408 113.92-18.868 35.245-11.036 68.353-25.633 98.258-42.72l-18.512-38.449c-27.413 16.02-58.385 29.904-92.561 40.584-75.117 23.497-145.605 22.43-179.782-2.848-13.172-9.612-19.58-22.072-19.58-37.38 0-3.204.356-6.408.712-9.612 25.276 15.308 59.097 23.14 97.545 23.14"/></svg>