<svg viewBox="0 0 24 24" fill="none" xmlns="http://www.w3.org/2000/svg">
<path d="M12 2C11.6782 2 11.3652 2.06632 11.0814 2.18783C10.7964 2.30678 10.5671 2.45078 10.3529 2.65739C10.1426 2.86525 9.96905 3.13071 9.84615 3.4087C9.72579 3.68918 9.65611 3.96717 9.65611 4.28522C9.65611 4.60327 9.72584 4.91256 9.84615 5.19304C9.96905 5.46977 10.1426 5.70644 10.3529 5.91304C10.5671 6.12216 10.7964 6.29245 11.0814 6.41391C11.3652 6.53287 11.6782 6.60174 12 6.60174C12.3243 6.60174 12.6348 6.53282 12.9186 6.41391C13.1998 6.29245 13.438 6.12216 13.6471 5.91304C13.8574 5.70644 14.0309 5.46977 14.1538 5.19304C14.2742 4.91256 14.3439 4.60327 14.3439 4.28522C14.3439 3.96717 14.2742 3.68918 14.1538 3.4087C14.0309 3.13071 13.8574 2.86525 13.6471 2.65739C13.438 2.45078 13.1998 2.30678 12.9186 2.18783C12.6348 2.06637 12.3243 2 12 2ZM7.31222 8.01044C6.99041 8.01044 6.70914 8.0455 6.42534 8.16696C6.14154 8.28717 5.87674 8.45997 5.66516 8.66783C5.45484 8.87569 5.31041 9.13864 5.19005 9.41913C5.06715 9.69711 5 9.9776 5 10.2957V15.367H15.7376V16.7757H5V17.6835C5 18.0028 5.06842 18.3108 5.19005 18.5913C5.31041 18.8718 5.45611 19.1022 5.66516 19.3113C5.87674 19.5179 6.14154 19.692 6.42534 19.8122C6.70914 19.9336 6.99041 20 7.31222 20H16.6878C17.0096 20 17.2909 19.9337 17.5747 19.8122C17.8597 19.692 18.1258 19.5179 18.3348 19.3113C18.5464 19.1022 18.7187 18.8718 18.8416 18.5913C18.9645 18.3108 19 18.0028 19 17.6835V12.6122H8.26244V11.2348H19V10.2957C19 9.9776 18.9658 9.69711 18.8416 9.41913C18.72 9.13864 18.5464 8.87569 18.3348 8.66783C18.1258 8.45997 17.8597 8.28717 17.5747 8.16696C17.2909 8.0455 17.0096 8.01044 16.6878 8.01044H7.31222Z" fill="#E60005"/>
</svg>
