<svg xmlns="http://www.w3.org/2000/svg" viewBox="0 0 232 232"><g fill-rule="nonzero" fill="none"><path fill="#e04403" d="M59.23 0h171.86v171.87H59.23z"/><path fill="#fff" d="M157.61 24.43h42.97V67.4h-42.97zM103.72 139.13c-7 0-14.46-1.95-14.46-18.95s9-20 16.57-20a19.57 19.57 0 0 1 8.89 2v6.06a31.25 31.25 0 0 0-8.89-1.89c-3.84 0-9 2.06-9 13.37 0 12 4 13.44 6.77 13.44a32.997 32.997 0 0 0 5.15-.55V121.1h-5.15l-.54-5.8h13.27v21.88a52.79 52.79 0 0 1-12.61 1.95zM129.87 107.18h-9.2v-6.5h26l-.87 6.5h-8.34v31.41h-7.59zM162 139.13c-6.34 0-13.43-2-13.43-19.5s8.93-19.49 14.13-19.49a17 17 0 0 1 7 1.35v6.12a24.14 24.14 0 0 0-6.61-1.3c-3.68 0-6.93 2.22-6.93 13.32 0 9.92 2.33 13.27 6.39 13.27a24.18 24.18 0 0 0 7.15-1.35v6.12a18.29 18.29 0 0 1-7.7 1.46zM187.28 139.13c-5.85 0-13.54-1.19-13.54-19.5s8.18-19.49 13.54-19.49c5.36 0 13.54 1.3 13.54 19.49 0 18.47-7.82 19.5-13.54 19.5zm0-33.58c-3.79 0-6 2.49-6 14.08 0 11.76 2.76 14.09 6 14.09s5.95-2.17 5.95-14.09c0-11.37-2.23-14.08-5.95-14.08z"/></g><g fill-rule="nonzero" fill="none"><path fill="#e04403" d="M.152.145h231.696v231.71H.152z"/><path fill="#fff" d="M132.785 33.081h57.93v57.93h-57.93zM60.132 187.716c-9.437 0-19.495-2.63-19.495-25.548 0-22.919 12.134-26.963 22.34-26.963a26.384 26.384 0 0 1 11.985 2.696v8.17a42.13 42.13 0 0 0-11.985-2.548c-5.177 0-12.134 2.777-12.134 18.025 0 16.178 5.393 18.12 9.127 18.12a44.485 44.485 0 0 0 6.943-.742v-15.518H59.97l-.728-7.82h17.89v29.499a71.17 71.17 0 0 1-17 2.629zM82.983 144.642v-8.763h35.053l-1.173 8.763h-11.244v42.346H95.387v-42.346zM138.703 187.716c-8.547 0-18.106-2.697-18.106-26.29 0-23.592 12.04-26.275 19.05-26.275a22.919 22.919 0 0 1 9.437 1.82v8.25a32.545 32.545 0 0 0-8.911-1.752c-4.962 0-9.343 2.993-9.343 17.957 0 13.374 3.141 17.89 8.615 17.89a32.6 32.6 0 0 0 9.639-1.82v8.251a24.658 24.658 0 0 1-10.38 1.969zM172.785 187.716c-7.887 0-18.254-1.605-18.254-26.29 0-24.684 11.028-26.275 18.254-26.275 7.226 0 18.254 1.752 18.254 26.275 0 24.901-10.543 26.29-18.254 26.29zm0-45.272c-5.11 0-8.09 3.357-8.09 18.982 0 15.855 3.722 18.996 8.09 18.996s8.021-2.925 8.021-18.996c0-15.328-3.006-18.982-8.021-18.982z"/></g></svg>