<svg viewBox="0 0 24 24" fill="none" xmlns="http://www.w3.org/2000/svg">
<path d="M10.8241 5.5616C11.3726 5.50275 11.8598 5.82454 12.0118 6.34854C12.0386 6.44092 12.0521 6.53981 12.0551 6.63629C12.0617 6.84278 12.0575 7.04961 12.0575 7.25627V7.25627C12.0575 7.27528 12.0413 7.29034 12.0223 7.29104C11.8712 7.29659 11.7236 7.29006 11.5793 7.24241C11.1269 7.09341 10.8263 6.67889 10.8216 6.19389C10.8196 5.99715 10.8211 5.80025 10.8213 5.60351" fill="#9F8C82"/>
<path d="M13.4515 6.48232C13.4514 6.48232 13.4513 6.4824 13.4514 6.48249C13.4998 6.91198 13.193 7.27833 12.7789 7.29065V7.29065C12.5448 7.29765 12.3298 7.09741 12.4284 6.88495C12.4753 6.78387 12.5474 6.69431 12.648 6.61747C12.7612 6.5309 12.8904 6.48523 13.0323 6.48283C13.1712 6.48061 13.3103 6.48232 13.4515 6.48232V6.48232Z" fill="#9F8C82"/>
<path fill-rule="evenodd" clip-rule="evenodd" d="M16.9253 10.9742C16.9253 13.4164 14.7821 15.7316 12.1384 15.7316C11.1795 15.7316 10.2865 15.427 9.53769 14.9223V17.3523C9.53769 17.956 9.04831 18.4453 8.44463 18.4453C7.84094 18.4453 7.35156 17.956 7.35156 17.3523V11.0577H7.35238C7.35183 11.0299 7.35155 11.0021 7.35155 10.9742C7.35155 8.8613 8.95581 7.43692 11.1005 7.60333C11.7885 7.65672 12.4883 7.65672 13.1763 7.60333C15.321 7.43692 16.9253 8.8613 16.9253 10.9742ZM9.53769 11.3841V11.3415C9.54892 10.1647 10.4925 9.39327 11.7204 9.57713C11.972 9.6148 12.2293 9.6148 12.4809 9.57713C13.7161 9.39216 14.6637 10.174 14.6637 11.3628C14.6637 12.6709 13.5162 13.9111 12.1006 13.9111C10.6928 13.9111 9.55006 12.6844 9.53769 11.3841Z" fill="#9F8C82"/>
<path fill-rule="evenodd" clip-rule="evenodd" d="M5 1C2.79086 1 1 2.79086 1 5V19C1 21.2091 2.79086 23 5 23H19C21.2091 23 23 21.2091 23 19V5C23 2.79086 21.2091 1 19 1H5ZM5 3C3.89543 3 3 3.89543 3 5V19C3 20.1046 3.89543 21 5 21H19C20.1046 21 21 20.1046 21 19V5C21 3.89543 20.1046 3 19 3H5Z" fill="#9F8C82"/>
</svg>
