<svg viewBox="0 0 24 24" fill="none" xmlns="http://www.w3.org/2000/svg">
<path fill-rule="evenodd" clip-rule="evenodd" d="M3 11.0002C3 11.4195 3.25799 11.6991 3.67754 11.6991H6.21487C6.62365 11.6991 6.91395 11.4085 6.90318 11.0002L6.87112 8.90323H7.52686L7.49455 11C7.48403 11.4088 7.77433 11.6988 8.18286 11.6988H10.742C11.1505 11.6988 11.4408 11.4088 11.4408 11V8.2044C11.4408 7.79563 11.1505 7.51609 10.742 7.51609L8.64524 7.53764V6.90318L10.742 6.92472C11.1505 6.92472 11.4408 6.64519 11.4408 6.23666V3.69883C11.4411 3.29055 11.1505 3 10.7422 3H8.18286C7.77433 3 7.48403 3.2903 7.49455 3.69883L7.52711 5.79582H6.87087L6.90343 3.69883C6.9137 3.29055 6.62339 3 6.21487 3H3.67754C3.25799 3 3 3.27953 3 3.69883C3 4.79592 3.08591 5.6022 3.08591 7.19348C3.08591 9.12916 3 9.84954 3 11.0002Z" fill="#3ADF9E"/>
<path fill-rule="evenodd" clip-rule="evenodd" d="M12.086 11.0002C12.086 11.4085 12.3766 11.6991 12.7848 11.6991C13.7958 11.6991 14.957 11.6775 16.2259 11.6775C17.4194 11.6775 18.6668 11.6991 19.8495 11.6991C20.2581 11.6991 20.5484 11.4085 20.5484 11.0002V9.74208C20.5484 9.3333 20.2581 9.04325 19.8495 9.04325L16.3441 9.06454V8.45162L19.8495 8.47317C20.2581 8.47317 20.5484 8.18261 20.5484 7.77434V6.77418C20.5484 6.36566 20.2581 6.07535 19.8495 6.07535L16.3441 6.09689V5.48398L19.8495 5.50527C20.2581 5.50527 20.5484 5.21497 20.5484 4.80644V3.69883C20.5484 3.29055 20.2581 3 19.8495 3C18.8389 3 17.3548 3.03231 16.3872 3.03231C15.4409 3.03231 13.8065 3 12.7851 3C12.3763 3 12.0863 3.2903 12.0863 3.69883C12.0863 4.7849 12.1506 5.64503 12.1506 7.20425C12.1506 8.82809 12.086 9.72054 12.086 11" fill="#21A3E9"/>
<path fill-rule="evenodd" clip-rule="evenodd" d="M12.0861 17.3874C12.0861 17.7957 12.3766 18.0862 12.7849 18.0862L16.5055 18.0647V18.6776L12.7851 18.656C12.3764 18.656 12.0863 18.9463 12.0863 19.3549V20.3012C12.0863 20.7097 12.3764 21 12.7851 21C13.6668 20.9895 15.0216 20.9679 16.2903 20.9679C17.5808 20.9679 18.9571 20.9895 19.8496 21C20.2581 21 20.5484 20.7097 20.5484 20.3012C20.5484 19.6559 20.5056 19.0969 20.5056 18.097C20.5056 17.1614 20.5484 16.5916 20.5484 16.0002C20.5484 15.5915 20.2581 15.3012 19.8496 15.3012L16.1293 15.3227V14.7098L19.8496 14.7313C20.2581 14.7313 20.5484 14.4408 20.5484 14.0325V13C20.5484 12.5915 20.2581 12.3012 19.8496 12.3012C18.5594 12.3012 17.2905 12.3443 16.2367 12.3443C14.9893 12.3443 13.6668 12.3012 12.7851 12.3012C12.3764 12.3012 12.0753 12.5915 12.0863 13C12.0968 13.527 12.1399 14.2259 12.1399 15.1291C12.1399 16.0969 12.0861 16.7529 12.0861 17.3874Z" fill="#3ADF9E"/>
<path fill-rule="evenodd" clip-rule="evenodd" d="M3 20.3012C3 20.7205 3.25799 21 3.67754 21H6.21487C6.62365 21 6.91395 20.7097 6.90318 20.3012L6.87112 18.2044H7.52686L7.49455 20.3012C7.48403 20.7097 7.77433 21 8.18286 21H10.742C11.1505 21 11.4408 20.7097 11.4408 20.3012V17.5056C11.4408 17.0968 11.1505 16.8173 10.742 16.8173L8.64524 16.8388V16.2044L10.742 16.2259C11.1505 16.2259 11.4408 15.9464 11.4408 15.5376V13.0003C11.4408 12.5915 11.1505 12.3012 10.742 12.3012H8.18286C7.77433 12.3012 7.48403 12.5915 7.49455 13L7.52711 15.0968H6.87087L6.90343 13.0003C6.91395 12.5915 6.62365 12.3012 6.21512 12.3012H3.67754C3.25799 12.3012 3 12.5807 3 13C3 14.0969 3.08591 14.9034 3.08591 16.4947C3.08591 18.4301 3 19.1507 3 20.3012Z" fill="#21A3E9"/>
</svg>
