<svg xmlns="http://www.w3.org/2000/svg" tabindex="-1" class="ayoasd" viewBox="0 0 71 95"><g fill="none" fill-rule="evenodd"><path d="M18.897 85.886v2.512h2.731c1.052 0 1.539-.487 1.539-1.256 0-.833-.518-1.256-1.539-1.256h-2.731zm-2.654-2.324h5.652c2.528 0 4.004 1.224 4.004 3.564 0 2.324-1.476 3.595-4.004 3.595h-2.998v3.988h-2.654V83.562zm20.365 6.986-1.46-3.924-1.46 3.924h2.92zm.832 2.23h-4.585l-.722 1.931H29.48l4.27-11.163h2.905l4.302 11.163h-2.795l-.722-1.931zm13.535 1.932h-2.81v-4.538l-4.318-6.61h3.328l2.497 3.925 2.496-3.925h2.967l-4.16 6.672z" fill="#2F2F5B"/><path d="M0 31.94c0 1.674 1.03 2.79 2.705 2.79h10.13c1.632 0 2.791-1.16 2.748-2.79l-.128-8.372h2.618l-.129 8.371c-.042 1.632 1.117 2.79 2.748 2.79h10.217c1.631 0 2.79-1.158 2.79-2.79V20.778c0-1.632-1.159-2.748-2.79-2.748l-8.371.086v-2.533l8.371.086c1.631 0 2.79-1.116 2.79-2.747V2.79C33.7 1.16 32.54 0 30.91 0H20.692c-1.631 0-2.79 1.159-2.748 2.79l.13 8.372h-2.62l.13-8.372C15.625 1.16 14.466 0 12.835 0H2.705C1.03 0 0 1.116 0 2.79c0 4.38.343 7.599.343 13.952C.343 24.47 0 27.346 0 31.94" fill="#3ADF9E" class="green"/><path d="M36.275 31.94c0 1.63 1.16 2.79 2.79 2.79 4.036 0 8.672-.086 13.738-.086 4.765 0 9.745.086 14.467.086 1.631 0 2.79-1.16 2.79-2.79v-5.023c0-1.632-1.159-2.79-2.79-2.79l-13.995.085v-2.447l13.995.086c1.631 0 2.79-1.16 2.79-2.79v-3.993c0-1.631-1.159-2.79-2.79-2.79l-13.995.086V9.917l13.995.085c1.631 0 2.79-1.159 2.79-2.79V2.79c0-1.63-1.159-2.79-2.79-2.79-4.035 0-9.96.129-13.823.129C49.669.129 43.144 0 39.066 0c-1.632 0-2.79 1.159-2.79 2.79 0 4.336.257 7.77.257 13.995 0 6.483-.258 10.046-.258 15.154" fill="#21A3E9" class="blue"/><path d="M36.275 57.44c0 1.63 1.16 2.79 2.79 2.79l14.854-.086v2.447l-14.853-.086c-1.632 0-2.79 1.159-2.79 2.79v3.778c0 1.631 1.158 2.79 2.79 2.79 3.52-.042 8.929-.128 13.994-.128 5.152 0 10.647.086 14.21.128 1.631 0 2.79-1.159 2.79-2.79 0-2.576-.171-4.808-.171-8.8 0-3.735.171-6.01.171-8.371 0-1.632-1.159-2.791-2.79-2.791l-14.853.086V46.75l14.853.086c1.631 0 2.79-1.16 2.79-2.79v-4.122c0-1.631-1.159-2.79-2.79-2.79-5.151 0-10.217.172-14.424.172-4.98 0-10.26-.172-13.78-.172-1.632 0-2.834 1.159-2.79 2.79.042 2.104.214 4.894.214 8.5 0 3.864-.215 6.482-.215 9.015" fill="#3ADF9E" class="green"/><path d="M0 69.073c0 1.674 1.03 2.79 2.705 2.79h10.13c1.632 0 2.791-1.159 2.748-2.79l-.128-8.371h2.618l-.129 8.371c-.042 1.631 1.117 2.79 2.748 2.79h10.217c1.631 0 2.79-1.159 2.79-2.79V57.912c0-1.632-1.159-2.748-2.79-2.748l-8.371.086v-2.533l8.371.086c1.631 0 2.79-1.116 2.79-2.748v-10.13c0-1.632-1.159-2.791-2.79-2.791H20.692c-1.631 0-2.79 1.159-2.748 2.79l.13 8.371h-2.62l.13-8.37c.042-1.632-1.117-2.791-2.748-2.791H2.705C1.03 37.134 0 38.25 0 39.924c0 4.379.343 7.599.343 13.952C.343 61.603 0 64.48 0 69.073" fill="#21A3E9" class="blue"/></g></svg>