<svg width="24" height="24" viewBox="0 0 24 24" fill="none" xmlns="http://www.w3.org/2000/svg">
<path d="M3 14.0785C3 9.14111 9.06896 4.25841 11.7952 1.0831C11.8978 0.963681 12.0871 0.975064 12.1775 1.10376C14.4079 4.27957 21 9.15177 21 14.0785C21 20.4099 16.3548 23 12 23C7.64517 23 3 20.4099 3 14.0785Z" fill="#46BEAE"/>
<path fill-rule="evenodd" clip-rule="evenodd" d="M13.3218 14.4508V14.4495C13.2477 14.4549 12.8661 14.4778 12.0148 14.4778C11.3351 14.4778 10.8566 14.4576 10.6883 14.4495V14.4515C8.0716 14.3362 6.1185 13.8795 6.1185 13.3332C6.1185 12.7875 8.0716 12.3308 10.6883 12.2135V13.9969C10.8593 14.009 11.3492 14.038 12.0262 14.038C12.8386 14.038 13.2457 14.0043 13.3218 13.9976V12.2149C15.9331 12.3315 17.8815 12.7882 17.8815 13.3332C17.8815 13.8795 15.9331 14.3348 13.3218 14.4508ZM13.3218 12.0294V10.4335H16.9655V7.99994H7.04458V10.4335H10.6883V12.0287C7.72701 12.165 5.5 12.7531 5.5 13.4573C5.5 14.1614 7.72701 14.749 10.6883 14.8859V19.9999H13.3218V14.8846C16.2783 14.7483 18.5 14.1608 18.5 13.4573C18.5 12.7538 16.2783 12.1663 13.3218 12.0294Z" fill="white"/>
</svg>
