<?xml version="1.0" encoding="utf-8"?>
<svg xmlns="http://www.w3.org/2000/svg" viewBox="0 0 48 40" fill="none">
<path d="M17.4019 2.44203C17.4527 2.42751 17.5046 2.41767 17.5571 2.41263C20.1283 1.88339 22.9421 1.81479 26.0663 2.38322C33.7508 3.82391 42.4249 8.33218 45.3453 14.438C46.238 16.3001 46.6067 18.319 46.2186 20.4457C46.0827 21.1612 45.6206 21.5963 45.4909 22.543C47.3538 19.7989 48.5181 16.6529 47.771 13.4677C46.1992 6.66608 37.4862 1.62858 29.5398 0.364301C19.0028 -1.3018 11.0661 2.95166 6.09839 8.94962C9.11066 5.65358 13.0593 3.38032 17.4019 2.44203Z" fill="#FC766A"/>
<path d="M0.694043 19.5245C0.558206 20.0635 0.441768 20.6123 0.354445 21.1416C-0.402357 25.4146 -0.0530631 31.1382 2.4405 34.6566C3.77946 36.5481 5.83641 38.175 8.90242 38.6552C21.1859 40.6055 35.1964 31.8732 38.408 29.6289C39.6499 28.7566 44.2944 24.7639 45.4909 22.5431C45.4909 22.5431 7.2 44.8485 0.694043 19.5245Z" fill="#3CCDFF"/>
<path d="M45.4913 22.543C45.841 21.8822 46.0897 21.1718 46.2287 20.4359C46.5974 18.3189 46.2384 16.2902 45.3555 14.4281C42.4253 8.32233 33.7512 3.80426 26.0668 2.38317C22.9619 1.80494 20.1385 1.86374 17.5576 2.41258C17.5099 2.42614 17.4613 2.43597 17.4121 2.44198C13.0685 3.37362 9.11677 5.63991 6.09886 8.92997C3.54414 12.0144 1.69838 15.6328 0.694515 19.5244C0.116848 22.0962 0.237827 24.7589 1.44471 27.3668C8.21474 42.5091 37.384 33.0939 45.4913 22.543Z" fill="#163CFF"/>
<path d="M8.05939 18.2334H11.7459V14.7344H13.5604V23.6143H11.7557V20.0166H8.06915V23.6143H6.24493V14.7344H8.05939V18.2334ZM19.6541 18.2823L21.701 14.7344H23.7772L20.5565 20.0166V23.6143H18.742V20.0957H18.7322V20.1055L15.5106 14.7344H17.616L19.6541 18.2823ZM39.8836 16.459H35.9158V18.2627H39.4666V19.9873H35.9158V21.9082H39.9031V23.6143H34.1199V14.7344H39.8836V16.459ZM28.8621 14.7246C29.7838 14.7247 30.5407 14.9797 31.1229 15.4795C31.7145 15.9695 32.0056 16.6748 32.0057 17.5762C32.0057 18.5169 31.7146 19.2522 31.1229 19.7422C30.5407 20.2322 29.764 20.4776 28.7938 20.4776H27.4168V23.6035H25.6024V14.7246H28.8621ZM27.4256 18.7725H28.7361C29.5509 18.7724 30.191 18.3999 30.1912 17.6358C30.1718 16.8224 29.551 16.4688 28.7166 16.4688H27.4256V18.7725Z" fill="white"/>
</svg>
