<svg viewBox="0 0 24 24" fill="none" xmlns="http://www.w3.org/2000/svg">
<path d="M12 21C16.9706 21 21 16.9706 21 12C21 7.02944 16.9706 3 12 3C7.02944 3 3 7.02944 3 12C3 16.9706 7.02944 21 12 21Z" fill="#0180FF"/>
<path d="M12.7323 7.1102L16.592 15.9693C16.6163 16.0276 16.6101 16.0947 16.5755 16.1474C16.5405 16.2006 16.4817 16.2331 16.4183 16.2341H15.5246C15.389 16.2341 15.2668 16.1525 15.2142 16.0276L12.0103 8.31058L8.8049 16.0235C8.75334 16.1484 8.63061 16.23 8.4955 16.23H7.58173C7.51779 16.2295 7.459 16.1969 7.42394 16.1438C7.38939 16.0901 7.3832 16.0235 7.40795 15.9646L11.2827 7.10968C11.3585 6.93621 11.5297 6.82417 11.719 6.82417H12.2934C12.4842 6.82314 12.6564 6.93569 12.7323 7.1102Z" fill="#F9F9FA"/>
</svg>
