<svg xmlns="http://www.w3.org/2000/svg" xml:space="preserve" viewBox="0 0 5383.667 2699.347"><path d="M1531.39 507.996h413.373c131.467 0 239.045 107.565 239.045 239.06v687.293c0 131.466-107.578 239.052-239.045 239.052H1531.39c-131.468 0-239.055-107.586-239.055-239.052V747.055c0-131.494 107.587-239.059 239.055-239.059" fill="#fff" fill-rule="evenodd"/><path d="M1531.394 507.993h413.36c131.473 0 239.048 107.592 239.048 239.064v687.294c0 131.467-107.575 239.052-239.047 239.052h-413.36c-131.481 0-239.067-107.585-239.067-239.052V747.057c0-131.472 107.586-239.064 239.066-239.064zm562.768 2191.354h-712.18c-104.09 0-189.254-85.187-189.254-189.266V423.337c0-104.081 85.163-189.25 189.254-189.25h712.18c8.445 0 16.742.562 24.906 1.655V82.18c0-45.193 36.98-82.172 82.172-82.172 45.193 0 82.172 36.979 82.172 82.172v258.986a81.436 81.436 0 0 1-6.707 32.392 187.316 187.316 0 0 1 6.707 49.78V2510.08c0 104.079-85.153 189.266-189.25 189.266" fill="#cce86e" fill-rule="evenodd"/><path d="M2694.922 665.14c112.192-16.085 198.315 15.1 204.185 191.75-3.707 157.71-87.532 197.62-204.185 189.253V665.14zm-244.119-113.389 454.484-1.757c165.7 21.048 242.265 145.057 235.313 325.49-12.629 181.85-115.726 270.737-287.895 286.322l-164.986-3.282 4.635 498.865h-241.55V551.751M3562.717 538.03l287.734-1.315-2.143 123.496-225.392-1.01c-130.044 24.156-100.92 162.887-107.23 263.136l303.213-5.677 1.048 151.583-293.76-3.122-1.429 367.078c11.55 95.16 61.629 143.027 146.19 148.573l161.405-1.774 49.199 1.066-1.525 114.601-50.412 1.92-306.738-3.265c-105.707-3.574-191.053-56.002-230.321-218.974l-7.525-712.15c4.31-146.004 100.73-217.603 277.686-224.166M3956.118 850.572c-18.14-238.552 114.784-292.435 276.418-311.27 189.201-11.207 308.013 67.69 331.181 268.984l-223.34-.605c-14.14-101.537-93.129-140.557-165.404-92.238-103.043 126.042 218.483 347.855 314.869 430.118 166.633 131.79 138.409 497.066-118.24 564.788l-156.492 5.559c-158.977 3.748-253.592-96.652-280.96-282.8l225.025-3.973c12.255 79.494 46.165 128.907 118.183 125.387 112.041-21.28 142.865-119.92 63.163-245.799-166.805-141.665-364.348-274.555-384.403-458.151M0 501.956h236.525l2.486 73.459c142.928-61.765 250.71-105.408 363.612-3.734 201.868-95.328 354.526-84.469 430.222 92.456l10.54 993.253H804.878V709.968c-17.658-81.104-81.875-94.972-159.37-89.638v1037.06H401.47V709.968c-17.656-81.104-81.876-94.972-159.365-89.638v1037.06H0V501.956M4941.683 752.624c8.092-65.126 29.263-91.347 100.836-98.366 72.597 1.876 98.426 43.763 103.347 108.32v176.807h-204.183V752.624zm-245.304 933.803h245.304V1076.34h204.183v610.086h237.807v-871.55c-4.757-177.13-140.9-288.13-333.69-288.866-219.937-1.939-345.347 102.366-353.604 278.9v881.516" fill="#80cc28" fill-rule="evenodd"/><path d="M1482.827 973.013c40.893 95.667 96.56 139.64 164.013 142.32-105.187 78.574-218.973 126.334-337.596 156.827-74.492-4.773-145.735-23.733-214.89-42.667 174.735-34.493 305.033-119.066 388.473-256.48" fill="#7f1d1e" fill-rule="evenodd"/><path d="M1482.827 973.013c40.893 95.667 96.56 139.64 164.013 142.32-105.187 78.574-218.973 126.334-337.596 156.827-74.492-4.773-145.735-23.733-214.89-42.667 174.735-34.493 305.033-119.066 388.473-256.48z" fill="none" stroke="#cd7f4b" stroke-width="2.28754281" stroke-miterlimit="2.613"/><path d="m1941.012 726.482 493.056 249.022c-251.112 330.384-674.55 339.076-1125.558 296.332 301.514-74.294 510.276-258.552 632.502-545.354" fill="#ec1d27" fill-rule="evenodd"/><path d="m1941.012 726.482 493.056 249.022c-251.112 330.384-674.55 339.076-1125.558 296.332 301.514-74.294 510.276-258.552 632.502-545.354Z" fill="none" stroke="#cd7f4b" stroke-width="2.28758627" stroke-miterlimit="2.613"/></svg>