<svg width="24" height="24" viewBox="0 0 24 24" fill="none" xmlns="http://www.w3.org/2000/svg">
<path d="M2.77707 15.7239L2.74359 15.994C2.74009 16.023 2.74219 16.0524 2.74977 16.0806C2.75736 16.1087 2.77028 16.1351 2.78778 16.158C2.80529 16.181 2.82704 16.2002 2.85178 16.2145C2.87652 16.2287 2.90376 16.2378 2.93192 16.2412H11.4568C11.4854 16.2416 11.5138 16.2362 11.5403 16.2252C11.5668 16.2143 11.591 16.1981 11.6115 16.1776C11.632 16.157 11.6483 16.1325 11.6596 16.1055C11.6709 16.0784 11.6769 16.0494 11.6772 16.0199C11.6779 16.0108 11.6779 16.0017 11.6772 15.9926L11.6423 15.7225C11.6326 15.6214 11.662 15.5204 11.7242 15.4415C11.7864 15.3626 11.8763 15.3123 11.9744 15.3014C12.0224 15.296 12.0711 15.3005 12.1175 15.3144C12.1639 15.3284 12.2072 15.3517 12.2449 15.3829C12.2826 15.4141 12.314 15.4527 12.3372 15.4964C12.3604 15.5401 12.3751 15.5881 12.3803 15.6377L12.4138 15.9006C12.4793 16.4855 12.1571 16.9999 11.5768 16.9999H2.83846C2.26371 16.9999 1.94286 16.4855 2.00843 15.9006L2.04191 15.6377C2.04678 15.5884 2.06105 15.5406 2.0839 15.497C2.10674 15.4534 2.13771 15.4149 2.17504 15.3837C2.21236 15.3524 2.2553 15.3291 2.3014 15.315C2.34749 15.3008 2.39584 15.2962 2.44367 15.3014V15.3014C2.54185 15.3126 2.63178 15.3633 2.69393 15.4424C2.75609 15.5215 2.78546 15.6226 2.77568 15.7239" fill="#FF0000"/>
<path d="M10.631 13.6934C10.8153 13.7036 10.9961 13.6381 11.1336 13.5112C11.2712 13.3843 11.3543 13.2064 11.3647 13.0166C11.3654 13.0041 11.3654 12.9916 11.3647 12.9792C11.3564 12.561 10.9867 12.2909 10.5752 12.2894H9.74234C9.64985 12.2894 9.56114 12.2516 9.49574 12.1842C9.43033 12.1168 9.39359 12.0255 9.39359 11.9302C9.39359 11.8349 9.43033 11.7435 9.49574 11.6762C9.56114 11.6088 9.64985 11.5709 9.74234 11.5709H10.3003C10.6756 11.5551 10.9644 11.3209 10.9825 10.9574C11.0006 10.5651 10.6742 10.2719 10.2766 10.2719H8.92626V13.6876H10.631V13.6934ZM11.6535 10.9574C11.6541 11.1072 11.6257 11.2557 11.5699 11.3942C11.514 11.5326 11.432 11.6582 11.3285 11.7635L11.3075 11.7879L11.3354 11.8052C11.5394 11.922 11.7108 12.091 11.833 12.2959C11.9551 12.5008 12.024 12.7346 12.0329 12.9749C12.0378 13.3543 11.8968 13.7203 11.6407 13.993C11.3846 14.2657 11.0341 14.423 10.6658 14.4306H8.57332C8.47651 14.429 8.38419 14.3882 8.31651 14.3168C8.24883 14.2455 8.21127 14.1495 8.21202 14.0497V14.0497V9.95002C8.21127 9.89973 8.22031 9.8498 8.2386 9.80317C8.2569 9.75654 8.28408 9.71416 8.31854 9.67853C8.353 9.6429 8.39404 9.61474 8.43924 9.59572C8.48443 9.5767 8.53287 9.5672 8.58169 9.56778V9.56778H10.2766C10.6317 9.55773 10.9762 9.69328 11.2344 9.94466C11.4925 10.196 11.6433 10.5427 11.6535 10.9085V10.9559" fill="#1D1D1B"/>
<path d="M5.0356 13.0283L5.04536 13.057L5.05513 13.0283C5.14999 12.7581 5.26577 12.4535 5.38714 12.133C5.5085 11.8126 5.63824 11.4619 5.76239 11.1487C5.88655 10.8354 6.00792 10.548 6.12231 10.3009C6.19761 10.1184 6.29111 9.9446 6.40131 9.7821C6.455 9.71342 6.52332 9.65839 6.60097 9.62126C6.67862 9.58413 6.76352 9.5659 6.8491 9.56799H6.9342C7.03094 9.56384 7.12593 9.59543 7.20204 9.65708C7.26047 9.70699 7.29835 9.77785 7.30806 9.85539L7.83956 14.0945C7.84172 14.1414 7.83482 14.1883 7.81925 14.2325C7.80369 14.2766 7.77977 14.3172 7.74888 14.3517C7.67693 14.4138 7.58442 14.4447 7.49081 14.4379C7.39522 14.4435 7.30068 14.4151 7.22297 14.3575C7.18863 14.3333 7.15976 14.3018 7.13833 14.2651C7.1169 14.2284 7.10342 14.1874 7.09881 14.1448C7.08068 14.0011 7.06533 13.8473 7.04859 13.6749C7.03185 13.5025 6.94257 12.7653 6.91885 12.577C6.89514 12.3888 6.74866 11.1889 6.69705 10.7535V10.7161L6.52686 11.084C6.46966 11.2105 6.40689 11.3614 6.33853 11.5381C6.27018 11.7149 6.19903 11.9017 6.13347 12.1C6.0679 12.2983 5.73031 13.2582 5.73031 13.2582C5.69962 13.3458 5.64103 13.5226 5.59081 13.6893C5.54059 13.856 5.48897 13.9982 5.47642 14.0255C5.41886 14.1416 5.31893 14.2293 5.1986 14.2694C5.07827 14.3096 4.94738 14.2989 4.83472 14.2396C4.74301 14.1925 4.66826 14.1165 4.62128 14.0227C4.60733 13.9954 4.5599 13.8488 4.50549 13.6864C4.45109 13.524 4.39808 13.3487 4.36599 13.2553C4.36599 13.2553 4.03817 12.2868 3.96423 12.0971C3.8903 11.9074 3.82473 11.7134 3.75917 11.5352C3.6936 11.357 3.62664 11.2076 3.57084 11.0811L3.39925 10.7176V10.7549C3.34764 11.186 3.19977 12.3874 3.17605 12.5785C3.15234 12.7696 3.06585 13.4996 3.04632 13.6706C3.02679 13.8416 3.01144 13.9997 2.9947 14.1405C2.99009 14.1831 2.97661 14.2241 2.95518 14.2608C2.93376 14.2975 2.90489 14.329 2.87055 14.3532C2.79321 14.4104 2.69922 14.4388 2.6041 14.4336C2.51137 14.4401 2.41984 14.4092 2.34881 14.3474C2.31793 14.3129 2.29401 14.2723 2.27844 14.2282C2.26288 14.184 2.25598 14.1371 2.25814 14.0902L2.78266 9.85539C2.79483 9.78079 2.83303 9.71334 2.89008 9.66571C2.96482 9.60061 3.06006 9.56587 3.15792 9.56799H3.24301C3.32779 9.56583 3.41193 9.5836 3.48904 9.61995C3.56615 9.65631 3.6342 9.71029 3.68802 9.77779C3.79873 9.93996 3.89226 10.1139 3.96702 10.2965C4.08141 10.5437 4.20138 10.8263 4.32693 11.1444C4.45248 11.4624 4.57803 11.7905 4.70358 12.1287C4.82495 12.4535 4.93934 12.7538 5.0342 13.0239" fill="#1D1D1B"/>
<path d="M3.99494 7.00431H10.4482C11.0565 7.00431 11.3592 7.47421 11.4247 8.09499L11.4526 8.29329C11.4636 8.39594 11.4347 8.4989 11.3723 8.57968C11.3098 8.66045 11.2188 8.71248 11.1192 8.72439C11.0215 8.73237 10.9247 8.70033 10.8497 8.63523C10.7748 8.57013 10.7277 8.47721 10.7189 8.37664L10.691 8.18552C10.6645 7.94985 10.5682 7.76735 10.3352 7.76735H4.10933C3.87637 7.76735 3.78011 7.94985 3.75221 8.18552L3.7271 8.37376C3.71824 8.4745 3.67099 8.56751 3.59568 8.63242C3.52038 8.69733 3.42316 8.72885 3.32534 8.72008C3.27595 8.71436 3.22815 8.69867 3.18465 8.6739C3.14116 8.64914 3.10283 8.61578 3.07186 8.57574C3.0409 8.5357 3.0179 8.48976 3.00418 8.44056C2.99047 8.39135 2.98631 8.33984 2.99193 8.28898L3.01844 8.09067C3.09098 7.47133 3.3923 7 3.99494 7" fill="#FF0000"/>
<path d="M15.6014 11.4734C15.5567 11.6501 15.5107 11.8398 15.4619 12.0482C15.413 12.2565 15.3642 12.4433 15.3224 12.623C15.2805 12.8026 15.2317 12.9664 15.1829 13.1058C15.1568 13.2049 15.1213 13.3012 15.0769 13.3932C15.0495 13.4388 15.0103 13.4756 14.9637 13.4995C14.9171 13.5233 14.865 13.5333 14.8132 13.5283C14.766 13.527 14.7192 13.5198 14.6737 13.5067C14.6434 13.4973 14.6153 13.4814 14.5913 13.4601C14.5672 13.4388 14.5478 13.4126 14.5342 13.3831C14.49 13.2871 14.4545 13.187 14.4282 13.0842C14.3863 12.9405 14.3417 12.7652 14.2887 12.5712C14.2357 12.3772 14.1952 12.1732 14.1492 11.9562C14.1031 11.7392 14.0585 11.538 14.0222 11.3527C13.986 11.1673 13.9525 11.0078 13.9274 10.8785C13.9023 10.7491 13.8883 10.6701 13.8841 10.6428C13.8834 10.6318 13.8834 10.6207 13.8841 10.6097V10.5911C13.8834 10.5654 13.8885 10.5399 13.8992 10.5166C13.9099 10.4934 13.9257 10.4731 13.9455 10.4574C13.9882 10.4226 14.0417 10.4047 14.0962 10.4071C14.1452 10.4049 14.1938 10.4179 14.2357 10.4445C14.2759 10.4755 14.3029 10.5213 14.311 10.5724C14.311 10.5724 14.3194 10.6255 14.3361 10.7161C14.3528 10.8066 14.3766 10.9144 14.4031 11.048C14.4296 11.1817 14.4603 11.3354 14.4923 11.5035C14.5244 11.6717 14.5593 11.8427 14.597 12.0151C14.6346 12.1876 14.6695 12.3528 14.7058 12.5152C14.7421 12.6776 14.7741 12.8155 14.8062 12.9319C14.8369 12.8227 14.8718 12.6977 14.9095 12.5569C14.9471 12.416 14.9862 12.2695 15.0238 12.1258C15.0615 11.9821 15.0964 11.8254 15.1313 11.676C15.1661 11.5265 15.1982 11.3886 15.2289 11.2564C15.2596 11.1242 15.2833 11.0135 15.3056 10.9129C15.328 10.8124 15.3447 10.7391 15.3572 10.6902C15.3713 10.6337 15.4026 10.5834 15.4465 10.5465C15.4891 10.5067 15.5439 10.4833 15.6014 10.4804C15.6628 10.4775 15.7232 10.4974 15.7716 10.5365C15.8149 10.5728 15.8446 10.6236 15.8553 10.6802C15.8929 10.8368 15.9292 11.015 15.9697 11.2104C16.0101 11.4058 16.0534 11.6027 16.0966 11.8024C16.1398 12.0022 16.1873 12.199 16.2361 12.3916C16.2849 12.5842 16.3296 12.7537 16.3756 12.9017C16.4063 12.7853 16.4412 12.6474 16.4774 12.4864C16.5137 12.3255 16.5486 12.1588 16.5862 11.9864C16.6239 11.8139 16.6616 11.6472 16.6951 11.4791C16.7285 11.311 16.762 11.1601 16.7899 11.0265C16.8178 10.8928 16.8415 10.7836 16.8569 10.7003C16.8722 10.6169 16.8834 10.5709 16.8834 10.5681C16.8931 10.518 16.9198 10.4732 16.9587 10.4416C17.0004 10.4147 17.0491 10.4017 17.0982 10.4042C17.153 10.4023 17.2068 10.4201 17.2503 10.4545C17.2698 10.4705 17.2855 10.4908 17.2961 10.514C17.3068 10.5371 17.3121 10.5625 17.3117 10.5882V10.6069C17.3123 10.6183 17.3123 10.6299 17.3117 10.6414C17.3117 10.6672 17.2935 10.7448 17.267 10.877C17.2405 11.0092 17.2084 11.1644 17.1708 11.3498C17.1331 11.5352 17.0898 11.7363 17.0438 11.9504C16.9978 12.1646 16.9489 12.3686 16.9043 12.5626C16.8597 12.7566 16.815 12.9276 16.7648 13.0742C16.7387 13.1761 16.7032 13.2752 16.6588 13.3702C16.6306 13.4305 16.5805 13.477 16.5193 13.4995C16.4743 13.5152 16.4273 13.5239 16.3798 13.5254C16.3607 13.5268 16.3416 13.5268 16.3226 13.5254C16.2952 13.5214 16.2681 13.5151 16.2417 13.5067C16.2117 13.4957 16.1835 13.4802 16.158 13.4607C16.1287 13.4385 16.1056 13.4088 16.091 13.3745C16.0503 13.2757 16.0167 13.1738 15.9906 13.0699C15.9501 12.9262 15.9083 12.7681 15.8622 12.5899C15.8162 12.4117 15.773 12.222 15.7227 12.0266C15.6725 11.8312 15.6376 11.6487 15.6 11.4791" fill="#1D1D1B"/>
<path d="M18.0691 12.6287C18.0217 12.7839 17.9799 12.9276 17.945 13.0598C17.9101 13.192 17.8738 13.2997 17.8431 13.3845C17.8357 13.4417 17.8066 13.4935 17.7621 13.5285C17.7177 13.5635 17.6615 13.5789 17.606 13.5713C17.5505 13.5637 17.5002 13.5337 17.4662 13.4879C17.4322 13.4421 17.4172 13.3842 17.4246 13.327C17.4244 13.3055 17.4277 13.2842 17.4344 13.2638L17.493 13.0641C17.5265 12.952 17.5697 12.8126 17.6227 12.643C17.6757 12.4735 17.7357 12.2924 17.7999 12.0927C17.8641 11.8929 17.931 11.6946 17.9994 11.4992C18.0677 11.3038 18.1389 11.1213 18.2031 10.9531C18.2566 10.8119 18.3196 10.6745 18.3914 10.5422C18.4117 10.4941 18.4478 10.455 18.4932 10.4315C18.5484 10.4099 18.6072 10.4001 18.6662 10.4028C18.7268 10.4015 18.787 10.4127 18.8434 10.4358C18.8668 10.4474 18.8877 10.4636 18.905 10.4836C18.9222 10.5036 18.9354 10.5269 18.9438 10.5522C18.9884 10.6485 19.0415 10.7793 19.1014 10.9416C19.1614 11.104 19.2284 11.2808 19.2953 11.4704C19.3623 11.6601 19.4348 11.8527 19.4962 12.0452C19.5576 12.2378 19.6232 12.4246 19.6776 12.5942C19.732 12.7637 19.7794 12.9089 19.8171 13.0253C19.8547 13.1417 19.8812 13.2221 19.8896 13.2581C19.8964 13.2784 19.8997 13.2998 19.8994 13.3213C19.9008 13.3481 19.8964 13.3749 19.8865 13.3998C19.8766 13.4246 19.8615 13.4469 19.8422 13.465C19.8201 13.4853 19.7942 13.5007 19.7662 13.5103C19.7381 13.52 19.7084 13.5236 19.679 13.521C19.6356 13.5252 19.5922 13.5124 19.5576 13.4851C19.5283 13.4568 19.5067 13.4212 19.4948 13.3816C19.4627 13.2969 19.4265 13.1891 19.3832 13.0569C19.34 12.9247 19.2953 12.781 19.2437 12.6258H18.065L18.0691 12.6287ZM19.1112 12.2047C19.0442 11.9949 18.9829 11.8024 18.9229 11.63C18.8629 11.4575 18.8099 11.2923 18.7429 11.1284C18.7276 11.0925 18.7108 11.0523 18.6941 11.0034C18.6774 10.9546 18.6662 10.9301 18.6634 10.9215C18.6503 10.9461 18.64 10.9721 18.6327 10.9991C18.6146 11.0508 18.5992 11.0925 18.5825 11.1284C18.5197 11.2865 18.4597 11.4532 18.4011 11.63C18.3426 11.8067 18.2812 11.9978 18.2156 12.2047H19.1112Z" fill="#1D1D1B"/>
<path d="M20.7141 12.3054C20.6977 12.2885 20.6828 12.2702 20.6695 12.2508L20.6234 12.1847C20.5788 12.12 20.5327 12.041 20.4839 11.949C20.4351 11.857 20.3793 11.7593 20.3277 11.6616C20.2761 11.5639 20.2258 11.4532 20.1784 11.3483C20.131 11.2434 20.0836 11.1457 20.0459 11.0609C20.0082 10.9761 19.972 10.8914 19.9441 10.8253C19.9231 10.7789 19.9058 10.7308 19.8924 10.6816C19.887 10.6696 19.8828 10.6571 19.8799 10.6442C19.8799 10.6442 19.8799 10.6255 19.8799 10.6083C19.8797 10.5815 19.8848 10.5549 19.8949 10.5302C19.905 10.5056 19.9198 10.4832 19.9385 10.4646C19.9604 10.4439 19.9862 10.4281 20.0142 10.4179C20.0423 10.4078 20.072 10.4036 20.1017 10.4057C20.127 10.4027 20.1526 10.4056 20.1767 10.414C20.2009 10.4225 20.2229 10.4363 20.2412 10.4545C20.2657 10.4828 20.2851 10.5154 20.2984 10.5508L20.3444 10.6571C20.3681 10.7117 20.3974 10.7793 20.4309 10.8598C20.4644 10.9402 20.5048 11.0293 20.5495 11.127C20.5941 11.2247 20.6374 11.3181 20.689 11.4144L20.8215 11.6831C20.8574 11.7555 20.8975 11.8255 20.9415 11.8929C21.0126 11.7785 21.0774 11.66 21.1354 11.538C21.2037 11.3943 21.2749 11.2578 21.3321 11.1184C21.3893 10.979 21.4493 10.8569 21.4967 10.752L21.579 10.5522C21.5928 10.5168 21.6127 10.4842 21.6376 10.456C21.6554 10.437 21.6774 10.4227 21.7016 10.4142C21.7259 10.4057 21.7517 10.4033 21.7771 10.4071C21.8068 10.4049 21.8366 10.409 21.8646 10.4191C21.8927 10.4293 21.9185 10.4452 21.9403 10.466C21.9595 10.4843 21.9746 10.5065 21.9847 10.5313C21.9948 10.5561 21.9997 10.5828 21.9989 10.6097C22.0004 10.6216 22.0004 10.6337 21.9989 10.6456L21.9877 10.683L21.9333 10.8267C21.9068 10.8942 21.8734 10.9704 21.8329 11.0624C21.7924 11.1543 21.7506 11.2506 21.7032 11.3498C21.6557 11.4489 21.6027 11.5581 21.5511 11.663C21.4995 11.7679 21.4479 11.8642 21.3963 11.9504C21.3446 12.0366 21.2958 12.1243 21.2568 12.1875C21.23 12.2278 21.1997 12.2653 21.1661 12.2996V13.3055C21.1674 13.3348 21.1629 13.3641 21.1529 13.3915C21.1428 13.419 21.1273 13.444 21.1075 13.465C21.0675 13.5056 21.0137 13.5284 20.9575 13.5284C20.9014 13.5284 20.8475 13.5056 20.8076 13.465C20.7862 13.4436 20.7693 13.4179 20.758 13.3894C20.7467 13.361 20.7413 13.3305 20.742 13.2998V12.2939" fill="#1D1D1B"/>
</svg>
