<svg xmlns="http://www.w3.org/2000/svg" version="1.0" width="100%" height="100%" viewBox="0 0 1657.000000 896.000000" preserveAspectRatio="xMidYMid meet"><g transform="translate(0.000000,896.000000) scale(0.100000,-0.100000)" fill="currentColor" stroke="none"><path d="M1630 6810 l0 -2150 405 0 405 0 0 1491 c0 1188 3 1490 13 1487 6 -3 314 -510 684 -1129 666 -1115 671 -1124 705 -1127 l33 -2 674 1120 c370 616 677 1120 682 1120 5 0 10 -633 11 -1477 l3 -1478 405 0 405 0 0 2145 0 2145 -460 3 -460 2 -635 -1072 c-350 -590 -642 -1074 -650 -1075 -10 -2 -224 349 -650 1069 l-635 1073 -468 3 -467 2 0 -2150z"></path><path d="M8080 7900 c-266 -24 -506 -103 -696 -230 -107 -72 -275 -243 -353 -359 -148 -224 -233 -449 -277 -741 -22 -141 -24 -470 -5 -610 51 -365 192 -670 423 -915 147 -155 296 -256 486 -330 351 -135 849 -141 1211 -13 400 141 713 464 806 832 14 54 25 105 25 112 0 12 -68 14 -402 14 l-403 0 -34 -72 c-64 -137 -199 -237 -371 -275 -107 -23 -332 -23 -425 2 -94 24 -159 54 -224 103 -140 106 -237 293 -256 497 -3 33 -8 72 -10 88 l-4 27 1085 0 1086 0 -5 288 c-5 294 -11 351 -56 528 -79 310 -274 606 -520 792 -155 117 -367 205 -582 241 -135 23 -366 33 -499 21z m399 -714 c235 -68 386 -265 417 -543 l7 -63 -663 0 -662 0 7 63 c32 272 190 473 427 542 140 40 330 41 467 1z"></path><path d="M11745 7889 c-272 -40 -513 -218 -636 -472 -13 -26 -28 -47 -34 -47 -7 0 -21 80 -39 218 -14 119 -29 227 -32 240 l-4 22 -345 0 -345 0 0 -1595 0 -1595 388 2 387 3 6 890 c6 950 4 923 55 1080 41 124 135 272 215 337 157 128 311 168 639 168 l150 0 0 380 0 380 -172 -1 c-95 -1 -200 -5 -233 -10z"></path><path d="M12670 6888 c0 -551 4 -1019 10 -1095 18 -233 93 -462 208 -629 271 -397 674 -570 1277 -551 445 14 735 126 977 375 151 155 248 319 304 511 53 184 54 194 54 1314 l0 1037 -410 0 -409 0 -4 -992 c-3 -916 -5 -998 -21 -1063 -52 -203 -154 -320 -332 -382 -72 -25 -92 -27 -229 -27 -167 -1 -222 11 -329 67 -116 62 -194 168 -239 324 -22 78 -22 81 -25 1076 l-3 997 -414 0 -415 0 0 -962z"></path><path d="M11090 2843 c-254 -9 -495 -39 -785 -98 -93 -19 -233 -46 -310 -60 -349 -65 -621 -151 -2499 -789 -712 -242 -911 -302 -1222 -365 -650 -132 -1503 -147 -2239 -40 -788 115 -1872 504 -3099 1112 l-259 128 -38 -37 c-113 -111 -368 -562 -584 -1037 -56 -124 -57 -119 28 -188 76 -61 1015 -516 1422 -689 619 -262 1332 -480 2125 -650 437 -93 558 -105 1185 -119 732 -16 1005 5 1574 120 642 130 927 215 2161 642 294 102 628 215 742 251 522 166 1124 318 1468 371 244 37 1281 37 1549 0 143 -20 863 -173 1036 -221 295 -81 727 -235 1109 -394 298 -124 535 -234 971 -450 330 -163 474 -224 490 -208 8 8 645 1190 645 1197 0 25 -793 427 -1294 656 -575 262 -1110 446 -1846 634 -498 128 -834 195 -1047 211 -281 20 -1002 33 -1283 23z"></path></g></svg>
