<?xml version="1.0" encoding="UTF-8"?>
<svg id="Layer_2" data-name="Layer 2" xmlns="http://www.w3.org/2000/svg" viewBox="0 0 23.61 19.69">
  <defs>
    <style>
      .cls-1 {
        fill: #606060;
      }

      .cls-1, .cls-2, .cls-3, .cls-4, .cls-5 {
        stroke-width: 0px;
      }

      .cls-2 {
        fill: #fae7e8;
      }

      .cls-3 {
        fill: #fcf7f7;
      }

      .cls-4 {
        fill: #a02822;
      }

      .cls-5 {
        fill: #ed372c;
      }
    </style>
  </defs>
  <g id="Layer_1-2" data-name="Layer 1">
    <g>
      <g>
        <path class="cls-2" d="M1.41,17.74c-.96,0-1.49-.6-1.38-1.43.31-2.36.64-4.73.91-7.09.11-.97-.17-1.92-.28-2.88C.46,4.65.21,2.96,0,1.27-.1.37.86-.25,1.82.1c.71.26,1.4.59,2.1.89,5.19,2.22,10.38,4.44,15.57,6.66.13.06.26.12.39.18.48.2.87.47.86,1.07,0,.56-.39.83-.84,1.02-5.98,2.56-11.96,5.12-17.94,7.68-.2.09-.43.12-.54.15ZM1.35,8.86c-.33,2.48-.67,4.97-.98,7.45-.11.92.57,1.35,1.49.96,1.85-.78,3.7-1.58,5.54-2.37,4.09-1.75,8.18-3.5,12.27-5.25.36-.16.74-.3.71-.8.03-.52-.38-.63-.73-.78-3.46-1.48-6.92-2.98-10.39-4.44-1.51-.63-3.01-1.29-4.53-1.89-.95-.38-1.91-.82-2.84-1.28-.44-.21-.87-.22-1.28.09-.38.29-.25.7-.22,1.09.02.2.06.41.09.61.29,2.2.58,4.4.87,6.6Z"/>
        <path class="cls-4" d="M20.38,8.85c.03.5-.35.66-.71.81-4.1,1.75-8.18,3.5-12.28,5.24-1.83.79-3.68,1.6-5.53,2.37-.92.39-1.61-.03-1.5-.96.3-2.49.66-4.97.97-7.46h19.04Z"/>
        <path class="cls-4" d="M12.47,8.76s.03.07.05.08h-.05v-.08Z"/>
        <path class="cls-4" d="M14.94,8.85h-.17v-.02c.05.02.12.02.17.02Z"/>
        <path class="cls-5" d="M20.38,8.85H1.34c-.29-2.18-.57-4.39-.87-6.59-.02-.2-.07-.42-.08-.62-.03-.37-.15-.79.22-1.08.42-.32.84-.3,1.28-.08.94.45,1.9.89,2.84,1.26,1.53.6,3.02,1.26,4.54,1.9,3.48,1.46,6.92,2.96,10.39,4.44.35.15.77.25.74.77Z"/>
      </g>
      <g>
        <path class="cls-1" d="M12.52,19.69c-.65,0-1.18-.19-1.56-.57-.38-.38-.57-.91-.57-1.57s.19-1.18.57-1.56c.38-.38.91-.58,1.56-.58.43,0,.83.1,1.2.3v.83c-.37-.28-.72-.4-1.12-.4-.77,0-1.23.53-1.23,1.41s.46,1.42,1.23,1.42c.4,0,.75-.12,1.12-.4v.83c-.37.2-.77.3-1.2.3Z"/>
        <path class="cls-1" d="M17.04,19.61h-.9v-.47c-.27.39-.58.55-1.06.55-.3,0-.54-.09-.73-.28-.19-.18-.28-.42-.28-.72,0-.72.46-1.04,1.47-1.04h.6v-.11c0-.33-.25-.49-.78-.49-.4,0-.75.09-1.04.27v-.72c.4-.11.81-.15,1.22-.15,1.06,0,1.5.41,1.5,1.4v1.77ZM14.95,18.64c0,.27.19.44.51.44.38,0,.68-.32.68-.74v-.14h-.54c-.43,0-.65.15-.65.44Z"/>
        <path class="cls-1" d="M19.99,17.33c-.41-.19-.79-.28-1.13-.28-.4,0-.59.1-.59.32,0,.18.13.26.51.31l.17.02c.49.06.81.17.98.32.16.14.24.37.24.68,0,.65-.46.98-1.38.98-.39,0-.82-.06-1.26-.18v-.73c.37.21.77.3,1.19.3s.62-.12.62-.35c0-.2-.11-.28-.53-.33l-.18-.02c-.83-.1-1.13-.37-1.13-.97,0-.65.42-.96,1.3-.96.34,0,.72.05,1.18.16v.72Z"/>
        <path class="cls-1" d="M23.61,19.61h-.89v-1.43c0-.27,0-.47-.01-.57,0-.1-.03-.18-.06-.23-.08-.14-.24-.23-.41-.23-.42,0-.68.35-.68.94v1.52h-.89v-4.3h.89v1.68c.3-.37.63-.53,1.04-.53.67,0,1.02.44,1.02,1.27v1.88Z"/>
      </g>
      <g>
        <path class="cls-3" d="M5.79,9.61l.82-2.91h1.07v4.32h-.74v-3.36l.03.19-.83,2.68h-.72l-.83-2.63.03-.25v3.36h-.74v-4.32h1.07l.82,2.91Z"/>
        <path class="cls-3" d="M9.82,11.06c-.32,0-.59-.07-.83-.2-.24-.13-.42-.32-.55-.56-.13-.24-.2-.52-.2-.84v-1.22c0-.32.07-.6.2-.84s.31-.42.55-.56c.24-.13.51-.2.83-.2s.59.07.83.2c.24.13.42.32.55.56.13.24.2.52.2.84v1.22c0,.32-.07.6-.2.84-.13.24-.32.43-.55.56s-.51.2-.83.2ZM9.82,10.25c.22,0,.4-.07.53-.21s.2-.32.2-.55v-1.27c0-.23-.07-.41-.2-.55-.13-.14-.31-.21-.53-.21s-.4.07-.53.21c-.13.14-.2.32-.2.55v1.27c0,.23.07.41.2.55.13.14.31.21.53.21Z"/>
        <path class="cls-3" d="M11.89,11.01v-4.32h1l1.61,3.31-.07.08v-3.39h.78v4.32h-1l-1.6-3.26.07-.08v3.34h-.78Z"/>
      </g>
    </g>
  </g>
</svg>