<svg version="1.1" id="Layer_1" x="0" y="0" xml:space="preserve" xmlns="http://www.w3.org/2000/svg" viewBox="0 0 175 175"><style type="text/css" id="style1">.st1{fill:#0b60a9ff}.st2{fill:#e96624}</style><g id="g1" transform="matrix(1.0805 0 0 1.0805 -7.044 -7.044)"><path id="Path_5907" class="st1" d="m36.782 78.907 3.125-18.043h4.688l3.694 9.661 3.978-9.66h4.688l2.7 18.184h-4.689l-1.278-10.37-4.404 10.37h-1.847l-4.12-10.37-1.563 10.37h-4.972z" stroke-width="1.421"/><path id="Path_5908" class="st1" d="M75.14 77.344a8.085 8.085 0 0 1-10.94 0c-2.414-2.415-2.556-6.393-.141-8.808l.142-.142c3.125-2.7 7.814-2.7 10.94 0 2.414 2.415 2.556 6.251.141 8.808zm-7.387-6.535c-1.137.995-1.421 2.7-.427 3.836.995 1.137 2.7 1.42 3.836.426.142-.142.284-.284.426-.284l.142-.142c.569-.568.853-1.136.853-1.989 0-.71-.284-1.42-.853-1.989-1.136-.852-2.983-.852-3.977.142z" stroke-width="1.421"/><path id="Path_5909" class="st1" d="M92.33 77.344a8.085 8.085 0 0 1-10.939 0c-2.415-2.415-2.557-6.25-.142-8.808l.142-.142c1.42-1.42 3.41-2.13 5.399-1.989 1.989 0 3.978.71 5.398 1.99 2.7 2.414 2.7 6.392.142 8.95zm-7.387-6.535c-1.137.995-1.137 2.842-.142 3.978.994 1.137 2.841 1.137 3.978.142l.142-.142c.568-.426.852-1.136.852-1.989 0-.71-.284-1.42-.852-1.989a3.025 3.025 0 0 0-3.978 0z" stroke-width="1.421"/><path id="Path_5910" class="st1" d="m100.428 66.831 2.984 6.251 2.983-6.25h4.83l-6.393 12.075h-2.983l-6.251-12.076Z" stroke-width="1.421"/><path id="Path_5911" class="st1" d="M48.715 97.802H42.18l-1.136 2.984H36.07L43.033 82.6h5.114l6.82 18.185h-5.115zm-1.278-3.551-1.99-5.825-1.988 5.825z" stroke-width="1.421"/><path id="Path_5912" class="st1" d="M61.36 92.262v8.524h-4.405v-8.524h-1.562V88.71h1.562v-1.99c-.142-1.42.284-2.84 1.137-3.977.994-1.279 2.557-1.989 4.262-1.989a5.7 5.7 0 0 1 2.13.426v3.694a2.4 2.4 0 0 0-1.42-.426c-.426 0-.852.142-1.278.426-.427.568-.427 1.42-.427 1.989v1.705h2.984v3.694z" stroke-width="1.421"/><path id="Path_5913" class="st1" d="M66.048 88.71h4.262v1.989a4.897 4.897 0 0 1 1.705-1.705c.71-.284 1.42-.568 2.273-.426h.852v4.12c-.426-.284-1.136-.426-1.705-.426-.71 0-1.42.142-1.989.71-.71.71-.994 1.705-.994 2.7v5.256H66.19z" stroke-width="1.421"/><path id="Path_5914" class="st1" d="M79.544 81.18c1.42 0 2.415 1.137 2.415 2.415 0 1.421-1.136 2.416-2.415 2.416-1.42 0-2.415-1.137-2.415-2.416-.142-1.278.994-2.415 2.415-2.415-.142 0-.142 0 0 0zm2.131 7.53v12.076h-4.262V88.71Z" stroke-width="1.421"/><path id="Path_5915" class="st1" d="M93.893 100.644c-.994.426-1.989.71-2.983.71-1.705 0-3.552-.568-4.83-1.847-1.137-1.136-1.848-2.841-1.848-4.546s.71-3.41 1.99-4.688c1.278-1.279 2.983-1.847 4.83-1.847.994 0 1.989.284 2.841.71v3.694a6.277 6.277 0 0 0-2.273-.853c-.852 0-1.563.285-2.131.853-.568.568-.852 1.278-.852 2.13 0 .711.284 1.422.71 1.99.568.568 1.42.994 2.273.994.852 0 1.563-.284 2.273-.852z" stroke-width="1.421"/><path id="Path_5916" class="st1" d="M105.827 88.71h4.262v12.076h-4.262v-1.279a4.303 4.303 0 0 1-3.836 1.705 5.826 5.826 0 0 1-4.404-1.99c-1.137-1.136-1.847-2.84-1.705-4.403 0-1.847.568-3.552 1.847-4.83 1.136-1.137 2.7-1.705 4.404-1.705 1.42 0 2.7.568 3.694 1.562zm-4.546 4.12c-1.137.994-1.137 2.7-.142 3.836l.142.142c.568.426 1.278.852 1.989.852a2.85 2.85 0 0 0 2.84-2.841c0-.71-.283-1.42-.851-1.99-1.137-1.136-2.842-1.136-3.978 0z" stroke-width="1.421"/><path id="Path_5917" class="st2" d="m165.353 84.732-2.699 7.103c0 .142-.142.142-.284 0l-3.126-7.245v-.426l3.126-7.104c0-.142.142-.142.284 0l2.7 7.246v.426z" stroke-width="1.421"/><path id="Path_5918" class="st2" d="m159.387 73.509-.143.284-.284.568-.284.71-.284.853-.284.852-.284.853-.284.852-.285.71c0 .142-.142.284-.142.427 0 .142-.142.284-.142.426-.142 0-.142.142-.284.142s-.284 0-.426-.142l-7.672-10.513c-.142-.142-.142-.427 0-.71l3.978-5.257.142-.142c.142-.142.427 0 .569.142l6.25 9.092c.143.142.143.142.143.284s0 .284-.142.427" stroke-width="1.421"/><path id="Path_5919" class="st2" d="M159.529 95.671c-.285-.71-.569-1.278-.71-1.989l-.711-1.847-.568-1.704-.427-1.28a.306.306 0 0 0-.284-.283c-.142 0-.284 0-.426.142l-7.814 10.655c-.142.142-.142.426 0 .71l4.12 5.257c.142.142.427.142.71 0l6.11-8.95c.142-.143.142-.285.142-.427-.142 0-.142-.142-.142-.284z" stroke-width="1.421"/><path id="Path_5920" d="M100.57 50.067c-.142 0-.142.142-.142.142 0 .142 0 .142.142.142 19.18 6.394 29.977 17.759 29.977 32.534 0 21.31-25.573 34.665-58.39 36.227-30.971 2.416-62.084-2.84-62.084-2.84-.142 0-.284 0-.284.141-.142.142-.142.142-.142.284s.142.427.284.427c16.48 4.546 33.386 7.103 50.576 7.671 58.674 1.99 88.082-17.758 88.082-40.773 0-16.054-17.616-34.097-48.019-33.955z" stroke-width="1.421" fill="#f37f20"/><path id="Path_5921" class="st1" d="m154.414 84.874-8.382 10.94c-.142.141-.426.141-.71 0l-9.377-10.94c-.142-.142-.142-.426 0-.71l9.519-10.94c.142-.142.426-.142.71 0l8.24 10.94c.284.142.284.426 0 .71z" stroke-width="1.421"/></g></svg>