<svg xmlns="http://www.w3.org/2000/svg" viewBox="0 0 566.93 283.46"><path d="M283.46 0C126.91 0 0 63.46 0 141.73s126.91 141.73 283.46 141.73S566.93 220 566.93 141.73 440 0 283.46 0Zm0 261.09c-144.19 0-261.08-53.44-261.08-119.36S139.27 22.38 283.46 22.38s261.09 53.43 261.09 119.35-116.89 119.36-261.09 119.36Zm-35.74-144.22V94.49h80v22.38h-28.8V189h-22.41v-72.13Zm176.5-22.38V189h-22.38l-40.59-56.25V189h-22.37V94.49h22.37l40.59 56.25V94.49ZM142.05 189V94.49h22.38l24.86 38.24 24.86-38.24h22.38V189h-22.38v-53.47l-17 26.09H181.4l-17-26.09V189Z" fill="#1d1d1b"/></svg>