<?xml version="1.0" encoding="UTF-8"?>
<svg id="Layer_2" data-name="Layer 2" xmlns="http://www.w3.org/2000/svg" viewBox="0 0 23.61 5.72">
  <defs>
    <style>
      .cls-1 {
        fill: #04659d;
      }

      .cls-1, .cls-2, .cls-3 {
        stroke-width: 0px;
      }

      .cls-2 {
        fill: #02659d;
      }

      .cls-3 {
        fill: #f28230;
      }
    </style>
  </defs>
  <g id="Layer_1-2" data-name="Layer 1">
    <g>
      <path class="cls-2" d="M21.24,4.04c0,.43,0,.87,0,1.3,0,.23-.08.34-.32.32-.02,0-.04,0-.05,0-.44,0-.45,0-.45-.45,0-1.64,0-3.27-.02-4.91,0-.22.1-.29.29-.3.06,0,.13,0,.19,0,.25-.02.37.08.36.34,0,.38,0,.76,0,1.14,0,.15.03.19.2.17.33-.04.67-.07,1-.03.68.07,1.1.52,1.13,1.2.04.85.03,1.7.02,2.55,0,.22-.08.32-.3.3-.04,0-.09,0-.14,0-.25.02-.37-.06-.37-.34,0-.7-.02-1.39-.03-2.09-.01-.6-.21-.8-.8-.8q-.71,0-.71.72c0,.3,0,.9,0,.9Z"/>
      <path class="cls-3" d="M6.88,3.86c0,.39,0,.78,0,1.17,0,.17-.09.33-.25.39-.72.25-1.45.3-2.19.11-.6-.15-.84-.61-.79-1.36.04-.54.48-.99,1.04-1.09.38-.06.76-.06,1.14-.06.13,0,.21-.1.19-.23-.06-.35-.18-.49-.54-.54-.37-.06-.74.02-1.1.1-.16.03-.29.04-.31-.17-.01-.18-.21-.41.12-.51.56-.17,1.13-.22,1.7-.12.54.09.93.59.95,1.14.02.39,0,.79,0,1.18,0,0,.01,0,.02,0ZM6,4.3q0-.59-.58-.57c-.13,0-.25,0-.38.01-.34.03-.52.22-.54.56-.02.31.15.54.47.6.14.03.29.03.43.02.6-.03.6-.03.6-.62Z"/>
      <path class="cls-1" d="M16.38,4.98c.01.24-.08.38-.3.45-.68.22-1.38.29-2.08.11-.62-.16-.92-.61-.88-1.25.04-.62.47-1.12,1.05-1.22.37-.06.74-.06,1.11-.05.18,0,.24-.05.22-.23-.02-.32-.18-.5-.5-.53-.37-.04-.74,0-1.1.09-.2.05-.31,0-.34-.21-.02-.19-.17-.39.16-.49.56-.17,1.12-.19,1.69-.11.56.08.92.52.95,1.12.02.41,0,.81,0,1.22,0,0,0,.74.02,1.11ZM15.49,4.27c0-.09-.01-.18,0-.27.04-.23-.07-.3-.28-.28-.22.02-.45,0-.67.02-.35.03-.53.24-.54.59,0,.31.19.54.52.58.11.01.22,0,.32,0q.64-.02.65-.66Z"/>
      <path class="cls-1" d="M18.39,1.56c.45,0,.7.03,1.02.25.12.08.23.17.32.29.11.15.25.32.14.49-.11.18-.34.23-.54.27-.1.02-.15-.08-.21-.15-.27-.33-.77-.47-1.17-.32-.15.06-.26.17-.26.34,0,.18.09.31.27.37.25.09.52.09.77.14.12.03.25.04.37.07.57.14.86.45.9.97.05.6-.22,1.07-.74,1.29-.71.3-1.7.14-2.16-.33-.04-.04-.08-.08-.11-.12-.11-.16-.26-.33-.17-.51.1-.2.35-.2.54-.25.13-.03.18.08.24.18.23.38,1.05.53,1.4.25.13-.1.16-.23.14-.39-.02-.14-.11-.22-.24-.27-.28-.09-.58-.13-.88-.17-.77-.11-1.16-.46-1.19-1.07-.04-.79.43-1.3,1.23-1.33.09,0,.18,0,.31,0Z"/>
      <path class="cls-3" d="M0,3.77c0-.54,0-1.09,0-1.63,0-.26.14-.41.37-.46.63-.13,1.26-.16,1.88.02.59.16.89.62.96,1.19.1.85.04,1.72.05,2.58,0,.12-.05.16-.16.16-.14,0-.29-.01-.43,0-.19.02-.23-.07-.23-.23,0-.69-.02-1.37-.04-2.06-.02-.69-.28-.97-.98-.97-.7,0-.57-.05-.59.57-.01.8-.02,1.61-.01,2.41,0,.23-.08.3-.3.29-.52,0-.52,0-.53-.51,0-.45,0-.9,0-1.36Z"/>
      <path class="cls-1" d="M11.63,5.65c-1.07,0-1.65-.52-1.75-1.56-.06-.59-.05-1.17.24-1.72.46-.87,1.75-1.18,2.55-.62.09.06.12.13.09.23-.02.04-.03.08-.05.13q-.15.39-.55.28c-.86-.23-1.35.11-1.42.99-.02.26,0,.53.04.78.06.41.41.7.83.71.29,0,.57-.07.84-.17.15-.06.2-.01.26.12.23.51.22.55-.32.72-.26.08-.53.12-.76.11Z"/>
      <path class="cls-3" d="M9.2,4.87s.07,0,.11,0c.34-.02.54.25.44.59-.03.1-.11.11-.19.13-.34.06-.68.09-1.03.05-.5-.05-.79-.39-.8-.89,0-.72-.02-1.45,0-2.17,0-.23-.04-.32-.29-.31-.34.01-.34-.02-.34-.35,0-.18.11-.25.25-.26.35-.02.46-.21.48-.54.03-.39.12-.48.49-.57.15-.04.24-.02.23.17,0,.23.02.45.01.68,0,.17.07.22.23.21.13,0,.25.01.38,0,.23-.03.29.07.28.29-.02.44.03.38-.38.38-.53,0-.52,0-.51.52.01.5.03.99.01,1.49-.02.54.1.65.62.59Z"/>
    </g>
  </g>
</svg>