<svg xmlns="http://www.w3.org/2000/svg" xml:space="preserve" viewBox="0 0 364 506.667"><path d="M80.9 61.72c-13.777 7.115-28.028 14.475-45.582 23.535-20.287 10.47-31.505 44.469-18.775 61.89l1.094 1.496C33.256 127.18 45.64 110.18 60.645 89.56c6.587-9.054 13.461-18.5 20.254-27.839" fill="#fd2b72" fill-rule="evenodd"/><path d="M80.8 235.073c-23.258-31.816-41.348-56.581-63.163-86.432l-12.609 17.33c-12.736 17.509 1.45 51.956 18.72 60.662 30.992 15.622 51.662 26.059 81.298 41.008-8.323-11.038-16.464-21.921-24.247-32.568" fill="#2fc8d6" fill-rule="evenodd"/><path d="M228.576 329.932c-37.455-18.892-73.917-37.27-109.379-55.153l-14.15-7.138c17.74 23.531 36.304 47.766 53.953 71.918 15.533 21.254 40.793 21.418 58.297 2.538l11.279-12.165" fill="#fd2b72" fill-rule="evenodd"/><path d="M293.99 259.375c-20.182 21.772-41.93 45.226-65.414 70.557l10.9 5.497c20.892 10.54 43.283 1.035 49.264-20.337 7.067-25.252 13.75-49.123 20.073-71.708l-14.822 15.99" fill="#2fc8d6" fill-rule="evenodd"/><path d="M319.707 204.468c-3.508 12.532-7.136 25.497-10.894 38.916 15.922-17.177 30.919-33.36 45.063-48.617 10.175-10.976 13.541-24.902 1.121-38.87l-7.07-7.952-9.435-10.608c-5.892 21.048-12.141 43.39-18.785 67.131" fill="#fd2b72" fill-rule="evenodd"/><path d="M288.16 80.75c14.79 16.629 33.753 37.946 50.332 56.587l5.23-18.677c3.453-12.327-.185-24.652-15.665-30.86l-10.16-4.075c-13.146-5.272-27.661-11.09-42.108-16.882L288.16 80.75" fill="#2fc8d6" fill-rule="evenodd"/><path d="m231.252 48.99 44.537 17.853c-14.686-16.511-30.896-34.738-43.782-49.231-2.144-2.41-4.282-4.816-6.414-7.215C214.845-1.693 201.477-.54 189.04 5.88c-9.243 4.77-18.753 9.681-28.544 14.737l70.756 28.373" fill="#fd2b72" fill-rule="evenodd"/><path d="M275.79 66.843c-15.518-6.22-30.957-12.408-44.538-17.854l-70.756-28.373c-13.99 7.224-28.553 14.747-43.725 22.58-12.774 6.595-24.15 12.47-35.871 18.525L60.645 89.56c-15.005 20.621-27.39 37.62-43.008 59.082 21.815 29.851 39.905 54.616 63.162 86.432 7.783 10.647 15.924 21.53 24.247 32.568l14.151 7.138c35.462 17.884 71.924 36.261 109.379 55.153 23.484-25.33 45.232-48.785 65.415-70.557l14.822-15.991c3.758-13.419 7.386-26.384 10.894-38.916 6.644-23.741 12.893-46.083 18.785-67.13-16.579-18.642-35.541-39.96-50.332-56.587l-12.37-13.908" fill="#200049" fill-rule="evenodd"/><path d="M116.771 43.196c15.172-7.833 29.734-15.356 43.725-22.58-4.784-1.919-9.481-3.803-14.056-5.636-1.201-.483-2.404-.964-3.603-1.444-13.474-5.403-23.605-4.503-30.678 5.22l-2.83 3.888c-8.514 11.704-18.384 25.27-28.43 39.076 11.721-6.053 23.098-11.93 35.872-18.524" fill="#2fc8d6" fill-rule="evenodd"/><path d="M1.203 504.606v-72.16c0-.736.596-1.333 1.333-1.333 2.207 0 5.135-.386 5.893.533l47.55 52.553v-51.69c0-.737.596-1.334 1.332-1.334h7.535c.736 0 1.333.597 1.333 1.334v72.097c0 1.867-3.457 1.563-4.08.838l-50.486-55.61v54.772c0 .736-.597 1.333-1.334 1.333H2.536a1.334 1.334 0 0 1-1.333-1.333zm353.733-73.43h7.535c.736 0 1.333.596 1.333 1.333v72.097c0 .736-.597 1.333-1.333 1.333h-7.535a1.334 1.334 0 0 1-1.333-1.333v-72.097c0-.737.597-1.334 1.333-1.334zm-86.379 0h7.535c.736 0 1.333.596 1.333 1.333 0 4.067-.241 47.388.17 50.332.973 6.988 5.196 10.653 11.996 12.244 2.43.57 3.953.482 6.328.484v-.005c7.086 0 13.002-4.25 14.954-11.271.655-2.353.846-8.916.846-12.176V432.51c0-.737.596-1.334 1.333-1.334h7.533c.736 0 1.334.597 1.334 1.334v39.575c0 7.803-.692 17.13-5.324 23.23-4.91 6.466-12.074 9.744-20.276 9.744v-.005c-6.964-.022-12.48-.498-18.53-4.375-10.82-6.935-10.565-16.39-10.565-28.594v-39.575c0-.737.597-1.334 1.333-1.334zm-66.164-1.225c21.638 0 38.316 16.172 38.316 37.728 0 10.38-3.589 19.34-10.88 26.69l9.078 9.1c.834.838.232 2.268-.943 2.269l-7.75.003a1.33 1.33 0 0 1-1.011-.465l-5.698-5.712c-10.226 6.702-24.094 7.7-35.262 3.167-13.951-5.661-23.264-19.241-23.264-34.713 0-20.982 16.285-38.067 37.414-38.067zm.827 46.066 7.75-.002c.405 0 .767.18 1.011.465l11.114 11.139c11.898-12.225 10.636-34.726-6.22-44.41l-.003.005c-18.68-10.728-42.075 2.246-42.075 24.788 0 22.083 23.252 34.667 41.727 24.564l-14.247-14.28c-.832-.835-.237-2.263.943-2.27zM99.37 431.175h38.07c.736 0 1.333.597 1.333 1.334v7.028c0 .737-.597 1.334-1.333 1.334h-29.203v19.926h28.89c.734 0 1.333.598 1.333 1.334v7.029c0 .736-.599 1.333-1.333 1.333h-28.89v25.75h28.89c.734 0 1.333.598 1.333 1.334v7.029c0 .736-.599 1.333-1.333 1.333H99.37a1.334 1.334 0 0 1-1.334-1.333v-72.097c0-.737.598-1.334 1.334-1.334" fill="#200049"/></svg>