<svg viewBox="0 0 24 24" fill="none" xmlns="http://www.w3.org/2000/svg">
<path d="M21.3709 10.5463C21.1048 10.3646 20.7055 10.2727 20.1814 10.2727H18.8079L18.2972 13.0566H16.4971L16.6129 12.4249H17.6973L17.8261 11.7158H16.7424L16.8582 11.0868H17.9751L18.1235 10.2727H15.8556L15.3705 12.9133H14.5387L15.0268 10.2727H13.8413L13.3569 12.9133H12.5457L13.0344 10.2727H11.8499L11.3382 13.0566H9.52516L9.63995 12.4249H10.7283L10.8571 11.7198H9.76971L9.88384 11.0884H11.0151L11.1615 10.2727H4.09437L3.6931 12.4774L2.89189 10.2727H1.6608L1 13.8727H2.17453L2.5738 11.6062L3.35139 13.8727H7.56239L8.07413 11.0884H8.7326L8.2202 13.8727H19.2967L19.6178 12.1149L20.1375 13.8727H21.3127L20.7744 12.4363L20.8971 12.4106C21.1683 12.3525 21.3799 12.2269 21.5273 12.0391C21.6747 11.8514 21.7493 11.6049 21.7493 11.3132C21.7502 10.9719 21.6265 10.7213 21.3709 10.5463ZM6.53992 13.0566H4.74319L4.85931 12.4249H5.98726L6.11536 11.7134H4.99673L5.10453 11.0884H6.90126L6.53992 13.0566ZM20.402 11.8427C20.2839 11.9255 20.1126 11.966 19.8783 11.966H19.6454L19.8234 10.9999H19.9944C20.1891 10.9999 20.3308 11.0313 20.4287 11.0955C20.5052 11.1452 20.595 11.2444 20.595 11.4322C20.5977 11.6596 20.4912 11.7812 20.402 11.8427Z" fill="#518113"/>
<path d="M22.2803 13.6402L22.2513 13.0724L22.5012 13.0593C22.54 13.0558 22.579 13.059 22.6167 13.0687C22.644 13.0774 22.6675 13.0954 22.6832 13.1195C22.7002 13.1443 22.7099 13.1735 22.7112 13.2036C22.714 13.2412 22.7021 13.2784 22.6779 13.3072C22.6469 13.3401 22.6055 13.3613 22.5608 13.3673C22.5773 13.3737 22.5929 13.3824 22.607 13.393C22.6323 13.4142 22.6546 13.4386 22.6736 13.4655L22.779 13.6145L22.6859 13.6195L22.6054 13.5053C22.5817 13.4719 22.5624 13.4472 22.5475 13.4301C22.5362 13.4161 22.5229 13.4039 22.5079 13.394C22.497 13.3877 22.4852 13.3832 22.4729 13.3807C22.4579 13.3789 22.4428 13.3785 22.4277 13.3793L22.3412 13.3837L22.3542 13.6352L22.2803 13.6402ZM22.3389 13.3202L22.4992 13.3119C22.5263 13.3115 22.553 13.3065 22.5784 13.2972C22.5962 13.2903 22.611 13.2774 22.6203 13.2608C22.6294 13.2452 22.6338 13.2273 22.633 13.2093C22.6326 13.1967 22.6294 13.1844 22.6237 13.1733C22.6179 13.1621 22.6097 13.1524 22.5997 13.1448C22.5725 13.1265 22.5394 13.1188 22.5069 13.1235L22.3289 13.1325L22.3389 13.3202Z" fill="#518113"/>
<path d="M22.4457 12.8151C22.3062 12.8225 22.1753 12.8851 22.0817 12.9892C21.9881 13.0934 21.9395 13.2305 21.9466 13.3706C21.9501 13.44 21.9673 13.508 21.997 13.5708C22.0267 13.6336 22.0684 13.6898 22.1198 13.7364C22.2236 13.8304 22.3603 13.8792 22.4999 13.872C22.5691 13.8685 22.6368 13.8513 22.6993 13.8214C22.7618 13.7916 22.8179 13.7497 22.8642 13.6981C22.9106 13.6465 22.9464 13.5863 22.9696 13.5208C22.9928 13.4553 23.0029 13.3859 22.9994 13.3165C22.992 13.1764 22.9296 13.0448 22.8258 12.9508C22.722 12.8568 22.5853 12.808 22.4457 12.8151ZM22.0358 13.366C22.0316 13.3076 22.039 13.2491 22.0577 13.1937C22.0763 13.1383 22.1058 13.0872 22.1444 13.0434C22.1829 12.9996 22.2298 12.964 22.2823 12.9386C22.3347 12.9132 22.3917 12.8986 22.4499 12.8956C22.508 12.8927 22.5662 12.9014 22.621 12.9212C22.6757 12.9411 22.726 12.9718 22.7688 13.0114C22.8116 13.0511 22.8461 13.0989 22.8703 13.1521C22.8944 13.2053 22.9078 13.2628 22.9095 13.3212C22.9095 13.3289 22.9095 13.3362 22.9095 13.3436C22.9091 13.4578 22.8643 13.5674 22.7847 13.6491C22.7051 13.7307 22.5969 13.778 22.4831 13.7809C22.3694 13.7838 22.2589 13.7421 22.1753 13.6647C22.0916 13.5872 22.0414 13.48 22.0351 13.366H22.0358Z" fill="#518113"/>
</svg>
