<svg viewBox="0 0 40 40" xmlns="http://www.w3.org/2000/svg"><path fill="#130e12" d="M0 0h40v40H0z"/><g fill="none" fill-rule="evenodd"><path fill="#fff" d="M17.019 13.086h-9.79a1.988 1.997 0 0 0 0 3.992h4.99l-8.035 8.073a1.988 1.997 0 1 0 2.812 2.825l8.035-8.073v5.014a1.988 1.997 0 1 0 3.975 0v-9.835a1.988 1.997 0 0 0-1.987-1.996"/><path fill="#ff7900" d="M22.982 26.914h9.79a1.988 1.997 0 1 0 0-3.993H27.78l8.035-8.072a1.988 1.997 0 1 0-2.812-2.824l-8.034 8.072v-5.015a1.988 1.997 0 1 0-3.976 0v9.835a1.988 1.997 0 0 0 1.988 1.997"/></g></svg>