<svg version="1.2" xml:space="preserve" xmlns="http://www.w3.org/2000/svg" viewBox="0 0 30 30"><linearGradient id="a" gradientUnits="userSpaceOnUse" x1="19.534" y1="42.32" x2="69.483" y2="-17.207" gradientTransform="translate(6.35 2.05)"><stop offset="0" stop-color="#e14a55"/><stop offset="1" stop-color="#8e278f"/></linearGradient><path fill-rule="evenodd" fill="url(#a)" d="M11.05 25.55c0 .6-.2 1.2-.7 1.7-.4.5-1 .7-1.7.7h-2.3v-17.4c0-3.3.9-5.5 2.8-6.7 1.8-1.2 4-1.8 6.1-1.8 1.2 0 2.4.2 3.5.7 1.1.4 2 1 2.8 1.9 1.4 1.8 2.1 4.2 2.1 7 0 2.9-.7 5.3-2.1 7.1-1.4 1.8-3.1 2.7-5.3 2.7-1 0-2.1-.2-3-.6-.9-.5-1.7-1.2-2.2-2.2zm7.8-13.7c0-1.8-.3-3.2-1-4.2s-1.7-1.5-3-1.5c-1.2 0-2.2.5-2.9 1.5-.6.9-1 2.3-1 4.2 0 1.8.3 3.1 1 4 .7 1 1.7 1.5 3 1.5 1.1 0 2.2-.5 2.8-1.5.8-1 1.1-2.3 1.1-4z"/></svg>