<svg viewBox="0 0 24 24" fill="none" xmlns="http://www.w3.org/2000/svg">
<path d="M14.0408 3.23955V12.5038C14.0408 13.0391 14.1284 13.382 14.3279 13.5811C14.5279 13.7802 14.8681 13.8773 15.4752 13.8773C16.5661 13.8773 17.0819 13.6582 17.0843 11.6552V11.1861C17.0843 10.2517 16.9723 9.82403 16.7039 9.54353C16.5168 9.34922 16.2336 9.24636 15.791 9.21778H14.7346V7.72239H15.9212C16.8719 7.73716 17.5647 7.97861 18.0388 8.44961C18.6053 9.01348 18.8685 9.80689 18.8665 11.1418V11.7271C18.8665 14.2435 17.8436 15.317 15.4585 15.317C14.2121 15.317 13.4322 15.0927 12.9294 14.5907C12.4901 14.1516 12.282 13.4987 12.2839 12.5938V3.00762C12.1868 3.00762 12.0897 3 11.9925 3C10.1742 2.99811 8.39879 3.55037 6.90508 4.58255V13.112C6.90508 13.4201 6.93475 13.5916 7.01082 13.6659C7.0869 13.7401 7.18641 13.7549 7.36871 13.7549H8.21414V15.2955H7.11752C6.3783 15.2955 5.88884 15.1422 5.56683 14.8131C5.24483 14.484 5.10847 14.0097 5.10943 13.2987V6.20795C4.15733 7.34346 3.49968 8.69414 3.19412 10.1415C2.88856 11.5889 2.94443 13.0889 3.35683 14.5098C4.19414 17.3967 6.41514 19.6741 9.2768 20.5789V10.3936H11.1318V20.9571C11.4126 20.9847 11.6978 20.9999 11.9873 20.9999C16.5589 21.0166 20.4139 17.5891 20.9397 13.0391C21.466 8.48914 18.4953 4.26966 14.0403 3.23908L14.0408 3.23955ZM11.2533 8.80345C11.2533 9.41399 10.8897 9.76355 10.26 9.76355H10.1863C10.0467 9.77017 9.90711 9.74902 9.77576 9.70135C9.6444 9.65368 9.5239 9.58044 9.42129 9.48591C9.33234 9.39183 9.26346 9.28079 9.2188 9.15949C9.17415 9.03818 9.15466 8.90913 9.16149 8.78012V8.67487C9.16149 8.07386 9.53947 7.71477 10.1691 7.71477H10.2433C10.3803 7.70773 10.5174 7.72789 10.6465 7.77409C10.7756 7.82028 10.8942 7.89158 10.9954 7.98385C11.1763 8.1791 11.2696 8.43961 11.2533 8.70535V8.80345Z" fill="#2DD7FF"/>
</svg>
