<svg xmlns="http://www.w3.org/2000/svg" width="32" height="32" style="shape-rendering:geometricPrecision;text-rendering:geometricPrecision;image-rendering:optimizeQuality;fill-rule:evenodd;clip-rule:evenodd" viewBox="0 0 32 32">
  <path style="opacity:.998" fill="#2d2d2d" d="M6.719-.031h18.5q4.179.332 6.094 4.063.503 1.313.656 2.688v18.5q-.332 4.179-4.063 6.094-1.313.503-2.688.656h-18.5q-4.179-.332-6.094-4.063-.503-1.313-.656-2.688v-18.5Q.3 2.54 4.031.625 5.344.122 6.719-.031"/>
  <path style="opacity:1" fill="#ec2822" d="M5.219 8.281q.221-.015.438.031 1.818.935 3.625 0 .943-.166.813.781.663-.115.875.5l-.469 1.313a10.6 10.6 0 0 0 0 1.625l.469 1.219q-.131.728-.875.594.126.952-.813.781-1.265-.7-2.688-.375a9 9 0 0 1-1.156.406q-.518-.031-.531-.563.011-.131.063-.25-.271-.02-.563-.031-.436-.272-.281-.781.937-1.804 0-3.625-.171-.938.781-.813-.106-.524.313-.813"/>
  <path style="opacity:1" fill="#a8a8a8" d="M15.156 8.656a38 38 0 0 0-3.063.063q-.074-.026-.125-.094 1.61-.078 3.188.031"/>
  <path style="opacity:1" fill="#a9a9a9" d="M21.219 8.656a38 38 0 0 0-3.063.063l-.188-.094q1.641-.078 3.25.031"/>
  <path style="opacity:1" fill="#f8f8f8" d="M27.469 8.656q.03.487-.063.938-.226-.6-.875-.719-1.266-.412-1.906.719-.193.698.344 1.156a36 36 0 0 1 2.188.75q.908.659.719 1.781-.271 1.302-1.594 1.531-1.264.186-2.5-.156-.176-.01-.281.125a5.7 5.7 0 0 1 0-1.188q.336.88 1.281 1.031.947.155 1.656-.469.513-.795.063-1.625a1.3 1.3 0 0 1-.219-.156l-1.75-.563q-1.602-.838-.844-2.469.782-.883 1.969-.813.755.053 1.5.188a1 1 0 0 0 .313-.063"/>
  <path style="opacity:1" fill="#fbfbfb" d="M12.094 8.719a38 38 0 0 1 3.063-.063q2.549.362 2.688 2.938.027 1.868-1.5 2.906-.439.245-.938.281a44 44 0 0 1-3.313-.063q.298-.064.281-.375.063-2.688 0-5.375-.098-.177-.281-.25m6.063 0a38 38 0 0 1 3.063-.063q1.849.082 1.469 1.875-.364.646-1.031.969 1.056.275 1.469 1.281.325 1.75-1.406 2a53 53 0 0 1-3.625-.063q.228-.119.281-.375.063-2.688 0-5.375-.062-.171-.219-.25"/>
  <path style="opacity:1" fill="#959595" d="M27.469 8.656q.108.514.031 1.063-.067-.051-.094-.125.093-.451.063-.938"/>
  <path style="opacity:1" fill="#fba59f" d="M5.781 9.906q-.063 0-.063.063-.241-.129-.281-.375a2.4 2.4 0 0 0 .344.313"/>
  <path style="opacity:1" fill="#2b2b2b" d="M13.656 8.844q2.069-.24 2.781 1.688.534 1.679-.25 3.25-.278.466-.781.656a4.5 4.5 0 0 1-1.625.125.44.44 0 0 1-.219-.156q-.063-2.719 0-5.438.067-.051.094-.125"/>
  <path style="opacity:1" fill="#2c2c2c" d="M19.656 8.844q2.388-.286 1.781 2-.562.62-1.406.688 2.584.202 1.719 2.625-.182.244-.469.344a6 6 0 0 1-1.625.063l-.094-.094q-.059-2.82.094-5.625"/>
  <path style="opacity:1" fill="#fff5f4" d="M5.719 9.969q0-.063.063-.063a37 37 0 0 0 1.375 1.156q.422.199.813-.063a74 74 0 0 0 1.531-1.344q.063.063 0 .125-.847.877-1.469 1.906a1.6 1.6 0 0 0 .281.594 62 62 0 0 0 1.219 1.406q-.063.063-.125 0a32 32 0 0 1-1.438-1.25q-.391-.261-.813-.063l-1.531 1.283q-.063-.063 0-.125l1.188-1.375q.313-.438 0-.875a13 13 0 0 1-1.094-1.313"/>
  <path style="opacity:1" fill="#a7a7a7" d="M12.094 14.719a44 44 0 0 0 3.313.063 33 33 0 0 1-3.5.031q.07-.097.188-.094"/>
  <path style="opacity:1" fill="#a8a8a8" d="M18.094 14.719a53 53 0 0 0 3.625.063 39 39 0 0 1-3.813.031q.07-.097.188-.094"/>
  <path style="opacity:1" fill="#f9f9f9" d="M22.094 16.406q.309-.023.563.156.141.138.125.344-.55 2.287-.625 4.625a23 23 0 0 1 1.156-2.625q.485-.378.938.063l.031.25a48 48 0 0 0-.406 2.375 3.6 3.6 0 0 0 .063 1.25q.373.389.688-.063a5.5 5.5 0 0 1 .406-.75q.188.078.188.281-.23 1.262-1.5 1.188-.495-.316-.594-.906a7 7 0 0 1 .156-2.25q-.131-.227-.219.063-.664 1.522-.906 3.156-.585.137-.844-.406-.877.848-1.375-.25-.771 1.214-1.813.25-.769-1.955.25-3.813.369-.556.969-.844.51-.11.938.188.213.22.219.531.431.074.313.5-.445 1.374-.438 2.813.103.497.594.344.324-.162.344-.531a76 76 0 0 1 .625-5.563 1.5 1.5 0 0 1 .156-.375"/>
  <path style="opacity:1" fill="#f7f7f7" d="M5.281 16.781q1.245-.167 2.313.469 1.141 1.066.406 2.469-.779 1.195-2.219 1.313a33 33 0 0 0-.25 2q.139-.025.25.063a6 6 0 0 1-.344.75q-.075.122-.219.125-.475-.046-.5-.5.148-1.221.313-2.438a2.4 2.4 0 0 1-.625-.156q-.166-.321.188-.406a1.8 1.8 0 0 0 .563.063 26 26 0 0 1 .5-2.875q.285-.109.563.031a.4.4 0 0 1 .063.188 12 12 0 0 0-.344 2.594q1.78-.53 1.625-2.375-.223-.66-.906-.781-1.405-.313-2.063.938-.397-.018-.625-.375.44-.813 1.313-1.094"/>
  <path style="opacity:1" fill="#f8f8f8" d="M15.656 16.781q.447-.014.688.344a54 54 0 0 0-.938 5.781 39 39 0 0 1 1.25-.219q.469-.063.938 0 .316.255.25.625a11 11 0 0 0-2.5.375q-.085.159-.063.344a3.2 3.2 0 0 1-.813-.219q-.561-.466.125-.656a108 108 0 0 0 .531-3.625 27 27 0 0 1 .531-2.75"/>
  <path style="opacity:1" fill="#f7f7f7" d="M27.281 18.031q.766-.187.531.563a23 23 0 0 1-1.469 3.469.5.5 0 0 1-.25.031 4.3 4.3 0 0 1 .094-.938l.75-2.75q.128-.237.344-.375"/>
  <path style="opacity:1" fill="#f8f8f8" d="M9.719 18.469q.715-.092 1.094.5a.8.8 0 0 1 .031.313l.375.063a28 28 0 0 1-.406 1.813q-.177.815 0 1.625.428.287.75-.125-.099-2.029.656-3.906.368-.09.594.219a23 23 0 0 1-.375 1.625 8.7 8.7 0 0 0-.188 2.063q.005.224.219.25.276-.104.406-.375a9 9 0 0 0 .375-.938 21 21 0 0 1 .5-2.875q.408-.219.688.188a.8.8 0 0 1 0 .438 29.5 29.5 0 0 0-.938 6.125q-.372.064-.688-.188A44 44 0 0 1 13 22.971q-.578.834-1.25.063-.796 1.028-1.469-.063-.853 1.16-1.844.125-.758-2.156.5-4.063.357-.344.781-.563"/>
  <path style="opacity:1" fill="#282828" d="M9.844 19.031q.124-.016.219.063.117.607-.219 1.125a31 31 0 0 1 .375.375q-.172 1.158-.719 2.188-.387.411-.563-.125-.105-1.475.375-2.875.183-.446.531-.75"/>
  <path style="opacity:1" fill="#292929" d="M19.469 19.031q.358-.021.313.344-.027.484-.313.875a.7.7 0 0 0 .344.219q-.049 1.194-.625 2.25-.449.544-.625-.125-.096-1.707.625-3.25a2 2 0 0 0 .281-.313"/>
  <path style="opacity:1" fill="#fafafa" d="M25.781 22.594q1.071-.196.625.781-.864.383-.781-.531a1 1 0 0 1 .156-.25"/>
</svg>
