<svg viewBox="0 0 24 24" fill="none" xmlns="http://www.w3.org/2000/svg">
<path d="M8.33404 20.39L8.646 18.4085L7.9511 18.3924H4.63287L6.93887 3.77082C6.94603 3.72668 6.96929 3.68552 7.00329 3.65629C7.03729 3.62707 7.08083 3.61096 7.12616 3.61096H12.7212C14.5786 3.61096 15.8604 3.99748 16.5297 4.76038C16.8434 5.11827 17.0433 5.49226 17.1399 5.90383C17.2413 6.33569 17.2431 6.85164 17.1441 7.48093L17.1369 7.52686V7.93008L17.4507 8.10783C17.7149 8.248 17.9249 8.40846 18.0859 8.59217C18.3543 8.89817 18.5279 9.28707 18.6013 9.74815C18.677 10.2224 18.652 10.7866 18.5279 11.4255C18.3847 12.1603 18.1533 12.8003 17.8408 13.3241C17.5532 13.8066 17.187 14.2068 16.7522 14.517C16.337 14.8117 15.8437 15.0354 15.286 15.1785C14.7456 15.3193 14.1294 15.3903 13.4536 15.3903H13.0182C12.7068 15.3903 12.4044 15.5024 12.167 15.7034C11.929 15.9086 11.7716 16.189 11.7232 16.4955L11.6904 16.6739L11.1393 20.1663L11.1142 20.2945C11.1077 20.3351 11.0963 20.3554 11.0796 20.3691C11.0647 20.3816 11.0433 20.39 11.0224 20.39H8.33404Z" fill="#253B80"/>
<path d="M17.7477 7.57312C17.731 7.67989 17.7119 7.78905 17.6904 7.90118C16.9526 11.6894 14.4283 12.9981 11.2043 12.9981H9.56278C9.16851 12.9981 8.83627 13.2844 8.77483 13.6733L7.93439 19.0035L7.69639 20.5144C7.65643 20.7697 7.85327 20.9999 8.11095 20.9999H11.0224C11.3671 20.9999 11.66 20.7494 11.7143 20.4094L11.7429 20.2615L12.2911 16.7828L12.3263 16.5919C12.38 16.2507 12.6734 16.0002 13.0182 16.0002H13.4536C16.2744 16.0002 18.4826 14.855 19.1279 11.5409C19.3976 10.1565 19.258 9.0005 18.5446 8.1875C18.3287 7.94234 18.0608 7.73894 17.7477 7.57312Z" fill="#179BD7"/>
<path d="M16.9759 7.26545C16.8631 7.23264 16.7468 7.20282 16.6275 7.17598C16.5076 7.14973 16.3847 7.12647 16.2583 7.10619C15.8157 7.03461 15.3308 7.00061 14.8112 7.00061H10.4259C10.3179 7.00061 10.2153 7.02507 10.1235 7.06921C9.92128 7.16643 9.77096 7.3579 9.73458 7.59232L8.80168 13.5011L8.77484 13.6734C8.83628 13.2845 9.16852 12.9982 9.56279 12.9982H11.2043C14.4283 12.9982 16.9526 11.689 17.6904 7.9013C17.7125 7.78916 17.731 7.68 17.7477 7.57323C17.561 7.47422 17.3588 7.38952 17.1411 7.31734C17.0874 7.29945 17.0319 7.28215 16.9759 7.26545Z" fill="#222D65"/>
<path d="M9.73456 7.59231C9.77095 7.35789 9.92126 7.16642 10.1235 7.06979C10.2159 7.02565 10.3179 7.00119 10.4259 7.00119H14.8112C15.3307 7.00119 15.8157 7.03519 16.2583 7.10677C16.3847 7.12705 16.5076 7.15031 16.6275 7.17656C16.7468 7.2034 16.8631 7.23322 16.9758 7.26603C17.0319 7.28273 17.0874 7.30003 17.1417 7.31733C17.3594 7.3895 17.5616 7.4748 17.7483 7.57322C17.9678 6.17328 17.7465 5.2201 16.9896 4.35699C16.1551 3.4068 14.649 3 12.7217 3H7.12675C6.73307 3 6.39725 3.28631 6.33641 3.67581L4.00596 18.4477C3.96003 18.7399 4.1855 19.0036 4.48016 19.0036H7.93438L8.80166 13.501L9.73456 7.59231Z" fill="#253B80"/>
</svg>
