<svg width="32" height="32" viewBox="0 0 32 32" fill="none" xmlns="http://www.w3.org/2000/svg">
<rect x="0.5" y="0.5" width="31" height="31" rx="4.5" fill="white"/>
<path d="M12.334 24.3898L12.6459 22.4083L11.951 22.3922H8.63281L10.9388 7.7707C10.946 7.72656 10.9692 7.6854 11.0032 7.65617C11.0372 7.62694 11.0808 7.61084 11.1261 7.61084H16.7211C18.5785 7.61084 19.8604 7.99736 20.5296 8.76026C20.8434 9.11815 21.0432 9.49214 21.1398 9.90371C21.2412 10.3356 21.243 10.8515 21.144 11.4808L21.1368 11.5267V11.93L21.4506 12.1077C21.7148 12.2479 21.9248 12.4083 22.0858 12.5921C22.3543 12.898 22.5278 13.287 22.6012 13.748C22.677 14.2222 22.6519 14.7865 22.5278 15.4253C22.3847 16.1602 22.1532 16.8002 21.8407 17.3239C21.5532 17.8065 21.1869 18.2067 20.7521 18.5169C20.337 18.8116 19.8437 19.0352 19.286 19.1784C18.7455 19.3192 18.1294 19.3901 17.4536 19.3901H17.0181C16.7068 19.3901 16.4044 19.5023 16.167 19.7033C15.929 19.9085 15.7715 20.1888 15.7232 20.4954L15.6904 20.6738L15.1392 24.1662L15.1142 24.2944C15.1076 24.335 15.0963 24.3553 15.0796 24.369C15.0647 24.3815 15.0432 24.3898 15.0223 24.3898H12.334Z" fill="#253B80"/>
<path d="M21.7476 11.573C21.7309 11.6798 21.7118 11.7889 21.6904 11.9011C20.9525 15.6893 18.4282 16.998 15.2042 16.998H13.5627C13.1684 16.998 12.8362 17.2843 12.7748 17.6732L11.9343 23.0034L11.6963 24.5142C11.6564 24.7695 11.8532 24.9998 12.1109 24.9998H15.0223C15.3671 24.9998 15.6599 24.7493 15.7142 24.4093L15.7429 24.2613L16.291 20.7827L16.3262 20.5918C16.3799 20.2506 16.6734 20.0001 17.0181 20.0001H17.4536C20.2743 20.0001 22.4825 18.8548 23.1279 15.5408C23.3975 14.1564 23.2579 13.0004 22.5445 12.1874C22.3286 11.9422 22.0608 11.7388 21.7476 11.573Z" fill="#179BD7"/>
<path d="M20.9759 11.2653C20.8632 11.2325 20.7469 11.2027 20.6276 11.1759C20.5077 11.1496 20.3848 11.1263 20.2584 11.1061C19.8158 11.0345 19.3308 11.0005 18.8113 11.0005H14.426C14.318 11.0005 14.2154 11.0249 14.1235 11.0691C13.9213 11.1663 13.771 11.3578 13.7346 11.5922L12.8017 17.5009L12.7749 17.6733C12.8363 17.2844 13.1686 16.9981 13.5629 16.9981H15.2044C18.4283 16.9981 20.9527 15.6888 21.6905 11.9012C21.7126 11.789 21.7311 11.6799 21.7478 11.5731C21.5611 11.4741 21.3589 11.3894 21.1411 11.3172C21.0875 11.2993 21.032 11.282 20.9759 11.2653Z" fill="#222D65"/>
<path d="M13.7346 11.5923C13.7709 11.3579 13.9213 11.1664 14.1235 11.0698C14.2159 11.0256 14.3179 11.0012 14.4259 11.0012H18.8112C19.3307 11.0012 19.8157 11.0352 20.2583 11.1068C20.3847 11.1271 20.5076 11.1503 20.6275 11.1766C20.7468 11.2034 20.8631 11.2332 20.9758 11.266C21.0319 11.2827 21.0874 11.3 21.1417 11.3173C21.3594 11.3895 21.5616 11.4748 21.7483 11.5732C21.9678 10.1733 21.7465 9.2201 20.9896 8.35699C20.1551 7.4068 18.649 7 16.7217 7H11.1267C10.7331 7 10.3973 7.28631 10.3364 7.67581L8.00596 22.4477C7.96003 22.7399 8.1855 23.0036 8.48016 23.0036H11.9344L12.8017 17.501L13.7346 11.5923Z" fill="#253B80"/>
<rect x="0.5" y="0.5" width="31" height="31" rx="4.5" stroke="#EAEAEA"/>
</svg>
