<svg xmlns="http://www.w3.org/2000/svg" width="32" height="7" viewBox="0 0 33 7"><path style="stroke:none;fill-rule:evenodd;fill:#73f;fill-opacity:1" d="M2.773 1.531c-.707 0-1.28.586-1.28 1.313 0 .726.573 1.312 1.28 1.312s1.282-.586 1.282-1.312S3.48 1.53 2.773 1.53m-1.28 3.063a2.09 2.09 0 0 0 2.624-.051 2.225 2.225 0 0 0 .594-2.617C4.3 1.016 3.336.508 2.379.696 1.418.878.703 1.71.645 2.71q-.005.03-.005.06v2.843c0 .242.191.438.425.438a.43.43 0 0 0 .426-.438Zm12.472-3.57a.444.444 0 0 1 .117.605l-1.637 2.516v1.468a.43.43 0 0 1-.425.438.43.43 0 0 1-.426-.438V4.145L9.957 1.629a.44.44 0 0 1 .121-.602.42.42 0 0 1 .59.118l1.352 2.078 1.351-2.078a.42.42 0 0 1 .594-.122m13.133.364a.43.43 0 0 0-.426-.438.433.433 0 0 0-.43.438v2.925l-2.36-3.19a.42.42 0 0 0-.476-.15.43.43 0 0 0-.293.415v4.226c0 .242.192.438.426.438.238 0 .43-.196.43-.438V2.687l2.363 3.192c.11.148.3.21.473.152a.44.44 0 0 0 .293-.418Zm1.777-.438a.5.5 0 0 0-.496.508v4.086c0 .281.223.508.496.508h.996c1.375 0 2.488-1.14 2.488-2.551 0-1.41-1.113-2.55-2.488-2.55Zm.355 4.227V1.824h.641c.902 0 1.637.75 1.637 1.676s-.735 1.676-1.637 1.676Zm-7.394-3.79a.433.433 0 0 1-.43.438h-1.562v1.164h1.562c.239 0 .43.196.43.438a.433.433 0 0 1-.43.437h-1.562v1.313h1.562c.239 0 .43.195.43.437a.433.433 0 0 1-.43.438H19.56a.576.576 0 0 1-.57-.582V1.53c0-.32.253-.582.57-.582h1.847c.239 0 .43.196.43.438m-6.219.824a.525.525 0 0 1 .504-.387h.07c.2 0 .399.035.586.106l.211.082a.42.42 0 0 0 .543-.258.44.44 0 0 0-.242-.559l-.215-.082a2.4 2.4 0 0 0-.883-.164h-.07c-.7 0-1.285.531-1.367 1.242-.082.707.363 1.368 1.039 1.536l.852.214c.164.04.3.149.382.305.078.152.09.332.035.492l-.015.04a.54.54 0 0 1-.348.331 1.44 1.44 0 0 1-1.176-.18l-.148-.093a.42.42 0 0 0-.582.14.44.44 0 0 0 .129.598l.144.098c.555.36 1.23.46 1.86.277.43-.12.773-.445.926-.875l.011-.035c.14-.394.11-.836-.086-1.207a1.45 1.45 0 0 0-.933-.742l-.848-.211a.52.52 0 0 1-.328-.254.55.55 0 0 1-.05-.414M9.07 5.8a.426.426 0 0 0 .57.21.447.447 0 0 0 .208-.581L7.926 1.2a.425.425 0 0 0-.773 0L5.23 5.43a.447.447 0 0 0 .207.582.42.42 0 0 0 .567-.211l1.535-3.38Zm0 0"/></svg>
