<svg fill="none" xmlns="http://www.w3.org/2000/svg" viewBox="0 0 563 130"><g clip-path="url(#a)"><path d="M22.363 50.68H0v79.305h22.363V50.681Z" fill="#3C6"/><path d="M79.3 50.68c.046 7.521-2.921 14.754-8.251 20.117-5.33 5.364-12.59 8.423-20.194 8.507-13.527.09-26.468 5.47-35.997 14.966C5.329 103.766-.012 116.606 0 129.985h22.363c-.033-7.522 2.942-14.752 8.276-20.114s12.595-8.421 20.2-8.51c13.526-.085 26.466-5.465 35.99-14.962 9.526-9.498 14.859-22.34 14.834-35.718H79.3Z" fill="#009"/><path d="M50.84-.03C37.316.057 24.377 5.44 14.852 14.936 5.33 24.434-.005 37.274.016 50.65h22.347c-.041-7.522 2.929-14.754 8.262-20.118 5.332-5.363 12.594-8.42 20.199-8.506 7.606.081 14.87 3.138 20.204 8.502 5.334 5.364 8.302 12.599 8.257 20.122h22.363c.025-13.375-5.307-26.215-14.828-35.712C77.3 5.44 64.362.058 50.84-.031Z" fill="#39F"/><path d="m389.752 44.512-8.171 9.858a19.202 19.202 0 0 0-13.325-5.587c-4.194 0-6.361 1.423-6.361 4.163 0 2.25 1.548 3.444 6.191 5.22l5.772 2.372c11.515 4.592 16.684 9.26 16.684 17.94a16.14 16.14 0 0 1-1.574 7.7 16.321 16.321 0 0 1-5.035 6.076 26.387 26.387 0 0 1-16.559 4.99c-10.57 0-18.726-3.796-24.607-11.404l8.156-9.735c5.169 5.342 10.833 7.96 16.683 7.96 4.318 0 7.568-1.669 7.568-4.868 0-2.495-1.687-3.444-6.191-5.342l-6.36-2.617c-10.927-4.394-16.204-9.261-16.204-17.925 0-11.036 8.883-17.694 21.852-17.694 8.961-.016 16.065 2.954 21.481 8.893ZM272.505 37.502h-14.888v6.352c-8.218-10.133-28.693-11.097-39.836.903-10.632 11.434-11.143 32.144 0 44.13 11.143 11.984 31.602 11.02 39.82.887v6.352h14.888l.016-58.624Zm-30.953 45.445c-20.475 0-20.506-32.266 0-32.266 19.965 0 20.042 32.266 0 32.266ZM139.502 114.448h14.873V89.82c8.233 10.133 28.708 11.097 39.836-.888 11.127-11.985 10.632-32.695 0-44.144-11.143-11.986-31.618-11.021-39.836-.888v-6.352h-14.857l-.016 76.9Zm30.953-63.721c20.49 0 20.459 32.266 0 32.266-20.042 0-19.949-32.266.031-32.266h-.031ZM562.219 37.196h-14.888v6.352c-8.233-10.133-28.693-11.098-39.836.903-10.632 11.45-11.142 32.144 0 44.13 11.143 11.984 31.603 11.035 39.821.887v6.352h14.888l.015-58.624ZM531.267 82.64c-20.46 0-20.491-32.267 0-32.267 19.964 0 20.041 32.252-.016 32.252l.016.015ZM326.857 37.088l-15.476 38.589-14.532-38.589h-17.117l22.75 55.334c-.711 3.95-3.915 8.342-14.47 8.495v13.853c13.712.934 23.973-6.031 28.801-16.975l27.099-60.753-17.055.046ZM494.619 51.614V36.308a35.242 35.242 0 0 0-5.014-.383 26.929 26.929 0 0 0-10.49 1.785 26.696 26.696 0 0 0-8.948 5.7 26.699 26.699 0 0 0-5.963 9.153 26.48 26.48 0 0 0-1.776 10.746v32.894h16.22V62.528a10.68 10.68 0 0 1 .685-4.34 10.79 10.79 0 0 1 2.375-3.712 10.923 10.923 0 0 1 3.673-2.47 11.03 11.03 0 0 1 4.363-.82c1.634.017 3.264.16 4.875.428ZM426.648 35.695a31.398 31.398 0 0 0-17.321 5.24 30.883 30.883 0 0 0-11.446 13.884 30.497 30.497 0 0 0-1.703 17.835 30.712 30.712 0 0 0 8.617 15.758c12.969 12.322 35.224 10.913 46.599 1.53l-6.191-11.403c-8.511 6.475-29.157 8.74-33.397-6.781h42.451c.402-5.908 1.424-14.434-3.095-22.47-7.491-13.5-21.419-13.593-24.514-13.593Zm-.604 12.95c6.825 0 12.273 4.332 12.768 11.128h-26.79c2.09-6.796 7.429-11.128 14.022-11.128Z" fill="#009"/></g><defs><clipPath id="a"><path fill="#fff" d="M0 0h562.219v130H0z"/></clipPath></defs></svg>