<svg data-name="Layer 1" xmlns="http://www.w3.org/2000/svg" viewBox="0 0 638 199.99"><path d="M.6 39.08c0-4.45 3-6.67 6.68-6.67h65.1c20 2.27 33.93 12.44 35.29 39.18v36.17a50 50 0 0 1-1.86 15.11c-5.18 17.41-17.62 26.06-36.22 27.27H41.67v44.28c0 3.32-2.79 5-6.17 5H6.18c-3.57 0-6.19-2-6.18-6zM42 73.44h17.3a7.13 7.13 0 0 1 7.09 7.11v20.9a7.13 7.13 0 0 1-7.09 7.11H42zm97.76-40.84h45.5c26.63 1.56 41.05 15.54 40.67 44.54v107.38c0 8.33-8.4 14.63-15.6 14.63h-59.64c-18.1 0-30.05-14.1-33-27.93-2.85-13.28-.73-29.35-.73-42.91 0-20.93 13.88-41.69 37-41.69h24.28c7.07-.38 6.75-15.81 0-15.27h-37.99c-3.84 0-6.54-2-6.91-6V37.26c0-3.59 3-4.66 6.42-4.66m25.08 92.84h13.89a6 6 0 0 1 5.95 6v24.18a6 6 0 0 1-5.95 6h-13.89a6 6 0 0 1-5.94-6v-24.21a6 6 0 0 1 5.94-6Zm75.05-85.27V108c1.65 21.27 20.74 37.19 41.51 37.19h19.21c7.94 0 7.46 13.35 0 13.35h-41.56c-4.5 0-6.14 2.36-6.14 6.33v29.86a5.34 5.34 0 0 0 5.61 5.27H297c32.12 0 50.41-15.41 50.4-49.94V37.54c0-3.67-2.33-5.1-4.56-5.1h-32.25c-3 0-4.72 3.24-4.72 5.61v61.66c0 2.65-1.48 4.2-3.86 4.2h-15.27c-3.51 0-5.43-1.9-5.43-5.26V39.11c0-3.94-1.59-6.84-5.95-6.84h-31c-3.54 0-4.43 3.5-4.43 7.9Z" style="fill:#0f0f76;fill-rule:evenodd"/><path d="M363.65 68.05V38.72a5.75 5.75 0 0 1 5.72-5.73h7.06c18.18-3.79 22.51-14.45 33.63-26.44 6.84-7.41 12.84-9.35 17.26-1.51V33H444a5.74 5.74 0 0 1 5.73 5.73v29.33a5.76 5.76 0 0 1-5.73 5.73h-16.69V194a5.73 5.73 0 0 1-5.72 5.72h-29.34a5.72 5.72 0 0 1-5.71-5.72V73.78h-17.17a5.75 5.75 0 0 1-5.72-5.73M571.42 192a7.17 7.17 0 0 1-7.16 7.11h-27.47a7.16 7.16 0 0 1-7.17-7.11V81.74c.21-11.93-23.81-13.78-23.81 0V192a7.16 7.16 0 0 1-7.16 7.11h-27.46A7.17 7.17 0 0 1 464 192V39.11a7.18 7.18 0 0 1 7.18-7.14h27.46a7.16 7.16 0 0 1 7.16 7.14v2.1c16.07-15.36 43.89-12.93 58.7 3 27.87-32 75.63-3.48 73.42 31.58 0 38.76-.35 77.14-.35 116.22a7.16 7.16 0 0 1-7.15 7.11H603a7.16 7.16 0 0 1-7.17-7.11V82.46c-1.56-15.3-24.67-11.72-24.64 0 0 36.42.28 72.84.28 109.58Z" style="fill-rule:evenodd;fill:#01a0c6"/></svg>
