<svg xmlns="http://www.w3.org/2000/svg" xmlns:xlink="http://www.w3.org/1999/xlink" width="32" height="32" viewBox="0 0 32 32"><defs><clipPath id="b"><path d="M0 0h32v32H0z"/></clipPath><clipPath id="c"><path d="M0 0h32v32H0z"/></clipPath><clipPath id="d"><path d="M0 0h32v32H0z"/></clipPath><clipPath id="e"><path d="M0 0h32v32H0z"/></clipPath><clipPath id="f"><path d="M0 0h32v32H0z"/></clipPath><mask id="h"><g filter="url(#a)"><path style="fill:#000;fill-opacity:.968627;stroke:none" d="M0 0h32v32H0z"/></g></mask><mask id="j"><g filter="url(#a)"><path style="fill:#000;fill-opacity:.968627;stroke:none" d="M0 0h32v32H0z"/></g></mask><mask id="l"><g filter="url(#a)"><path style="fill:#000;fill-opacity:.972549;stroke:none" d="M0 0h32v32H0z"/></g></mask><mask id="n"><g filter="url(#a)"><path style="fill:#000;fill-opacity:.996078;stroke:none" d="M0 0h32v32H0z"/></g></mask><mask id="p"><g filter="url(#a)"><path style="fill:#000;fill-opacity:.992157;stroke:none" d="M0 0h32v32H0z"/></g></mask><g id="g" clip-path="url(#b)"><path style="stroke:none;fill-rule:evenodd;fill:#922720;fill-opacity:1" d="M31.906 25.094h.063v2.125a9 9 0 0 1-.438 1.375H30.22a5.8 5.8 0 0 0 1.687-3.5m0 0"/></g><g id="i" clip-path="url(#c)"><path style="stroke:none;fill-rule:evenodd;fill:#8c251e;fill-opacity:1" d="M-.031 25.094c.281 1.793 1.18 3.191 2.687 4.187H.781A5.7 5.7 0 0 1-.03 27.22zm0 0"/></g><g id="k" clip-path="url(#d)"><path style="stroke:none;fill-rule:evenodd;fill:#822019;fill-opacity:1" d="M30.219 28.594h1.312a3.7 3.7 0 0 1-.937 1.437H27.28a6.5 6.5 0 0 0 2.938-1.437m0 0"/></g><g id="m" clip-path="url(#e)"><path style="stroke:none;fill-rule:evenodd;fill:#791c15;fill-opacity:1" d="M.781 29.281h1.875q1.044.628 2.25.782 11.19.077 22.375-.032h3.313a2.15 2.15 0 0 1-.75.75H2.094a4.4 4.4 0 0 1-1.313-1.5m0 0"/></g><g id="o" clip-path="url(#f)"><path style="stroke:none;fill-rule:evenodd;fill:#731912;fill-opacity:1" d="M2.094 30.781h27.75a5.9 5.9 0 0 1-2.625 1.188h-22.5a6.3 6.3 0 0 1-2.625-1.188m0 0"/></g><filter id="a" filterUnits="objectBoundingBox" x="0%" y="0%" width="100%" height="100%"><feColorMatrix in="SourceGraphic" values="0 0 0 0 1 0 0 0 0 1 0 0 0 0 1 0 0 0 1 0"/></filter></defs><path style="stroke:none;fill-rule:evenodd;fill:#f07570;fill-opacity:1" d="M4.719-.031h22.5l.312.125a.42.42 0 0 1-.312.062Q16.063.05 4.906.125c-.168.035-.332.066-.5.094V.094zm0 0"/><path style="stroke:none;fill-rule:evenodd;fill:#e85951;fill-opacity:1" d="M27.219.156a5.2 5.2 0 0 1 1.687.625 2.7 2.7 0 0 0-.5-.062Q28.32.643 28.22.563A10 10 0 0 0 27.156.28Q15.984.171 4.781.25a9 9 0 0 1-.625.094.9.9 0 0 1 .25-.125c.168-.028.332-.059.5-.094Q16.062.05 27.22.156m0 0"/><path style="stroke:none;fill-rule:evenodd;fill:#e75047;fill-opacity:1" d="M27.156.281Q16.125.265 5.094.312q-.469.055-.938.126a1.2 1.2 0 0 0-.437.28q-.487.04-.875.345Q.482 2.65.094 5.469.358 1.878 3.656.438q.241-.1.5-.094A9 9 0 0 0 4.781.25C12.25.2 19.707.207 27.156.281m0 0"/><path style="stroke:none;fill-rule:evenodd;fill:#e7473e;fill-opacity:1" d="M27.156.281c.36.074.711.168 1.063.282q.1.08.187.156a26 26 0 0 0-1.75-.281Q15.97.374 5.281.438a9.6 9.6 0 0 0-1.562.28c.12-.124.27-.218.437-.28q.469-.072.938-.125Q16.125.265 27.156.28m0 0"/><path style="stroke:none;fill-rule:evenodd;fill:#e54135;fill-opacity:1" d="M28.406.719q.253.008.5.062.219.24.532.375c.5.52.976 1.063 1.437 1.625q.815 1.273.969 2.75v.438l-.125-.25c0-.13-.024-.254-.063-.375Q31.116 1.822 27.72.75a8 8 0 0 0-1.563-.187 1610 1610 0 0 0-20.375 0C3.004.653 1.2 2.02.375 4.656c-.059.227-.09.453-.094.688a1.2 1.2 0 0 0-.062.312l-.125.313v-.5q.388-2.82 2.75-4.406.387-.305.875-.344A9.6 9.6 0 0 1 5.28.438q10.688-.064 21.375 0 .884.11 1.75.28m0 0"/><path style="stroke:none;fill-rule:evenodd;fill:#e23a2d;fill-opacity:1" d="M31.656 5.344a1.7 1.7 0 0 1-.25-.657 3698 3698 0 0 0-30.875 0 1.7 1.7 0 0 1-.25.657c.004-.235.035-.461.094-.688C1.199 2.02 3.004.652 5.781.563a1610 1610 0 0 1 20.375 0A8 8 0 0 1 27.72.75q3.398 1.072 3.937 4.594m0 0"/><path style="stroke:none;fill-rule:evenodd;fill:#e54b41;fill-opacity:1" d="M28.906.781q2.438 1.302 2.907 4.063.047.34.03.687a6.2 6.2 0 0 0-.968-2.75 27 27 0 0 0-1.437-1.625 1.5 1.5 0 0 1-.532-.375m0 0"/><path style="stroke:none;fill-rule:evenodd;fill:#ea6861;fill-opacity:1" d="M27.531.094Q31.218 1 31.97 4.719v6.5h-.125V5.53q.016-.346-.032-.687-.468-2.761-2.906-4.063A5.2 5.2 0 0 0 27.22.156a.42.42 0 0 0 .312-.062m0 0"/><path style="stroke:none;fill-rule:evenodd;fill:#ec6a64;fill-opacity:1" d="M4.406.094v.125a.9.9 0 0 0-.25.125 1.2 1.2 0 0 0-.5.094Q.358 1.878.094 5.468v2.25h-.125v-3Q.719 1 4.406.095m0 0"/><path style="stroke:none;fill-rule:evenodd;fill:#de392c;fill-opacity:1" d="M31.656 5.344q.061.18.063.375v3.125h-.188q.03-.3-.062-.563V7.156h-31v1.125a1.3 1.3 0 0 0-.063.563H.22V5.656q.01-.158.062-.312.187-.287.25-.657a3698 3698 0 0 1 30.875 0q.063.37.25.657m0 0"/><path style="stroke:none;fill-rule:evenodd;fill:#d7372a;fill-opacity:1" d="M.219 5.656v3.188h.187q-.03-.3.063-.563h31q.093.264.062.563h.188V5.719c.043.082.082.168.125.25v3.937a100 100 0 0 0-.094 3.438 7 7 0 0 0-.094-.938l-.125-1H26.47c-.012-.394 0-.793.031-1.187a.46.46 0 0 1 .406-.313h.875q.03-.333-.062-.625a64 64 0 0 0-2.875.031 85 85 0 0 0-1 2.094h-7.25a50 50 0 0 1-1-2.062 28 28 0 0 0-2.625-.063v.625q.44-.016.875.031.254.081.25.344v1.125h-.938q-.719-1.535-2.375-1.969-3.029-.134-6.062-.093a1.3 1.3 0 0 0-.063.562H5.72q.333-.01.375.313v1.187H.406c-.043.332-.082.668-.125 1q-.075.452-.094.938a100 100 0 0 0-.093-3.438V5.97zm0 0"/><path style="stroke:none;fill-rule:evenodd;fill:#db382b;fill-opacity:1" d="M31.469 8.281h-31V7.156h31zm0 0"/><path style="stroke:none;fill-rule:evenodd;fill:#fefcfc;fill-opacity:1" d="M16.594 11.406q.785 1.731 1.625 3.438l2 4.125a90 90 0 0 0 1.937-4.125q.866-1.701 1.688-3.438c.324-.703.656-1.398 1-2.094a64 64 0 0 1 2.875-.03v.562q-.427-.03-.813.062a.46.46 0 0 0-.406.313c-.031.394-.043.793-.031 1.187v1a69 69 0 0 0 0 5.813q-.017 1 .031 2 .006.467.469.531.469.048.937.031v.688h-4.625v-.688q.57.035 1.125-.093.417-.194.375-.657.109-4.047.032-8.125a.3.3 0 0 0-.094.125 413 413 0 0 0-3.063 6.188 117 117 0 0 1-1.718 3.25.25.25 0 0 1-.125-.063 122 122 0 0 0-1.72-3.25 454 454 0 0 0-3.187-6.312.3.3 0 0 0-.094-.125q-.046.563-.03 1.125v5.375q-.03 1.037.093 2.062a.64.64 0 0 0 .406.469q.657.048 1.313.031v.688h-4.625v-.688c.394.012.793 0 1.187-.031q.298-.082.531-.281a3 3 0 0 0 .25-.813q.036-.72.094-1.437.18-3.984.063-7.938c.004-.176-.082-.289-.25-.344a6 6 0 0 0-.875-.03V9.28q1.313-.03 2.625.063c.316.695.652 1.383 1 2.062m0 0"/><path style="stroke:none;fill-rule:evenodd;fill:#fefbfb;fill-opacity:1" d="M4.719 9.344a105 105 0 0 1 6.062.094q1.657.433 2.375 1.968c.434 1.434.145 2.696-.875 3.781a5.4 5.4 0 0 1-3.062 1q-1.875.064-3.75 0a7.9 7.9 0 0 1-2.5-.625q2.664.509 5.375.25a5.1 5.1 0 0 0 2.125-.624q.21-.152.375-.344c.457-.414.719-.938.781-1.563q.33-2.238-1.656-3.281a7.2 7.2 0 0 0-2.25-.219v5.625H6.156q.03-2.608-.062-5.187-.042-.323-.375-.313a4 4 0 0 0-1-.062zm0 0"/><path style="stroke:none;fill-rule:evenodd;fill:#efb1af;fill-opacity:1" d="M4.719 9.344v.5c.343-.02.68 0 1 .062H4.656q-.03-.298.063-.562m0 0"/><path style="stroke:none;fill-rule:evenodd;fill:#eeaaa9;fill-opacity:1" d="M27.719 9.281q.093.293.062.625h-.875q.386-.093.813-.062zm0 0"/><path style="stroke:none;fill-rule:evenodd;fill:#d13528;fill-opacity:1" d="M6.094 11.406v3.438H.406q.046.272-.125.437v-2.875c.043-.332.082-.668.125-1zm0 0"/><path style="stroke:none;fill-rule:evenodd;fill:#d23629;fill-opacity:1" d="M10.844 14.844H7.719V9.78a7.2 7.2 0 0 1 2.25.219q1.985 1.043 1.656 3.281a2.36 2.36 0 0 1-.781 1.563m0 0"/><path style="stroke:none;fill-rule:evenodd;fill:#d13529;fill-opacity:1" d="M16.594 11.406h7.25a127 127 0 0 1-1.688 3.438H18.22a125 125 0 0 1-1.625-3.438m0 0"/><path style="stroke:none;fill-rule:evenodd;fill:#d13528;fill-opacity:1" d="M26.469 11.406h5.062l.125 1v2.875c-.117-.11-.156-.258-.125-.437H26.47zm0 0"/><path style="stroke:none;fill-rule:evenodd;fill:#de645d;fill-opacity:1" d="m14.906 11.844-.125 1q-.016-.562.031-1.125a.3.3 0 0 1 .094.125m0 0"/><path style="stroke:none;fill-rule:evenodd;fill:#df574d;fill-opacity:1" d="M-.031 7.719h.125v2.187q.064 2.595-.125 5.125zm0 0"/><path style="stroke:none;fill-rule:evenodd;fill:#d54f45;fill-opacity:1" d="M24.781 20.031V18.22q.03-3.111-.062-6.188.03-.074.093-.125.078 4.078-.03 8.125m0 0"/><path style="stroke:none;fill-rule:evenodd;fill:#cb3529;fill-opacity:1" d="M6.094 10.219q.092 2.58.062 5.187H7.72v-.562h3.125q-.165.192-.375.344-.992.544-2.125.624-2.711.259-5.375-.25a7.9 7.9 0 0 0 2.5.626q1.875.063 3.75 0a5.4 5.4 0 0 0 3.062-1q1.528-1.63.875-3.782h.938v-1.125q.118 3.954-.063 7.938H7.72V16.78H6.094v1.438H.406a9.5 9.5 0 0 1-.187 1.5Q.282 17.5.28 15.28q.171-.167.125-.437h5.688v-4.625m0 0"/><path style="stroke:none;fill-rule:evenodd;fill:#cb3428;fill-opacity:1" d="M14.906 11.844q1.616 3.142 3.188 6.312-1.642.093-3.313.063v-5.375zm0 0"/><path style="stroke:none;fill-rule:evenodd;fill:#cc3428;fill-opacity:1" d="M18.219 14.844h3.937a90 90 0 0 1-1.937 4.125zm0 0"/><path style="stroke:none;fill-rule:evenodd;fill:#cb3428;fill-opacity:1" d="M24.719 12.031q.093 3.077.062 6.188h-3.125a413 413 0 0 1 3.063-6.188m0 0"/><path style="stroke:none;fill-rule:evenodd;fill:#cb3529;fill-opacity:1" d="M26.469 12.406v2.438h5.062c-.031.18.008.328.125.437l.032 4.438q-.11-.75-.157-1.5H26.47a69 69 0 0 1 0-5.813m0 0"/><path style="stroke:none;fill-rule:evenodd;fill:#d84c41;fill-opacity:1" d="M31.844 11.219h.125v7.687q-.188-3.808-.125-7.687m0 0"/><path style="stroke:none;fill-rule:evenodd;fill:#fefbfb;fill-opacity:1" d="M7.719 18.219q-.017 1.031.031 2.062.047.423.469.469.497.048 1 .031v.688H4.656v-.688q.44.017.875-.031a.63.63 0 0 0 .532-.469 33 33 0 0 0 .03-2.062V16.78H7.72zm0 0"/><path style="stroke:none;fill-rule:evenodd;fill:#c43126;fill-opacity:1" d="M31.844 9.906v1.313q-.063 3.879.125 7.687v6.188h-.063q-.076-2.673-.093-5.375a69 69 0 0 0-.125 3.812 24 24 0 0 0-.22-1.687h-31A24 24 0 0 0 .25 23.53a85 85 0 0 1-.031-3.312v-.5q.152-.733.187-1.5h5.688q.016 1.031-.032 2.062a.63.63 0 0 1-.53.469 6 6 0 0 1-.876.031v.688H9.22v-.688q-.503.017-1-.031-.422-.046-.469-.469a33 33 0 0 1-.031-2.062h6.312q-.058.715-.094 1.437a3 3 0 0 1-.25.813 1.4 1.4 0 0 1-.53.281c-.395.031-.794.043-1.188.031v.688h4.625v-.688q-.656.017-1.313-.031a.64.64 0 0 1-.406-.469 14 14 0 0 1-.094-2.062q1.672.03 3.313-.063.88 1.605 1.718 3.25a.25.25 0 0 0 .125.063q.886-1.613 1.72-3.25h3.124v1.812q.042.463-.375.657a3.9 3.9 0 0 1-1.125.093v.688h4.625v-.688q-.469.017-.937-.031-.463-.064-.469-.531a31 31 0 0 1-.031-2h5.062q.046.75.157 1.5l-.032-4.438v-2.875q.076.452.094.938.018-1.733.094-3.438m0 0"/><path style="stroke:none;fill-rule:evenodd;fill:#d03e32;fill-opacity:1" d="M.094 9.906q.076 1.704.094 3.438.017-.486.093-.938v2.875q0 2.218-.062 4.438v.5a2 2 0 0 1-.094-.5l-.062 4.875a.14.14 0 0 1-.094.062v-9.625q.189-2.53.125-5.125m0 0"/><path style="stroke:none;fill-rule:evenodd;fill:#be2f24;fill-opacity:1" d="M.219 20.219A85 85 0 0 0 .25 23.53c.055-.566.125-1.129.219-1.687h31q.138.837.218 1.687.01-1.909.125-3.812.018 2.701.094 5.375a5.8 5.8 0 0 1-1.687 3.5 6.5 6.5 0 0 1-2.938 1.437q-11.184.109-22.375.032a5.7 5.7 0 0 1-2.25-.782Q.392 27.785-.03 25.094v-.438a.14.14 0 0 0 .094-.062l.062-4.875c.012.18.043.343.094.5m0 0"/><path style="stroke:none;fill-rule:evenodd;fill:#b82d22;fill-opacity:1" d="M.531 25.469h30.875c-.054.386-.11.761-.156 1.125q-1.136 2.938-4.281 3.343-11 .064-22 0c-2.098-.269-3.524-1.386-4.281-3.343-.047-.364-.102-.739-.157-1.125m0 0"/><use xlink:href="#g" mask="url(#h)"/><use xlink:href="#i" mask="url(#j)"/><use xlink:href="#k" mask="url(#l)"/><use xlink:href="#m" mask="url(#n)"/><use xlink:href="#o" mask="url(#p)"/></svg>
