<?xml version="1.0" encoding="UTF-8"?>
<svg xmlns="http://www.w3.org/2000/svg" width="32px"
    height="32px" viewBox="0 0 32 32" version="1.1">
    <g transform="matrix(1, 0, 0, 1, 0.023, -23.092751)">
        <path
            d="M 24.933 47.57 C 23.687 47.575 22.49 47.081 21.61 46.199 L 16.809 41.395 C 16.457 41.058 15.901 41.058 15.548 41.395 L 10.731 46.212 C 9.851 47.095 8.655 47.591 7.408 47.588 L 6.468 47.588 L 12.551 53.671 C 14.451 55.566 17.526 55.566 19.426 53.671 L 25.521 47.574 L 24.933 47.57 Z M 7.409 30.595 C 8.656 30.591 9.853 31.087 10.732 31.97 L 15.549 36.788 C 15.898 37.136 16.462 37.136 16.81 36.788 L 21.61 31.989 C 22.489 31.104 23.686 30.608 24.933 30.612 L 25.511 30.612 L 19.416 24.517 C 17.518 22.618 14.439 22.618 12.541 24.517 L 6.468 30.595 L 7.409 30.595 Z"
            fill="#32bcad"></path>
        <path
            d="M 30.553 35.655 L 26.87 31.971 C 26.787 32.005 26.698 32.023 26.608 32.024 L 24.933 32.024 C 24.062 32.026 23.226 32.372 22.609 32.987 L 17.809 37.784 C 16.909 38.682 15.452 38.682 14.552 37.784 L 9.734 32.969 C 9.116 32.354 8.281 32.007 7.409 32.005 L 5.353 32.005 C 5.268 32.003 5.184 31.986 5.106 31.955 L 1.399 35.655 C -0.497 37.554 -0.497 40.63 1.399 42.53 L 5.097 46.228 C 5.176 46.197 5.26 46.18 5.345 46.178 L 7.409 46.178 C 8.281 46.176 9.116 45.829 9.734 45.214 L 14.55 40.397 C 15.421 39.528 16.939 39.528 17.809 40.397 L 22.609 45.196 C 23.226 45.811 24.062 46.157 24.933 46.159 L 26.608 46.159 C 26.698 46.16 26.787 46.178 26.87 46.212 L 30.553 42.529 C 32.452 40.63 32.452 37.552 30.553 35.654"
            fill="#32bcad"></path>
    </g>
</svg>
