<svg width="48" height="48" viewBox="0 0 48 48" fill="none" xmlns="http://www.w3.org/2000/svg">
<path d="M24.022 46.0981C36.2146 46.0981 46.0986 36.2141 46.0986 24.0215C46.0986 11.8289 36.2146 1.94482 24.022 1.94482C11.8294 1.94482 1.94531 11.8289 1.94531 24.0215C1.94531 36.2141 11.8294 46.0981 24.022 46.0981Z" fill="#1E1E1E"/>
<path d="M24 0C10.7456 0 0 10.7456 0 24C0 37.2544 10.7456 48 24 48C37.2544 48 48 37.2544 48 24C48 10.7456 37.2544 0 24 0ZM24 45.3575C12.2007 45.3575 2.64251 35.7993 2.64251 24C2.64251 12.2007 12.2007 2.64251 24 2.64251C35.7993 2.64251 45.3575 12.2007 45.3575 24C45.3575 35.7909 35.7993 45.3575 24 45.3575Z" fill="#FFD948"/>
<path d="M32.3471 18.5854L26.9952 26.5213H32.3471V18.5854ZM34.3792 15.3743V26.5213H36.729V28.5366H34.3792V32.7011H32.3471V28.5366H24.7875V26.3624L32.414 15.3743H34.3792ZM22.538 30.6774V32.7011H11.207V32.6426C11.3157 30.7443 11.8091 29.3561 12.7457 28.2105C13.515 27.2656 14.4433 26.5548 16.3583 25.3589C16.3499 25.3589 17.0356 24.9325 17.2279 24.807C18.2565 24.1464 18.9171 23.6363 19.4356 23.0342C20.0879 22.2732 20.4307 21.4453 20.4307 20.4753C20.4307 18.5854 19.0927 17.2809 17.161 17.2809C14.9199 17.2809 13.7659 18.9868 13.699 21.5541V21.6042H11.6837V21.5541L11.6586 21.0858C11.6586 17.6572 13.8914 15.3743 17.253 15.3743C20.5394 15.3743 22.6802 17.3645 22.6802 20.4335C22.6802 21.9973 22.1199 23.2683 21.0412 24.3973C20.23 25.2419 19.3938 25.8189 17.5039 26.9645C17.4788 26.9812 17.4537 26.998 17.4286 27.0147C17.3366 27.0649 16.9269 27.3074 16.8182 27.3743C15.915 27.9178 15.3715 28.2941 14.8865 28.7541C14.2927 29.3227 13.8997 29.9415 13.7157 30.6774H22.538V30.6774Z" fill="white"/>
<path fill-rule="evenodd" clip-rule="evenodd" d="M0 24C0 10.7456 10.7456 0 24 0C37.2544 0 48 10.7456 48 24C48 24.0096 48 24.0192 48 24.0288H45.3575C45.3575 24.0192 45.3575 24.0096 45.3575 24C45.3575 12.2007 35.7993 2.64251 24 2.64251C12.2007 2.64251 2.64251 12.2007 2.64251 24C2.64251 24.0096 2.64252 24.0192 2.64253 24.0288H1.69342e-05C5.64577e-06 24.0192 0 24.0096 0 24Z" fill="#156DD1"/>
</svg>
