<svg xmlns="http://www.w3.org/2000/svg" width="32" height="32" viewBox="0 0 32 32"><path style="stroke:none;fill-rule:nonzero;fill:#1e1e1e;fill-opacity:1" d="M16.016 30.73c8.129 0 14.714-6.585 14.714-14.714s-6.585-14.72-14.714-14.72-14.72 6.59-14.72 14.72c0 8.129 6.59 14.714 14.72 14.714m0 0"/><path style="stroke:none;fill-rule:nonzero;fill:#ffd948;fill-opacity:1" d="M16 0C7.164 0 0 7.164 0 16s7.164 16 16 16 16-7.164 16-16S24.836 0 16 0m0 30.238c-7.867 0-14.238-6.37-14.238-14.238S8.132 1.762 16 1.762 30.238 8.132 30.238 16c0 7.86-6.37 14.238-14.238 14.238m0 0"/><path style="stroke:none;fill-rule:nonzero;fill:#fff;fill-opacity:1" d="m21.566 12.39-3.57 5.29h3.57Zm1.352-2.14v7.43h1.566v1.343h-1.566v2.778h-1.352v-2.778h-5.043v-1.449l5.086-7.324Zm-7.895 10.203v1.348h-7.55v-.04c.07-1.265.398-2.19 1.023-2.952.516-.633 1.133-1.106 2.41-1.903-.008 0 .45-.285.578-.367.688-.441 1.13-.781 1.473-1.184.434-.507.664-1.058.664-1.707 0-1.257-.894-2.128-2.18-2.128-1.496 0-2.265 1.136-2.308 2.851v.031H7.789v-.03l-.016-.313c0-2.29 1.489-3.809 3.73-3.809 2.188 0 3.618 1.328 3.618 3.371 0 1.043-.375 1.89-1.094 2.645-.539.562-1.097.945-2.359 1.71q-.023.018-.05.036c-.06.031-.333.191-.407.238-.602.363-.965.613-1.285.918-.399.379-.66.793-.781 1.285Zm0 0"/><path style="stroke:none;fill-rule:evenodd;fill:#156dd1;fill-opacity:1" d="M0 16C0 7.164 7.164 0 16 0s16 7.164 16 16v.02h-1.762V16c0-7.867-6.37-14.238-14.238-14.238S1.762 8.132 1.762 16v.02H0zm0 0"/></svg>
