<svg viewBox="0 0 24 24" fill="none" xmlns="http://www.w3.org/2000/svg">
<path d="M10.5079 6.80577C10.2539 8.301 10.0501 9.56081 9.6842 11.5218C10.6736 11.5039 12.921 11.8328 13.4152 9.15281C13.8249 6.92272 12.0002 6.7169 10.5079 6.80577Z" fill="#21262E"/>
<path d="M18.7716 18.0859C19.1141 18.8347 18.769 19.7811 18.0533 20.1625C17.6425 20.3815 17.1739 20.5855 16.7047 20.6993C16.2324 20.8136 15.4646 20.9578 14.4851 20.9973C14.4387 20.9989 14.3923 21 14.3469 21C13.076 21 11.803 20.2864 11.2536 19.4174C11.1118 19.7176 10.5988 20.3196 9.70171 20.6031C9.13455 20.7826 8.4506 21 7.02329 20.9984C5.74458 20.9973 5.01582 20.429 4.62954 19.951C4.01598 19.192 3.9258 18.228 4.0457 17.5785L4.05195 17.5475C4.53363 15.1713 5.19462 10.853 5.49799 8.68877L5.50113 8.66743C5.58454 8.06764 5.669 7.4673 5.71904 6.86323C5.74408 6.55877 5.76074 6.25324 5.76389 5.94776C5.76698 5.65879 5.73939 5.37037 5.74249 5.08142C5.74563 4.80956 5.78993 4.53342 5.92024 4.29308C6.13136 3.90371 6.51868 3.59713 6.9279 3.46361C7.37674 3.31726 7.84642 3.25744 8.31297 3.2051C8.78998 3.15169 9.26745 3.09881 9.74757 3.06356C9.93943 3.04967 10.1312 3.03792 10.3231 3.02831C10.7156 3.00961 11.1092 3 11.5022 3C12.5047 3 13.5134 3.01709 14.5002 3.21631C15.5068 3.41928 16.5228 3.80864 17.3167 4.49016C17.8604 4.95697 18.2926 5.54663 18.6163 6.19131C18.9014 6.7596 19.0167 7.35724 19.0849 7.815C19.1616 8.32719 19.1777 8.84794 19.1339 9.36283C19.1048 9.70466 19.0578 10.0043 18.9906 10.2783C18.8472 10.8615 18.6022 11.4202 18.2618 11.9388C17.8839 12.5151 17.3991 13.0375 16.7803 13.5358C17.1572 14.6073 18.1383 16.702 18.7716 18.0859ZM7.51801 5.19038C7.54146 5.58776 7.54511 5.98941 7.52794 6.38837C7.51018 6.7959 7.47422 7.20236 7.42837 7.60723C7.38302 8.01103 7.32775 8.4132 7.27197 8.81537C7.26569 8.85917 7.25999 8.90297 7.25371 8.94729C7.07751 10.2046 6.89298 11.4608 6.69852 12.7149C6.49473 14.032 6.26585 15.3432 6.03702 16.6561C5.93066 17.2677 5.69245 18.0517 6.01826 18.636C6.30915 19.1573 7.05407 19.2204 7.57329 19.168C9.46505 18.9784 9.76528 18.5661 9.76528 18.5661C9.38842 18.1564 9.71578 16.2876 10.0958 13.7751H11.4402L12.8472 17.9502C12.8472 17.9502 13.2621 19.2438 14.4152 19.1814C15.892 19.1018 16.9784 18.7701 17.1348 18.5869C16.6797 18.3375 15.3801 15.1478 14.6712 12.8052C15.0142 12.6006 15.3468 12.3774 15.6601 12.1274C16.0891 11.785 16.4858 11.3898 16.7902 10.9257C17.0086 10.5924 17.1754 10.2249 17.2708 9.83499C17.3214 9.62936 17.3495 9.41464 17.3673 9.20366C17.3991 8.83247 17.3871 8.45751 17.3318 8.08954C17.2792 7.73593 17.1999 7.34229 17.0394 7.02236C16.7396 6.42523 16.3158 5.90447 15.7382 5.5712C14.7634 5.00932 13.64 4.90196 12.5448 4.84268C11.3579 4.77805 10.1651 4.8165 8.98439 4.95751C8.85254 4.97353 7.51278 5.0889 7.51801 5.19038Z" fill="#21262E"/>
</svg>
