<svg width="32" height="32" viewBox="0 0 32 32" fill="none" xmlns="http://www.w3.org/2000/svg">
<rect x="0.5" y="0.5" width="31" height="31" rx="4.5" fill="white"/>
<path d="M14.5081 10.8059C14.254 12.3011 14.0502 13.5609 13.6843 15.5219C14.6737 15.504 16.9212 15.8329 17.4153 13.1529C17.8251 10.9228 16.0003 10.717 14.5081 10.8059Z" fill="#21262E"/>
<path d="M22.7716 22.0859C23.1141 22.8347 22.769 23.7811 22.0533 24.1625C21.6425 24.3815 21.1739 24.5855 20.7047 24.6993C20.2324 24.8136 19.4646 24.9578 18.4851 24.9973C18.4387 24.9989 18.3923 25 18.3469 25C17.076 25 15.803 24.2864 15.2536 23.4174C15.1118 23.7176 14.5988 24.3196 13.7017 24.6031C13.1345 24.7826 12.4506 25 11.0233 24.9984C9.74458 24.9973 9.01582 24.429 8.62954 23.951C8.01598 23.192 7.9258 22.228 8.0457 21.5785L8.05195 21.5475C8.53363 19.1713 9.19462 14.853 9.49799 12.6888L9.50113 12.6674C9.58454 12.0676 9.669 11.4673 9.71904 10.8632C9.74408 10.5588 9.76074 10.2532 9.76389 9.94776C9.76698 9.65879 9.73939 9.37037 9.74249 9.08142C9.74563 8.80956 9.78993 8.53342 9.92024 8.29308C10.1314 7.90371 10.5187 7.59713 10.9279 7.46361C11.3767 7.31726 11.8464 7.25744 12.313 7.2051C12.79 7.15169 13.2675 7.09881 13.7476 7.06356C13.9394 7.04967 14.1312 7.03792 14.3231 7.02831C14.7156 7.00961 15.1092 7 15.5022 7C16.5047 7 17.5134 7.01709 18.5002 7.21631C19.5068 7.41928 20.5228 7.80864 21.3167 8.49016C21.8604 8.95697 22.2926 9.54663 22.6163 10.1913C22.9014 10.7596 23.0167 11.3572 23.0849 11.815C23.1616 12.3272 23.1777 12.8479 23.1339 13.3628C23.1048 13.7047 23.0578 14.0043 22.9906 14.2783C22.8472 14.8615 22.6022 15.4202 22.2618 15.9388C21.8839 16.5151 21.3991 17.0375 20.7803 17.5358C21.1572 18.6073 22.1383 20.702 22.7716 22.0859ZM11.518 9.19038C11.5415 9.58776 11.5451 9.98941 11.5279 10.3884C11.5102 10.7959 11.4742 11.2024 11.4284 11.6072C11.383 12.011 11.3277 12.4132 11.272 12.8154C11.2657 12.8592 11.26 12.903 11.2537 12.9473C11.0775 14.2046 10.893 15.4608 10.6985 16.7149C10.4947 18.032 10.2659 19.3432 10.037 20.6561C9.93066 21.2677 9.69245 22.0517 10.0183 22.636C10.3092 23.1573 11.0541 23.2204 11.5733 23.168C13.4651 22.9784 13.7653 22.5661 13.7653 22.5661C13.3884 22.1564 13.7158 20.2876 14.0958 17.7751H15.4402L16.8472 21.9502C16.8472 21.9502 17.2621 23.2438 18.4152 23.1814C19.892 23.1018 20.9784 22.7701 21.1348 22.5869C20.6797 22.3375 19.3801 19.1478 18.6712 16.8052C19.0142 16.6006 19.3468 16.3774 19.6601 16.1274C20.0891 15.785 20.4858 15.3898 20.7902 14.9257C21.0086 14.5924 21.1754 14.2249 21.2708 13.835C21.3214 13.6294 21.3495 13.4146 21.3673 13.2037C21.3991 12.8325 21.3871 12.4575 21.3318 12.0895C21.2792 11.7359 21.1999 11.3423 21.0394 11.0224C20.7396 10.4252 20.3158 9.90447 19.7382 9.5712C18.7634 9.00932 17.64 8.90196 16.5448 8.84268C15.3579 8.77805 14.1651 8.8165 12.9844 8.95751C12.8525 8.97353 11.5128 9.0889 11.518 9.19038Z" fill="#21262E"/>
<rect x="0.5" y="0.5" width="31" height="31" rx="4.5" stroke="#EAEAEA"/>
</svg>
