<svg viewBox="0 0 24 24" fill="none" xmlns="http://www.w3.org/2000/svg">
<path d="M17.3752 3.48025C17.4147 3.44086 17.4415 3.39063 17.4524 3.33595C17.4632 3.28126 17.4576 3.22459 17.4361 3.17312C17.4147 3.12166 17.3785 3.07773 17.332 3.0469C17.2856 3.01608 17.231 2.99975 17.1752 3H13.0002L15.4275 5.42675L17.3752 3.48025Z" fill="#F94C43"/>
<path d="M11.5413 9.31545L8.55575 6.3302L5.869 9.01695L3.0825 11.8032C3.05635 11.8293 3.0356 11.8603 3.02144 11.8945C3.00729 11.9286 3 11.9652 3 12.0022C3 12.0392 3.00729 12.0758 3.02144 12.1099C3.0356 12.1441 3.05635 12.1751 3.0825 12.2012L5.869 14.988L8.55575 17.6747L11.5413 14.689L9.05325 12.2012L8.85325 12.0012L9.05325 11.8012L11.5413 9.31545Z" fill="#F94C43"/>
<path d="M15.4288 18.5765L13.0123 20.9935H17.1663C17.222 20.9938 17.2766 20.9775 17.323 20.9466C17.3695 20.9158 17.4057 20.8719 17.4272 20.8204C17.4486 20.769 17.4542 20.7123 17.4434 20.6576C17.4326 20.6029 17.4057 20.5527 17.3663 20.5133L15.4288 18.5765Z" fill="#F94C43"/>
<path d="M20.902 11.8032L18.1155 9.01673L14.9775 5.88023L12.182 3.08348C12.1313 3.03342 12.0635 3.00455 11.9923 3.00273C11.989 3.00273 11.9863 3.00098 11.983 3.00098H6.80802C6.75227 3.00073 6.69771 3.01705 6.65125 3.04788C6.6048 3.0787 6.56856 3.12264 6.54713 3.1741C6.5257 3.22557 6.52004 3.28224 6.53088 3.33692C6.54172 3.39161 6.56857 3.44183 6.60802 3.48123L9.00677 5.88023L11.9923 8.86448L14.931 11.8032L15.131 12.0032L14.931 12.2032L11.9923 15.1402L9.00677 18.1255L6.61927 20.5132C6.57982 20.5526 6.55297 20.6029 6.54213 20.6575C6.53129 20.7122 6.53695 20.7689 6.55838 20.8204C6.57981 20.8718 6.61605 20.9158 6.6625 20.9466C6.70896 20.9774 6.76352 20.9937 6.81927 20.9935H11.9943C12.0314 20.9936 12.0682 20.9865 12.1025 20.9723C12.1368 20.9582 12.168 20.9375 12.1943 20.9112L14.9775 18.1255L18.1155 14.988L20.902 12.2012C20.9282 12.1751 20.9489 12.1441 20.9631 12.1099C20.9772 12.0758 20.9845 12.0392 20.9845 12.0022C20.9845 11.9653 20.9772 11.9287 20.9631 11.8945C20.9489 11.8604 20.9282 11.8294 20.902 11.8032Z" fill="#F94C43"/>
</svg>
