<svg xmlns="http://www.w3.org/2000/svg" width="32px" height="32px" viewbox="1 1 400 500" xml:space="preserve"><g/><path style="fill:#00766c" d="M169.395 245.609c-6.322-1.488-11.738-2.789-11.738-7.182 0-5.904 7.264-6.543 10.39-6.543 3.45-.123 6.877.599 9.983 2.104l8.693-6.392a36.5 36.5 0 0 0-18.595-5.346c-16.457-.023-22.268 8.682-22.268 16.841 0 11.738 10.169 14.179 19.211 16.341 6.322 1.523 11.796 2.824 11.796 7.299 0 2.324-1.371 6.148-10.541 6.148a31 31 0 0 1-17.491-5.602l-3.986 9.123c4.823 3.766 13.191 6.183 21.396 6.183 13.586 0 22.361-6.59 22.361-16.782.012-11.613-10.204-14.019-19.211-16.192m68.989 3.94-.558-.186.511-.279a12.96 12.96 0 0 0 6.973-11.878c0-8.786-7.403-14.028-19.932-14.028H199.53v54.473h27.324c13.598 0 21.071-5.242 21.071-14.749a13.28 13.28 0 0 0-9.541-13.353m-27.068-17.305h12.529c7.891 0 9.542 3.638 9.542 6.659 0 4.382-3.301 6.66-9.542 6.66h-12.529zm0 13.307h12.529m2.127 23.012h-14.656v-13.947h14.656c6.694 0 10.088 2.324 10.088 6.973s-3.301 6.974-10.088 6.974m74.114.011h-29.427v-13.946h25.092v-9.065h-25.092v-13.319h17.119l12.308-9.066h-41.189v54.473h41.189zm57.391 9.077-11.959-17.701c7.043-3.08 11.122-9.147 11.122-17.282 0-12.017-8.891-19.479-23.244-19.479h-22.373v54.461h11.738v-15.434H334.5l10.379 15.434h12.598zm-34.693-45.396h10.46c7.531 0 11.68 3.707 11.68 10.46s-4.149 10.46-11.68 10.46h-10.46zm-207.525 17.817a45 45 0 0 0-.721-8.136l-9.704 7.159v.93c.003 19.179-15.542 34.73-34.721 34.733s-34.73-15.542-34.733-34.721 15.542-34.73 34.721-34.733a34.73 34.73 0 0 1 19.624 6.072l8.775-6.474c-19.383-15.668-47.798-12.656-63.466 6.727s-12.656 47.798 6.727 63.466 47.798 12.656 63.466-6.727a45.12 45.12 0 0 0 10.032-28.296"/><path style="fill:#00766c" d="M105.845 222.481a44.3 44.3 0 0 1 5.404 8.972L70.13 261.752l-17.178-10.774v-12.947L70.13 248.77z"/></svg>
