<svg viewBox="0 0 24 24" fill="none" xmlns="http://www.w3.org/2000/svg">
<path d="M2.00578 15.55L2.21087 15.5271C2.2232 15.6039 2.24825 15.6603 2.28597 15.6964C2.32369 15.7324 2.37459 15.7504 2.43869 15.7504C2.50657 15.7504 2.55774 15.7344 2.59214 15.7024C2.62654 15.6704 2.64378 15.6329 2.64378 15.59C2.64378 15.5626 2.63655 15.5392 2.6221 15.5198C2.60772 15.5005 2.58246 15.4838 2.54647 15.4694C2.52188 15.4601 2.46574 15.4433 2.37817 15.4191C2.26549 15.3882 2.18648 15.35 2.141 15.3047C2.07711 15.241 2.04516 15.1634 2.04516 15.0717C2.04516 15.0128 2.0602 14.9577 2.0903 14.9064C2.12046 14.855 2.16387 14.816 2.22061 14.7891C2.27729 14.7623 2.34576 14.7488 2.42596 14.7488C2.55694 14.7488 2.65558 14.7808 2.7218 14.8449C2.78795 14.9088 2.82275 14.9943 2.82606 15.101L2.61474 15.1102C2.60573 15.0506 2.58637 15.0077 2.55675 14.9815C2.52712 14.9554 2.48257 14.9422 2.42331 14.9422C2.36207 14.9422 2.31414 14.9562 2.27954 14.9842C2.2572 15.0021 2.24607 15.0261 2.24607 15.0562C2.24607 15.0837 2.25647 15.1071 2.27735 15.1267C2.30387 15.1514 2.36843 15.1773 2.47091 15.204C2.57332 15.2309 2.64908 15.2586 2.6982 15.2875C2.74725 15.3163 2.78569 15.3557 2.81347 15.4057C2.84117 15.4558 2.85503 15.5175 2.85503 15.5911C2.85503 15.6578 2.83839 15.7202 2.80518 15.7784C2.77191 15.8367 2.72491 15.8799 2.66413 15.9082C2.60334 15.9365 2.52758 15.9507 2.43684 15.9507C2.3048 15.9507 2.20331 15.9166 2.13259 15.8484C2.06179 15.7801 2.0195 15.6807 2.00578 15.55Z" fill="#0054A6"/>
<path d="M3.07367 15.9297V15.0893H3.27458V15.9297H3.07367ZM3.07367 14.9743V14.7693H3.27458V14.9743H3.07367Z" fill="#0054A6"/>
<path d="M4.21238 15.9297H4.01147V15.4998C4.01147 15.4089 4.00722 15.3501 3.99867 15.3235C3.99019 15.2968 3.97634 15.2759 3.95718 15.2611C3.93802 15.2464 3.91502 15.2389 3.88804 15.2389C3.85358 15.2389 3.82262 15.2496 3.79518 15.2707C3.76774 15.2919 3.74898 15.3198 3.73877 15.3548C3.72863 15.3896 3.72352 15.4541 3.72352 15.5483V15.9297H3.52261V15.0893H3.70907V15.2128C3.77503 15.1166 3.85808 15.0686 3.95824 15.0686C4.00239 15.0686 4.04269 15.0775 4.07928 15.0952C4.1158 15.1129 4.14344 15.1355 4.1622 15.163C4.18096 15.1905 4.19402 15.2216 4.20137 15.2566C4.20873 15.2914 4.21238 15.3414 4.21238 15.4063V15.9297Z" fill="#0054A6"/>
<path d="M4.61862 15.4914C4.61862 15.5808 4.63406 15.6463 4.66495 15.6878C4.69577 15.7294 4.73382 15.7501 4.77903 15.7501C4.82755 15.7501 4.86851 15.7288 4.90199 15.6863C4.93539 15.6437 4.95216 15.5805 4.95216 15.4969C4.95216 15.4097 4.93612 15.3448 4.90404 15.3025C4.87203 15.2602 4.83153 15.2389 4.78254 15.2389C4.73501 15.2389 4.69577 15.2598 4.66495 15.3013C4.63406 15.3429 4.61862 15.4062 4.61862 15.4914ZM4.43845 15.985L4.66628 16.0126C4.67012 16.0439 4.67887 16.0654 4.69272 16.0772C4.71181 16.094 4.74184 16.1024 4.78281 16.1024C4.83517 16.1024 4.87454 16.0937 4.90073 16.0763C4.91836 16.0647 4.93168 16.046 4.94076 16.0201C4.94693 16.0015 4.95004 15.9676 4.95004 15.9179L4.95071 15.7952C4.89145 15.8849 4.81621 15.9297 4.725 15.9297C4.62332 15.9297 4.54279 15.8819 4.4834 15.7862C4.43686 15.7106 4.4136 15.6165 4.4136 15.5039C4.4136 15.3627 4.44409 15.2549 4.50514 15.1804C4.56619 15.1059 4.64208 15.0686 4.73283 15.0686C4.82649 15.0686 4.90371 15.1144 4.96456 15.2057V15.0893H5.15102V15.8447C5.15102 15.9441 5.1436 16.0184 5.12888 16.0675C5.1141 16.1167 5.09342 16.1552 5.06684 16.1832C5.04019 16.2112 5.00466 16.2332 4.96018 16.249C4.91571 16.2649 4.8595 16.2728 4.79149 16.2728C4.66309 16.2728 4.57202 16.2482 4.51833 16.1991C4.46457 16.1499 4.43772 16.0876 4.43772 16.0121C4.43772 16.0046 4.43792 15.9956 4.43845 15.985Z" fill="#0054A6"/>
<path d="M5.59248 14.7693H5.3915V15.9297H5.59248V14.7693Z" fill="#0054A6"/>
<path d="M6.29201 15.4393C6.29062 15.3739 6.27557 15.3242 6.24687 15.2901C6.21823 15.256 6.18337 15.2389 6.14227 15.2389C6.09832 15.2389 6.062 15.257 6.03337 15.2929C6.00466 15.3288 5.99061 15.3776 5.99108 15.4393H6.29201ZM6.28167 15.665L6.48052 15.7018C6.45481 15.7828 6.41417 15.8445 6.35869 15.8869C6.30321 15.9293 6.23375 15.9505 6.15043 15.9505C6.01845 15.9505 5.92081 15.9025 5.85744 15.8066C5.8074 15.7299 5.78241 15.633 5.78241 15.5158C5.78241 15.3761 5.81529 15.2666 5.88098 15.1874C5.94673 15.1082 6.02979 15.0686 6.13021 15.0686C6.24309 15.0686 6.33211 15.1102 6.39734 15.1932C6.46256 15.2764 6.49372 15.4036 6.49087 15.5751H5.98756C5.98895 15.6413 6.00526 15.6927 6.03641 15.7296C6.06757 15.7663 6.10641 15.7847 6.15294 15.7847C6.18456 15.7847 6.21121 15.7753 6.23275 15.7563C6.25429 15.7375 6.27067 15.707 6.28167 15.665Z" fill="#0054A6"/>
<path d="M7.14823 15.9297V14.7693H7.92085V14.9651H7.35955V15.2229H7.88154V15.4186H7.35955V15.734H7.9416V15.9297H7.14823Z" fill="#0054A6"/>
<path d="M8.65989 15.9294V15.8035C8.63225 15.8484 8.596 15.8841 8.55099 15.9105C8.50598 15.9369 8.45852 15.9502 8.40854 15.9502C8.35757 15.9502 8.31196 15.9377 8.27146 15.9129C8.23103 15.888 8.20173 15.8531 8.18364 15.8082C8.16554 15.7633 8.15652 15.7012 8.15652 15.6219V15.089H8.35744V15.4755C8.35744 15.5938 8.36108 15.6663 8.3685 15.6929C8.37586 15.7198 8.38925 15.7408 8.40874 15.7564C8.42823 15.772 8.45289 15.7797 8.48285 15.7797C8.51705 15.7797 8.54774 15.7694 8.57478 15.7485C8.60189 15.7276 8.62039 15.7018 8.6304 15.6708C8.64034 15.64 8.64538 15.5643 8.64538 15.4439V15.089H8.84629V15.9294H8.65989Z" fill="#0054A6"/>
<path d="M9.28762 15.9297H9.08671V15.0893H9.2731V15.2088C9.30498 15.1524 9.33362 15.1149 9.35907 15.0964C9.38453 15.0779 9.41336 15.0686 9.44571 15.0686C9.49131 15.0686 9.53533 15.0827 9.57762 15.1107L9.5165 15.3053C9.4827 15.2811 9.45114 15.2689 9.42211 15.2689C9.39394 15.2689 9.37014 15.2776 9.35059 15.2947C9.33103 15.3119 9.31566 15.3429 9.30445 15.3878C9.29325 15.4327 9.28762 15.5267 9.28762 15.6698V15.9297Z" fill="#0054A6"/>
<path d="M9.86376 15.5095C9.86376 15.5933 9.88159 15.6573 9.91731 15.7018C9.95304 15.7463 9.99705 15.7686 10.0495 15.7686C10.1019 15.7686 10.1458 15.7463 10.1813 15.7018C10.2167 15.6573 10.2345 15.5927 10.2345 15.508C10.2345 15.4254 10.2167 15.3617 10.1813 15.3173C10.1458 15.2728 10.1019 15.2505 10.0495 15.2505C9.99705 15.2505 9.95304 15.2728 9.91731 15.3173C9.88159 15.3617 9.86376 15.4259 9.86376 15.5095ZM9.65867 15.4976C9.65867 15.4234 9.67504 15.3517 9.70785 15.2823C9.7406 15.2129 9.787 15.16 9.84712 15.1234C9.90717 15.0869 9.97432 15.0686 10.0484 15.0686C10.1629 15.0686 10.2567 15.11 10.3299 15.1929C10.403 15.2758 10.4396 15.3806 10.4396 15.5071C10.4396 15.6348 10.4026 15.7406 10.3287 15.8246C10.2549 15.9085 10.1619 15.9505 10.0498 15.9505C9.98048 15.9505 9.91433 15.9329 9.85143 15.8981C9.78846 15.8631 9.7406 15.8119 9.70785 15.7443C9.67504 15.6768 9.65867 15.5946 9.65867 15.4976Z" fill="#0054A6"/>
<path d="M11.305 14.9651V15.2966H11.4201C11.503 15.2966 11.5584 15.2906 11.5864 15.2783C11.6143 15.2661 11.6362 15.2469 11.652 15.2209C11.6679 15.1949 11.6758 15.1646 11.6758 15.13C11.6758 15.0875 11.6647 15.0524 11.6424 15.0248C11.6202 14.9973 11.592 14.9799 11.5579 14.973C11.5328 14.9677 11.4824 14.9651 11.4066 14.9651H11.305ZM11.0938 15.9297V14.7693H11.432C11.5601 14.7693 11.6437 14.7752 11.6826 14.7867C11.7424 14.8041 11.7924 14.8421 11.8328 14.9004C11.8732 14.9587 11.8933 15.0341 11.8933 15.1265C11.8933 15.1977 11.8817 15.2576 11.8585 15.3063C11.8353 15.3547 11.8057 15.3929 11.7699 15.4206C11.7341 15.4484 11.6977 15.4667 11.6607 15.4756C11.6104 15.4868 11.5376 15.4923 11.4424 15.4923H11.305V15.9297H11.0938Z" fill="#0054A6"/>
<path d="M12.5246 15.5268C12.4989 15.5364 12.4584 15.5477 12.403 15.561C12.3476 15.5742 12.3114 15.5872 12.2944 15.5999C12.2683 15.6206 12.2553 15.6468 12.2553 15.6786C12.2553 15.7099 12.2657 15.7369 12.2865 15.7597C12.3074 15.7825 12.3339 15.7939 12.3662 15.7939C12.4022 15.7939 12.4364 15.7806 12.4692 15.7542C12.4933 15.734 12.5092 15.7094 12.5168 15.6802C12.5219 15.6611 12.5246 15.6248 12.5246 15.5712V15.5268ZM12.2553 15.3449L12.0751 15.3081C12.0955 15.2266 12.1307 15.1664 12.1805 15.1273C12.2304 15.0882 12.3045 15.0686 12.4028 15.0686C12.4921 15.0686 12.5587 15.0804 12.6023 15.1038C12.646 15.1275 12.6769 15.1573 12.6946 15.1935C12.7124 15.2297 12.7214 15.2962 12.7214 15.3929L12.7193 15.653C12.7193 15.727 12.7225 15.7817 12.7289 15.8167C12.7353 15.8519 12.7473 15.8895 12.7649 15.9297H12.566C12.5607 15.9152 12.5544 15.8936 12.5467 15.865C12.5434 15.852 12.541 15.8434 12.5397 15.8392C12.5055 15.8763 12.469 15.9041 12.4301 15.9227C12.3912 15.9412 12.3497 15.9505 12.3056 15.9505C12.2278 15.9505 12.1664 15.9269 12.1216 15.8799C12.0768 15.8328 12.0544 15.7733 12.0544 15.7014C12.0544 15.6538 12.0646 15.6114 12.0849 15.5741C12.1054 15.5368 12.134 15.5082 12.1708 15.4884C12.2077 15.4687 12.2608 15.4512 12.3301 15.4364C12.4236 15.4169 12.4885 15.3987 12.5246 15.3817V15.3593C12.5246 15.3159 12.515 15.2851 12.496 15.2666C12.4768 15.2482 12.4408 15.2389 12.3878 15.2389C12.352 15.2389 12.3241 15.2468 12.304 15.2625C12.2839 15.2781 12.2677 15.3056 12.2553 15.3449Z" fill="#0054A6"/>
<path d="M12.8656 15.089H13.0789L13.2602 15.6856L13.4373 15.089H13.6444L13.378 15.8978L13.3293 16.0456C13.3117 16.0948 13.2949 16.1323 13.279 16.1582C13.2631 16.1841 13.2447 16.2052 13.224 16.2212C13.2033 16.2374 13.178 16.25 13.1478 16.2589C13.1175 16.268 13.0834 16.2725 13.0453 16.2725C13.0068 16.2725 12.9689 16.268 12.9319 16.259L12.9132 16.0848C12.9447 16.0918 12.9732 16.0952 12.9984 16.0952C13.0453 16.0952 13.0798 16.0798 13.1023 16.0491C13.1248 16.0183 13.1419 15.9792 13.1539 15.9317L12.8656 15.089Z" fill="#0054A6"/>
<path d="M13.8012 15.0893H13.9855V15.2041C14.0517 15.1138 14.1305 15.0686 14.222 15.0686C14.2705 15.0686 14.3127 15.0797 14.3484 15.1018C14.3842 15.1241 14.4135 15.1577 14.4363 15.2026C14.4695 15.1577 14.5055 15.1241 14.544 15.1018C14.5825 15.0797 14.6236 15.0686 14.6673 15.0686C14.723 15.0686 14.7701 15.0811 14.8086 15.1063C14.8471 15.1313 14.8759 15.1682 14.8949 15.2169C14.9087 15.2528 14.9156 15.3109 14.9156 15.3913V15.9297H14.7147V15.4483C14.7147 15.3648 14.7078 15.3109 14.694 15.2866C14.6755 15.2548 14.647 15.2389 14.6087 15.2389C14.5806 15.2389 14.5542 15.2485 14.5296 15.2675C14.5049 15.2866 14.4872 15.3145 14.4763 15.3512C14.4654 15.3879 14.4599 15.446 14.4599 15.5253V15.9297H14.2589V15.4682C14.2589 15.3862 14.2554 15.3334 14.2483 15.3095C14.2412 15.2857 14.2302 15.2681 14.2152 15.2564C14.2002 15.2448 14.18 15.2389 14.1543 15.2389C14.1235 15.2389 14.0957 15.2482 14.0711 15.2667C14.0464 15.2852 14.0288 15.312 14.0181 15.3468C14.0074 15.3817 14.0021 15.4396 14.0021 15.5205V15.9297H13.8012V15.0893Z" fill="#0054A6"/>
<path d="M15.6077 15.4393C15.6062 15.3739 15.5913 15.3242 15.5625 15.2901C15.5339 15.256 15.499 15.2389 15.4579 15.2389C15.414 15.2389 15.3776 15.257 15.3491 15.2929C15.3204 15.3288 15.3063 15.3776 15.3068 15.4393H15.6077ZM15.5974 15.665L15.7962 15.7018C15.7704 15.7828 15.7299 15.8445 15.6744 15.8869C15.6188 15.9293 15.5494 15.9505 15.466 15.9505C15.3341 15.9505 15.2365 15.9025 15.1731 15.8066C15.1231 15.7299 15.0981 15.633 15.0981 15.5158C15.0981 15.3761 15.131 15.2666 15.1967 15.1874C15.2624 15.1082 15.3454 15.0686 15.4459 15.0686C15.5588 15.0686 15.6477 15.1102 15.713 15.1932C15.7782 15.2764 15.8094 15.4036 15.8066 15.5751H15.3032C15.3046 15.6413 15.3209 15.6927 15.3521 15.7296C15.3832 15.7663 15.422 15.7847 15.4686 15.7847C15.5003 15.7847 15.5268 15.7753 15.5484 15.7563C15.57 15.7375 15.5864 15.707 15.5974 15.665Z" fill="#0054A6"/>
<path d="M16.7005 15.9297H16.4996V15.4998C16.4996 15.4089 16.4953 15.3501 16.4868 15.3235C16.4783 15.2968 16.4645 15.2759 16.4453 15.2611C16.4262 15.2464 16.4031 15.2389 16.3762 15.2389C16.3417 15.2389 16.3107 15.2496 16.2833 15.2707C16.2559 15.2919 16.2371 15.3198 16.2269 15.3548C16.2168 15.3896 16.2117 15.4541 16.2117 15.5483V15.9297H16.0108V15.0893H16.1972V15.2128C16.2631 15.1166 16.3462 15.0686 16.4463 15.0686C16.4905 15.0686 16.5308 15.0775 16.5674 15.0952C16.6039 15.1129 16.6316 15.1355 16.6504 15.163C16.6691 15.1905 16.6821 15.2216 16.6895 15.2566C16.6969 15.2914 16.7005 15.3414 16.7005 15.4063V15.9297Z" fill="#0054A6"/>
<path d="M17.2934 15.0891V15.2664H17.1566V15.6064C17.1566 15.6752 17.1579 15.7154 17.1605 15.7267C17.163 15.7381 17.1688 15.7475 17.1779 15.7549C17.1871 15.7623 17.1981 15.766 17.2111 15.766C17.2294 15.766 17.2557 15.7589 17.2903 15.7447L17.3078 15.9169C17.2615 15.9391 17.2091 15.9502 17.1505 15.9502C17.1146 15.9502 17.0823 15.9435 17.0534 15.93C17.0247 15.9166 17.0035 15.899 16.99 15.8776C16.9765 15.8562 16.9673 15.8273 16.9621 15.7908C16.9578 15.7649 16.9557 15.7125 16.9557 15.6337V15.2664H16.8646V15.0891H16.9557V14.9211L17.1566 14.7898V15.0891H17.2934Z" fill="#0054A6"/>
<path d="M17.4064 15.6926L17.6074 15.658C17.6159 15.701 17.6332 15.7336 17.6593 15.7559C17.6854 15.7782 17.7218 15.7893 17.7688 15.7893C17.8205 15.7893 17.8594 15.7786 17.8855 15.7574C17.9031 15.7425 17.9119 15.7227 17.9119 15.6976C17.9119 15.6807 17.907 15.6665 17.8975 15.6555C17.8874 15.6448 17.865 15.635 17.8301 15.6259C17.6678 15.5861 17.5649 15.5497 17.5215 15.5169C17.4613 15.4715 17.4313 15.4082 17.4313 15.3274C17.4313 15.2543 17.4572 15.1929 17.5093 15.1432C17.5614 15.0935 17.642 15.0686 17.7513 15.0686C17.8554 15.0686 17.9327 15.0872 17.9833 15.1245C18.0339 15.1617 18.0688 15.2168 18.0879 15.2896L17.8994 15.3288C17.8913 15.2961 17.8757 15.271 17.8529 15.2536C17.8301 15.2362 17.7975 15.2275 17.7553 15.2275C17.702 15.2275 17.6638 15.2356 17.6408 15.2522C17.6253 15.2639 17.6177 15.279 17.6177 15.2975C17.6177 15.3135 17.6243 15.3271 17.6377 15.3383C17.6558 15.3531 17.7185 15.3741 17.8255 15.4012C17.9326 15.4283 18.0073 15.4615 18.0498 15.5007C18.0917 15.5405 18.1128 15.596 18.1128 15.6671C18.1128 15.7445 18.0838 15.8111 18.0259 15.8668C17.9679 15.9226 17.8822 15.9505 17.7688 15.9505C17.6658 15.9505 17.5843 15.9273 17.5242 15.8811C17.4642 15.8347 17.4249 15.772 17.4064 15.6926Z" fill="#0054A6"/>
<path d="M19.3355 15.4716L19.1895 15.041L19.0485 15.4716H19.3355ZM19.7229 15.9297H19.4954L19.4051 15.6673H18.9844L18.8983 15.9297H18.6747L19.0792 14.7693H19.3013L19.7229 15.9297Z" fill="#0054A6"/>
<path d="M20.0679 15.9297H19.867V15.0893H20.0534V15.2088C20.0852 15.1524 20.1138 15.1149 20.1393 15.0964C20.1647 15.0779 20.1936 15.0686 20.226 15.0686C20.2716 15.0686 20.3155 15.0827 20.3579 15.1107L20.2968 15.3053C20.2629 15.2811 20.2314 15.2689 20.2024 15.2689C20.1741 15.2689 20.1503 15.2776 20.1308 15.2947C20.1112 15.3119 20.0958 15.3429 20.0847 15.3878C20.0734 15.4327 20.0679 15.5267 20.0679 15.6698V15.9297Z" fill="#0054A6"/>
<path d="M20.9381 15.4393C20.9366 15.3739 20.9216 15.3242 20.8929 15.2901C20.8642 15.256 20.8294 15.2389 20.7884 15.2389C20.7443 15.2389 20.7081 15.257 20.6794 15.2929C20.6507 15.3288 20.6366 15.3776 20.6372 15.4393H20.9381ZM20.9278 15.665L21.1266 15.7018C21.1009 15.7828 21.0603 15.8445 21.0048 15.8869C20.9493 15.9293 20.8798 15.9505 20.7965 15.9505C20.6645 15.9505 20.5668 15.9025 20.5035 15.8066C20.4535 15.7299 20.4285 15.633 20.4285 15.5158C20.4285 15.3761 20.4614 15.2666 20.5271 15.1874C20.5927 15.1082 20.6759 15.0686 20.7763 15.0686C20.8891 15.0686 20.9781 15.1102 21.0434 15.1932C21.1086 15.2764 21.1398 15.4036 21.1369 15.5751H20.6336C20.635 15.6413 20.6513 15.6927 20.6824 15.7296C20.7136 15.7663 20.7525 15.7847 20.799 15.7847C20.8306 15.7847 20.8572 15.7753 20.8788 15.7563C20.9004 15.7375 20.9167 15.707 20.9278 15.665Z" fill="#0054A6"/>
<path d="M21.7598 15.5268C21.7342 15.5364 21.6936 15.5477 21.6382 15.561C21.5828 15.5742 21.5466 15.5872 21.5296 15.5999C21.5035 15.6206 21.4905 15.6468 21.4905 15.6786C21.4905 15.7099 21.5009 15.7369 21.5218 15.7597C21.5426 15.7825 21.5691 15.7939 21.6014 15.7939C21.6374 15.7939 21.6716 15.7806 21.7044 15.7542C21.7285 15.734 21.7444 15.7094 21.752 15.6802C21.7571 15.6611 21.7598 15.6248 21.7598 15.5712V15.5268ZM21.4905 15.3449L21.3103 15.3081C21.3307 15.2266 21.3659 15.1664 21.4157 15.1273C21.4656 15.0882 21.5397 15.0686 21.638 15.0686C21.7273 15.0686 21.7939 15.0804 21.8375 15.1038C21.8812 15.1275 21.912 15.1573 21.9298 15.1935C21.9476 15.2297 21.9566 15.2962 21.9566 15.3929L21.9545 15.653C21.9545 15.727 21.9577 15.7817 21.9641 15.8167C21.9705 15.8519 21.9825 15.8895 22 15.9297H21.8012C21.7959 15.9152 21.7896 15.8936 21.7819 15.865C21.7787 15.852 21.7762 15.8434 21.7749 15.8392C21.7407 15.8763 21.7042 15.9041 21.6653 15.9227C21.6264 15.9412 21.5849 15.9505 21.5408 15.9505C21.463 15.9505 21.4016 15.9269 21.3568 15.8799C21.312 15.8328 21.2896 15.7733 21.2896 15.7014C21.2896 15.6538 21.2998 15.6114 21.3202 15.5741C21.3406 15.5368 21.3692 15.5082 21.406 15.4884C21.4429 15.4687 21.496 15.4512 21.5653 15.4364C21.6588 15.4169 21.7237 15.3987 21.7598 15.3817V15.3593C21.7598 15.3159 21.7502 15.2851 21.7312 15.2666C21.7121 15.2482 21.676 15.2389 21.623 15.2389C21.5872 15.2389 21.5593 15.2468 21.5392 15.2625C21.5192 15.2781 21.5029 15.3056 21.4905 15.3449Z" fill="#0054A6"/>
<path d="M6.4421 10.2099H5.07404C5.07404 9.96033 5.04773 9.79293 4.99523 9.70769C4.91376 9.58147 4.68912 9.51833 4.32137 9.51833C3.96416 9.51833 3.72746 9.55473 3.61192 9.62738C3.49645 9.70039 3.43859 9.85895 3.43859 10.1032C3.43859 10.3243 3.48983 10.4699 3.59244 10.5397C3.66588 10.5893 3.76305 10.6184 3.88409 10.627L4.15997 10.6486C4.75123 10.6923 5.12057 10.7231 5.26779 10.7405C5.73544 10.7929 6.07442 10.9311 6.28474 11.1551C6.45026 11.3298 6.54895 11.5582 6.58044 11.8403C6.59887 12.009 6.60801 12.2 6.60801 12.4121C6.60801 12.9009 6.56606 13.259 6.48201 13.486C6.32968 13.9023 5.98752 14.1653 5.45505 14.2757C5.232 14.3224 4.89083 14.3458 4.43187 14.3458C3.66568 14.3458 3.13182 14.2951 2.83035 14.1932C2.46035 14.0684 2.21642 13.8155 2.09837 13.4347C2.03261 13.2228 2 12.8698 2 12.3757H3.36799C3.36799 12.4308 3.36819 12.4729 3.36819 12.502C3.36819 12.7656 3.43633 12.9352 3.57248 13.0107C3.66681 13.0628 3.78069 13.0902 3.91452 13.0934H4.41749C4.67408 13.0934 4.83793 13.0788 4.90853 13.0495C5.03434 12.9945 5.11686 12.906 5.1563 12.7836C5.17725 12.7082 5.18759 12.6106 5.18759 12.4913C5.18759 12.2239 5.09983 12.0612 4.9245 12.0029C4.85888 11.9799 4.5539 11.9477 4.00944 11.9069C3.57215 11.8723 3.26843 11.8389 3.09841 11.8066C2.65052 11.7135 2.35204 11.5219 2.2031 11.2312C2.07212 10.9841 2.00669 10.6103 2.00669 10.1103C2.00669 9.72957 2.04202 9.42432 2.11282 9.19458C2.18361 8.96493 2.29769 8.79053 2.45511 8.67124C2.68572 8.48815 2.98076 8.38058 3.33996 8.34845C3.6389 8.3195 3.97046 8.30469 4.33516 8.30469C4.90932 8.30469 5.3185 8.34145 5.56243 8.41417C6.15774 8.59196 6.45536 9.08996 6.45536 9.90824C6.45536 9.97544 6.45092 10.0758 6.4421 10.2099Z" fill="#0054A6"/>
<path d="M13.9283 11.3691H14.8451C15.1357 11.3574 15.3125 11.3325 15.3761 11.2936C15.463 11.2406 15.5214 11.1342 15.5504 10.9747C15.569 10.8686 15.5782 10.7107 15.5782 10.5011C15.5782 10.2441 15.5598 10.0538 15.5228 9.92945C15.4699 9.7552 15.3432 9.64911 15.1426 9.61057C15.1029 9.60482 15.0079 9.60166 14.8575 9.60166H13.9283V11.3691ZM12.4579 14.3459V8.27271H15.1975C15.5733 8.27271 15.86 8.30682 16.057 8.3749C16.5076 8.53183 16.81 8.85322 16.9648 9.33877C17.0447 9.5937 17.0847 9.97735 17.0847 10.4898C17.0847 11.1058 17.0404 11.5485 16.9527 11.8181C16.7769 12.3511 16.4152 12.6581 15.869 12.7376C15.8048 12.7495 15.5315 12.7602 15.0492 12.7688L14.805 12.7778H13.9283V14.3459H12.4579Z" fill="#0054A6"/>
<path d="M19.9316 12.1131L19.2427 9.48053L18.574 12.1131H19.9316ZM20.2237 13.2962H18.2576L17.9934 14.3459H16.4721L18.1137 8.27271H20.3319L21.9936 14.3459H20.5042L20.2237 13.2962Z" fill="#0054A6"/>
<path d="M10.4282 9.12672C11.0348 9.12672 11.576 9.43735 11.9319 9.92371L12.2488 9.16827C11.7531 8.64751 11.0784 8.32642 10.3342 8.32642C9.17552 8.32642 8.18436 9.10425 7.77757 10.2053H7.15946L6.79449 11.075H7.58965C7.58369 11.1557 7.57984 11.2364 7.57984 11.3187C7.57984 11.4184 7.58448 11.517 7.59336 11.6143H7.19373L6.82883 12.4843H7.79653C8.21492 13.5575 9.19369 14.3109 10.3342 14.3109C10.9089 14.3109 11.4423 14.1195 11.8839 13.7925V12.7263C11.5282 13.1763 11.0081 13.4607 10.4282 13.4607C9.75042 13.4607 9.15418 13.0722 8.80698 12.4843H10.8334L11.1983 11.6143H8.50883C8.49497 11.5097 8.48755 11.4027 8.48755 11.2937C8.48755 11.2199 8.491 11.1471 8.49736 11.075H11.4244L11.7893 10.2053H8.7505C9.08657 9.56062 9.71197 9.12672 10.4282 9.12672Z" fill="#FFC20D"/>
<path d="M8.70978 10.2315H11.7895L11.7682 10.1943L11.4035 11.0641L11.4246 11.049H8.47639L8.47414 11.0727C8.46757 11.1461 8.46426 11.2205 8.46426 11.2938C8.46426 11.4014 8.47155 11.5106 8.4858 11.6183L8.48885 11.6406H11.1985L11.1773 11.6035L10.8123 12.4733L10.8336 12.4583H8.7636L8.78753 12.4985C9.1527 13.1175 9.76617 13.4865 10.4284 13.4865C10.9914 13.4865 11.5284 13.2159 11.9018 12.7436L11.8606 12.7264V13.7926L11.8709 13.7711C11.4169 14.1071 10.8857 14.2849 10.3344 14.2849C9.23463 14.2849 8.24704 13.574 7.81838 12.4739L7.81215 12.4583H6.82901L6.85048 12.4956L7.21525 11.6255L7.19391 11.6406H7.61939L7.6168 11.6118C7.60799 11.5135 7.60342 11.4147 7.60342 11.3188C7.60342 11.2452 7.60666 11.166 7.61323 11.0773L7.61528 11.049H6.79467L6.81581 11.0862L7.18085 10.2164L7.15964 10.2315H7.79352L7.79942 10.2153C8.00026 9.67173 8.3419 9.20822 8.7872 8.87467C9.24331 8.53331 9.77843 8.35273 10.3344 8.35273C11.0463 8.35273 11.7205 8.64899 12.2328 9.18729L12.2276 9.15723L11.9108 9.91281L11.9503 9.90736C11.5751 9.3947 11.0205 9.10072 10.4284 9.10072C9.7319 9.10072 9.08138 9.51899 8.7302 10.1923L8.70978 10.2315ZM10.4284 9.15288C11.0064 9.15288 11.5477 9.43994 11.9137 9.94029L11.9374 9.97264L11.9534 9.93499L12.2703 9.17941L12.2774 9.16231L12.2652 9.14935C11.7441 8.60184 11.0584 8.30042 10.3344 8.30042C9.76902 8.30042 9.22495 8.48402 8.76095 8.83149C8.30789 9.17071 7.96043 9.64248 7.7562 10.1954L7.77775 10.1792H7.14459L7.13829 10.1943L6.77346 11.0641L6.75788 11.1013H7.58983L7.56643 11.073C7.55973 11.1633 7.55655 11.2435 7.55655 11.3188C7.55655 11.4165 7.56099 11.517 7.57007 11.617L7.59354 11.5884H7.17906L7.17276 11.6035L6.80773 12.4733L6.79228 12.5104H7.7967L7.77523 12.4947C8.21145 13.6138 9.216 14.3371 10.3344 14.3371C10.895 14.3371 11.4352 14.1564 11.897 13.8144L11.9074 13.8067V12.6571L11.8664 12.7092C11.502 13.1702 10.9779 13.4345 10.4284 13.4345C9.78194 13.4345 9.18319 13.0739 8.82671 12.4699L8.80715 12.5104H10.8485L10.8548 12.4956L11.2198 11.6255L11.2354 11.5884H8.509L8.53233 11.6106C8.51842 11.5053 8.51126 11.3988 8.51126 11.2938C8.51126 11.2222 8.5145 11.1496 8.521 11.0777L8.49754 11.1013H11.4398L11.446 11.0862L11.8109 10.2164L11.8266 10.1792H8.75068L8.77083 10.2184C9.11352 9.56121 9.74873 9.15288 10.4284 9.15288Z" fill="#0054A6"/>
</svg>
