<svg xmlns="http://www.w3.org/2000/svg" viewBox="0 0 1600 1600"><defs><clipPath clipPathUnits="userSpaceOnUse" id="a"><path d="M0 966.667h1200V0H0Z"/></clipPath></defs><g clip-path="url(#a)" transform="matrix(1.33333 0 0 -1.33333 10.036 1461.56)"><path d="M113.968 410.534c-6.177 0-12.25.655-18.053 1.95-5.931 1.295-11.338 3.411-16.132 6.264-4.838 2.891-8.802 6.746-11.756 11.414-2.962 4.713-4.517 10.323-4.637 16.654v1.1h38.208l.068-1.002c.209-3.07 1.608-5.714 4.225-8.109 1.93-1.746 5.138-2.604 9.386-2.604 2.99 0 5.706.587 8.346 1.807 2.348 1.13 3.485 2.68 3.485 4.796 0 2.522-1.04 4.253-3.261 5.353-2.415 1.234-8.024 2.62-16.722 4.141-14.486 2.44-25.143 6.22-31.56 11.256-6.544 5.142-9.902 12.257-9.902 21.18 0 6.218 1.518 11.593 4.517 15.938a31.487 31.487 0 0 0 11.578 10.15 56.477 56.477 0 0 0 15.39 5.18c11.682 2.182 23.424 1.934 33.737.104 5.512-.97 10.672-2.68 15.414-5.119 4.815-2.417 8.742-5.82 11.68-10.127 2.94-4.344 4.615-9.675 4.87-15.894l.097-1.129h-36.563l-.045 1.04c-.142 2.717-1.406 4.893-3.926 6.64-2.17 1.822-4.817 2.703-7.853 2.703-3.111 0-5.73-.52-7.763-1.52-1.817-.89-2.67-2.539-2.67-5.083 0-.972.322-1.702.927-2.282.74-.693 1.728-1.332 2.887-1.92 1.758-.707 6.125-1.732 12.916-3.004 8.922-1.536 15.72-3.087 20.23-4.653 7.38-2.34 13.379-5.774 17.732-10.254 4.449-4.548 6.746-10.835 6.746-18.665 0-6.7-1.52-12.588-4.472-17.422-2.962-4.819-6.963-8.65-11.884-11.33-4.84-2.667-10.344-4.616-16.371-5.799-5.975-1.15-12.303-1.754-18.87-1.754M214.712 413.033h-39.958v102.042h39.958zm0 110.61h-39.958v28.912h39.958zM334.856 413.034h-39.951v53.41c0 6.468-.793 11.28-2.319 14.314-1.36 2.839-4.397 4.23-9.063 4.23a15.52 15.52 0 0 1-4.966-.82c-1.608-.534-3.097-1.423-4.495-2.672-1.436-1.197-2.52-3.027-3.358-5.4-.838-2.438-1.286-5.555-1.286-9.26v-53.802h-39.959v102.042h38.635v-11.121c7.322 9.012 17.919 13.613 31.702 13.613 9.745 0 18.128-3.065 24.844-8.997 6.768-6.054 10.216-14.772 10.216-25.961ZM455.836 482.902a58.862 58.862 0 0 1-7.972 17.46c-3.612 5.248-8.197 9.471-13.567 12.536-5.467 3.102-11.689 4.668-18.607 4.668-4.532 0-8.48-.437-11.71-1.205-3.269-.768-6.014-1.86-8.258-3.177-2.146-1.333-3.949-2.719-5.332-4.089a59.22 59.22 0 0 1-3.089-3.5v9.486h-38.679V380.717h39.996v41.727c2.82-3.41 6.334-6.182 10.44-8.245 4.921-2.432 10.32-3.667 16.064-3.667 8.062 0 15.025 1.581 20.671 4.653 5.684 3.095 10.238 7.281 13.596 12.491a51.391 51.391 0 0 1 7.03 17.001c1.354 6.098 2.035 12.468 2.035 18.883 0 6.497-.89 12.98-2.618 19.342m-36.07-28.294c-.493-2.959-1.398-5.692-2.655-8.102-1.3-2.476-3.186-4.486-5.57-6.015-2.387-1.498-5.326-2.251-8.662-2.251-3.342 0-6.282.753-8.675 2.25-2.363 1.53-4.263 3.577-5.572 6.13a30.646 30.646 0 0 0-2.67 8.094c-.5 2.83-.785 5.986-.785 9.23 0 3.417.284 6.64.785 9.54.54 3.012 1.46 5.73 2.67 8.1 1.31 2.462 3.21 4.487 5.572 5.993 2.386 1.53 5.295 2.274 8.675 2.274 3.381 0 6.275-.745 8.661-2.274 2.408-1.506 4.27-3.56 5.594-6.098a29.181 29.181 0 0 0 2.632-8.086c.531-2.846.83-6 .83-9.449 0-3.283-.299-6.415-.83-9.336M574.597 455.507c0 20.064-4.727 35.56-14.053 46.123-9.37 10.563-23.947 15.939-43.466 15.939-7.748 0-14.98-1.386-21.628-4.141-6.582-2.718-12.37-6.641-17.074-11.588-4.757-4.938-8.428-10.743-10.994-17.271-2.468-6.514-3.776-13.516-3.776-20.804 0-8.327 1.421-15.886 4.225-22.474 2.775-6.588 6.813-12.258 11.936-16.85 5.116-4.54 11.226-8.026 18.166-10.368 6.88-2.349 14.412-3.538 22.443-3.538 11.951 0 22.743 2.733 32.151 8.116 9.416 5.421 16.11 13.545 19.871 24.153l.516 1.461h-37.438l-.307-.505c-1.339-2.138-3.328-3.727-6.02-4.84-2.827-1.183-5.789-1.785-8.997-1.785-5.407 0-9.76 1.68-12.848 4.961-2.91 3.118-4.652 7.221-5.28 12.31h72.573Zm-36.354 18.702h-38.47l.224 1.31c1.877 11.677 8.78 17.626 20.521 17.626 5.101 0 9.41-1.732 12.722-5.143 3.335-3.418 5.003-7.687 5.003-12.717zM771.734 404.369H761.25c-2.094 0-3.829 1.792-3.829 4.028v78.174c0 24.89-4.592 40.288-27.334 40.288-19.647 0-35.397-18.777-40.184-36.448-1.607-5.481-2.37-11.46-2.37-18.837v-63.177c0-2.236-1.705-4.028-3.829-4.028H673.24c-2.16 0-3.866 1.792-3.866 4.028v78.174c0 25.524-4.383 40.288-26.602 40.288-20.574 0-36.526-19.5-41.664-38.767-1.256-4.547-1.862-9.946-1.862-16.518v-63.177c0-2.236-1.743-4.028-3.852-4.028H584.91c-2.124 0-3.85 1.792-3.85 4.028v129.44c0 2.213 1.726 4.02 3.85 4.02h10.485c2.11 0 3.852-1.807 3.852-4.02v-16.948c10.71 14.305 28.194 24.07 43.526 24.07 22.22 0 35.74-9.185 41.178-28.121 8.346 13.432 24.866 28.12 46.136 28.12 40.826 0 45.53-31.087 45.53-54.502v-82.06c0-2.235-1.743-4.027-3.882-4.027M856.783 544.963c-38.366 0-68.46-31.2-68.46-71.075 0-40.724 30.094-72.625 68.46-72.625 38.402 0 68.452 31.901 68.452 72.625 0 39.874-30.05 71.075-68.452 71.075m0-127.264c-29.07 0-51.88 24.695-51.88 56.19 0 30.665 22.81 54.653 51.88 54.653 29.137 0 51.887-23.988 51.887-54.654 0-31.494-22.75-56.189-51.887-56.189M862.045 556.898H851.08c-1.421 0-2.67.768-3.388 2.048a4.2 4.2 0 0 0 .052 4.013l16.745 28.76c.673 1.176 1.952 1.92 3.26 1.92h14c1.437 0 2.768-.835 3.464-2.168a4.123 4.123 0 0 0-.352-4.163l-19.7-28.731c-.731-1.054-1.884-1.68-3.117-1.68M985.264 404.369h-9.992c-1.593 0-3 1-3.582 2.522l-49.135 129.47c-.472 1.258-.344 2.65.389 3.757a3.817 3.817 0 0 0 3.193 1.739h11.226c1.592 0 2.999-1.01 3.589-2.56l38.38-101.491c.323-.852.637-1.725.92-2.606.293.859.615 1.702.884 2.538l38.44 101.559c.56 1.55 1.982 2.56 3.583 2.56h10.97c1.272 0 2.469-.662 3.224-1.74.703-1.106.815-2.498.382-3.733L988.809 406.89c-.584-1.521-1.983-2.522-3.545-2.522M1059.554 566.743h-12.438c-2.138 0-3.866 1.792-3.866 3.998v18.92c0 2.184 1.728 3.976 3.866 3.976h12.438c2.146 0 3.882-1.792 3.882-3.976v-18.92c0-2.206-1.736-3.998-3.882-3.998M1058.59 404.369h-10.448c-2.161 0-3.926 1.792-3.926 4.028v129.44c0 2.213 1.765 4.02 3.926 4.02h10.448c2.102 0 3.852-1.807 3.852-4.02v-129.44c0-2.236-1.75-4.028-3.852-4.028M1113.172 403.356c-6.618 0-28.27 2.229-28.27 31.193v155.114c0 2.183 1.72 3.975 3.845 3.975h10.485c2.1 0 3.836-1.792 3.836-3.975V437.892c0-16.181 7.636-16.181 10.897-16.181 1.63 0 3.148.21 3.148.21 1.272.175 2.259-.21 3.126-.94a4.175 4.175 0 0 0 1.317-3.034v-10.081c0-1.898-1.257-3.51-3-3.923-.695-.128-2.99-.587-5.384-.587"/><path d="M273.566 547.77c29.316 59.548 61.946 118.787 91.853 166.897 14.135 22.708 28.995 45.754 44.147 68.507 10.455 15.608 19.265 28.558 25.906 38.014-32.712-38.368-117.138-141.056-192.927-263.26v-9.788h26.87c1.36 0 2.73-.113 4.15-.37" fill="#225aa8"/><path d="M850.24 372.998c-11.286-28.37-22.527-54.834-33.453-78.626-10.583-23.19-21.898-46.875-33.602-70.495-7.718-15.585-14.374-28.625-19.415-38.315 20.59 31.742 65.02 102.696 110.161 190.35a92.455 92.455 0 0 0-23.072-2.936Z"/><path d="m850.856 375.152-2.004.022-.24-.647c-11.413-28.625-22.736-55.271-33.706-79.213-10.583-23.198-21.89-46.883-33.572-70.464-17.343-34.995-29.429-57.14-29.466-57.38l1.705-1.114c.613.858 61.497 90.303 123.323 210.754l1.174 2.206-2.34-.678c-8.048-2.32-16.394-3.486-24.875-3.486M981.309 871.797l-.501.452a62.625 62.625 0 0 1-3.682 2.864c-11.593 8.428-26.292 13.05-43.775 13.78-1.642.07-3.3.115-4.991.115h-.001c-14.06 0-30.005-2.383-47.645-7.083-12.385-3.299-25.6-7.73-39.616-13.32-.596-.237-1.218-.489-1.834-.738-60.315-24.2-211.708-95.609-425.761-319.428l.217-.014a2429.688 2429.688 0 0 1-8.142-8.463c1.21.12 2.415.195 3.582.233 4.225 3.591 8.742 7.408 13.58 11.49 19.379 16.292 39.085 32.366 58.694 47.688l2.33 1.845c6.826 5.401 13.88 10.966 21.099 16.7 31.54 25.073 65.456 52.013 100.61 76.046 27.972 19.118 56.727 36.398 85.7 49.425 43.008 19.32 66.83 27.798 80.957 31.754 9.056 2.536 14.139 3.22 17.7 3.693.743.108 1.417.2 2.043.294.63.097 1.214.2 1.773.331.295.064.593.107.889.17a105.93 105.93 0 0 0 20.658 2.256c.346.003.693.028 1.038.028 16.292 0 31.982-3.867 46.197-10.848 27.598-13.558 49.608-38.87 59.676-70.417a124.563 124.563 0 0 0 3.39-12.9 154.246 154.246 0 0 0 2.919-24.145c.245-5.693.228-11.762-.045-18.583-1.391-25.9-5.64-52.395-12.916-80.96l.005.001a26.05 26.05 0 0 0 3.562.32c.212.004.423.025.636.025h11.133c.692 0 1.377-.034 2.06-.084 7.538-.553 14.5-4.119 19.464-9.898a28.726 28.726 0 0 0 1.235-1.528v-.002c23.148 61.445 39.324 118.485 48.105 169.57 12.668 73.528 5.788 123.777-20.343 149.331M722.735 377.64c-17.725-11.182-22.189-13.562-39.876-24.064a9216.07 9216.07 0 0 1-21.942-13.154c-63.86-38.232-143.247-85.876-218.19-108.929-80.09-24.636-99.96-25.419-109.489-25.848-1.459-.045-2.692-.098-3.859-.226a117.125 117.125 0 0 0-11.48-.564c-60.3 0-110.206 46.537-116.106 108.274-1.354 13.862-.793 26.548 1.862 43.661 1.055 6.22 2.386 12.544 3.821 18.891v1.754h-62.342l-.217-1.754c-13.387-30.989-24.403-60.85-32.756-88.88-22.175-74.335-20.746-127.265 4.188-157.29l-.038-.053 1.802-1.934.053.03c16.251-16.067 40.654-24.222 72.685-24.222 22.235 0 48.582 3.953 78.22 11.731 177.282 46.5 371.122 183.822 472.54 262.576Z" fill="#225aa8"/></g></svg>