<svg viewBox="0 0 24 24" fill="none" xmlns="http://www.w3.org/2000/svg">
<path fill-rule="evenodd" clip-rule="evenodd" d="M21.1685 8.78629V15.9198H23V8.43752L21.1685 8.78629Z" fill="#862165"/>
<path fill-rule="evenodd" clip-rule="evenodd" d="M18.4949 8.78629L20.3252 8.43752V15.9198H18.4949V8.78629Z" fill="#862165"/>
<path fill-rule="evenodd" clip-rule="evenodd" d="M15.8877 15.9197V10.4471H17.719V15.9197H15.8877Z" fill="#862165"/>
<path fill-rule="evenodd" clip-rule="evenodd" d="M15.9001 8.96139C15.9001 8.43058 16.3046 8 16.8026 8C17.3015 8 17.7056 8.43058 17.7056 8.96139C17.7056 9.49251 17.3015 9.92216 16.8026 9.92216C16.3046 9.92216 15.9001 9.49251 15.9001 8.96139Z" fill="#862165"/>
<path fill-rule="evenodd" clip-rule="evenodd" d="M14.8547 10.3668C13.1627 10.4249 12.3031 11.2336 12.3031 12.841V15.9197H14.1496V13.4087C14.1496 12.4467 14.2681 12.0342 15.3406 11.9949V10.3952C15.1603 10.3543 14.8547 10.3668 14.8547 10.3668Z" fill="#862165"/>
<path fill-rule="evenodd" clip-rule="evenodd" d="M9.88644 10.4409C9.84597 10.5501 9.55327 11.4322 8.84353 12.3462V8.43752L6.95361 8.83562V15.9198H8.84353V13.7297C9.39079 14.604 9.6612 15.9198 9.6612 15.9198H11.9245C11.7007 14.9287 10.7214 13.1018 10.7214 13.1018C11.6007 11.9146 11.9863 10.6504 12.0479 10.4409H9.88644Z" fill="#862165"/>
<path fill-rule="evenodd" clip-rule="evenodd" d="M3.78442 11.2211C3.55302 11.2052 3.0169 11.1681 3.0169 10.6544C3.0169 10.0346 3.78824 10.0346 4.07771 10.0346C4.58684 10.0346 5.24556 10.1945 5.71657 10.3447C5.71657 10.3447 5.97876 10.4434 6.20195 10.5439L6.22277 10.5501V8.85248L6.19491 8.84343C5.63885 8.63641 4.99333 8.43752 3.79586 8.43752C1.73145 8.43752 1 9.71739 1 10.8149C1 11.4469 1.25457 12.9357 3.61813 13.1071C3.81903 13.1202 4.35105 13.153 4.35105 13.6838C4.35105 14.1222 3.91552 14.3801 3.1832 14.3801C2.38077 14.3801 1.60182 14.1628 1.12904 13.9558V15.7037C1.83703 15.902 2.63534 16 3.57091 16C5.5887 16 6.49318 14.7888 6.49318 13.5879C6.49318 12.2269 5.48165 11.3423 3.78442 11.2211Z" fill="#862165"/>
</svg>
