<?xml version="1.0" encoding="UTF-8"?>
<svg xmlns="http://www.w3.org/2000/svg" width="32px" height="32px" viewBox="0 0 32 32" version="1.1">
<g id="surface1">
<path style=" stroke:none;fill-rule:nonzero;fill:rgb(9.019608%,11.372549%,14.509804%);fill-opacity:1;" d="M 15.90625 0.214844 C 7.550781 0.214844 0.707031 6.660156 0.0546875 14.847656 L 8.582031 18.371094 C 9.300781 17.875 10.175781 17.585938 11.113281 17.585938 C 11.199219 17.585938 11.28125 17.589844 11.363281 17.59375 L 15.15625 12.097656 C 15.15625 12.074219 15.15625 12.046875 15.15625 12.023438 C 15.15625 8.714844 17.847656 6.023438 21.152344 6.023438 C 24.460938 6.023438 27.152344 8.714844 27.152344 12.023438 C 27.152344 15.328125 24.460938 18.019531 21.152344 18.019531 C 21.109375 18.019531 21.0625 18.019531 21.019531 18.019531 L 15.609375 21.875 C 15.613281 21.945312 15.617188 22.019531 15.617188 22.089844 C 15.617188 24.574219 13.597656 26.589844 11.113281 26.589844 C 8.933594 26.589844 7.113281 25.035156 6.699219 22.976562 L 0.601562 20.457031 C 2.492188 27.132812 8.625 32.027344 15.90625 32.027344 C 24.691406 32.027344 31.8125 24.90625 31.8125 16.121094 C 31.8125 7.335938 24.691406 0.214844 15.90625 0.214844 "/>
<path style=" stroke:none;fill-rule:nonzero;fill:rgb(9.019608%,11.372549%,14.509804%);fill-opacity:1;" d="M 10.023438 24.351562 L 8.070312 23.542969 C 8.414062 24.261719 9.015625 24.867188 9.808594 25.199219 C 11.527344 25.914062 13.511719 25.097656 14.226562 23.378906 C 14.574219 22.546875 14.578125 21.628906 14.234375 20.792969 C 13.890625 19.960938 13.242188 19.308594 12.40625 18.960938 C 11.582031 18.617188 10.695312 18.628906 9.917969 18.921875 L 11.9375 19.757812 C 13.203125 20.285156 13.804688 21.742188 13.273438 23.011719 C 12.746094 24.277344 11.289062 24.878906 10.023438 24.351562 "/>
<path style=" stroke:none;fill-rule:nonzero;fill:rgb(9.019608%,11.372549%,14.509804%);fill-opacity:1;" d="M 25.152344 12.023438 C 25.152344 9.816406 23.359375 8.023438 21.152344 8.023438 C 18.949219 8.023438 17.15625 9.816406 17.15625 12.023438 C 17.15625 14.226562 18.949219 16.019531 21.152344 16.019531 C 23.359375 16.019531 25.152344 14.226562 25.152344 12.023438 M 18.15625 12.015625 C 18.15625 10.355469 19.503906 9.011719 21.160156 9.011719 C 22.820312 9.011719 24.164062 10.355469 24.164062 12.015625 C 24.164062 13.671875 22.820312 15.015625 21.160156 15.015625 C 19.503906 15.015625 18.15625 13.671875 18.15625 12.015625 "/>
</g>
</svg>
