<svg viewBox="0 0 24 24" fill="#2B1911" xmlns="http://www.w3.org/2000/svg">
<path fill-rule="evenodd" clip-rule="evenodd" d="M3 5C2.44772 5 2 5.44772 2 6V8H22V6C22 5.44771 21.5523 5 21 5H3ZM24 6C24 4.34315 22.6569 3 21 3H3C1.34315 3 0 4.34315 0 6V18C0 19.6569 1.34315 21 3 21H21C22.6569 21 24 19.6569 24 18V6ZM22 11H2V18C2 18.5523 2.44772 19 3 19H21C21.5523 19 22 18.5523 22 18V11Z"/>
<path d="M4 12.5C3.44772 12.5 3 12.9477 3 13.5V13.5C3 14.0523 3.44772 14.5 4 14.5H11C11.5523 14.5 12 14.0523 12 13.5V13.5C12 12.9477 11.5523 12.5 11 12.5H4Z"/>
<path d="M4 15.5C3.44772 15.5 3 15.9477 3 16.5V16.5C3 17.0523 3.44772 17.5 4 17.5H16C16.5523 17.5 17 17.0523 17 16.5V16.5C17 15.9477 16.5523 15.5 16 15.5H4Z"/>
</svg>
