<svg version="1.1" viewBox="0 0 360 280" xmlns="http://www.w3.org/2000/svg">
<path d="M0 0 C5.15456023 2.21675885 10.45451212 3.99100026 15.77099609 5.77832031 C21.30075474 7.65576879 26.66982204 9.79226732 32.0480957 12.06591797 C37.79964183 14.46130645 43.60920816 16.70748011 49.41894531 18.95727539 C51.53719829 19.77853249 53.65335826 20.60504091 55.76953125 21.43164062 C57.12097004 21.9560481 58.47252798 22.48014862 59.82421875 23.00390625 C61.03609863 23.47481689 62.24797852 23.94572754 63.49658203 24.4309082 C66.18336387 25.56454234 66.18336387 25.56454234 68.37890625 25.453125 C68.37890625 26.113125 68.37890625 26.773125 68.37890625 27.453125 C69.47371307 27.65041199 69.47371307 27.65041199 70.59063721 27.85168457 C73.18391737 28.41106514 75.51164592 29.144129 77.99121094 30.07617188 C78.87693787 30.40742065 79.76266479 30.73866943 80.67523193 31.07995605 C81.62416321 31.44028931 82.57309448 31.80062256 83.55078125 32.171875 C84.54660217 32.5486438 85.5424231 32.9254126 86.56842041 33.31359863 C88.68073417 34.11505 90.79218511 34.91877858 92.90283203 35.72460938 C96.07187037 36.93140527 99.24660802 38.12220812 102.421875 39.3125 C119.41872889 45.75083237 135.30174593 52.77987918 149.37890625 64.453125 C150.23871094 65.16082031 151.09851563 65.86851563 151.984375 66.59765625 C169.87069665 81.98821209 182.00905052 102.87436499 188.37890625 125.453125 C188.86230469 127.14695313 188.86230469 127.14695313 189.35546875 128.875 C196.30955029 158.64106864 191.0136648 190.97689996 175.13793945 216.97753906 C161.46349497 238.53870836 143.57981383 254.11584529 120.37890625 264.453125 C118.79722656 265.17628906 118.79722656 265.17628906 117.18359375 265.9140625 C80.539436 281.37770963 44.36916872 271.98828996 9.38085938 257.84057617 C-1.46401272 253.47196762 -12.38277606 249.30174214 -23.30859375 245.140625 C-24.21060516 244.79646545 -25.11261658 244.45230591 -26.04196167 244.09771729 C-28.67571901 243.09325964 -31.31026901 242.09092219 -33.9453125 241.08984375 C-34.77965317 240.77251282 -35.61399384 240.45518188 -36.47361755 240.12823486 C-40.2900691 238.68401482 -44.11139489 237.26786281 -47.96728516 235.93212891 C-48.62493362 235.7037886 -49.28258209 235.4754483 -49.9601593 235.2401886 C-51.69585561 234.64315353 -53.4353123 234.0570814 -55.17504883 233.47192383 C-57.62109375 232.453125 -57.62109375 232.453125 -58.62109375 230.453125 C-60.6199855 230.11320899 -62.6203019 229.78167194 -64.62109375 229.453125 C-67.54088207 228.53231151 -70.38498313 227.42824584 -73.23828125 226.3203125 C-74.05426788 226.00538849 -74.87025452 225.69046448 -75.71096802 225.36599731 C-77.43179983 224.69845576 -79.15133347 224.02755914 -80.86962891 223.35351562 C-83.47478699 222.33644331 -86.08843806 221.34383299 -88.703125 220.3515625 C-98.60430593 216.52194556 -107.157933 213.07785221 -113.12109375 203.828125 C-115.87737029 197.45037301 -115.73273979 190.18764097 -113.7734375 183.60546875 C-110.48571556 176.21645301 -105.6194716 172.05247614 -98.18359375 169.078125 C-86.3999263 167.01081492 -77.04951728 170.93969537 -66.421875 175.828125 C-60.58015492 178.50183534 -54.67248416 180.94198192 -48.68359375 183.265625 C-47.68908203 183.67232422 -46.69457031 184.07902344 -45.66992188 184.49804688 C-37.41124532 187.68269532 -28.69168708 189.45845943 -20.24609375 185.890625 C-15.22159414 182.92826377 -11.79045253 178.84499523 -9.24609375 173.640625 C-7.724436 165.88017047 -8.02492099 159.71292136 -11.9609375 152.70703125 C-17.45414808 145.24919006 -27.08281291 142.12577246 -35.62109375 139.453125 C-36.61109375 139.453125 -37.60109375 139.453125 -38.62109375 139.453125 C-38.62109375 138.793125 -38.62109375 138.133125 -38.62109375 137.453125 C-39.35328125 137.32035156 -40.08546875 137.18757812 -40.83984375 137.05078125 C-45.60815184 136.02613078 -50.06498909 134.17288004 -54.62109375 132.453125 C-55.33297852 132.18612793 -56.04486328 131.91913086 -56.77832031 131.64404297 C-66.67193617 127.93034046 -76.51391203 124.1076951 -86.30859375 120.140625 C-95.15380546 116.55861906 -104.05322224 113.13691585 -112.98046875 109.765625 C-114.08739578 109.34722855 -115.19432281 108.92883209 -116.33479309 108.49775696 C-121.96408988 106.37130587 -127.59591773 104.25189067 -133.23120117 102.14135742 C-135.3495096 101.34310332 -137.46775749 100.54468855 -139.5859375 99.74609375 C-140.5487262 99.38801636 -141.51151489 99.02993896 -142.503479 98.66101074 C-161.56121308 91.45394362 -161.56121308 91.45394362 -167.22265625 81.69140625 C-169.85540835 75.59489371 -169.62902993 68.41513829 -168 62.01171875 C-165.33405257 55.95705592 -160.11631307 51.16937462 -154.2265625 48.27734375 C-151.31949966 47.35771817 -148.91768809 47.15271466 -145.87109375 47.140625 C-144.906875 47.12386719 -143.94265625 47.10710938 -142.94921875 47.08984375 C-134.87418733 47.97127324 -127.10088471 51.75303213 -119.5859375 54.69140625 C-118.5490126 55.09465622 -117.51208771 55.49790619 -116.44374084 55.91337585 C-113.14789372 57.19541996 -109.85317433 58.48033004 -106.55859375 59.765625 C-102.23487716 61.45051077 -97.91063809 63.13404783 -93.5859375 64.81640625 C-92.53352875 65.22593536 -91.48112 65.63546448 -90.39682007 66.05740356 C-84.77770838 68.24015547 -79.1505633 70.39617078 -73.5 72.49609375 C-62.140356 76.71944707 -50.88134815 81.20621167 -39.60253906 85.63964844 C-25.08342333 91.34712267 -25.08342333 91.34712267 -10.5234375 96.94921875 C-9.30906006 97.41255615 -8.09468262 97.87589355 -6.84350586 98.35327148 C1.19990489 101.09859806 7.65862476 101.10606137 15.37890625 97.453125 C20.83384888 94.35372578 23.31711117 89.20578781 25.37890625 83.453125 C26.49080987 77.23893468 25.27643817 71.02201653 22.37890625 65.453125 C17.03038506 59.25168348 10.46914663 56.4206524 2.94140625 53.640625 C1.86189697 53.22321045 0.7823877 52.8057959 -0.32983398 52.37573242 C-3.75431811 51.05203426 -7.18635546 49.74996321 -10.62109375 48.453125 C-15.14964022 46.7433027 -19.66879021 45.01136701 -24.18359375 43.265625 C-25.210896 42.88623779 -26.23819824 42.50685059 -27.29663086 42.1159668 C-35.37908087 38.98708249 -42.00534202 35.00702146 -46.12109375 27.140625 C-48.7627349 20.23713613 -48.6016743 13.11335697 -45.65625 6.33203125 C-42.66536109 0.90328572 -38.73366146 -3.35413464 -33.015625 -5.890625 C-21.18512974 -9.13291408 -10.54590641 -4.98042806 0 0 Z " fill="#000000" transform="translate(168.62109375,6.546875)"/>
</svg>
