<svg width="20" height="20" viewBox="0 0 20 20" xmlns="http://www.w3.org/2000/svg">
  <path fill-rule="evenodd" clip-rule="evenodd" d="M3.31317 8.49362C2.82011 8.30435 2.57384 7.75121 2.76311 7.25815C2.95238 6.76509 3.50552 6.51881 3.99858 6.70808L7.55779 8.07434C7.56174 8.07591 7.5657 8.07746 7.56967 8.07899L9.35521 8.76439C9.84827 8.95366 10.4014 8.70738 10.5907 8.21432C10.7799 7.72126 10.5337 7.16812 10.0406 6.97885L10.0404 6.97877C10.0405 6.97874 10.0405 6.9787 10.0406 6.97866L8.25506 6.29326C7.762 6.104 7.51572 5.55086 7.70499 5.0578C7.89426 4.56473 8.4474 4.31846 8.94046 4.50773L14.1921 6.52363C14.2046 6.52845 14.217 6.53352 14.2293 6.53881C14.2519 6.54711 14.2745 6.55559 14.2971 6.56425C16.7624 7.5106 17.9938 10.2763 17.0474 12.7416C16.1011 15.2069 13.3354 16.4383 10.8701 15.4919C10.8226 15.4737 10.7756 15.4548 10.729 15.4353C10.7065 15.4285 10.684 15.4208 10.6616 15.4122L5.51344 13.436C5.02038 13.2467 4.77411 12.6936 4.96338 12.2005C5.15265 11.7075 5.70579 11.4612 6.19885 11.6504L7.98415 12.3358C7.98411 12.3356 7.98407 12.3355 7.98403 12.3354L7.9844 12.3355C8.47746 12.5248 9.0306 12.2785 9.21987 11.7854C9.40914 11.2924 9.16287 10.7392 8.66981 10.55L7.86633 10.2416C7.86634 10.2415 7.86634 10.2415 7.86635 10.2414L3.31317 8.49362Z" fill="black"/>
</svg>
