<svg viewBox="0 0 24 24" fill="none" xmlns="http://www.w3.org/2000/svg">
<path fill-rule="evenodd" clip-rule="evenodd" d="M8.11932 20.1236C11.7352 21.853 16.1978 20.9972 18.8937 17.7849C22.0892 13.9774 21.5929 8.3013 17.7852 5.10693L15.2539 8.12307C18.2286 10.6186 18.6164 15.0531 16.12 18.0277C14.1293 20.3993 10.8518 21.1913 8.11932 20.1235" fill="url(#paint0_linear_287_2615)"/>
<path fill-rule="evenodd" clip-rule="evenodd" d="M8.11932 20.1235C11.7352 21.8529 16.1978 20.9971 18.8937 17.7848C19.2185 17.3981 19.5104 16.9849 19.7664 16.5495C20.1921 13.9038 19.2558 11.1074 17.0535 9.25976C16.5079 8.80138 15.9026 8.41912 15.2543 8.12341C18.2287 10.619 18.6162 15.0532 16.1199 18.0275C14.1294 20.3994 10.852 21.1913 8.11932 20.1235Z" fill="url(#paint1_linear_287_2615)"/>
<path fill-rule="evenodd" clip-rule="evenodd" d="M15.8808 3.87627C12.2649 2.14708 7.80235 3.00292 5.10635 6.2152C1.91085 10.0227 2.40716 15.6988 6.21485 18.8932L8.74624 15.877C5.77147 13.3815 5.38368 8.94694 7.88016 5.97237C9.87071 3.60048 13.1481 2.80862 15.8807 3.87637" fill="url(#paint2_linear_287_2615)"/>
<path fill-rule="evenodd" clip-rule="evenodd" d="M15.8808 3.87627C12.2649 2.14708 7.80238 3.00292 5.10637 6.2152C4.78156 6.60194 4.48967 7.01516 4.23373 7.45055C3.80796 10.0962 4.74427 12.8925 6.94663 14.7403C7.49225 15.1986 8.0975 15.5809 8.74585 15.8766C5.77149 13.381 5.3839 8.94684 7.88018 5.97237C9.87073 3.60048 13.1481 2.80862 15.8807 3.87637" fill="url(#paint3_linear_287_2615)"/>
<defs>
<linearGradient id="paint0_linear_287_2615" x1="18.5289" y1="14.5851" x2="14.7049" y2="6.96734" gradientUnits="userSpaceOnUse">
<stop stop-color="#EF2131"/>
<stop offset="1" stop-color="#FECF2C"/>
</linearGradient>
<linearGradient id="paint1_linear_287_2615" x1="15.0288" y1="8.1233" x2="8.32529" y2="19.7283" gradientUnits="userSpaceOnUse">
<stop stop-color="#FBC52C"/>
<stop offset="0.264" stop-color="#F87130"/>
<stop offset="0.561" stop-color="#EF52E2"/>
<stop offset="1" stop-color="#661EEC"/>
</linearGradient>
<linearGradient id="paint2_linear_287_2615" x1="5.64951" y1="9.51899" x2="9.31457" y2="16.973" gradientUnits="userSpaceOnUse">
<stop stop-color="#78F6D8"/>
<stop offset="0.266" stop-color="#77D1F6"/>
<stop offset="0.554" stop-color="#70A4F3"/>
<stop offset="1" stop-color="#661EEC"/>
</linearGradient>
<linearGradient id="paint3_linear_287_2615" x1="9.11917" y1="15.8766" x2="15.7705" y2="4.31143" gradientUnits="userSpaceOnUse">
<stop stop-color="#536EED"/>
<stop offset="0.247" stop-color="#54C3EC"/>
<stop offset="0.564" stop-color="#64D769"/>
<stop offset="1" stop-color="#FECF2C"/>
</linearGradient>
</defs>
</svg>
