<svg data-bx-workspace="master" xmlns="http://www.w3.org/2000/svg" width="32" height="32" viewBox="0 0 32 32">
  <defs>
    <clipPath id="a">
      <path d="M24 8h7.984v7H24Zm0 0"/>
    </clipPath>
  </defs>
  <path style="stroke:none;fill-rule:nonzero;fill:#243d78;fill-opacity:1" d="M0 32h32V0H0zm0 0"/>
  <g clip-path="url(#a)" transform="translate(-12.335 6.527)scale(1.32597)">
    <path style="stroke:none;fill-rule:nonzero;fill:#fcc80f;fill-opacity:1" d="M26.52 14.46c-.082-.007-.13-.054-.176-.093q-.875-.749-1.75-1.504c-.153-.133-.149-.222.015-.32 1.782-1.074 3.11-2.598 4.207-4.352.153-.238.168-.242.399-.078q.936.676 1.87 1.344c.122.086.169.168.087.313-1.067 1.976-2.496 3.582-4.496 4.617-.055.031-.113.054-.156.074"/>
  </g>
  <path style="stroke:none;fill-rule:nonzero;fill:#fcc80f;fill-opacity:1" d="M12.973 12.09a.82.82 0 0 0 .55-.227c.383-.34.563-.781.575-1.285.007-.238-.051-.473-.293-.582-.242-.11-.446 0-.63.156a1.5 1.5 0 0 0-.37.528c-.149.32-.18.664-.239 1.004-.058.32-.035.355.286.398.035.004.07.004.12.008m-.097-2.328c.2-.168.395-.301.629-.364.601-.164 1.105.145 1.242.758.184.828-.226 1.817-.937 2.258-.395.246-.817.297-1.262.191-.117-.03-.168-.015-.188.122-.039.293-.109.582-.152.87-.027.169-.098.231-.262.227-.476-.011-.46.047-.37-.441.222-1.254.495-2.5.671-3.766.02-.144.086-.21.234-.195.036.004.07 0 .102 0 .309 0 .309 0 .293.34m9.684.176a1 1 0 0 0-.563.148c-.52.332-.77.82-.781 1.434-.008.199.031.406.234.503.215.098.41.016.578-.128a1.7 1.7 0 0 0 .504-.79c.106-.3.137-.617.203-.925.051-.242.047-.242-.175-.242m-.106 2.21c-.094.09-.16.157-.234.22-.352.292-.742.39-1.164.194-.422-.195-.54-.585-.532-1.019.028-1.273 1.051-2.531 2.813-2.102.191.043.18.157.152.301-.113.621-.258 1.238-.34 1.867-.03.266-.05.536-.058.801-.004.145-.055.18-.184.184-.422.011-.422.015-.453-.446M15.934 10.7c.324 0 .64 0 .937-.137.203-.09.293-.247.242-.415-.062-.199-.23-.226-.406-.214-.332.02-.668.347-.773.765m.437 1.95c-.726.003-1.176-.419-1.226-1.149-.063-.93.515-1.852 1.308-2.09a1.3 1.3 0 0 1 .66-.02c.336.079.578.274.645.637.066.371-.031.684-.348.907-.289.207-.62.265-.96.308-.145.02-.29.04-.434.031-.184-.011-.223.051-.196.227.059.39.305.602.711.574.207-.015.41-.066.598-.164.125-.066.183-.031.215.11.086.363.07.398-.278.515a2 2 0 0 1-.695.113m2.465 0a1.6 1.6 0 0 1-.652-.125c-.157-.062-.223-.16-.137-.324a.6.6 0 0 0 .055-.14c.035-.145.109-.176.246-.106q.23.128.496.133c.222.004.41-.113.468-.29.063-.183-.011-.358-.214-.503-.09-.063-.192-.113-.282-.18-.597-.433-.558-1.242.086-1.597.383-.207.785-.2 1.192-.055.12.047.156.125.11.246-.024.066-.056.133-.071.2-.04.14-.106.183-.242.113a.74.74 0 0 0-.465-.082c-.16.023-.293.093-.344.265s.023.305.16.399c.121.085.246.16.363.246.31.226.457.523.399.914-.059.383-.281.636-.621.781a1.2 1.2 0 0 1-.547.105m9.402-4.23c-.761 1.164-1.636 2.191-2.71 3.035.222-.402.437-.805.632-1.219.305-.656.57-1.332.766-2.03.058-.204.144-.235.328-.157.312.133.637.242.984.371M24.8 11.879c.454-1.137.731-2.309.864-3.516.016-.125.07-.175.195-.152.168.035.34.07.512.094.09.015.113.05.086.136-.363 1.16-.777 2.293-1.484 3.29-.055.082-.059.082-.172.148m.664 2.219c-.352-.172-.703-.34-1.055-.512l-.148-.074c-.227-.114-.235-.219-.032-.38.043-.034.075-.054.125-.015.383.309.766.613 1.149.922Zm.492.496-2.133-.606c-.09-.023-.152-.074-.12-.183.038-.133.12-.075.194-.047q1.03.417 2.059.836m0 0" transform="translate(-12.335 6.527)scale(1.32597)"/>
  <path style="stroke:none;fill-rule:nonzero;fill:#fefefe;fill-opacity:1" d="M9.914 11.125c0-.215-.016-.418-.101-.61-.13-.269-.344-.386-.641-.374-.27.011-.442.16-.531.402-.125.348-.114.703.023 1.047.106.262.336.387.64.375.274-.012.446-.164.544-.418a1.2 1.2 0 0 0 .066-.422m-.637-1.672c.84.004 1.43.664 1.422 1.582-.008 1-.605 1.621-1.55 1.613-.801-.003-1.38-.668-1.372-1.566.008-.988.606-1.637 1.5-1.629m-1.824 2.281c.04.594-.152.961-.941 1.008-.899.055-1.578-.379-1.782-1.125-.277-1.008.344-1.969 1.364-2.113.281-.04.566-.059.843.043.325.121.47.344.473.691 0 .164-.035.211-.187.117-.254-.16-.54-.21-.836-.207-.59.008-.965.422-.938 1.043.028.582.43.934 1.016.887.172-.015.27-.082.262-.277-.004-.188-.008-.38-.032-.567-.008-.05-.05-.129.043-.129.168 0 .336-.035.496.036.137.062.22.168.22.328zm-4.903.102c.079.55-.112.777-.644.777q-1.114.008-1.129-1.12a83 83 0 0 1 .004-1.927c0-.32.16-.55.43-.699.226-.125.32-.058.32.2 0 .453 0 .453.434.453.097 0 .2-.02.289.003.105.024.27-.101.312.086.067.282-.05.504-.273.563-.18.047-.363.027-.54.015-.183-.015-.237.04-.23.231.02.344.004.691.008 1.035.004.328.153.473.473.48.191.005.371-.019.547-.097m2.937 1.383c1.16 1.61 3.258 1.18 4.032-.012.066.465-.008.86-.325 1.2-.875.94-2.484.94-3.367.003-.32-.34-.398-.738-.34-1.191m-1.625-2.321v.676c.004.281.078.356.34.414.09.016.254-.086.254.14-.004.27-.074.419-.266.47-.535.14-1.05-.2-1.07-.758-.027-.711-.012-1.426-.012-2.137 0-.058 0-.101.079-.117.374-.07.652.137.671.527.016.262.004.524.004.785m4.071-1.773c-.067-.43.062-.742.406-.96.605-.38 1.215-.38 1.828-.024.36.21.531.52.434.972-.36-.406-.786-.636-1.329-.625a1.72 1.72 0 0 0-1.34.637m-4.464.18a.434.434 0 0 1-.43-.446.45.45 0 0 1 .45-.453.454.454 0 0 1 .429.453c0 .254-.2.454-.45.446" transform="translate(7.248 -7.337)scale(1.52548)"/>
  <path style="stroke:none;fill-rule:nonzero;fill:#fcc80f;fill-opacity:1" d="m25.957 14.594.004.004z"/>
</svg>
