<svg xmlns="http://www.w3.org/2000/svg" xmlns:xlink="http://www.w3.org/1999/xlink" width="32" height="23" viewBox="0 0 32 23"><defs><clipPath id="b"><path d="M0 0h32v23H0z"/></clipPath><clipPath id="c"><path d="M0 0h32v23H0z"/></clipPath><clipPath id="d"><path d="M0 0h32v23H0z"/></clipPath><clipPath id="e"><path d="M0 0h32v23H0z"/></clipPath><clipPath id="f"><path d="M0 0h32v23H0z"/></clipPath><mask id="h"><g filter="url(#a)"><path style="fill:#000;fill-opacity:.992157;stroke:none" d="M0 0h32v23H0z"/></g></mask><mask id="j"><g filter="url(#a)"><path style="fill:#000;fill-opacity:.996078;stroke:none" d="M0 0h32v23H0z"/></g></mask><mask id="l"><g filter="url(#a)"><path style="fill:#000;fill-opacity:.996078;stroke:none" d="M0 0h32v23H0z"/></g></mask><mask id="n"><g filter="url(#a)"><path style="fill:#000;fill-opacity:.996078;stroke:none" d="M0 0h32v23H0z"/></g></mask><mask id="p"><g filter="url(#a)"><path style="fill:#000;fill-opacity:.996078;stroke:none" d="M0 0h32v23H0z"/></g></mask><g id="g" clip-path="url(#b)"><path style="stroke:none;fill-rule:evenodd;fill:#396ab4;fill-opacity:1" d="M27.164.086a5.64 5.64 0 0 1 3.625 1.187q.293.284.563.59.375.51.398 1.149c.023.363.016.718-.023 1.074q-2.513-2.917-6.215-1.762a5.2 5.2 0 0 0-2.426 1.739 11 11 0 0 1-.012-1.25c.11-.602.395-1.094.863-1.489A5.5 5.5 0 0 1 27.165.086M8.688 1.762q.973.017 1.414.875c.234.722.046 1.312-.563 1.761q-1.142.586-1.937-.41-.508-.879.074-1.699a1.56 1.56 0 0 1 1.011-.527M1.814 3.086h.699v2.203a60 60 0 0 1 3.351 0q.006.497-.011 1-.094.862-.938 1.086c-.101.023-.2.043-.3.05q-1.052.019-2.102.013-.006 2.073.011 4.148c.051.773.454 1.223 1.215 1.34a4.2 4.2 0 0 0 2.125-.34q.013.616-.039 1.226-.159.793-.91 1.086-.27.106-.55.153a4.9 4.9 0 0 1-2.45-.278q-1.37-.615-1.687-2.085a5 5 0 0 1-.125-.926C.074 9.555.086 7.344.125 5.137q.053-.582.398-1.051.334-.48.813-.813.227-.135.476-.187"/></g><g id="i" clip-path="url(#c)"><path style="stroke:none;fill-rule:evenodd;fill:#396ab4;fill-opacity:1" d="M27.012 5.063q3.596-.096 4.738 3.3a6.73 6.73 0 0 1-.176 3.926c-.82 1.926-2.289 2.902-4.398 2.922q-3.095-.095-4.25-2.95a6.43 6.43 0 0 1 .074-4.3q1.118-2.67 4.012-2.899m-.024 2.176q1.839-.075 2.313 1.7.364 1.44-.102 2.851c-.347.813-.96 1.227-1.847 1.25q-1.634-.06-2.079-1.625a6.2 6.2 0 0 1-.097-2.277q.129-.744.597-1.325a1.86 1.86 0 0 1 1.215-.574"/></g><g id="k" clip-path="url(#d)"><path style="stroke:none;fill-rule:evenodd;fill:#396ab4;fill-opacity:1" d="M17.813 5.137c.57-.028 1.14.011 1.699.113q2.209.568 1.851 2.836-.165.006-.324-.012a4.1 4.1 0 0 0-1.8-.722 4.56 4.56 0 0 0-2.2.097c-1.242.489-1.894 1.399-1.953 2.739q.01.855.312 1.648.54 1.161 1.79 1.437a3.7 3.7 0 0 0 1.523.051.64.64 0 0 0 .465-.363 8.8 8.8 0 0 0-.164-2.672 10 10 0 0 1 1.527.012c.633.144.973.543 1.023 1.187q0 .773-.011 1.551-.037 1.534-1.438 2.137a6.5 6.5 0 0 1-2.55.324q-2.204-.117-3.739-1.687c-.832-.97-1.242-2.098-1.238-3.387q.141-3.638 3.527-4.926a9 9 0 0 1 1.7-.363"/></g><g id="m" clip-path="url(#e)"><path style="stroke:none;fill-rule:evenodd;fill:#396ab4;fill-opacity:1" d="M7.586 5.488q.44-.006.875.012 1.288.07 1.516 1.336.059 2.372.011 4.738.018.41.086.813a.91.91 0 0 0 .563.59q.247.077.5.097c.265.012.535.016.8.012q.008.48-.039.953c-.062.582-.386.918-.96 1.012a3.5 3.5 0 0 1-2.2-.403 2.37 2.37 0 0 1-1.011-1.437 3.6 3.6 0 0 1-.125-.672q-.023-3.528-.016-7.05"/></g><g id="o" clip-path="url(#f)"><path style="stroke:none;fill-rule:evenodd;fill:#396ab4;fill-opacity:1" d="M22.488 22.988h-1.402q-2.843-.294-4.836-2.324a3.67 3.67 0 0 1-1.074-2.402c-.024-.465-.016-.934.023-1.399q.92 1.194 2.114 2.114 2.506 1.714 5.523 1.25 3.446-.522 5.414-3.364.088.875-.023 1.75a4.24 4.24 0 0 1-1.516 2.535 8.05 8.05 0 0 1-4.223 1.84"/></g><filter id="a" filterUnits="objectBoundingBox" x="0%" y="0%" width="100%" height="100%"><feColorMatrix in="SourceGraphic" values="0 0 0 0 1 0 0 0 0 1 0 0 0 0 1 0 0 0 1 0"/></filter></defs><use xlink:href="#g" mask="url(#h)"/><use xlink:href="#i" mask="url(#j)"/><use xlink:href="#k" mask="url(#l)"/><use xlink:href="#m" mask="url(#n)"/><use xlink:href="#o" mask="url(#p)"/></svg>
