<svg data-bx-workspace="master" xmlns="http://www.w3.org/2000/svg" width="40" height="32pt" viewBox="0 0 800 800">
  <path d="M311.74 44.59a354.33 354.33 0 0 1 354.331 354.33 354.33 354.33 0 1 1-354.33-354.33" style="fill:#0078be;fill-rule:evenodd" transform="translate(48.08 -50.336)scale(1.12889)"/>
  <path d="m84.872 281.004.536 36.795 54.968.264-.269 19.325c-.185 9.177-8.582 15.921-20.378 15.882l-34.59.53v67.502c1.174 13.242 6.577 23.39 27.082 22.5 15.054-.482 22.446-2.373 28.423-7.147q-.136 10.325-.268 20.648c-2.548 15.75-16.135 22.278-37.271 22.5-34.992-.705-56.62-16.325-58.722-53.736q.135-55.192.268-110.386c3.228-23.317 18.11-33.173 40.22-34.678zm84.462 39.971q-.347 59.172-.697 118.344c2.042 30.463 21.423 38.288 45.66 39.774 23.364-1.562 29.239-12.782 26.322-35.001-17.514 4.376-30.577 2.77-31.333-15.378l-.268-85.238c-1.177-15.64-11.636-20.402-21.719-21.971zm19.708-60.619a23.462 22.898 0 0 1 23.462 22.898 23.462 22.898 0 1 1-23.462-22.898zm237.702 39.178c14.21-21.574 36.555-34.544 70.788-34.943q39.682-2.25 72.933 34.678c.454-6.16 2.14-14.785.804-24.354-15.635-33.201-42.634-40.775-75.085-41.382-41.156 3.076-63.947 18.593-70.244 42.97-.667 8.732-.053 16.194.804 23.03zm68.85 11.816c51.316.262 77.888 37.519 77.888 83.774 0 46.264-29.917 85.908-80.427 83.776-50.512-2.134-75.355-37.512-75.355-83.776 0-46.255 26.573-84.035 77.894-83.773zm.686 36.578c23.684.147 35.949 21.145 35.949 47.213 0 26.074-13.808 48.417-37.12 47.215-23.313-1.202-34.779-21.141-34.779-47.215 0-26.068 12.264-47.36 35.95-47.213zM295.12 505.525c28.614 41.713 65.666 62.279 112.903 57.324 52.292-2.295 81.052-26.713 103.226-57.324 1.336 10.622 2.587 21.651 0 35.031-9.392 33.184-39.317 63.317-106.452 67.94-47.214-1.24-97.8-28.595-109.677-67.94-2.138-15.106-.396-25.298 0-35.03zm61.64-105.4c5.419 7.477 5.644 20.639 5.173 37.655-.088 10.545-7.265 13.528-19.115 13.17q-47.594-1.59-49.069-52.943c1.855-28.456 17.363-46.015 52.823-47.648 17.361-.617 34.297 5.472 50.945 16.147.438-6.72 2.274-16.235.805-24.353-6.306-15.997-21.577-26.303-52.823-26.472-48.849 1.496-90.679 26.907-93.58 86.032q.53 79.525 91.302 84.805c26.608-2.19 50.612-7.305 56.403-32.88 1.378-12.583 1.635-25.798.537-39.775-3.114-14.496-21.656-15.516-43.4-13.738z" style="fill:#fff;fill-rule:evenodd;stroke:#1b1918;stroke-width:.216;stroke-linecap:butt;stroke-linejoin:miter;stroke-dasharray:none" transform="translate(48.08 -50.336)scale(1.12889)"/>
</svg>
