<svg xmlns="http://www.w3.org/2000/svg" xmlns:xlink="http://www.w3.org/1999/xlink" width="32" height="32" viewBox="0 0 32 32">
  <defs>
    <clipPath id="b">
      <path d="M0 0h32v32H0z"/>
    </clipPath>
    <clipPath id="c">
      <path d="M0 0h32v32H0z"/>
    </clipPath>
    <mask id="e">
      <g filter="url(#a)">
        <path style="fill:#000;fill-opacity:.996078;stroke:none" d="M0 0h32v32H0z"/>
      </g>
    </mask>
    <mask id="g">
      <g filter="url(#a)">
        <path style="fill:#000;fill-opacity:.00392157;stroke:none" d="M0 0h32v32H0z"/>
      </g>
    </mask>
    <g id="d" clip-path="url(#b)">
      <path style="stroke:none;fill-rule:evenodd;fill:#1a3b73;fill-opacity:1" d="M-.031 20.969c.195-.016.383.008.562.062q.446.13.938.125.468.04.937.063a.14.14 0 0 0 .063.093q.407.048.812.032.469.04.938.062a58 58 0 0 0 2.187.125.2.2 0 0 0 .125.094q.594.048 1.188.031.576.093 1.187.063 1.344.048 2.688.062.286.142.625.125c.281.051.57.082.875.094q3.688.064 7.375 0l.125-.062q-.375-.048-.75-.032l1.125-.125h1.5a30 30 0 0 0 3.625-.25 26 26 0 0 0 2-.125q.503.017 1-.031a.5.5 0 0 0 .25-.094h.187q1.219-.087 2.438-.187v6.937Q31 30.815 28.28 31.97H3.594Q.993 30.899-.031 28.28Zm0 0"/>
    </g>
    <g id="f" clip-path="url(#c)">
      <path style="stroke:none;fill-rule:evenodd;fill:#1a3c73;fill-opacity:1" d="M1.594 30.844q.123.064 0 0"/>
    </g>
    <filter id="a" filterUnits="objectBoundingBox" x="0%" y="0%" width="100%" height="100%">
      <feColorMatrix in="SourceGraphic" values="0 0 0 0 1 0 0 0 0 1 0 0 0 0 1 0 0 0 1 0"/>
    </filter>
  </defs>
  <path style="stroke:none;fill-rule:evenodd;fill:#4f7fb2;fill-opacity:1" d="M4.156-.031H27.72q.098.087.25.062V.22H3.906V.03q.152.024.25-.062"/>
  <path style="stroke:none;fill-rule:evenodd;fill:#336ca7;fill-opacity:1" d="M3.906.031V.22H27.97V.03l.312.125a.2.2 0 0 1-.125.094L15.875.281Q9.705.28 3.594.156Zm0 0"/>
  <path style="stroke:none;fill-rule:evenodd;fill:#5989ba;fill-opacity:1" d="M4.719.031Q16.125-.016 27.53.125 15.905.19 4.28.125q.24-.018.438-.094"/>
  <path style="stroke:none;fill-rule:evenodd;fill:#165699;fill-opacity:1" d="M3.594.156Q9.705.28 15.875.281L28.156.25a.2.2 0 0 0 .125-.094q.064 0 .063.063a.2.2 0 0 1-.125.094l-12.375.03Q9.626.344 3.469.22Zm0 0"/>
  <path style="stroke:none;fill-rule:evenodd;fill:#094a92;fill-opacity:1" d="M3.469.219q6.157.124 12.375.125L28.219.313a.2.2 0 0 0 .125-.094q.99.273 1.687 1 .084.21.25.375l-.062.062q-14.25-.188-28.5-.125v.25q-.152.024-.25-.062.151-.277.375-.5.656-.737 1.625-1"/>
  <path style="stroke:none;fill-rule:evenodd;fill:#0b488d;fill-opacity:1" d="M30.031 1.219c.418.273.754.629 1 1.062l.125.313a.3.3 0 0 1-.031.187q-15.187-.123-30.375 0a.16.16 0 0 1-.031-.125q.24-.585.75-.937.098.087.25.062v-.25q14.262-.063 28.5.125l.062-.062a1.1 1.1 0 0 1-.25-.375"/>
  <path style="stroke:none;fill-rule:evenodd;fill:#f7f8fa;fill-opacity:1" d="M23.781 4.781h.063q.177.165.437.188.68.304 1.063.937.051.154.062.313.03.364-.062.687-1.04-1.147-2.594-1.125a2.3 2.3 0 0 0-.844.125 1.16 1.16 0 0 0-.687.25.57.57 0 0 0-.438.313 1.6 1.6 0 0 0-.437.312 1.52 1.52 0 0 1 .125-1.125q.188-.124.312-.312a.9.9 0 0 1 .438-.313q.322-.04.562-.25a4.2 4.2 0 0 1 2 0"/>
  <path style="stroke:none;fill-rule:evenodd;fill:#104382;fill-opacity:1" d="M1.844 1.219a2.2 2.2 0 0 0-.375.5q-.51.351-.75.937a2.2 2.2 0 0 0-.563 1.5h31.625a3.1 3.1 0 0 0-.625-1.562l-.125-.313q.122.077.219.188.415.766.719 1.562v1.75h-6.407l-.062.375a.32.32 0 0 0-.156-.25 2.3 2.3 0 0 0-1.063-.937.72.72 0 0 0-.437-.188h-.063a2 2 0 0 0-1.031-.187 1.8 1.8 0 0 0-.969.187h-.125q.147-.13-.062-.125a3.35 3.35 0 0 0-1.438 1.094q-3.784.018-7.562.094a2.6 2.6 0 0 0-.344-.313q-.147.111-.281 0a.11.11 0 0 0-.063.125q-.375-.016-.75.032a1.3 1.3 0 0 1-.25.218q-.06-.188.156-.312c.043-.043.043-.082 0-.125-.12.07-.238.156-.343.25Q5.375 5.81.03 5.78q.024-.15-.062-.25V3.78l.657-1.31.625-.75q.259-.305.594-.5"/>
  <path style="stroke:none;fill-rule:evenodd;fill:#91a8c6;fill-opacity:1" d="M23.781 4.781a4.2 4.2 0 0 0-2 0q.446-.228.969-.187.55-.042 1.031.187"/>
  <path style="stroke:none;fill-rule:evenodd;fill:#0d4587;fill-opacity:1" d="M31.156 2.594q.524.681.625 1.562H.156a2.2 2.2 0 0 1 .563-1.5.16.16 0 0 0 .031.125q15.188-.123 30.375 0a.3.3 0 0 0 .031-.187"/>
  <path style="stroke:none;fill-rule:evenodd;fill:#8fa6c3;fill-opacity:1" d="M23.844 4.781q.26.024.437.188a.72.72 0 0 1-.437-.188"/>
  <path style="stroke:none;fill-rule:evenodd;fill:#adbfd4;fill-opacity:1" d="M21.656 4.781h.125q-.24.21-.562.25a.77.77 0 0 1 .437-.25"/>
  <path style="stroke:none;fill-rule:evenodd;fill:#8da4c3;fill-opacity:1" d="M20.781 5.344q-.124.188-.312.312a.4.4 0 0 1 .312-.312"/>
  <path style="stroke:none;fill-rule:evenodd;fill:#94a7c3;fill-opacity:1" d="M20.469 5.656a1.52 1.52 0 0 0-.125 1.125 1.6 1.6 0 0 1 .437-.312 1.23 1.23 0 0 1-.625.5q-.047-.614.157-1.188a.44.44 0 0 1 .156-.125"/>
  <path style="stroke:none;fill-rule:evenodd;fill:#fcfcfd;fill-opacity:1" d="M7.844 7.719q.951.092 1.937.062v.813a.88.88 0 0 1-.5.375h-1.5q-.03 1.378.063 2.75l.125.187a.5.5 0 0 0 .125.188.36.36 0 0 0 .312.219c.344.05.68.039 1-.032a.6.6 0 0 0 .313-.062c.062.265.082.539.062.812a.8.8 0 0 0-.187.313q-.271.098-.5.25a5.7 5.7 0 0 1-1.75-.156 2.44 2.44 0 0 1-.813-.907 3 3 0 0 0-.062-.437c-.02-1.649.004-3.293.062-4.938a.95.95 0 0 0 .375-.437.55.55 0 0 0 .313-.219q.281-.048.562-.031c-.02.43 0 .843.063 1.25"/>
  <path style="stroke:none;fill-rule:evenodd;fill:#15407b;fill-opacity:1" d="M21.656 4.781a.77.77 0 0 0-.437.25.9.9 0 0 0-.438.313.4.4 0 0 0-.312.312.44.44 0 0 0-.157.125 2.8 2.8 0 0 0-.156 1.188q.392-.142.625-.5.251-.127.438-.313c.254-.031.48-.117.687-.25q.399-.14.844-.125 1.554-.022 2.594 1.125.005.052.062.063a1.17 1.17 0 0 0 0-.75 1.2 1.2 0 0 0-.062-.313q.136.082.156.25l.063-.375h6.406v3h-6.563a4 4 0 0 0-.343-.5c-.055-.074-.11-.074-.157 0q.186.293.407.563.069.117-.032.187a.18.18 0 0 0-.125-.125q-.678-1.074-1.937-1.25v-.062h.187v-.188q-1.418-.195-2.531.688c-.043-.059-.098-.07-.156-.031q-.381.3-.563.718a1.36 1.36 0 0 0-.687.094l.562.063q-.089.27-.25.5a2 2 0 0 1-.5.03q.017-.405-.031-.812a.32.32 0 0 0-.156-.25 1.5 1.5 0 0 0-.813-.625.2.2 0 0 0-.125-.093 12 12 0 0 0-1.75 0 .8.8 0 0 0-.437.218q-.739.181-1.25.75a.16.16 0 0 0-.031-.125l-.626.75a.34.34 0 0 1 .094-.344.25.25 0 0 1-.062-.093 8.4 8.4 0 0 0-1.438-.063.77.77 0 0 0-.094-.437 18 18 0 0 0-.656-.375 1.7 1.7 0 0 0-1.031-.063q-.075 2.221.031 4.438a.2.2 0 0 1-.094-.125 149 149 0 0 1-.03-4.375h-.188v.937a3 3 0 0 1-.625-.031c.152-.094.152-.18 0-.25a1.27 1.27 0 0 0 0-.781q-.06.375-.125.75v-.75h-2V6.406q-.346-.016-.688.032c-.093.082-.18.18-.25.28a.95.95 0 0 0-.375.438l-.125.125a.11.11 0 0 0-.062-.125.4.4 0 0 0-.094.188q-.1.779-.125 1.562a3 3 0 0 1-.031-.625h-.188v.5H-.03v-3.25q.087.1.062.25 5.344.03 10.688-.062.16-.143.344-.25.063.063 0 .125-.216.124-.157.312a.36.36 0 0 0-.062.188.14.14 0 0 0-.094.062q-.075.3.031.563c.078.203.203.367.375.5a.14.14 0 0 0 .063.093q.407.065.812 0a.9.9 0 0 0 .188-.218.8.8 0 0 1 .187-.313q.106-.325.031-.687a1.6 1.6 0 0 0-.28-.25l-.25-.188a.11.11 0 0 1 .062-.125q.134.111.281 0 .186.142.344.313 3.782-.076 7.562-.094.576-.749 1.438-1.094.21-.004.062.125"/>
  <path style="stroke:none;fill-rule:evenodd;fill:#92a6c2;fill-opacity:1" d="M7.844 7.719a6.3 6.3 0 0 1-.063-1.25Q7.5 6.452 7.22 6.5a.55.55 0 0 1-.313.219c.07-.102.157-.2.25-.282a3.7 3.7 0 0 1 .688-.03Zm0 0"/>
  <path style="stroke:none;fill-rule:evenodd;fill:#6e88ae;fill-opacity:1" d="M10.844 6.094a2.1 2.1 0 0 0-.063.625.9.9 0 0 1-.031-.563.14.14 0 0 1 .094-.062"/>
  <path style="stroke:none;fill-rule:evenodd;fill:#96a9c5;fill-opacity:1" d="M12.156 5.844c.102.07.2.156.281.25.051.242.04.468-.03.687a3 3 0 0 0-.032-.625.55.55 0 0 1-.219-.312"/>
  <path style="stroke:none;fill-rule:evenodd;fill:#8ea3c0;fill-opacity:1" d="M25.406 6.219q.123.363 0 .75-.057-.011-.062-.063.093-.323.062-.687"/>
  <path style="stroke:none;fill-rule:evenodd;fill:#5d78a4;fill-opacity:1" d="M21.219 6.156q-.187.186-.438.313a.57.57 0 0 1 .438-.313"/>
  <path style="stroke:none;fill-rule:evenodd;fill:#53719f;fill-opacity:1" d="M21.906 5.906a1.6 1.6 0 0 1-.687.25q.297-.233.687-.25"/>
  <path style="stroke:none;fill-rule:evenodd;fill:#f8f9fb;fill-opacity:1" d="m11.906 5.656.25.188a.55.55 0 0 0 .219.312q.048.31.031.625a.8.8 0 0 0-.187.313 1.27 1.27 0 0 1-1.063.125 1.13 1.13 0 0 1-.375-.5 2.1 2.1 0 0 1 .063-.625.36.36 0 0 1 .062-.188 1.3 1.3 0 0 0 .25-.218q.375-.048.75-.032"/>
  <path style="stroke:none;fill-rule:evenodd;fill:#a7b7ce;fill-opacity:1" d="M6.906 6.719a.95.95 0 0 1-.375.437.95.95 0 0 1 .375-.437"/>
  <path style="stroke:none;fill-rule:evenodd;fill:#5a75a0;fill-opacity:1" d="M12.219 7.094a.9.9 0 0 1-.188.218q-.407.065-.812 0a.14.14 0 0 1-.063-.093q.57.172 1.063-.125"/>
  <path style="stroke:none;fill-rule:evenodd;fill:#90a2bf;fill-opacity:1" d="M18.281 7.781a6 6 0 0 0-2.312.125.8.8 0 0 1 .437-.218 12 12 0 0 1 1.75 0 .2.2 0 0 1 .125.093"/>
  <path style="stroke:none;fill-rule:evenodd;fill:#a0b0c8;fill-opacity:1" d="M23.219 7.594v.062a6 6 0 0 0-1.438.125.5.5 0 0 1 .375-.156 9 9 0 0 1 1.063-.031"/>
  <path style="stroke:none;fill-rule:evenodd;fill:#fafafc;fill-opacity:1" d="M23.219 7.656q1.259.176 1.937 1.25a.56.56 0 0 0 .188.375c.02.117.058.223.125.313q.08.844.062 1.687a.57.57 0 0 1-.062.313.8.8 0 0 0-.188.5q-.188.259-.312.562-.416.451-.938.75a.72.72 0 0 0-.437.188q-.475.13-.969.125c-.187 0-.367-.02-.531-.063a.45.45 0 0 0-.375-.125 5 5 0 0 1-.813-.406q-.298-.344-.562-.719-.106-.405-.313-.75v-.062a13 13 0 0 1-.062-1.625v-.063a.7.7 0 0 0 .125-.437q.446-1.254 1.687-1.688c.473-.097.957-.14 1.438-.125"/>
  <path style="stroke:none;fill-rule:evenodd;fill:#fafbfc;fill-opacity:1" d="M18.281 7.781c.34.11.614.32.813.625q.159.485.125 1a.5.5 0 0 1-.5-.187 1.5 1.5 0 0 0-.813-.281 3.5 3.5 0 0 0-1.125.03q-1.066.253-1.312 1.313-.116.644.031 1.313a.14.14 0 0 0 .094.062c.14.262.332.496.562.688q.157.217.438.187.544.106 1.125.031.117-.04.125-.156a4.2 4.2 0 0 0 0-1.437v-.188q.533-.024 1.062.063.122.094.25.187a8 8 0 0 1 0 1.938q-.151.334-.437.562-.237.07-.438.188v.062a5 5 0 0 0-.625.063q-.72.018-1.437-.063h-.125a1.2 1.2 0 0 0-.563-.25.8.8 0 0 1-.375-.187 3.18 3.18 0 0 1-1.125-1.625 6.7 6.7 0 0 1 0-1.813q.229-.265.25-.625.142-.362.438-.625.511-.569 1.25-.75a6 6 0 0 1 2.312-.125"/>
  <path style="stroke:none;fill-rule:evenodd;fill:#c0cad9;fill-opacity:1" d="M11.906 7.969v.062a4.2 4.2 0 0 0-.937-.062 96 96 0 0 0 .062 4.625.9.9 0 0 1-.125-.25 54 54 0 0 1-.031-4.438 1.7 1.7 0 0 1 1.031.063"/>
  <path style="stroke:none;fill-rule:evenodd;fill:#9faec6;fill-opacity:1" d="M16.781 8.969q.546-.106 1.125-.031.456.023.813.28a5 5 0 0 0-1.938-.25"/>
  <path style="stroke:none;fill-rule:evenodd;fill:#acb8cd;fill-opacity:1" d="M14.281 9.281q-.021.36-.25.625a1.04 1.04 0 0 1 .25-.625"/>
  <path style="stroke:none;fill-rule:evenodd;fill:#8497b4;fill-opacity:1" d="M6.406 7.344q-.03 2.39.063 4.75.045.216.062.437a1.2 1.2 0 0 1-.156-.375c-.05-1.605-.043-3.21.031-4.812"/>
  <path style="stroke:none;fill-rule:evenodd;fill:#1a3c73;fill-opacity:1" d="M6.406 7.281v.063a62 62 0 0 0-.031 4.812q.052.21.156.375.287.55.813.906.86.213 1.75.157a.64.64 0 0 0 .5-.25.8.8 0 0 1 .187-.313c.063-.281.082-.57.063-.875a.7.7 0 0 0-.438.125q-.469.017-.937-.031a2 2 0 0 1-.375-.156.5.5 0 0 1-.125-.188 36 36 0 0 1-.063-2.812c.469.02.93 0 1.375-.063V8.97a.88.88 0 0 0 .5-.375q.078-.031.063-.125.066-.375.125-.75a1.27 1.27 0 0 1 0 .781q.228.107 0 .25.31.048.625.031v-.937h.187q-.016 2.188.031 4.375a.2.2 0 0 0 .094.125c.031.094.07.176.125.25q.095.371.375.625a.47.47 0 0 0 .313.25q.365.222.812.187l.438-.031a.32.32 0 0 0 .25-.156h.062a.4.4 0 0 0 .219-.375 3.7 3.7 0 0 0 .031-.688q-.392.03-.75-.062 1.468-.061-.062-.156a.44.44 0 0 1-.156-.22L12.5 8.532a.43.43 0 0 0-.125-.187q-.036.022-.031.062h-.063a1.15 1.15 0 0 0-.375-.375V7.97q.335.18.656.375a.77.77 0 0 1 .094.437q.721-.03 1.438.063a.25.25 0 0 0 .062.094.34.34 0 0 0-.094.343l.626-.75a.16.16 0 0 1 .03.125 1.6 1.6 0 0 0-.437.625 1.03 1.03 0 0 0-.25.625.36.36 0 0 0-.094.188l-.03.687q-.02.491.124.938.3.985 1.125 1.625a.19.19 0 0 0-.187.062c.324.215.656.41 1 .594a1985 1985 0 0 0-16-.031V8.78h5.937v-.5h.188q-.017.316.031.625a16 16 0 0 1 .125-1.562.4.4 0 0 1 .094-.188q.074.042.062.125"/>
  <path style="stroke:none;fill-rule:evenodd;fill:#072b67;fill-opacity:1" d="M12.781 12.344h-.125l-.187-.25q-.06-1.846-.125-3.688-.005-.04.031-.062a.43.43 0 0 1 .125.187l.063 3.438a.44.44 0 0 0 .156.219c1.02.062 1.043.117.062.156"/>
  <path style="stroke:none;fill-rule:evenodd;fill:#335384;fill-opacity:1" d="M9.281 9.031a7.6 7.6 0 0 1-1.375.063q-.024 1.406.063 2.812l-.125-.187V9.03Zm0 0"/>
  <path style="stroke:none;fill-rule:evenodd;fill:#98a9c1;fill-opacity:1" d="M9.281 8.969v.062H7.844v2.688a31 31 0 0 1-.063-2.75Zm0 0"/>
  <path style="stroke:none;fill-rule:evenodd;fill:#4a6592;fill-opacity:1" d="M12.281 8.406h.063q.066 1.841.125 3.688a.36.36 0 0 1-.094-.188 90 90 0 0 0-.094-3.25Zm0 0"/>
  <path style="stroke:none;fill-rule:evenodd;fill:#afbbcf;fill-opacity:1" d="M12.281 8.656q.076 1.625.094 3.25.024.116.094.188l.187.25a.46.46 0 0 1-.344-.375 85 85 0 0 1-.03-3.313"/>
  <path style="stroke:none;fill-rule:evenodd;fill:#fdfdfe;fill-opacity:1" d="M11.906 8.031q.234.147.375.375v.25a85 85 0 0 0 .031 3.313.46.46 0 0 0 .344.375.14.14 0 0 0 .063.094q.375.046.75.03.041.533-.188 1h-.062a4.8 4.8 0 0 1-1.5 0 .47.47 0 0 0-.313-.25 1.23 1.23 0 0 1-.375-.624 96 96 0 0 1-.062-4.625c.312-.016.629.008.937.062"/>
  <path style="stroke:none;fill-rule:evenodd;fill:#a3b4cb;fill-opacity:1" d="M7.844 7.719h2v.75q.015.094-.063.125V7.78q-.986.03-1.937-.062"/>
  <path style="stroke:none;fill-rule:evenodd;fill:#dce2ea;fill-opacity:1" d="M6.531 7.156a104 104 0 0 0-.062 4.938 92 92 0 0 1-.063-4.75V7.28Zm0 0"/>
  <path style="stroke:none;fill-rule:evenodd;fill:#1a3c73;fill-opacity:1" d="M23.219 7.594q-.535-.017-1.063.031a.5.5 0 0 0-.375.156q-1.242.434-1.687 1.688a.7.7 0 0 0-.125.437v.063a5.7 5.7 0 0 0-.032 1.437q.024.116.094.188v.062q.013.446.313.75.264.374.562.719.398.247.813.406.151.147.375.125.248.064.531.063.493.004.969-.125a.72.72 0 0 0 .437-.188q.521-.299.938-.75a.8.8 0 0 0 .312-.562.8.8 0 0 0 .188-.5.57.57 0 0 0 .062-.313q.106-.732.032-1.5a.36.36 0 0 0-.094-.187.7.7 0 0 1-.125-.313l-.063-.25q.1-.071.032-.187a6 6 0 0 1-.407-.563q.073-.111.157 0 .198.244.343.5h6.563v5.188A800 800 0 0 0 22.78 14c.328-.098.664-.18 1-.25l.063-.062-.219-.032a7.7 7.7 0 0 1-1.531.156q.201.13.437.188a84 84 0 0 1-3.718-.094q-.094.123-.188 0-.09.164-.219.063.258-.24-.125-.188v-.062q.29.03.438-.188.286-.228.437-.562a.5.5 0 0 0 .094-.25q.064-.812 0-1.625a.14.14 0 0 0-.094-.063l-.25-.187a.14.14 0 0 0-.062-.094 9 9 0 0 0-1.063-.031q-.024.15.063.25c.082.476.082.96 0 1.437l-.188.094a9 9 0 0 1-1.062.031.94.94 0 0 0-.438-.187 2.3 2.3 0 0 1-.562-.688 6 6 0 0 1-.125-1.375q.246-1.06 1.312-1.312a5 5 0 0 1 1.938.25.5.5 0 0 0 .5.187 2.6 2.6 0 0 0-.125-1q.136.082.156.25.048.404.031.813.253.016.5-.031.161-.23.25-.5l-.562-.063q.323-.135.687-.094c.121-.277.309-.52.563-.719.058-.039.113-.027.156.032q1.113-.883 2.531-.688v.188Zm0 0"/>
  <path style="stroke:none;fill-rule:evenodd;fill:#193c73;fill-opacity:1" d="M22.969 8.969a.68.68 0 0 1 .5.187q.286.234.437.563.216.897.063 1.812a.56.56 0 0 0-.188.375c-.433.434-.957.559-1.562.375q-.096.016-.125-.062a1.6 1.6 0 0 0-.375-.375 2 2 0 0 1-.125-.438c-.051-.37-.07-.75-.063-1.125v-.5q.14-.516.625-.75c.266-.054.54-.074.813-.062"/>
  <path style="stroke:none;fill-rule:evenodd;fill:#5c759c;fill-opacity:1" d="M20.094 9.469a.7.7 0 0 1-.125.437.7.7 0 0 1 .125-.437"/>
  <path style="stroke:none;fill-rule:evenodd;fill:#a8b5cc;fill-opacity:1" d="M23.469 9.156q.421.117.437.563a1.6 1.6 0 0 0-.437-.563"/>
  <path style="stroke:none;fill-rule:evenodd;fill:#7d91b2;fill-opacity:1" d="M25.156 8.906q.096.031.125.125l.063.25a.56.56 0 0 1-.188-.375"/>
  <path style="stroke:none;fill-rule:evenodd;fill:#758aac;fill-opacity:1" d="M22.969 8.969a3.3 3.3 0 0 0-.813.062.14.14 0 0 1 .063-.094q.392-.075.75.032"/>
  <path style="stroke:none;fill-rule:evenodd;fill:#7c90b0;fill-opacity:1" d="M21.531 9.781v.5a1.9 1.9 0 0 0-.062.688 1.6 1.6 0 0 1-.063-.469 1.7 1.7 0 0 1 .125-.719"/>
  <path style="stroke:none;fill-rule:evenodd;fill:#7d91b1;fill-opacity:1" d="M25.469 9.594q.07.071.093.187.076.768-.03 1.5a14 14 0 0 0-.063-1.687"/>
  <path style="stroke:none;fill-rule:evenodd;fill:#6b81a5;fill-opacity:1" d="M15.469 10.281c-.012.461.031.922.125 1.375a.14.14 0 0 1-.094-.062 3.3 3.3 0 0 1-.031-1.313"/>
  <path style="stroke:none;fill-rule:evenodd;fill:#8b9eb9;fill-opacity:1" d="M18.906 10.844a5 5 0 0 0-1.062-.063v.188q-.087-.1-.063-.25c.356-.012.707 0 1.063.031a.14.14 0 0 1 .062.094"/>
  <path style="stroke:none;fill-rule:evenodd;fill:#7d90b0;fill-opacity:1" d="M19.969 9.969q-.018.816.062 1.625a.36.36 0 0 1-.093-.188 5.7 5.7 0 0 1 .03-1.437"/>
  <path style="stroke:none;fill-rule:evenodd;fill:#adbacd;fill-opacity:1" d="M14.031 9.906a6.7 6.7 0 0 0 0 1.813 2.7 2.7 0 0 1-.125-.938l.031-.687a.36.36 0 0 1 .094-.188"/>
  <path style="stroke:none;fill-rule:evenodd;fill:#445d8c;fill-opacity:1" d="M21.531 10.281q-.013.57.063 1.125-.172-.167-.125-.437-.03-.364.062-.688"/>
  <path style="stroke:none;fill-rule:evenodd;fill:#bdc6d6;fill-opacity:1" d="M19.156 11.031a.14.14 0 0 1 .094.063q.064.813 0 1.625a.5.5 0 0 1-.094.25 8 8 0 0 0 0-1.938"/>
  <path style="stroke:none;fill-rule:evenodd;fill:#6b7fa4;fill-opacity:1" d="M20.031 11.656q.206.345.313.75a1.07 1.07 0 0 1-.313-.75"/>
  <path style="stroke:none;fill-rule:evenodd;fill:#93a1bb;fill-opacity:1" d="M23.969 11.531a.56.56 0 0 1-.188.375.56.56 0 0 1 .188-.375"/>
  <path style="stroke:none;fill-rule:evenodd;fill:#9aa8c2;fill-opacity:1" d="M21.719 11.844c.144.101.273.23.375.375a.56.56 0 0 1-.375-.375"/>
  <path style="stroke:none;fill-rule:evenodd;fill:#6a7fa4;fill-opacity:1" d="M25.469 11.594a.8.8 0 0 1-.188.5.8.8 0 0 1 .188-.5"/>
  <path style="stroke:none;fill-rule:evenodd;fill:#5f759c;fill-opacity:1" d="M8.094 12.094c.12.062.246.117.375.156q.469.048.937.031c-.32.07-.656.082-1 .031a.36.36 0 0 1-.312-.218"/>
  <path style="stroke:none;fill-rule:evenodd;fill:#b1bbcf;fill-opacity:1" d="M23.781 11.906q-.41.726-1.25.531a.4.4 0 0 1-.312-.156c.605.184 1.129.059 1.562-.375"/>
  <path style="stroke:none;fill-rule:evenodd;fill:#a6b3c8;fill-opacity:1" d="M9.781 13.031a2.7 2.7 0 0 0-.062-.812.6.6 0 0 1-.313.062.7.7 0 0 1 .438-.125c.02.305 0 .594-.063.875"/>
  <path style="stroke:none;fill-rule:evenodd;fill:#92a2bd;fill-opacity:1" d="M16.156 12.344q.251.041.438.187a.45.45 0 0 1-.438-.187"/>
  <path style="stroke:none;fill-rule:evenodd;fill:#6c80a4;fill-opacity:1" d="M25.281 12.094a.8.8 0 0 1-.312.562q.124-.304.312-.562"/>
  <path style="stroke:none;fill-rule:evenodd;fill:#677ca2;fill-opacity:1" d="M17.844 12.406q-.007.117-.125.156-.58.076-1.125-.03.531.016 1.062-.032Zm0 0"/>
  <path style="stroke:none;fill-rule:evenodd;fill:#8192b1;fill-opacity:1" d="M12.656 12.344h.125q.358.093.75.062.017.346-.031.688a.4.4 0 0 1-.219.375q.229-.469.188-1-.375.016-.75-.031a.14.14 0 0 1-.063-.094"/>
  <path style="stroke:none;fill-rule:evenodd;fill:#a3afc6;fill-opacity:1" d="M11.406 13.219q.211.054.313.25a.47.47 0 0 1-.313-.25"/>
  <path style="stroke:none;fill-rule:evenodd;fill:#7a8bab;fill-opacity:1" d="M9.594 13.344a.64.64 0 0 1-.5.25q.229-.152.5-.25"/>
  <path style="stroke:none;fill-rule:evenodd;fill:#a4b0c6;fill-opacity:1" d="M11.719 13.469a4.8 4.8 0 0 0 1.5 0 .32.32 0 0 1-.25.156l-.438.031q-.447.035-.812-.187"/>
  <path style="stroke:none;fill-rule:evenodd;fill:#8696b3;fill-opacity:1" d="M24.031 13.406a.72.72 0 0 1-.437.188.72.72 0 0 1 .437-.188"/>
  <path style="stroke:none;fill-rule:evenodd;fill:#94a2bc;fill-opacity:1" d="M21.719 13.531a.45.45 0 0 1 .375.125.45.45 0 0 1-.375-.125"/>
  <path style="stroke:none;fill-rule:evenodd;fill:#7184a6;fill-opacity:1" d="M15.531 13.531q.323.055.563.25a1.2 1.2 0 0 1-.563-.25"/>
  <path style="stroke:none;fill-rule:evenodd;fill:#66799e;fill-opacity:1" d="M18.719 13.531q-.148.217-.438.188c.133-.078.282-.14.438-.188"/>
  <path style="stroke:none;fill-rule:evenodd;fill:#1a396d;fill-opacity:1" d="M15.156 13.344q.158.14.375.187.24.196.563.25h.125a.14.14 0 0 0 .062.094q.706.075 1.375-.031a5 5 0 0 1 .625-.063q.382-.052.125.188.13.1.219-.063.094.123.188 0 1.853.088 3.718.094a1.5 1.5 0 0 1-.437-.187q.774-.002 1.531-.157l.219.031-.063.063c-.336.07-.672.152-1 .25a800 800 0 0 1 9.188-.031v2.625q-4.344-.03-8.688.062a19 19 0 0 0-.937.907 2 2 0 0 0-.282.156.16.16 0 0 1-.03-.125.3.3 0 0 1 .25-.188c.269-.144.48-.355.624-.625q-.015-.094.063-.125a.55.55 0 0 0 .25-.437.7.7 0 0 0 .125-.438c.02-.336 0-.672-.063-1q-.057.011-.062.063a4.64 4.64 0 0 1-2.563 1.75 2.3 2.3 0 0 0-.687.125 11.4 11.4 0 0 1-2-.125 4.5 4.5 0 0 1-1.313-.657 28 28 0 0 1-1.062-1.093c-.02-.098-.082-.137-.188-.125q-.03.518.063 1c.054.328.16.644.312.937q-.094.06-.187.125a.7.7 0 0 0-.188-.156Q7.72 16.577.031 16.594a.6.6 0 0 1-.062.375v-3q8.009-.017 16 .031a12 12 0 0 1-1-.594.19.19 0 0 1 .187-.062"/>
  <path style="stroke:none;fill-rule:evenodd;fill:#8696b4;fill-opacity:1" d="M16.219 13.781q.715.081 1.437.063-.67.106-1.375.031a.14.14 0 0 1-.062-.094"/>
  <path style="stroke:none;fill-rule:evenodd;fill:#f9f9fb;fill-opacity:1" d="M15.594 14.844q.517.561 1.062 1.094.61.438 1.313.656c.172.078.36.133.562.156q.736.075 1.438-.031.37.022.687-.125a4.64 4.64 0 0 0 2.563-1.75q.093.45.062.937c-.047.14-.066.29-.062.438a1.5 1.5 0 0 0-.25.437q-.078.031-.063.125-.344.281-.625.625a.3.3 0 0 0-.25.188 4 4 0 0 0-.75.375.56.56 0 0 0-.375.187q-.315.042-.625.125-.779.081-1.562.063a5 5 0 0 1-.625-.125.68.68 0 0 0-.5-.188 4 4 0 0 1-.813-.406.44.44 0 0 1-.125-.156.47.47 0 0 0-.312-.25 6 6 0 0 0-.563-.563 3.2 3.2 0 0 1-.312-.937q-.017-.469.031-.938a.14.14 0 0 0 .094.063"/>
  <path style="stroke:none;fill-rule:evenodd;fill:#7183a4;fill-opacity:1" d="M15.594 14.844a.14.14 0 0 1-.094-.063 7 7 0 0 0-.031.938 4 4 0 0 1-.063-1q.158-.02.188.125"/>
  <path style="stroke:none;fill-rule:evenodd;fill:#b7c1d2;fill-opacity:1" d="M23.219 14.844q.005-.052.062-.063.093.494.063 1h-.063q.03-.486-.062-.937"/>
  <path style="stroke:none;fill-rule:evenodd;fill:#5d7095;fill-opacity:1" d="M23.281 15.781h.063a.7.7 0 0 1-.125.438 1.3 1.3 0 0 1 .062-.438"/>
  <path style="stroke:none;fill-rule:evenodd;fill:#65779a;fill-opacity:1" d="M23.219 16.219a.55.55 0 0 1-.25.437q.089-.245.25-.437"/>
  <path style="stroke:none;fill-rule:evenodd;fill:#1a3666;fill-opacity:1" d="M15.781 16.656q.3.264.563.563a.47.47 0 0 0 .312.25c.028.058.07.113.125.156q.374.247.813.406a.68.68 0 0 0 .5.188q.31.082.625.125.67.093 1.375.062.438-.052.812-.25a.56.56 0 0 0 .375-.187 3.8 3.8 0 0 1 .75-.375.16.16 0 0 0 .032.125 2 2 0 0 1 .28-.157q.453-.467.938-.906 4.344-.093 8.688-.062v2.312H.03c.016.082-.008.145-.062.188v-2.125a.6.6 0 0 0 .062-.375q7.688-.017 15.375.031a.7.7 0 0 1 .188.156z"/>
  <path style="stroke:none;fill-rule:evenodd;fill:#697b9c;fill-opacity:1" d="M20.656 16.594q-.316.147-.687.125a2.3 2.3 0 0 1 .687-.125"/>
  <path style="stroke:none;fill-rule:evenodd;fill:#627598;fill-opacity:1" d="M17.969 16.594c.66.101 1.332.14 2 .125a5.7 5.7 0 0 1-1.438.031 1.9 1.9 0 0 1-.562-.156"/>
  <path style="stroke:none;fill-rule:evenodd;fill:#4d6189;fill-opacity:1" d="M22.906 16.781a1.5 1.5 0 0 1-.625.625q.281-.344.625-.625"/>
  <path style="stroke:none;fill-rule:evenodd;fill:#9da8be;fill-opacity:1" d="M16.344 17.219q.212.054.312.25a.47.47 0 0 1-.312-.25"/>
  <path style="stroke:none;fill-rule:evenodd;fill:#8d9ab2;fill-opacity:1" d="M21.281 17.969a.56.56 0 0 1-.375.187.56.56 0 0 1 .375-.187"/>
  <path style="stroke:none;fill-rule:evenodd;fill:#909db5;fill-opacity:1" d="M17.594 18.031a.68.68 0 0 1 .5.188.68.68 0 0 1-.5-.188"/>
  <path style="stroke:none;fill-rule:evenodd;fill:#667898;fill-opacity:1" d="M20.906 18.156q-.375.198-.812.25l.187-.125q.31-.082.625-.125"/>
  <path style="stroke:none;fill-rule:evenodd;fill:#a2adc0;fill-opacity:1" d="m20.281 18.281-.187.125q-.706.03-1.375-.062.784.018 1.562-.063"/>
  <path style="stroke:none;fill-rule:evenodd;fill:#1b325f;fill-opacity:1" d="M31.969 18.906v1.625q-.586-.028-1.125.125h-.063q-.469.023-.937.063-.687.04-1.375.093a.5.5 0 0 0-.25.094h-.5a1.2 1.2 0 0 1 .375-.093 46 46 0 0 0-4.5.187c-4.239.188-8.48.195-12.719.031q-.766.053-1.531.094.486.018.937.094h-.687a8 8 0 0 1-1.313-.063v-.062q.319.03.625-.063-1.358-.147-2.687-.062H5.03q-1.154-.141-2.312-.188a7.7 7.7 0 0 0-1.375-.125v-.062a4.7 4.7 0 0 0-1.375-.125v-1.375c.054-.043.078-.106.062-.188Zm0 0"/>
  <path style="stroke:none;fill-rule:evenodd;fill:#5f5d59;fill-opacity:1" d="M-.031 20.531v-.062c.472-.024.933.015 1.375.125a7 7 0 0 1-.813-.063Zm0 0"/>
  <path style="stroke:none;fill-rule:evenodd;fill:#cba74f;fill-opacity:1" d="M.531 20.531c.27.035.54.059.813.063v.062q-.346.017-.688-.031a.2.2 0 0 1-.125-.094"/>
  <path style="stroke:none;fill-rule:evenodd;fill:#827555;fill-opacity:1" d="M31.969 20.531v.063c-.375.011-.75.035-1.125.062q.54-.152 1.125-.125"/>
  <path style="stroke:none;fill-rule:evenodd;fill:#706f64;fill-opacity:1" d="M.531 21.031q.469.023.938.063v.062q-.492.005-.938-.125"/>
  <use xlink:href="#d" mask="url(#e)"/>
  <path style="stroke:none;fill-rule:evenodd;fill:#ac9659;fill-opacity:1" d="M1.469 21.156v-.062q.492-.005.937.125a25 25 0 0 1-.937-.063"/>
  <path style="stroke:none;fill-rule:evenodd;fill:#8e825f;fill-opacity:1" d="M31.969 21.031v.063q-1.219.1-2.438.187 1.196-.203 2.438-.25"/>
  <path style="stroke:none;fill-rule:evenodd;fill:#5d6268;fill-opacity:1" d="M2.406 21.219q.44.016.875.062v.063q-.407.016-.812-.032a.14.14 0 0 1-.063-.093"/>
  <path style="stroke:none;fill-rule:evenodd;fill:#95865e;fill-opacity:1" d="M3.281 21.344v-.063c.328-.011.64.028.938.125a25 25 0 0 1-.938-.062"/>
  <path style="stroke:none;fill-rule:evenodd;fill:#6e6c65;fill-opacity:1" d="M29.344 21.281a.5.5 0 0 1-.25.094 8 8 0 0 1-1 .031q.607-.112 1.25-.125"/>
  <path style="stroke:none;fill-rule:evenodd;fill:#f6c44b;fill-opacity:1" d="M-.031 20.531H.53a.2.2 0 0 0 .125.094q.341.048.688.031.697.001 1.375.125.473.152 1 .157.656.047 1.312.03h.25q1.5.124 3 .188c.434.059.875.078 1.313.063q.104.076.25.093a33 33 0 0 0 2.062.032q4.25.117 8.5 0 2.08.03 4.125-.188A60 60 0 0 0 27.78 21a.2.2 0 0 0 .125-.094h.313q.815-.044 1.625-.125.492.005.937-.125h.063q.563-.042 1.125-.062v.437q-1.241.047-2.438.25h-.187q-.643.013-1.25.125-.997.101-2 .125c-.832.032-1.668.07-2.5.125a30 30 0 0 0-2.125.063q-4.125.07-8.25.062h-1.625q-1.344-.014-2.688-.062a8 8 0 0 0-1.187-.125 18 18 0 0 1-1.313-.063 58 58 0 0 1-2.187-.125 2.7 2.7 0 0 0-.938-.125q-.434-.045-.875-.062a3.2 3.2 0 0 0-.937-.125 25 25 0 0 0-.938-.063 1.5 1.5 0 0 0-.562-.062Zm0 0"/>
  <path style="stroke:none;fill-rule:evenodd;fill:#958252;fill-opacity:1" d="M11.906 21.344v-.063q4.25.123 8.5 0v.063q-4.25.117-8.5 0"/>
  <path style="stroke:none;fill-rule:evenodd;fill:#c29e4f;fill-opacity:1" d="M9.594 21.219h.687c.531.062 1.07.082 1.625.062v.063q-1.031.016-2.062-.032a.5.5 0 0 1-.25-.093"/>
  <path style="stroke:none;fill-rule:evenodd;fill:#c9a44f;fill-opacity:1" d="M23.469 21.156h1.062a35 35 0 0 1-4.125.188v-.063h.813q1.142.005 2.25-.125"/>
  <path style="stroke:none;fill-rule:evenodd;fill:#716855;fill-opacity:1" d="M23.469 21.156q-1.108.13-2.25.125 1.107-.147 2.25-.125"/>
  <path style="stroke:none;fill-rule:evenodd;fill:#1e2e5b;fill-opacity:1" d="M27.719 20.906q-2.075.175-4.125.25h-.125a15 15 0 0 0-2.25.125h-.813q-4.25.123-8.5 0-.83.03-1.625-.062-.45-.076-.937-.094.765-.041 1.531-.094c4.238.164 8.48.157 12.719-.031a46 46 0 0 1 4.5-.187 1.2 1.2 0 0 0-.375.093"/>
  <path style="stroke:none;fill-rule:evenodd;fill:#a58c52;fill-opacity:1" d="M27.719 20.906h.187a.2.2 0 0 1-.125.094 60 60 0 0 1-3.25.156h-.937a87 87 0 0 0 4.125-.25"/>
  <path style="stroke:none;fill-rule:evenodd;fill:#0a245c;fill-opacity:1" d="M6.219 20.969a15.5 15.5 0 0 1 2.687.062 1.6 1.6 0 0 1-.625.063Zm0 0"/>
  <path style="stroke:none;fill-rule:evenodd;fill:#585558;fill-opacity:1" d="M5.281 20.969h.938l2.062.125v.062q-1.5-.064-3-.187"/>
  <path style="stroke:none;fill-rule:evenodd;fill:#bc9c51;fill-opacity:1" d="M2.719 20.781q1.159.048 2.312.188-.656.016-1.312-.032a3.4 3.4 0 0 1-1-.156"/>
  <path style="stroke:none;fill-rule:evenodd;fill:#7c7055;fill-opacity:1" d="M29.844 20.719v.062q-.81.08-1.625.125a.5.5 0 0 1 .25-.093q.688-.054 1.375-.094"/>
  <path style="stroke:none;fill-rule:evenodd;fill:#af9351;fill-opacity:1" d="M30.781 20.656q-.446.13-.937.125v-.062q.469-.04.937-.063"/>
  <path style="stroke:none;fill-rule:evenodd;fill:#5b6268;fill-opacity:1" d="M6.406 21.531c.438.035.875.059 1.313.063v.062q-.594.017-1.188-.031a.2.2 0 0 1-.125-.094"/>
  <path style="stroke:none;fill-rule:evenodd;fill:#757263;fill-opacity:1" d="M7.719 21.594q.61.017 1.187.125-.61.03-1.187-.063Zm0 0"/>
  <path style="stroke:none;fill-rule:evenodd;fill:#5b6069;fill-opacity:1" d="M26.094 21.531a30 30 0 0 1-3.625.25l1.125-.125a89 89 0 0 1 2.5-.125"/>
  <path style="stroke:none;fill-rule:evenodd;fill:#9a895c;fill-opacity:1" d="m23.594 21.656-1.125.125h-1v-.062a30 30 0 0 1 2.125-.063"/>
  <path style="stroke:none;fill-rule:evenodd;fill:#d3ad51;fill-opacity:1" d="M21.469 21.719v.062h-.5q-3.875.111-7.75 0 4.125.007 8.25-.062"/>
  <path style="stroke:none;fill-rule:evenodd;fill:#656866;fill-opacity:1" d="M11.594 21.781h1.625q3.875.111 7.75 0l-1.125.125h-7.625a1.25 1.25 0 0 1-.625-.125"/>
  <path style="stroke:none;fill-rule:evenodd;fill:#093076;fill-opacity:1" d="M12.219 21.906h7.625q.375-.016.75.032l-.125.062q-3.687.064-7.375 0a6 6 0 0 1-.875-.094"/>
  <path style="stroke:none;fill-rule:evenodd;fill:#5f6359;fill-opacity:1" d="M15.344 24.219a5 5 0 0 0-1.063.062.14.14 0 0 1 .063-.093c.344-.051.68-.04 1 .03"/>
  <path style="stroke:none;fill-rule:evenodd;fill:#5b5f5b;fill-opacity:1" d="M19.719 24.344h-.125a1.45 1.45 0 0 0-.688-.125c-.18 0-.343.02-.5.062h-.125a.14.14 0 0 1 .063-.093 5.5 5.5 0 0 1 1.187 0q.135.034.188.156"/>
  <path style="stroke:none;fill-rule:evenodd;fill:#be9f32;fill-opacity:1" d="M18.406 24.281c.157-.043.32-.062.5-.062a1.45 1.45 0 0 1 .688.125q-.592-.075-1.188-.063"/>
  <path style="stroke:none;fill-rule:evenodd;fill:#a18c41;fill-opacity:1" d="M24.219 24.281a14 14 0 0 0-1.688.063q.415-.217.907-.188.414-.011.78.125"/>
  <path style="stroke:none;fill-rule:evenodd;fill:#a28c41;fill-opacity:1" d="M11.031 24.281v.063a3.2 3.2 0 0 0-1.25 0l.125-.125a2.1 2.1 0 0 1 1.125.062"/>
  <path style="stroke:none;fill-rule:evenodd;fill:#555b5e;fill-opacity:1" d="M11.031 24.344v-.063q.14-.008.188.125a.36.36 0 0 1-.188-.062"/>
  <path style="stroke:none;fill-rule:evenodd;fill:#464d68;fill-opacity:1" d="M15.344 24.219c.207.062.414.117.625.156-.043.063-.043.133 0 .219z"/>
  <path style="stroke:none;fill-rule:evenodd;fill:#7c7250;fill-opacity:1" d="m18.281 24.281-.375.188q.112-.235.375-.188"/>
  <path style="stroke:none;fill-rule:evenodd;fill:#585d5c;fill-opacity:1" d="M19.781 24.344a.18.18 0 0 1 .157.062c.046.098.039.18-.032.25a.37.37 0 0 0-.125-.312"/>
  <path style="stroke:none;fill-rule:evenodd;fill:#b69937;fill-opacity:1" d="M24.281 24.281q.24.022.438.125a.54.54 0 0 1-.438-.125"/>
  <path style="stroke:none;fill-rule:evenodd;fill:#595c5e;fill-opacity:1" d="M11.219 24.406q.25.063.312.313a1.1 1.1 0 0 1-.312-.313"/>
  <path style="stroke:none;fill-rule:evenodd;fill:#726e53;fill-opacity:1" d="M14.031 24.344q-.047.133-.187.125.047-.134.187-.125"/>
  <path style="stroke:none;fill-rule:evenodd;fill:#f7c01b;fill-opacity:1" d="M15.344 24.219c.203.125.414.25.625.375q-.008.14.125.187-.008.141.125.188.093.386.062.812l-.187.375q-.134.048-.125.188l-.25.187a.41.41 0 0 0-.313.188 5 5 0 0 0-.687.187h-1.375a.8.8 0 0 0 .062.438q-.015.094.063.125.26.914 1.187.656a2.3 2.3 0 0 0 .688-.25.26.26 0 0 1 .25 0q.146.345.094.719a6 6 0 0 1-.344.187.7.7 0 0 0-.313.125h-.312a18 18 0 0 1-1.313-.062h-.062q-.047-.134-.188-.125a.7.7 0 0 1-.281-.188 4.8 4.8 0 0 1-.469-.937q-.016-.503.031-1 .126-.301.157-.625v-.063q.133-.046.125-.187c.12-.063.183-.164.187-.313a.3.3 0 0 0 .188-.25q.25-.187.437-.437a.48.48 0 0 1 .313-.25q.14.008.187-.125l.25-.063a5 5 0 0 1 1.063-.062m2.937.062h.125q.597-.013 1.188.063h.187q.136.124.125.312a8 8 0 0 0-.218.5.28.28 0 0 1-.22.063.4.4 0 0 0-.312-.157.9.9 0 0 0-.562.032h-.063c-.144.02-.23.105-.25.25a.55.55 0 0 0-.031.437q.576.434 1.094.938-.008.14.125.187.063 0 .062.063c.043.27.067.539.063.812a.7.7 0 0 0-.125.313v.062q-.134.048-.125.188a2.4 2.4 0 0 1-.875.562 3.4 3.4 0 0 1-1.25 0 .45.45 0 0 0-.375-.125q-.048-.133-.188-.125.077-.346.188-.687.023-.059.093-.063.23.105.47.188c.198.129.41.148.624.062.157-.066.301-.152.438-.25a.14.14 0 0 0 .093-.062 1.24 1.24 0 0 0 0-.563.14.14 0 0 0-.093-.062.4.4 0 0 1-.188-.188q-.046-.133-.187-.125-.096.016-.125-.062a.3.3 0 0 0-.25-.188l-.313-.25a2 2 0 0 0-.125-.375 6 6 0 0 1 .063-1q.187-.375.562-.562z"/>
  <path style="stroke:none;fill-rule:evenodd;fill:#a28a41;fill-opacity:1" d="M22.531 24.344a.68.68 0 0 1-.5.187.68.68 0 0 1 .5-.187"/>
  <path style="stroke:none;fill-rule:evenodd;fill:#f8c01b;fill-opacity:1" d="M9.031 24.594q-.086.098-.062.25.158.018.187-.125a.3.3 0 0 1 .25-.188.3.3 0 0 0 .25-.187h.125a3.2 3.2 0 0 1 1.25 0q.082.057.188.062.124.188.312.313.078.03.063.125-.008.14.125.187.002.194.062.375.007.69-.062 1.375v.188c-.102.05-.14.133-.125.25a3.04 3.04 0 0 1-1.688 1.687h-.25a20 20 0 0 0-1.375 0 5 5 0 0 1-.062.625q-.223.428-.188.938.016.094-.062.125h-.875c.043-.246.062-.5.062-.75q.147-.54.188-1.125a.42.42 0 0 0 .062-.313 2 2 0 0 0 .188-.562q.146-.38.125-.813.082-.497.125-1 .109-.259.125-.562a.6.6 0 0 1 .062-.375q.154-.345.125-.75.42-.106.875-.032.123.153 0 .282"/>
  <path style="stroke:none;fill-rule:evenodd;fill:#877b4b;fill-opacity:1" d="M9.656 24.344a.3.3 0 0 1-.25.187.3.3 0 0 1 .25-.187"/>
  <path style="stroke:none;fill-rule:evenodd;fill:#f8c01b;fill-opacity:1" d="M24.219 24.281h.062a.54.54 0 0 0 .438.125q.087.1.062.25a.2.2 0 0 0-.093.125 2 2 0 0 0-.032.5.45.45 0 0 0-.125.375l-.125.875a.7.7 0 0 0-.125.438 4.4 4.4 0 0 0-.062.75 2.6 2.6 0 0 0-.125 1.125h-.813c.02-.211 0-.422-.062-.625q-.059.01-.063.062a.3.3 0 0 0-.187.25c-.23.157-.485.285-.75.375a7 7 0 0 1-1.125-.062q-.048-.134-.188-.125a1.1 1.1 0 0 1-.312-.313q.008-.14-.125-.187v-.125a5.5 5.5 0 0 1 0-1.563q-.024-.15.062-.25a.78.78 0 0 0 .25-.5q.134-.046.125-.187a.3.3 0 0 1 .188-.25q.25-.187.437-.438a.47.47 0 0 0 .313-.25q.14.008.187-.125a.68.68 0 0 0 .5-.187 14 14 0 0 1 1.688-.063"/>
  <path style="stroke:none;fill-rule:evenodd;fill:#8b7c4a;fill-opacity:1" d="M22.031 24.531q-.046.134-.187.125.046-.133.187-.125"/>
  <path style="stroke:none;fill-rule:evenodd;fill:#9f8743;fill-opacity:1" d="M15.969 24.594q.133.046.125.187-.134-.046-.125-.187"/>
  <path style="stroke:none;fill-rule:evenodd;fill:#b0933a;fill-opacity:1" d="M9.031 24.594q.001.124.125.125-.03.143-.187.125-.024-.152.062-.25"/>
  <path style="stroke:none;fill-rule:evenodd;fill:#9f8942;fill-opacity:1" d="M13.531 24.719q-.187.25-.437.437a.76.76 0 0 1 .437-.437"/>
  <path style="stroke:none;fill-rule:evenodd;fill:#b3963a;fill-opacity:1" d="M21.844 24.656a.47.47 0 0 1-.313.25.47.47 0 0 1 .313-.25"/>
  <path style="stroke:none;fill-rule:evenodd;fill:#263975;fill-opacity:1" d="M8.031 24.594v.5a.6.6 0 0 0-.062.375.9.9 0 0 0-.125.562q-.042.503-.125 1-.11.258-.125.563-.064 0-.063.062c-.101.07-.14.032-.125-.125q.3-1.56.563-3.125a.19.19 0 0 1 .062.188"/>
  <path style="stroke:none;fill-rule:evenodd;fill:#123379;fill-opacity:1" d="M11.844 26.469v-.125c.07-.32.082-.657.031-1a.6.6 0 0 0-.156-.313q.008-.14-.125-.187.015-.096-.063-.125a.4.4 0 0 0-.312-.313q-.047-.133-.188-.125a2.1 2.1 0 0 0-1.125-.062.19.19 0 0 1-.187-.063c1.152-.383 1.914.016 2.281 1.188a4 4 0 0 1-.094 1.5.63.63 0 0 1-.062-.375"/>
  <path style="stroke:none;fill-rule:evenodd;fill:#8b7d4a;fill-opacity:1" d="M16.094 24.781q.133.048.125.188-.134-.048-.125-.188"/>
  <path style="stroke:none;fill-rule:evenodd;fill:#887b4b;fill-opacity:1" d="M11.594 24.844q.133.046.125.187-.134-.046-.125-.187"/>
  <path style="stroke:none;fill-rule:evenodd;fill:#756f52;fill-opacity:1" d="M24.781 24.656q-.024.333-.125.625-.016-.253.032-.5a.2.2 0 0 1 .093-.125"/>
  <path style="stroke:none;fill-rule:evenodd;fill:#8d7e48;fill-opacity:1" d="M8.156 24.344q.029.405-.125.75v-.5Zm0 0"/>
  <path style="stroke:none;fill-rule:evenodd;fill:#646557;fill-opacity:1" d="M14.969 25.094a2.1 2.1 0 0 0-.625.062.14.14 0 0 1 .062-.093q.3-.076.563.03"/>
  <path style="stroke:none;fill-rule:evenodd;fill:#616359;fill-opacity:1" d="M18.594 25.094a.9.9 0 0 1 .562-.032.4.4 0 0 1 .313.157 2.5 2.5 0 0 0-.875-.125"/>
  <path style="stroke:none;fill-rule:evenodd;fill:#6c6a55;fill-opacity:1" d="M23.594 25.094a3 3 0 0 0-1 .125.6.6 0 0 1 .312-.157q.361-.075.688.032"/>
  <path style="stroke:none;fill-rule:evenodd;fill:#716b55;fill-opacity:1" d="M10.594 25.219a3.3 3.3 0 0 0-.813-.063q.427-.253.813.063"/>
  <path style="stroke:none;fill-rule:evenodd;fill:#a18b43;fill-opacity:1" d="M21.531 24.906q-.187.251-.437.438a.76.76 0 0 1 .437-.438"/>
  <path style="stroke:none;fill-rule:evenodd;fill:#5a5c5e;fill-opacity:1" d="M18.531 25.094a.7.7 0 0 1-.25.25c.02-.145.106-.23.25-.25"/>
  <path style="stroke:none;fill-rule:evenodd;fill:#1b3b73;fill-opacity:1" d="M9.781 25.156q.413-.018.813.063l.125.187c.074.434.074.88 0 1.313a.7.7 0 0 0-.125.312v.063a.41.41 0 0 0-.188.312q-.133.048-.125.188c-.144.125-.293.25-.437.375-.317.14-.653.203-1 .187q-.095.016-.125-.062a.37.37 0 0 1-.125-.282q.077-.42.125-.843c.023-.211.062-.422.125-.625a.56.56 0 0 0 .187-.375q.134-.048.125-.188a.7.7 0 0 1 .313-.375.47.47 0 0 0 .312-.25"/>
  <path style="stroke:none;fill-rule:evenodd;fill:#ac903d;fill-opacity:1" d="M13.094 25.156a.3.3 0 0 1-.188.25.3.3 0 0 1 .188-.25"/>
  <path style="stroke:none;fill-rule:evenodd;fill:#1b3a74;fill-opacity:1" d="M14.969 25.094q.23-.023.312.187.01.253-.062.5a.42.42 0 0 0-.25.188l-.688.125h-.625v-.188a.8.8 0 0 0 .25-.375.95.95 0 0 1 .438-.375 2.1 2.1 0 0 1 .625-.062"/>
  <path style="stroke:none;fill-rule:evenodd;fill:#1c3b73;fill-opacity:1" d="M23.594 25.094a4.7 4.7 0 0 1-.782 2.562q-.162.165-.343.313a1.6 1.6 0 0 1-.75.125q-.064 0-.063-.063a.4.4 0 0 0-.187-.187.43.43 0 0 1-.063-.25 4.1 4.1 0 0 1 .125-1.188 1.7 1.7 0 0 1 .188-.312.47.47 0 0 0 .25-.313.7.7 0 0 0 .25-.25q0-.063.062-.062a.47.47 0 0 0 .313-.25 3 3 0 0 1 1-.125"/>
  <path style="stroke:none;fill-rule:evenodd;fill:#505462;fill-opacity:1" d="M9.781 25.156a.47.47 0 0 1-.312.25.47.47 0 0 1 .312-.25"/>
  <path style="stroke:none;fill-rule:evenodd;fill:#494f66;fill-opacity:1" d="M22.594 25.219a.47.47 0 0 1-.313.25.47.47 0 0 1 .313-.25"/>
  <path style="stroke:none;fill-rule:evenodd;fill:#b99937;fill-opacity:1" d="M17.344 25.031q-.072.497-.063 1a1.6 1.6 0 0 1-.062-.625.45.45 0 0 1 .125-.375"/>
  <path style="stroke:none;fill-rule:evenodd;fill:#877b4b;fill-opacity:1" d="M24.656 25.281a.45.45 0 0 1-.125.375.45.45 0 0 1 .125-.375"/>
  <path style="stroke:none;fill-rule:evenodd;fill:#a78f41;fill-opacity:1" d="M12.906 25.406c-.004.149-.066.25-.187.313a.41.41 0 0 1 .187-.313"/>
  <path style="stroke:none;fill-rule:evenodd;fill:#585b5f;fill-opacity:1" d="M22.219 25.531a.7.7 0 0 1-.25.25c.02-.144.105-.23.25-.25"/>
  <path style="stroke:none;fill-rule:evenodd;fill:#6f6c53;fill-opacity:1" d="M11.719 25.031a.6.6 0 0 1 .156.313c.05.343.04.68-.031 1q.03-.486-.063-.938a1.2 1.2 0 0 1-.062-.375"/>
  <path style="stroke:none;fill-rule:evenodd;fill:#948245;fill-opacity:1" d="M15.281 25.281a.4.4 0 0 1 .063.219q.016.188-.125.281.072-.247.062-.5"/>
  <path style="stroke:none;fill-rule:evenodd;fill:#8d7d48;fill-opacity:1" d="M20.906 25.594q.008.14-.125.187-.008-.14.125-.187"/>
  <path style="stroke:none;fill-rule:evenodd;fill:#cca62d;fill-opacity:1" d="M11.781 25.406q.093.452.063.938v.125l-.125.312q.07-.685.062-1.375"/>
  <path style="stroke:none;fill-rule:evenodd;fill:#51595f;fill-opacity:1" d="M7.969 25.469q-.016.304-.125.562a.9.9 0 0 1 .125-.562"/>
  <path style="stroke:none;fill-rule:evenodd;fill:#5e605c;fill-opacity:1" d="M12.719 25.719q.008.14-.125.187-.008-.14.125-.187"/>
  <path style="stroke:none;fill-rule:evenodd;fill:#464c67;fill-opacity:1" d="M13.906 25.531a.8.8 0 0 1-.25.375.48.48 0 0 1 .25-.375"/>
  <path style="stroke:none;fill-rule:evenodd;fill:#4a5066;fill-opacity:1" d="M21.969 25.781a.47.47 0 0 1-.25.313.47.47 0 0 1 .25-.313"/>
  <path style="stroke:none;fill-rule:evenodd;fill:#595d5e;fill-opacity:1" d="M9.156 25.781q.008.141-.125.188-.008-.141.125-.188"/>
  <path style="stroke:none;fill-rule:evenodd;fill:#4f5562;fill-opacity:1" d="M16.281 25.781q.048.264-.187.375z"/>
  <path style="stroke:none;fill-rule:evenodd;fill:#5c615b;fill-opacity:1" d="M10.719 25.406a.5.5 0 0 1 .125.188q.013.533-.063 1.062 0 .064-.062.063a3.9 3.9 0 0 0 0-1.313"/>
  <path style="stroke:none;fill-rule:evenodd;fill:#4e5463;fill-opacity:1" d="M17.219 25.406q-.03.333.062.625.084.181.125.375a1 1 0 0 1-.218-.312q-.076-.361.03-.688"/>
  <path style="stroke:none;fill-rule:evenodd;fill:#646656;fill-opacity:1" d="M13.656 25.906v.188h.625a1.9 1.9 0 0 1-.687.062v-.187q0-.064.062-.063"/>
  <path style="stroke:none;fill-rule:evenodd;fill:#d7ad2a;fill-opacity:1" d="M13.594 25.969v.187q.364.03.687-.062l.688-.125a.64.64 0 0 1-.5.218 7 7 0 0 1-.938.032q-.024-.152.063-.25"/>
  <path style="stroke:none;fill-rule:evenodd;fill:#a28a42;fill-opacity:1" d="M20.781 25.781a.78.78 0 0 1-.25.5.8.8 0 0 1 .25-.5"/>
  <path style="stroke:none;fill-rule:evenodd;fill:#666459;fill-opacity:1" d="M16.094 26.156q.008.141-.125.188-.008-.141.125-.188"/>
  <path style="stroke:none;fill-rule:evenodd;fill:#756e52;fill-opacity:1" d="M9.031 25.969a.56.56 0 0 1-.187.375.56.56 0 0 1 .187-.375"/>
  <path style="stroke:none;fill-rule:evenodd;fill:#c8a62d;fill-opacity:1" d="M10.844 25.594q.063.201.062.437a1.24 1.24 0 0 1-.125.625q.075-.528.063-1.062"/>
  <path style="stroke:none;fill-rule:evenodd;fill:#585c5e;fill-opacity:1" d="M15.719 26.531c-.063.121-.164.184-.313.188a.41.41 0 0 1 .313-.188"/>
  <path style="stroke:none;fill-rule:evenodd;fill:#a88f3e;fill-opacity:1" d="M17.719 26.656a.3.3 0 0 1 .25.188.3.3 0 0 1-.25-.188"/>
  <path style="stroke:none;fill-rule:evenodd;fill:#495363;fill-opacity:1" d="M15.406 26.719q-.3.222-.687.187a5 5 0 0 1 .687-.187"/>
  <path style="stroke:none;fill-rule:evenodd;fill:#9f8942;fill-opacity:1" d="M19.344 26.719q.133.046.125.187-.134-.046-.125-.187"/>
  <path style="stroke:none;fill-rule:evenodd;fill:#928048;fill-opacity:1" d="M10.719 26.719q.034.206-.125.312a.7.7 0 0 1 .125-.312"/>
  <path style="stroke:none;fill-rule:evenodd;fill:#bd9c34;fill-opacity:1" d="M14.219 26.906a2.7 2.7 0 0 1-.813.063v.375a.8.8 0 0 1-.062-.438Zm0 0"/>
  <path style="stroke:none;fill-rule:evenodd;fill:#9f8842;fill-opacity:1" d="M18.094 26.906q.14-.008.187.125-.14.008-.187-.125"/>
  <path style="stroke:none;fill-rule:evenodd;fill:#7e754d;fill-opacity:1" d="M24.406 26.531v.125a.7.7 0 0 1-.125.313.7.7 0 0 1 .125-.438"/>
  <path style="stroke:none;fill-rule:evenodd;fill:#5e615b;fill-opacity:1" d="M12.594 25.969a2.2 2.2 0 0 1-.156.625 8 8 0 0 0-.032 1 2.43 2.43 0 0 1 .188-1.625"/>
  <path style="stroke:none;fill-rule:evenodd;fill:#585e5c;fill-opacity:1" d="M14.219 26.906h.5a4 4 0 0 1-1.25.125v.438q-.078-.031-.063-.125v-.375q.427.03.813-.063"/>
  <path style="stroke:none;fill-rule:evenodd;fill:#9b8742;fill-opacity:1" d="M11.719 26.969a.37.37 0 0 1-.125.25q-.026-.175.125-.25"/>
  <path style="stroke:none;fill-rule:evenodd;fill:#aa903c;fill-opacity:1" d="M20.406 26.531h.063a5.5 5.5 0 0 0 0 1.563 1.8 1.8 0 0 1-.125-.75c.011-.274.035-.543.062-.813"/>
  <path style="stroke:none;fill-rule:evenodd;fill:#84794a;fill-opacity:1" d="M21.531 26.406c-.101.387-.14.79-.125 1.188a1.67 1.67 0 0 1 .125-1.188"/>
  <path style="stroke:none;fill-rule:evenodd;fill:#585e5c;fill-opacity:1" d="M19.531 26.969q.145.2.125.468a.9.9 0 0 1-.062.344 4.7 4.7 0 0 0-.063-.812"/>
  <path style="stroke:none;fill-rule:evenodd;fill:#777052;fill-opacity:1" d="M8.719 26.969q-.048.421-.125.843.001.171.125.282a.18.18 0 0 1-.156-.063 1.8 1.8 0 0 1 .156-1.062"/>
  <path style="stroke:none;fill-rule:evenodd;fill:#b5983c;fill-opacity:1" d="M10.594 27.094q-.006.22-.188.312a.41.41 0 0 1 .188-.312"/>
  <path style="stroke:none;fill-rule:evenodd;fill:#c7a331;fill-opacity:1" d="M7.719 27.031q.021.434-.125.813v-.25q.014-.304.125-.563"/>
  <path style="stroke:none;fill-rule:evenodd;fill:#a18b42;fill-opacity:1" d="M10.406 27.406q.008.141-.125.188-.008-.141.125-.188"/>
  <path style="stroke:none;fill-rule:evenodd;fill:#1f3776;fill-opacity:1" d="M20.406 26.531q-.042.406-.062.813-.017.398.125.75v.125q-.008.14.125.187-.03.074-.094.125a1.22 1.22 0 0 1-.312-.75c-.07-.496-.02-.972.156-1.437a.19.19 0 0 1 .062.187"/>
  <path style="stroke:none;fill-rule:evenodd;fill:#7e754e;fill-opacity:1" d="M18.469 27.219a.14.14 0 0 1 .093.062q.064.281 0 .563a.14.14 0 0 1-.093.062 1 1 0 0 0 0-.687"/>
  <path style="stroke:none;fill-rule:evenodd;fill:#978346;fill-opacity:1" d="M21.469 27.844a.4.4 0 0 1 .187.187q-.187 0-.187-.187"/>
  <path style="stroke:none;fill-rule:evenodd;fill:#525960;fill-opacity:1" d="M19.594 27.781q.034.206-.125.313a.7.7 0 0 1 .125-.313"/>
  <path style="stroke:none;fill-rule:evenodd;fill:#ab913e;fill-opacity:1" d="M22.469 27.969q-.035.133-.188.156.152-.023.188-.156"/>
  <path style="stroke:none;fill-rule:evenodd;fill:#b19439;fill-opacity:1" d="M9.844 27.969a1.06 1.06 0 0 1-1 .187q.522.023 1-.187"/>
  <path style="stroke:none;fill-rule:evenodd;fill:#ae923a;fill-opacity:1" d="M17.406 28.094q.31.051.625.062a.65.65 0 0 1-.625-.062"/>
  <path style="stroke:none;fill-rule:evenodd;fill:#1f3776;fill-opacity:1" d="M24.406 26.656a.6.6 0 0 1 .063.282q-.082.952-.157 1.906l-.062.062a3.7 3.7 0 0 1-.031-.687v-.5c0-.25.02-.504.062-.75a.7.7 0 0 0 .125-.313"/>
  <path style="stroke:none;fill-rule:evenodd;fill:#545b5e;fill-opacity:1" d="M19.469 28.156q.008.141-.125.188-.008-.141.125-.188"/>
  <path style="stroke:none;fill-rule:evenodd;fill:#83784b;fill-opacity:1" d="M7.594 27.594v.25a2 2 0 0 1-.188.562q.042-.381.125-.75 0-.063.063-.062"/>
  <path style="stroke:none;fill-rule:evenodd;fill:#646458;fill-opacity:1" d="M20.469 28.219q.133.046.125.187-.134-.046-.125-.187"/>
  <path style="stroke:none;fill-rule:evenodd;fill:#a98e40;fill-opacity:1" d="M16.844 27.969a7 7 0 0 0-.188.687q-.103-.104-.031-.25.095-.228.219-.437"/>
  <path style="stroke:none;fill-rule:evenodd;fill:#535960;fill-opacity:1" d="M23.156 28.281q.093.264.063.563a1.5 1.5 0 0 1-.094-.438.44.44 0 0 1-.156.125.3.3 0 0 1 .187-.25"/>
  <path style="stroke:none;fill-rule:evenodd;fill:#958246;fill-opacity:1" d="M16.656 28.656q.141-.008.188.125-.141.008-.188-.125"/>
  <path style="stroke:none;fill-rule:evenodd;fill:#a48b40;fill-opacity:1" d="M24.219 27.719v.5l-.125.625q-.058-.605.125-1.125"/>
  <path style="stroke:none;fill-rule:evenodd;fill:#123378;fill-opacity:1" d="M7.281 28.719q-.104.556-.125 1.125l-.125.375a18 18 0 0 0-.125.437 7.8 7.8 0 0 1 .282-1.937q.064-.117.093 0"/>
  <path style="stroke:none;fill-rule:evenodd;fill:#7b7550;fill-opacity:1" d="M13.156 28.719q.14-.008.188.125-.14.008-.188-.125"/>
  <path style="stroke:none;fill-rule:evenodd;fill:#ad913d;fill-opacity:1" d="M16.844 28.781a.45.45 0 0 1 .375.125h-.25Zm0 0"/>
  <path style="stroke:none;fill-rule:evenodd;fill:#9d8841;fill-opacity:1" d="M20.906 28.719q.141-.008.188.125-.141.008-.188-.125"/>
  <path style="stroke:none;fill-rule:evenodd;fill:#5a5b5e;fill-opacity:1" d="M15.344 28.781q-.106.16-.313.125a.7.7 0 0 1 .313-.125"/>
  <path style="stroke:none;fill-rule:evenodd;fill:#bb9b34;fill-opacity:1" d="M23.156 28.281q.005-.051.063-.062c.062.203.082.414.062.625h.813a1.6 1.6 0 0 1-.875 0q.03-.3-.063-.563"/>
  <path style="stroke:none;fill-rule:evenodd;fill:#c4a032;fill-opacity:1" d="M8.281 28.906q.688-.023 1.375 0a4.6 4.6 0 0 1-1.062.063H8.53q-.098-.087-.25-.063"/>
  <path style="stroke:none;fill-rule:evenodd;fill:#cca52e;fill-opacity:1" d="M13.406 28.906v-.062q.656.054 1.313.062a3.5 3.5 0 0 1-1.25 0Zm0 0"/>
  <path style="stroke:none;fill-rule:evenodd;fill:#ac903f;fill-opacity:1" d="M21.094 28.844q.556.075 1.125.062a.14.14 0 0 1-.063.094 1.48 1.48 0 0 1-1.062-.156"/>
  <path style="stroke:none;fill-rule:evenodd;fill:#6a6856;fill-opacity:1" d="M9.656 28.906h.25v.063a3.7 3.7 0 0 1-1.312 0q.549.03 1.062-.063"/>
  <path style="stroke:none;fill-rule:evenodd;fill:#60625a;fill-opacity:1" d="M13.469 28.906q.64.111 1.25 0h.25v.063a7 7 0 0 1-.75.062q-.405.023-.75-.125"/>
  <path style="stroke:none;fill-rule:evenodd;fill:#092f7b;fill-opacity:1" d="M8.531 28.969h.063q.645.117 1.312 0 .052.005.063.062-.676.182-1.375.094a.4.4 0 0 1-.188-.094q.042-.075.125-.062"/>
  <path style="stroke:none;fill-rule:evenodd;fill:#072e7c;fill-opacity:1" d="M13.406 28.906h.063q.345.147.75.125.381-.01.75-.062a.16.16 0 0 1 .125.031 2.3 2.3 0 0 1-1.813-.062.16.16 0 0 1 .125-.032"/>
  <path style="stroke:none;fill-rule:evenodd;fill:#082f7b;fill-opacity:1" d="M16.969 28.906h.125q.316.145.687.125.346-.01.688-.062.457-.152.125.093a2.6 2.6 0 0 1-1.75-.125.16.16 0 0 1 .125-.03"/>
  <path style="stroke:none;fill-rule:evenodd;fill:#636558;fill-opacity:1" d="M17.094 28.906h.125q.622.117 1.25 0v.063a6 6 0 0 1-.688.062 1.45 1.45 0 0 1-.687-.125"/>
  <path style="stroke:none;fill-rule:evenodd;fill:#696856;fill-opacity:1" d="M7.281 28.719h.063q-.042.585-.188 1.125.022-.57.125-1.125"/>
  <path style="stroke:none;fill-rule:evenodd;fill:#908147;fill-opacity:1" d="M8.219 29.531q-.047.491-.188.938-.034-.51.188-.938"/>
  <path style="stroke:none;fill-rule:evenodd;fill:#b5973a;fill-opacity:1" d="M7.156 29.844c0 .25-.02.504-.062.75h.875a.14.14 0 0 1-.063.093 6 6 0 0 1-.875.032v-.5Zm0 0"/>
  <use xlink:href="#f" mask="url(#g)"/>
</svg>
