<svg width="32" height="32" viewBox="0 0 32 32" fill="none" xmlns="http://www.w3.org/2000/svg"><g clip-path="url(#a)" transform="translate(3 -5)scale(1.23077)" style="transform-origin:13px 5px"><path d="M0 5h26v13.241a9.51 9.51 0 0 1-4.75 8.23L13 31.331l-8.241-4.86a9.49 9.49 0 0 1-4.746-8.23V5z" fill="#FFDD2D"/><path fill-rule="evenodd" clip-rule="evenodd" d="M7 11.968v4.115c.568-.631 1.59-1.06 2.752-1.06h1.275v4.783c0 1.275-.341 2.386-.859 3.004h5.662c-.518-.618-.83-1.729-.83-3.004v-4.784h1.24c1.174 0 2.205.43 2.76 1.06v-4.114z" fill="#333"/></g><defs><clipPath id="a"><path fill="#fff" d="M0 0h152v34H0z"/></clipPath></defs></svg>
