<svg xmlns="http://www.w3.org/2000/svg" width="32" height="32" viewBox="0 0 32 32"><path style="stroke:none;fill-rule:nonzero;fill:#3d3d3c;fill-opacity:1" d="M2.207 19.555h.211l-.195.816c-.032.117-.024.211.015.274q.06.088.223.09.166-.002.266-.09a.54.54 0 0 0 .148-.274l.195-.816h.215l-.2.836a.7.7 0 0 1-.233.406.67.67 0 0 1-.438.137q-.268.001-.367-.133-.102-.136-.04-.406Zm1.047 1.34.332-1.395.633.82q.029.035.05.075.028.035.055.09l.223-.93h.195l-.332 1.39-.644-.836q-.03-.035-.051-.07c-.016-.027-.031-.05-.04-.078l-.222.93h-.2Zm1.473 0 .32-1.34h.21l-.316 1.34Zm.515 0 .32-1.34h.731l-.043.183h-.516l-.082.336h.516l-.047.188h-.516l-.148.629h-.215Zm.965 0 .32-1.34h.215l-.32 1.34Zm.52 0 .316-1.34h.73l-.043.183h-.515l-.078.34h.515l-.047.188H7.09l-.106.433H7.5l-.047.196Zm.973 0 .32-1.34h.289c.183 0 .316.008.386.027.067.023.13.05.176.098a.45.45 0 0 1 .117.226q.023.141-.02.317a.9.9 0 0 1-.132.316.7.7 0 0 1-.227.227.7.7 0 0 1-.218.097q-.12.031-.348.032Zm.26-.2h.18a1 1 0 0 0 .227-.02.4.4 0 0 0 .145-.066.6.6 0 0 0 .148-.164q.06-.095.09-.226a.6.6 0 0 0 .016-.223.3.3 0 0 0-.07-.164.3.3 0 0 0-.118-.066 1 1 0 0 0-.238-.02h-.152Zm1.99-.402-.145.602h-.2l.32-1.34h.325c.094 0 .16.004.207.015a.2.2 0 0 1 .102.055q.053.041.066.125a.4.4 0 0 1-.008.172.6.6 0 0 1-.074.18.6.6 0 0 1-.129.125.5.5 0 0 1-.129.054 1.3 1.3 0 0 1-.21.016h-.126Zm.054-.18h.055q.175.002.246-.039a.2.2 0 0 0 .093-.14c.016-.07.008-.125-.027-.149q-.054-.047-.219-.047h-.054Zm1.336.782-.067-.344h-.52l-.23.344h-.226l.969-1.395.3 1.395Zm-.457-.528h.363l-.062-.308q-.005-.03-.004-.067c-.004-.027-.004-.05-.004-.082l-.043.082q-.022.042-.043.07Zm.988.528.145-.614-.266-.722h.223l.168.453.011.047.02.062q.017-.032.039-.062.02-.03.039-.051l.39-.45h.212l-.622.723-.144.61h-.215Zm2.027-.661c0-.011.004-.043.012-.086.004-.043.004-.07.008-.097l-.043.094c-.016.027-.035.062-.059.093l-.511.715-.168-.73q-.011-.047-.016-.086l-.008-.082-.027.09a1 1 0 0 1-.04.093l-.3.66h-.195l.64-1.398.184.848a.4.4 0 0 1 .012.066l.015.117a2 2 0 0 1 .118-.183l.578-.848-.02 1.398h-.195Zm.356.661.316-1.34h.73l-.042.183h-.516l-.082.34h.52l-.047.188h-.516l-.105.433h.515l-.047.196Zm.973 0 .332-1.395.632.82.051.075q.023.035.051.09l.223-.93h.199l-.336 1.39-.645-.836c-.015-.023-.035-.047-.05-.07l-.04-.078-.222.93h-.195Zm2.168-1.157-.278 1.157h-.215l.278-1.157h-.348l.043-.187h.906l-.043.187Zm.222.887.188-.078c.004.058.02.105.058.137a.24.24 0 0 0 .153.046q.093-.002.164-.054a.24.24 0 0 0 .09-.145q.03-.118-.141-.207-.023-.019-.035-.02c-.13-.074-.207-.136-.242-.199a.3.3 0 0 1-.02-.21.46.46 0 0 1 .176-.266.48.48 0 0 1 .308-.106q.145 0 .23.059.084.054.095.16l-.184.09a.2.2 0 0 0-.066-.094.15.15 0 0 0-.098-.031.24.24 0 0 0-.148.047.2.2 0 0 0-.079.121q-.029.125.164.227.018.01.024.015a.6.6 0 0 1 .226.18q.049.085.02.219a.534.534 0 0 1-.535.418q-.165 0-.254-.082c-.066-.051-.098-.13-.094-.227m1.567.27.32-1.34h.215l-.32 1.34Zm.519 0 .336-1.395.633.82.047.075c.02.023.035.054.054.09l.223-.93h.195l-.332 1.39-.644-.836-.05-.07c-.017-.027-.032-.05-.04-.078l-.223.93h-.199Zm2.168-1.157-.273 1.157h-.215l.277-1.157h-.348l.043-.187h.907l-.043.187Zm.231 1.157.32-1.34h.734l-.043.183h-.52l-.077.34h.515l-.047.188h-.515l-.102.433h.516l-.047.196Zm1.316-.602-.145.602h-.199l.32-1.344h.297c.086 0 .153.008.196.015a.2.2 0 0 1 .11.059q.05.044.066.125a.5.5 0 0 1-.008.172.5.5 0 0 1-.137.25.42.42 0 0 1-.25.11l.305.613h-.243l-.289-.602Zm.055-.168h.039a.5.5 0 0 0 .234-.043c.043-.023.07-.07.09-.14q.024-.114-.023-.157-.054-.047-.211-.047h-.04Zm.629.77.32-1.34h.726l-.043.183h-.515l-.078.336h.515l-.047.188h-.515l-.152.629h-.211Zm1.758 0-.067-.344h-.52l-.234.344h-.223l.965-1.395.301 1.395Zm-.465-.528h.363l-.059-.308a.3.3 0 0 1-.008-.067v-.082a1 1 0 0 1-.046.082.3.3 0 0 1-.04.07Zm2.074-.488a.47.47 0 0 0-.367-.156.58.58 0 0 0-.383.14.65.65 0 0 0-.223.367c-.035.145-.02.262.047.36.062.094.164.14.297.14a.7.7 0 0 0 .23-.043 1 1 0 0 0 .23-.128l-.058.246a.7.7 0 0 1-.21.093 1 1 0 0 1-.227.032.65.65 0 0 1-.266-.051.45.45 0 0 1-.191-.149.5.5 0 0 1-.09-.226.6.6 0 0 1 .015-.281 1 1 0 0 1 .118-.278.9.9 0 0 1 .203-.226.85.85 0 0 1 .543-.2.6.6 0 0 1 .21.036.5.5 0 0 1 .176.101Zm.019 1.016.32-1.34h.727l-.043.183h-.515l-.079.34h.516l-.047.188h-.515l-.106.433h.52l-.047.196Zm0 0"/><path style="stroke:none;fill-rule:nonzero;fill:#70706e;fill-opacity:1" d="M23.61 18.383h-1.462l2.032-7.336h1.465Zm-.758-7.106q-.152-.21-.47-.21h-8.034l-.395 1.44h7.309l-.43 1.536h-5.844v-.004h-1.46l-1.216 4.379h1.465l.813-2.938h6.57q.31 0 .578-.21.27-.21.36-.52l.812-2.937c.063-.22.043-.395-.058-.536M11.46 17.926a.67.67 0 0 1-.644.492H3.277q-.31 0-.46-.211c-.098-.14-.122-.312-.063-.52l1.84-6.62h1.46l-1.64 5.917h5.848l1.64-5.918h1.465Zm0 0"/><path style="stroke:none;fill-rule:nonzero;fill:#098041;fill-opacity:1" d="m28.168 11.063 1.848 3.675-3.887 3.676Zm0 0"/><path style="stroke:none;fill-rule:nonzero;fill:#e97626;fill-opacity:1" d="m26.867 11.063 1.852 3.675-3.89 3.676Zm0 0"/></svg>
