<svg viewBox="0 0 24 24" fill="none" xmlns="http://www.w3.org/2000/svg">
<path d="M12.4211 15.8182C15.047 15.8182 16.5374 14.5455 17.9568 12.7071C18.7375 11.7172 19.7311 11.5051 20.4408 12.0707C21.1505 12.6364 21.2215 13.697 20.4408 14.6869C18.3827 17.3737 15.7567 19 12.4211 19C8.80165 19 5.60798 17.0202 3.4079 13.5556C2.76917 12.6364 2.91111 11.6465 3.62082 11.1515C4.33052 10.6566 5.39507 10.8687 6.03381 11.8586C7.59515 14.1919 9.72427 15.8182 12.4211 15.8182ZM17.3181 7.12121C17.3181 8.39394 16.3245 9.24242 15.189 9.24242C14.0535 9.24242 13.0599 8.39394 13.0599 7.12121C13.0599 5.84848 14.0535 5 15.189 5C16.3245 5 17.3181 5.91919 17.3181 7.12121Z" fill="#FF5B24"/>
</svg>
