<svg fill="none" xmlns="http://www.w3.org/2000/svg" viewBox="0 0 375 375"><path clip-rule="evenodd" d="M280.411 64.679c-4.605-33.46-32.804-58.417-66.142-58.417-33.262 0-61.538 24.88-66.066 58.417l-10.072 73.386-38.565-33.925a11.97 11.97 0 0 0-16.135.31 43.083 43.083 0 0 0-4.372 64.263l38.03 38.608-.077.078c6.907 8.27 10.753 19.11 8.45 32.45a30.898 30.898 0 0 0-.62 6.701l-1.845 13.496a94.497 94.497 0 0 0-.914 13.177c0 48.594 34.494 89.383 80.587 95.308 3.837.465 7.761 0 11.754 0h11.831c.457 0 .69-.854 1.147-.932 51.32-7.26 87.124-55.458 79.976-107.553z" fill="#010202" fill-rule="evenodd"/><path clip-rule="evenodd" d="M264.19 329.457c-21.205 0-38.409 17.472-38.409 38.996h76.828c0-21.524-17.213-38.996-38.419-38.996zm-100.025 0c-21.205 0-38.409 17.472-38.409 38.996h76.828c0-21.524-17.213-38.996-38.419-38.996z" fill="#f87900" fill-rule="evenodd"/><path clip-rule="evenodd" d="M191.977 57.27c-5.226 0-9.452 4.752-9.452 10.608 0 5.847 4.226 10.607 9.452 10.607 5.225 0 9.451-4.76 9.451-10.607-.077-5.856-4.303-10.607-9.451-10.607zm44.635 0c-5.226 0-9.451 4.752-9.451 10.608 0 5.847 4.225 10.607 9.451 10.607 5.226 0 9.452-4.76 9.452-10.607 0-5.856-4.226-10.607-9.452-10.607zm-22.43 268.6c27.346 0 49.551-37.59 49.551-83.994 0-46.404-22.205-84.002-49.55-84.002-27.355 0-49.552 37.598-49.552 84.002 0 46.404 22.197 83.994 49.551 83.994z" fill="#fff" fill-rule="evenodd"/><path clip-rule="evenodd" d="M213.95 89.79c-9.987 0-24.966 8.348-36.418 9.047-.535 0-.767.543-.767.94 0 .465.31.93.767 1.397 9.141 8.735 19.438 16.307 36.417 16.307 16.29 0 28.657-8.27 37.41-16.307.31-.31.31-1.087.31-1.397 0-.32-.155-.94-.767-.94-10.832-.699-26.966-9.047-36.953-9.047z" fill="#f87900" fill-rule="evenodd"/></svg>