<?xml version="1.0" encoding="utf-8"?>
<!-- Generator: Adobe Illustrator 28.1.0, SVG Export Plug-In . SVG Version: 6.00 Build 0)  -->
<svg version="1.1" id="Layer_1" xmlns="http://www.w3.org/2000/svg" xmlns:xlink="http://www.w3.org/1999/xlink" x="0px" y="0px"
	 viewBox="0 0 860 267" style="enable-background:new 0 0 860 267;" xml:space="preserve">
<style type="text/css">
	.st0{fill:#1D1C1C;}
	.st1{fill:url(#SVGID_1_);}
	.st2{fill:url(#SVGID_00000069396918960623941160000004056750964108482180_);}
</style>
<g>
	<path class="st0" d="M632.45,133.58c0-46.31,33.35-88.54,90.94-88.54c57.83,0,91.18,42.23,91.18,88.54s-33.35,88.54-91.18,88.54
		C665.81,222.13,632.45,179.89,632.45,133.58z M763.95,133.58c0-22.32-14.88-42.95-40.55-42.95c-25.44,0-40.55,20.64-40.55,42.95
		c0,22.32,15.12,42.95,40.55,42.95C749.07,176.53,763.95,155.9,763.95,133.58z"/>
	<path class="st0" d="M597.04,166.46c19.2-10.8,30.71-31.43,30.71-54.23c0-33.83-24.72-62.63-63.11-62.63h-80.62v167.97h49.91
		v-42.95h9.36l28.55,42.95h58.79L597.04,166.46z M554.57,135.98h-20.64V88.47h20.88c13.44,0,22.08,10.8,22.08,23.76
		C576.89,125.18,568.01,135.98,554.57,135.98z"/>
	<polygon class="st0" points="256.18,49.42 226.24,149.53 197.02,49.42 157.27,49.42 127.81,149.53 98.11,49.42 45.42,49.42 
		105.77,217.07 149.12,217.07 177.14,125.82 204.93,217.07 248.52,217.07 308.87,49.42 	"/>
	<path class="st0" d="M384.39,176.12c-0.04,0-0.08,0-0.12,0c-18.67,0-31.76-11.14-37.38-25.89H473.1h0.63
		c1.02-5.55,1.55-11.23,1.55-16.98c0-46.19-33.25-88.31-90.89-88.37v45.51c18.78,0.05,31.74,11.17,37.3,25.89H295.03
		c-1.01,5.55-1.53,11.23-1.53,16.98c0,46.22,33.29,88.38,90.77,88.38c0.04,0,0.08,0,0.12,0V176.12z"/>
	<g>
		<linearGradient id="SVGID_1_" gradientUnits="userSpaceOnUse" x1="446.3806" y1="122.8001" x2="368.613" y2="219.1391">
			<stop  offset="0.0243" style="stop-color:#1D1C1C;stop-opacity:0"/>
			<stop  offset="0.676" style="stop-color:#1D1C1C"/>
		</linearGradient>
		<path class="st1" d="M384.27,221.62c1.95,0,3.87-0.06,5.77-0.15c11.68-0.59,22.28-2.94,31.73-6.73c9.45-3.79,17.75-9,24.81-15.3
			c7.06-6.3,12.89-13.68,17.41-21.81c4.11-7.39,7.11-15.39,8.99-23.74h-52.85c-1.08,2.23-2.34,4.36-3.78,6.35
			c-1.97,2.72-4.28,5.19-6.9,7.32c-2.62,2.13-5.56,3.93-8.8,5.32c-3.24,1.39-6.77,2.37-10.59,2.86c-1.86,0.24-3.78,0.38-5.77,0.38
			c-11.89,0-21.52-4.53-28.39-11.62l-34.36,34.36C336.81,212.82,358.01,221.62,384.27,221.62z"/>
		
			<linearGradient id="SVGID_00000113341808564817285550000005434813961260818056_" gradientUnits="userSpaceOnUse" x1="310.3109" y1="144.3864" x2="390.2222" y2="64.475">
			<stop  offset="0.0243" style="stop-color:#1D1C1C;stop-opacity:0"/>
			<stop  offset="0.676" style="stop-color:#1D1C1C"/>
		</linearGradient>
		<path style="fill:url(#SVGID_00000113341808564817285550000005434813961260818056_);" d="M384.27,44.87
			c-48.75,0-80.1,30.32-88.5,67.74h52.7c6.3-12.89,18.71-22.23,35.8-22.23c13.62,0,24.19,5.82,31.1,14.62l34.67-34.67
			C434.56,54.81,412.29,44.87,384.27,44.87z"/>
	</g>
</g>
</svg>
