<svg xmlns="http://www.w3.org/2000/svg" xmlns:xlink="http://www.w3.org/1999/xlink" width="32" height="32" viewBox="0 0 32 32"><defs><clipPath id="b"><path d="M0 0h32v32H0z"/></clipPath><clipPath id="c"><path d="M0 0h32v32H0z"/></clipPath><clipPath id="d"><path d="M0 0h32v32H0z"/></clipPath><clipPath id="e"><path d="M0 0h32v32H0z"/></clipPath><mask id="g"><g filter="url(#a)"><path style="fill:#000;fill-opacity:.611765;stroke:none" d="M0 0h32v32H0z"/></g></mask><mask id="i"><g filter="url(#a)"><path style="fill:#000;fill-opacity:.611765;stroke:none" d="M0 0h32v32H0z"/></g></mask><mask id="k"><g filter="url(#a)"><path style="fill:#000;fill-opacity:.611765;stroke:none" d="M0 0h32v32H0z"/></g></mask><mask id="m"><g filter="url(#a)"><path style="fill:#000;fill-opacity:.611765;stroke:none" d="M0 0h32v32H0z"/></g></mask><g id="f" clip-path="url(#b)"><path style="stroke:none;fill-rule:nonzero;fill:#fff;fill-opacity:1" d="m13.68 29.516-.356.82h-.187l-.356-.82h.207l.25.586.254-.586Zm.625.547h-.477c.016.078.082.128.18.128.066 0 .113-.02.156-.062l.098.105q-.088.101-.258.102c-.219 0-.363-.137-.363-.324 0-.188.144-.325.34-.325.183 0 .328.125.328.329 0 .011-.004.03-.004.047m-.48-.106h.312c-.016-.082-.075-.133-.157-.133a.15.15 0 0 0-.156.133m.559.055c0-.192.148-.325.351-.325.133 0 .239.055.286.16l-.145.075a.15.15 0 0 0-.14-.086c-.094 0-.165.066-.165.176s.07.175.164.175c.059 0 .11-.027.141-.085l.145.074c-.047.101-.153.16-.286.16-.203 0-.351-.133-.351-.324m1.157.285a.25.25 0 0 1-.15.039c-.148 0-.234-.074-.234-.227v-.257h-.097v-.141h.097v-.156h.184v.156h.156v.14h-.156v.258q0 .082.078.082a.12.12 0 0 0 .074-.023Zm1.257-.602v.168h-.04c-.1 0-.167.055-.167.176v.297h-.184v-.629h.176v.082q.066-.094.215-.094m.055.547.062-.144a.5.5 0 0 0 .273.086c.114 0 .157-.036.157-.086 0-.157-.477-.051-.477-.356 0-.14.113-.254.348-.254.101 0 .207.024.285.07l-.059.145a.5.5 0 0 0-.23-.062c-.11 0-.156.043-.156.093 0 .153.48.047.48.348 0 .137-.113.254-.348.254a.6.6 0 0 1-.335-.094m1.414-.179h-.477c.02.078.086.128.18.128a.21.21 0 0 0 .16-.062l.098.105q-.09.101-.262.102c-.219 0-.36-.137-.36-.324 0-.188.145-.325.336-.325.188 0 .329.125.329.329 0 .011 0 .03-.004.047m-.48-.106h.312c-.012-.082-.07-.133-.157-.133-.082 0-.14.051-.156.133m1.223.106h-.477c.016.078.082.128.18.128q.097 0 .16-.062l.098.105q-.09.101-.262.102c-.219 0-.36-.137-.36-.324 0-.188.145-.325.337-.325.183 0 .328.125.328.329 0 .011-.004.03-.004.047m-.48-.106h.312a.15.15 0 0 0-.156-.133.15.15 0 0 0-.157.133m.879.133-.09.086v.16h-.183v-.871h.183v.492l.27-.25h.219l-.266.266.29.363h-.224Zm-2.984.332-.184-.184a.3.3 0 0 1-.097.082q-.008.011-.016.016l.191.191c.032.032.079.032.106 0 .031-.027.031-.074 0-.105M16 29.648a.07.07 0 0 1 .05-.02h.009c-.016-.007-.032-.015-.051-.015a.08.08 0 0 0-.063.032h-.008l.004-.016c0-.016-.011-.027-.023-.035.008.008.008.02.008.027q.001.012-.004.024a.346.346 0 0 0-.32.347c0 .192.152.344.343.344a.346.346 0 0 0 .055-.687m-.129.09q.042 0 .078.019a.14.14 0 0 1 .082-.024.15.15 0 0 1 .114.051.16.16 0 0 0-.106-.039.2.2 0 0 0-.078.02q-.005.006-.016.011-.006-.006-.011-.007a.14.14 0 0 0-.082-.024.2.2 0 0 0-.051.008.2.2 0 0 1 .07-.016m.242.285q.012.03.012.063a.176.176 0 0 1-.18.176.175.175 0 0 1-.164-.239.15.15 0 0 1-.066-.12.14.14 0 0 1 .14-.137c.036 0 .067.015.09.035a.16.16 0 0 1 .094-.035.14.14 0 0 1 .14.136.15.15 0 0 1-.066.121"/><path style="stroke:none;fill-rule:nonzero;fill:#fff;fill-opacity:1" d="M16.105 29.89c0 .032-.023.06-.054.06a.06.06 0 0 1-.059-.06c0-.03.024-.054.059-.054h.015q-.002.005-.003.016c0 .015.015.03.035.03l.007-.003zm-.218 0c0 .024-.02.044-.043.044a.043.043 0 0 1-.043-.043c0-.024.02-.043.043-.043q.008-.001.015.004-.005.003-.004.007c0 .016.012.024.024.024h.008zm-.34.051h.039v.04h-.04Zm.762 0h.039v.04h-.04Zm0 0"/><path style="stroke:none;fill-rule:nonzero;fill:#fff;fill-opacity:1" d="M16.332 29.957h-.008a.376.376 0 0 0-.379-.375.375.375 0 0 0-.375.375h-.008a.384.384 0 1 1 .77 0"/><path style="stroke:none;fill-rule:nonzero;fill:#fff;fill-opacity:1" d="M15.926 29.555h.043v.039h-.043Zm0 0"/><path style="stroke:none;fill-rule:nonzero;fill:#fff;fill-opacity:1" d="M15.676 29.57h.543v.012h-.543Zm0 0"/><path style="stroke:none;fill-rule:nonzero;fill:#fff;fill-opacity:1" d="M15.691 29.578a.012.012 0 0 1-.011.012q-.012 0-.012-.012t.012-.012c.004 0 .011.004.011.012m.539 0a.012.012 0 0 1-.011.012q-.014 0-.016-.012c0-.008.008-.012.016-.012.004 0 .011.004.011.012m3.887.719c0 .101-.148.101-.148 0 0-.098.148-.098.148 0m-9.765-.437.113.39.117-.39h.145l-.184.519h-.148l-.051-.152-.047-.172-.047.172-.055.152h-.148l-.184-.52h.145l.117.391.113-.39Zm.957 0 .113.39.121-.39h.14l-.18.519h-.148l-.054-.152-.047-.172-.047.172-.055.152h-.148l-.18-.52h.14l.122.391.11-.39Zm.961 0 .113.39.117-.39h.14l-.18.519h-.148l-.054-.152-.047-.172-.043.172-.055.152h-.148l-.184-.52h.145l.117.391.113-.39Zm.59.445c0 .101-.153.101-.153 0 0-.098.152-.098.152 0m7.793-.008a.26.26 0 0 1-.199.082c-.148 0-.273-.09-.273-.274 0-.183.125-.273.273-.273.074 0 .133.02.188.078l-.082.082a.14.14 0 0 0-.102-.039c-.086 0-.148.063-.148.152 0 .098.066.153.144.153a.15.15 0 0 0 .113-.043Zm.582-.187a.26.26 0 0 1-.27.269.26.26 0 0 1-.269-.27.26.26 0 0 1 .27-.27.26.26 0 0 1 .27.27m-.41 0c0 .078.047.152.14.152.095 0 .141-.075.141-.153s-.054-.152-.14-.152c-.09 0-.14.074-.14.152m.842.271v-.277c0-.067-.035-.13-.105-.13s-.11.063-.11.13v.277h-.129v-.52h.117l.012.067c.027-.055.086-.074.137-.074.062 0 .12.027.152.097a.19.19 0 0 1 .172-.094c.148 0 .223.09.223.247v.277h-.13v-.277c0-.07-.03-.13-.097-.13-.07 0-.113.063-.113.13v.277Zm0 0"/></g><g id="h" clip-path="url(#c)"><path style="stroke:none;fill-rule:nonzero;fill:#fff;fill-opacity:1" d="M22.145 27.602c0-.079-.063-.133-.141-.137-.059 0-.055.008-.055-.055v-.21a.1.1 0 0 0-.023-.063 52 52 0 0 0-.45-.512q-.01-.012-.027-.023h-1.191q-.075.028-.074.109c.003.238 0 .48 0 .719 0 .035 0 .039-.036.035-.093-.004-.16.062-.156.16v.668c0 .102.055.156.156.156.036 0 .036 0 .036.04v.425q.001.112.113.113h1.539q.112-.001.113-.113v-.434c0-.03 0-.03.035-.03.016 0 .036 0 .051-.005a.14.14 0 0 0 .11-.133zm-1.82-.903h1.023c.035 0 .035 0 .035.035v.43c0 .055.015.07.066.07h.367c.032 0 .032 0 .032.032v.168c0 .03 0 .03-.032.03h-1.492c-.035 0-.035 0-.035-.034a21 21 0 0 1 0-.696c0-.035 0-.035.035-.035m1.488 2.203h-1.489c-.035 0-.039 0-.039-.039v-.383c0-.03.004-.03.031-.03h1.5c.032 0 .032 0 .032.03v.383c0 .04 0 .04-.035.04m0 0"/><path style="stroke:none;fill-rule:nonzero;fill:#fff;fill-opacity:1" d="M20.953 26.691h.113v.067h-.113Zm-.109.067h.11v.07h-.11Zm.109.07h.113v.067h-.113Zm-.109.067h.11v.066h-.11Zm0 0"/><path style="stroke:none;fill-rule:nonzero;fill:#fff;fill-opacity:1" d="M20.953 26.96h.113v.067h-.113Zm-.109.067h.11v.07h-.11Zm.109.071h.113v.066h-.113Zm-.109.066h.11v.066h-.11Zm.109.066h.113v.067h-.113Zm-.109.067h.11v.07h-.11Zm.109.07h.113v.067h-.113Zm-.109.067h.11v.066h-.11Zm-8.836.168c0-.079-.059-.133-.14-.137-.06 0-.052.008-.052-.055v-.21a.1.1 0 0 0-.023-.063l-.45-.512c-.007-.008-.019-.016-.027-.023h-1.191q-.075.028-.074.109v.719c0 .035 0 .039-.035.035-.094-.004-.16.062-.16.16.003.223 0 .445 0 .668 0 .102.058.156.16.156.035 0 .035 0 .035.04v.425q.001.112.113.113h1.54q.11-.001.112-.113v-.434c0-.03 0-.03.032-.03q.029.001.05-.005a.134.134 0 0 0 .11-.133c0-.234.004-.472 0-.71m-1.82-.903h1.023c.035 0 .039 0 .039.035 0 .145-.004.286 0 .43 0 .055.016.07.066.07h.368c.027 0 .03 0 .03.032v.168c0 .03-.003.03-.034.03h-1.492c-.036 0-.036 0-.036-.034v-.696c0-.035 0-.035.036-.035m1.492 2.203h-1.492c-.036 0-.036 0-.036-.039v-.383c0-.03 0-.03.032-.03h1.496c.03 0 .035 0 .035.03v.383c0 .04 0 .04-.035.04m0 0"/><path style="stroke:none;fill-rule:nonzero;fill:#fff;fill-opacity:1" d="M10.227 28.203V27.7h.175q.036 0 .07.012.031.01.055.031a.15.15 0 0 1 .047.113.15.15 0 0 1-.047.117.2.2 0 0 1-.054.032.2.2 0 0 1-.07.012h-.083v.187Zm.18-.277a.08.08 0 0 0 .054-.02.1.1 0 0 0 .02-.05q.001-.012-.004-.024t-.016-.023q-.006-.011-.024-.016-.012-.005-.03-.004h-.087v.137Zm.238-.226h.109l.203.335h.008l-.008-.098V27.7h.094v.504h-.098l-.215-.36h-.008l.008.098v.262h-.093Zm.742.226h.25v.02l.004.023a.3.3 0 0 1-.016.093.24.24 0 0 1-.129.133.3.3 0 0 1-.21 0 .4.4 0 0 1-.087-.054.3.3 0 0 1-.054-.086.23.23 0 0 1-.024-.106q0-.059.024-.105a.2.2 0 0 1 .054-.082.3.3 0 0 1 .086-.055.2.2 0 0 1 .106-.02.3.3 0 0 1 .109.02.3.3 0 0 1 .082.059l-.066.066c-.016-.02-.036-.031-.055-.043a.2.2 0 0 0-.137 0 .13.13 0 0 0-.054.035.2.2 0 0 0-.04.055.23.23 0 0 0 0 .145q.017.03.04.054a.3.3 0 0 0 .054.035q.03.012.067.012a.2.2 0 0 0 .066-.012.14.14 0 0 0 .047-.031.1.1 0 0 0 .027-.031l.016-.043h-.16Zm2.949-.324c0-.079-.059-.133-.14-.137-.06 0-.051.008-.051-.055v-.21a.1.1 0 0 0-.024-.063c-.148-.172-.3-.34-.45-.512-.007-.008-.019-.016-.026-.023h-1.192q-.075.028-.074.109v.719c0 .035 0 .039-.035.035-.094-.004-.16.062-.16.16.004.223 0 .445 0 .668 0 .102.058.156.16.156.035 0 .035 0 .035.04v.425q.001.112.113.113h1.54q.111-.001.113-.113v-.434c0-.03 0-.03.03-.03q.028.001.055-.005a.134.134 0 0 0 .106-.133q.006-.352 0-.71m-1.82-.903h1.023c.035 0 .04 0 .04.035v.43c0 .055.015.07.066.07h.367c.027 0 .031 0 .031.032v.168c0 .03-.004.03-.035.03h-1.492c-.036 0-.036 0-.036-.034v-.696c0-.035 0-.035.036-.035m1.492 2.203H12.52c-.04 0-.04 0-.04-.039v-.383c0-.03.004-.03.032-.03h1.5c.027 0 .031 0 .031.03v.383c0 .04 0 .04-.035.04m0 0"/><path style="stroke:none;fill-rule:nonzero;fill:#fff;fill-opacity:1" d="M13.129 27.7h.105l.192.503h-.106l-.043-.121h-.191l-.043.121h-.105Zm.117.296-.062-.187h-.004l-.02.058-.047.13Zm.277-.187q-.011.001-.02-.004-.012-.006-.019-.012-.01-.007-.015-.02l-.004-.023c-.002-.013.004-.016.004-.023a.03.03 0 0 1 .015-.016q.007-.011.02-.016.007-.005.02-.004c.019 0 .03.008.042.02q.019.014.02.039a.06.06 0 0 1-.02.043q-.015.017-.043.016m-.043.394v-.348h.09v.348Zm3.227-.601c0-.079-.062-.133-.14-.137-.06 0-.055.008-.055-.055v-.21q.005-.035-.02-.063c-.152-.172-.3-.34-.449-.512l-.027-.023H14.82c-.05.02-.07.054-.07.109v.719c0 .035 0 .039-.035.035-.098-.004-.16.062-.16.16.004.223 0 .445 0 .668q.002.154.156.156c.039 0 .039 0 .039.04v.425q-.002.112.113.113h1.54q.11-.001.109-.113v-.434c0-.03 0-.03.035-.03.015 0 .035 0 .05-.005a.14.14 0 0 0 .11-.133zm-1.82-.903h1.023c.035 0 .035 0 .035.035v.43c0 .055.016.07.07.07h.364c.031 0 .031 0 .031.032v.168c0 .03 0 .03-.031.03h-1.492c-.035 0-.035 0-.035-.034v-.696c0-.035 0-.035.035-.035m1.488 2.203h-1.488c-.035 0-.035 0-.035-.039v-.383c0-.03 0-.03.03-.03h1.497c.031 0 .031 0 .031.03v.383c0 .04 0 .04-.035.04m0 0"/><path style="stroke:none;fill-rule:nonzero;fill:#fff;fill-opacity:1" d="M15.129 28.215a.2.2 0 0 1-.063-.012.1.1 0 0 1-.054-.027.2.2 0 0 1-.043-.043q-.02-.03-.031-.063l.09-.035q.011.04.034.063.025.029.067.027c.008 0 .02-.004.027-.004l.024-.012a.05.05 0 0 0 .02-.02q.004-.01.003-.026.001-.012-.004-.024t-.015-.023q-.013-.008-.032-.016a.1.1 0 0 0-.047-.02l-.03-.011a.2.2 0 0 1-.04-.02.2.2 0 0 1-.039-.031q-.017-.013-.027-.04a.13.13 0 0 1 0-.105c.008-.02.02-.03.035-.046a.2.2 0 0 1 .05-.032.3.3 0 0 1 .067-.008q.037.001.066.008.03.011.047.028l.032.035q.01.018.015.035l-.082.035a.1.1 0 0 0-.027-.039.1.1 0 0 0-.05-.016.1.1 0 0 0-.052.016.04.04 0 0 0-.02.035q.002.025.02.04a.2.2 0 0 0 .063.03l.031.012q.031.012.055.024a.1.1 0 0 1 .043.035c.011.012.023.023.027.043a.1.1 0 0 1 .012.055c0 .027-.008.05-.016.066a.1.1 0 0 1-.043.047.1.1 0 0 1-.055.027.2.2 0 0 1-.058.012m.199-.515h.106l.101.3.02.066h.008l.019-.066.105-.3h.106l-.184.503h-.101Zm.742.226h.246q.005.007.004.02l.004.023c0 .035-.008.062-.015.093a.24.24 0 0 1-.13.133.3.3 0 0 1-.21 0 .3.3 0 0 1-.086-.054.3.3 0 0 1-.055-.086.23.23 0 0 1-.023-.106q0-.059.023-.105a.25.25 0 0 1 .14-.137.2.2 0 0 1 .106-.02.3.3 0 0 1 .11.02.3.3 0 0 1 .082.059l-.067.066c-.015-.02-.035-.031-.054-.043a.2.2 0 0 0-.075-.012.2.2 0 0 0-.062.012.13.13 0 0 0-.055.035c-.015.016-.031.031-.039.055a.23.23 0 0 0 0 .145q.014.03.04.054a.3.3 0 0 0 .054.035q.03.012.066.012a.2.2 0 0 0 .067-.012.14.14 0 0 0 .047-.031q.016-.013.027-.031c.004-.016.012-.028.015-.043h-.16Zm2.957-.324c0-.079-.062-.133-.14-.137-.059 0-.055.008-.055-.055v-.21q.005-.035-.02-.063c-.152-.172-.3-.34-.449-.512l-.027-.023H17.14c-.051.02-.07.054-.07.109v.719c0 .035 0 .039-.036.035-.098-.004-.16.062-.16.16.004.223 0 .445 0 .668 0 .102.055.156.156.156.04 0 .04 0 .04.04v.425c0 .074.034.113.113.113h1.539q.11-.001.109-.113v-.434c0-.03 0-.03.035-.03q.026.001.051-.005a.134.134 0 0 0 .11-.133zm-1.82-.903h1.023c.036 0 .036 0 .036.035v.43c0 .055.015.07.07.07h.367c.027 0 .027 0 .027.032v.168c0 .03 0 .03-.03.03h-1.493c-.035 0-.035 0-.035-.034v-.696c0-.035 0-.035.035-.035m1.488 2.203h-1.488c-.035 0-.035 0-.035-.039v-.383c0-.03 0-.03.031-.03H18.7c.031 0 .031 0 .031.03v.383c0 .04 0 .04-.035.04m0 0"/><path style="stroke:none;fill-rule:nonzero;fill:#fff;fill-opacity:1" d="M17.469 27.79v.116h.203v.09h-.203v.117h.226v.09h-.32V27.7h.32v.09Zm.312.413V27.7h.18q.036 0 .066.012.031.01.055.031a.3.3 0 0 1 .04.051q.01.029.01.062a.2.2 0 0 1-.01.067.3.3 0 0 1-.04.05.2.2 0 0 1-.055.032.2.2 0 0 1-.066.012h-.082v.187Zm.18-.277a.1.1 0 0 0 .059-.02.1.1 0 0 0 .02-.05q-.002-.012-.009-.024c0-.008-.008-.016-.011-.023q-.012-.011-.024-.016-.018-.005-.035-.004h-.082v.137Zm.394.289a.2.2 0 0 1-.062-.012.1.1 0 0 1-.055-.027.2.2 0 0 1-.043-.043c-.011-.02-.023-.04-.027-.063l.09-.035a.1.1 0 0 0 .031.063q.029.029.066.027l.028-.004q.017-.006.027-.012.011-.006.016-.02l.008-.026-.004-.024q-.007-.012-.02-.023-.01-.008-.027-.016-.023-.013-.047-.02l-.031-.011q-.022-.007-.043-.02a.17.17 0 0 1-.066-.07c-.009-.016-.009-.031-.009-.05q0-.031.012-.056a.1.1 0 0 1 .031-.046q.023-.019.051-.032a.3.3 0 0 1 .067-.008q.039.001.066.008.03.011.047.028c.016.011.023.023.031.035a.2.2 0 0 1 .02.035l-.086.035a.1.1 0 0 0-.024-.039.1.1 0 0 0-.05-.016.1.1 0 0 0-.055.016.04.04 0 0 0-.02.035q.001.025.02.04a.2.2 0 0 0 .062.03l.032.012c.023.008.039.016.058.024q.024.012.043.035c.012.012.02.023.028.043a.2.2 0 0 1 .007.055q0 .041-.015.066a.2.2 0 0 1-.04.047.1.1 0 0 1-.058.027.2.2 0 0 1-.059.012m2.215-.11.254-.316h-.242v-.09h.355v.094l-.253.32h.253v.09h-.367Zm.45-.405h.093v.503h-.093Zm.195.503V27.7h.18a.2.2 0 0 1 .12.043.2.2 0 0 1 .036.051q.017.029.015.062a.12.12 0 0 1-.015.067.2.2 0 0 1-.035.05.2.2 0 0 1-.121.043h-.086v.188Zm.18-.277a.08.08 0 0 0 .054-.02.07.07 0 0 0 .02-.05q.001-.012-.004-.024l-.012-.023a.1.1 0 0 0-.027-.016q-.013-.005-.031-.004h-.086v.137Zm0 0"/></g><g id="j" clip-path="url(#d)"><path style="stroke:none;fill-rule:nonzero;fill:#fff;fill-opacity:1" d="M19.207 27.73h.582v.141h-.582Zm0 .247h.582v.144h-.582Zm0 0"/></g><g id="l" clip-path="url(#e)"><path style="stroke:none;fill-rule:nonzero;fill:#fff;fill-opacity:1" d="M10.031 30.648h.106c.078 0 .133.051.133.125s-.055.13-.133.13h-.106Zm.102.23c.066 0 .113-.042.113-.105 0-.058-.047-.101-.113-.101h-.074v.207Zm.437-.105c0-.074.055-.128.133-.128a.128.128 0 1 1 0 .258.127.127 0 0 1-.133-.13m.239 0a.105.105 0 0 0-.106-.105.106.106 0 0 0-.11.105c0 .063.048.106.11.106a.103.103 0 0 0 .106-.106m.687-.125-.086.254h-.031l-.07-.218-.075.218h-.03l-.083-.254h.027l.07.22.079-.22h.023l.075.22.074-.22Zm.52 0v.254h-.024l-.16-.207v.207h-.027v-.254h.02l.163.204v-.204Zm.344 0h.023v.23h.144v.024h-.168Zm.445.125c0-.074.054-.128.133-.128a.128.128 0 1 1 0 .258c-.079 0-.133-.055-.133-.13m.238 0a.105.105 0 0 0-.105-.105.103.103 0 0 0-.106.105.1.1 0 0 0 .105.106.103.103 0 0 0 .106-.106m.5.059h-.14l-.028.07h-.027l.113-.254h.027l.114.254h-.028Zm-.008-.02-.062-.136-.059.137Zm.371-.164h.102c.082 0 .137.051.137.125s-.055.13-.137.13h-.102Zm.102.23c.066 0 .11-.042.11-.105 0-.058-.044-.101-.11-.101h-.074v.207Zm.972-.046h-.144l-.027.07h-.028l.114-.254h.027l.113.254h-.027Zm-.011-.02-.059-.136-.062.137Zm.371-.164h.027v.23h.14v.024h-.167Zm.473 0h.027v.23h.14v.024h-.168Zm.855.024v.098h.133v.023h-.133v.11h-.027v-.255h.175v.024Zm.465-.024h.023v.254h-.023Zm.367 0h.027v.23h.141v.024H17.5Zm.652.231v.023h-.18v-.254h.176v.024H18v.09h.133v.023H18v.094Zm.708-.207v.098h.128v.023h-.129v.11h-.027v-.255h.172v.024Zm.437.101c0-.074.055-.128.133-.128a.128.128 0 1 1 0 .258.127.127 0 0 1-.133-.13m.238 0a.105.105 0 0 0-.105-.105.103.103 0 0 0-.106.105.1.1 0 0 0 .106.106.103.103 0 0 0 .105-.106m.52.129-.059-.082h-.086v.082h-.027v-.254h.094c.062 0 .101.032.101.086q-.001.06-.055.078l.059.09Zm0-.168q-.002-.06-.078-.062h-.067v.125h.067c.05 0 .078-.024.078-.063m.613-.086v.254h-.027V30.7l-.098.168h-.016l-.097-.168v.203h-.028v-.254h.024l.11.188.109-.188Zm.5.184h-.14l-.032.07h-.027l.117-.254h.023l.118.254h-.028Zm-.012-.02-.058-.136-.063.137Zm.41-.14h-.09v-.024h.204v.024h-.086v.23h-.028Zm.391.199.008-.023q.031.03.086.03c.047 0 .066-.019.066-.042 0-.07-.156-.027-.156-.121 0-.035.031-.07.094-.07.027 0 .058.011.078.023l-.008.023a.13.13 0 0 0-.07-.023c-.047 0-.067.02-.067.047 0 .07.157.027.157.12 0 .036-.032.067-.094.067a.14.14 0 0 1-.094-.03m0 0"/></g><filter id="a" filterUnits="objectBoundingBox" x="0%" y="0%" width="100%" height="100%"><feColorMatrix in="SourceGraphic" values="0 0 0 0 1 0 0 0 0 1 0 0 0 0 1 0 0 0 1 0"/></filter></defs><use xlink:href="#f" mask="url(#g)"/><use xlink:href="#h" mask="url(#i)"/><use xlink:href="#j" mask="url(#k)"/><use xlink:href="#l" mask="url(#m)"/><path style="stroke:none;fill-rule:evenodd;fill:#000;fill-opacity:1" d="M30.707 18.387c0 .238-.191.43-.43.43H1.723a.43.43 0 0 1-.43-.43v-4.774c0-.238.191-.43.43-.43h28.554c.239 0 .43.192.43.43"/><path style="stroke:none;fill-rule:nonzero;fill:#ffde1b;fill-opacity:1" d="M3.496 15.703h-.824l-.399-1.867h.66l.172 1.152.172-1.152h.774l.176 1.18.175-1.18h.633l-.394 1.867h-.809l-.172-1.207m18.91 3.527h-1.84l-.894-4.187h1.477l.382 2.578.387-2.578h1.695l.387 2.644.39-2.644h1.45l-.875 4.187h-1.813l-.378-2.71m-17.461.394v-1.871h1.421v.48h-.707v.204h.657V15H6.19v.219h.73v.488m4.771 0v-1.871h1.422v.48h-.703v.204h.652V15h-.652v.219h.727v.488m-5.766-.547h.703v.016a.22.22 0 0 0 .043.144q.047.048.14.047c.06 0 .102-.012.134-.039a.12.12 0 0 0 .046-.101.2.2 0 0 0-.019-.082l-.05-.047a2 2 0 0 0-.231-.075 5 5 0 0 1-.278-.074q-.247-.076-.359-.199a.45.45 0 0 1-.11-.316q-.002-.283.231-.442.234-.157.656-.156.381-.001.586.133a.44.44 0 0 1 .203.39v.04h-.644q-.011-.089-.05-.13-.044-.04-.122-.039a.17.17 0 0 0-.113.036.11.11 0 0 0-.043.09q-.001.105.238.16c.055.015.102.023.137.035q.393.103.535.23.136.13.137.36a.57.57 0 0 1-.239.484c-.164.117-.382.18-.66.18q-.422 0-.644-.153a.47.47 0 0 1-.227-.425zm3.832-1.324v.5h-.46v1.367h-.735v-1.367h-.465v-.5m4.121 1.859v-1.86h.973q.428 0 .597.106.172.111.172.368a.4.4 0 0 1-.094.277.54.54 0 0 1-.28.156c.113.02.198.055.245.113.051.06.086.16.106.313l.023.2q.007.05.02.124l.047.203h-.727q-.022-.093-.039-.152c-.008-.035-.012-.074-.016-.105l-.02-.137q-.028-.182-.07-.235-.045-.045-.152-.046h-.043l-.023.003v.672m0-1.093.02.003h.03a.3.3 0 0 0 .196-.05.16.16 0 0 0 .066-.14c0-.06-.02-.099-.054-.126q-.06-.04-.176-.039h-.082Zm2.187-.052v1.141h-.593v-1.855h.882l.407 1.11v-1.11h.597v1.855h-.883m-.41 1.153v1.152h-.593v-1.871h.882l.407 1.121v-1.121h.597v1.871h-.883m-6.664-1.152v1.152H9.72v-1.871h.883l.41 1.121v-1.121h.597v1.871h-.882m-3.38-1.871h.715v1.168c0 .082.015.14.042.184a.15.15 0 0 0 .13.062q.08 0 .124-.062a.35.35 0 0 0 .043-.184v-1.168h.72v1.14q0 .398-.216.59c-.144.125-.367.192-.672.192q-.262 0-.437-.059a.65.65 0 0 1-.281-.172.5.5 0 0 1-.13-.21 1.1 1.1 0 0 1-.038-.34m4.871-1.141h.738v1.867h-.738Zm2.226 1.922q-.452 0-.699-.258-.251-.259-.25-.723.001-.475.254-.734.25-.253.719-.254.463.001.715.254.251.257.25.73.002.48-.254.731-.253.253-.735.254m.02-1.477c-.074 0-.13.04-.16.11-.032.066-.047.199-.047.39q0 .27.047.375.044.111.16.11.112-.002.16-.114.047-.112.047-.406 0-.264-.047-.363a.16.16 0 0 0-.16-.102m5.164 1.426h-.25l-.871-4.16h.246m1.546 4.16h-.245l-.875-4.16h.25m7.777 0v2.613a.7.7 0 0 1-.102.403.32.32 0 0 1-.277.148.32.32 0 0 1-.281-.14q-.1-.141-.098-.41v-2.614h-.312l-.817 3.867q.229.198.54.297.381.124.968.125 1.02.002 1.5-.426.48-.421.48-1.316v-2.547"/><path style="stroke:none;fill-rule:nonzero;fill:#fff;fill-opacity:1" d="M24.852 13.836v2.547q.001.504.085.762c.06.164.149.316.278.457l.793-3.766"/><path style="stroke:none;fill-rule:nonzero;fill:#ffde1b;fill-opacity:1" d="m29.137 14.164.078-.004.008.027.039.02.027-.008.008-.023-.008-.02-.043-.015a.16.16 0 0 1-.078-.036l-.023-.054.011-.04.035-.03a.2.2 0 0 1 .067-.012q.053.001.078.02c.02.015.031.034.035.066l-.078.004-.016-.028-.027-.008-.02.004-.007.016.004.016.027.007a.2.2 0 0 1 .078.028l.035.031.012.04-.016.05-.039.035-.066.012q-.064.001-.094-.028a.1.1 0 0 1-.027-.07m.281-.187h.11l.042.171.04-.171h.109v.28h-.067v-.214l-.054.215h-.059l-.055-.215v.215h-.066"/></svg>
