<svg xmlns="http://www.w3.org/2000/svg" viewBox="0 0 400 423.645"><g fill-rule="evenodd"><path d="M40.43 117.026c-.375.866.501-1.828.754-2.744l.985-3.57C52.342 73.809 62.51 36.905 72.681 0L400 .641 38.266 294.865 203.572 95.69l-124.181.352c-2.295.007-4.592 0-6.882.153-14.728 1.25-27.488 10.175-32.08 20.827" fill="#808285"/><path d="M382.233 201.708c.37-.867-9.894 62.695-28 128.401l-341.598 1.908 368.93-298.789-165.339 201.055 124.181-.352c2.295-.007 4.592 0 6.883-.154 14.728-1.25 30.351-21.414 34.943-32.066" fill="#ed1c24"/><path d="M58.13 423.645H0l40.18-54.565H13.534l1.93-15.086h55.355l-40.081 54.47H60.07l-1.941 15.181zm10.961 0 8.917-69.65h40.296l-1.952 15.268H93.536l-1.549 12.078h21.51l-1.91 14.943h-21.51l-1.506 11.758h22.815l-1.996 15.603H69.091zm52.15 0 8.914-69.65h17.297l20.257 35.825c.38.732.975 2.192 1.798 4.4.803 2.21 1.667 4.824 2.595 7.876.01-2.89.08-5.455.204-7.713a80.21 80.21 0 0 1 .524-5.994l4.402-34.395h17.201l-8.913 69.651h-17.205l-20.237-35.97c-.412-.73-1.023-2.19-1.843-4.398-.806-2.211-1.657-4.794-2.562-7.781-.018 2.924-.09 5.506-.211 7.764a80.07 80.07 0 0 1-.525 5.994l-4.403 34.391H121.24zm78.83 0 8.914-69.65h18.11l-8.917 69.65h-18.106zm42.043 0 6.808-53.182h-14.736l2.108-16.469h47.399l-2.108 16.469h-14.738l-6.806 53.182h-17.927zm41.415 0 8.914-69.65h17.928l-3.466 27.07h23.891l3.466-27.07h17.968l-8.917 69.65h-17.968l3.63-28.354h-23.89l-3.631 28.354h-17.925z" fill="#808285"/></g></svg>