<svg viewBox="0 0 18 18" xmlns="http://www.w3.org/2000/svg">
  <path d="M9 4.5C8.505 4.5 8.1 4.905 8.1 5.4V8.1H5.4C4.905 8.1 4.5 8.505 4.5 9C4.5 9.495 4.905 9.9 5.4 9.9H8.1V12.6C8.1 13.095 8.505 13.5 9 13.5C9.495 13.5 9.9 13.095 9.9 12.6V9.9H12.6C13.095 9.9 13.5 9.495 13.5 9C13.5 8.505 13.095 8.1 12.6 8.1H9.9V5.4C9.9 4.905 9.495 4.5 9 4.5ZM9 0C4.041 0 0 4.041 0 9C0 13.959 4.041 18 9 18C13.959 18 18 13.959 18 9C18 4.041 13.959 0 9 0ZM9 16.2C5.031 16.2 1.8 12.969 1.8 9C1.8 5.031 5.031 1.8 9 1.8C12.969 1.8 16.2 5.031 16.2 9C16.2 12.969 12.969 16.2 9 16.2Z"/>
</svg>
