<svg viewBox="0 0 28 28" xmlns="http://www.w3.org/2000/svg">
<path d="M22.1667 15.1667V21C22.1667 21.6417 21.6417 22.1667 21 22.1667H7C6.35833 22.1667 5.83333 21.6417 5.83333 21V15.1667C5.83333 14.525 5.30833 14 4.66667 14C4.025 14 3.5 14.525 3.5 15.1667V22.1667C3.5 23.45 4.55 24.5 5.83333 24.5H22.1667C23.45 24.5 24.5 23.45 24.5 22.1667V15.1667C24.5 14.525 23.975 14 23.3333 14C22.6917 14 22.1667 14.525 22.1667 15.1667Z"/>
<path d="M17.36 12.5883L15.1666 14.7817V4.66667C15.1666 4.025 14.6416 3.5 14 3.5C13.3583 3.5 12.8333 4.025 12.8333 4.66667V14.7817L10.6283 12.5883C10.1733 12.1333 9.4383 12.1333 8.9833 12.5883C8.5283 13.0433 8.5283 13.7783 8.9833 14.2333L13.1716 18.4217C13.6266 18.8767 14.3616 18.8767 14.8166 18.4217L19.005 14.2333C19.46 13.7783 19.46 13.0433 19.005 12.5883C18.55 12.1333 17.815 12.1333 17.36 12.5883Z"/>
</svg>
