<svg viewBox="0 0 24 24" fill="none" xmlns="http://www.w3.org/2000/svg">
<path d="M12 16C13.6569 16 15 14.6569 15 13C15 11.3431 13.6569 10 12 10C10.3431 10 9 11.3431 9 13C9 14.6569 10.3431 16 12 16Z" fill="white"/>
<path d="M19.2 5.77778H16.347L15.231 4.57778C14.898 4.21333 14.412 4 13.908 4H10.092C9.588 4 9.102 4.21333 8.76 4.57778L7.653 5.77778H4.8C3.81 5.77778 3 6.57778 3 7.55556V18.2222C3 19.2 3.81 20 4.8 20H19.2C20.19 20 21 19.2 21 18.2222V7.55556C21 6.57778 20.19 5.77778 19.2 5.77778ZM12 17.3333C9.516 17.3333 7.5 15.3422 7.5 12.8889C7.5 10.4356 9.516 8.44444 12 8.44444C14.484 8.44444 16.5 10.4356 16.5 12.8889C16.5 15.3422 14.484 17.3333 12 17.3333Z" fill="white"/>
</svg>
