<svg viewBox="0 0 27 28" xmlns="http://www.w3.org/2000/svg">
  <path fill-rule="evenodd" clip-rule="evenodd" d="M26.833 12.3358C26.8609 12.3081 26.8887 12.2804 26.8887 12.2249C27.0001 12.114 27.0001 12.0031 27.0001 11.8922V11.7813V5.12768C27.0001 4.46231 26.5547 4.01874 25.8866 4.01874C25.2184 4.01874 24.773 4.46231 24.773 5.12768V9.23077L21.4325 6.23663C20.319 5.01679 18.8714 4.12963 17.3125 3.57516C14.5287 2.57711 11.5223 2.688 8.84984 4.01874C6.17742 5.23858 4.1731 7.45646 3.17094 10.3397C2.94823 10.8942 3.28229 11.5596 3.83904 11.6705C4.3958 11.8922 5.0639 11.5596 5.28661 11.0051C6.06606 8.7872 7.62498 7.01289 9.852 6.01484C11.9677 5.01679 14.4174 4.90589 16.6444 5.68215C17.8693 6.12573 18.9828 6.7911 19.9849 7.78915L23.1028 10.6724H19.2055C18.5374 10.6724 18.092 11.116 18.092 11.7813C18.092 12.4467 18.5374 12.8903 19.2055 12.8903H25.8866C25.9979 12.8903 26.2206 12.8903 26.332 12.7794C26.4433 12.7794 26.5547 12.6685 26.666 12.5576C26.7774 12.5576 26.7774 12.4467 26.7774 12.4467C26.7774 12.3913 26.8052 12.3635 26.833 12.3358ZM21.9893 16.9934C22.212 16.4389 22.8801 16.1062 23.4369 16.328C23.9936 16.4389 24.3277 17.1043 24.2163 17.7697C23.6596 19.3222 22.6574 20.7638 21.5439 21.8728C19.4282 23.9797 16.6445 25.0887 13.638 25.0887C10.6315 25.0887 7.84773 23.9797 5.84341 21.7619L2.61423 18.6568V22.7599C2.61423 23.4253 2.16882 23.8689 1.50072 23.8689C0.832611 23.8689 0.387207 23.4253 0.387207 22.7599V16.1062V15.9953V15.7736C0.387207 15.7181 0.415045 15.6904 0.442883 15.6627C0.47072 15.6349 0.498558 15.6072 0.498558 15.5518C0.609909 15.5518 0.609909 15.4409 0.609909 15.4409C0.609909 15.33 0.72126 15.2191 0.832611 15.2191C0.832611 15.1082 0.943962 15.1082 0.943962 15.1082H1.16666H1.38937H8.07043C8.73854 15.1082 9.18394 15.5518 9.18394 16.2171C9.18394 16.8825 8.73854 17.3261 8.07043 17.3261H4.17314L7.29097 20.2093C9.07259 21.9836 11.2996 22.8708 13.638 22.8708C15.9764 22.8708 18.3147 21.9836 19.8736 20.3202C20.8758 19.4331 21.5439 18.2132 21.9893 16.9934Z" />
</svg>
