<svg viewBox="0 0 18 18" xmlns="http://www.w3.org/2000/svg">
<path d="M13.228 4.00118C12.9148 3.67602 12.4089 3.67602 12.0957 4.00118L7.56658 8.7035L8.69886 9.87909L13.228 5.16842C13.5331 4.8516 13.5331 4.318 13.228 4.00118ZM16.6328 3.99284L8.69886 12.2303L5.90431 9.33715C5.59112 9.01199 5.08521 9.01199 4.77203 9.33715C4.45884 9.66231 4.45884 10.1876 4.77203 10.5127L8.12871 13.9978C8.44189 14.323 8.9478 14.323 9.26099 13.9978L17.7651 5.17676C18.0783 4.8516 18.0783 4.32634 17.7651 4.00118H17.7571C17.4519 3.66768 16.946 3.66768 16.6328 3.99284ZM0.234887 10.5211L3.59157 14.0061C3.90475 14.3313 4.41066 14.3313 4.72385 14.0061L5.28597 13.4225L1.36716 9.33715C1.05398 9.01199 0.54807 9.01199 0.234887 9.33715C-0.0782958 9.66231 -0.0782958 10.1959 0.234887 10.5211Z"/>
</svg>
