<svg viewBox="0 0 20 20" xmlns="http://www.w3.org/2000/svg">
  <path d="M15.833 2.5H4.167C3.25 2.5 2.5 3.25 2.5 4.167v11.666c0 .917.75 1.667 1.667 1.667h11.666c.917 0 1.667-.75 1.667-1.667V4.167c0-.917-.75-1.667-1.667-1.667ZM8.925 13.575a.83.83 0 0 1-1.175 0l-2.992-2.992a.83.83 0 1 1 1.175-1.175l2.4 2.4 5.734-5.733a.83.83 0 1 1 1.175 1.175l-6.317 6.325Z" fill="url(#a)"/>
  <defs>
    <linearGradient id="a" x1="13.975" y1="3.625" x2="6.1" y2="16.225" gradientUnits="userSpaceOnUse">
      <stop stop-color="#FCB16C"/>
      <stop offset=".458" stop-color="#EC6A35"/>
      <stop offset="1" stop-color="#C83B26"/>
    </linearGradient>
  </defs>
</svg>