<svg  viewBox="0 0 27 28" xmlns="http://www.w3.org/2000/svg">
<path d="M23.3409 9.23191L11.1433 21.4295C10.9215 21.6513 10.6998 21.7622 10.3671 21.7622C10.0344 21.7622 9.81266 21.6513 9.59088 21.4295L4.04653 15.8851C3.60298 15.4416 3.60298 14.7763 4.04653 14.3327C4.49008 13.8892 5.1554 13.8892 5.59895 14.3327L10.3671 19.1009L21.7885 7.67949C22.232 7.23595 22.8973 7.23595 23.3409 7.67949C23.7844 8.12304 23.7844 8.78836 23.3409 9.23191Z" />
<mask id="mask0_350_5916" style="mask-type:alpha" maskUnits="userSpaceOnUse" x="3" y="7" width="21" height="15">
<path d="M23.3409 9.23191L11.1433 21.4295C10.9215 21.6513 10.6998 21.7622 10.3671 21.7622C10.0344 21.7622 9.81266 21.6513 9.59088 21.4295L4.04653 15.8851C3.60298 15.4416 3.60298 14.7763 4.04653 14.3327C4.49008 13.8892 5.1554 13.8892 5.59895 14.3327L10.3671 19.1009L21.7885 7.67949C22.232 7.23595 22.8973 7.23595 23.3409 7.67949C23.7844 8.12304 23.7844 8.78836 23.3409 9.23191Z" />
</mask>
<g mask="url(#mask0_350_5916)">
<path fill-rule="evenodd" clip-rule="evenodd" d="M0.387207 0.693604H27.0001V27.3065H0.387207V0.693604Z" fill="#F05600"/>
</g>
</svg>
