<svg width="15" height="20" viewBox="0 0 15 20" fill="none" xmlns="http://www.w3.org/2000/svg">
<path d="M13.5363 7.68356L8.72787 16.012C7.778 17.6572 5.7281 18.4259 3.99963 17.6379C2.01346 16.7326 1.28875 14.3515 2.35224 12.5094L7.96963 2.77983C8.565 1.74862 9.84589 1.23914 10.9285 1.72772C12.1776 2.29146 12.6378 3.78519 11.9697 4.94235L7.19768 13.2078C6.94772 13.6407 6.38892 13.7904 5.9559 13.5404C5.52289 13.2904 5.37312 12.7317 5.62309 12.2987L9.5998 5.41084C9.78614 5.08809 9.67298 4.6659 9.35019 4.47954C9.0274 4.29317 8.60519 4.40627 8.41886 4.72902L4.50577 11.5067C3.9104 12.5379 4.10963 13.9019 5.07403 14.5952C6.1868 15.3951 7.71054 15.0468 8.37862 13.8896L13.0734 5.75799C14.0233 4.11278 13.6641 1.95316 12.1174 0.850266C10.3481 -0.412604 7.9158 0.145795 6.85231 1.98781L1.27582 11.6466C-0.0285368 13.9058 0.456767 16.8834 2.58572 18.3959C5.03958 20.1275 8.36812 19.3624 9.83155 16.8276L14.7172 8.36538C14.9036 8.04264 14.7904 7.62045 14.4676 7.43408C14.1448 7.24772 13.7226 7.36082 13.5363 7.68356Z" fill="#099DE2"/>
</svg>
