<svg viewBox="0 0 22 22" xmlns="http://www.w3.org/2000/svg">
<path d="M10.9895 0.5C5.1935 0.5 0.5 5.204 0.5 11C0.5 16.796 5.1935 21.5 10.9895 21.5C16.796 21.5 21.5 16.796 21.5 11C21.5 5.204 16.796 0.5 10.9895 0.5ZM11 19.4C6.359 19.4 2.6 15.641 2.6 11C2.6 6.359 6.359 2.6 11 2.6C15.641 2.6 19.4 6.359 19.4 11C19.4 15.641 15.641 19.4 11 19.4ZM10.769 5.75H10.706C10.286 5.75 9.95 6.086 9.95 6.506V11.462C9.95 11.8295 10.139 12.176 10.4645 12.365L14.822 14.9795C15.179 15.1895 15.641 15.0845 15.851 14.7275C16.0715 14.3705 15.956 13.898 15.5885 13.688L11.525 11.273V6.506C11.525 6.086 11.189 5.75 10.769 5.75Z"/>
</svg>
