<svg viewBox="0 0 20 21"  xmlns="http://www.w3.org/2000/svg">
<path d="M13.2289 2.62816L17.0421 6.40751C17.3342 6.69702 17.5 7.09608 17.5 7.51079V14.6861C17.5 15.5468 16.7895 16.251 15.921 16.251H7.22894C6.36052 16.251 5.65788 15.5468 5.65788 14.6861L5.66578 3.73145C5.66578 2.87073 6.36841 2.1665 7.23683 2.1665H12.1079C12.5263 2.1665 12.9289 2.33082 13.2289 2.62816ZM12.7631 7.64381H16.3158L11.9737 3.34021V6.86134C11.9737 7.2917 12.3289 7.64381 12.7631 7.64381Z" />
<path d="M4.91226 18.8332H13.5965C14.0307 18.8332 14.3859 18.4811 14.3859 18.0507C14.3859 17.6203 14.0307 17.2682 13.5965 17.2682H5.70173C5.26752 17.2682 4.91226 16.9161 4.91226 16.4858V7.09608C4.91226 6.66572 4.557 6.31361 4.12279 6.31361C3.68858 6.31361 3.33331 6.66572 3.33331 7.09608V17.2682C3.33331 18.1289 4.04384 18.8332 4.91226 18.8332Z" />
</svg>
