<svg viewBox="0 0 24 24" fill="none" xmlns="http://www.w3.org/2000/svg">
<path d="M12.0002 0.333328C5.56016 0.333328 0.333496 5.56 0.333496 12C0.333496 18.44 5.56016 23.6667 12.0002 23.6667C18.4402 23.6667 23.6668 18.44 23.6668 12C23.6668 5.56 18.4402 0.333328 12.0002 0.333328ZM12.0002 21.3333C6.85516 21.3333 2.66683 17.145 2.66683 12C2.66683 6.855 6.85516 2.66666 12.0002 2.66666C17.1452 2.66666 21.3335 6.855 21.3335 12C21.3335 17.145 17.1452 21.3333 12.0002 21.3333ZM12.3618 10.9967C10.2968 10.4717 9.63183 9.9 9.63183 9.04833C9.63183 8.06833 10.5535 7.38 12.0818 7.38C13.6918 7.38 14.2985 8.15 14.3452 9.29333H16.3402C16.2818 7.73 15.3252 6.295 13.4352 5.82833V3.83333H10.7168V5.805C8.95516 6.17833 7.5435 7.32166 7.5435 9.08333C7.5435 11.1717 9.28183 12.2217 11.8135 12.8283C14.0885 13.365 14.5435 14.17 14.5435 15.01C14.5435 15.6283 14.0885 16.6317 12.0935 16.6317C10.2268 16.6317 9.49183 15.7917 9.38683 14.7183H7.38016C7.49683 16.7017 8.96683 17.8217 10.7168 18.1833V20.1667H13.4468V18.2183C15.2202 17.88 16.6202 16.865 16.6318 14.9867C16.6202 12.42 14.4152 11.5333 12.3618 10.9967Z"/>
</svg>
