<svg viewBox="0 0 28 28" xmlns="http://www.w3.org/2000/svg">
<path d="M21.3498 6.66169C20.8948 6.20669 20.1598 6.20669 19.7048 6.66169L13.9998 12.355L8.29484 6.65003C7.83984 6.19503 7.10484 6.19503 6.64984 6.65003C6.19484 7.10503 6.19484 7.84003 6.64984 8.29503L12.3548 14L6.64984 19.705C6.19484 20.16 6.19484 20.895 6.64984 21.35C7.10484 21.805 7.83984 21.805 8.29484 21.35L13.9998 15.645L19.7048 21.35C20.1598 21.805 20.8948 21.805 21.3498 21.35C21.8048 20.895 21.8048 20.16 21.3498 19.705L15.6448 14L21.3498 8.29503C21.7932 7.85169 21.7932 7.10503 21.3498 6.66169V6.66169Z"/>
</svg>
