<svg viewBox="0 0 16 16" fill="none" xmlns="http://www.w3.org/2000/svg">
<path d="M0.784891 14.4887H8.6338C9.06549 14.4887 9.41869 14.8287 9.41869 15.2443C9.41869 15.66 9.06549 16 8.6338 16H0.784891C0.353201 16 0 15.66 0 15.2443C0 14.8287 0.353201 14.4887 0.784891 14.4887ZM3.32794 4.71811L5.54918 2.57961L15.5408 12.1991C16.1531 12.7885 16.1531 13.7482 15.5408 14.3376C14.9286 14.927 13.9318 14.927 13.3196 14.3376L3.32794 4.71811ZM9.99166 0.441117L12.2129 2.57961C12.8251 3.16902 12.8251 4.1287 12.2129 4.71811L11.0984 5.79114L6.66372 1.51414L7.77042 0.448673C8.38264 -0.148292 9.37945 -0.148292 9.99166 0.441117ZM2.22124 5.78358L6.66372 10.0606L5.55703 11.126C4.94481 11.7155 3.948 11.7155 3.33579 11.126L1.11455 8.98755C0.50233 8.39814 0.50233 7.43846 1.11455 6.84905L2.22124 5.78358Z" />
</svg>
