<svg width="22" height="22" viewBox="0 0 22 22" fill="none" xmlns="http://www.w3.org/2000/svg">
<path fill-rule="evenodd" clip-rule="evenodd" d="M2.74996 11C2.74996 6.44367 6.44361 2.75002 11 2.75002C15.5563 2.75002 19.25 6.44367 19.25 11C19.25 15.5564 15.5563 19.25 11 19.25C6.44361 19.25 2.74996 15.5564 2.74996 11ZM11 0.916687C5.43109 0.916687 0.916626 5.43115 0.916626 11C0.916626 16.5689 5.43109 21.0834 11 21.0834C16.5688 21.0834 21.0833 16.5689 21.0833 11C21.0833 5.43115 16.5688 0.916687 11 0.916687ZM8.24996 7.33335C7.7437 7.33335 7.33329 7.74376 7.33329 8.25002C7.33329 8.75628 7.7437 9.16669 8.24996 9.16669H8.25913C8.76539 9.16669 9.17579 8.75628 9.17579 8.25002C9.17579 7.74376 8.76539 7.33335 8.25913 7.33335H8.24996ZM12.8333 8.25002C12.8333 7.74376 13.2437 7.33335 13.75 7.33335H13.7591C14.2654 7.33335 14.6758 7.74376 14.6758 8.25002C14.6758 8.75628 14.2654 9.16669 13.7591 9.16669H13.75C13.2437 9.16669 12.8333 8.75628 12.8333 8.25002ZM15.2166 15.4C14.8129 15.7028 14.2407 15.6222 13.9362 15.2205L13.9319 15.215C13.9265 15.2081 13.9161 15.1952 13.9009 15.1772C13.8705 15.1409 13.8213 15.0845 13.7542 15.0144C13.6191 14.8735 13.4162 14.6824 13.1535 14.4913C12.6245 14.1066 11.8932 13.75 11 13.75C10.1067 13.75 9.37538 14.1066 8.84641 14.4913C8.58369 14.6824 8.38079 14.8735 8.24577 15.0144C8.17863 15.0845 8.12938 15.1409 8.09899 15.1772C8.08383 15.1952 8.07346 15.2081 8.068 15.215L8.06375 15.2205C7.75925 15.6222 7.18703 15.7028 6.78329 15.4C6.37828 15.0962 6.2962 14.5216 6.59996 14.1166L7.33329 14.6666C6.59996 14.1166 6.60018 14.1163 6.60041 14.116L6.60089 14.1154L6.60194 14.114L6.60446 14.1107L6.61106 14.102L6.63059 14.0771C6.64639 14.0571 6.6678 14.0306 6.69471 13.9986C6.74847 13.9345 6.82454 13.8477 6.92212 13.7459C7.11653 13.5431 7.40061 13.2759 7.7681 13.0086C8.49954 12.4767 9.60156 11.9166 11 11.9166C12.3984 11.9166 13.5004 12.4767 14.2318 13.0086C14.5993 13.2759 14.8834 13.5431 15.0778 13.7459C15.1754 13.8477 15.2515 13.9345 15.3052 13.9986C15.3321 14.0306 15.3535 14.0571 15.3693 14.0771L15.3889 14.102L15.3955 14.1107L15.398 14.114L15.399 14.1154L15.3995 14.116C15.3997 14.1163 15.4 14.1166 14.6666 14.6666L15.4 14.1166C15.7037 14.5216 15.6216 15.0962 15.2166 15.4Z" fill="#F3F3F2"/>
</svg>
