<svg width="20" height="20" viewBox="0 0 20 20" fill="none" xmlns="http://www.w3.org/2000/svg">
<path d="M12.1583 2.15841C11.8416 1.84175 11.4166 1.66675 10.9749 1.66675H4.99992C4.08325 1.66675 3.33325 2.41675 3.33325 3.33341V16.6667C3.33325 17.5834 4.07492 18.3334 4.99158 18.3334H14.9999C15.9166 18.3334 16.6666 17.5834 16.6666 16.6667V7.35842C16.6666 6.91675 16.4916 6.49175 16.1749 6.18341L12.1583 2.15841ZM12.4999 15.0001H7.49992C7.04158 15.0001 6.66658 14.6251 6.66658 14.1667C6.66658 13.7084 7.04158 13.3334 7.49992 13.3334H12.4999C12.9583 13.3334 13.3333 13.7084 13.3333 14.1667C13.3333 14.6251 12.9583 15.0001 12.4999 15.0001ZM12.4999 11.6667H7.49992C7.04158 11.6667 6.66658 11.2917 6.66658 10.8334C6.66658 10.3751 7.04158 10.0001 7.49992 10.0001H12.4999C12.9583 10.0001 13.3333 10.3751 13.3333 10.8334C13.3333 11.2917 12.9583 11.6667 12.4999 11.6667ZM10.8333 6.66675V2.91675L15.4166 7.50008H11.6666C11.2083 7.50008 10.8333 7.12508 10.8333 6.66675Z" fill="#888888"/>
</svg>
