<svg viewBox="0 0 28 28" xmlns="http://www.w3.org/2000/svg">
<path d="M22.0402 5.71457C19.2693 3.81056 15.8476 4.6991 14.0003 6.87814C12.153 4.6991 8.73131 3.79998 5.96038 5.71457C4.49094 6.73005 3.5673 8.44366 3.50432 10.2525C3.35738 14.3567 6.96799 17.6464 12.4784 22.692L12.5833 22.7872C13.381 23.5171 14.6091 23.5171 15.4067 22.7767L15.5222 22.6709C21.0326 17.6358 24.6327 14.3461 24.4963 10.2419C24.4333 8.44366 23.5096 6.73005 22.0402 5.71457V5.71457ZM14.1052 21.1159L14.0003 21.2217L13.8953 21.1159C8.89925 16.5569 5.60352 13.5422 5.60352 10.4852C5.60352 8.36962 7.17791 6.78294 9.2771 6.78294C10.8935 6.78294 12.4679 7.83015 13.0242 9.27931H14.9869C15.5327 7.83015 17.1071 6.78294 18.7235 6.78294C20.8227 6.78294 22.3971 8.36962 22.3971 10.4852C22.3971 13.5422 19.1013 16.5569 14.1052 21.1159Z"/>
</svg>
