<svg viewBox="0 0 18 18" xmlns="http://www.w3.org/2000/svg">
<path d="M9 0C4.032 0 0 4.032 0 9C0 13.968 4.032 18 9 18C13.968 18 18 13.968 18 9C18 4.032 13.968 0 9 0ZM9 16.2C5.031 16.2 1.8 12.969 1.8 9C1.8 5.031 5.031 1.8 9 1.8C12.969 1.8 16.2 5.031 16.2 9C16.2 12.969 12.969 16.2 9 16.2ZM8.1 12.6H9.9V14.4H8.1V12.6ZM9.549 3.636C7.695 3.366 6.057 4.509 5.562 6.147C5.4 6.669 5.796 7.2 6.345 7.2H6.525C6.894 7.2 7.191 6.939 7.317 6.597C7.605 5.796 8.46 5.247 9.387 5.445C10.242 5.625 10.872 6.462 10.8 7.335C10.71 8.541 9.342 8.802 8.595 9.927C8.595 9.936 8.586 9.936 8.586 9.945C8.577 9.963 8.568 9.972 8.559 9.99C8.478 10.125 8.397 10.278 8.334 10.44C8.325 10.467 8.307 10.485 8.298 10.512C8.289 10.53 8.289 10.548 8.28 10.575C8.172 10.881 8.1 11.25 8.1 11.7H9.9C9.9 11.322 9.999 11.007 10.152 10.737C10.17 10.71 10.179 10.683 10.197 10.656C10.269 10.53 10.359 10.413 10.449 10.305C10.458 10.296 10.467 10.278 10.476 10.269C10.566 10.161 10.665 10.062 10.773 9.963C11.637 9.144 12.807 8.478 12.564 6.759C12.348 5.193 11.115 3.87 9.549 3.636Z"/>
</svg>
