<svg viewBox="0 0 16 16" fill="none" xmlns="http://www.w3.org/2000/svg">
<path d="M13.3866 7.6135L10.6933 3.84683C10.4666 3.52683 10.0999 3.3335 9.70661 3.3335C8.71328 3.3335 8.13994 4.4535 8.71328 5.26016L10.6666 8.00016L8.71328 10.7402C8.13328 11.5468 8.71328 12.6668 9.70661 12.6668C10.0999 12.6668 10.4733 12.4735 10.6999 12.1535L13.3933 8.38683C13.5533 8.1535 13.5533 7.84683 13.3866 7.6135Z" fill="white"/>
<path d="M8.72011 7.6135L6.03344 3.84683C5.80011 3.52683 5.43344 3.3335 5.04011 3.3335C4.04677 3.3335 3.46677 4.4535 4.04677 5.26016L6.00011 8.00016L4.04677 10.7402C3.46677 11.5468 4.04677 12.6668 5.04011 12.6668C5.43344 12.6668 5.80677 12.4735 6.03344 12.1535L8.72677 8.38683C8.88677 8.1535 8.88677 7.84683 8.72011 7.6135Z" fill="white"/>
</svg>
