<svg viewBox="0 0 16 16" fill="none" xmlns="http://www.w3.org/2000/svg">
<path d="M2.61339 7.6135L5.30672 3.84683C5.53339 3.52683 5.90006 3.3335 6.29339 3.3335C7.28672 3.3335 7.86006 4.4535 7.28672 5.26016L5.33339 8.00016L7.28672 10.7402C7.86672 11.5468 7.28672 12.6668 6.29339 12.6668C5.90006 12.6668 5.52672 12.4735 5.30006 12.1535L2.60672 8.38683C2.44672 8.1535 2.44672 7.84683 2.61339 7.6135Z" fill="white"/>
<path d="M7.27989 7.6135L9.96656 3.84683C10.1999 3.52683 10.5666 3.3335 10.9599 3.3335C11.9532 3.3335 12.5332 4.4535 11.9532 5.26016L9.99989 8.00016L11.9532 10.7402C12.5332 11.5468 11.9532 12.6668 10.9599 12.6668C10.5666 12.6668 10.1932 12.4735 9.96656 12.1535L7.27323 8.38683C7.11323 8.1535 7.11323 7.84683 7.27989 7.6135Z" fill="white"/>
</svg>
