<svg viewBox="0 0 23 22" xmlns="http://www.w3.org/2000/svg">
  <path fill-rule="evenodd" clip-rule="evenodd" d="M18.65 18.15C20.4833 16.3166 21.5833 13.8416 21.5833 11C21.5833 5.40829 17.0916 0.916626 11.5 0.916626C8.74996 0.916626 6.18329 2.01663 4.34996 3.84996C2.51663 5.68329 1.41663 8.24996 1.41663 11C1.41663 16.5916 5.90829 21.0833 11.5 21.0833C14.25 21.0833 16.8166 19.9833 18.65 18.15ZM19.75 11C19.75 12.925 19.1083 14.7583 17.9166 16.1333L6.36663 4.58329C7.74163 3.39163 9.57496 2.74996 11.5 2.74996C16.0833 2.74996 19.75 6.41663 19.75 11ZM5.08329 5.86663C3.89163 7.24163 3.24996 9.07496 3.24996 11C3.24996 15.5833 6.91663 19.25 11.5 19.25C13.425 19.25 15.2583 18.5166 16.6333 17.4166L5.08329 5.86663Z" />
</svg>
