<svg viewBox="0 0 28 28"  xmlns="http://www.w3.org/2000/svg">
<path d="M22.1667 15.1667V21C22.1667 21.6417 21.6417 22.1667 21 22.1667H7C6.35833 22.1667 5.83333 21.6417 5.83333 21V15.1667C5.83333 14.525 5.30833 14 4.66667 14C4.025 14 3.5 14.525 3.5 15.1667V22.1667C3.5 23.45 4.55 24.5 5.83333 24.5H22.1667C23.45 24.5 24.5 23.45 24.5 22.1667V15.1667C24.5 14.525 23.975 14 23.3333 14C22.6917 14 22.1667 14.525 22.1667 15.1667Z"/>
<path d="M17.3016 9.63565L15.1501 7.45614V17.5074C15.1501 18.145 14.6351 18.6667 14.0057 18.6667C13.3763 18.6667 12.8613 18.145 12.8613 17.5074V7.45614L10.6984 9.63565C10.252 10.0878 9.53106 10.0878 9.08474 9.63565C8.63842 9.18352 8.63842 8.45315 9.08474 8.00102L13.1932 3.8391C13.6395 3.38697 14.3605 3.38697 14.8068 3.8391L18.9153 8.00102C19.3616 8.45315 19.3616 9.18352 18.9153 9.63565C18.4689 10.0878 17.748 10.0878 17.3016 9.63565Z"/>
</svg>
