<svg viewBox="0 0 28 28"  xmlns="http://www.w3.org/2000/svg">
<path d="M22.6683 15.1435C22.715 14.7702 22.75 14.3968 22.75 14.0002C22.75 13.6035 22.715 13.2302 22.6683 12.8568L25.13 10.9318C25.3517 10.7568 25.41 10.4418 25.27 10.1852L22.9367 6.1485C22.7967 5.89183 22.4817 5.7985 22.225 5.89183L19.32 7.0585C18.7133 6.59183 18.06 6.20683 17.3483 5.91516L16.905 2.8235C16.87 2.5435 16.625 2.3335 16.3333 2.3335H11.6667C11.375 2.3335 11.13 2.5435 11.095 2.8235L10.6517 5.91516C9.94 6.20683 9.28666 6.6035 8.68 7.0585L5.775 5.89183C5.50666 5.78683 5.20333 5.89183 5.06333 6.1485L2.73 10.1852C2.57833 10.4418 2.64833 10.7568 2.87 10.9318L5.33166 12.8568C5.285 13.2302 5.25 13.6152 5.25 14.0002C5.25 14.3852 5.285 14.7702 5.33166 15.1435L2.87 17.0685C2.64833 17.2435 2.59 17.5585 2.73 17.8152L5.06333 21.8518C5.20333 22.1085 5.51833 22.2018 5.775 22.1085L8.68 20.9418C9.28666 21.4085 9.94 21.7935 10.6517 22.0852L11.095 25.1768C11.13 25.4568 11.375 25.6668 11.6667 25.6668H16.3333C16.625 25.6668 16.87 25.4568 16.905 25.1768L17.3483 22.0852C18.06 21.7935 18.7133 21.3968 19.32 20.9418L22.225 22.1085C22.4933 22.2135 22.7967 22.1085 22.9367 21.8518L25.27 17.8152C25.41 17.5585 25.3517 17.2435 25.13 17.0685L22.6683 15.1435ZM14 18.0835C11.7483 18.0835 9.91666 16.2518 9.91666 14.0002C9.91666 11.7485 11.7483 9.91683 14 9.91683C16.2517 9.91683 18.0833 11.7485 18.0833 14.0002C18.0833 16.2518 16.2517 18.0835 14 18.0835Z" />
</svg>