<svg width="30" height="32" fill="none" xmlns="http://www.w3.org/2000/svg">
  <g filter="url(#a)">
    <ellipse cx="14" cy="15" rx="11" ry="11.629" transform="rotate(-180 14 15)" fill="#F57940"/>
  </g>
  <path d="m19.387 15.409-2.694 3.981a1.193 1.193 0 0 1-.986.543c-.994 0-1.567-1.184-.994-2.037L16.667 15l-1.954-2.897c-.58-.853 0-2.037.994-2.037.393 0 .766.205.993.543l2.693 3.982c.16.247.16.57-.006.818Z" fill="#fff"/>
  <path d="m14.72 15.409-2.687 3.981c-.233.339-.6.543-.993.543-.994 0-1.574-1.184-.994-2.037L12 15l-1.954-2.897c-.58-.853 0-2.037.994-2.037.393 0 .766.205.993.543l2.693 3.982c.16.247.16.57-.006.818Z" fill="#fff"/>
  <defs>
    <filter id="a" x="0" y=".371" width="30" height="31.257" filterUnits="userSpaceOnUse" color-interpolation-filters="sRGB">
      <feFlood flood-opacity="0" result="BackgroundImageFix"/>
      <feColorMatrix in="SourceAlpha" values="0 0 0 0 0 0 0 0 0 0 0 0 0 0 0 0 0 0 127 0" result="hardAlpha"/>
      <feOffset dx="1" dy="1"/>
      <feGaussianBlur stdDeviation="2"/>
      <feComposite in2="hardAlpha" operator="out"/>
      <feColorMatrix values="0 0 0 0 0.0862745 0 0 0 0 0.0862745 0 0 0 0 0.113725 0 0 0 0.25 0"/>
      <feBlend in2="BackgroundImageFix" result="effect1_dropShadow_4239_9396"/>
      <feBlend in="SourceGraphic" in2="effect1_dropShadow_4239_9396" result="shape"/>
    </filter>
  </defs>
</svg>