<svg viewBox="0 0 55 56" xmlns="http://www.w3.org/2000/svg">
    <path
        d="M54.6959 27.5229C54.7585 31.1119 54.1136 34.678 52.7981 38.0177C51.4826 41.3574 49.5221 44.4053 47.0286 46.9873C44.5352 49.5693 41.5576 51.635 38.2658 53.0663C34.9741 54.4976 31.4326 55.2665 27.8437 55.3291C24.2548 55.3918 20.6887 54.7469 17.349 53.4314C14.0093 52.1158 10.9614 50.1554 8.37936 47.6619C5.79731 45.1685 3.73167 42.1909 2.30038 38.8991C0.869084 35.6074 0.100163 32.0659 0.0375183 28.477L7.20727 28.3518C7.25348 30.9992 7.82068 33.6116 8.87648 36.0397C9.93227 38.4679 11.456 40.6643 13.3606 42.5036C15.2653 44.3429 17.5136 45.7891 19.9771 46.7595C22.4406 47.7299 25.0712 48.2056 27.7186 48.1594C30.3659 48.1132 32.9783 47.546 35.4065 46.4902C37.8346 45.4344 40.0311 43.9107 41.8704 42.006C43.7097 40.1014 45.1558 37.8531 46.1262 35.3895C47.0966 32.926 47.5723 30.2955 47.5261 27.6481L54.6959 27.5229Z" />
</svg>