<svg viewBox="0 0 16 16" fill="none" xmlns="http://www.w3.org/2000/svg">
<path d="M7.11123 5.11122V8.38233C7.11123 8.69344 7.28012 8.98678 7.54678 9.14678L10.3201 10.7912C10.6401 10.9779 11.049 10.8712 11.2357 10.5601C11.4223 10.2401 11.3246 9.83122 11.0046 9.64455L8.45345 8.12455V5.10233C8.44456 4.74677 8.14234 4.44455 7.77789 4.44455C7.41345 4.44455 7.11123 4.74677 7.11123 5.11122ZM16.0001 5.77789V1.07566C16.0001 0.675663 15.5201 0.480107 15.2446 0.764552L13.6623 2.34677C12.0535 0.737885 9.76012 -0.186559 7.25345 0.0356628C3.529 0.373441 0.462337 3.369 0.0534482 7.09344C-0.479885 11.9112 3.28012 16.0001 8.00012 16.0001C12.0801 16.0001 15.449 12.9423 15.9379 8.99566C16.0001 8.46233 15.5823 8.00011 15.049 8.00011C14.6046 8.00011 14.2312 8.329 14.1779 8.76455C13.7957 11.8668 11.1201 14.2668 7.91123 14.2223C4.61345 14.1779 1.83123 11.3957 1.77789 8.089C1.72456 4.62233 4.54234 1.77789 8.00012 1.77789C9.71567 1.77789 11.2712 2.48011 12.4001 3.60011L10.5423 5.45789C10.2579 5.74233 10.4534 6.22233 10.8534 6.22233H15.5557C15.8046 6.22233 16.0001 6.02677 16.0001 5.77789Z" />
</svg>
