<svg viewBox=".5 0 19 19" fill="none" xmlns="http://www.w3.org/2000/svg">
<path d="M12.5943 6.37639C12.7546 6.2137 13.0136 6.2137 13.1739 6.37639C13.3301 6.5349 13.3301 6.80187 13.1739 6.96039L11.0358 9.0002L13.1739 11.04C13.3342 11.2027 13.3342 11.4655 13.1739 11.6282C13.0136 11.7909 12.7546 11.7909 12.5943 11.6282L10.5841 9.58837L8.57396 11.6282C8.41364 11.7909 8.15466 11.7909 7.99434 11.6282C7.83402 11.4655 7.83402 11.2027 7.99434 11.04L10.0045 9.0002L7.99434 6.96039C7.83402 6.7977 7.83402 6.5349 7.99434 6.37222C8.15466 6.20953 8.41364 6.20953 8.57396 6.37222L10.5841 8.41204L12.5943 6.37639Z" fill="#E43B5F"/>
<path d="M10.81 0.750277C6.21197 0.621944 2.44504 4.36194 2.44504 9.00028H0.828057C0.421553 9.00028 0.222818 9.49528 0.511887 9.77944L3.03221 12.3461C3.21288 12.5294 3.49291 12.5294 3.67358 12.3461L6.1939 9.77944C6.48297 9.49528 6.2752 9.00028 5.87773 9.00028H4.25172C4.25172 5.42528 7.12434 2.53778 10.6654 2.58361C14.0259 2.62944 16.8533 5.49861 16.8985 8.90861C16.9437 12.4928 14.0981 15.4169 10.5751 15.4169C9.12073 15.4169 7.77475 14.9128 6.70881 14.0603C6.34747 13.7761 5.8416 13.8036 5.5164 14.1336C5.13699 14.5278 5.16409 15.1694 5.58866 15.5086C6.96174 16.5994 8.69616 17.2503 10.5751 17.2503C15.137 17.2503 18.8316 13.4278 18.7052 8.76194C18.5877 4.46278 15.0466 0.869444 10.81 0.750277Z" fill="#E43B5F"/>
</svg>
