<svg viewBox="0 0 24 24" xmlns="http://www.w3.org/2000/svg">
<path d="M2.73804 16.9979C1.96611 18.3313 2.92823 20 4.46889 20H19.5311C21.0718 20 22.0339 18.3313 21.262 16.9979L13.7309 3.98965C12.9605 2.65908 11.0395 2.65908 10.2691 3.98965L2.73804 16.9979ZM6.2042 18C5.43393 18 4.95286 17.1657 5.33872 16.4991L11.1345 6.48535C11.5197 5.81992 12.4803 5.81992 12.8655 6.48535L18.6613 16.4991C19.0471 17.1657 18.5661 18 17.7958 18H6.2042ZM11 16C11 15.4477 11.4477 15 12 15C12.5523 15 13 15.4477 13 16C13 16.5523 12.5523 17 12 17C11.4477 17 11 16.5523 11 16ZM11 10C11 9.44771 11.4477 9 12 9C12.5523 9 13 9.44771 13 10V13C13 13.5523 12.5523 14 12 14C11.4477 14 11 13.5523 11 13V10Z"/>
</svg>
