<svg viewBox="0 0 28 28"  xmlns="http://www.w3.org/2000/svg">
<path d="M9.33331 8.1665H23.3333C23.975 8.1665 24.5 7.6415 24.5 6.99984C24.5 6.35817 23.975 5.83317 23.3333 5.83317H9.33331C8.69165 5.83317 8.16665 6.35817 8.16665 6.99984C8.16665 7.6415 8.69165 8.1665 9.33331 8.1665ZM23.3333 19.8332H9.33331C8.69165 19.8332 8.16665 20.3582 8.16665 20.9998C8.16665 21.6415 8.69165 22.1665 9.33331 22.1665H23.3333C23.975 22.1665 24.5 21.6415 24.5 20.9998C24.5 20.3582 23.975 19.8332 23.3333 19.8332ZM23.3333 12.8332H9.33331C8.69165 12.8332 8.16665 13.3582 8.16665 13.9998C8.16665 14.6415 8.69165 15.1665 9.33331 15.1665H23.3333C23.975 15.1665 24.5 14.6415 24.5 13.9998C24.5 13.3582 23.975 12.8332 23.3333 12.8332ZM5.24998 18.6665H2.91665C2.58998 18.6665 2.33331 18.9232 2.33331 19.2498C2.33331 19.5765 2.58998 19.8332 2.91665 19.8332H4.66665V20.4165H4.08331C3.75665 20.4165 3.49998 20.6732 3.49998 20.9998C3.49998 21.3265 3.75665 21.5832 4.08331 21.5832H4.66665V22.1665H2.91665C2.58998 22.1665 2.33331 22.4232 2.33331 22.7498C2.33331 23.0765 2.58998 23.3332 2.91665 23.3332H5.24998C5.57665 23.3332 5.83331 23.0765 5.83331 22.7498V19.2498C5.83331 18.9232 5.57665 18.6665 5.24998 18.6665ZM2.91665 5.83317H3.49998V8.74984C3.49998 9.0765 3.75665 9.33317 4.08331 9.33317C4.40998 9.33317 4.66665 9.0765 4.66665 8.74984V5.24984C4.66665 4.92317 4.40998 4.6665 4.08331 4.6665H2.91665C2.58998 4.6665 2.33331 4.92317 2.33331 5.24984C2.33331 5.5765 2.58998 5.83317 2.91665 5.83317ZM5.24998 11.6665H2.91665C2.58998 11.6665 2.33331 11.9232 2.33331 12.2498C2.33331 12.5765 2.58998 12.8332 2.91665 12.8332H4.43331L2.47331 15.1198C2.37998 15.2248 2.33331 15.3648 2.33331 15.4932V15.7498C2.33331 16.0765 2.58998 16.3332 2.91665 16.3332H5.24998C5.57665 16.3332 5.83331 16.0765 5.83331 15.7498C5.83331 15.4232 5.57665 15.1665 5.24998 15.1665H3.73331L5.69331 12.8798C5.78665 12.7748 5.83331 12.6348 5.83331 12.5065V12.2498C5.83331 11.9232 5.57665 11.6665 5.24998 11.6665Z"/>
</svg>
